<svg xmlns="http://www.w3.org/2000/svg" width="109.295" height="107.813"><defs><style>.e{fill:#ff7fb1}</style></defs><path d="M51.137 61.678h28.27a21.038 21.038 0 10.264-42.074h-.059a8.048 8.048 0 01-7.343-4.663 23.3 23.3 0 00-42.263 0 8.049 8.049 0 01-7.343 4.663h-.059a21.038 21.038 0 10.264 42.074z" fill="#7fb9ff"/><path d="M59.321 26.121c3.393-7.477 6.957-12.348 10.341-15.486a23.295 23.295 0 00-39.657 4.308 8.048 8.048 0 01-7.343 4.663h-.059a21.039 21.039 0 00-20.939 19c13.895 10.382 47.332 10.263 57.657-12.485z" fill="#afd3ff"/><path d="M98.12 50.678a20.822 20.822 0 01-1.534 2.381 32.491 32.491 0 00-17.245-9.98 32.989 32.989 0 00-7.078-.773 32.81 32.81 0 00-29.825 19.372h-2.982a35.55 35.55 0 0132.808-22.113 35.862 35.862 0 017.665.835A35.208 35.208 0 0198.12 50.678z" fill="#ff7ee0"/><path d="M33.853 63.133H22.767A22.7 22.7 0 01.001 40.801a22.5 22.5 0 0122.506-22.668h.093a6.591 6.591 0 005.953-3.8 24.763 24.763 0 0144.917 0 6.6 6.6 0 005.965 3.8h.081a22.489 22.489 0 0121.905 27.64 1.487 1.487 0 11-2.893-.686 19.526 19.526 0 00-19.012-23.981h-.068a9.581 9.581 0 01-8.674-5.518 21.789 21.789 0 00-39.525 0 9.578 9.578 0 01-8.662 5.518h-.081a19.53 19.53 0 00-19.53 19.678 19.715 19.715 0 0019.793 19.381h11.086a1.486 1.486 0 110 2.973z"/><path d="M8.529 42.262a1.487 1.487 0 01-1.486-1.476 15.327 15.327 0 0115.326-15.444h.086a1.486 1.486 0 010 2.973h-.086a12.354 12.354 0 00-12.35 12.449 1.486 1.486 0 01-1.475 1.5z"/><g transform="translate(41.071 43.717)"><circle cx="31.257" cy="31.257" fill="#ff1d8b" r="31.257"/><path class="e" d="M55.167 11.126a18.716 18.716 0 00-3.6 1.291s-12.054 4.087-17.734 21.089c-4.1 12.26-14.806 17.28-26.313 18.088a31.258 31.258 0 1147.649-40.468z"/></g><path d="M109.178 75.472a1.486 1.486 0 00-1.37-.909h-2.741a32.742 32.742 0 10-39.752 32.479 33 33 0 007.078.771 32.789 32.789 0 0029.724-19.158 1.486 1.486 0 00-2.702-1.235 29.76 29.76 0 112.683-12.861h-2.352a1.486 1.486 0 00-1.08 2.508l3.968 4.2a1.486 1.486 0 001.068.465h.012a1.487 1.487 0 001.063-.448l4.1-4.2a1.487 1.487 0 00.301-1.612z"/><path class="e" d="M87.396 91.131a2 2 0 01-2 2H59.288a2 2 0 01-2-2V57.923a2 2 0 012-2h17.434l10.672 10.672z"/><path d="M87.399 66.597v24.535a2 2 0 01-2 2H59.291a.423.423 0 01-.053 0 24.811 24.811 0 0015.664-15.9 38.46 38.46 0 018.527-14.592z" fill="#ff5f9c"/><path d="M87.395 66.594H76.724V55.922z" fill="#ff3da2"/><path d="M79.871 74.614H64.819a1.486 1.486 0 010-2.973h15.052a1.486 1.486 0 010 2.973zm0 6.091H64.819a1.486 1.486 0 010-2.973h15.052a1.486 1.486 0 010 2.973zm0 6.091H64.819a1.486 1.486 0 010-2.973h15.052a1.486 1.486 0 010 2.973z"/><path d="M87.396 74.053a1.486 1.486 0 001.486-1.487v-5.968a1.481 1.481 0 00-.432-1.051L77.779 54.875a1.485 1.485 0 00-1.051-.432H59.294a3.487 3.487 0 00-3.483 3.483v33.208a3.487 3.487 0 003.483 3.483h26.108a3.487 3.487 0 003.483-3.483v-12.6a1.486 1.486 0 00-2.973 0v12.6a.511.511 0 01-.511.51H59.293a.511.511 0 01-.511-.51V57.926a.511.511 0 01.511-.51h15.948v9.185a1.486 1.486 0 001.486 1.487h9.185v4.482a1.486 1.486 0 001.484 1.483zm-9.185-8.941v-5.6l5.6 5.6z"/></svg>