<svg xmlns="http://www.w3.org/2000/svg" width="101.677" height="107.742"><defs><style>.d{fill:#ff5f9c}.e{fill:#ff7fb1}</style></defs><path d="M50.839 61.443h28.156a20.954 20.954 0 10.263-41.906H79.2a8.015 8.015 0 01-7.313-4.645 23.206 23.206 0 00-42.094 0 8.016 8.016 0 01-7.314 4.645h-.059a20.954 20.954 0 10.263 41.906z" fill="#7fb9ff"/><path d="M58.991 26.026c3.379-7.447 6.929-12.3 10.3-15.424a23.2 23.2 0 00-39.5 4.291 8.015 8.015 0 01-7.314 4.645h-.058A20.955 20.955 0 001.564 38.459C15.403 48.803 48.71 48.684 58.991 26.026z" fill="#afd3ff"/><path d="M63.231 55.798v-7.775a3.58 3.58 0 013.577-3.574h6.757a3.578 3.578 0 013.574 3.574v7.771h2.744v-7.771a6.375 6.375 0 00-6.319-6.377h-6.757a6.376 6.376 0 00-6.321 6.377v7.771z" fill="#ff7ee0"/><path d="M32.188 62.929h-9.495A22.623 22.623 0 010 40.668a22.43 22.43 0 0122.43-22.6h.058a6.575 6.575 0 005.963-3.783 24.684 24.684 0 0144.773 0 6.567 6.567 0 005.94 3.783h.081a22.431 22.431 0 0122.43 22.6 21.994 21.994 0 01-1.851 8.7 1.486 1.486 0 11-2.723-1.192 19.039 19.039 0 001.6-7.535 19.459 19.459 0 00-19.458-19.606h-.085a9.546 9.546 0 01-8.632-5.5 21.711 21.711 0 00-39.381 0 9.55 9.55 0 01-8.637 5.5h-.081A19.458 19.458 0 002.97 40.641a19.642 19.642 0 0019.72 19.31h9.495a1.486 1.486 0 010 2.973z"/><path d="M9.418 42.55a1.487 1.487 0 01-1.486-1.475 15.2 15.2 0 0115.2-15.321h.084a1.486 1.486 0 010 2.973h-.084a12.232 12.232 0 00-12.229 12.326 1.486 1.486 0 01-1.475 1.5z"/><path class="d" d="M95.536 55.802H44.189a3.411 3.411 0 00-3.411 3.411v32.43a3.411 3.411 0 003.412 3.411h16.728a1.953 1.953 0 011.953 1.953v9.251h13.618v-9.256a1.953 1.953 0 011.953-1.953h17.094a3.411 3.411 0 003.412-3.411v-32.43a3.411 3.411 0 00-3.412-3.406z"/><path class="e" d="M44.187 55.802a3.411 3.411 0 00-3.411 3.411v27.928a33.281 33.281 0 003.755.214 32.92 32.92 0 0032.891-31.554z"/><path class="e" d="M98.946 87.353v4.287a3.41 3.41 0 01-3.411 3.411H44.187a3.412 3.412 0 01-3.411-3.411v-4.287z"/><path d="M78.44 95.051a1.954 1.954 0 00-1.954 1.954v9.25H62.868v-9.252a1.952 1.952 0 00-1.954-1.954z" fill="#ff1d8b"/><path d="M95.402 54.574H85.056a1.486 1.486 0 100 2.973h10.346a1.909 1.909 0 011.907 1.907v26.509h-54.9V59.454a1.91 1.91 0 011.908-1.907h11.712a1.486 1.486 0 100-2.973H44.317a4.885 4.885 0 00-4.88 4.88v32.261a4.885 4.885 0 004.88 4.88h16.641a.457.457 0 01.456.457v7.717h-2.347a1.486 1.486 0 100 2.973h21.579a1.486 1.486 0 100-2.973h-2.704v-7.717a.457.457 0 01.457-.457h17.007a4.886 4.886 0 004.88-4.88V59.454a4.886 4.886 0 00-4.884-4.88zm0 39.049H78.395a3.433 3.433 0 00-3.429 3.429v7.717H64.392v-7.717a3.393 3.393 0 00-.034-.457h4.392a1.486 1.486 0 000-2.973H44.322a1.909 1.909 0 01-1.908-1.907v-2.783h54.9v2.779a1.909 1.909 0 01-1.912 1.912z"/><path class="d" d="M86.879 63.521a5.888 5.888 0 00-5.468-3.669h-1.528v-4.05h-2.744v6.69a.106.106 0 00.106.107h4.166a3.164 3.164 0 012.219 5.418L72.399 79.071a3.172 3.172 0 01-4.43 0L56.738 68.017a3.164 3.164 0 012.219-5.418h4.166a.107.107 0 00.106-.107v-6.69h-2.744v4.053h-1.529a5.908 5.908 0 00-4.144 10.118l11.231 11.054a5.916 5.916 0 008.28 0l11.231-11.054a5.887 5.887 0 001.325-6.452z"/><path d="M71.358 78.009l11.231-11.054a1.677 1.677 0 00-1.177-2.873h-4.166a1.593 1.593 0 01-1.593-1.593V48.027a2.089 2.089 0 00-2.089-2.089h-6.758a2.089 2.089 0 00-2.089 2.089V62.49a1.593 1.593 0 01-1.593 1.593h-4.166a1.677 1.677 0 00-1.177 2.873L69.012 78.01a1.671 1.671 0 002.346-.001z" fill="#ff6cb8"/><path d="M71.357 78.01l11.231-11.054a1.677 1.677 0 00-1.177-2.873h-4.166a1.593 1.593 0 01-1.593-1.593v-8.539a27.271 27.271 0 00-9.449 20.671q0 .318.008.634l2.8 2.757a1.671 1.671 0 002.346-.003z" fill="#ff3da2"/><path d="M70.185 79.97a3.149 3.149 0 01-2.215-.9L56.739 68.016a3.163 3.163 0 012.219-5.418h4.166a.107.107 0 00.106-.107V48.027a3.579 3.579 0 013.575-3.575h6.759a3.579 3.579 0 013.575 3.575V62.49a.107.107 0 00.107.107h4.166a3.164 3.164 0 012.219 5.418L72.4 79.069a3.149 3.149 0 01-2.215.901zm1.172-1.961zm-12.4-12.44a.191.191 0 00-.134.327L70.054 76.95a.186.186 0 00.26 0l11.231-11.054a.191.191 0 00-.134-.327h-4.166a3.083 3.083 0 01-3.079-3.079V48.027a.6.6 0 00-.6-.6h-6.759a.6.6 0 00-.6.6V62.49a3.083 3.083 0 01-3.079 3.079zm17.065-26.711h-12.12a1.486 1.486 0 010-2.973h12.12a1.486 1.486 0 010 2.973zm0-5.767h-12.12a1.486 1.486 0 010-2.973h12.12a1.486 1.486 0 010 2.973z"/></svg>