<svg xmlns="http://www.w3.org/2000/svg" width="106.169" height="109.717"><defs><style>.d{fill:#ff7fb1}</style></defs><path d="M51.016 61.782h28.247a21.021 21.021 0 10.264-42.04h-.059a8.042 8.042 0 01-7.337-4.659 23.281 23.281 0 00-42.229 0 8.042 8.042 0 01-7.337 4.659h-.059a21.021 21.021 0 10.264 42.04z" fill="#7fb9ff"/><path d="M59.198 26.251c3.39-7.471 6.951-12.338 10.333-15.474a23.276 23.276 0 00-39.625 4.3 8.042 8.042 0 01-7.337 4.659h-.059A21.022 21.022 0 001.588 38.718c13.879 10.383 47.293 10.264 57.61-12.467z" fill="#afd3ff"/><path d="M38.656 54.288a6.215 6.215 0 015.1-6.4c5.522-.986 16.016-3.882 24.258-12.2a6.142 6.142 0 014.39-1.834 6.143 6.143 0 014.39 1.834c7.48 7.545 16.815 10.627 22.6 11.87a20.566 20.566 0 00.726-2.651c-5.441-1.148-14.321-4.028-21.383-11.151a8.866 8.866 0 00-6.338-2.646 8.867 8.867 0 00-6.339 2.646c-7.71 7.777-17.59 10.5-22.792 11.426a8.967 8.967 0 00-7.363 9.226q.179 3.78.616 7.365h2.763q-.443-3.633-.628-7.485z" fill="#ff7ee0"/><path d="M30.379 63.135h-7.613A22.7 22.7 0 010 40.803 22.5 22.5 0 0122.5 18.13h.077a6.6 6.6 0 005.97-3.8 24.763 24.763 0 0144.916 0 6.594 6.594 0 005.965 3.8h.081a22.5 22.5 0 0122.5 22.673 1.486 1.486 0 01-1.487 1.475h-.011a1.487 1.487 0 01-1.476-1.5A19.529 19.529 0 0079.506 21.1h-.085a9.575 9.575 0 01-8.657-5.518 21.79 21.79 0 00-39.525 0 9.577 9.577 0 01-8.661 5.518h-.081a19.53 19.53 0 00-19.53 19.678A19.715 19.715 0 0022.76 60.159h7.613a1.486 1.486 0 010 2.973z"/><path d="M9.215 42.567a1.487 1.487 0 01-1.486-1.476 15.327 15.327 0 0115.326-15.443h.084a1.486 1.486 0 010 2.973h-.084A12.354 12.354 0 0010.703 41.07a1.486 1.486 0 01-1.475 1.5z"/><path class="d" d="M69.074 36.743c-8.521 8.594-19.321 11.589-25.053 12.612a4.711 4.711 0 00-3.881 4.861c1.869 39.413 25.1 51.359 30.94 53.75a3.5 3.5 0 002.655 0c5.844-2.391 29.071-14.337 30.94-53.75a4.711 4.711 0 00-3.881-4.861c-5.731-1.024-16.532-4.018-25.053-12.612a4.684 4.684 0 00-6.667 0z"/><path d="M104.677 54.222c-1.871 39.412-25.1 51.358-30.942 53.75a3.505 3.505 0 01-1.326.261V35.349a4.688 4.688 0 013.334 1.395c8.52 8.594 19.321 11.587 25.051 12.611a4.713 4.713 0 013.883 4.867z" fill="#ff1d8b"/><path class="d" d="M73.492 99.991a2.287 2.287 0 01-2.166 0 39.252 39.252 0 01-11.56-9.672c-6.749-8.186-10.784-19.014-12.021-32.232a2.3 2.3 0 011.726-2.433 55.037 55.037 0 0021.472-10.711 2.291 2.291 0 012.929 0 55.034 55.034 0 0021.473 10.711 2.3 2.3 0 011.726 2.434C95.835 71.306 91.8 82.133 85.05 90.32a39.251 39.251 0 01-11.558 9.671z"/><path d="M97.072 58.089c-1.235 13.217-5.271 24.045-12.021 32.23a39.239 39.239 0 01-11.56 9.673 2.286 2.286 0 01-2.166 0 39.264 39.264 0 01-11.559-9.673 48.011 48.011 0 01-6.9-11.322 57.206 57.206 0 0116.641-5.939c10.391-2.047 16.682-10.8 20.379-19.078 1.946.7 3.787 1.249 5.456 1.674a2.3 2.3 0 011.73 2.435z" fill="#ff5f9c"/><path d="M101.057 47.893c-5.522-.986-16.016-3.883-24.258-12.2a6.142 6.142 0 00-4.389-1.834 6.142 6.142 0 00-4.39 1.834c-8.242 8.313-18.736 11.209-24.258 12.2a6.215 6.215 0 00-5.1 6.4c.81 17.086 5.627 31.093 14.318 41.633a46.315 46.315 0 0017.544 13.422 4.965 4.965 0 003.781 0A46.321 46.321 0 0091.85 95.926c8.69-10.54 13.507-24.547 14.317-41.633a6.215 6.215 0 00-5.11-6.4zM55.267 94.03c-8.272-10.034-12.862-23.452-13.641-39.883a3.234 3.234 0 012.658-3.327c5.868-1.048 17.028-4.135 25.846-13.029a3.242 3.242 0 01.792-.587v5.83a3.7 3.7 0 00-.974.6 50.651 50.651 0 01-20.916 10.431 3.771 3.771 0 00-2.885 4c1.086 12.805 4.813 23.481 11.077 31.73a40.4 40.4 0 0013.436 11.566c.086.045.173.084.261.122v4.8A43.869 43.869 0 0155.267 94.03zm47.925-39.883c-.779 16.431-5.369 29.849-13.642 39.883a43.867 43.867 0 01-15.655 12.253v-4.8c.088-.038.176-.077.261-.121a39.092 39.092 0 009.763-7.313 1.486 1.486 0 10-2.12-2.084 36.1 36.1 0 01-9.011 6.758.825.825 0 01-.759 0 37.428 37.428 0 01-12.437-10.725c-5.917-7.794-9.444-17.949-10.482-30.184a.813.813 0 01.622-.863 53.631 53.631 0 0022.152-11.065.81.81 0 011.048 0 53.629 53.629 0 0022.152 11.065.813.813 0 01.622.863c-1.007 11.875-4.362 21.8-9.972 29.5a1.486 1.486 0 102.4 1.751c5.934-8.143 9.478-18.572 10.531-31a3.77 3.77 0 00-2.884-4 50.645 50.645 0 01-20.912-10.428 3.71 3.71 0 00-.974-.6v-5.829a3.237 3.237 0 01.792.587c8.818 8.894 19.979 11.981 25.847 13.029a3.235 3.235 0 012.658 3.323z"/><g transform="translate(65.01 56.019)"><circle cx="5.269" cy="5.269" transform="translate(1.486 1.486)" fill="#fff" r="5.269"/><path d="M13.312 23.223H8.241v-3.068h5.071a1.486 1.486 0 000-2.973H8.241v-3.839a6.755 6.755 0 10-2.972 0v16a1.486 1.486 0 102.972 0V26.2h5.071a1.486 1.486 0 000-2.973zM2.973 6.755a3.782 3.782 0 113.782 3.782 3.786 3.786 0 01-3.782-3.782z"/></g></svg>