<svg xmlns="http://www.w3.org/2000/svg" width="106.709" height="109.49"><defs><style>.a{fill:#7fb9ff}.d{fill:#ff5f9c}.e{fill:#ff6cb8}.f{fill:#ff3da2}.g{fill:#ff7fb1}</style></defs><path class="a" d="M53.25 64.497h29.645a22.061 22.061 0 10.277-44.121h-.062a8.439 8.439 0 01-7.7-4.89 24.433 24.433 0 00-44.319 0 8.44 8.44 0 01-7.7 4.89h-.062a22.061 22.061 0 10.277 44.121z"/><path d="M61.833 27.211c3.558-7.841 7.3-12.948 10.844-16.24a24.427 24.427 0 00-41.586 4.517 8.44 8.44 0 01-7.7 4.89h-.062A22.063 22.063 0 001.371 40.297c14.571 10.895 49.638 10.77 60.462-13.086z" fill="#afd3ff"/><path d="M64.984 60.357a12.858 12.858 0 00-10.179-4.954H49.32a12.949 12.949 0 00-12.356 9.1h2.911a10.254 10.254 0 011.423-2.448 10.13 10.13 0 018.021-3.9h5.485a10.13 10.13 0 018.02 3.9 10.248 10.248 0 011.425 2.45h2.911a12.957 12.957 0 00-2.176-4.148zm-49.231-4.954h-.159a18.1 18.1 0 00-8.3 2.084 22.467 22.467 0 002.158 2 15.375 15.375 0 016.163-1.337h.118a15.613 15.613 0 0112.415 6.352h3.287a18.417 18.417 0 00-15.682-9.099zM72.69 64.5h3.288a15.6 15.6 0 0112.4-6.352h.119a15.416 15.416 0 017.6 2.066 22.464 22.464 0 002.226-1.847 18.153 18.153 0 00-9.8-2.963h-.159A18.4 18.4 0 0072.69 64.5z" fill="#ff7ee0"/><path d="M82.934 65.986H23.775A23.7 23.7 0 01.001 42.665a23.5 23.5 0 0123.5-23.676h.081a6.98 6.98 0 006.317-4.02 25.866 25.866 0 0146.917 0 6.979 6.979 0 006.312 4.02h.085a23.5 23.5 0 0123.5 23.676 23.7 23.7 0 01-23.779 23.321zM23.556 21.962h-.057A20.526 20.526 0 002.974 42.644a20.72 20.72 0 0020.8 20.37h59.159a20.72 20.72 0 0020.8-20.37 20.525 20.525 0 00-20.525-20.682h-.088a9.958 9.958 0 01-9-5.739 22.893 22.893 0 00-41.526 0 9.96 9.96 0 01-9.008 5.739z"/><circle class="d" cx="5.388" cy="5.388" transform="translate(47.967 21.185)" r="5.388"/><circle class="d" cx="3.527" cy="3.527" transform="translate(49.827 45.287)" r="3.527"/><circle class="d" cx="3.527" cy="3.527" transform="translate(85.447 45.287)" r="3.527"/><g transform="translate(11.579 19.699)"><circle class="d" cx="3.527" cy="3.527" transform="translate(1.486 25.589)" r="3.527"/><path d="M78.885 24.327v-.942a6.306 6.306 0 00-6.3-6.3H43.262v-3.5a6.874 6.874 0 10-2.973 0v3.5H9.826a6.306 6.306 0 00-6.3 6.3v.942a5.014 5.014 0 102.973 0v-.942a3.329 3.329 0 013.326-3.326h30.46v4.268a5.014 5.014 0 102.973 0v-4.268h29.327a3.329 3.329 0 013.326 3.326v.942a5.014 5.014 0 102.973 0zm-73.868 6.83a2.041 2.041 0 112.041-2.041 2.043 2.043 0 01-2.044 2.041zm36.762 0a2.041 2.041 0 112.041-2.041 2.043 2.043 0 01-2.044 2.041zm0-20.381a3.9 3.9 0 113.9-3.9 3.906 3.906 0 01-3.903 3.9zm35.62 20.381a2.041 2.041 0 112.041-2.041 2.043 2.043 0 01-2.045 2.041z"/></g><path class="e" d="M24.976 91.427q.452-.081.855-.187a5.36 5.36 0 003.973-5.2V73.992a14.294 14.294 0 00-14.072-14.356h-.107A14.294 14.294 0 001.553 73.992V86.04a5.36 5.36 0 003.973 5.2 11.721 11.721 0 001.4.273z"/><path class="f" d="M29.804 73.989v12.049a5.361 5.361 0 01-3.972 5.2c-.27.068-.553.132-.855.185l-18.045.087a12.133 12.133 0 01-1.406-.272 5.361 5.361 0 01-3.972-5.2v-1.925c6.707 2.433 18.145.245 19.833-9.941 1.635-9.876-6.677-13.1-9.726-13.935a13.926 13.926 0 013.965-.6h.107a14.294 14.294 0 0114.071 14.352z"/><path class="a" d="M29.86 100.205v2.463c0 2.945-6.348 5.335-14.18 5.335s-14.178-2.39-14.178-5.335v-2.463a9.713 9.713 0 015.376-8.692l2.751-1.372a6.664 6.664 0 0012.1 0l2.751 1.372a9.715 9.715 0 015.38 8.692z"/><path class="g" d="M25.465 75.37v.684a9.768 9.768 0 01-4.041 7.921 9.976 9.976 0 01-1.123.7 1.739 1.739 0 00-.912 1.541l.009.91a2.984 2.984 0 001.653 2.671l.677.339a6.664 6.664 0 01-12.1 0l.677-.339a2.984 2.984 0 001.653-2.671l.009-.912a1.735 1.735 0 00-.912-1.539 9.976 9.976 0 01-1.123-.7 9.772 9.772 0 01-4.038-7.921v-.464a.986.986 0 011.024-.988c2.323.08 8.063-.105 11.624-3.526a1.507 1.507 0 012.312.263 7.634 7.634 0 003.952 3.1.99.99 0 01.659.931z"/><path class="d" d="M25.465 75.371v.684a9.768 9.768 0 01-4.041 7.921 9.977 9.977 0 01-1.123.7 1.738 1.738 0 00-.912 1.541l.009.91a2.985 2.985 0 001.653 2.671l.677.338a6.663 6.663 0 01-12.1 0l.677-.338a2.985 2.985 0 001.653-2.671l.009-.912a1.735 1.735 0 00-.912-1.539l-.137-.076c4.917-1.077 9.456-4.308 10.469-10.432a15.535 15.535 0 00.2-1.871 7.762 7.762 0 003.222 2.138.99.99 0 01.656.936z"/><path d="M27.809 92.031a6.869 6.869 0 003.482-5.993V73.989a15.8 15.8 0 00-15.558-15.843h-.118A15.8 15.8 0 00.068 73.989v12.049a6.869 6.869 0 003.482 5.993 11.133 11.133 0 00-3.535 8.175v2.581a1.493 1.493 0 00.013.2c.211 2.486 2.863 4 5.1 4.844a31 31 0 0010.549 1.658 31 31 0 0010.549-1.658c2.239-.843 4.891-2.358 5.1-4.844a1.494 1.494 0 00.013-.2v-2.581a11.133 11.133 0 00-3.53-8.175zM3.04 73.989a12.814 12.814 0 0112.585-12.87h.1a12.816 12.816 0 0112.6 12.87v12.049a3.867 3.867 0 01-2.861 3.764c-.2.052-.8.14-.8.14l-2.945-1.469a1.5 1.5 0 01-.83-1.357l-.009-.91a.241.241 0 01.13-.215 11.266 11.266 0 005.944-9.937v-.684a2.485 2.485 0 00-1.641-2.329 6.164 6.164 0 01-3.2-2.5 2.962 2.962 0 00-2.155-1.354 2.993 2.993 0 00-2.439.817c-3.153 3.029-8.421 3.186-10.542 3.111a2.476 2.476 0 00-2.564 2.473v.465a11.266 11.266 0 005.945 9.937.241.241 0 01.129.215l-.009.926a1.491 1.491 0 01-.83 1.342l-2.985 1.489a11.53 11.53 0 01-.755-.16 3.867 3.867 0 01-2.861-3.764zm14.874 13.142a4.444 4.444 0 001.481 3.326c-.443 1.09-2.155 1.812-3.716 1.812s-3.273-.722-3.716-1.812a4.428 4.428 0 001.481-3.312l.009-.911a3.2 3.2 0 00-1.7-2.863 8.3 8.3 0 01-4.378-7.273c2.757.03 8.471-.374 12.193-3.95a.033.033 0 01.024-.01 9.143 9.143 0 004.38 3.576v.339a8.3 8.3 0 01-4.379 7.318 3.206 3.206 0 00-1.7 2.864zm10.458 15.535c0 1.307-4.48 3.849-12.693 3.849s-12.693-2.542-12.693-3.849v-2.461a8.182 8.182 0 014.555-7.363l1.827-.912a6.922 6.922 0 006.31 3.311 6.922 6.922 0 006.31-3.311l1.828.912a8.182 8.182 0 014.555 7.363z"/><path class="g" d="M54.803 59.633h-5.485a8.705 8.705 0 00-8.453 10.785l1.289 5.242v-.679a3.433 3.433 0 012.289-3.238l8.427-2.968a5.974 5.974 0 015.806 1.041l2.054 1.706a3.436 3.436 0 011.239 2.639v1.5l1.287-5.241a8.705 8.705 0 00-8.453-10.787z"/><path d="M54.804 59.633h-5.486a8.765 8.765 0 00-2.28.3c2.657.981 7.29 3.615 8.891 8.6a5.97 5.97 0 012.749 1.283l2.054 1.706a3.436 3.436 0 011.239 2.639v1.5l1.287-5.246a8.7 8.7 0 00-8.454-10.782z" fill="#ff1d8b"/><path class="f" d="M66.416 100.108v2.493c0 2.982-6.426 5.4-14.354 5.4s-14.354-2.419-14.354-5.4v-2.493a9.833 9.833 0 015.445-8.8l2.6-1.3a6.666 6.666 0 0012.289-.167l2.932 1.463a9.833 9.833 0 015.442 8.804z"/><path class="g" d="M61.971 74.159v1.5a9.9 9.9 0 01-4.407 8.241c-.258.172-.528.334-.8.483a1.767 1.767 0 00-.94 1.569l.009.922a3.024 3.024 0 001.672 2.705l.537.268a6.666 6.666 0 01-12.289.167l.871-.435a3.027 3.027 0 001.674-2.705l.009-.922a1.765 1.765 0 00-.942-1.569 9.758 9.758 0 01-1.082-.679 9.888 9.888 0 01-4.125-8.045v-.679a3.433 3.433 0 012.289-3.238l8.427-2.968a5.974 5.974 0 015.806 1.041l2.053 1.706a3.436 3.436 0 011.238 2.638z"/><path class="d" d="M61.971 74.159v1.5a9.9 9.9 0 01-4.407 8.242c-.258.172-.528.334-.8.482a1.768 1.768 0 00-.94 1.569l.009.922a3.024 3.024 0 001.672 2.705l.537.267a6.664 6.664 0 01-11.041 2.062 6.723 6.723 0 01-1.251-1.9l.871-.434a3.026 3.026 0 001.674-2.705l.009-.922a1.747 1.747 0 00-.709-1.418 12.342 12.342 0 008.694-9.94 12.756 12.756 0 00-.361-6.062 5.957 5.957 0 012.749 1.283l2.054 1.706a3.436 3.436 0 011.24 2.643z"/><path d="M61.636 89.979l-3.469-1.731a1.533 1.533 0 01-.851-1.389l-.009-.922a.283.283 0 01.16-.244 11.388 11.388 0 005.986-9.839l1.249-5.084a10.191 10.191 0 00-9.9-12.622h-5.485a10.191 10.191 0 00-9.9 12.626l1.25 5.08a11.387 11.387 0 005.986 9.839.283.283 0 01.16.244l-.009.937a1.528 1.528 0 01-.85 1.375l-3.469 1.731a11.258 11.258 0 00-6.267 10.13v2.613a1.477 1.477 0 00.014.2c.213 2.507 2.892 4.037 5.153 4.888a34.8 34.8 0 0021.347 0c2.262-.851 4.941-2.381 5.154-4.888a1.47 1.47 0 00.014-.2v-2.611a11.258 11.258 0 00-6.264-10.133zm-18-26.094a7.175 7.175 0 015.681-2.766h5.485a7.219 7.219 0 017.01 8.941l-.088.357-.045-.039-2.054-1.707a7.5 7.5 0 00-7.251-1.3l-8.425 2.969a4.9 4.9 0 00-1.387.761l-.256-1.04a7.175 7.175 0 011.336-6.175zm0 11.774v-.681a1.948 1.948 0 011.3-1.834l8.425-2.969a4.513 4.513 0 014.363.782l2.054 1.707a1.939 1.939 0 01.7 1.5v1.5a8.419 8.419 0 01-4.428 7.416 3.248 3.248 0 00-1.721 2.891l.009.907a4.48 4.48 0 001.5 3.357c-.424 1.039-2.006 1.862-3.779 1.862s-3.355-.823-3.779-1.862a4.468 4.468 0 001.5-3.344l.009-.922a3.248 3.248 0 00-1.721-2.89 8.42 8.42 0 01-4.426-7.419zm21.289 26.942c0 1.329-4.542 3.915-12.868 3.915s-12.868-2.586-12.868-3.915v-2.489a8.3 8.3 0 014.622-7.47l1.866-.931a7.74 7.74 0 0012.76 0l1.866.931a8.3 8.3 0 014.622 7.47z"/><path class="e" d="M97.746 91.427q.452-.081.855-.187a5.36 5.36 0 003.973-5.2V73.992a14.294 14.294 0 00-14.071-14.356h-.108a14.294 14.294 0 00-14.071 14.356V86.04a5.36 5.36 0 003.973 5.2 11.733 11.733 0 001.405.273z"/><path class="f" d="M102.573 73.989v12.049a5.361 5.361 0 01-3.972 5.2c-.27.068-.553.132-.855.185l-18.045.087a12.092 12.092 0 01-1.4-.272 5.363 5.363 0 01-3.974-5.2V84.12c6.707 2.422 18.125.226 19.81-9.948 1.635-9.865-6.654-13.087-9.714-13.933a14 14 0 013.977-.606h.107a14.292 14.292 0 0114.066 14.356z"/><path class="a" d="M102.627 100.205v2.463c0 2.945-6.348 5.335-14.18 5.335s-14.178-2.39-14.178-5.335v-2.463a9.711 9.711 0 015.378-8.692l2.637-1.317a6.666 6.666 0 0012.1-.11l2.861 1.427a9.715 9.715 0 015.382 8.692z"/><path class="g" d="M98.234 75.37v.684a9.771 9.771 0 01-4.137 7.99 9.461 9.461 0 01-1.024.636 1.73 1.73 0 00-.912 1.541l.009.91a2.982 2.982 0 001.651 2.671l.567.284a6.666 6.666 0 01-12.1.11l.789-.393a2.984 2.984 0 001.653-2.671l.009-.912a1.726 1.726 0 00-.912-1.539 9.642 9.642 0 01-1.219-.775 9.766 9.766 0 01-3.942-7.85v-.464a.986.986 0 011.024-.988c2.326.08 8.063-.105 11.624-3.526a1.507 1.507 0 012.312.263 7.644 7.644 0 003.952 3.1.99.99 0 01.656.929z"/><path class="d" d="M98.234 75.371v.684a9.771 9.771 0 01-4.137 7.99 9.443 9.443 0 01-1.024.636 1.729 1.729 0 00-.912 1.541l.009.91a2.982 2.982 0 001.651 2.671l.567.284a6.575 6.575 0 01-.823 1.361 6.663 6.663 0 01-10.469.05 6.473 6.473 0 01-.812-1.3l.789-.393a2.984 2.984 0 001.653-2.671l.009-.912a1.726 1.726 0 00-.912-1.539c-.05-.027-.1-.053-.146-.08 4.91-1.079 9.442-4.313 10.455-10.428a15.094 15.094 0 00.2-1.9 7.786 7.786 0 003.245 2.163.99.99 0 01.657.933z"/><path d="M100.574 92.028a6.863 6.863 0 003.485-5.99V73.989a15.8 15.8 0 00-15.558-15.843h-.119a15.8 15.8 0 00-15.547 15.843v12.049a6.863 6.863 0 003.485 5.99 11.133 11.133 0 00-3.539 8.178v2.581a1.5 1.5 0 00.013.2c.211 2.486 2.863 4 5.1 4.844a34.392 34.392 0 0021.1 0c2.239-.843 4.891-2.358 5.1-4.844a1.5 1.5 0 00.013-.2v-2.581a11.133 11.133 0 00-3.533-8.178zM75.809 73.99a12.814 12.814 0 0112.585-12.87h.1a12.816 12.816 0 0112.6 12.87v12.049a3.867 3.867 0 01-2.861 3.764c-.2.052-.408.1-.621.139h-.175l-2.945-1.469a1.5 1.5 0 01-.83-1.357l-.009-.91a.241.241 0 01.13-.215 11.266 11.266 0 005.945-9.937v-.684a2.485 2.485 0 00-1.641-2.329 6.163 6.163 0 01-3.2-2.5 2.991 2.991 0 00-4.595-.537c-3.153 3.029-8.421 3.186-10.542 3.111a2.476 2.476 0 00-2.564 2.473v.465a11.266 11.266 0 005.945 9.937.241.241 0 01.129.215l-.009.926a1.491 1.491 0 01-.83 1.342l-2.985 1.489a11.53 11.53 0 01-.755-.16 3.867 3.867 0 01-2.861-3.764zm14.874 13.142a4.444 4.444 0 001.481 3.326c-.443 1.09-2.155 1.812-3.716 1.812s-3.272-.722-3.716-1.812a4.429 4.429 0 001.481-3.312l.009-.911a3.205 3.205 0 00-1.7-2.863 8.3 8.3 0 01-4.378-7.273c2.759.03 8.47-.374 12.193-3.95a.033.033 0 01.024-.01 9.144 9.144 0 004.38 3.576v.339a8.3 8.3 0 01-4.379 7.318 3.206 3.206 0 00-1.7 2.864zm10.458 15.535c0 1.307-4.48 3.849-12.693 3.849s-12.692-2.542-12.692-3.849v-2.461a8.182 8.182 0 014.555-7.363l1.827-.912a7.669 7.669 0 0012.62 0l1.827.912a8.182 8.182 0 014.555 7.363z"/></svg>