<svg xmlns="http://www.w3.org/2000/svg" width="101.677" height="111.161"><defs><style>.g{fill:#ff7fb1}</style></defs><path d="M50.838 67.906h28.154a20.952 20.952 0 10.263-41.9h-.059a8.016 8.016 0 01-7.313-4.644 23.2 23.2 0 00-42.091 0 8.016 8.016 0 01-7.313 4.644h-.059a20.952 20.952 0 10.263 41.9z" fill="#7fb9ff"/><path d="M82.202 67.665v-4.791a7.633 7.633 0 00-7.624-7.624H23.502a7.633 7.633 0 00-7.624 7.624v3.919a21.264 21.264 0 002.744.723v-4.643a4.886 4.886 0 014.88-4.88h51.081a4.886 4.886 0 014.88 4.88v5.026a21.421 21.421 0 002.739-.234z" fill="#ff7ee0"/><path d="M58.99 32.492c3.379-7.447 6.929-12.3 10.3-15.423a23.2 23.2 0 00-39.5 4.29 8.016 8.016 0 01-7.313 4.644h-.059a20.954 20.954 0 00-20.854 18.92C15.405 55.267 48.71 55.149 58.99 32.492z" fill="#afd3ff"/><path d="M78.984 69.393h-56.29A22.623 22.623 0 01.001 47.132a22.431 22.431 0 0122.43-22.6h.077a6.568 6.568 0 005.944-3.783A24.712 24.712 0 0154.924 6.8a1.486 1.486 0 11-.489 2.932 21.74 21.74 0 00-23.291 12.269 9.549 9.549 0 01-8.636 5.5h-.081a19.458 19.458 0 00-19.453 19.61 19.643 19.643 0 0019.721 19.31h56.289a19.642 19.642 0 0019.72-19.31 19.276 19.276 0 00-1.9-8.54 1.486 1.486 0 012.681-1.284 22.229 22.229 0 012.188 9.846 22.623 22.623 0 01-22.689 22.26z"/><path d="M9.418 49.011a1.487 1.487 0 01-1.486-1.475 15.2 15.2 0 0115.2-15.321h.084a1.486 1.486 0 010 2.973h-.083a12.232 12.232 0 00-12.229 12.326 1.486 1.486 0 01-1.475 1.5z"/><path d="M95.959 17.678l-3.924-.343a.848.848 0 01-.745-.624 13.829 13.829 0 00-1.4-3.349.848.848 0 01.082-.973l2.517-3a.85.85 0 00-.05-1.147l-2.527-2.527a.85.85 0 00-1.147-.05l-3.02 2.53a.848.848 0 01-.968.085 13.826 13.826 0 00-3.359-1.379.848.848 0 01-.629-.746l-.341-3.9a.85.85 0 00-.847-.776h-3.574a.85.85 0 00-.847.776l-.343 3.925a.848.848 0 01-.624.744 13.829 13.829 0 00-3.349 1.4.848.848 0 01-.973-.082l-3-2.517a.85.85 0 00-1.147.05l-2.527 2.527a.85.85 0 00-.05 1.147l2.533 3.018a.848.848 0 01.085.968 13.822 13.822 0 00-1.379 3.359.848.848 0 01-.746.629l-3.9.34a.85.85 0 00-.776.847v3.585a.85.85 0 00.776.847l3.925.343a.848.848 0 01.744.624 13.815 13.815 0 001.4 3.349.848.848 0 01-.082.973l-2.516 3a.85.85 0 00.05 1.147l2.527 2.527a.85.85 0 001.147.05l3.018-2.533a.848.848 0 01.968-.085 13.819 13.819 0 003.359 1.379.849.849 0 01.63.746l.341 3.9a.85.85 0 00.846.776h3.573a.85.85 0 00.846-.776l.343-3.925a.847.847 0 01.623-.744 13.831 13.831 0 003.349-1.4.848.848 0 01.973.082l3 2.516a.85.85 0 001.147-.05l2.527-2.527a.85.85 0 00.05-1.147l-2.533-3.018a.848.848 0 01-.085-.968 13.823 13.823 0 001.379-3.359.848.848 0 01.746-.629l3.9-.34a.85.85 0 00.776-.847v-3.581a.85.85 0 00-.772-.847zm-18.1 9a6.318 6.318 0 116.318-6.318 6.318 6.318 0 01-6.315 6.316z" fill="#ff6cb8"/><path d="M80.543 38.456l.343-3.925a.847.847 0 01.623-.744 13.831 13.831 0 003.349-1.4.848.848 0 01.973.082l3 2.516a.85.85 0 001.147-.05l2.527-2.527a.85.85 0 00.05-1.147l-1.164-1.387a20.856 20.856 0 00-12.135-3.871h-.059a8.016 8.016 0 01-7.313-4.644 23.272 23.272 0 00-6.078-7.95c-.006.012-.011.025-.018.037a13.822 13.822 0 00-1.379 3.359.848.848 0 01-.746.629l-3.9.34a.85.85 0 00-.776.847v3.573a.85.85 0 00.776.847l3.925.343a.848.848 0 01.744.624 13.815 13.815 0 001.4 3.349.848.848 0 01-.082.973l-2.516 3a.85.85 0 00.05 1.147l2.527 2.527a.85.85 0 001.147.05l3.018-2.533a.848.848 0 01.968-.085 13.82 13.82 0 003.359 1.379.849.849 0 01.63.746l.341 3.9a.85.85 0 00.846.776h3.573a.85.85 0 00.85-.781z" fill="#ff3da2"/><path d="M79.697 40.719h-3.573a2.324 2.324 0 01-2.327-2.133l-.3-3.457a15.317 15.317 0 01-2.9-1.189l-2.682 2.251a2.323 2.323 0 01-3.154-.138l-2.527-2.526a2.323 2.323 0 01-.138-3.154l2.232-2.659a15.318 15.318 0 01-1.208-2.887l-3.487-.3A2.323 2.323 0 0157.5 22.2v-3.58a2.323 2.323 0 012.133-2.327l3.457-.3a15.338 15.338 0 011.189-2.9l-2.247-2.684a2.323 2.323 0 01.137-3.154l2.527-2.527a2.323 2.323 0 013.154-.138l2.66 2.232a15.316 15.316 0 012.887-1.208l.3-3.487a2.323 2.323 0 012.327-2.133h3.573a2.323 2.323 0 012.327 2.133l.3 3.457a15.3 15.3 0 012.9 1.189l2.682-2.251a2.324 2.324 0 013.154.138l2.527 2.527a2.324 2.324 0 01.138 3.154l-2.231 2.668a15.3 15.3 0 011.208 2.887l3.487.3a2.323 2.323 0 012.133 2.327v3.573a2.323 2.323 0 01-2.133 2.327l-3.457.3a15.331 15.331 0 01-1.189 2.9l2.25 2.686a2.323 2.323 0 01-.138 3.154l-2.527 2.527a2.324 2.324 0 01-3.154.138l-2.66-2.232a15.314 15.314 0 01-2.887 1.208l-.3 3.487a2.323 2.323 0 01-2.33 2.128zm-2.99-2.973h2.407l.292-3.343a2.342 2.342 0 011.716-2.05 12.363 12.363 0 002.989-1.251 2.34 2.34 0 012.678.228l2.551 2.141 1.7-1.7-2.156-2.573a2.343 2.343 0 01-.236-2.664 12.344 12.344 0 001.231-3 2.341 2.341 0 012.054-1.731l3.317-.29v-2.404l-3.343-.292a2.343 2.343 0 01-2.05-1.716 12.345 12.345 0 00-1.251-2.989 2.34 2.34 0 01.228-2.678l2.141-2.551-1.7-1.7-2.571 2.158a2.342 2.342 0 01-2.664.236 12.351 12.351 0 00-3-1.231 2.341 2.341 0 01-1.731-2.054l-.29-3.316h-2.407l-.292 3.343a2.343 2.343 0 01-1.716 2.05 12.354 12.354 0 00-2.989 1.251 2.342 2.342 0 01-2.678-.228l-2.553-2.144-1.7 1.7 2.158 2.571a2.343 2.343 0 01.236 2.664 12.351 12.351 0 00-1.231 3 2.34 2.34 0 01-2.054 1.731l-3.316.29v2.405l3.343.292a2.343 2.343 0 012.05 1.716 12.355 12.355 0 001.251 2.989 2.341 2.341 0 01-.228 2.677l-2.141 2.552 1.7 1.7 2.571-2.158a2.343 2.343 0 012.664-.236 12.345 12.345 0 003 1.231 2.341 2.341 0 011.731 2.054z"/><path d="M77.863 28.159a7.8 7.8 0 117.8-7.8 7.813 7.813 0 01-7.8 7.8zm0-12.635a4.831 4.831 0 104.831 4.831 4.836 4.836 0 00-4.831-4.827zm10.019 65.447h-2.144a1.486 1.486 0 110-2.973h2.144a1.486 1.486 0 010 2.973zm7.86 0h-2.144a1.486 1.486 0 010-2.973h2.144a1.486 1.486 0 010 2.973zm-91.26 0H2.338a1.486 1.486 0 110-2.973h2.144a1.486 1.486 0 110 2.973zm7.858 0h-2.144a1.486 1.486 0 110-2.973h2.144a1.486 1.486 0 110 2.973z"/><path d="M74.578 59.483h-51.08a3.394 3.394 0 00-3.394 3.394v32.261a3.394 3.394 0 003.394 3.394h16.641a1.943 1.943 0 011.943 1.943v9.2h13.55v-9.2a1.943 1.943 0 011.943-1.943h17.006a3.394 3.394 0 003.394-3.394V62.874a3.394 3.394 0 00-3.397-3.391z" fill="#ff5f9c"/><path class="g" d="M64.64 59.483H23.498a3.394 3.394 0 00-3.394 3.394v32.261a3.394 3.394 0 003.394 3.394h16.641a1.934 1.934 0 011.33.529 43.951 43.951 0 0023.182-38.747 56.075 56.075 0 00-.011-.831z"/><path class="g" d="M77.973 62.874v5.033H20.104v-5.033a3.394 3.394 0 013.394-3.394H74.58a3.392 3.392 0 013.393 3.394z"/><path d="M77.973 62.874v5.033H63.996a44.217 44.217 0 00.654-7.6c0-.277 0-.556-.009-.83h9.938a3.392 3.392 0 013.394 3.397zM20.104 90.87v4.265a3.394 3.394 0 003.394 3.394h16.636a1.942 1.942 0 011.944 1.944v9.2h13.547v-9.2a1.944 1.944 0 011.944-1.944h17.007a3.392 3.392 0 003.394-3.394V90.87z" fill="#ff1d8b"/><path d="M74.579 57.997H23.498a4.886 4.886 0 00-4.88 4.88v32.261a4.886 4.886 0 004.88 4.88h16.641a.457.457 0 01.457.457v7.717h-2.35a1.486 1.486 0 000 2.973h21.579a1.486 1.486 0 100-2.973h-2.709v-7.717a.457.457 0 01.457-.457h17.006a4.886 4.886 0 004.88-4.88V62.874a4.886 4.886 0 00-4.88-4.877zm1.907 37.141a1.91 1.91 0 01-1.907 1.907H57.572a3.433 3.433 0 00-3.429 3.429v7.717H43.569v-7.717a3.414 3.414 0 00-.034-.457h4.391a1.486 1.486 0 000-2.973H23.498a1.91 1.91 0 01-1.907-1.907v-2.779h54.9zm0-28.715h-8.4a1.486 1.486 0 000 2.973h8.4v19.991h-54.9v-19.99h38.237a1.486 1.486 0 100-2.973H21.591v-3.546a1.909 1.909 0 011.907-1.907h51.081a1.909 1.909 0 011.907 1.907z"/></svg>