<svg xmlns="http://www.w3.org/2000/svg" width="39.958" height="39.958"><g fill="#fff"><path data-name="Path 21980" d="M11.019 20.585a8.476 8.476 0 108.476-8.476 8.424 8.424 0 00-8.476 8.476zm14.53 0a6.054 6.054 0 11-6.054-6.054 6 6 0 016.054 6.054z"/><path data-name="Path 21981" d="M37.295 16.589l-3.39-1.09-.121-.363a12.156 12.156 0 01-2.906-.484 18.63 18.63 0 01.969 2.3l.121.605 4.359 1.332v3.39l-4.36 1.332-.121.605-1.09 2.543-.363.605 2.18 4-2.422 2.422-4-2.18-.605.363a11.5 11.5 0 01-2.543 1.09l-.605.121-1.332 4.359h-3.39l-1.332-4.359-.605-.121-2.539-1.092-.605-.363-4 2.18-2.42-2.422 2.18-4-.363-.605a11.5 11.5 0 01-1.092-2.54l-.119-.606-4.359-1.331v-3.39l4.117-1.211.242-.605a10.278 10.278 0 011.09-2.663l.363-.605-2.058-4L8.6 7.386l3.875 2.18.605-.363a10.278 10.278 0 012.661-1.092l.605-.242 1.332-4.238h3.39l1.332 4.24.605.242a13.122 13.122 0 012.3.969 8.36 8.36 0 01-.484-3.027l-.483-.244-1.09-3.39a2.044 2.044 0 00-1.816-1.21h-4.117a1.7 1.7 0 00-1.7 1.453l-1.09 3.39a5.35 5.35 0 00-1.937.727l-3.148-1.7a2.036 2.036 0 00-2.3.363L4.238 8.355a2.036 2.036 0 00-.363 2.3l1.574 3.027c-.242.605-.484 1.332-.727 1.937l-3.39 1.092A1.968 1.968 0 000 18.526v4.117a1.928 1.928 0 001.453 1.816l3.39 1.09.727 1.816-1.695 3.146a2.036 2.036 0 00.363 2.3l2.906 2.91a2.036 2.036 0 002.3.363l3.148-1.7 1.816.727 1.09 3.512a1.968 1.968 0 001.816 1.332h4.117a1.968 1.968 0 001.816-1.332l1.09-3.512 1.816-.727 3.148 1.7a2.036 2.036 0 002.3-.363l2.909-2.91a2.036 2.036 0 00.363-2.3l-1.7-3.148.727-1.816 3.512-1.09a1.968 1.968 0 001.332-1.816v-4.115a2.072 2.072 0 00-1.453-1.937z"/><path data-name="Path 21982" d="M39.959 6.054A6.054 6.054 0 1133.904 0a6.054 6.054 0 016.055 6.054z"/></g></svg>