<svg xmlns="http://www.w3.org/2000/svg" width="32.976" height="45.567"><g fill="#fff"><path data-name="Path 21983" d="M16.481 6.604a8.017 8.017 0 108.013 8.017 8.017 8.017 0 00-8.013-8.017zm0 13.235a5.21 5.21 0 100-.014z"/><path data-name="Path 21984" d="M16.48 0A16.5 16.5 0 000 16.411c0 6.534 3.666 12 6.352 15.991l.49.728a139.361 139.361 0 008.59 11.192l1.063 1.245 1.063-1.245a139.653 139.653 0 008.59-11.192l.49-.741c2.672-3.989 6.342-9.445 6.342-15.978A16.5 16.5 0 0016.48 0zm7.821 30.779l-.5.741a113.748 113.748 0 01-7.321 9.654c-1.651-2-4.911-6.044-7.317-9.653l-.49-.741c-2.476-3.693-5.876-8.744-5.876-14.424a13.683 13.683 0 1127.365 0c.002 5.735-3.382 10.786-5.86 14.423z"/></g></svg>