<svg xmlns="http://www.w3.org/2000/svg" width="35.842" height="39.427"><g fill="#fff"><path data-name="Path 21985" d="M7.169 8.961a1.792 1.792 0 011.792-1.792h17.921a1.792 1.792 0 110 3.584H8.961a1.792 1.792 0 01-1.792-1.792z"/><path data-name="Path 21986" d="M7.169 16.129a1.792 1.792 0 011.792-1.792h17.921a1.792 1.792 0 010 3.584H8.961a1.792 1.792 0 01-1.792-1.792z"/><path data-name="Path 21987" d="M8.961 21.506a1.792 1.792 0 000 3.584h17.921a1.792 1.792 0 000-3.584z"/><path data-name="Path 21988" d="M7.169 30.466a1.792 1.792 0 011.792-1.792h7.169a1.792 1.792 0 010 3.584H8.961a1.792 1.792 0 01-1.792-1.792z"/><path data-name="Path 21989" d="M0 5.376A5.376 5.376 0 015.376 0h25.09a5.376 5.376 0 015.376 5.376V34.05a5.376 5.376 0 01-5.376 5.376H5.376A5.376 5.376 0 010 34.05zm5.376-1.792h25.09a1.792 1.792 0 011.792 1.792V34.05a1.792 1.792 0 01-1.792 1.792H5.376a1.792 1.792 0 01-1.792-1.792V5.376a1.792 1.792 0 011.792-1.792z" fill-rule="evenodd"/></g></svg>