<svg xmlns="http://www.w3.org/2000/svg" width="70.931" height="70.931"><defs><linearGradient id="a" x1=".5" x2=".078" y2=".798" gradientUnits="objectBoundingBox"><stop offset="0" stop-color="#1f3c66"/><stop offset="1" stop-color="#d13b7c"/></linearGradient></defs><path data-name="Path 22002" d="M0 0h70.931v70.931H0z" fill="none"/><path data-name="Path 22003" d="M12.822 22.688a2.955 2.955 0 012.955 2.955 20.6 20.6 0 0112.8 4.433h6.413a13.271 13.271 0 019.91 4.434h9.3a14.777 14.777 0 0113.347 8.426 38.876 38.876 0 01-31.08 15.218c-8.246 0-15.221-1.782-20.866-4.9a2.95 2.95 0 01-2.779 1.946H3.955A2.955 2.955 0 011 52.243v-26.6a2.955 2.955 0 012.955-2.955zm2.958 8.866v14.842l.133.095c5.305 3.724 12.215 5.751 20.555 5.751a33.2 33.2 0 0023.156-9.251l.393-.393-.355-.3a8.849 8.849 0 00-4.862-1.856l-.606-.021h-6.235a13.519 13.519 0 01.328 2.955v2.955h-26.6v-5.91h20.068l-.1-.231A7.392 7.392 0 0035.473 36l-.485-.015h-8.66a14.733 14.733 0 00-10.545-4.433zM9.866 28.6H6.911v20.687h2.955zm41.377-17.734a8.866 8.866 0 11-8.866 8.866 8.866 8.866 0 018.866-8.866zm0 5.911a2.955 2.955 0 102.957 2.956 2.955 2.955 0 00-2.957-2.956zM30.555 2a8.866 8.866 0 11-8.866 8.866A8.866 8.866 0 0130.555 2zm0 5.911a2.955 2.955 0 102.955 2.955 2.955 2.955 0 00-2.955-2.955z" transform="translate(1.955 3.911)" fill="url(#a)"/></svg>