<svg xmlns="http://www.w3.org/2000/svg" width="60.291" height="60.291"><defs><linearGradient id="a" x1=".5" x2=".5" y2="1" gradientUnits="objectBoundingBox"><stop offset="0" stop-color="#1f3c66"/><stop offset="1" stop-color="#d13b7c"/></linearGradient></defs><path data-name="Path 22000" d="M0 0h60.291v60.291H0z" fill="none"/><path data-name="Path 22001" d="M43.194 17.073h5.024a2.512 2.512 0 012.512 2.512V49.73a2.512 2.512 0 01-2.512 2.512h-20.1a2.512 2.512 0 01-2.512-2.512v-2.512H5.512A2.512 2.512 0 013 44.706V4.512A2.512 2.512 0 015.512 2h35.17a2.512 2.512 0 012.512 2.512zm-5.024 0V7.024H8.024v35.17h17.585V19.585a2.512 2.512 0 012.512-2.512zM30.633 22.1v25.118h15.073V22.1z" transform="translate(4.536 3.024)" fill="url(#a)"/></svg>