<svg xmlns="http://www.w3.org/2000/svg" width="65.889" height="65.889"><defs><linearGradient id="a" x1=".5" x2=".5" y2="1" gradientUnits="objectBoundingBox"><stop offset="0" stop-color="#1f3c66"/><stop offset="1" stop-color="#d13b7c"/></linearGradient></defs><path data-name="Path 22006" d="M0 0h65.889v65.889H0z" fill="none"/><path data-name="Path 22007" d="M32.2 52.417v5.491h-5.492v-5.491H4.745A2.745 2.745 0 012 49.671V11.236h54.908v38.435a2.745 2.745 0 01-2.745 2.745zM7.491 46.926h43.926v-30.2H7.491zM32.2 22.218h13.726v5.491H32.2zm0 10.982h13.726v5.49H32.2zM21.218 22.218v8.236h8.236a8.236 8.236 0 11-8.236-8.236zM2 3h54.908v5.491H2z" transform="translate(3.491 5.236)" fill="url(#a)"/></svg>