<svg xmlns="http://www.w3.org/2000/svg" width="58.034" height="58.034"><defs><linearGradient id="a" x1=".5" x2=".5" y2=".814" gradientUnits="objectBoundingBox"><stop offset="0" stop-color="#1f3c66"/><stop offset="1" stop-color="#d13b7c"/></linearGradient></defs><path data-name="Path 22004" d="M0 0h58.034v58.034H0z" fill="none"/><path data-name="Path 22005" d="M2 5.4A2.418 2.418 0 014.4 3h43.563a2.4 2.4 0 012.4 2.4v38.724a2.418 2.418 0 01-2.4 2.4H4.4a2.4 2.4 0 01-2.4-2.4zm4.836 2.436v33.853h38.689V7.836zm4.836 4.836h14.509v14.509H11.672zm4.836 4.836v4.836h4.836v-4.836zm-4.836 14.509h29.017v4.836H11.672zm19.345-19.345h9.672v4.836h-9.672zm0 9.672h9.672v4.836h-9.672z" transform="translate(2.836 4.254)" fill="url(#a)"/></svg>