<?xml version="1.0" standalone="no"?>
<!DOCTYPE svg PUBLIC "-//W3C//DTD SVG 1.1//EN" "http://www.w3.org/Graphics/SVG/1.1/DTD/svg11.dtd" >
<svg xmlns="http://www.w3.org/2000/svg" xmlns:xlink="http://www.w3.org/1999/xlink" version="1.1">
<metadata>
Created by FontForge 20170910 at Thu Apr 12 00:17:41 2018
 By Jimmy Wärting
Copyright \(c\) 2018 by Connary Fagen. All rights reserved.
</metadata>
<defs>
<font id="ManifoldCF-Bold" horiz-adv-x="643" >
  <font-face 
    font-family="Manifold CF"
    font-weight="700"
    font-stretch="normal"
    units-per-em="1000"
    panose-1="0 0 8 0 0 0 0 0 0 0"
    ascent="800"
    descent="-200"
    x-height="500"
    cap-height="700"
    bbox="-204 -334 1076 926"
    underline-thickness="50"
    underline-position="-100"
    stemh="114"
    stemv="114"
    unicode-range="U+0020-FB02"
  />
<missing-glyph horiz-adv-x="500" 
d="M410 800v-1000h-317v1000h317zM333 733h-165v-33h65v-37h-66v-33h166v33h-66v37h66v33zM267 604h-100v-104h166v34h-66v70zM233 570v-36h-33v36h33zM333 473h-166v-33h66v-37h-66v-33h100v70h66v33zM333 413h-33v-66h-133v-34h166v100zM333 291h-100v-56h34v23h33v-47
h-100v80h-33v-113h166v113zM333 118h-166v-113h166v113zM300 85v-47h-100v47h100zM333 -18h-166v-33h70l-70 -47v-33h166v33h-102l70 47h32v33z" />
    <glyph glyph-name="fi" unicode="fi" horiz-adv-x="570" 
d="M494 500c10 0 15 -5 15 -15v-470c0 -10 -5 -15 -15 -15h-81c-10 0 -15 5 -15 15v386h-174v-386c0 -10 -5 -15 -15 -15h-82c-10 0 -14 5 -14 15v386h-63c-10 0 -14 5 -14 15v69c0 10 4 15 14 15h63v38c0 105 47 162 161 162h62c10 0 15 -5 15 -15v-70
c0 -10 -5 -15 -15 -15h-43c-47 0 -69 -25 -69 -71v-29h270z" />
    <glyph glyph-name="fl" unicode="fl" horiz-adv-x="591" 
d="M516 700c10 0 15 -5 15 -15v-670c0 -10 -5 -15 -15 -15h-82c-10 0 -15 5 -15 15v585h-126c-47 0 -69 -25 -69 -71v-29h108c10 0 15 -5 15 -15v-69c0 -10 -5 -15 -15 -15h-108v-386c0 -10 -5 -15 -15 -15h-82c-10 0 -14 5 -14 15v386h-63c-10 0 -14 5 -14 15v69
c0 10 4 15 14 15h63v38c0 105 47 162 161 162h242z" />
    <glyph glyph-name=".notdef" horiz-adv-x="500" 
d="M410 800v-1000h-317v1000h317zM333 733h-165v-33h65v-37h-66v-33h166v33h-66v37h66v33zM267 604h-100v-104h166v34h-66v70zM233 570v-36h-33v36h33zM333 473h-166v-33h66v-37h-66v-33h100v70h66v33zM333 413h-33v-66h-133v-34h166v100zM333 291h-100v-56h34v23h33v-47
h-100v80h-33v-113h166v113zM333 118h-166v-113h166v113zM300 85v-47h-100v47h100zM333 -18h-166v-33h70l-70 -47v-33h166v33h-102l70 47h32v33z" />
    <glyph glyph-name="A" unicode="A" horiz-adv-x="617" 
d="M580 19c3 -11 -3 -19 -12 -19h-85c-10 0 -16 8 -19 19l-28 103h-255l-28 -103c-3 -11 -9 -19 -19 -19h-85c-10 0 -15 8 -12 19l181 665c3 10 10 16 19 16h143c9 0 16 -6 19 -16zM208 221h201l-94 350h-13z" />
    <glyph glyph-name="Aacute" unicode="&#xc1;" horiz-adv-x="617" 
d="M277 749c-11 0 -16 6 -10 18l55 115c6 12 11 18 21 18h106c11 0 19 -7 10 -18l-89 -115c-7 -10 -14 -18 -24 -18h-69zM580 19c3 -11 -3 -19 -12 -19h-85c-10 0 -16 8 -19 19l-28 103h-255l-28 -103c-3 -11 -9 -19 -19 -19h-85c-10 0 -15 8 -12 19l181 665
c3 10 10 16 19 16h143c9 0 16 -6 19 -16zM208 221h201l-94 350h-13z" />
    <glyph glyph-name="Abreve" unicode="&#x102;" horiz-adv-x="617" 
d="M279 746c-91 0 -134 46 -134 139c0 10 5 15 15 15h62c10 0 14 -5 14 -15c3 -33 15 -61 58 -61h27c43 0 55 28 58 61c1 10 5 15 15 15h61c10 0 15 -5 15 -15c0 -93 -42 -139 -134 -139h-57zM580 19c3 -11 -3 -19 -12 -19h-85c-10 0 -16 8 -19 19l-28 103h-255l-28 -103
c-3 -11 -9 -19 -19 -19h-85c-10 0 -15 8 -12 19l181 665c3 10 10 16 19 16h143c9 0 16 -6 19 -16zM208 221h201l-94 350h-13z" />
    <glyph glyph-name="uni01CD" unicode="&#x1cd;" horiz-adv-x="617" 
d="M237 763l-103 118c-8 9 -2 19 8 19h78c13 0 20 -6 30 -19l53 -61h10l53 61c10 13 17 19 31 19h77c10 0 16 -10 8 -19l-103 -118c-8 -9 -17 -14 -28 -14h-87c-11 0 -19 4 -27 14zM580 19c3 -11 -3 -19 -12 -19h-85c-10 0 -16 8 -19 19l-28 103h-255l-28 -103
c-3 -11 -9 -19 -19 -19h-85c-10 0 -15 8 -12 19l181 665c3 10 10 16 19 16h143c9 0 16 -6 19 -16zM208 221h201l-94 350h-13z" />
    <glyph glyph-name="Acircumflex" unicode="&#xc2;" horiz-adv-x="617" 
d="M142 749c-10 0 -16 10 -8 19l103 118c8 10 16 14 27 14h87c11 0 20 -5 28 -14l103 -118c8 -9 2 -19 -8 -19h-77c-14 0 -21 7 -31 19l-53 61h-10l-53 -61c-10 -12 -17 -19 -30 -19h-78zM580 19c3 -11 -3 -19 -12 -19h-85c-10 0 -16 8 -19 19l-28 103h-255l-28 -103
c-3 -11 -9 -19 -19 -19h-85c-10 0 -15 8 -12 19l181 665c3 10 10 16 19 16h143c9 0 16 -6 19 -16zM208 221h201l-94 350h-13z" />
    <glyph glyph-name="Adieresis" unicode="&#xc4;" horiz-adv-x="617" 
d="M122 785c-10 0 -15 4 -15 14v86c0 10 5 15 15 15h86c10 0 14 -5 14 -15v-86c0 -10 -4 -14 -14 -14h-86zM409 785c-10 0 -14 4 -14 14v86c0 10 4 15 14 15h86c10 0 15 -5 15 -15v-86c0 -10 -5 -14 -15 -14h-86zM580 19c3 -11 -3 -19 -12 -19h-85c-10 0 -16 8 -19 19
l-28 103h-255l-28 -103c-3 -11 -9 -19 -19 -19h-85c-10 0 -15 8 -12 19l181 665c3 10 10 16 19 16h143c9 0 16 -6 19 -16zM208 221h201l-94 350h-13z" />
    <glyph glyph-name="Agrave" unicode="&#xc0;" horiz-adv-x="617" 
d="M251 767l-89 115c-9 11 -1 18 10 18h107c10 0 14 -6 21 -18l54 -115c6 -12 1 -18 -10 -18h-69c-10 0 -17 8 -24 18zM580 19c3 -11 -3 -19 -12 -19h-85c-10 0 -16 8 -19 19l-28 103h-255l-28 -103c-3 -11 -9 -19 -19 -19h-85c-10 0 -15 8 -12 19l181 665c3 10 10 16 19 16
h143c9 0 16 -6 19 -16zM208 221h201l-94 350h-13z" />
    <glyph glyph-name="Amacron" unicode="&#x100;" horiz-adv-x="617" 
d="M146 799c-10 0 -15 5 -15 15v71c0 10 5 15 15 15h324c9 0 15 -5 15 -15v-71c0 -10 -6 -15 -15 -15h-324zM580 19c3 -11 -3 -19 -12 -19h-85c-10 0 -16 8 -19 19l-28 103h-255l-28 -103c-3 -11 -9 -19 -19 -19h-85c-10 0 -15 8 -12 19l181 665c3 10 10 16 19 16h143
c9 0 16 -6 19 -16zM208 221h201l-94 350h-13z" />
    <glyph glyph-name="Aogonek" unicode="&#x104;" horiz-adv-x="606" 
d="M436 -101c-11 -2 -15 -4 -15 -16c0 -11 5 -15 20 -15h113c6 0 10 -5 10 -12v-52c0 -6 -3 -10 -10 -10h-133c-78 0 -100 16 -100 87c0 65 18 76 74 82l37 4c23 3 40 6 34 26l-7 26h5l-28 103h-255l-28 -103c-3 -11 -9 -19 -19 -19h-85c-10 0 -15 8 -12 19l181 665
c3 10 10 16 19 16h143c9 0 16 -6 19 -16l181 -665c1 -5 1 -10 -1 -13l11 -39c13 -47 -26 -54 -71 -59zM208 221h201l-94 350h-13z" />
    <glyph glyph-name="Aring" unicode="&#xc5;" horiz-adv-x="617" 
d="M301 738c-49 0 -84 36 -84 83v11c0 47 35 84 84 84h13c49 0 84 -37 84 -84v-11c0 -47 -35 -83 -84 -83h-13zM279 831v-7c0 -14 10 -25 24 -25h9c15 0 25 11 25 25v7c0 14 -10 24 -25 24h-9c-14 0 -24 -10 -24 -24zM580 19c3 -11 -3 -19 -12 -19h-85c-10 0 -16 8 -19 19
l-28 103h-255l-28 -103c-3 -11 -9 -19 -19 -19h-85c-10 0 -15 8 -12 19l181 665c3 10 10 16 19 16h143c9 0 16 -6 19 -16zM208 221h201l-94 350h-13z" />
    <glyph glyph-name="Atilde" unicode="&#xc3;" horiz-adv-x="617" 
d="M161 793l-24 58c-4 10 1 16 9 22c34 25 64 32 96 32c69 0 86 -42 138 -42c23 0 36 6 60 20c9 5 15 1 18 -5l24 -58c4 -10 -1 -15 -9 -21c-34 -25 -64 -33 -96 -33c-69 0 -86 42 -138 42c-23 0 -37 -5 -60 -19c-9 -6 -15 -2 -18 4zM580 19c3 -11 -3 -19 -12 -19h-85
c-10 0 -16 8 -19 19l-28 103h-255l-28 -103c-3 -11 -9 -19 -19 -19h-85c-10 0 -15 8 -12 19l181 665c3 10 10 16 19 16h143c9 0 16 -6 19 -16zM208 221h201l-94 350h-13z" />
    <glyph glyph-name="AE" unicode="&#xc6;" horiz-adv-x="908" 
d="M858 103c10 0 15 -5 15 -15v-73c0 -10 -5 -15 -15 -15h-399c-10 0 -14 5 -14 15v107h-234l-59 -107c-6 -10 -10 -15 -20 -15h-90c-10 0 -15 6 -9 17l373 668c6 10 10 15 20 15h427c10 0 15 -5 15 -15v-73c0 -10 -5 -15 -15 -15h-294v-196h270c10 0 14 -5 14 -15v-70
c0 -10 -4 -15 -14 -15h-270v-198h299zM265 221h180v327z" />
    <glyph glyph-name="B" unicode="B" horiz-adv-x="603" 
d="M453 366c65 -23 100 -71 100 -143v-38c0 -135 -68 -185 -206 -185h-267c-10 0 -14 5 -14 15v670c0 10 4 15 14 15h266c129 0 183 -54 183 -181c0 -74 -18 -116 -76 -145v-8zM415 514c0 68 -29 83 -85 83h-150v-191h150c54 0 85 18 85 85v23zM439 190v35
c0 69 -33 90 -99 90h-160v-212h160c66 0 99 19 99 87z" />
    <glyph glyph-name="C" unicode="C" horiz-adv-x="628" 
d="M272 -5c-145 0 -206 77 -206 205v300c0 128 61 205 206 205h94c147 0 206 -74 206 -204v-5c0 -8 -6 -14 -14 -14h-85c-9 0 -15 5 -15 14c0 82 -39 106 -101 106h-77c-65 0 -100 -28 -100 -104v-296c0 -77 35 -104 100 -104h77c62 0 101 24 101 101c0 10 6 15 15 15h85
c8 0 14 -6 14 -15v-5c0 -126 -59 -199 -206 -199h-94z" />
    <glyph glyph-name="Cacute" unicode="&#x106;" horiz-adv-x="628" 
d="M331 882c6 12 11 18 21 18h106c11 0 19 -7 10 -18l-89 -115c-7 -10 -14 -18 -24 -18h-69c-11 0 -16 6 -10 18zM272 -5c-145 0 -206 77 -206 205v300c0 128 61 205 206 205h94c147 0 206 -74 206 -204v-5c0 -8 -6 -14 -14 -14h-85c-9 0 -15 5 -15 14
c0 82 -39 106 -101 106h-77c-65 0 -100 -28 -100 -104v-296c0 -77 35 -104 100 -104h77c62 0 101 24 101 101c0 10 6 15 15 15h85c8 0 14 -6 14 -15v-5c0 -126 -59 -199 -206 -199h-94z" />
    <glyph glyph-name="Ccaron" unicode="&#x10c;" horiz-adv-x="628" 
d="M273 749c-11 0 -19 4 -27 14l-103 118c-8 9 -2 19 8 19h78c13 0 20 -6 30 -19l53 -61h10l53 61c10 13 17 19 31 19h77c10 0 16 -10 8 -19l-103 -118c-8 -9 -17 -14 -28 -14h-87zM272 -5c-145 0 -206 77 -206 205v300c0 128 61 205 206 205h94c147 0 206 -74 206 -204v-5
c0 -8 -6 -14 -14 -14h-85c-9 0 -15 5 -15 14c0 82 -39 106 -101 106h-77c-65 0 -100 -28 -100 -104v-296c0 -77 35 -104 100 -104h77c62 0 101 24 101 101c0 10 6 15 15 15h85c8 0 14 -6 14 -15v-5c0 -126 -59 -199 -206 -199h-94z" />
    <glyph glyph-name="Ccedilla" unicode="&#xc7;" horiz-adv-x="628" 
d="M280 602c-65 0 -100 -28 -100 -104v-296c0 -77 35 -104 100 -104h77c62 0 101 24 101 101c0 10 6 15 15 15h85c8 0 14 -6 14 -15v-5c0 -120 -53 -191 -184 -198c-41 -26 -22 -30 0 -32c67 -7 93 -22 93 -84c0 -54 -31 -85 -96 -85h-74c-66 0 -88 32 -88 81
c0 8 2 13 10 13h65c6 0 10 -4 11 -10c3 -11 12 -18 32 -18h20c22 0 34 3 34 18c0 17 -19 19 -102 27c-22 2 -40 11 -40 35c0 18 11 29 38 54h-19c-145 0 -206 77 -206 205v300c0 128 61 205 206 205h94c147 0 206 -74 206 -204v-5c0 -8 -6 -14 -14 -14h-85
c-9 0 -15 5 -15 14c0 82 -39 106 -101 106h-77z" />
    <glyph glyph-name="Ccircumflex" unicode="&#x108;" horiz-adv-x="628" 
d="M272 900h87c11 0 20 -5 28 -14l103 -118c8 -9 2 -19 -8 -19h-77c-14 0 -21 7 -31 19l-53 61h-10l-53 -61c-10 -12 -17 -19 -30 -19h-78c-10 0 -16 10 -8 19l103 118c8 10 16 14 27 14zM272 -5c-145 0 -206 77 -206 205v300c0 128 61 205 206 205h94
c147 0 206 -74 206 -204v-5c0 -8 -6 -14 -14 -14h-85c-9 0 -15 5 -15 14c0 82 -39 106 -101 106h-77c-65 0 -100 -28 -100 -104v-296c0 -77 35 -104 100 -104h77c62 0 101 24 101 101c0 10 6 15 15 15h85c8 0 14 -6 14 -15v-5c0 -126 -59 -199 -206 -199h-94z" />
    <glyph glyph-name="Cdotaccent" unicode="&#x10a;" horiz-adv-x="628" 
d="M274 785c-10 0 -15 4 -15 14v86c0 10 5 15 15 15h86c10 0 14 -5 14 -15v-86c0 -10 -4 -14 -14 -14h-86zM272 -5c-145 0 -206 77 -206 205v300c0 128 61 205 206 205h94c147 0 206 -74 206 -204v-5c0 -8 -6 -14 -14 -14h-85c-9 0 -15 5 -15 14c0 82 -39 106 -101 106h-77
c-65 0 -100 -28 -100 -104v-296c0 -77 35 -104 100 -104h77c62 0 101 24 101 101c0 10 6 15 15 15h85c8 0 14 -6 14 -15v-5c0 -126 -59 -199 -206 -199h-94z" />
    <glyph glyph-name="D" unicode="D" horiz-adv-x="628" 
d="M356 700c145 0 207 -77 207 -205v-290c0 -128 -62 -205 -207 -205h-276c-10 0 -14 5 -14 15v670c0 10 4 15 14 15h276zM449 207v286c0 76 -36 104 -101 104h-168v-494h168c65 0 101 27 101 104z" />
    <glyph glyph-name="Eth" unicode="&#xd0;" horiz-adv-x="646" 
d="M374 700c145 0 207 -77 207 -205v-290c0 -128 -62 -205 -207 -205h-276c-10 0 -14 5 -14 15v287h-59c-11 0 -15 4 -15 15v68c0 11 4 16 15 16h59v284c0 10 4 15 14 15h276zM467 207v286c0 76 -36 104 -101 104h-168v-196h92c11 0 16 -5 16 -16v-68c0 -11 -5 -15 -16 -15
h-92v-199h168c65 0 101 27 101 104z" />
    <glyph glyph-name="Dcaron" unicode="&#x10e;" horiz-adv-x="628" 
d="M233 763l-103 118c-8 9 -2 19 8 19h78c13 0 20 -6 30 -19l53 -61h10l53 61c10 13 17 19 31 19h77c10 0 16 -10 8 -19l-103 -118c-8 -9 -17 -14 -28 -14h-87c-11 0 -19 4 -27 14zM356 700c145 0 207 -77 207 -205v-290c0 -128 -62 -205 -207 -205h-276c-10 0 -14 5 -14 15
v670c0 10 4 15 14 15h276zM449 207v286c0 76 -36 104 -101 104h-168v-494h168c65 0 101 27 101 104z" />
    <glyph glyph-name="Dcroat" unicode="&#x110;" horiz-adv-x="646" 
d="M374 700c145 0 207 -77 207 -205v-290c0 -128 -62 -205 -207 -205h-276c-10 0 -14 5 -14 15v287h-59c-11 0 -15 4 -15 15v68c0 11 4 16 15 16h59v284c0 10 4 15 14 15h276zM467 207v286c0 76 -36 104 -101 104h-168v-196h92c11 0 16 -5 16 -16v-68c0 -11 -5 -15 -16 -15
h-92v-199h168c65 0 101 27 101 104z" />
    <glyph glyph-name="E" unicode="E" horiz-adv-x="529" 
d="M80 0c-10 0 -14 5 -14 15v670c0 10 4 15 14 15h394c10 0 15 -5 15 -15v-73c0 -10 -5 -15 -15 -15h-294v-196h270c10 0 14 -5 14 -15v-70c0 -10 -4 -15 -14 -15h-270v-198h299c10 0 15 -5 15 -15v-73c0 -10 -5 -15 -15 -15h-399z" />
    <glyph glyph-name="Eacute" unicode="&#xc9;" horiz-adv-x="529" 
d="M291 882c6 12 11 18 21 18h106c11 0 19 -7 10 -18l-89 -115c-7 -10 -14 -18 -24 -18h-69c-11 0 -16 6 -10 18zM80 0c-10 0 -14 5 -14 15v670c0 10 4 15 14 15h394c10 0 15 -5 15 -15v-73c0 -10 -5 -15 -15 -15h-294v-196h270c10 0 14 -5 14 -15v-70c0 -10 -4 -15 -14 -15
h-270v-198h299c10 0 15 -5 15 -15v-73c0 -10 -5 -15 -15 -15h-399z" />
    <glyph glyph-name="Ecaron" unicode="&#x11a;" horiz-adv-x="529" 
d="M233 749c-11 0 -19 4 -27 14l-103 118c-8 9 -2 19 8 19h78c13 0 20 -6 30 -19l53 -61h10l53 61c10 13 17 19 31 19h77c10 0 16 -10 8 -19l-103 -118c-8 -9 -17 -14 -28 -14h-87zM80 0c-10 0 -14 5 -14 15v670c0 10 4 15 14 15h394c10 0 15 -5 15 -15v-73
c0 -10 -5 -15 -15 -15h-294v-196h270c10 0 14 -5 14 -15v-70c0 -10 -4 -15 -14 -15h-270v-198h299c10 0 15 -5 15 -15v-73c0 -10 -5 -15 -15 -15h-399z" />
    <glyph glyph-name="uni0228" unicode="&#x228;" horiz-adv-x="529" 
d="M479 103c10 0 15 -5 15 -15v-73c0 -10 -5 -15 -15 -15h-136c-50 -30 -30 -34 -7 -36c67 -7 93 -22 93 -84c0 -54 -31 -85 -96 -85h-74c-66 0 -88 32 -88 81c0 8 2 13 10 13h65c6 0 10 -4 11 -10c3 -11 12 -18 32 -18h20c22 0 34 3 34 18c0 17 -19 19 -102 27
c-22 2 -40 11 -40 35c0 19 13 30 43 59h-164c-10 0 -14 5 -14 15v670c0 10 4 15 14 15h394c10 0 15 -5 15 -15v-73c0 -10 -5 -15 -15 -15h-294v-196h270c10 0 14 -5 14 -15v-70c0 -10 -4 -15 -14 -15h-270v-198h299z" />
    <glyph glyph-name="Ecircumflex" unicode="&#xca;" horiz-adv-x="529" 
d="M232 900h87c11 0 20 -5 28 -14l103 -118c8 -9 2 -19 -8 -19h-77c-14 0 -21 7 -31 19l-53 61h-10l-53 -61c-10 -12 -17 -19 -30 -19h-78c-10 0 -16 10 -8 19l103 118c8 10 16 14 27 14zM80 0c-10 0 -14 5 -14 15v670c0 10 4 15 14 15h394c10 0 15 -5 15 -15v-73
c0 -10 -5 -15 -15 -15h-294v-196h270c10 0 14 -5 14 -15v-70c0 -10 -4 -15 -14 -15h-270v-198h299c10 0 15 -5 15 -15v-73c0 -10 -5 -15 -15 -15h-399z" />
    <glyph glyph-name="Edieresis" unicode="&#xcb;" horiz-adv-x="529" 
d="M91 785c-10 0 -15 4 -15 14v86c0 10 5 15 15 15h86c10 0 14 -5 14 -15v-86c0 -10 -4 -14 -14 -14h-86zM378 785c-10 0 -14 4 -14 14v86c0 10 4 15 14 15h86c10 0 15 -5 15 -15v-86c0 -10 -5 -14 -15 -14h-86zM80 0c-10 0 -14 5 -14 15v670c0 10 4 15 14 15h394
c10 0 15 -5 15 -15v-73c0 -10 -5 -15 -15 -15h-294v-196h270c10 0 14 -5 14 -15v-70c0 -10 -4 -15 -14 -15h-270v-198h299c10 0 15 -5 15 -15v-73c0 -10 -5 -15 -15 -15h-399z" />
    <glyph glyph-name="Edotaccent" unicode="&#x116;" horiz-adv-x="529" 
d="M234 785c-10 0 -15 4 -15 14v86c0 10 5 15 15 15h86c10 0 14 -5 14 -15v-86c0 -10 -4 -14 -14 -14h-86zM80 0c-10 0 -14 5 -14 15v670c0 10 4 15 14 15h394c10 0 15 -5 15 -15v-73c0 -10 -5 -15 -15 -15h-294v-196h270c10 0 14 -5 14 -15v-70c0 -10 -4 -15 -14 -15h-270
v-198h299c10 0 15 -5 15 -15v-73c0 -10 -5 -15 -15 -15h-399z" />
    <glyph glyph-name="Egrave" unicode="&#xc8;" horiz-adv-x="529" 
d="M269 882l54 -115c6 -12 1 -18 -10 -18h-69c-10 0 -17 8 -24 18l-89 115c-9 11 -1 18 10 18h107c10 0 14 -6 21 -18zM80 0c-10 0 -14 5 -14 15v670c0 10 4 15 14 15h394c10 0 15 -5 15 -15v-73c0 -10 -5 -15 -15 -15h-294v-196h270c10 0 14 -5 14 -15v-70
c0 -10 -4 -15 -14 -15h-270v-198h299c10 0 15 -5 15 -15v-73c0 -10 -5 -15 -15 -15h-399z" />
    <glyph glyph-name="Emacron" unicode="&#x112;" horiz-adv-x="529" 
d="M115 799c-10 0 -15 5 -15 15v71c0 10 5 15 15 15h324c9 0 15 -5 15 -15v-71c0 -10 -6 -15 -15 -15h-324zM80 0c-10 0 -14 5 -14 15v670c0 10 4 15 14 15h394c10 0 15 -5 15 -15v-73c0 -10 -5 -15 -15 -15h-294v-196h270c10 0 14 -5 14 -15v-70c0 -10 -4 -15 -14 -15h-270
v-198h299c10 0 15 -5 15 -15v-73c0 -10 -5 -15 -15 -15h-399z" />
    <glyph glyph-name="Eogonek" unicode="&#x118;" horiz-adv-x="529" 
d="M494 88v-73c0 -3 0 -5 -1 -7v-41c0 -48 -21 -53 -66 -59l-76 -9c-12 -2 -15 -4 -15 -16c0 -11 4 -15 20 -15h113c6 0 10 -5 10 -12v-52c0 -6 -3 -10 -10 -10h-133c-78 0 -100 16 -100 87c0 65 17 76 74 82l38 4c24 2 34 4 34 26v7h-302c-10 0 -14 5 -14 15v670
c0 10 4 15 14 15h394c10 0 15 -5 15 -15v-73c0 -10 -5 -15 -15 -15h-294v-196h270c10 0 14 -5 14 -15v-70c0 -10 -4 -15 -14 -15h-270v-198h299c10 0 15 -5 15 -15z" />
    <glyph glyph-name="F" unicode="F" horiz-adv-x="524" 
d="M474 700c10 0 15 -5 15 -15v-73c0 -10 -5 -15 -15 -15h-294v-196h271c10 0 15 -5 15 -15v-70c0 -10 -5 -15 -15 -15h-271v-286c0 -10 -5 -15 -15 -15h-85c-10 0 -14 5 -14 15v670c0 10 4 15 14 15h394z" />
    <glyph glyph-name="G" unicode="G" horiz-adv-x="638" 
d="M272 -5c-145 0 -206 77 -206 205v300c0 128 61 205 206 205h94c147 0 206 -74 206 -204v-5c0 -8 -6 -14 -14 -14h-85c-9 0 -15 5 -15 14c0 82 -39 106 -101 106h-77c-65 0 -100 -28 -100 -104v-296c0 -77 35 -104 100 -104h77c66 0 101 27 101 104v99h-133
c-10 0 -15 5 -15 15v70c0 10 5 15 15 15h228c12 0 19 -7 19 -20v-181c0 -128 -62 -205 -206 -205h-94z" />
    <glyph glyph-name="Gbreve" unicode="&#x11e;" horiz-adv-x="638" 
d="M300 746c-91 0 -134 46 -134 139c0 10 5 15 15 15h62c10 0 14 -5 14 -15c3 -33 15 -61 58 -61h27c43 0 55 28 58 61c1 10 5 15 15 15h61c10 0 15 -5 15 -15c0 -93 -42 -139 -134 -139h-57zM272 -5c-145 0 -206 77 -206 205v300c0 128 61 205 206 205h94
c147 0 206 -74 206 -204v-5c0 -8 -6 -14 -14 -14h-85c-9 0 -15 5 -15 14c0 82 -39 106 -101 106h-77c-65 0 -100 -28 -100 -104v-296c0 -77 35 -104 100 -104h77c66 0 101 27 101 104v99h-133c-10 0 -15 5 -15 15v70c0 10 5 15 15 15h228c12 0 19 -7 19 -20v-181
c0 -128 -62 -205 -206 -205h-94z" />
    <glyph glyph-name="Gcaron" unicode="&#x1e6;" horiz-adv-x="638" 
d="M285 749c-11 0 -19 4 -27 14l-103 118c-8 9 -2 19 8 19h78c13 0 20 -6 30 -19l53 -61h10l53 61c10 13 17 19 31 19h77c10 0 16 -10 8 -19l-103 -118c-8 -9 -17 -14 -28 -14h-87zM272 -5c-145 0 -206 77 -206 205v300c0 128 61 205 206 205h94c147 0 206 -74 206 -204v-5
c0 -8 -6 -14 -14 -14h-85c-9 0 -15 5 -15 14c0 82 -39 106 -101 106h-77c-65 0 -100 -28 -100 -104v-296c0 -77 35 -104 100 -104h77c66 0 101 27 101 104v99h-133c-10 0 -15 5 -15 15v70c0 10 5 15 15 15h228c12 0 19 -7 19 -20v-181c0 -128 -62 -205 -206 -205h-94z" />
    <glyph glyph-name="Gcircumflex" unicode="&#x11c;" horiz-adv-x="638" 
d="M284 900h87c11 0 20 -5 28 -14l103 -118c8 -9 2 -19 -8 -19h-77c-14 0 -21 7 -31 19l-53 61h-10l-53 -61c-10 -12 -17 -19 -30 -19h-78c-10 0 -16 10 -8 19l103 118c8 10 16 14 27 14zM272 -5c-145 0 -206 77 -206 205v300c0 128 61 205 206 205h94
c147 0 206 -74 206 -204v-5c0 -8 -6 -14 -14 -14h-85c-9 0 -15 5 -15 14c0 82 -39 106 -101 106h-77c-65 0 -100 -28 -100 -104v-296c0 -77 35 -104 100 -104h77c66 0 101 27 101 104v99h-133c-10 0 -15 5 -15 15v70c0 10 5 15 15 15h228c12 0 19 -7 19 -20v-181
c0 -128 -62 -205 -206 -205h-94z" />
    <glyph glyph-name="uni0122" unicode="&#x122;" horiz-adv-x="638" 
d="M272 -5c-145 0 -206 77 -206 205v300c0 128 61 205 206 205h94c147 0 206 -74 206 -204v-5c0 -8 -6 -14 -14 -14h-85c-9 0 -15 5 -15 14c0 82 -39 106 -101 106h-77c-65 0 -100 -28 -100 -104v-296c0 -77 35 -104 100 -104h77c66 0 101 27 101 104v99h-133
c-10 0 -15 5 -15 15v70c0 10 5 15 15 15h228c12 0 19 -7 19 -20v-181c0 -128 -62 -205 -206 -205h-94zM362 -60c10 0 15 -5 15 -15v-225c0 -23 -12 -34 -34 -34h-105c-10 0 -15 5 -15 15v63c0 10 5 15 15 15h41v166c0 10 4 15 14 15h69z" />
    <glyph glyph-name="Gdotaccent" unicode="&#x120;" horiz-adv-x="638" 
d="M286 785c-10 0 -15 4 -15 14v86c0 10 5 15 15 15h86c10 0 14 -5 14 -15v-86c0 -10 -4 -14 -14 -14h-86zM272 -5c-145 0 -206 77 -206 205v300c0 128 61 205 206 205h94c147 0 206 -74 206 -204v-5c0 -8 -6 -14 -14 -14h-85c-9 0 -15 5 -15 14c0 82 -39 106 -101 106h-77
c-65 0 -100 -28 -100 -104v-296c0 -77 35 -104 100 -104h77c66 0 101 27 101 104v99h-133c-10 0 -15 5 -15 15v70c0 10 5 15 15 15h228c12 0 19 -7 19 -20v-181c0 -128 -62 -205 -206 -205h-94z" />
    <glyph glyph-name="H" unicode="H" horiz-adv-x="628" 
d="M548 700c10 0 15 -5 15 -15v-670c0 -10 -5 -15 -15 -15h-86c-10 0 -14 5 -14 15v286h-268v-286c0 -10 -4 -15 -14 -15h-86c-10 0 -14 5 -14 15v670c0 10 4 15 14 15h86c10 0 14 -5 14 -15v-284h268v284c0 10 4 15 14 15h86z" />
    <glyph glyph-name="Hbar" unicode="&#x126;" horiz-adv-x="628" 
d="M548 700c10 0 15 -5 15 -15v-670c0 -10 -5 -15 -15 -15h-86c-10 0 -14 5 -14 15v286h-268v-286c0 -10 -4 -15 -14 -15h-86c-10 0 -14 5 -14 15v670c0 10 4 15 14 15h86c10 0 14 -5 14 -15v-115h268v115c0 10 4 15 14 15h86zM180 401h268v69h-268v-69z" />
    <glyph glyph-name="Hcircumflex" unicode="&#x124;" horiz-adv-x="628" 
d="M147 749c-10 0 -16 10 -8 19l103 118c8 10 16 14 27 14h87c11 0 20 -5 28 -14l103 -118c8 -9 2 -19 -8 -19h-77c-14 0 -21 7 -31 19l-53 61h-10l-53 -61c-10 -12 -17 -19 -30 -19h-78zM548 700c10 0 15 -5 15 -15v-670c0 -10 -5 -15 -15 -15h-86c-10 0 -14 5 -14 15v286
h-268v-286c0 -10 -4 -15 -14 -15h-86c-10 0 -14 5 -14 15v670c0 10 4 15 14 15h86c10 0 14 -5 14 -15v-284h268v284c0 10 4 15 14 15h86z" />
    <glyph glyph-name="I" unicode="I" horiz-adv-x="245" 
d="M80 0c-10 0 -14 5 -14 15v670c0 10 4 15 14 15h85c10 0 15 -5 15 -15v-670c0 -10 -5 -15 -15 -15h-85z" />
    <glyph glyph-name="IJ" unicode="&#x132;" horiz-adv-x="623" 
d="M80 0c-10 0 -14 5 -14 15v670c0 10 4 15 14 15h85c10 0 15 -5 15 -15v-670c0 -10 -5 -15 -15 -15h-85zM300 -5c-10 0 -14 5 -14 15v73c0 10 4 15 14 15h43c65 0 101 27 101 104v483c0 10 4 15 14 15h85c10 0 15 -5 15 -15v-485c0 -128 -62 -205 -207 -205h-51z" />
    <glyph glyph-name="Iacute" unicode="&#xcd;" horiz-adv-x="245" 
d="M136 882c6 12 11 18 21 18h106c11 0 19 -7 10 -18l-89 -115c-7 -10 -14 -18 -24 -18h-69c-11 0 -16 6 -10 18zM80 0c-10 0 -14 5 -14 15v670c0 10 4 15 14 15h85c10 0 15 -5 15 -15v-670c0 -10 -5 -15 -15 -15h-85z" />
    <glyph glyph-name="uni01CF" unicode="&#x1cf;" horiz-adv-x="245" 
d="M78 749c-11 0 -19 4 -27 14l-103 118c-8 9 -2 19 8 19h78c13 0 20 -6 30 -19l53 -61h10l53 61c10 13 17 19 31 19h77c10 0 16 -10 8 -19l-103 -118c-8 -9 -17 -14 -28 -14h-87zM80 0c-10 0 -14 5 -14 15v670c0 10 4 15 14 15h85c10 0 15 -5 15 -15v-670
c0 -10 -5 -15 -15 -15h-85z" />
    <glyph glyph-name="Icircumflex" unicode="&#xce;" horiz-adv-x="245" 
d="M78 900h87c11 0 20 -5 28 -14l103 -118c8 -9 2 -19 -8 -19h-77c-14 0 -21 7 -31 19l-53 61h-10l-53 -61c-10 -12 -17 -19 -30 -19h-78c-10 0 -16 10 -8 19l103 118c8 10 16 14 27 14zM80 0c-10 0 -14 5 -14 15v670c0 10 4 15 14 15h85c10 0 15 -5 15 -15v-670
c0 -10 -5 -15 -15 -15h-85z" />
    <glyph glyph-name="Idieresis" unicode="&#xcf;" horiz-adv-x="245" 
d="M-64 785c-10 0 -15 4 -15 14v86c0 10 5 15 15 15h86c10 0 14 -5 14 -15v-86c0 -10 -4 -14 -14 -14h-86zM223 785c-10 0 -14 4 -14 14v86c0 10 4 15 14 15h86c10 0 15 -5 15 -15v-86c0 -10 -5 -14 -15 -14h-86zM80 0c-10 0 -14 5 -14 15v670c0 10 4 15 14 15h85
c10 0 15 -5 15 -15v-670c0 -10 -5 -15 -15 -15h-85z" />
    <glyph glyph-name="Idotaccent" unicode="&#x130;" horiz-adv-x="245" 
d="M79 785c-10 0 -15 4 -15 14v86c0 10 5 15 15 15h86c10 0 14 -5 14 -15v-86c0 -10 -4 -14 -14 -14h-86zM80 0c-10 0 -14 5 -14 15v670c0 10 4 15 14 15h85c10 0 15 -5 15 -15v-670c0 -10 -5 -15 -15 -15h-85z" />
    <glyph glyph-name="Igrave" unicode="&#xcc;" horiz-adv-x="245" 
d="M114 882l54 -115c6 -12 1 -18 -10 -18h-69c-10 0 -17 8 -24 18l-89 115c-9 11 -1 18 10 18h107c10 0 14 -6 21 -18zM80 0c-10 0 -14 5 -14 15v670c0 10 4 15 14 15h85c10 0 15 -5 15 -15v-670c0 -10 -5 -15 -15 -15h-85z" />
    <glyph glyph-name="Imacron" unicode="&#x12a;" horiz-adv-x="245" 
d="M-40 799c-10 0 -15 5 -15 15v71c0 10 5 15 15 15h324c9 0 15 -5 15 -15v-71c0 -10 -6 -15 -15 -15h-324zM80 0c-10 0 -14 5 -14 15v670c0 10 4 15 14 15h85c10 0 15 -5 15 -15v-670c0 -10 -5 -15 -15 -15h-85z" />
    <glyph glyph-name="Iogonek" unicode="&#x12e;" horiz-adv-x="237" 
d="M168 700c10 0 14 -5 14 -15v-718c0 -48 -21 -53 -67 -59l-76 -9c-12 -2 -15 -4 -15 -16c0 -11 4 -15 20 -15h113c6 0 10 -5 10 -12v-52c0 -6 -3 -10 -10 -10h-133c-78 0 -100 16 -100 87c0 65 17 76 74 82l37 4c23 3 33 4 33 26v692c0 10 5 15 15 15h85z" />
    <glyph glyph-name="J" unicode="J" horiz-adv-x="378" 
d="M55 -5c-10 0 -14 5 -14 15v73c0 10 4 15 14 15h43c65 0 101 27 101 104v483c0 10 4 15 14 15h85c10 0 15 -5 15 -15v-485c0 -128 -62 -205 -207 -205h-51z" />
    <glyph glyph-name="Jcircumflex" unicode="&#x134;" horiz-adv-x="378" 
d="M211 900h87c11 0 20 -5 28 -14l103 -118c8 -9 2 -19 -8 -19h-77c-14 0 -21 7 -31 19l-53 61h-10l-53 -61c-10 -12 -17 -19 -30 -19h-78c-10 0 -16 10 -8 19l103 118c8 10 16 14 27 14zM55 -5c-10 0 -14 5 -14 15v73c0 10 4 15 14 15h43c65 0 101 27 101 104v483
c0 10 4 15 14 15h85c10 0 15 -5 15 -15v-485c0 -128 -62 -205 -207 -205h-51z" />
    <glyph glyph-name="K" unicode="K" horiz-adv-x="610" 
d="M570 23c5 -8 7 -23 -6 -23h-96c-10 0 -19 2 -27 14l-197 281l-64 -79v-201c0 -10 -5 -15 -15 -15h-85c-10 0 -14 5 -14 15v670c0 10 4 15 14 15h85c10 0 15 -5 15 -15v-308l245 307c8 10 15 16 27 16h96c12 0 16 -12 5 -25l-236 -290z" />
    <glyph glyph-name="uni0136" unicode="&#x136;" horiz-adv-x="610" 
d="M570 23c5 -8 7 -23 -6 -23h-96c-10 0 -19 2 -27 14l-197 281l-64 -79v-201c0 -10 -5 -15 -15 -15h-85c-10 0 -14 5 -14 15v670c0 10 4 15 14 15h85c10 0 15 -5 15 -15v-308l245 307c8 10 15 16 27 16h96c12 0 16 -12 5 -25l-236 -290zM332 -60c10 0 15 -5 15 -15v-225
c0 -23 -12 -34 -34 -34h-105c-10 0 -15 5 -15 15v63c0 10 5 15 15 15h41v166c0 10 4 15 14 15h69z" />
    <glyph glyph-name="L" unicode="L" horiz-adv-x="509" 
d="M80 0c-10 0 -14 5 -14 15v670c0 10 4 15 14 15h85c10 0 15 -5 15 -15v-582h274c10 0 15 -5 15 -15v-73c0 -10 -5 -15 -15 -15h-374z" />
    <glyph glyph-name="Lacute" unicode="&#x139;" horiz-adv-x="509" 
d="M136 882c6 12 11 18 21 18h106c11 0 19 -7 10 -18l-89 -115c-7 -10 -14 -18 -24 -18h-69c-11 0 -16 6 -10 18zM80 0c-10 0 -14 5 -14 15v670c0 10 4 15 14 15h85c10 0 15 -5 15 -15v-582h274c10 0 15 -5 15 -15v-73c0 -10 -5 -15 -15 -15h-374z" />
    <glyph glyph-name="Lcaron" unicode="&#x13d;" horiz-adv-x="509" 
d="M80 0c-10 0 -14 5 -14 15v670c0 10 4 15 14 15h85c10 0 15 -5 15 -15v-582h274c10 0 15 -5 15 -15v-73c0 -10 -5 -15 -15 -15h-374zM396 700c10 0 15 -5 15 -15v-225c0 -23 -12 -34 -34 -34h-105c-10 0 -15 5 -15 15v63c0 10 5 15 15 15h41v166c0 10 4 15 14 15h69z" />
    <glyph glyph-name="uni013B" unicode="&#x13b;" horiz-adv-x="509" 
d="M80 0c-10 0 -14 5 -14 15v670c0 10 4 15 14 15h85c10 0 15 -5 15 -15v-582h274c10 0 15 -5 15 -15v-73c0 -10 -5 -15 -15 -15h-374zM301 -60c10 0 15 -5 15 -15v-225c0 -23 -12 -34 -34 -34h-105c-10 0 -15 5 -15 15v63c0 10 5 15 15 15h41v166c0 10 4 15 14 15h69z" />
    <glyph glyph-name="Ldot" unicode="&#x13f;" horiz-adv-x="509" 
d="M80 0c-10 0 -14 5 -14 15v670c0 10 4 15 14 15h85c10 0 15 -5 15 -15v-582h274c10 0 15 -5 15 -15v-73c0 -10 -5 -15 -15 -15h-374zM314 313c-10 0 -15 5 -15 15v86c0 10 5 14 15 14h86c10 0 14 -4 14 -14v-86c0 -10 -4 -15 -14 -15h-86z" />
    <glyph glyph-name="Lslash" unicode="&#x141;" horiz-adv-x="549" 
d="M493 103c10 0 15 -5 15 -15v-73c0 -10 -5 -15 -15 -15h-373c-10 0 -15 5 -15 15v133h-86c-12 0 -19 8 -10 18l96 108v411c0 10 5 15 15 15h84c10 0 15 -5 15 -15v-283l45 51c11 13 15 17 23 17h95c12 0 18 -8 9 -18l-172 -195v-154h274z" />
    <glyph glyph-name="M" unicode="M" horiz-adv-x="772" 
d="M80 0c-10 0 -14 5 -14 15v670c0 10 4 15 14 15h157c10 0 17 -5 20 -15l126 -549h7l126 549c2 10 10 15 20 15h156c10 0 15 -5 15 -15v-670c0 -10 -5 -15 -15 -15h-84c-10 0 -15 5 -15 15v539h-9l-123 -539c-2 -10 -10 -15 -19 -15h-112c-9 0 -17 5 -19 15l-123 539h-8
v-539c0 -10 -5 -15 -15 -15h-85z" />
    <glyph glyph-name="uni1E3E" unicode="&#x1e3e;" horiz-adv-x="772" 
d="M401 881c6 12 11 18 21 18h106c11 0 19 -7 10 -18l-89 -115c-7 -10 -14 -18 -24 -18h-69c-11 0 -16 6 -10 18zM80 0c-10 0 -14 5 -14 15v670c0 10 4 15 14 15h157c10 0 17 -5 20 -15l126 -549h7l126 549c2 10 10 15 20 15h156c10 0 15 -5 15 -15v-670
c0 -10 -5 -15 -15 -15h-84c-10 0 -15 5 -15 15v539h-9l-123 -539c-2 -10 -10 -15 -19 -15h-112c-9 0 -17 5 -19 15l-123 539h-8v-539c0 -10 -5 -15 -15 -15h-85z" />
    <glyph glyph-name="N" unicode="N" horiz-adv-x="645" 
d="M80 0c-10 0 -14 5 -14 15v670c0 10 4 15 14 15h147c8 0 15 -3 18 -11l212 -543h9v539c0 10 4 15 14 15h85c10 0 15 -5 15 -15v-670c0 -10 -5 -15 -15 -15h-147c-8 0 -15 3 -18 11l-212 543h-8v-539c0 -10 -5 -15 -15 -15h-85z" />
    <glyph glyph-name="Nacute" unicode="&#x143;" horiz-adv-x="645" 
d="M336 882c6 12 11 18 21 18h106c11 0 19 -7 10 -18l-89 -115c-7 -10 -14 -18 -24 -18h-69c-11 0 -16 6 -10 18zM80 0c-10 0 -14 5 -14 15v670c0 10 4 15 14 15h147c8 0 15 -3 18 -11l212 -543h9v539c0 10 4 15 14 15h85c10 0 15 -5 15 -15v-670c0 -10 -5 -15 -15 -15h-147
c-8 0 -15 3 -18 11l-212 543h-8v-539c0 -10 -5 -15 -15 -15h-85z" />
    <glyph glyph-name="Ncaron" unicode="&#x147;" horiz-adv-x="645" 
d="M278 749c-11 0 -19 4 -27 14l-103 118c-8 9 -2 19 8 19h78c13 0 20 -6 30 -19l53 -61h10l53 61c10 13 17 19 31 19h77c10 0 16 -10 8 -19l-103 -118c-8 -9 -17 -14 -28 -14h-87zM80 0c-10 0 -14 5 -14 15v670c0 10 4 15 14 15h147c8 0 15 -3 18 -11l212 -543h9v539
c0 10 4 15 14 15h85c10 0 15 -5 15 -15v-670c0 -10 -5 -15 -15 -15h-147c-8 0 -15 3 -18 11l-212 543h-8v-539c0 -10 -5 -15 -15 -15h-85z" />
    <glyph glyph-name="uni0145" unicode="&#x145;" horiz-adv-x="645" 
d="M80 0c-10 0 -14 5 -14 15v670c0 10 4 15 14 15h147c8 0 15 -3 18 -11l212 -543h9v539c0 10 4 15 14 15h85c10 0 15 -5 15 -15v-670c0 -10 -5 -15 -15 -15h-147c-8 0 -15 3 -18 11l-212 543h-8v-539c0 -10 -5 -15 -15 -15h-85zM356 -60c10 0 15 -5 15 -15v-225
c0 -23 -12 -34 -34 -34h-105c-10 0 -15 5 -15 15v63c0 10 5 15 15 15h41v166c0 10 4 15 14 15h69z" />
    <glyph glyph-name="Eng" unicode="&#x14a;" horiz-adv-x="645" 
d="M565 700c10 0 15 -5 15 -15v-685c0 -128 -62 -205 -207 -205h-51c-10 0 -14 5 -14 15v73c0 10 4 15 14 15h43c64 0 100 27 101 102h-48c-8 0 -15 3 -18 11l-212 543h-8v-539c0 -10 -5 -15 -15 -15h-85c-10 0 -14 5 -14 15v670c0 10 4 15 14 15h147c8 0 15 -3 18 -11
l212 -543h9v539c0 10 4 15 14 15h85z" />
    <glyph glyph-name="Ntilde" unicode="&#xd1;" horiz-adv-x="645" 
d="M391 766c-69 0 -86 42 -138 42c-23 0 -37 -5 -60 -19c-9 -6 -15 -2 -18 4l-24 58c-4 10 1 16 9 22c34 25 64 32 96 32c69 0 86 -42 138 -42c23 0 36 6 60 20c9 5 15 1 18 -5l24 -58c4 -10 -1 -15 -9 -21c-34 -25 -64 -33 -96 -33zM80 0c-10 0 -14 5 -14 15v670
c0 10 4 15 14 15h147c8 0 15 -3 18 -11l212 -543h9v539c0 10 4 15 14 15h85c10 0 15 -5 15 -15v-670c0 -10 -5 -15 -15 -15h-147c-8 0 -15 3 -18 11l-212 543h-8v-539c0 -10 -5 -15 -15 -15h-85z" />
    <glyph glyph-name="O" unicode="O" 
d="M272 -5c-145 0 -206 77 -206 205v300c0 128 61 205 206 205h99c145 0 207 -77 207 -205v-300c0 -128 -62 -205 -207 -205h-99zM280 98h83c65 0 101 27 101 104v296c0 76 -36 104 -101 104h-83c-65 0 -100 -28 -100 -104v-296c0 -77 35 -104 100 -104z" />
    <glyph glyph-name="Oacute" unicode="&#xd3;" 
d="M336 882c6 12 11 18 21 18h106c11 0 19 -7 10 -18l-89 -115c-7 -10 -14 -18 -24 -18h-69c-11 0 -16 6 -10 18zM272 -5c-145 0 -206 77 -206 205v300c0 128 61 205 206 205h99c145 0 207 -77 207 -205v-300c0 -128 -62 -205 -207 -205h-99zM280 98h83c65 0 101 27 101 104
v296c0 76 -36 104 -101 104h-83c-65 0 -100 -28 -100 -104v-296c0 -77 35 -104 100 -104z" />
    <glyph glyph-name="uni01D1" unicode="&#x1d1;" 
d="M278 749c-11 0 -19 4 -27 14l-103 118c-8 9 -2 19 8 19h78c13 0 20 -6 30 -19l53 -61h10l53 61c10 13 17 19 31 19h77c10 0 16 -10 8 -19l-103 -118c-8 -9 -17 -14 -28 -14h-87zM272 -5c-145 0 -206 77 -206 205v300c0 128 61 205 206 205h99c145 0 207 -77 207 -205
v-300c0 -128 -62 -205 -207 -205h-99zM280 98h83c65 0 101 27 101 104v296c0 76 -36 104 -101 104h-83c-65 0 -100 -28 -100 -104v-296c0 -77 35 -104 100 -104z" />
    <glyph glyph-name="Ocircumflex" unicode="&#xd4;" 
d="M277 900h87c11 0 20 -5 28 -14l103 -118c8 -9 2 -19 -8 -19h-77c-14 0 -21 7 -31 19l-53 61h-10l-53 -61c-10 -12 -17 -19 -30 -19h-78c-10 0 -16 10 -8 19l103 118c8 10 16 14 27 14zM272 -5c-145 0 -206 77 -206 205v300c0 128 61 205 206 205h99
c145 0 207 -77 207 -205v-300c0 -128 -62 -205 -207 -205h-99zM280 98h83c65 0 101 27 101 104v296c0 76 -36 104 -101 104h-83c-65 0 -100 -28 -100 -104v-296c0 -77 35 -104 100 -104z" />
    <glyph glyph-name="Odieresis" unicode="&#xd6;" 
d="M136 785c-10 0 -15 4 -15 14v86c0 10 5 15 15 15h86c10 0 14 -5 14 -15v-86c0 -10 -4 -14 -14 -14h-86zM423 785c-10 0 -14 4 -14 14v86c0 10 4 15 14 15h86c10 0 15 -5 15 -15v-86c0 -10 -5 -14 -15 -14h-86zM272 -5c-145 0 -206 77 -206 205v300c0 128 61 205 206 205
h99c145 0 207 -77 207 -205v-300c0 -128 -62 -205 -207 -205h-99zM280 98h83c65 0 101 27 101 104v296c0 76 -36 104 -101 104h-83c-65 0 -100 -28 -100 -104v-296c0 -77 35 -104 100 -104z" />
    <glyph glyph-name="Ograve" unicode="&#xd2;" 
d="M314 882l54 -115c6 -12 1 -18 -10 -18h-69c-10 0 -17 8 -24 18l-89 115c-9 11 -1 18 10 18h107c10 0 14 -6 21 -18zM272 -5c-145 0 -206 77 -206 205v300c0 128 61 205 206 205h99c145 0 207 -77 207 -205v-300c0 -128 -62 -205 -207 -205h-99zM280 98h83
c65 0 101 27 101 104v296c0 76 -36 104 -101 104h-83c-65 0 -100 -28 -100 -104v-296c0 -77 35 -104 100 -104z" />
    <glyph glyph-name="Ohungarumlaut" unicode="&#x150;" 
d="M241 882c6 12 11 18 21 18h106c11 0 19 -7 10 -18l-89 -115c-7 -10 -14 -18 -24 -18h-69c-11 0 -16 6 -10 18zM422 882c6 12 11 18 21 18h107c11 0 19 -7 10 -18l-90 -115c-7 -10 -13 -18 -23 -18h-70c-11 0 -16 6 -10 18zM272 -5c-145 0 -206 77 -206 205v300
c0 128 61 205 206 205h99c145 0 207 -77 207 -205v-300c0 -128 -62 -205 -207 -205h-99zM280 98h83c65 0 101 27 101 104v296c0 76 -36 104 -101 104h-83c-65 0 -100 -28 -100 -104v-296c0 -77 35 -104 100 -104z" />
    <glyph glyph-name="Omacron" unicode="&#x14c;" 
d="M160 799c-10 0 -15 5 -15 15v71c0 10 5 15 15 15h324c9 0 15 -5 15 -15v-71c0 -10 -6 -15 -15 -15h-324zM272 -5c-145 0 -206 77 -206 205v300c0 128 61 205 206 205h99c145 0 207 -77 207 -205v-300c0 -128 -62 -205 -207 -205h-99zM280 98h83c65 0 101 27 101 104v296
c0 76 -36 104 -101 104h-83c-65 0 -100 -28 -100 -104v-296c0 -77 35 -104 100 -104z" />
    <glyph glyph-name="Oslash" unicode="&#xd8;" 
d="M512 666c45 -35 66 -92 66 -166v-300c0 -128 -62 -205 -207 -205h-99c-15 0 -29 1 -42 2l-7 -16c-4 -10 -10 -15 -20 -15h-83c-10 0 -14 6 -10 16l22 52c-46 35 -66 92 -66 166v300c0 128 61 205 206 205h99c15 0 30 -1 43 -3l7 17c4 10 10 15 20 15h84c10 0 13 -6 9 -16
zM180 202c0 -16 2 -31 5 -43l187 443h-9h-83c-65 0 -100 -28 -100 -104v-296zM464 202v296c0 16 -2 30 -5 42l-187 -442h8h83c65 0 101 27 101 104z" />
    <glyph glyph-name="Otilde" unicode="&#xd5;" 
d="M390 766c-69 0 -86 42 -138 42c-23 0 -37 -5 -60 -19c-9 -6 -15 -2 -18 4l-24 58c-4 10 1 16 9 22c34 25 64 32 96 32c69 0 86 -42 138 -42c23 0 36 6 60 20c9 5 15 1 18 -5l24 -58c4 -10 -1 -15 -9 -21c-34 -25 -64 -33 -96 -33zM272 -5c-145 0 -206 77 -206 205v300
c0 128 61 205 206 205h99c145 0 207 -77 207 -205v-300c0 -128 -62 -205 -207 -205h-99zM280 98h83c65 0 101 27 101 104v296c0 76 -36 104 -101 104h-83c-65 0 -100 -28 -100 -104v-296c0 -77 35 -104 100 -104z" />
    <glyph glyph-name="OE" unicode="&#x152;" horiz-adv-x="927" 
d="M877 103c10 0 15 -5 15 -15v-73c0 -10 -5 -15 -15 -15h-399c-8 0 -12 3 -13 9c-27 -9 -58 -14 -94 -14h-99c-145 0 -206 77 -206 205v300c0 128 61 205 206 205h99c36 0 67 -5 94 -14c1 6 5 9 13 9h394c10 0 15 -5 15 -15v-73c0 -10 -5 -15 -15 -15h-294v-196h270
c10 0 14 -5 14 -15v-70c0 -10 -4 -15 -14 -15h-270v-198h299zM363 98c65 0 101 27 101 104v296c0 76 -36 104 -101 104h-83c-65 0 -100 -28 -100 -104v-296c0 -77 35 -104 100 -104h83z" />
    <glyph glyph-name="P" unicode="P" horiz-adv-x="607" 
d="M346 700c144 0 206 -76 206 -204v-105c0 -128 -62 -204 -206 -204h-166v-172c0 -10 -5 -15 -15 -15h-85c-10 0 -14 5 -14 15v670c0 10 4 15 14 15h266zM438 394v99c0 77 -35 104 -101 104h-157v-307h157c66 0 101 26 101 104z" />
    <glyph glyph-name="Thorn" unicode="&#xde;" horiz-adv-x="617" 
d="M346 607c144 0 206 -77 206 -204v-105c0 -128 -62 -205 -206 -205h-166v-78c0 -10 -5 -15 -15 -15h-85c-10 0 -14 5 -14 15v670c0 10 4 15 14 15h85c10 0 15 -5 15 -15v-78h166zM438 300v100c0 77 -35 104 -101 104h-157v-308h157c66 0 101 27 101 104z" />
    <glyph glyph-name="Q" unicode="Q" 
d="M371 705c145 0 207 -77 207 -205v-300c0 -126 -60 -202 -199 -205v-74c0 -10 -5 -15 -15 -15h-84c-10 0 -15 5 -15 15v74c-140 3 -199 79 -199 205v300c0 128 61 205 206 205h99zM464 202v296c0 76 -36 104 -101 104h-83c-65 0 -100 -28 -100 -104v-296
c0 -77 35 -104 100 -104h83c65 0 101 27 101 104z" />
    <glyph glyph-name="R" unicode="R" horiz-adv-x="607" 
d="M552 391c0 -84 -27 -146 -86 -178l83 -190c6 -14 -1 -23 -16 -23h-77c-11 0 -19 5 -23 15l-75 172h-12h-166v-172c0 -10 -5 -15 -15 -15h-85c-10 0 -14 5 -14 15v670c0 10 4 15 14 15h266c144 0 206 -76 206 -204v-105zM180 597v-307h157c66 0 101 26 101 104v99
c0 77 -35 104 -101 104h-157z" />
    <glyph glyph-name="Racute" unicode="&#x154;" horiz-adv-x="607" 
d="M259 749c-11 0 -16 6 -10 18l55 115c6 12 11 18 21 18h106c11 0 19 -7 10 -18l-89 -115c-7 -10 -14 -18 -24 -18h-69zM552 391c0 -84 -27 -146 -86 -178l83 -190c6 -14 -1 -23 -16 -23h-77c-11 0 -19 5 -23 15l-75 172h-12h-166v-172c0 -10 -5 -15 -15 -15h-85
c-10 0 -14 5 -14 15v670c0 10 4 15 14 15h266c144 0 206 -76 206 -204v-105zM180 597v-307h157c66 0 101 26 101 104v99c0 77 -35 104 -101 104h-157z" />
    <glyph glyph-name="Rcaron" unicode="&#x158;" horiz-adv-x="607" 
d="M219 763l-103 118c-8 9 -2 19 8 19h78c13 0 20 -6 30 -19l53 -61h10l53 61c10 13 17 19 31 19h77c10 0 16 -10 8 -19l-103 -118c-8 -9 -17 -14 -28 -14h-87c-11 0 -19 4 -27 14zM552 391c0 -84 -27 -146 -86 -178l83 -190c6 -14 -1 -23 -16 -23h-77c-11 0 -19 5 -23 15
l-75 172h-12h-166v-172c0 -10 -5 -15 -15 -15h-85c-10 0 -14 5 -14 15v670c0 10 4 15 14 15h266c144 0 206 -76 206 -204v-105zM180 597v-307h157c66 0 101 26 101 104v99c0 77 -35 104 -101 104h-157z" />
    <glyph glyph-name="uni0156" unicode="&#x156;" horiz-adv-x="607" 
d="M552 391c0 -84 -27 -146 -86 -178l83 -190c6 -14 -1 -23 -16 -23h-77c-11 0 -19 5 -23 15l-75 172h-12h-166v-172c0 -10 -5 -15 -15 -15h-85c-10 0 -14 5 -14 15v670c0 10 4 15 14 15h266c144 0 206 -76 206 -204v-105zM180 597v-307h157c66 0 101 26 101 104v99
c0 77 -35 104 -101 104h-157zM323 -60c10 0 15 -5 15 -15v-225c0 -23 -12 -34 -34 -34h-105c-10 0 -15 5 -15 15v63c0 10 5 15 15 15h41v166c0 10 4 15 14 15h69z" />
    <glyph glyph-name="S" unicode="S" horiz-adv-x="598" 
d="M256 -5c-138 0 -205 63 -205 182c0 13 6 20 18 20h75c12 0 20 -7 21 -20c3 -60 43 -79 105 -79h59c61 0 104 21 104 99c0 77 -40 96 -112 107l-49 7c-125 19 -215 50 -215 208c0 127 72 186 206 186h66c131 0 201 -65 201 -184c0 -13 -6 -20 -18 -20h-75
c-12 0 -20 7 -21 20c-3 59 -35 81 -96 81h-50c-62 0 -99 -21 -99 -88c0 -64 26 -96 101 -106l49 -7c125 -18 226 -45 226 -204c0 -138 -67 -202 -205 -202h-86z" />
    <glyph glyph-name="Sacute" unicode="&#x15a;" horiz-adv-x="598" 
d="M313 882c6 12 11 18 21 18h106c11 0 19 -7 10 -18l-89 -115c-7 -10 -14 -18 -24 -18h-69c-11 0 -16 6 -10 18zM256 -5c-138 0 -205 63 -205 182c0 13 6 20 18 20h75c12 0 20 -7 21 -20c3 -60 43 -79 105 -79h59c61 0 104 21 104 99c0 77 -40 96 -112 107l-49 7
c-125 19 -215 50 -215 208c0 127 72 186 206 186h66c131 0 201 -65 201 -184c0 -13 -6 -20 -18 -20h-75c-12 0 -20 7 -21 20c-3 59 -35 81 -96 81h-50c-62 0 -99 -21 -99 -88c0 -64 26 -96 101 -106l49 -7c125 -18 226 -45 226 -204c0 -138 -67 -202 -205 -202h-86z" />
    <glyph glyph-name="Scaron" unicode="&#x160;" horiz-adv-x="598" 
d="M255 749c-11 0 -19 4 -27 14l-103 118c-8 9 -2 19 8 19h78c13 0 20 -6 30 -19l53 -61h10l53 61c10 13 17 19 31 19h77c10 0 16 -10 8 -19l-103 -118c-8 -9 -17 -14 -28 -14h-87zM256 -5c-138 0 -205 63 -205 182c0 13 6 20 18 20h75c12 0 20 -7 21 -20
c3 -60 43 -79 105 -79h59c61 0 104 21 104 99c0 77 -40 96 -112 107l-49 7c-125 19 -215 50 -215 208c0 127 72 186 206 186h66c131 0 201 -65 201 -184c0 -13 -6 -20 -18 -20h-75c-12 0 -20 7 -21 20c-3 59 -35 81 -96 81h-50c-62 0 -99 -21 -99 -88c0 -64 26 -96 101 -106
l49 -7c125 -18 226 -45 226 -204c0 -138 -67 -202 -205 -202h-86z" />
    <glyph glyph-name="Scedilla" unicode="&#x15e;" horiz-adv-x="598" 
d="M369 -4c-41 -26 -22 -30 0 -32c67 -7 93 -22 93 -84c0 -54 -31 -85 -96 -85h-74c-66 0 -88 32 -88 81c0 8 2 13 10 13h65c6 0 10 -4 11 -10c3 -11 12 -18 32 -18h20c22 0 34 3 34 18c0 17 -19 19 -102 27c-22 2 -40 11 -40 35c0 18 11 29 38 54h-16
c-138 0 -205 63 -205 182c0 13 6 20 18 20h75c12 0 20 -7 21 -20c3 -60 43 -79 105 -79h59c61 0 104 21 104 99c0 77 -40 96 -112 107l-49 7c-125 19 -215 50 -215 208c0 127 72 186 206 186h66c131 0 201 -65 201 -184c0 -13 -6 -20 -18 -20h-75c-12 0 -20 7 -21 20
c-3 59 -35 81 -96 81h-50c-62 0 -99 -21 -99 -88c0 -64 26 -96 101 -106l49 -7c125 -18 226 -45 226 -204c0 -129 -58 -193 -178 -201z" />
    <glyph glyph-name="Scircumflex" unicode="&#x15c;" horiz-adv-x="598" 
d="M254 900h87c11 0 20 -5 28 -14l103 -118c8 -9 2 -19 -8 -19h-77c-14 0 -21 7 -31 19l-53 61h-10l-53 -61c-10 -12 -17 -19 -30 -19h-78c-10 0 -16 10 -8 19l103 118c8 10 16 14 27 14zM256 -5c-138 0 -205 63 -205 182c0 13 6 20 18 20h75c12 0 20 -7 21 -20
c3 -60 43 -79 105 -79h59c61 0 104 21 104 99c0 77 -40 96 -112 107l-49 7c-125 19 -215 50 -215 208c0 127 72 186 206 186h66c131 0 201 -65 201 -184c0 -13 -6 -20 -18 -20h-75c-12 0 -20 7 -21 20c-3 59 -35 81 -96 81h-50c-62 0 -99 -21 -99 -88c0 -64 26 -96 101 -106
l49 -7c125 -18 226 -45 226 -204c0 -138 -67 -202 -205 -202h-86z" />
    <glyph glyph-name="uni0218" unicode="&#x218;" horiz-adv-x="598" 
d="M256 -5c-138 0 -205 63 -205 182c0 13 6 20 18 20h75c12 0 20 -7 21 -20c3 -60 43 -79 105 -79h59c61 0 104 21 104 99c0 77 -40 96 -112 107l-49 7c-125 19 -215 50 -215 208c0 127 72 186 206 186h66c131 0 201 -65 201 -184c0 -13 -6 -20 -18 -20h-75
c-12 0 -20 7 -21 20c-3 59 -35 81 -96 81h-50c-62 0 -99 -21 -99 -88c0 -64 26 -96 101 -106l49 -7c125 -18 226 -45 226 -204c0 -138 -67 -202 -205 -202h-86zM332 -60c10 0 15 -5 15 -15v-225c0 -23 -12 -34 -34 -34h-105c-10 0 -15 5 -15 15v63c0 10 5 15 15 15h41v166
c0 10 4 15 14 15h69z" />
    <glyph glyph-name="T" unicode="T" horiz-adv-x="543" 
d="M483 700c10 0 15 -5 15 -15v-73c0 -10 -5 -15 -15 -15h-154v-582c0 -10 -5 -15 -15 -15h-84c-10 0 -15 5 -15 15v582h-155c-10 0 -14 5 -14 15v73c0 10 4 15 14 15h423z" />
    <glyph glyph-name="Tbar" unicode="&#x166;" horiz-adv-x="541" 
d="M483 700c10 0 15 -5 15 -15v-73c0 -10 -5 -15 -15 -15h-154v-140h105c9 0 15 -5 15 -15v-71c0 -10 -6 -15 -15 -15h-105v-341c0 -10 -5 -15 -15 -15h-84c-10 0 -15 5 -15 15v341h-105c-10 0 -15 5 -15 15v71c0 10 5 15 15 15h105v140h-155c-10 0 -14 5 -14 15v73
c0 10 4 15 14 15h423z" />
    <glyph glyph-name="Tcaron" unicode="&#x164;" horiz-adv-x="543" 
d="M201 763l-103 118c-8 9 -2 19 8 19h78c13 0 20 -6 30 -19l53 -61h10l53 61c10 13 17 19 31 19h77c10 0 16 -10 8 -19l-103 -118c-8 -9 -17 -14 -28 -14h-87c-11 0 -19 4 -27 14zM483 700c10 0 15 -5 15 -15v-73c0 -10 -5 -15 -15 -15h-154v-582c0 -10 -5 -15 -15 -15h-84
c-10 0 -15 5 -15 15v582h-155c-10 0 -14 5 -14 15v73c0 10 4 15 14 15h423z" />
    <glyph glyph-name="uni0162" unicode="&#x162;" horiz-adv-x="543" 
d="M483 700c10 0 15 -5 15 -15v-73c0 -10 -5 -15 -15 -15h-154v-582c0 -10 -5 -15 -15 -15h36c-50 -30 -30 -34 -7 -36c67 -7 93 -22 93 -84c0 -54 -31 -85 -96 -85h-74c-66 0 -88 32 -88 81c0 8 2 13 10 13h65c6 0 10 -4 11 -10c3 -11 12 -18 32 -18h20c22 0 34 3 34 18
c0 17 -19 19 -102 27c-22 2 -40 11 -40 35c0 19 13 30 43 59h-21c-10 0 -15 5 -15 15v582h-155c-10 0 -14 5 -14 15v73c0 10 4 15 14 15h423z" />
    <glyph glyph-name="uni021A" unicode="&#x21a;" horiz-adv-x="543" 
d="M483 700c10 0 15 -5 15 -15v-73c0 -10 -5 -15 -15 -15h-154v-582c0 -10 -5 -15 -15 -15h-84c-10 0 -15 5 -15 15v582h-155c-10 0 -14 5 -14 15v73c0 10 4 15 14 15h423zM305 -60c10 0 15 -5 15 -15v-225c0 -23 -12 -34 -34 -34h-105c-10 0 -15 5 -15 15v63
c0 10 5 15 15 15h41v166c0 10 4 15 14 15h69z" />
    <glyph glyph-name="U" unicode="U" 
d="M272 -5c-145 0 -206 77 -206 205v485c0 10 4 15 14 15h85c10 0 15 -5 15 -15v-483c0 -77 35 -104 100 -104h83c65 0 101 27 101 104v483c0 10 4 15 14 15h85c10 0 15 -5 15 -15v-485c0 -128 -62 -205 -207 -205h-99z" />
    <glyph glyph-name="Uacute" unicode="&#xda;" 
d="M336 882c6 12 11 18 21 18h106c11 0 19 -7 10 -18l-89 -115c-7 -10 -14 -18 -24 -18h-69c-11 0 -16 6 -10 18zM272 -5c-145 0 -206 77 -206 205v485c0 10 4 15 14 15h85c10 0 15 -5 15 -15v-483c0 -77 35 -104 100 -104h83c65 0 101 27 101 104v483c0 10 4 15 14 15h85
c10 0 15 -5 15 -15v-485c0 -128 -62 -205 -207 -205h-99z" />
    <glyph glyph-name="Ubreve" unicode="&#x16c;" 
d="M293 746c-91 0 -134 46 -134 139c0 10 5 15 15 15h62c10 0 14 -5 14 -15c3 -33 15 -61 58 -61h27c43 0 55 28 58 61c1 10 5 15 15 15h61c10 0 15 -5 15 -15c0 -93 -42 -139 -134 -139h-57zM272 -5c-145 0 -206 77 -206 205v485c0 10 4 15 14 15h85c10 0 15 -5 15 -15
v-483c0 -77 35 -104 100 -104h83c65 0 101 27 101 104v483c0 10 4 15 14 15h85c10 0 15 -5 15 -15v-485c0 -128 -62 -205 -207 -205h-99z" />
    <glyph glyph-name="Ucircumflex" unicode="&#xdb;" 
d="M277 900h87c11 0 20 -5 28 -14l103 -118c8 -9 2 -19 -8 -19h-77c-14 0 -21 7 -31 19l-53 61h-10l-53 -61c-10 -12 -17 -19 -30 -19h-78c-10 0 -16 10 -8 19l103 118c8 10 16 14 27 14zM272 -5c-145 0 -206 77 -206 205v485c0 10 4 15 14 15h85c10 0 15 -5 15 -15v-483
c0 -77 35 -104 100 -104h83c65 0 101 27 101 104v483c0 10 4 15 14 15h85c10 0 15 -5 15 -15v-485c0 -128 -62 -205 -207 -205h-99z" />
    <glyph glyph-name="Udieresis" unicode="&#xdc;" 
d="M136 785c-10 0 -15 4 -15 14v86c0 10 5 15 15 15h86c10 0 14 -5 14 -15v-86c0 -10 -4 -14 -14 -14h-86zM423 785c-10 0 -14 4 -14 14v86c0 10 4 15 14 15h86c10 0 15 -5 15 -15v-86c0 -10 -5 -14 -15 -14h-86zM272 -5c-145 0 -206 77 -206 205v485c0 10 4 15 14 15h85
c10 0 15 -5 15 -15v-483c0 -77 35 -104 100 -104h83c65 0 101 27 101 104v483c0 10 4 15 14 15h85c10 0 15 -5 15 -15v-485c0 -128 -62 -205 -207 -205h-99z" />
    <glyph glyph-name="Ugrave" unicode="&#xd9;" 
d="M314 882l54 -115c6 -12 1 -18 -10 -18h-69c-10 0 -17 8 -24 18l-89 115c-9 11 -1 18 10 18h107c10 0 14 -6 21 -18zM272 -5c-145 0 -206 77 -206 205v485c0 10 4 15 14 15h85c10 0 15 -5 15 -15v-483c0 -77 35 -104 100 -104h83c65 0 101 27 101 104v483c0 10 4 15 14 15
h85c10 0 15 -5 15 -15v-485c0 -128 -62 -205 -207 -205h-99z" />
    <glyph glyph-name="Uhungarumlaut" unicode="&#x170;" 
d="M241 882c6 12 11 18 21 18h106c11 0 19 -7 10 -18l-89 -115c-7 -10 -14 -18 -24 -18h-69c-11 0 -16 6 -10 18zM422 882c6 12 11 18 21 18h107c11 0 19 -7 10 -18l-90 -115c-7 -10 -13 -18 -23 -18h-70c-11 0 -16 6 -10 18zM272 -5c-145 0 -206 77 -206 205v485
c0 10 4 15 14 15h85c10 0 15 -5 15 -15v-483c0 -77 35 -104 100 -104h83c65 0 101 27 101 104v483c0 10 4 15 14 15h85c10 0 15 -5 15 -15v-485c0 -128 -62 -205 -207 -205h-99z" />
    <glyph glyph-name="Umacron" unicode="&#x16a;" 
d="M160 799c-10 0 -15 5 -15 15v71c0 10 5 15 15 15h324c9 0 15 -5 15 -15v-71c0 -10 -6 -15 -15 -15h-324zM272 -5c-145 0 -206 77 -206 205v485c0 10 4 15 14 15h85c10 0 15 -5 15 -15v-483c0 -77 35 -104 100 -104h83c65 0 101 27 101 104v483c0 10 4 15 14 15h85
c10 0 15 -5 15 -15v-485c0 -128 -62 -205 -207 -205h-99z" />
    <glyph glyph-name="Uogonek" unicode="&#x172;" 
d="M563 700c10 0 15 -5 15 -15v-485c0 -116 -51 -190 -168 -203v-30c0 -48 -21 -53 -66 -59l-76 -9c-12 -2 -15 -4 -15 -16c0 -11 4 -15 20 -15h113c6 0 10 -5 10 -12v-52c0 -6 -3 -10 -10 -10h-133c-78 0 -100 16 -100 87c0 65 17 76 74 82l38 4c24 2 34 4 34 26v2h-27
c-145 0 -206 77 -206 205v485c0 10 4 15 14 15h85c10 0 15 -5 15 -15v-483c0 -77 35 -104 100 -104h83c65 0 101 27 101 104v483c0 10 4 15 14 15h85z" />
    <glyph glyph-name="Uring" unicode="&#x16e;" 
d="M328 916c49 0 84 -37 84 -84v-11c0 -47 -35 -83 -84 -83h-13c-49 0 -84 36 -84 83v11c0 47 35 84 84 84h13zM351 831c0 14 -10 24 -25 24h-9c-14 0 -24 -10 -24 -24v-7c0 -14 10 -25 24 -25h9c15 0 25 11 25 25v7zM272 -5c-145 0 -206 77 -206 205v485c0 10 4 15 14 15
h85c10 0 15 -5 15 -15v-483c0 -77 35 -104 100 -104h83c65 0 101 27 101 104v483c0 10 4 15 14 15h85c10 0 15 -5 15 -15v-485c0 -128 -62 -205 -207 -205h-99z" />
    <glyph glyph-name="Utilde" unicode="&#x168;" 
d="M390 766c-69 0 -86 42 -138 42c-23 0 -37 -5 -60 -19c-9 -6 -15 -2 -18 4l-24 58c-4 10 1 16 9 22c34 25 64 32 96 32c69 0 86 -42 138 -42c23 0 36 6 60 20c9 5 15 1 18 -5l24 -58c4 -10 -1 -15 -9 -21c-34 -25 -64 -33 -96 -33zM272 -5c-145 0 -206 77 -206 205v485
c0 10 4 15 14 15h85c10 0 15 -5 15 -15v-483c0 -77 35 -104 100 -104h83c65 0 101 27 101 104v483c0 10 4 15 14 15h85c10 0 15 -5 15 -15v-485c0 -128 -62 -205 -207 -205h-99z" />
    <glyph glyph-name="V" unicode="V" horiz-adv-x="617" 
d="M237 0c-9 0 -16 6 -19 16l-181 665c-3 11 2 19 12 19h85c10 0 16 -8 19 -19l149 -552h13l149 552c3 11 9 19 19 19h85c9 0 15 -8 12 -19l-181 -665c-3 -10 -10 -16 -19 -16h-143z" />
    <glyph glyph-name="W" unicode="W" horiz-adv-x="937" 
d="M888 700c10 0 15 -8 13 -19l-142 -665c-2 -10 -10 -16 -19 -16h-144c-9 0 -17 6 -19 16l-103 485h-12l-102 -485c-2 -10 -10 -16 -19 -16h-145c-9 0 -17 6 -19 16l-141 665c-2 11 3 19 12 19h85c10 0 17 -8 19 -19l114 -551h12l126 551c2 11 9 19 19 19h91
c10 0 16 -8 18 -19l126 -551h13l114 551c2 11 9 19 19 19h84z" />
    <glyph glyph-name="Wacute" unicode="&#x1e82;" horiz-adv-x="907" 
d="M467 908c6 12 11 18 21 18h107c11 0 19 -7 10 -18l-89 -115c-8 -10 -14 -18 -24 -18h-69c-11 0 -17 6 -10 18zM888 700c10 0 15 -8 13 -19l-142 -665c-2 -10 -10 -16 -19 -16h-144c-9 0 -17 6 -19 16l-103 485h-12l-102 -485c-2 -10 -10 -16 -19 -16h-145
c-9 0 -17 6 -19 16l-141 665c-2 11 3 19 12 19h85c10 0 17 -8 19 -19l114 -551h12l126 551c2 11 9 19 19 19h91c10 0 16 -8 18 -19l126 -551h13l114 551c2 11 9 19 19 19h84z" />
    <glyph glyph-name="Wcircumflex" unicode="&#x174;" horiz-adv-x="907" 
d="M403 926h87c11 0 20 -5 28 -14l104 -118c8 -9 2 -19 -8 -19h-78c-14 0 -20 7 -30 19l-53 61h-10l-53 -61c-11 -12 -17 -19 -31 -19h-78c-10 0 -15 10 -8 19l104 118c8 10 15 14 26 14zM888 700c10 0 15 -8 13 -19l-142 -665c-2 -10 -10 -16 -19 -16h-144
c-9 0 -17 6 -19 16l-103 485h-12l-102 -485c-2 -10 -10 -16 -19 -16h-145c-9 0 -17 6 -19 16l-141 665c-2 11 3 19 12 19h85c10 0 17 -8 19 -19l114 -551h12l126 551c2 11 9 19 19 19h91c10 0 16 -8 18 -19l126 -551h13l114 551c2 11 9 19 19 19h84z" />
    <glyph glyph-name="Wdieresis" unicode="&#x1e84;" horiz-adv-x="907" 
d="M296 811c-10 0 -14 4 -14 14v86c0 10 4 15 14 15h86c10 0 15 -5 15 -15v-86c0 -10 -5 -14 -15 -14h-86zM584 811c-10 0 -15 4 -15 14v86c0 10 5 15 15 15h86c10 0 15 -5 15 -15v-86c0 -10 -5 -14 -15 -14h-86zM888 700c10 0 15 -8 13 -19l-142 -665
c-2 -10 -10 -16 -19 -16h-144c-9 0 -17 6 -19 16l-103 485h-12l-102 -485c-2 -10 -10 -16 -19 -16h-145c-9 0 -17 6 -19 16l-141 665c-2 11 3 19 12 19h85c10 0 17 -8 19 -19l114 -551h12l126 551c2 11 9 19 19 19h91c10 0 16 -8 18 -19l126 -551h13l114 551
c2 11 9 19 19 19h84z" />
    <glyph glyph-name="Wgrave" unicode="&#x1e80;" horiz-adv-x="907" 
d="M445 908l55 -115c6 -12 0 -18 -10 -18h-70c-10 0 -16 8 -24 18l-89 115c-9 11 -1 18 10 18h107c10 0 15 -6 21 -18zM888 700c10 0 15 -8 13 -19l-142 -665c-2 -10 -10 -16 -19 -16h-144c-9 0 -17 6 -19 16l-103 485h-12l-102 -485c-2 -10 -10 -16 -19 -16h-145
c-9 0 -17 6 -19 16l-141 665c-2 11 3 19 12 19h85c10 0 17 -8 19 -19l114 -551h12l126 551c2 11 9 19 19 19h91c10 0 16 -8 18 -19l126 -551h13l114 551c2 11 9 19 19 19h84z" />
    <glyph glyph-name="X" unicode="X" horiz-adv-x="587" 
d="M59 0c-11 0 -16 6 -10 18l184 332l-183 332c-6 12 0 18 11 18h89c10 0 14 -4 20 -14l120 -226h8l120 226c5 10 10 14 20 14h90c11 0 15 -6 9 -18l-183 -332l184 -332c6 -12 2 -18 -9 -18h-89c-10 0 -15 4 -20 14l-122 226h-8l-122 -226c-6 -10 -9 -14 -20 -14h-89z" />
    <glyph glyph-name="Y" unicode="Y" horiz-adv-x="592" 
d="M544 700c11 0 17 -6 11 -18l-202 -424v-243c0 -10 -5 -15 -15 -15h-84c-10 0 -15 5 -15 15v243l-201 424c-6 12 -1 18 10 18h88c11 0 16 -4 21 -15l135 -294h8l136 294c5 11 9 15 20 15h88z" />
    <glyph glyph-name="Yacute" unicode="&#xdd;" horiz-adv-x="592" 
d="M265 749c-11 0 -16 6 -10 18l55 115c6 12 11 18 21 18h106c11 0 19 -7 10 -18l-89 -115c-7 -10 -14 -18 -24 -18h-69zM544 700c11 0 17 -6 11 -18l-202 -424v-243c0 -10 -5 -15 -15 -15h-84c-10 0 -15 5 -15 15v243l-201 424c-6 12 -1 18 10 18h88c11 0 16 -4 21 -15
l135 -294h8l136 294c5 11 9 15 20 15h88z" />
    <glyph glyph-name="Ycircumflex" unicode="&#x176;" horiz-adv-x="592" 
d="M129 749c-10 0 -16 10 -8 19l103 118c8 10 16 14 27 14h87c11 0 20 -5 28 -14l103 -118c8 -9 2 -19 -8 -19h-77c-14 0 -21 7 -31 19l-53 61h-10l-53 -61c-10 -12 -17 -19 -30 -19h-78zM544 700c11 0 17 -6 11 -18l-202 -424v-243c0 -10 -5 -15 -15 -15h-84
c-10 0 -15 5 -15 15v243l-201 424c-6 12 -1 18 10 18h88c11 0 16 -4 21 -15l135 -294h8l136 294c5 11 9 15 20 15h88z" />
    <glyph glyph-name="Ydieresis" unicode="&#x178;" horiz-adv-x="592" 
d="M110 785c-10 0 -15 4 -15 14v86c0 10 5 15 15 15h86c10 0 14 -5 14 -15v-86c0 -10 -4 -14 -14 -14h-86zM397 785c-10 0 -14 4 -14 14v86c0 10 4 15 14 15h86c10 0 15 -5 15 -15v-86c0 -10 -5 -14 -15 -14h-86zM544 700c11 0 17 -6 11 -18l-202 -424v-243
c0 -10 -5 -15 -15 -15h-84c-10 0 -15 5 -15 15v243l-201 424c-6 12 -1 18 10 18h88c11 0 16 -4 21 -15l135 -294h8l136 294c5 11 9 15 20 15h88z" />
    <glyph glyph-name="Ygrave" unicode="&#x1ef2;" horiz-adv-x="592" 
d="M239 767l-89 115c-9 11 -1 18 10 18h107c10 0 14 -6 21 -18l54 -115c6 -12 1 -18 -10 -18h-69c-10 0 -17 8 -24 18zM544 700c11 0 17 -6 11 -18l-202 -424v-243c0 -10 -5 -15 -15 -15h-84c-10 0 -15 5 -15 15v243l-201 424c-6 12 -1 18 10 18h88c11 0 16 -4 21 -15
l135 -294h8l136 294c5 11 9 15 20 15h88z" />
    <glyph glyph-name="Z" unicode="Z" horiz-adv-x="529" 
d="M60 0c-10 0 -14 5 -14 15v76c0 10 1 22 11 38l305 460v8h-296c-10 0 -15 5 -15 15v73c0 10 5 15 15 15h403c10 0 15 -5 15 -15v-76c0 -10 -1 -22 -12 -37l-306 -460v-9h303c10 0 14 -5 14 -15v-73c0 -10 -4 -15 -14 -15h-409z" />
    <glyph glyph-name="Zacute" unicode="&#x179;" horiz-adv-x="529" 
d="M279 882c6 12 11 18 21 18h106c11 0 19 -7 10 -18l-89 -115c-7 -10 -14 -18 -24 -18h-69c-11 0 -16 6 -10 18zM60 0c-10 0 -14 5 -14 15v76c0 10 1 22 11 38l305 460v8h-296c-10 0 -15 5 -15 15v73c0 10 5 15 15 15h403c10 0 15 -5 15 -15v-76c0 -10 -1 -22 -12 -37
l-306 -460v-9h303c10 0 14 -5 14 -15v-73c0 -10 -4 -15 -14 -15h-409z" />
    <glyph glyph-name="Zcaron" unicode="&#x17d;" horiz-adv-x="529" 
d="M221 749c-11 0 -19 4 -27 14l-103 118c-8 9 -2 19 8 19h78c13 0 20 -6 30 -19l53 -61h10l53 61c10 13 17 19 31 19h77c10 0 16 -10 8 -19l-103 -118c-8 -9 -17 -14 -28 -14h-87zM60 0c-10 0 -14 5 -14 15v76c0 10 1 22 11 38l305 460v8h-296c-10 0 -15 5 -15 15v73
c0 10 5 15 15 15h403c10 0 15 -5 15 -15v-76c0 -10 -1 -22 -12 -37l-306 -460v-9h303c10 0 14 -5 14 -15v-73c0 -10 -4 -15 -14 -15h-409z" />
    <glyph glyph-name="Zdotaccent" unicode="&#x17b;" horiz-adv-x="529" 
d="M222 785c-10 0 -15 4 -15 14v86c0 10 5 15 15 15h86c10 0 14 -5 14 -15v-86c0 -10 -4 -14 -14 -14h-86zM60 0c-10 0 -14 5 -14 15v76c0 10 1 22 11 38l305 460v8h-296c-10 0 -15 5 -15 15v73c0 10 5 15 15 15h403c10 0 15 -5 15 -15v-76c0 -10 -1 -22 -12 -37l-306 -460
v-9h303c10 0 14 -5 14 -15v-73c0 -10 -4 -15 -14 -15h-409z" />
    <glyph glyph-name="R.ss01" horiz-adv-x="597" 
d="M552 421c0 -77 -22 -135 -71 -169c46 -23 71 -66 71 -139v-98c0 -10 -5 -15 -15 -15h-85c-10 0 -14 5 -14 15v95c0 75 -17 107 -101 107h-157v-202c0 -10 -5 -15 -15 -15h-85c-10 0 -14 5 -14 15v670c0 10 4 15 14 15h266c144 0 206 -76 206 -204v-75zM180 320h157
c66 0 101 26 101 104v69c0 77 -35 104 -101 104h-157v-277z" />
    <glyph glyph-name="a" unicode="a" horiz-adv-x="525" 
d="M285 504c127 0 179 -63 179 -168v-321c0 -10 -5 -15 -14 -15h-82c-10 0 -15 5 -15 15v51h-11c-32 -39 -74 -71 -142 -71h-7c-101 0 -147 55 -147 147v30c0 90 51 127 155 127h152v31c0 50 -24 76 -112 76c-41 0 -89 -5 -117 -14c-10 -2 -15 1 -17 11l-12 60
c-2 8 2 14 10 17c32 12 88 24 155 24h25zM259 91c60 0 94 43 94 83v45h-137c-38 0 -61 -10 -61 -53v-19c0 -41 23 -56 62 -56h42z" />
    <glyph glyph-name="aacute" unicode="&#xe1;" horiz-adv-x="525" 
d="M241 549c-11 0 -16 6 -10 18l55 115c6 12 11 18 21 18h106c11 0 19 -7 10 -18l-89 -115c-7 -10 -14 -18 -24 -18h-69zM285 504c127 0 179 -63 179 -168v-321c0 -10 -5 -15 -14 -15h-82c-10 0 -15 5 -15 15v51h-11c-32 -39 -74 -71 -142 -71h-7c-101 0 -147 55 -147 147
v30c0 90 51 127 155 127h152v31c0 50 -24 76 -112 76c-41 0 -89 -5 -117 -14c-10 -2 -15 1 -17 11l-12 60c-2 8 2 14 10 17c32 12 88 24 155 24h25zM259 91c60 0 94 43 94 83v45h-137c-38 0 -61 -10 -61 -53v-19c0 -41 23 -56 62 -56h42z" />
    <glyph glyph-name="abreve" unicode="&#x103;" horiz-adv-x="525" 
d="M243 546c-91 0 -134 46 -134 139c0 10 5 15 15 15h62c10 0 14 -5 14 -15c3 -33 15 -61 58 -61h27c43 0 55 28 58 61c1 10 5 15 15 15h61c10 0 15 -5 15 -15c0 -93 -42 -139 -134 -139h-57zM285 504c127 0 179 -63 179 -168v-321c0 -10 -5 -15 -14 -15h-82
c-10 0 -15 5 -15 15v51h-11c-32 -39 -74 -71 -142 -71h-7c-101 0 -147 55 -147 147v30c0 90 51 127 155 127h152v31c0 50 -24 76 -112 76c-41 0 -89 -5 -117 -14c-10 -2 -15 1 -17 11l-12 60c-2 8 2 14 10 17c32 12 88 24 155 24h25zM259 91c60 0 94 43 94 83v45h-137
c-38 0 -61 -10 -61 -53v-19c0 -41 23 -56 62 -56h42z" />
    <glyph glyph-name="uni01CE" unicode="&#x1ce;" horiz-adv-x="525" 
d="M201 563l-103 118c-8 9 -2 19 8 19h78c13 0 20 -6 30 -19l53 -61h10l53 61c10 13 17 19 31 19h77c10 0 16 -10 8 -19l-103 -118c-8 -9 -17 -14 -28 -14h-87c-11 0 -19 4 -27 14zM285 504c127 0 179 -63 179 -168v-321c0 -10 -5 -15 -14 -15h-82c-10 0 -15 5 -15 15v51
h-11c-32 -39 -74 -71 -142 -71h-7c-101 0 -147 55 -147 147v30c0 90 51 127 155 127h152v31c0 50 -24 76 -112 76c-41 0 -89 -5 -117 -14c-10 -2 -15 1 -17 11l-12 60c-2 8 2 14 10 17c32 12 88 24 155 24h25zM259 91c60 0 94 43 94 83v45h-137c-38 0 -61 -10 -61 -53v-19
c0 -41 23 -56 62 -56h42z" />
    <glyph glyph-name="acircumflex" unicode="&#xe2;" horiz-adv-x="525" 
d="M106 549c-10 0 -16 10 -8 19l103 118c8 10 16 14 27 14h87c11 0 20 -5 28 -14l103 -118c8 -9 2 -19 -8 -19h-77c-14 0 -21 7 -31 19l-53 61h-10l-53 -61c-10 -12 -17 -19 -30 -19h-78zM285 504c127 0 179 -63 179 -168v-321c0 -10 -5 -15 -14 -15h-82c-10 0 -15 5 -15 15
v51h-11c-32 -39 -74 -71 -142 -71h-7c-101 0 -147 55 -147 147v30c0 90 51 127 155 127h152v31c0 50 -24 76 -112 76c-41 0 -89 -5 -117 -14c-10 -2 -15 1 -17 11l-12 60c-2 8 2 14 10 17c32 12 88 24 155 24h25zM259 91c60 0 94 43 94 83v45h-137c-38 0 -61 -10 -61 -53
v-19c0 -41 23 -56 62 -56h42z" />
    <glyph glyph-name="adieresis" unicode="&#xe4;" horiz-adv-x="525" 
d="M86 585c-10 0 -15 4 -15 14v86c0 10 5 15 15 15h86c10 0 14 -5 14 -15v-86c0 -10 -4 -14 -14 -14h-86zM459 700c10 0 15 -5 15 -15v-86c0 -10 -5 -14 -15 -14h-86c-10 0 -14 4 -14 14v86c0 10 4 15 14 15h86zM285 504c127 0 179 -63 179 -168v-321c0 -10 -5 -15 -14 -15
h-82c-10 0 -15 5 -15 15v51h-11c-32 -39 -74 -71 -142 -71h-7c-101 0 -147 55 -147 147v30c0 90 51 127 155 127h152v31c0 50 -24 76 -112 76c-41 0 -89 -5 -117 -14c-10 -2 -15 1 -17 11l-12 60c-2 8 2 14 10 17c32 12 88 24 155 24h25zM259 91c60 0 94 43 94 83v45h-137
c-38 0 -61 -10 -61 -53v-19c0 -41 23 -56 62 -56h42z" />
    <glyph glyph-name="agrave" unicode="&#xe0;" horiz-adv-x="525" 
d="M215 567l-89 115c-9 11 -1 18 10 18h107c10 0 14 -6 21 -18l54 -115c6 -12 1 -18 -10 -18h-69c-10 0 -17 8 -24 18zM285 504c127 0 179 -63 179 -168v-321c0 -10 -5 -15 -14 -15h-82c-10 0 -15 5 -15 15v51h-11c-32 -39 -74 -71 -142 -71h-7c-101 0 -147 55 -147 147v30
c0 90 51 127 155 127h152v31c0 50 -24 76 -112 76c-41 0 -89 -5 -117 -14c-10 -2 -15 1 -17 11l-12 60c-2 8 2 14 10 17c32 12 88 24 155 24h25zM259 91c60 0 94 43 94 83v45h-137c-38 0 -61 -10 -61 -53v-19c0 -41 23 -56 62 -56h42z" />
    <glyph glyph-name="amacron" unicode="&#x101;" horiz-adv-x="525" 
d="M110 599c-10 0 -15 5 -15 15v71c0 10 5 15 15 15h324c9 0 15 -5 15 -15v-71c0 -10 -6 -15 -15 -15h-324zM285 504c127 0 179 -63 179 -168v-321c0 -10 -5 -15 -14 -15h-82c-10 0 -15 5 -15 15v51h-11c-32 -39 -74 -71 -142 -71h-7c-101 0 -147 55 -147 147v30
c0 90 51 127 155 127h152v31c0 50 -24 76 -112 76c-41 0 -89 -5 -117 -14c-10 -2 -15 1 -17 11l-12 60c-2 8 2 14 10 17c32 12 88 24 155 24h25zM259 91c60 0 94 43 94 83v45h-137c-38 0 -61 -10 -61 -53v-19c0 -41 23 -56 62 -56h42z" />
    <glyph glyph-name="aogonek" unicode="&#x105;" horiz-adv-x="525" 
d="M285 504c127 0 179 -63 179 -168v-369c0 -48 -21 -53 -66 -59l-76 -9c-12 -2 -15 -4 -15 -16c0 -11 4 -15 20 -15h113c6 0 10 -5 10 -12v-52c0 -6 -3 -10 -10 -10h-133c-78 0 -100 16 -100 87c0 65 17 76 74 82l38 4c24 2 34 4 34 26v73h-11c-32 -39 -74 -71 -142 -71h-7
c-101 0 -147 55 -147 147v30c0 90 51 127 155 127h152v31c0 50 -24 76 -112 76c-41 0 -89 -5 -117 -14c-10 -2 -15 1 -17 11l-12 60c-2 8 2 14 10 17c32 12 88 24 155 24h25zM259 91c60 0 94 43 94 83v45h-137c-38 0 -61 -10 -61 -53v-19c0 -41 23 -56 62 -56h42z" />
    <glyph glyph-name="aring" unicode="&#xe5;" horiz-adv-x="525" 
d="M265 538c-49 0 -84 36 -84 83v11c0 47 35 84 84 84h13c49 0 84 -37 84 -84v-11c0 -47 -35 -83 -84 -83h-13zM243 631v-7c0 -14 10 -25 24 -25h9c15 0 25 11 25 25v7c0 14 -10 24 -25 24h-9c-14 0 -24 -10 -24 -24zM285 504c127 0 179 -63 179 -168v-321
c0 -10 -5 -15 -14 -15h-82c-10 0 -15 5 -15 15v51h-11c-32 -39 -74 -71 -142 -71h-7c-101 0 -147 55 -147 147v30c0 90 51 127 155 127h152v31c0 50 -24 76 -112 76c-41 0 -89 -5 -117 -14c-10 -2 -15 1 -17 11l-12 60c-2 8 2 14 10 17c32 12 88 24 155 24h25zM259 91
c60 0 94 43 94 83v45h-137c-38 0 -61 -10 -61 -53v-19c0 -41 23 -56 62 -56h42z" />
    <glyph glyph-name="atilde" unicode="&#xe3;" horiz-adv-x="525" 
d="M125 593l-24 58c-4 10 1 16 9 22c34 25 64 32 96 32c69 0 86 -42 138 -42c23 0 36 6 60 20c9 5 15 1 18 -5l24 -58c4 -10 -1 -15 -9 -21c-34 -25 -64 -33 -96 -33c-69 0 -86 42 -138 42c-23 0 -37 -5 -60 -19c-9 -6 -15 -2 -18 4zM285 504c127 0 179 -63 179 -168v-321
c0 -10 -5 -15 -14 -15h-82c-10 0 -15 5 -15 15v51h-11c-32 -39 -74 -71 -142 -71h-7c-101 0 -147 55 -147 147v30c0 90 51 127 155 127h152v31c0 50 -24 76 -112 76c-41 0 -89 -5 -117 -14c-10 -2 -15 1 -17 11l-12 60c-2 8 2 14 10 17c32 12 88 24 155 24h25zM259 91
c60 0 94 43 94 83v45h-137c-38 0 -61 -10 -61 -53v-19c0 -41 23 -56 62 -56h42z" />
    <glyph glyph-name="ae" unicode="&#xe6;" horiz-adv-x="817" 
d="M585 504c124 0 181 -66 181 -173v-96c0 -19 -10 -30 -30 -30h-272v-35c0 -47 30 -80 98 -80h10c69 0 101 12 129 26c8 4 15 2 19 -5l26 -39c5 -7 5 -13 1 -17c-34 -34 -101 -60 -175 -60h-13c-98 0 -156 30 -184 80c-34 -57 -101 -80 -175 -80h-7
c-101 0 -147 52 -147 142v28c0 85 51 122 155 122h152v36c0 53 -24 83 -112 83c-41 0 -89 -5 -117 -14c-10 -2 -15 1 -17 11l-12 60c-2 8 2 14 10 17c32 12 88 24 155 24h25c56 0 97 -12 126 -35c29 23 70 35 123 35h51zM655 287v43c0 49 -28 74 -75 74h-41
c-46 0 -75 -25 -75 -75v-42h191zM353 174v31h-137c-38 0 -61 -8 -61 -47v-18c0 -38 23 -49 62 -49h42c60 0 94 43 94 83z" />
    <glyph glyph-name="b" unicode="b" horiz-adv-x="532" 
d="M315 504c112 0 167 -60 167 -169v-171c0 -109 -55 -169 -167 -169h-18c-58 0 -92 21 -115 52h-10v-32c0 -10 -5 -15 -15 -15h-82c-10 0 -15 5 -15 15v670c0 10 5 15 15 15h82c10 0 15 -5 15 -15v-233h10c23 31 57 52 115 52h18zM371 173v153c0 51 -29 78 -76 78h-48
c-46 0 -75 -28 -75 -78v-153c0 -50 29 -78 75 -78h48c47 0 76 28 76 78z" />
    <glyph glyph-name="c" unicode="c" horiz-adv-x="507" 
d="M255 -5c-147 0 -204 68 -204 174v161c0 108 56 174 181 174h53c115 0 176 -63 176 -163v-6c0 -10 -5 -15 -14 -15h-78c-9 0 -14 5 -14 15v6c0 41 -29 63 -75 63h-44c-46 0 -74 -25 -74 -75v-150c0 -56 29 -87 95 -87h8c60 0 84 10 103 41c5 8 11 12 23 6l54 -25
c11 -5 14 -12 10 -21c-33 -74 -103 -98 -192 -98h-8z" />
    <glyph glyph-name="cacute" unicode="&#x107;" horiz-adv-x="507" 
d="M271 682c6 12 11 18 21 18h106c11 0 19 -7 10 -18l-89 -115c-7 -10 -14 -18 -24 -18h-69c-11 0 -16 6 -10 18zM255 -5c-147 0 -204 68 -204 174v161c0 108 56 174 181 174h53c115 0 176 -63 176 -163v-6c0 -10 -5 -15 -14 -15h-78c-9 0 -14 5 -14 15v6
c0 41 -29 63 -75 63h-44c-46 0 -74 -25 -74 -75v-150c0 -56 29 -87 95 -87h8c60 0 84 10 103 41c5 8 11 12 23 6l54 -25c11 -5 14 -12 10 -21c-33 -74 -103 -98 -192 -98h-8z" />
    <glyph glyph-name="ccaron" unicode="&#x10d;" horiz-adv-x="507" 
d="M213 549c-11 0 -19 4 -27 14l-103 118c-8 9 -2 19 8 19h78c13 0 20 -6 30 -19l53 -61h10l53 61c10 13 17 19 31 19h77c10 0 16 -10 8 -19l-103 -118c-8 -9 -17 -14 -28 -14h-87zM255 -5c-147 0 -204 68 -204 174v161c0 108 56 174 181 174h53c115 0 176 -63 176 -163v-6
c0 -10 -5 -15 -14 -15h-78c-9 0 -14 5 -14 15v6c0 41 -29 63 -75 63h-44c-46 0 -74 -25 -74 -75v-150c0 -56 29 -87 95 -87h8c60 0 84 10 103 41c5 8 11 12 23 6l54 -25c11 -5 14 -12 10 -21c-33 -74 -103 -98 -192 -98h-8z" />
    <glyph glyph-name="ccedilla" unicode="&#xe7;" horiz-adv-x="507" 
d="M285 504c115 0 176 -63 176 -163v-6c0 -10 -5 -15 -14 -15h-78c-9 0 -14 5 -14 15v6c0 41 -29 63 -75 63h-44c-46 0 -74 -25 -74 -75v-150c0 -56 29 -87 95 -87h8c60 0 84 10 103 41c5 8 11 12 23 6l54 -25c11 -5 14 -12 10 -21c-25 -55 -70 -83 -129 -93h9
c-50 -30 -30 -34 -7 -36c67 -7 93 -22 93 -84c0 -54 -31 -85 -96 -85h-74c-66 0 -88 32 -88 81c0 8 2 13 10 13h65c6 0 10 -4 11 -10c3 -11 12 -18 32 -18h20c22 0 34 3 34 18c0 17 -19 19 -102 27c-22 2 -40 11 -40 35c0 18 12 29 38 55c-129 7 -180 73 -180 173v161
c0 108 56 174 181 174h53z" />
    <glyph glyph-name="ccircumflex" unicode="&#x109;" horiz-adv-x="507" 
d="M213 700h87c11 0 20 -5 28 -14l103 -118c8 -9 2 -19 -8 -19h-77c-14 0 -21 7 -31 19l-53 61h-10l-53 -61c-10 -12 -17 -19 -30 -19h-78c-10 0 -16 10 -8 19l103 118c8 10 16 14 27 14zM255 -5c-147 0 -204 68 -204 174v161c0 108 56 174 181 174h53
c115 0 176 -63 176 -163v-6c0 -10 -5 -15 -14 -15h-78c-9 0 -14 5 -14 15v6c0 41 -29 63 -75 63h-44c-46 0 -74 -25 -74 -75v-150c0 -56 29 -87 95 -87h8c60 0 84 10 103 41c5 8 11 12 23 6l54 -25c11 -5 14 -12 10 -21c-33 -74 -103 -98 -192 -98h-8z" />
    <glyph glyph-name="cdotaccent" unicode="&#x10b;" horiz-adv-x="507" 
d="M214 585c-10 0 -15 4 -15 14v86c0 10 5 15 15 15h86c10 0 14 -5 14 -15v-86c0 -10 -4 -14 -14 -14h-86zM255 -5c-147 0 -204 68 -204 174v161c0 108 56 174 181 174h53c115 0 176 -63 176 -163v-6c0 -10 -5 -15 -14 -15h-78c-9 0 -14 5 -14 15v6c0 41 -29 63 -75 63h-44
c-46 0 -74 -25 -74 -75v-150c0 -56 29 -87 95 -87h8c60 0 84 10 103 41c5 8 11 12 23 6l54 -25c11 -5 14 -12 10 -21c-33 -74 -103 -98 -192 -98h-8z" />
    <glyph glyph-name="d" unicode="d" horiz-adv-x="532" 
d="M457 700c10 0 15 -5 15 -15v-670c0 -10 -5 -15 -15 -15h-81c-10 0 -15 5 -15 15v32h-11c-23 -31 -57 -52 -114 -52h-18c-113 0 -167 60 -167 169v171c0 109 54 169 167 169h18c57 0 91 -21 114 -52h11v233c0 10 5 15 15 15h81zM285 95c47 0 76 28 76 78v153
c0 50 -29 78 -76 78h-47c-47 0 -76 -27 -76 -78v-153c0 -50 29 -78 76 -78h47z" />
    <glyph glyph-name="eth" unicode="&#xf0;" horiz-adv-x="533" 
d="M546 667l-74 -42v-610c0 -10 -5 -15 -15 -15h-81c-10 0 -15 5 -15 15v32h-11c-23 -31 -57 -52 -114 -52h-18c-113 0 -167 60 -167 169v171c0 109 54 169 167 169h18c57 0 91 -21 114 -52h11v109l-24 -14h-110l134 77v61c0 10 5 15 15 15h81c10 0 15 -5 15 -15v-18h74z
M285 95c47 0 76 28 76 78v153c0 50 -29 78 -76 78h-47c-47 0 -76 -27 -76 -78v-153c0 -50 29 -78 76 -78h47z" />
    <glyph glyph-name="dcaron" unicode="&#x10f;" horiz-adv-x="616" 
d="M457 700c10 0 15 -5 15 -15v-670c0 -10 -5 -15 -15 -15h-81c-10 0 -15 5 -15 15v32h-11c-23 -31 -57 -52 -114 -52h-18c-113 0 -167 60 -167 169v171c0 109 54 169 167 169h18c57 0 91 -21 114 -52h11v233c0 10 5 15 15 15h81zM646 700c10 0 15 -5 15 -15v-225
c0 -23 -12 -34 -34 -34h-105c-10 0 -15 5 -15 15v63c0 10 5 15 15 15h41v166c0 10 4 15 14 15h69zM285 95c47 0 76 28 76 78v153c0 50 -29 78 -76 78h-47c-47 0 -76 -27 -76 -78v-153c0 -50 29 -78 76 -78h47z" />
    <glyph glyph-name="dcroat" unicode="&#x111;" horiz-adv-x="517" 
d="M508 640c9 0 15 -5 15 -15v-71c0 -10 -6 -15 -15 -15h-36v-524c0 -10 -5 -15 -15 -15h-81c-10 0 -15 5 -15 15v32h-11c-23 -31 -57 -52 -114 -52h-18c-113 0 -167 60 -167 169v171c0 109 54 169 167 169h18c57 0 91 -21 114 -52h11v87h-177c-10 0 -15 5 -15 15v71
c0 10 5 15 15 15h177v45c0 10 5 15 15 15h81c10 0 15 -5 15 -15v-45h36zM285 95c47 0 76 28 76 78v153c0 50 -29 78 -76 78h-47c-47 0 -76 -27 -76 -78v-153c0 -50 29 -78 76 -78h47z" />
    <glyph glyph-name="e" unicode="e" horiz-adv-x="514" 
d="M270 -5h-14c-149 0 -205 70 -205 174v161c0 108 56 174 181 174h50c125 0 182 -66 182 -173v-96c0 -19 -11 -30 -31 -30h-271v-35c0 -47 30 -80 97 -80h11c68 0 100 12 128 26c8 4 15 2 20 -5l25 -39c5 -7 5 -13 1 -17c-34 -34 -100 -60 -174 -60zM162 287h190v43
c0 49 -28 74 -74 74h-42c-46 0 -74 -25 -74 -75v-42z" />
    <glyph glyph-name="eacute" unicode="&#xe9;" horiz-adv-x="514" 
d="M273 682c6 12 11 18 21 18h106c11 0 19 -7 10 -18l-89 -115c-7 -10 -14 -18 -24 -18h-69c-11 0 -16 6 -10 18zM270 -5h-14c-149 0 -205 70 -205 174v161c0 108 56 174 181 174h50c125 0 182 -66 182 -173v-96c0 -19 -11 -30 -31 -30h-271v-35c0 -47 30 -80 97 -80h11
c68 0 100 12 128 26c8 4 15 2 20 -5l25 -39c5 -7 5 -13 1 -17c-34 -34 -100 -60 -174 -60zM162 287h190v43c0 49 -28 74 -74 74h-42c-46 0 -74 -25 -74 -75v-42z" />
    <glyph glyph-name="ecaron" unicode="&#x11b;" horiz-adv-x="514" 
d="M215 549c-11 0 -19 4 -27 14l-103 118c-8 9 -2 19 8 19h78c13 0 20 -6 30 -19l53 -61h10l53 61c10 13 17 19 31 19h77c10 0 16 -10 8 -19l-103 -118c-8 -9 -17 -14 -28 -14h-87zM270 -5h-14c-149 0 -205 70 -205 174v161c0 108 56 174 181 174h50c125 0 182 -66 182 -173
v-96c0 -19 -11 -30 -31 -30h-271v-35c0 -47 30 -80 97 -80h11c68 0 100 12 128 26c8 4 15 2 20 -5l25 -39c5 -7 5 -13 1 -17c-34 -34 -100 -60 -174 -60zM162 287h190v43c0 49 -28 74 -74 74h-42c-46 0 -74 -25 -74 -75v-42z" />
    <glyph glyph-name="uni0229" unicode="&#x229;" horiz-adv-x="514" 
d="M282 504c125 0 182 -66 182 -173v-96c0 -19 -11 -30 -31 -30h-271v-35c0 -47 30 -80 97 -80h11c68 0 100 12 128 26c8 4 15 2 20 -5l25 -39c5 -7 5 -13 1 -17c-25 -25 -68 -46 -118 -55h4c-50 -30 -30 -34 -7 -36c67 -7 93 -22 93 -84c0 -54 -31 -85 -96 -85h-74
c-66 0 -88 32 -88 81c0 8 2 13 10 13h65c6 0 10 -4 11 -10c3 -11 12 -18 32 -18h20c22 0 34 3 34 18c0 17 -19 19 -102 27c-22 2 -40 11 -40 35c0 18 12 29 39 55c-127 9 -176 76 -176 173v161c0 108 56 174 181 174h50zM352 287v43c0 49 -28 74 -74 74h-42
c-46 0 -74 -25 -74 -75v-42h190z" />
    <glyph glyph-name="ecircumflex" unicode="&#xea;" horiz-adv-x="514" 
d="M215 700h87c11 0 20 -5 28 -14l103 -118c8 -9 2 -19 -8 -19h-77c-14 0 -21 7 -31 19l-53 61h-10l-53 -61c-10 -12 -17 -19 -30 -19h-78c-10 0 -16 10 -8 19l103 118c8 10 16 14 27 14zM270 -5h-14c-149 0 -205 70 -205 174v161c0 108 56 174 181 174h50
c125 0 182 -66 182 -173v-96c0 -19 -11 -30 -31 -30h-271v-35c0 -47 30 -80 97 -80h11c68 0 100 12 128 26c8 4 15 2 20 -5l25 -39c5 -7 5 -13 1 -17c-34 -34 -100 -60 -174 -60zM162 287h190v43c0 49 -28 74 -74 74h-42c-46 0 -74 -25 -74 -75v-42z" />
    <glyph glyph-name="edieresis" unicode="&#xeb;" horiz-adv-x="514" 
d="M73 585c-10 0 -15 4 -15 14v86c0 10 5 15 15 15h86c10 0 14 -5 14 -15v-86c0 -10 -4 -14 -14 -14h-86zM360 585c-10 0 -14 4 -14 14v86c0 10 4 15 14 15h86c10 0 15 -5 15 -15v-86c0 -10 -5 -14 -15 -14h-86zM270 -5h-14c-149 0 -205 70 -205 174v161
c0 108 56 174 181 174h50c125 0 182 -66 182 -173v-96c0 -19 -11 -30 -31 -30h-271v-35c0 -47 30 -80 97 -80h11c68 0 100 12 128 26c8 4 15 2 20 -5l25 -39c5 -7 5 -13 1 -17c-34 -34 -100 -60 -174 -60zM162 287h190v43c0 49 -28 74 -74 74h-42c-46 0 -74 -25 -74 -75v-42
z" />
    <glyph glyph-name="edotaccent" unicode="&#x117;" horiz-adv-x="514" 
d="M216 585c-10 0 -15 4 -15 14v86c0 10 5 15 15 15h86c10 0 14 -5 14 -15v-86c0 -10 -4 -14 -14 -14h-86zM270 -5h-14c-149 0 -205 70 -205 174v161c0 108 56 174 181 174h50c125 0 182 -66 182 -173v-96c0 -19 -11 -30 -31 -30h-271v-35c0 -47 30 -80 97 -80h11
c68 0 100 12 128 26c8 4 15 2 20 -5l25 -39c5 -7 5 -13 1 -17c-34 -34 -100 -60 -174 -60zM162 287h190v43c0 49 -28 74 -74 74h-42c-46 0 -74 -25 -74 -75v-42z" />
    <glyph glyph-name="egrave" unicode="&#xe8;" horiz-adv-x="514" 
d="M251 682l54 -115c6 -12 1 -18 -10 -18h-69c-10 0 -17 8 -24 18l-89 115c-9 11 -1 18 10 18h107c10 0 14 -6 21 -18zM270 -5h-14c-149 0 -205 70 -205 174v161c0 108 56 174 181 174h50c125 0 182 -66 182 -173v-96c0 -19 -11 -30 -31 -30h-271v-35c0 -47 30 -80 97 -80
h11c68 0 100 12 128 26c8 4 15 2 20 -5l25 -39c5 -7 5 -13 1 -17c-34 -34 -100 -60 -174 -60zM162 287h190v43c0 49 -28 74 -74 74h-42c-46 0 -74 -25 -74 -75v-42z" />
    <glyph glyph-name="emacron" unicode="&#x113;" horiz-adv-x="514" 
d="M97 599c-10 0 -15 5 -15 15v71c0 10 5 15 15 15h324c9 0 15 -5 15 -15v-71c0 -10 -6 -15 -15 -15h-324zM270 -5h-14c-149 0 -205 70 -205 174v161c0 108 56 174 181 174h50c125 0 182 -66 182 -173v-96c0 -19 -11 -30 -31 -30h-271v-35c0 -47 30 -80 97 -80h11
c68 0 100 12 128 26c8 4 15 2 20 -5l25 -39c5 -7 5 -13 1 -17c-34 -34 -100 -60 -174 -60zM162 287h190v43c0 49 -28 74 -74 74h-42c-46 0 -74 -25 -74 -75v-42z" />
    <glyph glyph-name="eogonek" unicode="&#x119;" horiz-adv-x="514" 
d="M282 504c125 0 182 -66 182 -173v-96c0 -19 -11 -30 -31 -30h-271v-35c0 -47 30 -80 97 -80h11c68 0 100 12 128 26c8 4 15 2 20 -5l25 -39c5 -7 5 -13 1 -17c-21 -21 -54 -39 -94 -50v-38c0 -48 -21 -53 -66 -59l-76 -9c-12 -2 -15 -4 -15 -16c0 -11 4 -15 20 -15h113
c6 0 10 -5 10 -12v-52c0 -6 -3 -10 -10 -10h-133c-78 0 -100 16 -100 87c0 65 17 76 74 82l38 4c24 2 34 4 34 26v2c-136 6 -188 74 -188 174v161c0 108 56 174 181 174h50zM352 287v43c0 49 -28 74 -74 74h-42c-46 0 -74 -25 -74 -75v-42h190z" />
    <glyph glyph-name="f" unicode="f" horiz-adv-x="382" 
d="M336 700c10 0 15 -5 15 -15v-70c0 -10 -5 -15 -15 -15h-43c-47 0 -69 -25 -69 -71v-29h108c10 0 15 -5 15 -15v-69c0 -10 -5 -15 -15 -15h-108v-386c0 -10 -5 -15 -15 -15h-82c-10 0 -14 5 -14 15v386h-63c-10 0 -14 5 -14 15v69c0 10 4 15 14 15h63v38
c0 105 47 162 161 162h62z" />
    <glyph glyph-name="g" unicode="g" horiz-adv-x="527" 
d="M257 -185c-23 0 -57 1 -88 7c-14 3 -22 8 -22 21v51c0 11 7 18 20 17c32 -2 65 -2 92 -2c63 0 102 20 102 83v55h-11c-23 -31 -57 -52 -114 -52h-18c-113 0 -167 60 -167 169v171c0 109 54 169 167 169h18c57 0 91 -21 114 -52h11v33c0 10 6 15 14 15h82
c10 0 15 -5 15 -15v-493c0 -132 -69 -177 -215 -177zM238 95h47c47 0 76 28 76 78v153c0 50 -29 78 -76 78h-47c-47 0 -76 -27 -76 -78v-153c0 -50 29 -78 76 -78z" />
    <glyph glyph-name="gbreve" unicode="&#x11f;" horiz-adv-x="527" 
d="M246 546c-91 0 -134 46 -134 139c0 10 5 15 15 15h62c10 0 14 -5 14 -15c3 -33 15 -61 58 -61h27c43 0 55 28 58 61c1 10 5 15 15 15h61c10 0 15 -5 15 -15c0 -93 -42 -139 -134 -139h-57zM257 -185c-23 0 -57 1 -88 7c-14 3 -22 8 -22 21v51c0 11 7 18 20 17
c32 -2 65 -2 92 -2c63 0 102 20 102 83v55h-11c-23 -31 -57 -52 -114 -52h-18c-113 0 -167 60 -167 169v171c0 109 54 169 167 169h18c57 0 91 -21 114 -52h11v33c0 10 6 15 14 15h82c10 0 15 -5 15 -15v-493c0 -132 -69 -177 -215 -177zM238 95h47c47 0 76 28 76 78v153
c0 50 -29 78 -76 78h-47c-47 0 -76 -27 -76 -78v-153c0 -50 29 -78 76 -78z" />
    <glyph glyph-name="gcaron" unicode="&#x1e7;" horiz-adv-x="527" 
d="M231 549c-11 0 -19 4 -27 14l-103 118c-8 9 -2 19 8 19h78c13 0 20 -6 30 -19l53 -61h10l53 61c10 13 17 19 31 19h77c10 0 16 -10 8 -19l-103 -118c-8 -9 -17 -14 -28 -14h-87zM257 -185c-23 0 -57 1 -88 7c-14 3 -22 8 -22 21v51c0 11 7 18 20 17c32 -2 65 -2 92 -2
c63 0 102 20 102 83v55h-11c-23 -31 -57 -52 -114 -52h-18c-113 0 -167 60 -167 169v171c0 109 54 169 167 169h18c57 0 91 -21 114 -52h11v33c0 10 6 15 14 15h82c10 0 15 -5 15 -15v-493c0 -132 -69 -177 -215 -177zM238 95h47c47 0 76 28 76 78v153c0 50 -29 78 -76 78
h-47c-47 0 -76 -27 -76 -78v-153c0 -50 29 -78 76 -78z" />
    <glyph glyph-name="gcircumflex" unicode="&#x11d;" horiz-adv-x="527" 
d="M230 700h87c11 0 20 -5 28 -14l103 -118c8 -9 2 -19 -8 -19h-77c-14 0 -21 7 -31 19l-53 61h-10l-53 -61c-10 -12 -17 -19 -30 -19h-78c-10 0 -16 10 -8 19l103 118c8 10 16 14 27 14zM257 -185c-23 0 -57 1 -88 7c-14 3 -22 8 -22 21v51c0 11 7 18 20 17
c32 -2 65 -2 92 -2c63 0 102 20 102 83v55h-11c-23 -31 -57 -52 -114 -52h-18c-113 0 -167 60 -167 169v171c0 109 54 169 167 169h18c57 0 91 -21 114 -52h11v33c0 10 6 15 14 15h82c10 0 15 -5 15 -15v-493c0 -132 -69 -177 -215 -177zM238 95h47c47 0 76 28 76 78v153
c0 50 -29 78 -76 78h-47c-47 0 -76 -27 -76 -78v-153c0 -50 29 -78 76 -78z" />
    <glyph glyph-name="uni0123" unicode="&#x123;" horiz-adv-x="527" 
d="M191 551c-10 0 -15 5 -15 15v225c0 23 11 34 34 34h105c10 0 14 -5 14 -15v-63c0 -10 -4 -15 -14 -15h-41v-166c0 -10 -5 -15 -15 -15h-68zM257 -185c-23 0 -57 1 -88 7c-14 3 -22 8 -22 21v51c0 11 7 18 20 17c32 -2 65 -2 92 -2c63 0 102 20 102 83v55h-11
c-23 -31 -57 -52 -114 -52h-18c-113 0 -167 60 -167 169v171c0 109 54 169 167 169h18c57 0 91 -21 114 -52h11v33c0 10 6 15 14 15h82c10 0 15 -5 15 -15v-493c0 -132 -69 -177 -215 -177zM238 95h47c47 0 76 28 76 78v153c0 50 -29 78 -76 78h-47c-47 0 -76 -27 -76 -78
v-153c0 -50 29 -78 76 -78z" />
    <glyph glyph-name="gdotaccent" unicode="&#x121;" horiz-adv-x="527" 
d="M232 585c-10 0 -15 4 -15 14v86c0 10 5 15 15 15h86c10 0 14 -5 14 -15v-86c0 -10 -4 -14 -14 -14h-86zM257 -185c-23 0 -57 1 -88 7c-14 3 -22 8 -22 21v51c0 11 7 18 20 17c32 -2 65 -2 92 -2c63 0 102 20 102 83v55h-11c-23 -31 -57 -52 -114 -52h-18
c-113 0 -167 60 -167 169v171c0 109 54 169 167 169h18c57 0 91 -21 114 -52h11v33c0 10 6 15 14 15h82c10 0 15 -5 15 -15v-493c0 -132 -69 -177 -215 -177zM238 95h47c47 0 76 28 76 78v153c0 50 -29 78 -76 78h-47c-47 0 -76 -27 -76 -78v-153c0 -50 29 -78 76 -78z" />
    <glyph glyph-name="h" unicode="h" horiz-adv-x="542" 
d="M324 504c113 0 158 -60 158 -169v-320c0 -10 -7 -15 -14 -15h-82c-10 0 -15 5 -15 15v310c0 52 -26 79 -74 79h-43c-50 0 -82 -28 -82 -79v-310c0 -9 -4 -13 -11 -15h-3h-83c-10 0 -14 5 -14 15v670c0 10 4 15 14 15h82c10 0 15 -5 15 -15v-237h13c23 35 66 56 122 56h17
z" />
    <glyph glyph-name="hbar" unicode="&#x127;" horiz-adv-x="538" 
d="M324 504c113 0 158 -60 158 -169v-320c0 -10 -7 -15 -14 -15h-82c-10 0 -15 5 -15 15v310c0 52 -26 79 -74 79h-43c-50 0 -82 -28 -82 -79v-310c0 -9 -4 -13 -11 -15h-3h-83c-10 0 -14 5 -14 15v524h-46c-10 0 -15 5 -15 15v71c0 10 5 15 15 15h46v45c0 10 4 15 14 15h82
c10 0 15 -5 15 -15v-45h167c9 0 15 -5 15 -15v-71c0 -10 -6 -15 -15 -15h-167v-91h13c23 35 66 56 122 56h17z" />
    <glyph glyph-name="hcircumflex" unicode="&#x125;" horiz-adv-x="542" 
d="M120 829h-10l-53 -61c-10 -12 -17 -19 -30 -19h-78c-10 0 -16 10 -8 19l103 118c8 10 16 14 27 14h87c11 0 20 -5 28 -14l103 -118c8 -9 2 -19 -8 -19h-77c-14 0 -21 7 -31 19zM324 504c113 0 158 -60 158 -169v-320c0 -10 -7 -15 -14 -15h-82c-10 0 -15 5 -15 15v310
c0 52 -26 79 -74 79h-43c-50 0 -82 -28 -82 -79v-310c0 -9 -4 -13 -11 -15h-3h-83c-10 0 -14 5 -14 15v670c0 10 4 15 14 15h82c10 0 15 -5 15 -15v-237h13c23 35 66 56 122 56h17z" />
    <glyph glyph-name="i" unicode="i" horiz-adv-x="232" 
d="M75 593c-10 0 -14 5 -14 15v77c0 10 4 15 14 15h82c10 0 15 -5 15 -15v-77c0 -10 -5 -15 -15 -15h-82zM75 0c-10 0 -14 5 -14 15v470c0 10 4 15 14 15h82c10 0 15 -5 15 -15v-470c0 -10 -5 -15 -15 -15h-82z" />
    <glyph glyph-name="dotlessi" unicode="&#x131;" horiz-adv-x="221" 
d="M70 0c-10 0 -15 5 -15 15v470c0 10 5 15 15 15h81c10 0 15 -5 15 -15v-470c0 -10 -5 -15 -15 -15h-81z" />
    <glyph glyph-name="iacute" unicode="&#xed;" horiz-adv-x="221" 
d="M123 682c6 12 11 18 21 18h106c11 0 19 -7 10 -18l-89 -115c-7 -10 -14 -18 -24 -18h-69c-11 0 -16 6 -10 18zM70 0c-10 0 -15 5 -15 15v470c0 10 5 15 15 15h81c10 0 15 -5 15 -15v-470c0 -10 -5 -15 -15 -15h-81z" />
    <glyph glyph-name="uni01D0" unicode="&#x1d0;" horiz-adv-x="221" 
d="M65 549c-11 0 -19 4 -27 14l-103 118c-8 9 -2 19 8 19h78c13 0 20 -6 30 -19l53 -61h10l53 61c10 13 17 19 31 19h77c10 0 16 -10 8 -19l-103 -118c-8 -9 -17 -14 -28 -14h-87zM70 0c-10 0 -15 5 -15 15v470c0 10 5 15 15 15h81c10 0 15 -5 15 -15v-470
c0 -10 -5 -15 -15 -15h-81z" />
    <glyph glyph-name="icircumflex" unicode="&#xee;" horiz-adv-x="221" 
d="M64 700h87c11 0 20 -5 28 -14l103 -118c8 -9 2 -19 -8 -19h-77c-14 0 -21 7 -31 19l-53 61h-10l-53 -61c-10 -12 -17 -19 -30 -19h-78c-10 0 -16 10 -8 19l103 118c8 10 16 14 27 14zM70 0c-10 0 -15 5 -15 15v470c0 10 5 15 15 15h81c10 0 15 -5 15 -15v-470
c0 -10 -5 -15 -15 -15h-81z" />
    <glyph glyph-name="idieresis" unicode="&#xef;" horiz-adv-x="221" 
d="M-77 585c-10 0 -15 4 -15 14v86c0 10 5 15 15 15h86c10 0 14 -5 14 -15v-86c0 -10 -4 -14 -14 -14h-86zM210 585c-10 0 -14 4 -14 14v86c0 10 4 15 14 15h86c10 0 15 -5 15 -15v-86c0 -10 -5 -14 -15 -14h-86zM70 0c-10 0 -15 5 -15 15v470c0 10 5 15 15 15h81
c10 0 15 -5 15 -15v-470c0 -10 -5 -15 -15 -15h-81z" />
    <glyph glyph-name="i.loclTRK" horiz-adv-x="221" 
d="M66 585c-10 0 -15 4 -15 14v86c0 10 5 15 15 15h86c10 0 14 -5 14 -15v-86c0 -10 -4 -14 -14 -14h-86zM70 0c-10 0 -15 5 -15 15v470c0 10 5 15 15 15h81c10 0 15 -5 15 -15v-470c0 -10 -5 -15 -15 -15h-81z" />
    <glyph glyph-name="igrave" unicode="&#xec;" horiz-adv-x="221" 
d="M101 682l54 -115c6 -12 1 -18 -10 -18h-69c-10 0 -17 8 -24 18l-89 115c-9 11 -1 18 10 18h107c10 0 14 -6 21 -18zM70 0c-10 0 -15 5 -15 15v470c0 10 5 15 15 15h81c10 0 15 -5 15 -15v-470c0 -10 -5 -15 -15 -15h-81z" />
    <glyph glyph-name="ij" unicode="&#x133;" horiz-adv-x="473" 
d="M75 593c-10 0 -14 5 -14 15v77c0 10 4 15 14 15h82c10 0 15 -5 15 -15v-77c0 -10 -5 -15 -15 -15h-82zM316 593c-10 0 -15 5 -15 15v77c0 10 5 15 15 15h82c10 0 15 -5 15 -15v-77c0 -10 -5 -15 -15 -15h-82zM75 0c-10 0 -14 5 -14 15v470c0 10 4 15 14 15h82
c10 0 15 -5 15 -15v-470c0 -10 -5 -15 -15 -15h-82zM276 -187c-45 0 -58 10 -58 32v43c0 16 6 23 25 23c40 0 58 16 58 61v513c0 10 5 15 15 15h82c10 0 15 -5 15 -15v-512c0 -95 -19 -160 -137 -160z" />
    <glyph glyph-name="imacron" unicode="&#x12b;" horiz-adv-x="221" 
d="M-53 599c-10 0 -15 5 -15 15v71c0 10 5 15 15 15h324c9 0 15 -5 15 -15v-71c0 -10 -6 -15 -15 -15h-324zM70 0c-10 0 -15 5 -15 15v470c0 10 5 15 15 15h81c10 0 15 -5 15 -15v-470c0 -10 -5 -15 -15 -15h-81z" />
    <glyph glyph-name="iogonek" unicode="&#x12f;" horiz-adv-x="221" 
d="M152 700c10 0 14 -5 14 -15v-86c0 -10 -4 -14 -14 -14h-86c-10 0 -15 4 -15 14v86c0 10 5 15 15 15h86zM151 500c10 0 15 -5 15 -15v-518c0 -48 -21 -53 -66 -59l-76 -9c-12 -2 -15 -4 -15 -16c0 -11 4 -15 20 -15h113c6 0 10 -5 10 -12v-52c0 -6 -3 -10 -10 -10h-133
c-78 0 -100 16 -100 87c0 65 17 76 74 82l38 4c24 2 34 4 34 26v492c0 10 5 15 15 15h81z" />
    <glyph glyph-name="j" unicode="j" horiz-adv-x="241" 
d="M84 593c-10 0 -15 5 -15 15v77c0 10 5 15 15 15h82c10 0 15 -5 15 -15v-77c0 -10 -5 -15 -15 -15h-82zM44 -187c-45 0 -59 10 -59 32v43c0 16 7 23 26 23c40 0 58 16 58 61v513c0 10 5 15 15 15h82c10 0 15 -5 15 -15v-512c0 -95 -19 -160 -137 -160z" />
    <glyph glyph-name="uni0237" unicode="&#x237;" horiz-adv-x="236" 
d="M39 -187c-46 0 -59 10 -59 32v43c0 16 7 23 25 23c41 0 59 16 59 61v513c0 10 5 15 15 15h81c10 0 15 -5 15 -15v-512c0 -95 -18 -160 -136 -160z" />
    <glyph glyph-name="jcircumflex" unicode="&#x135;" horiz-adv-x="236" 
d="M77 700h87c11 0 20 -5 28 -14l103 -118c8 -9 2 -19 -8 -19h-77c-14 0 -21 7 -31 19l-53 61h-10l-53 -61c-10 -12 -17 -19 -30 -19h-78c-10 0 -16 10 -8 19l103 118c8 10 16 14 27 14zM39 -187c-46 0 -59 10 -59 32v43c0 16 7 23 25 23c41 0 59 16 59 61v513
c0 10 5 15 15 15h81c10 0 15 -5 15 -15v-512c0 -95 -18 -160 -136 -160z" />
    <glyph glyph-name="k" unicode="k" horiz-adv-x="529" 
d="M500 23c9 -11 3 -23 -13 -23h-76c-14 0 -23 5 -32 17l-148 204l-59 -59v-147c0 -10 -5 -15 -15 -15h-82c-10 0 -14 5 -14 15v670c0 10 4 15 14 15h82c10 0 15 -5 15 -15v-391l190 193c8 8 15 13 26 13h85c12 0 24 -14 7 -30l-176 -176z" />
    <glyph glyph-name="uni0137" unicode="&#x137;" horiz-adv-x="529" 
d="M500 23c9 -11 3 -23 -13 -23h-76c-14 0 -23 5 -32 17l-148 204l-59 -59v-147c0 -10 -5 -15 -15 -15h-82c-10 0 -14 5 -14 15v670c0 10 4 15 14 15h82c10 0 15 -5 15 -15v-391l190 193c8 8 15 13 26 13h85c12 0 24 -14 7 -30l-176 -176zM265 -60c10 0 15 -5 15 -15v-225
c0 -23 -12 -34 -34 -34h-105c-10 0 -15 5 -15 15v63c0 10 5 15 15 15h41v166c0 10 4 15 14 15h69z" />
    <glyph glyph-name="l" unicode="l" horiz-adv-x="232" 
d="M75 0c-10 0 -14 5 -14 15v670c0 10 4 15 14 15h82c10 0 15 -5 15 -15v-670c0 -10 -5 -15 -15 -15h-82z" />
    <glyph glyph-name="lacute" unicode="&#x13a;" horiz-adv-x="232" 
d="M130 882c6 12 11 18 21 18h106c11 0 19 -7 10 -18l-89 -115c-7 -10 -14 -18 -24 -18h-69c-11 0 -16 6 -10 18zM75 0c-10 0 -14 5 -14 15v670c0 10 4 15 14 15h82c10 0 15 -5 15 -15v-670c0 -10 -5 -15 -15 -15h-82z" />
    <glyph glyph-name="lcaron" unicode="&#x13e;" horiz-adv-x="342" 
d="M75 0c-10 0 -14 5 -14 15v670c0 10 4 15 14 15h82c10 0 15 -5 15 -15v-670c0 -10 -5 -15 -15 -15h-82zM352 700c10 0 15 -5 15 -15v-225c0 -23 -11 -34 -34 -34h-105c-10 0 -14 5 -14 15v63c0 10 4 15 14 15h41v166c0 10 5 15 15 15h68z" />
    <glyph glyph-name="uni013C" unicode="&#x13c;" horiz-adv-x="232" 
d="M75 0c-10 0 -14 5 -14 15v670c0 10 4 15 14 15h82c10 0 15 -5 15 -15v-670c0 -10 -5 -15 -15 -15h-82zM149 -60c10 0 15 -5 15 -15v-225c0 -23 -12 -34 -34 -34h-105c-10 0 -15 5 -15 15v63c0 10 5 15 15 15h41v166c0 10 4 15 14 15h69z" />
    <glyph glyph-name="ldot" unicode="&#x140;" horiz-adv-x="309" 
d="M75 0c-10 0 -14 5 -14 15v670c0 10 4 15 14 15h82c10 0 15 -5 15 -15v-670c0 -10 -5 -15 -15 -15h-82zM232 238c-10 0 -15 5 -15 15v86c0 10 5 14 15 14h86c10 0 15 -4 15 -14v-86c0 -10 -5 -15 -15 -15h-86z" />
    <glyph glyph-name="lslash" unicode="&#x142;" horiz-adv-x="279" 
d="M271 473c12 0 17 -8 8 -18l-84 -89v-351c0 -10 -5 -15 -15 -15h-82c-9 0 -14 5 -14 15v254h-76c-12 0 -18 9 -9 18l85 90v308c0 10 5 15 14 15h82c10 0 15 -5 15 -15v-212h76z" />
    <glyph glyph-name="m" unicode="m" horiz-adv-x="824" 
d="M608 504c111 0 155 -60 155 -169v-320c0 -10 -6 -15 -14 -15h-82c-10 0 -15 5 -15 15v310c0 52 -28 79 -75 79h-32c-47 0 -78 -28 -78 -79v-310c0 -10 -6 -15 -13 -15h-83c-10 0 -15 5 -15 15v310c0 52 -27 79 -75 79h-31c-48 0 -78 -28 -78 -79v-310
c0 -10 -7 -15 -14 -15h-83c-10 0 -14 5 -14 15v470c0 10 4 15 14 15h83c7 0 14 -5 14 -15v-37h13c23 35 64 56 120 56h16c61 0 101 -21 124 -62h9c23 40 76 62 133 62h21z" />
    <glyph glyph-name="uni1E3F" unicode="&#x1e3f;" horiz-adv-x="824" 
d="M386 549c-11 0 -16 6 -10 18l55 115c6 12 11 18 21 18h106c11 0 19 -7 10 -18l-89 -115c-7 -10 -14 -18 -24 -18h-69zM608 504c111 0 155 -60 155 -169v-320c0 -10 -6 -15 -14 -15h-82c-10 0 -15 5 -15 15v310c0 52 -28 79 -75 79h-32c-47 0 -78 -28 -78 -79v-310
c0 -10 -6 -15 -13 -15h-83c-10 0 -15 5 -15 15v310c0 52 -27 79 -75 79h-31c-48 0 -78 -28 -78 -79v-310c0 -10 -7 -15 -14 -15h-83c-10 0 -14 5 -14 15v470c0 10 4 15 14 15h83c7 0 14 -5 14 -15v-37h13c23 35 64 56 120 56h16c61 0 101 -21 124 -62h9c23 40 76 62 133 62
h21z" />
    <glyph glyph-name="n" unicode="n" horiz-adv-x="542" 
d="M75 0c-10 0 -14 5 -14 15v470c0 10 4 15 14 15h83c7 0 14 -5 14 -15v-37h13c23 35 66 56 122 56h17c113 0 158 -60 158 -169v-320c0 -10 -7 -15 -14 -15h-82c-10 0 -15 5 -15 15v310c0 52 -26 79 -74 79h-43c-50 0 -82 -28 -82 -79v-310c0 -10 -7 -15 -14 -15h-83z" />
    <glyph glyph-name="nacute" unicode="&#x144;" horiz-adv-x="542" 
d="M285 682c6 12 11 18 21 18h106c11 0 19 -7 10 -18l-89 -115c-7 -10 -14 -18 -24 -18h-69c-11 0 -16 6 -10 18zM75 0c-10 0 -14 5 -14 15v470c0 10 4 15 14 15h83c7 0 14 -5 14 -15v-37h13c23 35 66 56 122 56h17c113 0 158 -60 158 -169v-320c0 -10 -7 -15 -14 -15h-82
c-10 0 -15 5 -15 15v310c0 52 -26 79 -74 79h-43c-50 0 -82 -28 -82 -79v-310c0 -10 -7 -15 -14 -15h-83z" />
    <glyph glyph-name="ncaron" unicode="&#x148;" horiz-adv-x="542" 
d="M227 549c-11 0 -19 4 -27 14l-103 118c-8 9 -2 19 8 19h78c13 0 20 -6 30 -19l53 -61h10l53 61c10 13 17 19 31 19h77c10 0 16 -10 8 -19l-103 -118c-8 -9 -17 -14 -28 -14h-87zM75 0c-10 0 -14 5 -14 15v470c0 10 4 15 14 15h83c7 0 14 -5 14 -15v-37h13
c23 35 66 56 122 56h17c113 0 158 -60 158 -169v-320c0 -10 -7 -15 -14 -15h-82c-10 0 -15 5 -15 15v310c0 52 -26 79 -74 79h-43c-50 0 -82 -28 -82 -79v-310c0 -10 -7 -15 -14 -15h-83z" />
    <glyph glyph-name="uni0146" unicode="&#x146;" horiz-adv-x="542" 
d="M75 0c-10 0 -14 5 -14 15v470c0 10 4 15 14 15h83c7 0 14 -5 14 -15v-37h13c23 35 66 56 122 56h17c113 0 158 -60 158 -169v-320c0 -10 -7 -15 -14 -15h-82c-10 0 -15 5 -15 15v310c0 52 -26 79 -74 79h-43c-50 0 -82 -28 -82 -79v-310c0 -10 -7 -15 -14 -15h-83z
M304 -60c10 0 15 -5 15 -15v-225c0 -23 -12 -34 -34 -34h-105c-10 0 -15 5 -15 15v63c0 10 5 15 15 15h41v166c0 10 4 15 14 15h69z" />
    <glyph glyph-name="eng" unicode="&#x14b;" horiz-adv-x="542" 
d="M324 504c113 0 158 -60 158 -169v-320c0 -6 -2 -10 -6 -13v-47c0 -96 -18 -160 -136 -160c-45 0 -59 9 -59 31v44c0 15 7 23 26 23c40 0 58 15 58 61v212h6v159c0 52 -26 79 -74 79h-43c-50 0 -82 -28 -82 -79v-310c0 -10 -7 -15 -14 -15h-83c-10 0 -14 5 -14 15v470
c0 10 4 15 14 15h83c7 0 14 -5 14 -15v-37h13c23 35 66 56 122 56h17z" />
    <glyph glyph-name="ntilde" unicode="&#xf1;" horiz-adv-x="542" 
d="M339 566c-69 0 -86 42 -138 42c-23 0 -37 -5 -60 -19c-9 -6 -15 -2 -18 4l-24 58c-4 10 1 16 9 22c34 25 64 32 96 32c69 0 86 -42 138 -42c23 0 36 6 60 20c9 5 15 1 18 -5l24 -58c4 -10 -1 -15 -9 -21c-34 -25 -64 -33 -96 -33zM75 0c-10 0 -14 5 -14 15v470
c0 10 4 15 14 15h83c7 0 14 -5 14 -15v-37h13c23 35 66 56 122 56h17c113 0 158 -60 158 -169v-320c0 -10 -7 -15 -14 -15h-82c-10 0 -15 5 -15 15v310c0 52 -26 79 -74 79h-43c-50 0 -82 -28 -82 -79v-310c0 -10 -7 -15 -14 -15h-83z" />
    <glyph glyph-name="o" unicode="o" horiz-adv-x="522" 
d="M232 -5c-125 0 -181 66 -181 173v163c0 107 56 173 181 173h59c124 0 181 -66 181 -173v-163c0 -107 -57 -173 -181 -173h-59zM236 95h50c47 0 75 25 75 75v159c0 50 -28 75 -75 75h-50c-46 0 -74 -25 -74 -75v-159c0 -50 28 -75 74 -75z" />
    <glyph glyph-name="oacute" unicode="&#xf3;" horiz-adv-x="522" 
d="M275 682c6 12 11 18 21 18h106c11 0 19 -7 10 -18l-89 -115c-7 -10 -14 -18 -24 -18h-69c-11 0 -16 6 -10 18zM232 -5c-125 0 -181 66 -181 173v163c0 107 56 173 181 173h59c124 0 181 -66 181 -173v-163c0 -107 -57 -173 -181 -173h-59zM236 95h50c47 0 75 25 75 75
v159c0 50 -28 75 -75 75h-50c-46 0 -74 -25 -74 -75v-159c0 -50 28 -75 74 -75z" />
    <glyph glyph-name="uni01D2" unicode="&#x1d2;" horiz-adv-x="522" 
d="M217 549c-11 0 -19 4 -27 14l-103 118c-8 9 -2 19 8 19h78c13 0 20 -6 30 -19l53 -61h10l53 61c10 13 17 19 31 19h77c10 0 16 -10 8 -19l-103 -118c-8 -9 -17 -14 -28 -14h-87zM232 -5c-125 0 -181 66 -181 173v163c0 107 56 173 181 173h59c124 0 181 -66 181 -173
v-163c0 -107 -57 -173 -181 -173h-59zM236 95h50c47 0 75 25 75 75v159c0 50 -28 75 -75 75h-50c-46 0 -74 -25 -74 -75v-159c0 -50 28 -75 74 -75z" />
    <glyph glyph-name="ocircumflex" unicode="&#xf4;" horiz-adv-x="522" 
d="M217 700h87c11 0 20 -5 28 -14l103 -118c8 -9 2 -19 -8 -19h-77c-14 0 -21 7 -31 19l-53 61h-10l-53 -61c-10 -12 -17 -19 -30 -19h-78c-10 0 -16 10 -8 19l103 118c8 10 16 14 27 14zM232 -5c-125 0 -181 66 -181 173v163c0 107 56 173 181 173h59
c124 0 181 -66 181 -173v-163c0 -107 -57 -173 -181 -173h-59zM236 95h50c47 0 75 25 75 75v159c0 50 -28 75 -75 75h-50c-46 0 -74 -25 -74 -75v-159c0 -50 28 -75 74 -75z" />
    <glyph glyph-name="odieresis" unicode="&#xf6;" horiz-adv-x="522" 
d="M75 585c-10 0 -15 4 -15 14v86c0 10 5 15 15 15h86c10 0 14 -5 14 -15v-86c0 -10 -4 -14 -14 -14h-86zM362 585c-10 0 -14 4 -14 14v86c0 10 4 15 14 15h86c10 0 15 -5 15 -15v-86c0 -10 -5 -14 -15 -14h-86zM232 -5c-125 0 -181 66 -181 173v163c0 107 56 173 181 173
h59c124 0 181 -66 181 -173v-163c0 -107 -57 -173 -181 -173h-59zM236 95h50c47 0 75 25 75 75v159c0 50 -28 75 -75 75h-50c-46 0 -74 -25 -74 -75v-159c0 -50 28 -75 74 -75z" />
    <glyph glyph-name="ograve" unicode="&#xf2;" horiz-adv-x="522" 
d="M253 682l54 -115c6 -12 1 -18 -10 -18h-69c-10 0 -17 8 -24 18l-89 115c-9 11 -1 18 10 18h107c10 0 14 -6 21 -18zM232 -5c-125 0 -181 66 -181 173v163c0 107 56 173 181 173h59c124 0 181 -66 181 -173v-163c0 -107 -57 -173 -181 -173h-59zM236 95h50
c47 0 75 25 75 75v159c0 50 -28 75 -75 75h-50c-46 0 -74 -25 -74 -75v-159c0 -50 28 -75 74 -75z" />
    <glyph glyph-name="ohungarumlaut" unicode="&#x151;" horiz-adv-x="522" 
d="M181 682c6 12 11 18 21 18h106c11 0 19 -7 10 -18l-89 -115c-7 -10 -14 -18 -24 -18h-69c-11 0 -16 6 -10 18zM362 682c6 12 11 18 21 18h107c11 0 19 -7 10 -18l-90 -115c-7 -10 -13 -18 -23 -18h-70c-11 0 -16 6 -10 18zM232 -5c-125 0 -181 66 -181 173v163
c0 107 56 173 181 173h59c124 0 181 -66 181 -173v-163c0 -107 -57 -173 -181 -173h-59zM236 95h50c47 0 75 25 75 75v159c0 50 -28 75 -75 75h-50c-46 0 -74 -25 -74 -75v-159c0 -50 28 -75 74 -75z" />
    <glyph glyph-name="omacron" unicode="&#x14d;" horiz-adv-x="522" 
d="M99 599c-10 0 -15 5 -15 15v71c0 10 5 15 15 15h324c9 0 15 -5 15 -15v-71c0 -10 -6 -15 -15 -15h-324zM232 -5c-125 0 -181 66 -181 173v163c0 107 56 173 181 173h59c124 0 181 -66 181 -173v-163c0 -107 -57 -173 -181 -173h-59zM236 95h50c47 0 75 25 75 75v159
c0 50 -28 75 -75 75h-50c-46 0 -74 -25 -74 -75v-159c0 -50 28 -75 74 -75z" />
    <glyph glyph-name="oslash" unicode="&#xf8;" horiz-adv-x="522" 
d="M417 467c37 -29 55 -76 55 -136v-163c0 -107 -57 -173 -181 -173h-59c-19 0 -36 2 -52 4c-5 -9 -10 -14 -20 -14h-59c-10 0 -15 5 -10 15l16 31c-38 29 -56 77 -56 137v163c0 107 56 173 181 173h59c19 0 37 -2 54 -5c3 7 8 11 17 11h59c10 0 15 -5 10 -15zM162 170
c0 -9 1 -17 3 -25l131 259h-10h-50c-46 0 -74 -25 -74 -75v-159zM361 170v159c0 8 -1 16 -2 23l-131 -257h8h50c47 0 75 25 75 75z" />
    <glyph glyph-name="otilde" unicode="&#xf5;" horiz-adv-x="522" 
d="M329 566c-69 0 -86 42 -138 42c-23 0 -37 -5 -60 -19c-9 -6 -15 -2 -18 4l-24 58c-4 10 1 16 9 22c34 25 64 32 96 32c69 0 86 -42 138 -42c23 0 36 6 60 20c9 5 15 1 18 -5l24 -58c4 -10 -1 -15 -9 -21c-34 -25 -64 -33 -96 -33zM232 -5c-125 0 -181 66 -181 173v163
c0 107 56 173 181 173h59c124 0 181 -66 181 -173v-163c0 -107 -57 -173 -181 -173h-59zM236 95h50c47 0 75 25 75 75v159c0 50 -28 75 -75 75h-50c-46 0 -74 -25 -74 -75v-159c0 -50 28 -75 74 -75z" />
    <glyph glyph-name="oe" unicode="&#x153;" horiz-adv-x="824" 
d="M593 504c124 0 181 -66 181 -173v-96c0 -19 -10 -30 -30 -30h-272v-35c0 -47 30 -80 97 -80h11c68 0 100 12 128 26c9 4 15 2 20 -5l26 -39c5 -7 5 -13 1 -17c-35 -34 -101 -60 -175 -60h-13c-67 0 -115 14 -148 38c-29 -24 -72 -38 -128 -38h-59
c-125 0 -181 66 -181 173v163c0 107 56 173 181 173h59c55 0 96 -13 126 -36c29 23 71 36 125 36h51zM286 95c47 0 75 25 75 75v159c0 50 -28 75 -75 75h-50c-46 0 -74 -25 -74 -75v-159c0 -50 28 -75 74 -75h50zM663 287v43c0 49 -28 74 -75 74h-41c-47 0 -75 -25 -75 -75
v-42h191z" />
    <glyph glyph-name="p" unicode="p" horiz-adv-x="532" 
d="M315 504c112 0 167 -60 167 -169v-171c0 -109 -55 -169 -167 -169h-18c-58 0 -92 21 -115 52h-10v-209c0 -10 -5 -15 -15 -15h-82c-10 0 -14 5 -14 15v647c0 10 4 15 14 15h82c10 0 15 -5 15 -15v-33h10c23 31 57 52 115 52h18zM371 173v153c0 51 -29 78 -76 78h-48
c-46 0 -75 -28 -75 -78v-153c0 -50 29 -78 75 -78h48c47 0 76 28 76 78z" />
    <glyph glyph-name="thorn" unicode="&#xfe;" horiz-adv-x="532" 
d="M315 504c112 0 167 -60 167 -169v-171c0 -109 -55 -169 -167 -169h-18c-58 0 -92 21 -115 52h-10v-209c0 -10 -5 -15 -15 -15h-82c-10 0 -14 5 -14 15v170c-1 2 -1 4 -1 7v670c0 10 5 15 15 15h82c10 0 15 -5 15 -15v-233h10c23 31 57 52 115 52h18zM371 173v153
c0 51 -29 78 -76 78h-48c-46 0 -75 -28 -75 -78v-153c0 -50 29 -78 75 -78h48c47 0 76 28 76 78z" />
    <glyph glyph-name="q" unicode="q" horiz-adv-x="532" 
d="M218 504h18c57 0 91 -21 114 -52h11v33c0 10 5 15 15 15h81c10 0 15 -5 15 -15v-647c0 -10 -5 -15 -15 -15h-81c-10 0 -15 5 -15 15v209h-11c-23 -31 -57 -52 -114 -52h-18c-113 0 -168 60 -168 169v171c0 109 55 169 168 169zM162 173c0 -50 29 -78 75 -78h48
c47 0 76 28 76 78v153c0 50 -29 78 -76 78h-48c-46 0 -75 -27 -75 -78v-153z" />
    <glyph glyph-name="r" unicode="r" horiz-adv-x="482" 
d="M75 0c-10 0 -14 5 -14 15v470c0 10 4 15 14 15h83c7 0 14 -5 14 -15v-37h13c23 35 64 56 119 56h12c96 0 131 -50 131 -145v-26c0 -10 -6 -15 -14 -15h-72c-10 0 -15 5 -15 15c0 44 -20 71 -69 71h-23c-50 0 -82 -28 -82 -79v-310c0 -10 -7 -15 -14 -15h-83z" />
    <glyph glyph-name="racute" unicode="&#x155;" horiz-adv-x="482" 
d="M270 682c6 12 11 18 21 18h106c11 0 19 -7 10 -18l-89 -115c-7 -10 -14 -18 -24 -18h-69c-11 0 -16 6 -10 18zM75 0c-10 0 -14 5 -14 15v470c0 10 4 15 14 15h83c7 0 14 -5 14 -15v-37h13c23 35 64 56 119 56h12c96 0 131 -50 131 -145v-26c0 -10 -6 -15 -14 -15h-72
c-10 0 -15 5 -15 15c0 44 -20 71 -69 71h-23c-50 0 -82 -28 -82 -79v-310c0 -10 -7 -15 -14 -15h-83z" />
    <glyph glyph-name="rcaron" unicode="&#x159;" horiz-adv-x="482" 
d="M212 549c-11 0 -19 4 -27 14l-103 118c-8 9 -2 19 8 19h78c13 0 20 -6 30 -19l53 -61h10l53 61c10 13 17 19 31 19h77c10 0 16 -10 8 -19l-103 -118c-8 -9 -17 -14 -28 -14h-87zM75 0c-10 0 -14 5 -14 15v470c0 10 4 15 14 15h83c7 0 14 -5 14 -15v-37h13
c23 35 64 56 119 56h12c96 0 131 -50 131 -145v-26c0 -10 -6 -15 -14 -15h-72c-10 0 -15 5 -15 15c0 44 -20 71 -69 71h-23c-50 0 -82 -28 -82 -79v-310c0 -10 -7 -15 -14 -15h-83z" />
    <glyph glyph-name="uni0157" unicode="&#x157;" horiz-adv-x="482" 
d="M75 0c-10 0 -14 5 -14 15v470c0 10 4 15 14 15h83c7 0 14 -5 14 -15v-37h13c23 35 64 56 119 56h12c96 0 131 -50 131 -145v-26c0 -10 -6 -15 -14 -15h-72c-10 0 -15 5 -15 15c0 44 -20 71 -69 71h-23c-50 0 -82 -28 -82 -79v-310c0 -10 -7 -15 -14 -15h-83zM149 -60
c10 0 15 -5 15 -15v-225c0 -23 -12 -34 -34 -34h-105c-10 0 -15 5 -15 15v63c0 10 5 15 15 15h41v166c0 10 4 15 14 15h69z" />
    <glyph glyph-name="s" unicode="s" horiz-adv-x="495" 
d="M222 -5c-112 0 -176 45 -176 136c0 11 4 18 14 18h80c11 0 15 -5 17 -13c7 -33 29 -46 72 -46h37c50 0 72 19 72 54c0 37 -21 51 -81 58l-36 3c-129 14 -174 59 -174 150c0 107 68 149 171 149h54c101 0 167 -52 167 -147c0 -10 -4 -16 -16 -16h-71c-12 0 -21 4 -23 16
c-5 34 -25 52 -69 52h-38c-43 0 -64 -17 -64 -52c0 -34 18 -53 76 -59l36 -4c127 -14 180 -44 180 -146c0 -110 -65 -153 -184 -153h-44z" />
    <glyph glyph-name="sacute" unicode="&#x15b;" horiz-adv-x="495" 
d="M258 682c6 12 11 18 21 18h106c11 0 19 -7 10 -18l-89 -115c-7 -10 -14 -18 -24 -18h-69c-11 0 -16 6 -10 18zM222 -5c-112 0 -176 45 -176 136c0 11 4 18 14 18h80c11 0 15 -5 17 -13c7 -33 29 -46 72 -46h37c50 0 72 19 72 54c0 37 -21 51 -81 58l-36 3
c-129 14 -174 59 -174 150c0 107 68 149 171 149h54c101 0 167 -52 167 -147c0 -10 -4 -16 -16 -16h-71c-12 0 -21 4 -23 16c-5 34 -25 52 -69 52h-38c-43 0 -64 -17 -64 -52c0 -34 18 -53 76 -59l36 -4c127 -14 180 -44 180 -146c0 -110 -65 -153 -184 -153h-44z" />
    <glyph glyph-name="scaron" unicode="&#x161;" horiz-adv-x="495" 
d="M200 549c-11 0 -19 4 -27 14l-103 118c-8 9 -2 19 8 19h78c13 0 20 -6 30 -19l53 -61h10l53 61c10 13 17 19 31 19h77c10 0 16 -10 8 -19l-103 -118c-8 -9 -17 -14 -28 -14h-87zM222 -5c-112 0 -176 45 -176 136c0 11 4 18 14 18h80c11 0 15 -5 17 -13
c7 -33 29 -46 72 -46h37c50 0 72 19 72 54c0 37 -21 51 -81 58l-36 3c-129 14 -174 59 -174 150c0 107 68 149 171 149h54c101 0 167 -52 167 -147c0 -10 -4 -16 -16 -16h-71c-12 0 -21 4 -23 16c-5 34 -25 52 -69 52h-38c-43 0 -64 -17 -64 -52c0 -34 18 -53 76 -59l36 -4
c127 -14 180 -44 180 -146c0 -110 -65 -153 -184 -153h-44z" />
    <glyph glyph-name="scedilla" unicode="&#x15f;" horiz-adv-x="495" 
d="M319 -2c-46 -28 -27 -32 -4 -34c67 -7 93 -22 93 -84c0 -54 -31 -85 -96 -85h-74c-66 0 -88 32 -88 81c0 8 2 13 10 13h65c6 0 10 -4 11 -10c3 -11 12 -18 32 -18h20c22 0 34 3 34 18c0 17 -19 19 -102 27c-22 2 -40 11 -40 35c0 18 12 29 38 54c-110 1 -172 46 -172 136
c0 11 4 18 14 18h80c11 0 15 -5 17 -13c7 -33 29 -46 72 -46h37c50 0 72 19 72 54c0 37 -21 51 -81 58l-36 3c-129 14 -174 59 -174 150c0 107 68 149 171 149h54c101 0 167 -52 167 -147c0 -10 -4 -16 -16 -16h-71c-12 0 -21 4 -23 16c-5 34 -25 52 -69 52h-38
c-43 0 -64 -17 -64 -52c0 -34 18 -53 76 -59l36 -4c127 -14 180 -44 180 -146c0 -92 -46 -137 -131 -150z" />
    <glyph glyph-name="scircumflex" unicode="&#x15d;" horiz-adv-x="495" 
d="M200 700h87c11 0 20 -5 28 -14l103 -118c8 -9 2 -19 -8 -19h-77c-14 0 -21 7 -31 19l-53 61h-10l-53 -61c-10 -12 -17 -19 -30 -19h-78c-10 0 -16 10 -8 19l103 118c8 10 16 14 27 14zM222 -5c-112 0 -176 45 -176 136c0 11 4 18 14 18h80c11 0 15 -5 17 -13
c7 -33 29 -46 72 -46h37c50 0 72 19 72 54c0 37 -21 51 -81 58l-36 3c-129 14 -174 59 -174 150c0 107 68 149 171 149h54c101 0 167 -52 167 -147c0 -10 -4 -16 -16 -16h-71c-12 0 -21 4 -23 16c-5 34 -25 52 -69 52h-38c-43 0 -64 -17 -64 -52c0 -34 18 -53 76 -59l36 -4
c127 -14 180 -44 180 -146c0 -110 -65 -153 -184 -153h-44z" />
    <glyph glyph-name="uni0219" unicode="&#x219;" horiz-adv-x="495" 
d="M222 -5c-112 0 -176 45 -176 136c0 11 4 18 14 18h80c11 0 15 -5 17 -13c7 -33 29 -46 72 -46h37c50 0 72 19 72 54c0 37 -21 51 -81 58l-36 3c-129 14 -174 59 -174 150c0 107 68 149 171 149h54c101 0 167 -52 167 -147c0 -10 -4 -16 -16 -16h-71c-12 0 -21 4 -23 16
c-5 34 -25 52 -69 52h-38c-43 0 -64 -17 -64 -52c0 -34 18 -53 76 -59l36 -4c127 -14 180 -44 180 -146c0 -110 -65 -153 -184 -153h-44zM277 -60c10 0 15 -5 15 -15v-225c0 -23 -12 -34 -34 -34h-105c-10 0 -15 5 -15 15v63c0 10 5 15 15 15h41v166c0 10 4 15 14 15h69z
" />
    <glyph glyph-name="germandbls" unicode="&#xdf;" horiz-adv-x="586" 
d="M75 0c-10 0 -14 5 -14 15v516c0 107 52 174 181 174h83c129 0 181 -67 181 -174v-42c0 -43 -12 -91 -77 -108v-11c65 -14 106 -55 106 -136v-49c0 -149 -65 -185 -214 -185h-26c-11 0 -16 5 -16 16v67c0 11 5 16 16 16h26c75 0 103 16 103 86v49c0 64 -36 89 -104 89h-25
c-11 0 -16 5 -16 16v68c0 10 5 15 16 15h25c50 0 75 19 75 67v40c0 50 -28 76 -75 76h-74c-46 0 -74 -26 -74 -76v-514c0 -10 -5 -15 -15 -15h-82z" />
    <glyph glyph-name="t" unicode="t" horiz-adv-x="354" 
d="M298 500c10 0 15 -5 15 -16v-67c0 -11 -5 -16 -15 -16h-76v-247c0 -46 18 -61 58 -61c19 0 25 -8 25 -23v-44c0 -21 -13 -31 -58 -31c-118 0 -137 64 -137 160v246h-64c-11 0 -15 5 -15 16v67c0 11 4 16 15 16h64v98c0 10 5 15 15 15h82c10 0 15 -5 15 -15v-98h76z" />
    <glyph glyph-name="tbar" unicode="&#x167;" horiz-adv-x="354" 
d="M298 401h-76v-58h76c10 0 15 -5 15 -16v-67c0 -11 -5 -16 -15 -16h-76v-90c0 -46 18 -61 58 -61c19 0 25 -8 25 -23v-44c0 -21 -13 -31 -58 -31c-118 0 -137 64 -137 160v89h-64c-11 0 -15 5 -15 16v67c0 11 4 16 15 16h64v58h-64c-11 0 -15 5 -15 16v67c0 11 4 16 15 16
h64v98c0 10 5 15 15 15h82c10 0 15 -5 15 -15v-98h76c10 0 15 -5 15 -16v-67c0 -11 -5 -16 -15 -16z" />
    <glyph glyph-name="tcaron" unicode="&#x165;" horiz-adv-x="339" 
d="M393 810c10 0 15 -5 15 -15v-225c0 -23 -11 -34 -34 -34h-105c-10 0 -14 5 -14 15v63c0 10 4 15 14 15h41v166c0 10 5 15 15 15h68zM298 500c10 0 15 -5 15 -16v-67c0 -11 -5 -16 -15 -16h-76v-247c0 -46 18 -61 58 -61c19 0 25 -8 25 -23v-44c0 -21 -13 -31 -58 -31
c-118 0 -137 64 -137 160v246h-64c-11 0 -15 5 -15 16v67c0 11 4 16 15 16h64v98c0 10 5 15 15 15h82c10 0 15 -5 15 -15v-98h76z" />
    <glyph glyph-name="uni0163" unicode="&#x163;" horiz-adv-x="337" 
d="M270 -32c66 -7 93 -22 93 -84c0 -54 -32 -85 -97 -85h-73c-66 0 -88 32 -88 81c0 8 2 13 10 13h65c6 0 10 -4 11 -10c2 -11 12 -18 32 -18h20c21 0 34 3 34 18c0 17 -19 19 -102 27c-22 2 -40 11 -40 35c0 19 12 30 43 59h5c-61 21 -73 76 -73 151v246h-64
c-11 0 -15 5 -15 16v67c0 11 4 16 15 16h64v98c0 10 5 15 15 15h82c10 0 15 -5 15 -15v-98h76c10 0 15 -5 15 -16v-67c0 -11 -5 -16 -15 -16h-76v-247c0 -46 18 -61 58 -61c19 0 25 -8 25 -23v-44c0 -18 -10 -28 -42 -30c-33 -23 -14 -26 7 -28z" />
    <glyph glyph-name="uni021B" unicode="&#x21b;" horiz-adv-x="354" 
d="M298 500c10 0 15 -5 15 -16v-67c0 -11 -5 -16 -15 -16h-76v-247c0 -46 18 -61 58 -61c19 0 25 -8 25 -23v-44c0 -21 -13 -31 -58 -31c-118 0 -137 64 -137 160v246h-64c-11 0 -15 5 -15 16v67c0 11 4 16 15 16h64v98c0 10 5 15 15 15h82c10 0 15 -5 15 -15v-98h76z
M233 -60c10 0 15 -5 15 -15v-225c0 -23 -12 -34 -34 -34h-105c-10 0 -15 5 -15 15v63c0 10 5 15 15 15h41v166c0 10 4 15 14 15h69z" />
    <glyph glyph-name="u" unicode="u" horiz-adv-x="543" 
d="M467 500c10 0 15 -5 15 -15v-470c0 -10 -5 -15 -15 -15h-82c-8 0 -14 5 -14 15v38h-14c-22 -36 -65 -57 -121 -57h-18c-113 0 -158 60 -158 169v320c0 10 7 15 14 15h83c10 0 15 -5 15 -15v-310c0 -51 26 -79 74 -79h43c49 0 82 28 82 79v310c0 10 6 15 14 15h82z" />
    <glyph glyph-name="uacute" unicode="&#xfa;" horiz-adv-x="543" 
d="M277 682c6 12 11 18 21 18h106c11 0 19 -7 10 -18l-89 -115c-7 -10 -14 -18 -24 -18h-69c-11 0 -16 6 -10 18zM467 500c10 0 15 -5 15 -15v-470c0 -10 -5 -15 -15 -15h-82c-8 0 -14 5 -14 15v38h-14c-22 -36 -65 -57 -121 -57h-18c-113 0 -158 60 -158 169v320
c0 10 7 15 14 15h83c10 0 15 -5 15 -15v-310c0 -51 26 -79 74 -79h43c49 0 82 28 82 79v310c0 10 6 15 14 15h82z" />
    <glyph glyph-name="ubreve" unicode="&#x16d;" horiz-adv-x="543" 
d="M234 546c-91 0 -134 46 -134 139c0 10 5 15 15 15h62c10 0 14 -5 14 -15c3 -33 15 -61 58 -61h27c43 0 55 28 58 61c1 10 5 15 15 15h61c10 0 15 -5 15 -15c0 -93 -42 -139 -134 -139h-57zM467 500c10 0 15 -5 15 -15v-470c0 -10 -5 -15 -15 -15h-82c-8 0 -14 5 -14 15
v38h-14c-22 -36 -65 -57 -121 -57h-18c-113 0 -158 60 -158 169v320c0 10 7 15 14 15h83c10 0 15 -5 15 -15v-310c0 -51 26 -79 74 -79h43c49 0 82 28 82 79v310c0 10 6 15 14 15h82z" />
    <glyph glyph-name="uni01D4" unicode="&#x1d4;" horiz-adv-x="543" 
d="M219 549c-11 0 -19 4 -27 14l-103 118c-8 9 -2 19 8 19h78c13 0 20 -6 30 -19l53 -61h10l53 61c10 13 17 19 31 19h77c10 0 16 -10 8 -19l-103 -118c-8 -9 -17 -14 -28 -14h-87zM467 500c10 0 15 -5 15 -15v-470c0 -10 -5 -15 -15 -15h-82c-8 0 -14 5 -14 15v38h-14
c-22 -36 -65 -57 -121 -57h-18c-113 0 -158 60 -158 169v320c0 10 7 15 14 15h83c10 0 15 -5 15 -15v-310c0 -51 26 -79 74 -79h43c49 0 82 28 82 79v310c0 10 6 15 14 15h82z" />
    <glyph glyph-name="ucircumflex" unicode="&#xfb;" horiz-adv-x="543" 
d="M218 700h87c11 0 20 -5 28 -14l103 -118c8 -9 2 -19 -8 -19h-77c-14 0 -21 7 -31 19l-53 61h-10l-53 -61c-10 -12 -17 -19 -30 -19h-78c-10 0 -16 10 -8 19l103 118c8 10 16 14 27 14zM467 500c10 0 15 -5 15 -15v-470c0 -10 -5 -15 -15 -15h-82c-8 0 -14 5 -14 15v38
h-14c-22 -36 -65 -57 -121 -57h-18c-113 0 -158 60 -158 169v320c0 10 7 15 14 15h83c10 0 15 -5 15 -15v-310c0 -51 26 -79 74 -79h43c49 0 82 28 82 79v310c0 10 6 15 14 15h82z" />
    <glyph glyph-name="udieresis" unicode="&#xfc;" horiz-adv-x="543" 
d="M76 585c-10 0 -15 4 -15 14v86c0 10 5 15 15 15h86c10 0 14 -5 14 -15v-86c0 -10 -4 -14 -14 -14h-86zM363 585c-10 0 -14 4 -14 14v86c0 10 4 15 14 15h86c10 0 15 -5 15 -15v-86c0 -10 -5 -14 -15 -14h-86zM467 500c10 0 15 -5 15 -15v-470c0 -10 -5 -15 -15 -15h-82
c-8 0 -14 5 -14 15v38h-14c-22 -36 -65 -57 -121 -57h-18c-113 0 -158 60 -158 169v320c0 10 7 15 14 15h83c10 0 15 -5 15 -15v-310c0 -51 26 -79 74 -79h43c49 0 82 28 82 79v310c0 10 6 15 14 15h82z" />
    <glyph glyph-name="ugrave" unicode="&#xf9;" horiz-adv-x="543" 
d="M254 682l54 -115c6 -12 1 -18 -10 -18h-69c-10 0 -17 8 -24 18l-89 115c-9 11 -1 18 10 18h107c10 0 14 -6 21 -18zM467 500c10 0 15 -5 15 -15v-470c0 -10 -5 -15 -15 -15h-82c-8 0 -14 5 -14 15v38h-14c-22 -36 -65 -57 -121 -57h-18c-113 0 -158 60 -158 169v320
c0 10 7 15 14 15h83c10 0 15 -5 15 -15v-310c0 -51 26 -79 74 -79h43c49 0 82 28 82 79v310c0 10 6 15 14 15h82z" />
    <glyph glyph-name="uhungarumlaut" unicode="&#x171;" horiz-adv-x="543" 
d="M182 682c6 12 11 18 21 18h106c11 0 19 -7 10 -18l-89 -115c-7 -10 -14 -18 -24 -18h-69c-11 0 -16 6 -10 18zM363 682c6 12 11 18 21 18h107c11 0 19 -7 10 -18l-90 -115c-7 -10 -13 -18 -23 -18h-70c-11 0 -16 6 -10 18zM467 500c10 0 15 -5 15 -15v-470
c0 -10 -5 -15 -15 -15h-82c-8 0 -14 5 -14 15v38h-14c-22 -36 -65 -57 -121 -57h-18c-113 0 -158 60 -158 169v320c0 10 7 15 14 15h83c10 0 15 -5 15 -15v-310c0 -51 26 -79 74 -79h43c49 0 82 28 82 79v310c0 10 6 15 14 15h82z" />
    <glyph glyph-name="umacron" unicode="&#x16b;" horiz-adv-x="543" 
d="M101 599c-10 0 -15 5 -15 15v71c0 10 5 15 15 15h324c9 0 15 -5 15 -15v-71c0 -10 -6 -15 -15 -15h-324zM467 500c10 0 15 -5 15 -15v-470c0 -10 -5 -15 -15 -15h-82c-8 0 -14 5 -14 15v38h-14c-22 -36 -65 -57 -121 -57h-18c-113 0 -158 60 -158 169v320
c0 10 7 15 14 15h83c10 0 15 -5 15 -15v-310c0 -51 26 -79 74 -79h43c49 0 82 28 82 79v310c0 10 6 15 14 15h82z" />
    <glyph glyph-name="uogonek" unicode="&#x173;" horiz-adv-x="543" 
d="M467 500c10 0 15 -5 15 -15v-470c0 -10 -5 -15 -15 -15h-1v-33c0 -48 -21 -53 -66 -59l-76 -9c-12 -2 -15 -4 -15 -16c0 -11 4 -15 20 -15h113c6 0 10 -5 10 -12v-52c0 -6 -3 -10 -10 -10h-133c-78 0 -100 16 -100 87c0 65 17 76 74 82l38 4c24 2 34 4 34 26v27h16v33
h-14c-22 -36 -65 -57 -121 -57h-18c-113 0 -158 60 -158 169v320c0 10 7 15 14 15h83c10 0 15 -5 15 -15v-310c0 -51 26 -79 74 -79h43c49 0 82 28 82 79v310c0 10 6 15 14 15h82z" />
    <glyph glyph-name="uring" unicode="&#x16f;" horiz-adv-x="543" 
d="M269 716c49 0 84 -37 84 -84v-11c0 -47 -35 -83 -84 -83h-13c-49 0 -84 36 -84 83v11c0 47 35 84 84 84h13zM292 631c0 14 -10 24 -25 24h-9c-14 0 -24 -10 -24 -24v-7c0 -14 10 -25 24 -25h9c15 0 25 11 25 25v7zM467 500c10 0 15 -5 15 -15v-470c0 -10 -5 -15 -15 -15
h-82c-8 0 -14 5 -14 15v38h-14c-22 -36 -65 -57 -121 -57h-18c-113 0 -158 60 -158 169v320c0 10 7 15 14 15h83c10 0 15 -5 15 -15v-310c0 -51 26 -79 74 -79h43c49 0 82 28 82 79v310c0 10 6 15 14 15h82z" />
    <glyph glyph-name="utilde" unicode="&#x169;" horiz-adv-x="543" 
d="M331 566c-69 0 -86 42 -138 42c-23 0 -37 -5 -60 -19c-9 -6 -15 -2 -18 4l-24 58c-4 10 1 16 9 22c34 25 64 32 96 32c69 0 86 -42 138 -42c23 0 36 6 60 20c9 5 15 1 18 -5l24 -58c4 -10 -1 -15 -9 -21c-34 -25 -64 -33 -96 -33zM467 500c10 0 15 -5 15 -15v-470
c0 -10 -5 -15 -15 -15h-82c-8 0 -14 5 -14 15v38h-14c-22 -36 -65 -57 -121 -57h-18c-113 0 -158 60 -158 169v320c0 10 7 15 14 15h83c10 0 15 -5 15 -15v-310c0 -51 26 -79 74 -79h43c49 0 82 28 82 79v310c0 10 6 15 14 15h82z" />
    <glyph glyph-name="v" unicode="v" horiz-adv-x="528" 
d="M200 0c-12 0 -19 6 -23 20l-140 463c-3 11 1 17 11 17h83c10 0 15 -6 18 -17l111 -378h8l112 378c3 11 7 17 17 17h83c10 0 15 -6 12 -17l-140 -463c-4 -14 -12 -20 -24 -20h-128z" />
    <glyph glyph-name="w" unicode="w" horiz-adv-x="777" 
d="M166 0c-12 0 -20 6 -23 20l-107 463c-2 11 1 17 11 17h81c10 0 16 -6 18 -17l81 -378h6l93 378c3 11 8 17 18 17h89c10 0 15 -6 18 -17l93 -378h6l81 378c2 11 8 17 18 17h81c10 0 13 -6 11 -17l-107 -463c-3 -14 -11 -20 -23 -20h-122c-12 0 -20 6 -23 20l-75 310h-5
l-75 -310c-3 -14 -11 -20 -23 -20h-122z" />
    <glyph glyph-name="wacute" unicode="&#x1e83;" horiz-adv-x="777" 
d="M402 682c6 12 11 18 21 18h106c11 0 19 -7 10 -18l-89 -115c-7 -10 -14 -18 -24 -18h-69c-11 0 -16 6 -10 18zM166 0c-12 0 -20 6 -23 20l-107 463c-2 11 1 17 11 17h81c10 0 16 -6 18 -17l81 -378h6l93 378c3 11 8 17 18 17h89c10 0 15 -6 18 -17l93 -378h6l81 378
c2 11 8 17 18 17h81c10 0 13 -6 11 -17l-107 -463c-3 -14 -11 -20 -23 -20h-122c-12 0 -20 6 -23 20l-75 310h-5l-75 -310c-3 -14 -11 -20 -23 -20h-122z" />
    <glyph glyph-name="wcircumflex" unicode="&#x175;" horiz-adv-x="777" 
d="M344 700h87c11 0 20 -5 28 -14l103 -118c8 -9 2 -19 -8 -19h-77c-14 0 -21 7 -31 19l-53 61h-10l-53 -61c-10 -12 -17 -19 -30 -19h-78c-10 0 -16 10 -8 19l103 118c8 10 16 14 27 14zM166 0c-12 0 -20 6 -23 20l-107 463c-2 11 1 17 11 17h81c10 0 16 -6 18 -17l81 -378
h6l93 378c3 11 8 17 18 17h89c10 0 15 -6 18 -17l93 -378h6l81 378c2 11 8 17 18 17h81c10 0 13 -6 11 -17l-107 -463c-3 -14 -11 -20 -23 -20h-122c-12 0 -20 6 -23 20l-75 310h-5l-75 -310c-3 -14 -11 -20 -23 -20h-122z" />
    <glyph glyph-name="wdieresis" unicode="&#x1e85;" horiz-adv-x="777" 
d="M202 585c-10 0 -15 4 -15 14v86c0 10 5 15 15 15h86c10 0 14 -5 14 -15v-86c0 -10 -4 -14 -14 -14h-86zM489 585c-10 0 -14 4 -14 14v86c0 10 4 15 14 15h86c10 0 15 -5 15 -15v-86c0 -10 -5 -14 -15 -14h-86zM166 0c-12 0 -20 6 -23 20l-107 463c-2 11 1 17 11 17h81
c10 0 16 -6 18 -17l81 -378h6l93 378c3 11 8 17 18 17h89c10 0 15 -6 18 -17l93 -378h6l81 378c2 11 8 17 18 17h81c10 0 13 -6 11 -17l-107 -463c-3 -14 -11 -20 -23 -20h-122c-12 0 -20 6 -23 20l-75 310h-5l-75 -310c-3 -14 -11 -20 -23 -20h-122z" />
    <glyph glyph-name="wgrave" unicode="&#x1e81;" horiz-adv-x="777" 
d="M380 682l54 -115c6 -12 1 -18 -10 -18h-69c-10 0 -17 8 -24 18l-89 115c-9 11 -1 18 10 18h107c10 0 14 -6 21 -18zM166 0c-12 0 -20 6 -23 20l-107 463c-2 11 1 17 11 17h81c10 0 16 -6 18 -17l81 -378h6l93 378c3 11 8 17 18 17h89c10 0 15 -6 18 -17l93 -378h6l81 378
c2 11 8 17 18 17h81c10 0 13 -6 11 -17l-107 -463c-3 -14 -11 -20 -23 -20h-122c-12 0 -20 6 -23 20l-75 310h-5l-75 -310c-3 -14 -11 -20 -23 -20h-122z" />
    <glyph glyph-name="x" unicode="x" horiz-adv-x="479" 
d="M50 0c-13 0 -17 9 -11 19l133 231l-133 231c-6 10 -2 19 10 19h83c9 0 16 -3 24 -18l79 -141h8l80 141c8 15 14 18 23 18h84c12 0 16 -9 10 -19l-133 -231l132 -231c6 -10 2 -19 -11 -19h-84c-8 0 -15 3 -23 18l-78 141h-8l-79 -141c-7 -15 -14 -18 -22 -18h-84z" />
    <glyph glyph-name="y" unicode="y" horiz-adv-x="551" 
d="M503 500c10 0 16 -6 12 -17l-240 -643c-4 -11 -8 -17 -18 -17h-82c-10 0 -16 6 -12 17l57 152l-183 491c-4 11 1 17 11 17h83c10 0 14 -6 18 -17l123 -349h8l123 349c4 11 7 17 17 17h83z" />
    <glyph glyph-name="yacute" unicode="&#xfd;" horiz-adv-x="551" 
d="M290 682c6 12 11 18 21 18h106c11 0 19 -7 10 -18l-89 -115c-7 -10 -14 -18 -24 -18h-69c-11 0 -16 6 -10 18zM503 500c10 0 16 -6 12 -17l-240 -643c-4 -11 -8 -17 -18 -17h-82c-10 0 -16 6 -12 17l57 152l-183 491c-4 11 1 17 11 17h83c10 0 14 -6 18 -17l123 -349h8
l123 349c4 11 7 17 17 17h83z" />
    <glyph glyph-name="ycircumflex" unicode="&#x177;" horiz-adv-x="551" 
d="M231 700h87c11 0 20 -5 28 -14l103 -118c8 -9 2 -19 -8 -19h-77c-14 0 -21 7 -31 19l-53 61h-10l-53 -61c-10 -12 -17 -19 -30 -19h-78c-10 0 -16 10 -8 19l103 118c8 10 16 14 27 14zM503 500c10 0 16 -6 12 -17l-240 -643c-4 -11 -8 -17 -18 -17h-82
c-10 0 -16 6 -12 17l57 152l-183 491c-4 11 1 17 11 17h83c10 0 14 -6 18 -17l123 -349h8l123 349c4 11 7 17 17 17h83z" />
    <glyph glyph-name="ydieresis" unicode="&#xff;" horiz-adv-x="551" 
d="M90 585c-10 0 -15 4 -15 14v86c0 10 5 15 15 15h86c10 0 14 -5 14 -15v-86c0 -10 -4 -14 -14 -14h-86zM377 585c-10 0 -14 4 -14 14v86c0 10 4 15 14 15h86c10 0 15 -5 15 -15v-86c0 -10 -5 -14 -15 -14h-86zM503 500c10 0 16 -6 12 -17l-240 -643c-4 -11 -8 -17 -18 -17
h-82c-10 0 -16 6 -12 17l57 152l-183 491c-4 11 1 17 11 17h83c10 0 14 -6 18 -17l123 -349h8l123 349c4 11 7 17 17 17h83z" />
    <glyph glyph-name="ygrave" unicode="&#x1ef3;" horiz-adv-x="551" 
d="M268 682l54 -115c6 -12 1 -18 -10 -18h-69c-10 0 -17 8 -24 18l-89 115c-9 11 -1 18 10 18h107c10 0 14 -6 21 -18zM503 500c10 0 16 -6 12 -17l-240 -643c-4 -11 -8 -17 -18 -17h-82c-10 0 -16 6 -12 17l57 152l-183 491c-4 11 1 17 11 17h83c10 0 14 -6 18 -17
l123 -349h8l123 349c4 11 7 17 17 17h83z" />
    <glyph glyph-name="z" unicode="z" horiz-adv-x="430" 
d="M50 0c-10 0 -14 5 -14 15v74c0 6 1 12 5 17l224 288v7h-206c-10 0 -15 5 -15 15v68c0 11 5 16 15 16h314c11 0 16 -5 16 -15v-77c0 -4 -2 -11 -5 -15l-224 -287v-7h213c11 0 16 -5 16 -15v-69c0 -10 -5 -15 -15 -15h-324z" />
    <glyph glyph-name="zacute" unicode="&#x17a;" horiz-adv-x="430" 
d="M232 682c6 12 11 18 21 18h106c11 0 19 -7 10 -18l-89 -115c-7 -10 -14 -18 -24 -18h-69c-11 0 -16 6 -10 18zM50 0c-10 0 -14 5 -14 15v74c0 6 1 12 5 17l224 288v7h-206c-10 0 -15 5 -15 15v68c0 11 5 16 15 16h314c11 0 16 -5 16 -15v-77c0 -4 -2 -11 -5 -15
l-224 -287v-7h213c11 0 16 -5 16 -15v-69c0 -10 -5 -15 -15 -15h-324z" />
    <glyph glyph-name="zcaron" unicode="&#x17e;" horiz-adv-x="430" 
d="M174 549c-11 0 -19 4 -27 14l-103 118c-8 9 -2 19 8 19h78c13 0 20 -6 30 -19l53 -61h10l53 61c10 13 17 19 31 19h77c10 0 16 -10 8 -19l-103 -118c-8 -9 -17 -14 -28 -14h-87zM50 0c-10 0 -14 5 -14 15v74c0 6 1 12 5 17l224 288v7h-206c-10 0 -15 5 -15 15v68
c0 11 5 16 15 16h314c11 0 16 -5 16 -15v-77c0 -4 -2 -11 -5 -15l-224 -287v-7h213c11 0 16 -5 16 -15v-69c0 -10 -5 -15 -15 -15h-324z" />
    <glyph glyph-name="zdotaccent" unicode="&#x17c;" horiz-adv-x="430" 
d="M175 585c-10 0 -15 4 -15 14v86c0 10 5 15 15 15h86c10 0 14 -5 14 -15v-86c0 -10 -4 -14 -14 -14h-86zM50 0c-10 0 -14 5 -14 15v74c0 6 1 12 5 17l224 288v7h-206c-10 0 -15 5 -15 15v68c0 11 5 16 15 16h314c11 0 16 -5 16 -15v-77c0 -4 -2 -11 -5 -15l-224 -287v-7
h213c11 0 16 -5 16 -15v-69c0 -10 -5 -15 -15 -15h-324z" />
    <glyph glyph-name="ordfeminine" unicode="&#xaa;" horiz-adv-x="322" 
d="M182 705c56 0 90 -38 90 -99v-145c0 -9 -5 -12 -12 -12h-37c-7 0 -10 3 -10 12v16c-19 -16 -40 -28 -64 -28h-13c-51 0 -86 23 -86 78c0 52 27 79 86 79h77c0 30 -16 41 -42 41h-16c-21 0 -41 -4 -60 -12c-6 -2 -12 -3 -15 4l-12 27c-2 6 -1 13 4 16c24 14 54 23 90 23
h20zM159 506c24 0 41 6 54 14v29h-71c-20 0 -31 -6 -31 -21s11 -22 31 -22h17z" />
    <glyph glyph-name="ordmasculine" unicode="&#xba;" horiz-adv-x="340" 
d="M187 705c60 0 103 -45 103 -106v-43c0 -63 -43 -107 -103 -107h-34c-61 0 -103 44 -103 107v43c0 61 42 106 103 106h34zM230 596c0 28 -20 48 -44 48h-31c-27 0 -45 -20 -45 -48v-36c0 -28 18 -50 45 -50h31c24 0 44 22 44 50v36z" />
    <glyph glyph-name="uni0410" unicode="&#x410;" horiz-adv-x="617" 
d="M580 19c3 -11 -3 -19 -12 -19h-85c-10 0 -16 8 -19 19l-28 103h-255l-28 -103c-3 -11 -9 -19 -19 -19h-85c-10 0 -15 8 -12 19l181 665c3 10 10 16 19 16h143c9 0 16 -6 19 -16zM208 221h201l-94 350h-13z" />
    <glyph glyph-name="uni0411" unicode="&#x411;" horiz-adv-x="602" 
d="M346 513c144 0 206 -76 206 -204v-105c0 -128 -62 -204 -206 -204h-266c-10 0 -14 5 -14 15v670c0 10 4 15 14 15h325c10 0 15 -5 15 -15v-73c0 -10 -5 -15 -15 -15h-225v-84h166zM438 207v99c0 78 -35 105 -101 105h-157v-308h157c66 0 101 27 101 104z" />
    <glyph glyph-name="uni0412" unicode="&#x412;" horiz-adv-x="603" 
d="M453 366c65 -23 100 -71 100 -143v-38c0 -135 -68 -185 -206 -185h-267c-10 0 -14 5 -14 15v670c0 10 4 15 14 15h266c129 0 183 -54 183 -181c0 -74 -18 -116 -76 -145v-8zM415 514c0 68 -29 83 -85 83h-150v-191h150c54 0 85 18 85 85v23zM439 190v35
c0 69 -33 90 -99 90h-160v-212h160c66 0 99 19 99 87z" />
    <glyph glyph-name="uni0413" unicode="&#x413;" horiz-adv-x="494" 
d="M439 700c10 0 15 -5 15 -15v-73c0 -10 -5 -15 -15 -15h-259v-582c0 -10 -5 -15 -15 -15h-85c-10 0 -14 5 -14 15v670c0 10 4 15 14 15h359z" />
    <glyph glyph-name="uni0403" unicode="&#x403;" horiz-adv-x="494" 
d="M222 749c-11 0 -16 6 -10 18l55 115c6 12 11 18 21 18h106c11 0 19 -7 10 -18l-89 -115c-7 -10 -14 -18 -24 -18h-69zM439 700c10 0 15 -5 15 -15v-73c0 -10 -5 -15 -15 -15h-259v-582c0 -10 -5 -15 -15 -15h-85c-10 0 -14 5 -14 15v670c0 10 4 15 14 15h359z" />
    <glyph glyph-name="uni0490" unicode="&#x490;" horiz-adv-x="494" 
d="M439 770c10 0 15 -5 15 -15v-143c0 -10 -5 -15 -15 -15h-259v-582c0 -10 -5 -15 -15 -15h-85c-10 0 -14 5 -14 15v670c0 10 4 15 14 15h260v55c0 10 4 15 14 15h85z" />
    <glyph glyph-name="uni0414" unicode="&#x414;" horiz-adv-x="692" 
d="M657 103c10 0 15 -5 15 -15v-170c0 -10 -5 -15 -15 -15h-84c-10 0 -15 5 -15 15v82h-424v-82c0 -10 -5 -15 -15 -15h-84c-10 0 -15 5 -15 15v170c0 10 5 15 15 15h21c41 0 80 57 80 196v386c0 10 5 15 15 15h445c10 0 15 -5 15 -15v-582h46zM205 103h292v494h-247v-298
c0 -96 -14 -158 -45 -196z" />
    <glyph glyph-name="uni0415" unicode="&#x415;" horiz-adv-x="529" 
d="M80 0c-10 0 -14 5 -14 15v670c0 10 4 15 14 15h394c10 0 15 -5 15 -15v-73c0 -10 -5 -15 -15 -15h-294v-196h270c10 0 14 -5 14 -15v-70c0 -10 -4 -15 -14 -15h-270v-198h299c10 0 15 -5 15 -15v-73c0 -10 -5 -15 -15 -15h-399z" />
    <glyph glyph-name="uni0401" unicode="&#x401;" horiz-adv-x="529" 
d="M91 785c-10 0 -15 4 -15 14v86c0 10 5 15 15 15h86c10 0 14 -5 14 -15v-86c0 -10 -4 -14 -14 -14h-86zM378 785c-10 0 -14 4 -14 14v86c0 10 4 15 14 15h86c10 0 15 -5 15 -15v-86c0 -10 -5 -14 -15 -14h-86zM80 0c-10 0 -14 5 -14 15v670c0 10 4 15 14 15h394
c10 0 15 -5 15 -15v-73c0 -10 -5 -15 -15 -15h-294v-196h270c10 0 14 -5 14 -15v-70c0 -10 -4 -15 -14 -15h-270v-198h299c10 0 15 -5 15 -15v-73c0 -10 -5 -15 -15 -15h-399z" />
    <glyph glyph-name="uni0416" unicode="&#x416;" horiz-adv-x="974" 
d="M935 23c5 -8 6 -23 -7 -23h-96c-9 0 -19 2 -27 14l-196 282l-65 -80v-201c0 -10 -5 -15 -15 -15h-84c-10 0 -15 5 -15 15v201l-64 79l-197 -281c-8 -12 -18 -14 -27 -14h-96c-13 0 -12 15 -7 23l253 363l-236 289c-11 13 -6 25 6 25h96c12 0 18 -6 26 -16l246 -307v308
c0 10 5 15 15 15h84c10 0 15 -5 15 -15v-308l246 307c8 10 14 16 26 16h96c12 0 17 -12 6 -25l-236 -289z" />
    <glyph glyph-name="uni0417" unicode="&#x417;" horiz-adv-x="580" 
d="M411 356c72 -17 122 -45 122 -167c0 -112 -57 -194 -201 -194h-71c-141 0 -210 59 -210 185v19c0 10 4 15 14 15h82c10 0 15 -5 15 -15c0 -78 35 -104 101 -104h63c63 0 96 33 96 94c0 83 -29 122 -123 122h-51c-10 0 -15 5 -15 16v67c0 11 5 16 15 16h51
c94 0 110 41 110 104c0 60 -32 91 -95 91h-43c-66 0 -101 -26 -101 -104c0 -10 -5 -15 -15 -15h-82c-10 0 -14 5 -14 15v19c0 126 69 185 210 185h51c144 0 200 -80 200 -191c0 -99 -37 -130 -109 -149v-9z" />
    <glyph glyph-name="uni0418" unicode="&#x418;" horiz-adv-x="645" 
d="M565 0h-85c-10 0 -14 5 -14 15v539h-9l-212 -543c-3 -8 -10 -11 -18 -11h-147c-10 0 -14 5 -14 15v670c0 10 4 15 14 15h85c10 0 15 -5 15 -15v-539h8l212 543c3 8 10 11 18 11h147c10 0 15 -5 15 -15v-670c0 -10 -5 -15 -15 -15z" />
    <glyph glyph-name="uni0419" unicode="&#x419;" horiz-adv-x="645" 
d="M286 746c-91 0 -134 46 -134 139c0 10 5 15 15 15h62c10 0 14 -5 14 -15c3 -33 15 -61 58 -61h27c43 0 55 28 58 61c1 10 5 15 15 15h61c10 0 15 -5 15 -15c0 -93 -42 -139 -134 -139h-57zM565 0h-85c-10 0 -14 5 -14 15v539h-9l-212 -543c-3 -8 -10 -11 -18 -11h-147
c-10 0 -14 5 -14 15v670c0 10 4 15 14 15h85c10 0 15 -5 15 -15v-539h8l212 543c3 8 10 11 18 11h147c10 0 15 -5 15 -15v-670c0 -10 -5 -15 -15 -15z" />
    <glyph glyph-name="uni040D" unicode="&#x40d;" horiz-adv-x="645" 
d="M306 882l54 -115c6 -12 1 -18 -10 -18h-69c-10 0 -17 8 -24 18l-89 115c-9 11 -1 18 10 18h107c10 0 14 -6 21 -18zM565 0h-85c-10 0 -14 5 -14 15v539h-9l-212 -543c-3 -8 -10 -11 -18 -11h-147c-10 0 -14 5 -14 15v670c0 10 4 15 14 15h85c10 0 15 -5 15 -15v-539h8
l212 543c3 8 10 11 18 11h147c10 0 15 -5 15 -15v-670c0 -10 -5 -15 -15 -15z" />
    <glyph glyph-name="uni041A" unicode="&#x41a;" horiz-adv-x="610" 
d="M570 23c5 -8 7 -23 -6 -23h-96c-10 0 -19 2 -27 14l-197 281l-64 -79v-201c0 -10 -5 -15 -15 -15h-85c-10 0 -14 5 -14 15v670c0 10 4 15 14 15h85c10 0 15 -5 15 -15v-308l245 307c8 10 15 16 27 16h96c12 0 16 -12 5 -25l-236 -290z" />
    <glyph glyph-name="uni040C" unicode="&#x40c;" horiz-adv-x="610" 
d="M268 749c-11 0 -16 6 -10 18l55 115c6 12 11 18 21 18h106c11 0 19 -7 10 -18l-89 -115c-7 -10 -14 -18 -24 -18h-69zM570 23c5 -8 7 -23 -6 -23h-96c-10 0 -19 2 -27 14l-197 281l-64 -79v-201c0 -10 -5 -15 -15 -15h-85c-10 0 -14 5 -14 15v670c0 10 4 15 14 15h85
c10 0 15 -5 15 -15v-308l245 307c8 10 15 16 27 16h96c12 0 16 -12 5 -25l-236 -290z" />
    <glyph glyph-name="uni041B" unicode="&#x41b;" horiz-adv-x="667" 
d="M587 700c10 0 15 -5 15 -15v-670c0 -10 -5 -15 -15 -15h-84c-10 0 -15 5 -15 15v582h-258v-448c0 -109 -63 -153 -147 -153h-37c-11 0 -16 6 -16 16v87c0 11 8 15 17 15c35 0 69 12 69 76v495c0 10 5 15 15 15h456z" />
    <glyph glyph-name="uni041C" unicode="&#x41c;" horiz-adv-x="772" 
d="M80 0c-10 0 -14 5 -14 15v670c0 10 4 15 14 15h157c10 0 17 -5 20 -15l126 -549h7l126 549c2 10 10 15 20 15h156c10 0 15 -5 15 -15v-670c0 -10 -5 -15 -15 -15h-84c-10 0 -15 5 -15 15v539h-9l-123 -539c-2 -10 -10 -15 -19 -15h-112c-9 0 -17 5 -19 15l-123 539h-8
v-539c0 -10 -5 -15 -15 -15h-85z" />
    <glyph glyph-name="uni041D" unicode="&#x41d;" horiz-adv-x="628" 
d="M548 700c10 0 15 -5 15 -15v-670c0 -10 -5 -15 -15 -15h-86c-10 0 -14 5 -14 15v286h-268v-286c0 -10 -4 -15 -14 -15h-86c-10 0 -14 5 -14 15v670c0 10 4 15 14 15h86c10 0 14 -5 14 -15v-284h268v284c0 10 4 15 14 15h86z" />
    <glyph glyph-name="uni041E" unicode="&#x41e;" 
d="M272 -5c-145 0 -206 77 -206 205v300c0 128 61 205 206 205h99c145 0 207 -77 207 -205v-300c0 -128 -62 -205 -207 -205h-99zM280 98h83c65 0 101 27 101 104v296c0 76 -36 104 -101 104h-83c-65 0 -100 -28 -100 -104v-296c0 -77 35 -104 100 -104z" />
    <glyph glyph-name="uni041F" unicode="&#x41f;" horiz-adv-x="617" 
d="M80 0c-10 0 -14 5 -14 15v670c0 10 5 15 15 15h456c10 0 15 -5 15 -15v-670c0 -10 -5 -15 -15 -15h-85c-10 0 -14 5 -14 15v582h-258v-582c0 -10 -5 -15 -15 -15h-85z" />
    <glyph glyph-name="uni0420" unicode="&#x420;" horiz-adv-x="607" 
d="M346 700c144 0 206 -76 206 -204v-105c0 -128 -62 -204 -206 -204h-166v-172c0 -10 -5 -15 -15 -15h-85c-10 0 -14 5 -14 15v670c0 10 4 15 14 15h266zM438 394v99c0 77 -35 104 -101 104h-157v-307h157c66 0 101 26 101 104z" />
    <glyph glyph-name="uni0421" unicode="&#x421;" horiz-adv-x="628" 
d="M272 -5c-145 0 -206 77 -206 205v300c0 128 61 205 206 205h94c147 0 206 -74 206 -204v-5c0 -8 -6 -14 -14 -14h-85c-9 0 -15 5 -15 14c0 82 -39 106 -101 106h-77c-65 0 -100 -28 -100 -104v-296c0 -77 35 -104 100 -104h77c62 0 101 24 101 101c0 10 6 15 15 15h85
c8 0 14 -6 14 -15v-5c0 -126 -59 -199 -206 -199h-94z" />
    <glyph glyph-name="uni0422" unicode="&#x422;" horiz-adv-x="543" 
d="M483 700c10 0 15 -5 15 -15v-73c0 -10 -5 -15 -15 -15h-154v-582c0 -10 -5 -15 -15 -15h-84c-10 0 -15 5 -15 15v582h-155c-10 0 -14 5 -14 15v73c0 10 4 15 14 15h423z" />
    <glyph glyph-name="uni0423" unicode="&#x423;" horiz-adv-x="597" 
d="M548 700c11 0 17 -6 11 -18l-311 -667c-5 -11 -9 -15 -20 -15h-88c-11 0 -17 6 -11 18l109 234l-200 430c-6 12 -1 18 10 18h88c11 0 16 -4 21 -15l140 -306l143 306c5 11 10 15 21 15h87z" />
    <glyph glyph-name="uni040E" unicode="&#x40e;" horiz-adv-x="597" 
d="M278 746c-91 0 -134 46 -134 139c0 10 5 15 15 15h62c10 0 14 -5 14 -15c3 -33 15 -61 58 -61h27c43 0 55 28 58 61c1 10 5 15 15 15h61c10 0 15 -5 15 -15c0 -93 -42 -139 -134 -139h-57zM548 700c11 0 17 -6 11 -18l-311 -667c-5 -11 -9 -15 -20 -15h-88
c-11 0 -17 6 -11 18l109 234l-200 430c-6 12 -1 18 10 18h88c11 0 16 -4 21 -15l140 -306l143 306c5 11 10 15 21 15h87z" />
    <glyph glyph-name="uni0424" unicode="&#x424;" horiz-adv-x="721" 
d="M449 605c145 0 207 -77 207 -205v-100c0 -128 -62 -205 -207 -205h-31v-80c0 -10 -5 -15 -15 -15h-84c-10 0 -15 5 -15 15v80h-32c-145 0 -206 77 -206 205v100c0 128 61 205 206 205h32v80c0 10 5 15 15 15h84c10 0 15 -5 15 -15v-80h31zM280 198h24v304h-24
c-65 0 -100 -28 -100 -104v-96c0 -77 35 -104 100 -104zM542 302v96c0 76 -36 104 -101 104h-23v-304h23c65 0 101 27 101 104z" />
    <glyph glyph-name="uni0425" unicode="&#x425;" horiz-adv-x="587" 
d="M59 0c-11 0 -16 6 -10 18l184 332l-183 332c-6 12 0 18 11 18h89c10 0 14 -4 20 -14l120 -226h8l120 226c5 10 10 14 20 14h90c11 0 15 -6 9 -18l-183 -332l184 -332c6 -12 2 -18 -9 -18h-89c-10 0 -15 4 -20 14l-122 226h-8l-122 -226c-6 -10 -9 -14 -20 -14h-89z" />
    <glyph glyph-name="uni0427" unicode="&#x427;" horiz-adv-x="606" 
d="M441 0c-10 0 -14 5 -14 15v226c-25 -39 -86 -50 -137 -50h-58c-127 0 -182 59 -182 173v321c0 10 5 15 15 15h84c10 0 15 -5 15 -15v-318c0 -50 22 -76 72 -76h117c51 0 74 27 74 76v318c0 10 4 15 14 15h85c10 0 15 -5 15 -15v-670c0 -10 -5 -15 -15 -15h-85z" />
    <glyph glyph-name="uni0426" unicode="&#x426;" horiz-adv-x="631" 
d="M596 103c10 0 15 -5 15 -15v-170c0 -10 -4 -15 -14 -15h-85c-10 0 -15 5 -15 15v82h-416c-10 0 -15 5 -15 15v670c0 10 4 15 14 15h85c10 0 15 -5 15 -15v-582h258v582c0 10 4 15 14 15h85c10 0 15 -5 15 -15v-582h44z" />
    <glyph glyph-name="uni0428" unicode="&#x428;" horiz-adv-x="915" 
d="M81 0c-10 0 -15 5 -15 15v670c0 10 4 15 14 15h85c10 0 15 -5 15 -15v-582h221v582c0 10 4 15 14 15h85c10 0 15 -5 15 -15v-582h221v582c0 10 4 15 14 15h85c10 0 15 -5 15 -15v-670c0 -10 -5 -15 -15 -15h-754z" />
    <glyph glyph-name="uni0429" unicode="&#x429;" horiz-adv-x="929" 
d="M894 103c10 0 15 -5 15 -15v-170c0 -10 -4 -15 -14 -15h-85c-10 0 -15 5 -15 15v82h-714c-10 0 -15 5 -15 15v670c0 10 4 15 14 15h85c10 0 15 -5 15 -15v-582h221v582c0 10 4 15 14 15h85c10 0 15 -5 15 -15v-582h221v582c0 10 4 15 14 15h85c10 0 15 -5 15 -15v-582h44
z" />
    <glyph glyph-name="uni042C" unicode="&#x42c;" horiz-adv-x="607" 
d="M346 513c144 0 206 -76 206 -204v-105c0 -128 -62 -204 -206 -204h-266c-10 0 -14 5 -14 15v670c0 10 4 15 14 15h85c10 0 15 -5 15 -15v-172h166zM438 207v99c0 78 -35 105 -101 105h-157v-308h157c66 0 101 27 101 104z" />
    <glyph glyph-name="uni042A" unicode="&#x42a;" horiz-adv-x="699" 
d="M427 513c145 0 206 -76 206 -204v-105c0 -128 -61 -204 -206 -204h-265c-10 0 -15 5 -15 15v582h-87c-10 0 -14 5 -14 15v73c0 10 4 15 14 15h187c10 0 14 -5 14 -15v-172h166zM519 207v99c0 78 -35 105 -100 105h-158v-308h158c65 0 100 27 100 104z" />
    <glyph glyph-name="uni042B" unicode="&#x42b;" horiz-adv-x="852" 
d="M346 513c144 0 206 -76 206 -204v-105c0 -128 -62 -204 -206 -204h-266c-10 0 -14 5 -14 15v670c0 10 4 15 14 15h85c10 0 15 -5 15 -15v-172h166zM772 700c10 0 15 -5 15 -15v-670c0 -10 -5 -15 -15 -15h-85c-10 0 -14 5 -14 15v670c0 10 4 15 14 15h85zM438 207v99
c0 78 -35 105 -101 105h-157v-308h157c66 0 101 27 101 104z" />
    <glyph glyph-name="uni0404" unicode="&#x404;" horiz-adv-x="628" 
d="M280 602c-65 0 -100 -28 -100 -104v-97h132c10 0 15 -4 15 -14v-74c0 -10 -5 -14 -15 -14h-132v-97c0 -77 35 -104 100 -104h77c62 0 101 24 101 101c0 10 6 15 15 15h85c8 0 14 -6 14 -15v-5c0 -126 -59 -199 -206 -199h-94c-145 0 -206 77 -206 205v300
c0 128 61 205 206 205h94c147 0 206 -74 206 -204v-5c0 -8 -6 -14 -14 -14h-85c-9 0 -15 5 -15 14c0 82 -39 106 -101 106h-77z" />
    <glyph glyph-name="uni042D" unicode="&#x42d;" horiz-adv-x="628" 
d="M356 705c145 0 207 -77 207 -205v-300c0 -128 -62 -205 -207 -205h-94c-147 0 -206 73 -206 199v5c0 9 6 15 15 15h85c8 0 14 -5 14 -15c0 -77 39 -101 101 -101h77c65 0 101 27 101 104v97h-133c-10 0 -14 4 -14 14v74c0 10 4 14 14 14h133v97c0 76 -36 104 -101 104
h-77c-62 0 -101 -24 -101 -106c0 -9 -6 -14 -14 -14h-85c-9 0 -15 6 -15 14v5c0 130 59 204 206 204h94z" />
    <glyph glyph-name="uni0406" unicode="&#x406;" horiz-adv-x="245" 
d="M80 0c-10 0 -14 5 -14 15v670c0 10 4 15 14 15h85c10 0 15 -5 15 -15v-670c0 -10 -5 -15 -15 -15h-85z" />
    <glyph glyph-name="uni0407" unicode="&#x407;" horiz-adv-x="245" 
d="M-64 785c-10 0 -15 4 -15 14v86c0 10 5 15 15 15h86c10 0 14 -5 14 -15v-86c0 -10 -4 -14 -14 -14h-86zM223 785c-10 0 -14 4 -14 14v86c0 10 4 15 14 15h86c10 0 15 -5 15 -15v-86c0 -10 -5 -14 -15 -14h-86zM80 0c-10 0 -14 5 -14 15v670c0 10 4 15 14 15h85
c10 0 15 -5 15 -15v-670c0 -10 -5 -15 -15 -15h-85z" />
    <glyph glyph-name="uni0408" unicode="&#x408;" horiz-adv-x="378" 
d="M55 -5c-10 0 -14 5 -14 15v73c0 10 4 15 14 15h43c65 0 101 27 101 104v483c0 10 4 15 14 15h85c10 0 15 -5 15 -15v-485c0 -128 -62 -205 -207 -205h-51z" />
    <glyph glyph-name="uni042E" unicode="&#x42e;" horiz-adv-x="898" 
d="M626 705c145 0 207 -77 207 -205v-300c0 -128 -62 -205 -207 -205h-99c-145 0 -206 77 -206 205v101h-141v-286c0 -10 -5 -15 -15 -15h-85c-10 0 -14 5 -14 15v670c0 10 4 15 14 15h85c10 0 15 -5 15 -15v-284h141v99c0 128 61 205 206 205h99zM719 202v296
c0 76 -36 104 -101 104h-83c-65 0 -100 -28 -100 -104v-296c0 -77 35 -104 100 -104h83c65 0 101 27 101 104z" />
    <glyph glyph-name="uni042F" unicode="&#x42f;" horiz-adv-x="607" 
d="M527 700c10 0 15 -5 15 -15v-670c0 -10 -5 -15 -15 -15h-85c-10 0 -14 5 -14 15v172h-167h-12l-75 -172c-4 -10 -12 -15 -23 -15h-77c-15 0 -21 9 -16 23l83 190c-59 32 -85 94 -85 178v105c0 128 61 204 205 204h266zM270 290h158v307h-158c-66 0 -100 -27 -100 -104
v-99c0 -78 34 -104 100 -104z" />
    <glyph glyph-name="uni04C0" unicode="&#x4c0;" horiz-adv-x="245" 
d="M80 0c-10 0 -14 5 -14 15v670c0 10 4 15 14 15h85c10 0 15 -5 15 -15v-670c0 -10 -5 -15 -15 -15h-85z" />
    <glyph glyph-name="uni04E2" unicode="&#x4e2;" horiz-adv-x="645" 
d="M153 799c-10 0 -15 5 -15 15v71c0 10 5 15 15 15h324c9 0 15 -5 15 -15v-71c0 -10 -6 -15 -15 -15h-324zM565 0h-85c-10 0 -14 5 -14 15v539h-9l-212 -543c-3 -8 -10 -11 -18 -11h-147c-10 0 -14 5 -14 15v670c0 10 4 15 14 15h85c10 0 15 -5 15 -15v-539h8l212 543
c3 8 10 11 18 11h147c10 0 15 -5 15 -15v-670c0 -10 -5 -15 -15 -15z" />
    <glyph glyph-name="uni04E8" unicode="&#x4e8;" 
d="M371 705c145 0 207 -77 207 -205v-300c0 -128 -62 -205 -207 -205h-99c-145 0 -206 77 -206 205v300c0 128 61 205 206 205h99zM280 602c-65 0 -100 -28 -100 -104v-98h284v98c0 76 -36 104 -101 104h-83zM363 98c65 0 101 27 101 104v99h-284v-99
c0 -77 35 -104 100 -104h83z" />
    <glyph glyph-name="uni04EC" unicode="&#x4ec;" horiz-adv-x="628" 
d="M124 785c-10 0 -15 4 -15 14v86c0 10 5 15 15 15h86c10 0 14 -5 14 -15v-86c0 -10 -4 -14 -14 -14h-86zM411 785c-10 0 -14 4 -14 14v86c0 10 4 15 14 15h86c10 0 15 -5 15 -15v-86c0 -10 -5 -14 -15 -14h-86zM356 705c145 0 207 -77 207 -205v-300
c0 -128 -62 -205 -207 -205h-94c-147 0 -206 73 -206 199v5c0 9 6 15 15 15h85c8 0 14 -5 14 -15c0 -77 39 -101 101 -101h77c65 0 101 27 101 104v97h-133c-10 0 -14 4 -14 14v74c0 10 4 14 14 14h133v97c0 76 -36 104 -101 104h-77c-62 0 -101 -24 -101 -106
c0 -9 -6 -14 -14 -14h-85c-9 0 -15 6 -15 14v5c0 130 59 204 206 204h94z" />
    <glyph glyph-name="uni04EE" unicode="&#x4ee;" horiz-adv-x="597" 
d="M145 799c-10 0 -15 5 -15 15v71c0 10 5 15 15 15h324c9 0 15 -5 15 -15v-71c0 -10 -6 -15 -15 -15h-324zM548 700c11 0 17 -6 11 -18l-311 -667c-5 -11 -9 -15 -20 -15h-88c-11 0 -17 6 -11 18l109 234l-200 430c-6 12 -1 18 10 18h88c11 0 16 -4 21 -15l140 -306
l143 306c5 11 10 15 21 15h87z" />
    <glyph glyph-name="uni0430" unicode="&#x430;" horiz-adv-x="525" 
d="M285 504c127 0 179 -63 179 -168v-321c0 -10 -5 -15 -14 -15h-82c-10 0 -15 5 -15 15v51h-11c-32 -39 -74 -71 -142 -71h-7c-101 0 -147 55 -147 147v30c0 90 51 127 155 127h152v31c0 50 -24 76 -112 76c-41 0 -89 -5 -117 -14c-10 -2 -15 1 -17 11l-12 60
c-2 8 2 14 10 17c32 12 88 24 155 24h25zM259 91c60 0 94 43 94 83v45h-137c-38 0 -61 -10 -61 -53v-19c0 -41 23 -56 62 -56h42z" />
    <glyph glyph-name="uni0431" unicode="&#x431;" horiz-adv-x="532" 
d="M297 -5c-58 0 -92 21 -115 52h-10v-32c0 -10 -5 -15 -15 -15h-82c-10 0 -14 5 -14 15v517c0 103 31 148 120 148c34 0 68 -6 101 -6c30 0 53 4 64 20c4 6 10 6 17 6h83c12 0 14 -7 14 -18c0 -67 -26 -109 -114 -109c-29 0 -67 5 -120 5c-42 0 -54 -23 -54 -57v-69h10
c23 31 57 52 115 52h18c112 0 167 -60 167 -169v-171c0 -109 -55 -169 -167 -169h-18zM247 95h48c47 0 76 28 76 78v153c0 51 -29 78 -76 78h-48c-46 0 -75 -28 -75 -78v-153c0 -50 29 -78 75 -78z" />
    <glyph glyph-name="uni0432" unicode="&#x432;" horiz-adv-x="497" 
d="M371 258v-8c61 -21 76 -63 76 -113c0 -100 -56 -137 -156 -137h-215c-10 0 -15 5 -15 15v470c0 10 5 15 15 15h213c94 0 146 -36 146 -140c0 -34 -5 -79 -64 -102zM172 402v-103h109c27 0 44 15 44 52c0 38 -19 51 -45 51h-108zM282 98c31 0 55 12 55 56
c0 45 -23 59 -54 59h-111v-115h110z" />
    <glyph glyph-name="uni0433" unicode="&#x433;" horiz-adv-x="436" 
d="M380 500c11 0 16 -5 16 -16v-67c0 -11 -5 -16 -16 -16h-208v-386c0 -10 -5 -15 -15 -15h-82c-10 0 -14 5 -14 15v470c0 10 4 15 14 15h305z" />
    <glyph glyph-name="uni0453" unicode="&#x453;" horiz-adv-x="436" 
d="M197 549c-11 0 -16 6 -10 18l55 115c6 12 11 18 21 18h106c11 0 19 -7 10 -18l-89 -115c-7 -10 -14 -18 -24 -18h-69zM380 500c11 0 16 -5 16 -16v-67c0 -11 -5 -16 -16 -16h-208v-386c0 -10 -5 -15 -15 -15h-82c-10 0 -14 5 -14 15v470c0 10 4 15 14 15h305z" />
    <glyph glyph-name="uni0491" unicode="&#x491;" horiz-adv-x="436" 
d="M381 554c10 0 15 -5 15 -15v-122c0 -11 -5 -16 -16 -16h-208v-386c0 -10 -5 -15 -15 -15h-82c-10 0 -14 5 -14 15v470c0 10 4 15 14 15h209v39c0 10 5 15 15 15h82z" />
    <glyph glyph-name="uni0434" unicode="&#x434;" horiz-adv-x="640" 
d="M600 99c10 0 15 -5 15 -15v-146c0 -10 -5 -15 -15 -15h-82c-10 0 -15 5 -15 15v62h-367v-62c0 -10 -5 -15 -15 -15h-81c-10 0 -15 5 -15 15v146c0 10 5 15 15 15h14c42 0 92 24 92 178v208c0 10 5 15 15 15h369c10 0 15 -5 15 -15v-386h55zM214 99h219v302h-176v-144
c0 -70 -17 -121 -43 -158z" />
    <glyph glyph-name="uni0435" unicode="&#x435;" horiz-adv-x="514" 
d="M270 -5h-14c-149 0 -205 70 -205 174v161c0 108 56 174 181 174h50c125 0 182 -66 182 -173v-96c0 -19 -11 -30 -31 -30h-271v-35c0 -47 30 -80 97 -80h11c68 0 100 12 128 26c8 4 15 2 20 -5l25 -39c5 -7 5 -13 1 -17c-34 -34 -100 -60 -174 -60zM162 287h190v43
c0 49 -28 74 -74 74h-42c-46 0 -74 -25 -74 -75v-42z" />
    <glyph glyph-name="uni0451" unicode="&#x451;" horiz-adv-x="514" 
d="M73 585c-10 0 -15 4 -15 14v86c0 10 5 15 15 15h86c10 0 14 -5 14 -15v-86c0 -10 -4 -14 -14 -14h-86zM360 585c-10 0 -14 4 -14 14v86c0 10 4 15 14 15h86c10 0 15 -5 15 -15v-86c0 -10 -5 -14 -15 -14h-86zM270 -5h-14c-149 0 -205 70 -205 174v161
c0 108 56 174 181 174h50c125 0 182 -66 182 -173v-96c0 -19 -11 -30 -31 -30h-271v-35c0 -47 30 -80 97 -80h11c68 0 100 12 128 26c8 4 15 2 20 -5l25 -39c5 -7 5 -13 1 -17c-34 -34 -100 -60 -174 -60zM162 287h190v43c0 49 -28 74 -74 74h-42c-46 0 -74 -25 -74 -75v-42
z" />
    <glyph glyph-name="uni0436" unicode="&#x436;" horiz-adv-x="789" 
d="M759 23c8 -9 6 -23 -7 -23h-103c-10 0 -16 3 -26 14l-175 183v-182c0 -10 -5 -15 -15 -15h-82c-10 0 -15 5 -15 15v182l-175 -183c-10 -11 -16 -14 -26 -14h-103c-13 0 -15 14 -7 23l226 226l-216 227c-13 12 -8 24 5 24h101c11 0 17 -6 24 -12l171 -186v183
c0 10 5 15 15 15h82c10 0 15 -5 15 -15v-183l171 186c7 6 13 12 24 12h101c13 0 18 -12 5 -24l-216 -227z" />
    <glyph glyph-name="uni0437" unicode="&#x437;" horiz-adv-x="483" 
d="M192 -6c-92 0 -147 41 -147 140c0 9 3 12 11 12h92c7 0 11 -3 11 -12c0 -25 17 -40 56 -40h45c35 0 59 10 59 52c0 35 -9 60 -46 60h-72c-7 0 -10 2 -10 10v66c0 8 3 11 10 11h72c37 0 47 16 47 57c0 42 -26 52 -60 52h-45c-41 0 -56 -20 -56 -47c0 -8 -4 -12 -11 -12
h-92c-8 0 -11 4 -11 12c0 100 55 147 147 147h89c93 0 153 -56 153 -140c0 -49 -6 -89 -64 -107v-10c58 -19 68 -65 68 -114c0 -87 -64 -137 -157 -137h-89z" />
    <glyph glyph-name="uni0438" unicode="&#x438;" horiz-adv-x="574" 
d="M75 0c-10 0 -14 5 -14 15v470c0 10 4 15 14 15h82c10 0 15 -5 15 -15v-360h8l170 364c4 8 10 11 18 11h131c10 0 15 -5 15 -15v-470c0 -10 -5 -15 -15 -15h-82c-10 0 -15 5 -15 15v360h-8l-170 -364c-4 -8 -10 -11 -18 -11h-131z" />
    <glyph glyph-name="uni0439" unicode="&#x439;" horiz-adv-x="574" 
d="M268 546c-91 0 -134 46 -134 139c0 10 5 15 15 15h62c10 0 14 -5 14 -15c3 -33 15 -61 58 -61h27c43 0 55 28 58 61c1 10 5 15 15 15h61c10 0 15 -5 15 -15c0 -93 -42 -139 -134 -139h-57zM75 0c-10 0 -14 5 -14 15v470c0 10 4 15 14 15h82c10 0 15 -5 15 -15v-360h8
l170 364c4 8 10 11 18 11h131c10 0 15 -5 15 -15v-470c0 -10 -5 -15 -15 -15h-82c-10 0 -15 5 -15 15v360h-8l-170 -364c-4 -8 -10 -11 -18 -11h-131z" />
    <glyph glyph-name="uni045D" unicode="&#x45d;" horiz-adv-x="574" 
d="M289 682l54 -115c6 -12 1 -18 -10 -18h-69c-10 0 -17 8 -24 18l-89 115c-9 11 -1 18 10 18h107c10 0 14 -6 21 -18zM75 0c-10 0 -14 5 -14 15v470c0 10 4 15 14 15h82c10 0 15 -5 15 -15v-360h8l170 364c4 8 10 11 18 11h131c10 0 15 -5 15 -15v-470
c0 -10 -5 -15 -15 -15h-82c-10 0 -15 5 -15 15v360h-8l-170 -364c-4 -8 -10 -11 -18 -11h-131z" />
    <glyph glyph-name="uni043A" unicode="&#x43a;" horiz-adv-x="514" 
d="M483 23c8 -9 6 -23 -7 -23h-102c-11 0 -17 3 -27 14l-175 183v-182c0 -10 -5 -15 -15 -15h-82c-10 0 -14 5 -14 15v470c0 10 4 15 14 15h82c10 0 15 -5 15 -15v-183l171 186c7 6 13 12 24 12h101c13 0 18 -12 5 -24l-216 -227z" />
    <glyph glyph-name="uni045C" unicode="&#x45c;" horiz-adv-x="514" 
d="M233 549c-11 0 -16 6 -10 18l55 115c6 12 11 18 21 18h106c11 0 19 -7 10 -18l-89 -115c-7 -10 -14 -18 -24 -18h-69zM483 23c8 -9 6 -23 -7 -23h-102c-11 0 -17 3 -27 14l-175 183v-182c0 -10 -5 -15 -15 -15h-82c-10 0 -14 5 -14 15v470c0 10 4 15 14 15h82
c10 0 15 -5 15 -15v-183l171 186c7 6 13 12 24 12h101c13 0 18 -12 5 -24l-216 -227z" />
    <glyph glyph-name="uni043B" unicode="&#x43b;" horiz-adv-x="575" 
d="M59 -10c-45 0 -59 10 -59 31v44c0 15 7 23 25 23c41 0 59 15 59 61v336c0 10 5 15 15 15h401c10 0 15 -5 15 -15v-470c0 -10 -5 -15 -15 -15h-81c-10 0 -15 5 -15 15v386h-209v-251c0 -96 -18 -160 -136 -160z" />
    <glyph glyph-name="uni043C" unicode="&#x43c;" horiz-adv-x="656" 
d="M581 500c10 0 15 -5 15 -15v-470c0 -10 -5 -15 -15 -15h-82c-10 0 -14 5 -14 15v311l-113 -272c-3 -8 -7 -11 -17 -11h-53c-10 0 -14 3 -17 11l-113 272v-311c0 -10 -5 -15 -15 -15h-82c-10 0 -14 5 -14 15v470c0 10 4 15 14 15h107c8 0 14 -3 18 -11l128 -291l128 291
c4 8 10 11 18 11h107z" />
    <glyph glyph-name="uni043D" unicode="&#x43d;" horiz-adv-x="552" 
d="M477 500c10 0 15 -5 15 -15v-470c0 -10 -5 -15 -15 -15h-82c-10 0 -15 5 -15 15v186h-208v-186c0 -10 -5 -15 -15 -15h-82c-10 0 -14 5 -14 15v470c0 10 4 15 14 15h82c10 0 15 -5 15 -15v-185h208v185c0 10 5 15 15 15h82z" />
    <glyph glyph-name="uni043E" unicode="&#x43e;" horiz-adv-x="522" 
d="M232 -5c-125 0 -181 66 -181 173v163c0 107 56 173 181 173h59c124 0 181 -66 181 -173v-163c0 -107 -57 -173 -181 -173h-59zM236 95h50c47 0 75 25 75 75v159c0 50 -28 75 -75 75h-50c-46 0 -74 -25 -74 -75v-159c0 -50 28 -75 74 -75z" />
    <glyph glyph-name="uni043F" unicode="&#x43f;" horiz-adv-x="552" 
d="M73 0c-9 0 -12 5 -12 15v470c0 10 4 15 14 15h402c10 0 15 -5 15 -15v-470c0 -10 -5 -15 -15 -15h-82c-10 0 -15 5 -15 15v386h-208v-386c0 -10 -5 -15 -15 -15h-84z" />
    <glyph glyph-name="uni0440" unicode="&#x440;" horiz-adv-x="532" 
d="M315 504c112 0 167 -60 167 -169v-171c0 -109 -55 -169 -167 -169h-18c-58 0 -92 21 -115 52h-10v-209c0 -10 -5 -15 -15 -15h-82c-10 0 -14 5 -14 15v647c0 10 4 15 14 15h82c10 0 15 -5 15 -15v-33h10c23 31 57 52 115 52h18zM371 173v153c0 51 -29 78 -76 78h-48
c-46 0 -75 -28 -75 -78v-153c0 -50 29 -78 75 -78h48c47 0 76 28 76 78z" />
    <glyph glyph-name="uni0441" unicode="&#x441;" horiz-adv-x="507" 
d="M255 -5c-147 0 -204 68 -204 174v161c0 108 56 174 181 174h53c115 0 176 -63 176 -163v-6c0 -10 -5 -15 -14 -15h-78c-9 0 -14 5 -14 15v6c0 41 -29 63 -75 63h-44c-46 0 -74 -25 -74 -75v-150c0 -56 29 -87 95 -87h8c60 0 84 10 103 41c5 8 11 12 23 6l54 -25
c11 -5 14 -12 10 -21c-33 -74 -103 -98 -192 -98h-8z" />
    <glyph glyph-name="uni0442" unicode="&#x442;" horiz-adv-x="459" 
d="M405 500c10 0 14 -5 14 -15v-74c0 -10 -4 -14 -14 -14h-120v-382c0 -10 -4 -15 -14 -15h-82c-10 0 -15 5 -15 15v382h-119c-10 0 -15 4 -15 14v74c0 10 5 15 15 15h350z" />
    <glyph glyph-name="uni0443" unicode="&#x443;" horiz-adv-x="551" 
d="M503 500c10 0 16 -6 12 -17l-240 -643c-4 -11 -8 -17 -18 -17h-82c-10 0 -16 6 -12 17l57 152l-183 491c-4 11 1 17 11 17h83c10 0 14 -6 18 -17l123 -349h8l123 349c4 11 7 17 17 17h83z" />
    <glyph glyph-name="uni045E" unicode="&#x45e;" horiz-adv-x="551" 
d="M247 546c-91 0 -134 46 -134 139c0 10 5 15 15 15h62c10 0 14 -5 14 -15c3 -33 15 -61 58 -61h27c43 0 55 28 58 61c1 10 5 15 15 15h61c10 0 15 -5 15 -15c0 -93 -42 -139 -134 -139h-57zM503 500c10 0 16 -6 12 -17l-240 -643c-4 -11 -8 -17 -18 -17h-82
c-10 0 -16 6 -12 17l57 152l-183 491c-4 11 1 17 11 17h83c10 0 14 -6 18 -17l123 -349h8l123 349c4 11 7 17 17 17h83z" />
    <glyph glyph-name="uni0444" unicode="&#x444;" horiz-adv-x="834" 
d="M616 504c112 0 167 -60 167 -169v-171c0 -109 -55 -169 -167 -169h-18c-57 0 -91 21 -114 52h-11v-209c0 -10 -5 -15 -15 -15h-82c-9 0 -14 5 -14 15v170c-1 2 -1 4 -1 7v32h-11c-23 -31 -57 -52 -114 -52h-18c-113 0 -167 60 -167 169v171c0 109 54 169 167 169h18
c57 0 91 -21 114 -52h11v233c0 10 5 15 15 15h81c10 0 15 -5 15 -15v-193c1 -2 1 -4 1 -7v-33h11c23 31 57 52 114 52h18zM285 95c47 0 76 28 76 78v153c0 50 -29 78 -76 78h-47c-47 0 -76 -27 -76 -78v-153c0 -50 29 -78 76 -78h47zM672 173v153c0 51 -29 78 -76 78h-47
c-47 0 -76 -28 -76 -78v-153c0 -50 29 -78 76 -78h47c47 0 76 28 76 78z" />
    <glyph glyph-name="uni0445" unicode="&#x445;" horiz-adv-x="479" 
d="M50 0c-13 0 -17 9 -11 19l133 231l-133 231c-6 10 -2 19 10 19h83c9 0 16 -3 24 -18l79 -141h8l80 141c8 15 14 18 23 18h84c12 0 16 -9 10 -19l-133 -231l132 -231c6 -10 2 -19 -11 -19h-84c-8 0 -15 3 -23 18l-78 141h-8l-79 -141c-7 -15 -14 -18 -22 -18h-84z" />
    <glyph glyph-name="uni0447" unicode="&#x447;" horiz-adv-x="548" 
d="M391 0c-10 0 -15 5 -15 15v145c-17 -27 -50 -51 -100 -51h-66c-105 0 -149 63 -149 165v211c0 10 4 15 14 15h82c10 0 15 -5 15 -15v-192c0 -52 19 -82 68 -82h59c51 0 77 30 77 82v192c0 10 5 15 15 15h81c10 0 15 -5 15 -15v-470c0 -10 -5 -15 -15 -15h-81z" />
    <glyph glyph-name="uni0446" unicode="&#x446;" horiz-adv-x="587" 
d="M547 99c10 0 15 -5 15 -15v-146c0 -10 -5 -15 -15 -15h-82c-10 0 -15 5 -15 15v62h-375c-10 0 -14 5 -14 15v470c0 10 3 15 12 15h84c10 0 15 -5 15 -15v-386h208v386c0 10 5 15 15 15h82c10 0 15 -5 15 -15v-386h55z" />
    <glyph glyph-name="uni0448" unicode="&#x448;" horiz-adv-x="762" 
d="M75 0c-10 0 -14 5 -14 15v470c0 10 3 15 12 15h84c10 0 15 -5 15 -15v-386h153v386c0 10 3 15 13 15h84c10 0 14 -5 14 -15v-386h154v386c0 10 5 15 15 15h81c10 0 15 -5 15 -15v-470c0 -10 -5 -15 -15 -15h-611z" />
    <glyph glyph-name="uni0449" unicode="&#x449;" horiz-adv-x="791" 
d="M751 99c10 0 15 -5 15 -15v-146c0 -10 -5 -15 -15 -15h-82c-10 0 -15 5 -15 15v62h-579c-10 0 -14 5 -14 15v470c0 10 3 15 12 15h84c10 0 15 -5 15 -15v-386h153v386c0 10 3 15 13 15h84c10 0 14 -5 14 -15v-386h154v386c0 10 5 15 15 15h81c10 0 15 -5 15 -15v-386h50z
" />
    <glyph glyph-name="uni044C" unicode="&#x44c;" horiz-adv-x="529" 
d="M310 346c119 0 168 -45 168 -173s-49 -173 -168 -173h-235c-10 0 -14 5 -14 15v470c0 10 4 15 14 15h82c10 0 15 -5 15 -15v-139h138zM290 99c47 0 77 12 77 74s-30 74 -77 74h-118v-148h118z" />
    <glyph glyph-name="uni044A" unicode="&#x44a;" horiz-adv-x="559" 
d="M340 346c119 0 168 -45 168 -173s-49 -173 -168 -173h-235c-10 0 -14 5 -14 15v386h-50c-11 0 -16 5 -16 16v67c0 11 5 16 16 16h146c10 0 15 -5 15 -15v-139h138zM320 99c47 0 77 12 77 74s-30 74 -77 74h-118v-148h118z" />
    <glyph glyph-name="uni044B" unicode="&#x44b;" horiz-adv-x="695" 
d="M310 346c119 0 168 -45 168 -173s-49 -173 -168 -173h-235c-10 0 -14 5 -14 15v470c0 10 4 15 14 15h82c10 0 15 -5 15 -15v-139h138zM620 500c10 0 15 -5 15 -15v-470c0 -10 -5 -15 -15 -15h-82c-10 0 -15 5 -15 15v470c0 10 5 15 15 15h82zM290 99c47 0 77 12 77 74
s-30 74 -77 74h-118v-148h118z" />
    <glyph glyph-name="uni0454" unicode="&#x454;" horiz-adv-x="507" 
d="M285 504c115 0 176 -63 176 -163v-6c0 -10 -5 -15 -14 -15h-78c-9 0 -14 5 -14 15v6c0 41 -29 63 -75 63h-44c-46 0 -74 -25 -74 -75v-34h91c11 0 16 -5 16 -16v-68c0 -10 -5 -15 -16 -15h-91v-17c0 -56 29 -87 95 -87h8c60 0 84 10 103 41c5 8 11 12 23 6l54 -25
c11 -5 14 -12 10 -21c-33 -74 -103 -98 -192 -98h-8c-147 0 -204 68 -204 174v161c0 108 56 174 181 174h53z" />
    <glyph glyph-name="uni044D" unicode="&#x44d;" horiz-adv-x="507" 
d="M275 504c125 0 182 -66 182 -174v-161c0 -106 -58 -174 -204 -174h-9c-89 0 -159 24 -192 98c-4 9 -1 16 10 21l54 25c12 6 18 2 23 -6c19 -31 43 -41 103 -41h8c66 0 95 31 95 87v17h-91c-11 0 -16 5 -16 15v68c0 11 5 16 16 16h91v34c0 50 -28 75 -74 75h-44
c-46 0 -75 -22 -75 -63v-6c0 -10 -4 -15 -14 -15h-77c-10 0 -15 5 -15 15v6c0 100 61 163 176 163h53z" />
    <glyph glyph-name="uni0456" unicode="&#x456;" horiz-adv-x="232" 
d="M75 593c-10 0 -14 5 -14 15v77c0 10 4 15 14 15h82c10 0 15 -5 15 -15v-77c0 -10 -5 -15 -15 -15h-82zM75 0c-10 0 -14 5 -14 15v470c0 10 4 15 14 15h82c10 0 15 -5 15 -15v-470c0 -10 -5 -15 -15 -15h-82z" />
    <glyph glyph-name="uni0457" unicode="&#x457;" horiz-adv-x="221" 
d="M-77 585c-10 0 -15 4 -15 14v86c0 10 5 15 15 15h86c10 0 14 -5 14 -15v-86c0 -10 -4 -14 -14 -14h-86zM210 585c-10 0 -14 4 -14 14v86c0 10 4 15 14 15h86c10 0 15 -5 15 -15v-86c0 -10 -5 -14 -15 -14h-86zM70 0c-10 0 -15 5 -15 15v470c0 10 5 15 15 15h81
c10 0 15 -5 15 -15v-470c0 -10 -5 -15 -15 -15h-81z" />
    <glyph glyph-name="uni0458" unicode="&#x458;" horiz-adv-x="241" 
d="M84 593c-10 0 -15 5 -15 15v77c0 10 5 15 15 15h82c10 0 15 -5 15 -15v-77c0 -10 -5 -15 -15 -15h-82zM44 -187c-45 0 -59 10 -59 32v43c0 16 7 23 26 23c40 0 58 16 58 61v513c0 10 5 15 15 15h82c10 0 15 -5 15 -15v-512c0 -95 -19 -160 -137 -160z" />
    <glyph glyph-name="uni044E" unicode="&#x44e;" horiz-adv-x="749" 
d="M517 504c124 0 181 -66 181 -173v-163c0 -107 -57 -173 -181 -173h-59c-125 0 -181 66 -181 173v26h-105v-179c0 -10 -5 -15 -15 -15h-82c-10 0 -14 5 -14 15v470c0 10 4 15 14 15h82c10 0 15 -5 15 -15v-192h105v38c0 107 56 173 181 173h59zM587 170v159
c0 50 -28 75 -75 75h-50c-46 0 -74 -25 -74 -75v-159c0 -50 28 -75 74 -75h50c47 0 75 25 75 75z" />
    <glyph glyph-name="uni044F" unicode="&#x44f;" horiz-adv-x="524" 
d="M449 500c10 0 15 -5 15 -15v-470c0 -10 -5 -15 -15 -15h-82c-10 0 -15 5 -15 15v156h-131c-53 0 -59 -32 -59 -79v-77c0 -10 -5 -15 -15 -15h-82c-10 0 -14 5 -14 15v88c0 59 17 101 74 123v6c-58 26 -70 68 -70 122c0 87 46 146 148 146h246zM220 269h132v128h-132
c-40 0 -57 -19 -57 -62s17 -66 57 -66z" />
    <glyph glyph-name="uni04E3" unicode="&#x4e3;" horiz-adv-x="574" 
d="M135 599c-10 0 -15 5 -15 15v71c0 10 5 15 15 15h324c9 0 15 -5 15 -15v-71c0 -10 -6 -15 -15 -15h-324zM75 0c-10 0 -14 5 -14 15v470c0 10 4 15 14 15h82c10 0 15 -5 15 -15v-360h8l170 364c4 8 10 11 18 11h131c10 0 15 -5 15 -15v-470c0 -10 -5 -15 -15 -15h-82
c-10 0 -15 5 -15 15v360h-8l-170 -364c-4 -8 -10 -11 -18 -11h-131z" />
    <glyph glyph-name="uni04E9" unicode="&#x4e9;" horiz-adv-x="522" 
d="M291 504c124 0 181 -66 181 -173v-163c0 -107 -57 -173 -181 -173h-59c-125 0 -181 66 -181 173v163c0 107 56 173 181 173h59zM236 404c-46 0 -74 -25 -74 -75v-30h199v30c0 50 -28 75 -75 75h-50zM286 95c47 0 75 25 75 75v30h-199v-30c0 -50 28 -75 74 -75h50z" />
    <glyph glyph-name="uni04ED" unicode="&#x4ed;" horiz-adv-x="507" 
d="M63 585c-10 0 -15 4 -15 14v86c0 10 5 15 15 15h86c10 0 14 -5 14 -15v-86c0 -10 -4 -14 -14 -14h-86zM350 585c-10 0 -14 4 -14 14v86c0 10 4 15 14 15h86c10 0 15 -5 15 -15v-86c0 -10 -5 -14 -15 -14h-86zM275 504c125 0 182 -66 182 -174v-161
c0 -106 -58 -174 -204 -174h-9c-89 0 -159 24 -192 98c-4 9 -1 16 10 21l54 25c12 6 18 2 23 -6c19 -31 43 -41 103 -41h8c66 0 95 31 95 87v17h-91c-11 0 -16 5 -16 15v68c0 11 5 16 16 16h91v34c0 50 -28 75 -74 75h-44c-46 0 -75 -22 -75 -63v-6c0 -10 -4 -15 -14 -15
h-77c-10 0 -15 5 -15 15v6c0 100 61 163 176 163h53z" />
    <glyph glyph-name="uni04EF" unicode="&#x4ef;" horiz-adv-x="551" 
d="M122 599c-10 0 -15 5 -15 15v71c0 10 5 15 15 15h324c9 0 15 -5 15 -15v-71c0 -10 -6 -15 -15 -15h-324zM503 500c10 0 16 -6 12 -17l-240 -643c-4 -11 -8 -17 -18 -17h-82c-10 0 -16 6 -12 17l57 152l-183 491c-4 11 1 17 11 17h83c10 0 14 -6 18 -17l123 -349h8
l123 349c4 11 7 17 17 17h83z" />
    <glyph glyph-name="uni0394" unicode="&#x394;" horiz-adv-x="600" 
d="M575 16c3 -11 -2 -16 -12 -16h-504c-10 0 -15 5 -11 16l211 697c3 10 10 16 19 16h68c9 0 16 -6 19 -16zM185 114h252l-124 448z" />
    <glyph glyph-name="uni03A9" unicode="&#x3a9;" horiz-adv-x="601" 
d="M536 263c0 -83 -30 -120 -79 -149h64c10 0 15 -5 15 -15v-84c0 -10 -5 -15 -15 -15h-179c-10 0 -15 5 -15 15v96c0 10 5 15 15 15h3c56 0 77 88 77 156v246c0 75 -35 96 -93 96h-57c-58 0 -92 -21 -92 -96v-246c0 -68 21 -156 77 -156h3c10 0 15 -5 15 -15v-96
c0 -10 -5 -15 -15 -15h-179c-10 0 -15 5 -15 15v84c0 10 5 15 15 15h63c-48 29 -78 66 -78 149v269c0 132 87 206 202 206h65c115 0 203 -74 203 -206v-269z" />
    <glyph glyph-name="uni03BC" unicode="&#x3bc;" horiz-adv-x="542" 
d="M467 500c10 0 15 -5 15 -15v-470c0 -10 -5 -15 -15 -15h-82c-8 0 -14 5 -14 15v38h-14c-22 -36 -65 -57 -121 -57h-18c-17 0 -32 1 -46 4v-185c0 -10 -5 -15 -15 -15h-81c-10 0 -15 5 -15 15v323c-1 9 -1 18 -1 27v320c0 10 7 15 14 15h83c10 0 15 -5 15 -15v-310
c0 -51 26 -79 74 -79h43c49 0 82 28 82 79v310c0 10 6 15 14 15h82z" />
    <glyph glyph-name="pi" unicode="&#x3c0;" horiz-adv-x="602" 
d="M547 500c10 0 15 -6 15 -15v-85c0 -9 -5 -14 -15 -14h-53v-371c0 -10 -5 -15 -15 -15h-84c-10 0 -15 5 -15 15v371h-159v-371c0 -10 -5 -15 -15 -15h-84c-10 0 -15 5 -15 15v371h-52c-11 0 -15 5 -15 15v84c0 10 4 15 14 15h493z" />
    <glyph glyph-name="zero" unicode="0" horiz-adv-x="618" 
d="M272 -5c-145 0 -206 77 -206 205v300c0 128 61 205 206 205h74c145 0 207 -77 207 -205v-300c0 -128 -62 -205 -207 -205h-74zM277 95h64c65 0 101 27 101 105v301c0 76 -36 104 -101 104h-64c-65 0 -100 -28 -100 -104v-301c0 -78 35 -105 100 -105z" />
    <glyph glyph-name="one" unicode="1" horiz-adv-x="318" 
d="M238 700c10 0 15 -5 15 -15v-670c0 -10 -5 -15 -15 -15h-82c-10 0 -15 5 -15 15v586h-90c-11 0 -16 5 -16 16v67c0 11 5 16 16 16h187z" />
    <glyph glyph-name="two" unicode="2" horiz-adv-x="589" 
d="M65 0c-10 0 -15 5 -15 15v86c0 115 24 175 145 226l143 59c81 35 90 63 90 128c0 60 -29 91 -92 91h-65c-66 0 -101 -26 -101 -104c0 -10 -5 -15 -15 -15h-81c-10 0 -15 5 -15 15v19c0 126 69 185 211 185h72c144 0 197 -80 197 -191c0 -136 -29 -171 -155 -222l-124 -51
c-71 -29 -96 -56 -96 -108v-34h354c10 0 15 -5 15 -16v-67c0 -11 -5 -16 -15 -16h-453z" />
    <glyph glyph-name="three" unicode="3" horiz-adv-x="583" 
d="M411 356c72 -17 122 -45 122 -167c0 -112 -57 -194 -201 -194h-71c-141 0 -210 59 -210 185v19c0 10 4 15 14 15h82c10 0 15 -5 15 -15c0 -78 35 -104 101 -104h63c63 0 96 33 96 94c0 83 -29 122 -123 122h-51c-10 0 -15 5 -15 16v67c0 11 5 16 15 16h51
c94 0 110 41 110 104c0 60 -32 91 -95 91h-43c-66 0 -101 -26 -101 -104c0 -10 -5 -15 -15 -15h-82c-10 0 -14 5 -14 15v19c0 126 69 185 210 185h51c144 0 200 -80 200 -191c0 -99 -37 -130 -109 -149v-9z" />
    <glyph glyph-name="four" unicode="4" horiz-adv-x="555" 
d="M494 262c11 0 16 -5 16 -16v-68c0 -10 -5 -15 -16 -15h-51v-148c0 -10 -5 -15 -15 -15h-81c-10 0 -15 5 -15 15v148h-253c-8 0 -12 4 -17 13l-28 61c-5 11 -6 15 0 26l227 423c6 11 13 14 21 14h89c12 0 15 -9 9 -19l-225 -419h177v122c0 10 5 15 15 15h81
c10 0 15 -5 15 -15v-122h51z" />
    <glyph glyph-name="five" unicode="5" horiz-adv-x="585" 
d="M261 -5c-142 0 -211 59 -211 185v19c0 10 5 15 15 15h81c10 0 15 -5 15 -15c0 -78 36 -104 101 -104h64c63 0 97 27 97 105v54c0 78 -36 105 -101 105h-58c-58 0 -82 -28 -95 -53h-96c-11 0 -16 6 -15 18l34 361c1 10 5 15 15 15h370c11 0 16 -5 16 -16v-67
c0 -11 -5 -16 -16 -16h-288l-20 -192h7c18 26 67 49 126 49h43c152 0 189 -97 189 -203v-55c0 -128 -58 -205 -202 -205h-71z" />
    <glyph glyph-name="six" unicode="6" horiz-adv-x="604" 
d="M271 -5c-144 0 -205 77 -205 205v314c0 111 54 191 198 191h63c143 0 210 -46 210 -152v-14c0 -10 -5 -15 -15 -15h-82c-9 0 -14 5 -14 15c0 57 -34 66 -101 66h-56c-63 0 -92 -31 -92 -92v-112h7c18 26 68 50 122 50h58c152 0 189 -98 189 -204v-47
c0 -128 -61 -205 -206 -205h-76zM278 95h63c65 0 101 27 101 105v46c0 78 -36 105 -101 105h-63c-66 0 -101 -27 -101 -105v-46c0 -78 35 -105 101 -105z" />
    <glyph glyph-name="seven" unicode="7" horiz-adv-x="541" 
d="M90 0c-12 0 -16 12 -14 21c47 209 153 395 313 572v8h-328c-11 0 -16 5 -16 16v67c0 11 5 16 16 16h431c9 0 14 -5 14 -15v-84c0 -13 -6 -23 -20 -39c-148 -166 -250 -332 -297 -545c-2 -9 -11 -17 -21 -17h-78z" />
    <glyph glyph-name="eight" unicode="8" horiz-adv-x="619" 
d="M466 384c60 -25 87 -77 87 -160v-31c0 -121 -61 -198 -206 -198h-76c-144 0 -205 77 -205 198v31c0 83 27 135 87 160c-43 23 -63 66 -63 137c0 120 58 184 188 184h63c130 0 188 -64 188 -184c0 -71 -20 -114 -63 -137zM286 610c-72 0 -91 -34 -91 -89
c0 -54 19 -88 91 -88h47c71 0 90 34 90 88c0 55 -19 89 -90 89h-47zM442 193v31c0 75 -36 102 -101 102h-63c-66 0 -101 -27 -101 -102v-31c0 -71 35 -98 101 -98h63c65 0 101 27 101 98z" />
    <glyph glyph-name="nine" unicode="9" horiz-adv-x="604" 
d="M332 705c145 0 206 -77 206 -205v-314c0 -111 -54 -191 -199 -191h-63c-143 0 -209 46 -209 152v14c0 10 5 15 14 15h82c10 0 15 -5 15 -15c0 -57 34 -66 100 -66h57c63 0 92 31 92 92v112h-8c-17 -26 -67 -49 -121 -49h-58c-152 0 -189 97 -189 203v47
c0 128 61 205 205 205h76zM326 605h-63c-66 0 -101 -27 -101 -105v-46c0 -78 35 -105 101 -105h63c65 0 101 27 101 105v46c0 78 -36 105 -101 105z" />
    <glyph glyph-name="zero.tf" horiz-adv-x="800" 
d="M363 -5c-145 0 -207 77 -207 205v300c0 128 62 205 207 205h74c145 0 207 -77 207 -205v-300c0 -128 -62 -205 -207 -205h-74zM368 95h64c65 0 101 27 101 105v301c0 76 -36 104 -101 104h-64c-65 0 -100 -28 -100 -104v-301c0 -78 35 -105 100 -105z" />
    <glyph glyph-name="one.tf" horiz-adv-x="800" 
d="M462 700c10 0 15 -5 15 -15v-670c0 -10 -5 -15 -15 -15h-81c-10 0 -15 5 -15 15v586h-91c-11 0 -15 5 -15 16v67c0 11 4 16 15 16h187z" />
    <glyph glyph-name="two.tf" horiz-adv-x="800" 
d="M175 0c-10 0 -15 5 -15 15v86c0 115 24 175 145 226l143 59c81 35 90 63 90 128c0 60 -29 91 -92 91h-65c-66 0 -101 -26 -101 -104c0 -10 -5 -15 -15 -15h-81c-10 0 -15 5 -15 15v19c0 126 69 185 211 185h72c144 0 197 -80 197 -191c0 -136 -29 -171 -155 -222
l-124 -51c-71 -29 -96 -56 -96 -108v-34h354c10 0 15 -5 15 -16v-67c0 -11 -5 -16 -15 -16h-453z" />
    <glyph glyph-name="three.tf" horiz-adv-x="800" 
d="M520 356c72 -17 122 -45 122 -167c0 -112 -57 -194 -201 -194h-71c-141 0 -211 59 -211 185v19c0 10 5 15 15 15h82c10 0 15 -5 15 -15c0 -78 35 -104 100 -104h64c63 0 95 33 95 94c0 83 -28 122 -122 122h-51c-11 0 -15 5 -15 16v67c0 11 4 16 15 16h51
c94 0 110 41 110 104c0 60 -32 91 -95 91h-44c-65 0 -100 -26 -100 -104c0 -10 -5 -15 -15 -15h-82c-10 0 -15 5 -15 15v19c0 126 70 185 211 185h51c144 0 200 -80 200 -191c0 -99 -37 -130 -109 -149v-9z" />
    <glyph glyph-name="four.tf" horiz-adv-x="800" 
d="M624 262c11 0 16 -5 16 -16v-68c0 -10 -5 -15 -16 -15h-51v-148c0 -10 -5 -15 -14 -15h-82c-10 0 -15 5 -15 15v148h-253c-8 0 -12 4 -17 13l-28 61c-5 11 -6 15 0 26l227 423c6 11 13 14 21 14h89c12 0 15 -9 9 -19l-225 -419h177v122c0 10 5 15 15 15h82
c9 0 14 -5 14 -15v-122h51z" />
    <glyph glyph-name="five.tf" horiz-adv-x="800" 
d="M373 -5c-141 0 -211 59 -211 185v19c0 10 5 15 15 15h82c10 0 15 -5 15 -15c0 -78 35 -104 100 -104h65c62 0 97 27 97 105v54c0 78 -36 105 -101 105h-59c-58 0 -81 -28 -95 -53h-95c-11 0 -16 6 -15 18l33 361c1 10 5 15 15 15h370c11 0 16 -5 16 -16v-67
c0 -11 -5 -16 -16 -16h-288l-19 -192h7c17 26 66 49 126 49h42c153 0 190 -97 190 -203v-55c0 -128 -58 -205 -203 -205h-71z" />
    <glyph glyph-name="six.tf" horiz-adv-x="800" 
d="M362 -5c-144 0 -206 77 -206 205v314c0 111 55 191 199 191h63c143 0 210 -46 210 -152v-14c0 -10 -5 -15 -15 -15h-82c-10 0 -14 5 -14 15c0 57 -34 66 -101 66h-56c-63 0 -93 -31 -93 -92l1 -112h7c18 26 68 50 121 50h58c153 0 190 -98 190 -204v-47
c0 -128 -61 -205 -206 -205h-76zM368 95h64c65 0 101 27 101 105v46c0 78 -36 105 -101 105h-64c-65 0 -101 -27 -101 -105v-46c0 -78 36 -105 101 -105z" />
    <glyph glyph-name="seven.tf" horiz-adv-x="800" 
d="M215 0c-12 0 -16 12 -14 21c47 209 152 395 313 572v8h-328c-11 0 -16 5 -16 16v67c0 11 5 16 16 16h430c10 0 15 -5 15 -15v-84c0 -13 -6 -23 -20 -39c-148 -166 -250 -332 -297 -545c-2 -9 -11 -17 -21 -17h-78z" />
    <glyph glyph-name="eight.tf" horiz-adv-x="800" 
d="M557 384c60 -25 87 -77 87 -160v-31c0 -121 -61 -198 -206 -198h-76c-144 0 -206 77 -206 198v31c0 83 27 135 88 160c-44 23 -64 66 -64 137c0 120 59 184 189 184h62c131 0 189 -64 189 -184c0 -71 -20 -114 -63 -137zM376 610c-71 0 -90 -34 -90 -89
c0 -54 19 -88 90 -88h48c71 0 90 34 90 88c0 55 -19 89 -90 89h-48zM533 193v31c0 75 -36 102 -101 102h-64c-65 0 -101 -27 -101 -102v-31c0 -71 36 -98 101 -98h64c65 0 101 27 101 98z" />
    <glyph glyph-name="nine.tf" horiz-adv-x="800" 
d="M438 705c145 0 206 -77 206 -205v-314c0 -111 -54 -191 -199 -191h-63c-143 0 -209 46 -209 152v14c0 10 4 15 14 15h82c10 0 15 -5 15 -15c0 -57 33 -66 100 -66h56c63 0 93 31 93 92v112h-8c-17 -26 -68 -49 -121 -49h-58c-153 0 -190 97 -190 203v47
c0 128 62 205 206 205h76zM432 605h-64c-65 0 -101 -27 -101 -105v-46c0 -78 36 -105 101 -105h64c65 0 101 27 101 105v46c0 78 -36 105 -101 105z" />
    <glyph glyph-name="zero.dnom" horiz-adv-x="325" 
d="M177 310c60 0 88 -33 88 -84v-142c0 -51 -28 -84 -88 -84h-31c-54 0 -86 33 -86 84v142c0 51 32 84 86 84h31zM204 218c0 24 -14 35 -44 35c-27 0 -40 -11 -40 -35v-126c0 -24 13 -35 40 -35c30 0 44 11 44 35v126z" />
    <glyph glyph-name="one.dnom" horiz-adv-x="302" 
d="M120 294c0 10 5 15 15 15h32c10 0 15 -5 15 -15v-279c0 -10 -5 -15 -15 -15h-32c-10 0 -15 5 -15 15v279z" />
    <glyph glyph-name="two.dnom" horiz-adv-x="320" 
d="M245 59c10 0 15 -5 15 -15v-29c0 -10 -5 -15 -15 -15h-168c-10 0 -15 5 -15 15v33c0 14 4 19 14 28l87 82c17 16 35 33 35 56c0 25 -16 39 -41 39c-22 0 -37 -11 -37 -32v-7c0 -10 -5 -15 -15 -15h-30c-10 0 -15 5 -15 15v13c0 48 33 83 88 83h25c59 0 86 -43 86 -90
c0 -51 -31 -82 -66 -112l-56 -49h108z" />
    <glyph glyph-name="three.dnom" horiz-adv-x="323" 
d="M217 155c32 -15 48 -38 48 -69c0 -43 -27 -86 -90 -86h-25c-57 0 -90 35 -90 83v13c0 10 5 15 15 15h30c10 0 15 -5 15 -15v-7c0 -21 15 -32 41 -32c27 0 41 14 41 38c0 22 -10 34 -39 34h-16c-9 0 -14 5 -14 15v22c0 10 5 15 14 15h16c27 0 37 12 37 34
c0 24 -14 38 -39 38c-24 0 -39 -11 -39 -32v-7c0 -10 -5 -15 -15 -15h-30c-10 0 -15 5 -15 15v13c0 48 33 83 88 83h25c57 0 84 -43 84 -86c0 -31 -12 -54 -42 -69z" />
    <glyph glyph-name="four.dnom" horiz-adv-x="336" 
d="M261 108c10 0 15 -5 15 -15v-27c0 -10 -5 -15 -15 -15h-14v-36c0 -10 -5 -15 -15 -15h-30c-10 0 -15 5 -15 15v36h-110c-11 0 -17 5 -17 15v25c0 8 3 14 5 18l100 190c4 8 11 11 17 11h50c10 0 15 -5 15 -15v-187h14zM187 110v117l-58 -117h58z" />
    <glyph glyph-name="five.dnom" horiz-adv-x="325" 
d="M171 203c63 0 94 -39 94 -102c0 -58 -27 -101 -90 -101h-25c-57 0 -90 35 -90 83v13c0 10 5 15 15 15h30c10 0 15 -5 15 -15v-7c0 -21 15 -32 41 -32c27 0 41 14 41 44c0 32 -9 52 -43 52c-14 0 -29 -4 -38 -13h-42c-10 0 -15 5 -15 15v140c0 10 5 15 15 15h160
c10 0 15 -5 15 -15v-28c0 -10 -5 -15 -15 -15h-117v-67c13 14 33 18 49 18z" />
    <glyph glyph-name="six.dnom" horiz-adv-x="321" 
d="M244 247c-3 -11 -10 -13 -20 -7c-16 10 -35 16 -55 16c-29 0 -52 -10 -52 -46v-30c12 17 35 23 51 23c68 0 93 -35 93 -100c0 -61 -37 -103 -92 -103h-14c-79 0 -95 62 -95 139v45c0 83 29 127 108 127c25 0 51 -7 76 -24c7 -5 9 -12 6 -20zM159 56c32 0 41 17 41 47
c0 31 -9 47 -41 47c-28 0 -40 -16 -40 -47c0 -30 12 -47 40 -47z" />
    <glyph glyph-name="seven.dnom" horiz-adv-x="314" 
d="M254 264c0 -4 0 -9 -4 -17l-108 -233c-3 -7 -8 -14 -16 -14h-42c-9 0 -12 7 -9 14l112 236h-112c-10 0 -15 5 -15 15v30c0 10 5 15 15 15h164c10 0 15 -5 15 -15v-31z" />
    <glyph glyph-name="eight.dnom" horiz-adv-x="323" 
d="M222 163c20 -12 41 -32 41 -75c0 -52 -31 -88 -92 -88h-19c-61 0 -92 36 -92 88c0 43 21 63 41 75c-20 13 -33 34 -33 65c0 46 33 82 85 82h17c55 0 85 -36 85 -82c0 -31 -13 -52 -33 -65zM164 186c20 0 33 13 33 35s-13 35 -33 35h-5c-20 0 -33 -13 -33 -35
s13 -35 33 -35h5zM156 56h11c21 0 35 12 35 38c0 25 -14 40 -35 40h-11c-21 0 -35 -15 -35 -40c0 -26 14 -38 35 -38z" />
    <glyph glyph-name="nine.dnom" horiz-adv-x="321" 
d="M77 64c3 11 10 13 20 7c16 -10 35 -16 55 -16c29 0 52 10 52 46v30c-12 -17 -35 -23 -51 -23c-68 0 -93 35 -93 100c0 61 37 103 92 103h14c79 0 95 -62 95 -139v-45c0 -83 -29 -127 -108 -127c-25 0 -51 7 -76 24c-7 5 -9 12 -6 20zM162 255c-32 0 -41 -17 -41 -47
c0 -31 9 -47 41 -47c28 0 40 16 40 47c0 30 -12 47 -40 47z" />
    <glyph glyph-name="zero.numr" horiz-adv-x="325" 
d="M177 700c60 0 88 -33 88 -84v-142c0 -51 -28 -84 -88 -84h-31c-54 0 -86 33 -86 84v142c0 51 32 84 86 84h31zM204 608c0 24 -14 35 -44 35c-27 0 -40 -11 -40 -35v-126c0 -24 13 -35 40 -35c30 0 44 11 44 35v126z" />
    <glyph glyph-name="one.numr" horiz-adv-x="302" 
d="M120 685c0 10 5 15 15 15h32c10 0 15 -5 15 -15v-279c0 -10 -5 -15 -15 -15h-32c-10 0 -15 5 -15 15v279z" />
    <glyph glyph-name="two.numr" horiz-adv-x="320" 
d="M245 449c10 0 15 -5 15 -15v-29c0 -10 -5 -15 -15 -15h-168c-10 0 -15 5 -15 15v33c0 14 4 19 14 28l87 82c17 16 35 33 35 56c0 25 -16 39 -41 39c-22 0 -37 -11 -37 -32v-7c0 -10 -5 -15 -15 -15h-30c-10 0 -15 5 -15 15v13c0 48 33 83 88 83h25c59 0 86 -43 86 -90
c0 -51 -31 -82 -66 -112l-56 -49h108z" />
    <glyph glyph-name="three.numr" horiz-adv-x="323" 
d="M217 545c32 -15 48 -38 48 -69c0 -43 -27 -86 -90 -86h-25c-57 0 -90 35 -90 83v13c0 10 5 15 15 15h30c10 0 15 -5 15 -15v-7c0 -21 15 -32 41 -32c27 0 41 14 41 38c0 22 -10 34 -39 34h-16c-9 0 -14 5 -14 15v22c0 10 5 15 14 15h16c27 0 37 12 37 34
c0 24 -14 38 -39 38c-24 0 -39 -11 -39 -32v-7c0 -10 -5 -15 -15 -15h-30c-10 0 -15 5 -15 15v13c0 48 33 83 88 83h25c57 0 84 -43 84 -86c0 -31 -12 -54 -42 -69z" />
    <glyph glyph-name="four.numr" horiz-adv-x="336" 
d="M261 498c10 0 15 -5 15 -15v-27c0 -10 -5 -15 -15 -15h-14v-36c0 -10 -5 -15 -15 -15h-30c-10 0 -15 5 -15 15v36h-110c-11 0 -17 5 -17 15v25c0 8 3 14 5 18l100 190c4 8 11 11 17 11h50c10 0 15 -5 15 -15v-187h14zM187 500v117l-58 -117h58z" />
    <glyph glyph-name="five.numr" horiz-adv-x="325" 
d="M171 593c63 0 94 -39 94 -102c0 -58 -27 -101 -90 -101h-25c-57 0 -90 35 -90 83v13c0 10 5 15 15 15h30c10 0 15 -5 15 -15v-7c0 -21 15 -32 41 -32c27 0 41 14 41 44c0 32 -9 52 -43 52c-14 0 -29 -4 -38 -13h-42c-10 0 -15 5 -15 15v140c0 10 5 15 15 15h160
c10 0 15 -5 15 -15v-28c0 -10 -5 -15 -15 -15h-117v-67c13 14 33 18 49 18z" />
    <glyph glyph-name="six.numr" horiz-adv-x="321" 
d="M244 636c-3 -11 -10 -13 -20 -7c-16 10 -35 16 -55 16c-29 0 -52 -10 -52 -46v-30c12 17 35 23 51 23c68 0 93 -35 93 -100c0 -61 -37 -103 -92 -103h-14c-79 0 -95 62 -95 139v45c0 83 29 127 108 127c25 0 51 -7 76 -24c7 -5 9 -12 6 -20zM159 445c32 0 41 17 41 47
c0 31 -9 47 -41 47c-28 0 -40 -16 -40 -47c0 -30 12 -47 40 -47z" />
    <glyph glyph-name="seven.numr" horiz-adv-x="314" 
d="M254 654c0 -4 0 -9 -4 -17l-108 -233c-3 -7 -8 -14 -16 -14h-42c-9 0 -12 7 -9 14l112 236h-112c-10 0 -15 5 -15 15v30c0 10 5 15 15 15h164c10 0 15 -5 15 -15v-31z" />
    <glyph glyph-name="eight.numr" horiz-adv-x="323" 
d="M222 553c20 -12 41 -32 41 -75c0 -52 -31 -88 -92 -88h-19c-61 0 -92 36 -92 88c0 43 21 63 41 75c-20 13 -33 34 -33 65c0 46 33 82 85 82h17c55 0 85 -36 85 -82c0 -31 -13 -52 -33 -65zM164 576c20 0 33 13 33 35s-13 35 -33 35h-5c-20 0 -33 -13 -33 -35
s13 -35 33 -35h5zM156 446h11c21 0 35 12 35 38c0 25 -14 40 -35 40h-11c-21 0 -35 -15 -35 -40c0 -26 14 -38 35 -38z" />
    <glyph glyph-name="nine.numr" horiz-adv-x="321" 
d="M77 453c3 11 10 13 20 7c16 -10 35 -16 55 -16c29 0 52 10 52 46v30c-12 -17 -35 -23 -51 -23c-68 0 -93 35 -93 100c0 61 37 103 92 103h14c79 0 95 -62 95 -139v-45c0 -83 -29 -127 -108 -127c-25 0 -51 7 -76 24c-7 5 -9 12 -6 20zM162 644c-32 0 -41 -17 -41 -47
c0 -31 9 -47 41 -47c28 0 40 16 40 47c0 30 -12 47 -40 47z" />
    <glyph glyph-name="uni00B9" unicode="&#xb9;" horiz-adv-x="302" 
d="M120 685c0 10 5 15 15 15h32c10 0 15 -5 15 -15v-279c0 -10 -5 -15 -15 -15h-32c-10 0 -15 5 -15 15v279z" />
    <glyph glyph-name="uni00B2" unicode="&#xb2;" horiz-adv-x="320" 
d="M245 449c10 0 15 -5 15 -15v-29c0 -10 -5 -15 -15 -15h-168c-10 0 -15 5 -15 15v33c0 14 4 19 14 28l87 82c17 16 35 33 35 56c0 25 -16 39 -41 39c-22 0 -37 -11 -37 -32v-7c0 -10 -5 -15 -15 -15h-30c-10 0 -15 5 -15 15v13c0 48 33 83 88 83h25c59 0 86 -43 86 -90
c0 -51 -31 -82 -66 -112l-56 -49h108z" />
    <glyph glyph-name="uni00B3" unicode="&#xb3;" horiz-adv-x="323" 
d="M217 545c32 -15 48 -38 48 -69c0 -43 -27 -86 -90 -86h-25c-57 0 -90 35 -90 83v13c0 10 5 15 15 15h30c10 0 15 -5 15 -15v-7c0 -21 15 -32 41 -32c27 0 41 14 41 38c0 22 -10 34 -39 34h-16c-9 0 -14 5 -14 15v22c0 10 5 15 14 15h16c27 0 37 12 37 34
c0 24 -14 38 -39 38c-24 0 -39 -11 -39 -32v-7c0 -10 -5 -15 -15 -15h-30c-10 0 -15 5 -15 15v13c0 48 33 83 88 83h25c57 0 84 -43 84 -86c0 -31 -12 -54 -42 -69z" />
    <glyph glyph-name="fraction" unicode="&#x2044;" horiz-adv-x="126" 
d="M231 685c6 10 10 15 20 15h38c10 0 16 -5 10 -15l-404 -670c-6 -10 -10 -15 -20 -15h-38c-10 0 -16 5 -10 15z" />
    <glyph glyph-name="onehalf" unicode="&#xbd;" horiz-adv-x="748" 
d="M120 685c0 10 5 15 15 15h32c10 0 15 -5 15 -15v-279c0 -10 -5 -15 -15 -15h-32c-10 0 -15 5 -15 15v279zM533 685c6 10 10 15 20 15h38c10 0 16 -5 10 -15l-404 -670c-6 -10 -10 -15 -20 -15h-38c-10 0 -16 5 -10 15zM673 59c10 0 15 -5 15 -15v-29
c0 -10 -5 -15 -15 -15h-168c-10 0 -15 5 -15 15v33c0 14 4 19 14 28l87 82c17 16 35 33 35 56c0 25 -16 39 -41 39c-22 0 -37 -11 -37 -32v-7c0 -10 -5 -15 -15 -15h-30c-10 0 -15 5 -15 15v13c0 48 33 83 88 83h25c59 0 86 -43 86 -90c0 -51 -31 -82 -66 -112l-56 -49h108z
" />
    <glyph glyph-name="onequarter" unicode="&#xbc;" horiz-adv-x="764" 
d="M120 685c0 10 5 15 15 15h32c10 0 15 -5 15 -15v-279c0 -10 -5 -15 -15 -15h-32c-10 0 -15 5 -15 15v279zM533 685c6 10 10 15 20 15h38c10 0 16 -5 10 -15l-404 -670c-6 -10 -10 -15 -20 -15h-38c-10 0 -16 5 -10 15zM689 108c10 0 15 -5 15 -15v-27
c0 -10 -5 -15 -15 -15h-14v-36c0 -10 -5 -15 -15 -15h-30c-10 0 -15 5 -15 15v36h-110c-11 0 -17 5 -17 15v25c0 8 3 14 5 18l100 190c4 8 11 11 17 11h50c10 0 15 -5 15 -15v-187h14zM615 110v117l-58 -117h58z" />
    <glyph glyph-name="threequarters" unicode="&#xbe;" horiz-adv-x="785" 
d="M217 545c32 -15 48 -38 48 -69c0 -43 -27 -86 -90 -86h-25c-57 0 -90 35 -90 83v13c0 10 5 15 15 15h30c10 0 15 -5 15 -15v-7c0 -21 15 -32 41 -32c27 0 41 14 41 38c0 22 -10 34 -39 34h-16c-9 0 -14 5 -14 15v22c0 10 5 15 14 15h16c27 0 37 12 37 34
c0 24 -14 38 -39 38c-24 0 -39 -11 -39 -32v-7c0 -10 -5 -15 -15 -15h-30c-10 0 -15 5 -15 15v13c0 48 33 83 88 83h25c57 0 84 -43 84 -86c0 -31 -12 -54 -42 -69zM554 685c6 10 10 15 20 15h38c10 0 16 -5 10 -15l-404 -670c-6 -10 -10 -15 -20 -15h-38
c-10 0 -16 5 -10 15zM710 108c10 0 15 -5 15 -15v-27c0 -10 -5 -15 -15 -15h-14v-36c0 -10 -5 -15 -15 -15h-30c-10 0 -15 5 -15 15v36h-110c-11 0 -17 5 -17 15v25c0 8 3 14 5 18l100 190c4 8 11 11 17 11h50c10 0 15 -5 15 -15v-187h14zM636 110v117l-58 -117h58z" />
    <glyph glyph-name="oneeighth" unicode="&#x215b;" horiz-adv-x="751" 
d="M120 685c0 10 5 15 15 15h32c10 0 15 -5 15 -15v-279c0 -10 -5 -15 -15 -15h-32c-10 0 -15 5 -15 15v279zM533 685c6 10 10 15 20 15h38c10 0 16 -5 10 -15l-404 -670c-6 -10 -10 -15 -20 -15h-38c-10 0 -16 5 -10 15zM650 163c20 -12 41 -32 41 -75
c0 -52 -31 -88 -92 -88h-19c-61 0 -92 36 -92 88c0 43 21 63 41 75c-20 13 -33 34 -33 65c0 46 33 82 85 82h17c55 0 85 -36 85 -82c0 -31 -13 -52 -33 -65zM592 186c20 0 33 13 33 35s-13 35 -33 35h-5c-20 0 -33 -13 -33 -35s13 -35 33 -35h5zM584 56h11c21 0 35 12 35 38
c0 25 -14 40 -35 40h-11c-21 0 -35 -15 -35 -40c0 -26 14 -38 35 -38z" />
    <glyph glyph-name="threeeighths" unicode="&#x215c;" horiz-adv-x="772" 
d="M217 545c32 -15 48 -38 48 -69c0 -43 -27 -86 -90 -86h-25c-57 0 -90 35 -90 83v13c0 10 5 15 15 15h30c10 0 15 -5 15 -15v-7c0 -21 15 -32 41 -32c27 0 41 14 41 38c0 22 -10 34 -39 34h-16c-9 0 -14 5 -14 15v22c0 10 5 15 14 15h16c27 0 37 12 37 34
c0 24 -14 38 -39 38c-24 0 -39 -11 -39 -32v-7c0 -10 -5 -15 -15 -15h-30c-10 0 -15 5 -15 15v13c0 48 33 83 88 83h25c57 0 84 -43 84 -86c0 -31 -12 -54 -42 -69zM554 685c6 10 10 15 20 15h38c10 0 16 -5 10 -15l-404 -670c-6 -10 -10 -15 -20 -15h-38
c-10 0 -16 5 -10 15zM671 163c20 -12 41 -32 41 -75c0 -52 -31 -88 -92 -88h-19c-61 0 -92 36 -92 88c0 43 21 63 41 75c-20 13 -33 34 -33 65c0 46 33 82 85 82h17c55 0 85 -36 85 -82c0 -31 -13 -52 -33 -65zM613 186c20 0 33 13 33 35s-13 35 -33 35h-5
c-20 0 -33 -13 -33 -35s13 -35 33 -35h5zM605 56h11c21 0 35 12 35 38c0 25 -14 40 -35 40h-11c-21 0 -35 -15 -35 -40c0 -26 14 -38 35 -38z" />
    <glyph glyph-name="fiveeighths" unicode="&#x215d;" horiz-adv-x="774" 
d="M171 593c63 0 94 -39 94 -102c0 -58 -27 -101 -90 -101h-25c-57 0 -90 35 -90 83v13c0 10 5 15 15 15h30c10 0 15 -5 15 -15v-7c0 -21 15 -32 41 -32c27 0 41 14 41 44c0 32 -9 52 -43 52c-14 0 -29 -4 -38 -13h-42c-10 0 -15 5 -15 15v140c0 10 5 15 15 15h160
c10 0 15 -5 15 -15v-28c0 -10 -5 -15 -15 -15h-117v-67c13 14 33 18 49 18zM556 685c6 10 10 15 20 15h38c10 0 16 -5 10 -15l-404 -670c-6 -10 -10 -15 -20 -15h-38c-10 0 -16 5 -10 15zM673 163c20 -12 41 -32 41 -75c0 -52 -31 -88 -92 -88h-19c-61 0 -92 36 -92 88
c0 43 21 63 41 75c-20 13 -33 34 -33 65c0 46 33 82 85 82h17c55 0 85 -36 85 -82c0 -31 -13 -52 -33 -65zM615 186c20 0 33 13 33 35s-13 35 -33 35h-5c-20 0 -33 -13 -33 -35s13 -35 33 -35h5zM607 56h11c21 0 35 12 35 38c0 25 -14 40 -35 40h-11c-21 0 -35 -15 -35 -40
c0 -26 14 -38 35 -38z" />
    <glyph glyph-name="seveneighths" unicode="&#x215e;" horiz-adv-x="763" 
d="M254 654c0 -4 0 -9 -4 -17l-108 -233c-3 -7 -8 -14 -16 -14h-42c-9 0 -12 7 -9 14l112 236h-112c-10 0 -15 5 -15 15v30c0 10 5 15 15 15h164c10 0 15 -5 15 -15v-31zM545 685c6 10 10 15 20 15h38c10 0 16 -5 10 -15l-404 -670c-6 -10 -10 -15 -20 -15h-38
c-10 0 -16 5 -10 15zM662 163c20 -12 41 -32 41 -75c0 -52 -31 -88 -92 -88h-19c-61 0 -92 36 -92 88c0 43 21 63 41 75c-20 13 -33 34 -33 65c0 46 33 82 85 82h17c55 0 85 -36 85 -82c0 -31 -13 -52 -33 -65zM604 186c20 0 33 13 33 35s-13 35 -33 35h-5
c-20 0 -33 -13 -33 -35s13 -35 33 -35h5zM596 56h11c21 0 35 12 35 38c0 25 -14 40 -35 40h-11c-21 0 -35 -15 -35 -40c0 -26 14 -38 35 -38z" />
    <glyph glyph-name="period" unicode="." horiz-adv-x="185" 
d="M50 0c-10 0 -15 5 -15 15v86c0 10 5 14 15 14h86c10 0 14 -4 14 -14v-86c0 -10 -4 -15 -14 -15h-86z" />
    <glyph glyph-name="comma" unicode="," horiz-adv-x="214" 
d="M164 115c10 0 15 -4 15 -14v-226c0 -22 -12 -34 -34 -34h-105c-10 0 -15 5 -15 15v64c0 10 5 14 15 14h41v167c0 10 4 14 14 14h69z" />
    <glyph glyph-name="colon" unicode=":" horiz-adv-x="185" 
d="M50 385c-10 0 -15 4 -15 14v86c0 10 5 15 15 15h86c10 0 14 -5 14 -15v-86c0 -10 -4 -14 -14 -14h-86zM50 0c-10 0 -15 5 -15 15v86c0 10 5 14 15 14h86c10 0 14 -4 14 -14v-86c0 -10 -4 -15 -14 -15h-86z" />
    <glyph glyph-name="semicolon" unicode=";" horiz-adv-x="233" 
d="M98 385c-10 0 -15 4 -15 14v86c0 10 5 15 15 15h85c10 0 15 -5 15 -15v-86c0 -10 -5 -14 -15 -14h-85zM174 115c10 0 15 -4 15 -14v-226c0 -22 -12 -34 -34 -34h-105c-10 0 -15 5 -15 15v64c0 10 5 14 15 14h41v167c0 10 4 14 14 14h69z" />
    <glyph glyph-name="ellipsis" unicode="&#x2026;" horiz-adv-x="620" 
d="M50 0c-10 0 -15 5 -15 15v86c0 10 5 14 15 14h86c10 0 14 -4 14 -14v-86c0 -10 -4 -15 -14 -15h-86zM267 0c-10 0 -15 5 -15 15v86c0 10 5 14 15 14h86c10 0 14 -4 14 -14v-86c0 -10 -4 -15 -14 -15h-86zM484 0c-10 0 -14 5 -14 15v86c0 10 4 14 14 14h86
c10 0 15 -4 15 -14v-86c0 -10 -5 -15 -15 -15h-86z" />
    <glyph glyph-name="exclam" unicode="!" horiz-adv-x="246" 
d="M80 204c-10 0 -14 4 -14 14v467c0 10 4 15 14 15h86c10 0 15 -5 15 -15v-467c0 -10 -5 -14 -15 -14h-86zM80 0c-10 0 -14 5 -14 15v86c0 10 4 14 14 14h86c10 0 15 -4 15 -14v-86c0 -10 -5 -15 -15 -15h-86z" />
    <glyph glyph-name="exclamdown" unicode="&#xa1;" horiz-adv-x="246" 
d="M166 500c10 0 15 -5 15 -15v-86c0 -10 -5 -14 -15 -14h-86c-10 0 -14 4 -14 14v86c0 10 4 15 14 15h86zM166 297c10 0 15 -5 15 -15v-467c0 -10 -5 -15 -15 -15h-86c-10 0 -14 5 -14 15v467c0 10 4 15 14 15h86z" />
    <glyph glyph-name="question" unicode="?" horiz-adv-x="553" 
d="M223 204c-10 0 -14 4 -14 14v72c0 70 31 84 131 127c51 22 64 39 64 95c0 62 -29 91 -92 91h-65c-66 0 -98 -24 -98 -102c0 -10 -5 -15 -15 -15h-84c-10 0 -15 5 -15 15v19c0 126 69 185 211 185h72c144 0 200 -80 200 -193c0 -138 -55 -153 -133 -187
c-36 -15 -61 -30 -61 -67v-40c0 -10 -5 -14 -15 -14h-86zM223 0c-10 0 -14 5 -14 15v86c0 10 4 14 14 14h86c10 0 15 -4 15 -14v-86c0 -10 -5 -15 -15 -15h-86z" />
    <glyph glyph-name="questiondown" unicode="&#xbf;" horiz-adv-x="553" 
d="M330 500c10 0 15 -5 15 -15v-86c0 -10 -5 -14 -15 -14h-86c-10 0 -15 4 -15 14v86c0 10 5 15 15 15h86zM330 297c10 0 15 -5 15 -15v-72c0 -70 -32 -84 -132 -127c-51 -22 -64 -39 -64 -95c0 -62 29 -91 92 -91h65c66 0 98 24 98 102c0 10 5 15 15 15h85
c9 0 14 -5 14 -15v-19c0 -126 -69 -185 -211 -185h-72c-144 0 -200 80 -200 193c0 138 55 154 134 187c35 16 61 30 61 67v40c0 10 5 15 15 15h85z" />
    <glyph glyph-name="periodcentered" unicode="&#xb7;" horiz-adv-x="215" 
d="M65 192c-10 0 -15 5 -15 15v85c0 10 5 15 15 15h86c10 0 14 -5 14 -15v-85c0 -10 -4 -15 -14 -15h-86z" />
    <glyph glyph-name="bullet" unicode="&#x2022;" horiz-adv-x="346" 
d="M80 309c0 22 10 33 32 33h120c22 0 34 -11 34 -33v-119c0 -22 -12 -33 -34 -33h-120c-22 0 -32 11 -32 33v119z" />
    <glyph glyph-name="asterisk" unicode="*" horiz-adv-x="364" 
d="M165 448c-10 0 -18 7 -17 19l3 68l-55 -39c-10 -7 -20 -5 -26 5l-16 27c-7 11 -5 22 6 28l61 35l-61 34c-11 6 -13 17 -6 28l16 27c6 10 16 12 26 5l55 -39l-3 68c-1 12 7 19 17 19h32c12 0 20 -6 19 -19l-3 -68l55 40c9 7 18 4 25 -6l17 -27c7 -11 4 -22 -7 -28l-61 -34
l61 -35c11 -6 14 -18 7 -28l-17 -27c-7 -10 -16 -13 -26 -5l-54 39l3 -68c1 -12 -7 -19 -19 -19h-32z" />
    <glyph glyph-name="numbersign" unicode="#" horiz-adv-x="586" 
d="M511 440h-51v-180h51c11 0 16 -5 16 -16v-67c0 -11 -5 -16 -16 -16h-51v-146c0 -10 -5 -15 -15 -15h-81c-10 0 -15 5 -15 15v146h-112v-146c0 -10 -5 -15 -15 -15h-81c-10 0 -15 5 -15 15v146h-51c-11 0 -16 5 -16 16v67c0 11 5 16 16 16h51v180h-51c-11 0 -16 5 -16 16
v67c0 11 5 16 16 16h51v146c0 10 5 15 15 15h81c10 0 15 -5 15 -15v-146h112v146c0 10 5 15 15 15h81c10 0 15 -5 15 -15v-146h51c11 0 16 -5 16 -16v-67c0 -11 -5 -16 -16 -16zM349 260v180h-112v-180h112z" />
    <glyph glyph-name="slash" unicode="/" horiz-adv-x="479" 
d="M339 719c4 10 9 15 19 15h84c10 0 14 -6 10 -16l-312 -737c-4 -10 -10 -15 -20 -15h-83c-10 0 -14 6 -10 16z" />
    <glyph glyph-name="backslash" unicode="\" horiz-adv-x="479" 
d="M140 719l312 -737c4 -10 0 -16 -10 -16h-84c-10 0 -15 5 -19 15l-312 737c-4 10 0 16 10 16h83c10 0 16 -5 20 -15z" />
    <glyph glyph-name="parenleft" unicode="(" horiz-adv-x="340" 
d="M169 148c0 -80 16 -104 84 -104h17c10 0 15 -5 15 -15v-84c0 -10 -5 -15 -15 -15h-53c-102 0 -162 64 -162 178v510c0 114 60 178 162 178h53c10 0 15 -5 15 -15v-84c0 -10 -5 -15 -15 -15h-17c-68 0 -84 -24 -84 -104v-430z" />
    <glyph glyph-name="parenright" unicode=")" horiz-adv-x="340" 
d="M171 148v430c0 80 -16 104 -84 104h-17c-10 0 -15 5 -15 15v84c0 10 5 15 15 15h53c102 0 162 -64 162 -178v-510c0 -114 -60 -178 -162 -178h-53c-10 0 -15 5 -15 15v84c0 10 5 15 15 15h17c68 0 84 24 84 104z" />
    <glyph glyph-name="braceleft" unicode="{" horiz-adv-x="396" 
d="M273 -70c-102 0 -162 64 -162 178v171c0 7 -2 12 -7 18l-45 55c-6 7 -6 15 0 22l45 55c5 6 7 11 7 18v171c0 114 60 178 162 178h53c10 0 15 -5 15 -15v-84c0 -10 -5 -15 -15 -15h-17c-68 0 -84 -24 -84 -104v-141c0 -7 -2 -12 -7 -18l-43 -56l44 -56c4 -6 6 -11 6 -18
v-141c0 -80 16 -104 84 -104h17c10 0 15 -5 15 -15v-84c0 -10 -5 -15 -15 -15h-53z" />
    <glyph glyph-name="braceright" unicode="}" horiz-adv-x="396" 
d="M123 -70h-53c-10 0 -15 5 -15 15v84c0 10 5 15 15 15h17c68 0 84 24 84 104v141c0 7 2 12 6 18l44 56l-43 56c-5 6 -7 11 -7 18v141c0 80 -16 104 -84 104h-17c-10 0 -15 5 -15 15v84c0 10 5 15 15 15h53c102 0 162 -64 162 -178v-171c0 -7 2 -12 7 -18l45 -55
c6 -7 6 -15 0 -22l-45 -55c-5 -6 -7 -11 -7 -18v-171c0 -114 -60 -178 -162 -178z" />
    <glyph glyph-name="bracketleft" unicode="[" horiz-adv-x="336" 
d="M266 684h-86v-642h86c10 0 15 -5 15 -15v-82c0 -10 -5 -15 -15 -15h-185c-10 0 -15 5 -15 15v836c0 10 5 15 15 15h185c10 0 15 -5 15 -15v-82c0 -10 -5 -15 -15 -15z" />
    <glyph glyph-name="bracketright" unicode="]" horiz-adv-x="330" 
d="M64 684c-10 0 -14 5 -14 15v82c0 10 4 15 14 15h186c10 0 15 -5 15 -15v-836c0 -10 -5 -15 -15 -15h-186c-10 0 -14 5 -14 15v82c0 10 4 15 14 15h87v642h-87z" />
    <glyph glyph-name="hyphen" unicode="-" horiz-adv-x="396" 
d="M66 204c-11 0 -16 4 -16 15v68c0 11 5 16 16 16h264c11 0 16 -5 16 -16v-68c0 -11 -5 -15 -16 -15h-264z" />
    <glyph glyph-name="uni00AD" unicode="&#xad;" horiz-adv-x="396" 
d="M66 204c-11 0 -16 4 -16 15v68c0 11 5 16 16 16h264c11 0 16 -5 16 -16v-68c0 -11 -5 -15 -16 -15h-264z" />
    <glyph glyph-name="endash" unicode="&#x2013;" horiz-adv-x="598" 
d="M66 204c-11 0 -16 4 -16 15v68c0 11 5 16 16 16h466c11 0 16 -5 16 -16v-68c0 -11 -5 -15 -16 -15h-466z" />
    <glyph glyph-name="emdash" unicode="&#x2014;" horiz-adv-x="698" 
d="M66 204c-11 0 -16 4 -16 15v68c0 11 5 16 16 16h566c11 0 16 -5 16 -16v-68c0 -11 -5 -15 -16 -15h-566z" />
    <glyph glyph-name="underscore" unicode="_" horiz-adv-x="598" 
d="M66 -99c-11 0 -16 5 -16 16v67c0 11 5 16 16 16h466c11 0 16 -5 16 -16v-67c0 -11 -5 -16 -16 -16h-466z" />
    <glyph glyph-name="quotesinglbase" unicode="&#x201a;" horiz-adv-x="232" 
d="M164 115c10 0 15 -4 15 -14v-226c0 -22 -12 -34 -34 -34h-105c-10 0 -15 5 -15 15v64c0 10 5 14 15 14h41v167c0 10 4 14 14 14h69z" />
    <glyph glyph-name="quotedblbase" unicode="&#x201e;" horiz-adv-x="435" 
d="M164 115c10 0 15 -4 15 -14v-226c0 -22 -12 -34 -34 -34h-105c-10 0 -15 5 -15 15v64c0 10 5 14 15 14h41v167c0 10 4 14 14 14h69zM385 115c10 0 15 -4 15 -14v-226c0 -22 -11 -34 -34 -34h-105c-10 0 -14 5 -14 15v64c0 10 4 14 14 14h41v167c0 10 5 14 15 14h68z" />
    <glyph glyph-name="quotedblleft" unicode="&#x201c;" horiz-adv-x="445" 
d="M50 426c-10 0 -15 5 -15 15v225c0 22 12 34 34 34h105c10 0 15 -5 15 -15v-63c0 -10 -5 -15 -15 -15h-41v-166c0 -10 -5 -15 -15 -15h-68zM271 426c-10 0 -14 5 -14 15v225c0 22 11 34 33 34h105c10 0 15 -5 15 -15v-63c0 -10 -5 -15 -15 -15h-40v-166
c0 -10 -5 -15 -15 -15h-69z" />
    <glyph glyph-name="quotedblright" unicode="&#x201d;" horiz-adv-x="495" 
d="M174 700c10 0 15 -5 15 -15v-225c0 -23 -12 -34 -34 -34h-105c-10 0 -15 5 -15 15v63c0 10 5 15 15 15h41v166c0 10 4 15 14 15h69zM395 700c10 0 15 -5 15 -15v-225c0 -23 -11 -34 -34 -34h-105c-10 0 -14 5 -14 15v63c0 10 4 15 14 15h41v166c0 10 5 15 15 15h68z" />
    <glyph glyph-name="quoteleft" unicode="&#x2018;" horiz-adv-x="224" 
d="M50 426c-10 0 -15 5 -15 15v225c0 23 12 34 34 34h105c10 0 15 -5 15 -15v-63c0 -10 -5 -15 -15 -15h-41v-166c0 -10 -5 -15 -15 -15h-68z" />
    <glyph glyph-name="quoteright" unicode="&#x2019;" horiz-adv-x="214" 
d="M164 700c10 0 15 -5 15 -15v-225c0 -23 -12 -34 -34 -34h-105c-10 0 -15 5 -15 15v63c0 10 5 15 15 15h41v166c0 10 4 15 14 15h69z" />
    <glyph glyph-name="guillemotleft" unicode="&#xab;" horiz-adv-x="586" 
d="M256 432c10 6 20 4 20 -7v-88c0 -10 -7 -14 -18 -21l-96 -59l96 -60c11 -7 18 -10 18 -21v-87c0 -11 -10 -13 -20 -7l-186 121c-9 6 -15 14 -15 25v58c0 11 6 19 15 25zM511 432c10 6 20 4 20 -7v-88c0 -10 -7 -14 -18 -21l-96 -59l96 -60c11 -7 18 -10 18 -21v-87
c0 -11 -10 -13 -20 -7l-186 121c-9 6 -15 14 -15 25v58c0 11 6 19 15 25z" />
    <glyph glyph-name="guillemotright" unicode="&#xbb;" horiz-adv-x="586" 
d="M75 432l186 -121c9 -6 15 -14 15 -25v-58c0 -11 -6 -19 -15 -25l-186 -121c-10 -6 -20 -4 -20 7v87c0 11 7 14 18 21l96 60l-96 59c-11 7 -18 11 -18 21v88c0 11 10 13 20 7zM330 432l186 -121c9 -6 15 -14 15 -25v-58c0 -11 -6 -19 -15 -25l-186 -121
c-10 -6 -20 -4 -20 7v87c0 11 7 14 18 21l96 60l-96 59c-11 7 -18 11 -18 21v88c0 11 10 13 20 7z" />
    <glyph glyph-name="guilsinglleft" unicode="&#x2039;" horiz-adv-x="331" 
d="M256 432c10 6 20 4 20 -7v-88c0 -10 -7 -14 -18 -21l-96 -59l96 -60c11 -7 18 -10 18 -21v-87c0 -11 -10 -13 -20 -7l-186 121c-9 6 -15 14 -15 25v58c0 11 6 19 15 25z" />
    <glyph glyph-name="guilsinglright" unicode="&#x203a;" horiz-adv-x="331" 
d="M75 432l186 -121c9 -6 15 -14 15 -25v-58c0 -11 -6 -19 -15 -25l-186 -121c-10 -6 -20 -4 -20 7v87c0 11 7 14 18 21l96 60l-96 59c-11 7 -18 11 -18 21v88c0 11 10 13 20 7z" />
    <glyph glyph-name="quotedbl" unicode="&#x22;" horiz-adv-x="444" 
d="M65 685c0 10 5 15 15 15h81c10 0 15 -5 15 -15v-266c0 -10 -5 -15 -15 -15h-81c-10 0 -15 5 -15 15v266zM268 685c0 10 5 15 15 15h81c10 0 15 -5 15 -15v-266c0 -10 -5 -15 -15 -15h-81c-10 0 -15 5 -15 15v266z" />
    <glyph glyph-name="quotesingle" unicode="'" horiz-adv-x="241" 
d="M65 685c0 10 5 15 15 15h81c10 0 15 -5 15 -15v-266c0 -10 -5 -15 -15 -15h-81c-10 0 -15 5 -15 15v266z" />
    <glyph glyph-name="space" unicode=" " horiz-adv-x="200" 
 />
    <glyph glyph-name="cent" unicode="&#xa2;" horiz-adv-x="507" 
d="M290 504c112 -2 171 -64 171 -163v-6c0 -10 -5 -15 -14 -15h-78c-9 0 -14 5 -14 15v6c0 38 -25 60 -65 63v-311c42 3 62 14 78 40c5 8 11 12 23 6l54 -25c11 -5 14 -12 10 -21c-30 -66 -89 -92 -165 -97v-55c0 -8 -3 -12 -12 -12h-37c-9 0 -12 4 -12 12v55
c-128 7 -178 73 -178 173v161c0 107 55 173 178 174v53c0 8 3 12 12 12h37c9 0 12 -4 12 -12v-53zM162 179c0 -47 21 -77 67 -85v310c-42 -3 -67 -28 -67 -75v-150z" />
    <glyph glyph-name="currency" unicode="&#xa4;" horiz-adv-x="618" 
d="M498 125l63 -62c7 -7 7 -14 0 -21l-59 -60c-7 -7 -14 -7 -21 0l-52 52c-24 -12 -55 -19 -93 -19h-54c-38 0 -69 7 -94 19l-52 -52c-7 -7 -14 -7 -21 0l-59 60c-7 7 -7 14 0 21l64 63c-3 15 -5 32 -5 49v149c0 12 1 23 2 34l-61 61c-7 7 -7 14 0 21l59 60c7 7 14 7 21 0
l41 -41c26 16 61 25 105 25h54c43 0 78 -9 104 -25l41 41c7 7 14 7 21 0l60 -60c7 -7 7 -14 0 -21l-61 -61c1 -11 2 -22 2 -34v-149c0 -18 -2 -34 -5 -50zM332 107c42 0 68 23 68 69v146c0 47 -26 70 -68 70h-46c-43 0 -69 -23 -69 -70v-146c0 -46 26 -69 69 -69h46z" />
    <glyph glyph-name="dollar" unicode="$" horiz-adv-x="486" 
d="M436 276c0 -105 -75 -132 -163 -135v-69c0 -8 -3 -12 -12 -12h-36c-9 0 -12 4 -12 12v69c-93 2 -163 31 -163 130c0 9 5 15 15 15h58c9 0 15 -5 16 -14c4 -37 36 -45 74 -46v118c-98 15 -161 43 -161 137c0 101 66 134 161 137v70c0 8 3 12 12 12h36c9 0 12 -4 12 -12
v-71c90 -4 154 -42 154 -142c0 -10 -4 -15 -15 -15h-56c-10 0 -16 4 -17 14c-4 43 -24 56 -66 58v-121c98 -16 163 -44 163 -135zM142 477c0 -38 19 -49 71 -58v114c-50 -2 -71 -12 -71 -56zM273 226c45 1 73 8 73 53c0 40 -26 50 -73 57v-110z" />
    <glyph glyph-name="Euro" unicode="&#x20ac;" horiz-adv-x="649" 
d="M302 602c-66 0 -101 -28 -101 -104v-25h118c11 0 16 -5 16 -16v-63c0 -11 -5 -16 -16 -16h-118v-56h118c11 0 16 -5 16 -16v-63c0 -11 -5 -16 -16 -16h-118v-25c0 -77 35 -104 101 -104h76c62 0 102 24 102 101c0 10 5 15 14 15h85c9 0 15 -6 15 -15v-5
c0 -126 -59 -199 -207 -199h-94c-144 0 -206 77 -206 205v27h-46c-11 0 -16 5 -16 16v63c0 11 5 16 16 16h46v56h-46c-11 0 -16 5 -16 16v63c0 11 5 16 16 16h46v27c0 128 62 205 206 205h94c148 0 207 -74 207 -204v-5c0 -8 -6 -14 -15 -14h-85c-9 0 -14 5 -14 14
c0 82 -40 106 -102 106h-76z" />
    <glyph glyph-name="florin" unicode="&#x192;" horiz-adv-x="432" 
d="M51 -200c-10 0 -15 5 -15 15v70c0 10 5 15 15 15h43c47 0 69 25 69 71v430h-62c-10 0 -15 5 -15 15v69c0 10 5 15 15 15h62v38c0 105 48 162 161 162h62c10 0 15 -5 15 -15v-70c0 -10 -5 -15 -15 -15h-43c-47 0 -69 -25 -69 -71v-567c0 -105 -48 -162 -161 -162h-62z" />
    <glyph glyph-name="sterling" unicode="&#xa3;" horiz-adv-x="587" 
d="M329 705c142 0 208 -59 208 -185v-19c0 -10 -5 -15 -14 -15h-82c-10 0 -15 5 -15 15c0 78 -32 104 -98 104h-40c-72 0 -102 -31 -102 -91c0 -53 22 -90 41 -134h113c11 0 16 -5 16 -16v-67c0 -11 -5 -16 -16 -16h-89v-12c0 -51 -20 -100 -55 -145c18 9 43 12 60 12
c64 0 82 -31 143 -31c31 0 65 8 105 24c10 4 17 0 17 -10v-85c0 -10 -6 -15 -16 -19c-35 -14 -68 -22 -102 -22c-79 0 -116 41 -184 41c-36 0 -72 -13 -114 -35c-9 -5 -59 72 -52 81c54 66 87 120 87 187v14h-70c-11 0 -15 5 -15 16v67c0 11 4 16 15 16h42
c-18 43 -38 87 -38 146c0 99 55 179 199 179h56z" />
    <glyph glyph-name="yen" unicode="&#xa5;" horiz-adv-x="592" 
d="M544 700c11 0 17 -6 11 -18l-175 -368h75c11 0 16 -5 16 -16v-63c0 -10 -5 -15 -16 -15h-102v-52h102c11 0 16 -5 16 -16v-63c0 -11 -5 -16 -16 -16h-102v-58c0 -10 -5 -15 -15 -15h-84c-10 0 -15 5 -15 15v58h-101c-10 0 -15 5 -15 16v63c0 11 5 16 15 16h101v52h-101
c-10 0 -15 5 -15 15v63c0 11 5 16 15 16h75l-175 368c-6 12 -1 18 10 18h88c11 0 16 -4 21 -15l135 -294h8l136 294c5 11 9 15 20 15h88z" />
    <glyph glyph-name="plus" unicode="+" horiz-adv-x="495" 
d="M432 379c10 0 13 -5 13 -15v-81c0 -10 -3 -15 -14 -15h-126v-138c0 -10 -5 -15 -15 -15h-84c-10 0 -15 5 -15 15v138h-126c-10 0 -15 5 -15 15v81c0 10 5 15 15 15h126v136c0 10 5 15 15 15h84c10 0 15 -5 15 -15v-136h127z" />
    <glyph glyph-name="minus" unicode="&#x2212;" horiz-adv-x="495" 
d="M432 379c10 0 13 -5 13 -15v-81c0 -10 -3 -15 -14 -15h-366c-10 0 -15 5 -15 15v81c0 10 5 15 15 15h367z" />
    <glyph glyph-name="multiply" unicode="&#xd7;" horiz-adv-x="450" 
d="M394 233c8 -7 7 -14 0 -21l-58 -57c-7 -7 -13 -8 -21 0l-90 90l-90 -90c-8 -8 -14 -7 -21 0l-58 57c-7 7 -8 14 0 21l91 91l-91 90c-7 7 -7 14 0 21l58 57c7 7 14 7 21 0l90 -90l90 90c7 7 14 7 21 0l58 -57c7 -7 7 -14 0 -21l-90 -90z" />
    <glyph glyph-name="divide" unicode="&#xf7;" horiz-adv-x="495" 
d="M187 550c0 10 5 15 15 15h91c10 0 15 -5 15 -15v-92c0 -10 -5 -15 -15 -15h-91c-10 0 -15 5 -15 15v92zM432 379c10 0 13 -5 13 -15v-81c0 -10 -3 -15 -14 -15h-366c-10 0 -15 5 -15 15v81c0 10 5 15 15 15h367zM187 188c0 10 5 15 15 15h91c10 0 15 -5 15 -15v-92
c0 -10 -5 -15 -15 -15h-91c-10 0 -15 5 -15 15v92z" />
    <glyph glyph-name="equal" unicode="=" horiz-adv-x="495" 
d="M432 468c10 0 13 -5 13 -15v-81c0 -10 -3 -15 -14 -15h-366c-10 0 -15 5 -15 15v81c0 10 5 15 15 15h367zM432 290c10 0 13 -5 13 -15v-81c0 -10 -3 -15 -14 -15h-366c-10 0 -15 5 -15 15v81c0 10 5 15 15 15h367z" />
    <glyph glyph-name="notequal" unicode="&#x2260;" horiz-adv-x="530" 
d="M467 719c10 0 14 -6 10 -16l-99 -235h71c10 0 14 -5 14 -15v-81c0 -10 -4 -15 -15 -15h-117l-28 -67h146c10 0 14 -5 14 -15v-81c0 -10 -4 -15 -15 -15h-192l-90 -213c-4 -10 -10 -15 -20 -15h-84c-10 0 -14 6 -10 16l90 212h-60c-10 0 -15 5 -15 15v81c0 10 5 15 15 15
h107l28 67h-135c-10 0 -15 5 -15 15v81c0 10 5 15 15 15h182l100 236c4 10 10 15 20 15h83z" />
    <glyph glyph-name="greater" unicode="&#x3e;" horiz-adv-x="465" 
d="M50 356v84c0 9 7 13 16 9l330 -149c15 -7 19 -23 19 -64s-4 -57 -19 -64l-330 -149c-9 -4 -16 0 -16 9v84c0 11 3 19 13 23l218 97l-218 97c-10 4 -13 12 -13 23z" />
    <glyph glyph-name="less" unicode="&#x3c;" horiz-adv-x="465" 
d="M415 356c0 -11 -3 -19 -13 -23l-218 -97l218 -97c10 -4 13 -12 13 -23v-84c0 -9 -7 -13 -16 -9l-331 149c-14 7 -18 23 -18 64s4 57 18 64l331 149c9 4 16 0 16 -9v-84z" />
    <glyph glyph-name="greaterequal" unicode="&#x2265;" horiz-adv-x="465" 
d="M50 488v84c0 9 7 13 16 9l330 -149c15 -7 19 -23 19 -64s-4 -57 -19 -64l-330 -149c-9 -4 -16 0 -16 9v84c0 11 3 19 13 23l218 97l-218 97c-10 4 -13 12 -13 23zM401 96c10 0 14 -5 14 -15v-66c0 -10 -4 -15 -15 -15h-335c-10 0 -15 5 -15 15v66c0 10 5 15 15 15h336z
" />
    <glyph glyph-name="lessequal" unicode="&#x2264;" horiz-adv-x="465" 
d="M415 488c0 -11 -3 -19 -13 -23l-218 -97l218 -97c10 -4 13 -12 13 -23v-84c0 -9 -7 -13 -16 -9l-331 149c-14 7 -18 23 -18 64s4 57 18 64l331 149c9 4 16 0 16 -9v-84zM64 96h336c10 0 15 -5 15 -15v-66c0 -10 -5 -15 -15 -15h-335c-11 0 -15 5 -15 15v66
c0 10 4 15 14 15z" />
    <glyph glyph-name="plusminus" unicode="&#xb1;" horiz-adv-x="495" 
d="M432 437c10 0 13 -5 13 -15v-81c0 -10 -3 -15 -14 -15h-126v-138c0 -10 -5 -15 -15 -15h-84c-10 0 -15 5 -15 15v138h-126c-10 0 -15 5 -15 15v81c0 10 5 15 15 15h126v136c0 10 5 15 15 15h84c10 0 15 -5 15 -15v-136h127zM432 96c10 0 13 -5 13 -15v-66
c0 -10 -3 -15 -14 -15h-366c-10 0 -15 5 -15 15v66c0 10 5 15 15 15h367z" />
    <glyph glyph-name="approxequal" unicode="&#x2248;" horiz-adv-x="553" 
d="M502 388c4 -8 -1 -16 -10 -22c-67 -46 -163 -56 -232 -15c-58 35 -111 28 -160 -6c-9 -6 -13 1 -17 8l-32 63c-4 9 1 16 10 22c67 47 167 58 233 15c56 -35 110 -27 159 6c9 6 14 0 17 -8zM502 183c4 -8 -1 -16 -10 -22c-67 -46 -163 -56 -232 -15
c-58 35 -111 28 -160 -6c-9 -6 -13 1 -17 8l-32 63c-4 9 1 16 10 22c67 47 167 58 233 15c56 -35 110 -27 159 6c9 6 14 0 17 -8z" />
    <glyph glyph-name="asciitilde" unicode="~" horiz-adv-x="553" 
d="M502 308c4 -8 -1 -16 -10 -22c-67 -46 -163 -56 -232 -15c-58 35 -111 28 -160 -6c-9 -6 -13 1 -17 8l-32 63c-4 9 1 16 10 22c67 47 167 58 233 15c56 -35 110 -27 159 6c9 6 14 0 17 -8z" />
    <glyph glyph-name="logicalnot" unicode="&#xac;" horiz-adv-x="495" 
d="M432 379c10 0 13 -5 13 -15v-234c0 -10 -4 -15 -14 -15h-85c-10 0 -15 5 -15 15v138h-266c-10 0 -15 5 -15 15v81c0 10 5 15 15 15h367z" />
    <glyph glyph-name="asciicircum" unicode="^" horiz-adv-x="446" 
d="M394 470c5 -10 0 -15 -10 -15h-90c-10 0 -15 4 -20 15l-51 125l-51 -125c-5 -11 -10 -15 -20 -15h-90c-10 0 -15 5 -10 15l106 241c4 9 9 15 20 15h90c11 0 16 -6 20 -15z" />
    <glyph glyph-name="emptyset" unicode="&#x2205;" 
d="M512 666c45 -35 66 -92 66 -166v-300c0 -128 -62 -205 -207 -205h-99c-15 0 -29 1 -42 2l-7 -16c-4 -10 -10 -15 -20 -15h-83c-10 0 -14 6 -10 16l22 52c-46 35 -66 92 -66 166v300c0 128 61 205 206 205h99c15 0 30 -1 43 -3l7 17c4 10 10 15 20 15h84c10 0 13 -6 9 -16
zM180 202c0 -16 2 -31 5 -43l187 443h-9h-83c-65 0 -100 -28 -100 -104v-296zM464 202v296c0 16 -2 30 -5 42l-187 -442h8h83c65 0 101 27 101 104z" />
    <glyph glyph-name="infinity" unicode="&#x221e;" horiz-adv-x="800" 
d="M579 470c97 0 171 -62 171 -180v-38c0 -117 -74 -179 -171 -179h-39c-53 0 -105 33 -137 80c-30 -47 -79 -80 -134 -80h-48c-93 0 -171 62 -171 179v38c0 118 78 180 171 180h48c54 0 103 -31 132 -78c29 47 78 78 130 78h48zM270 185c50 0 78 34 78 76v20
c0 43 -28 76 -78 76h-33c-46 0 -74 -32 -74 -76v-19c0 -43 28 -77 74 -77h33zM638 262v19c0 44 -25 76 -75 76h-33c-46 0 -78 -33 -78 -76v-20c0 -42 32 -76 78 -76h33c50 0 75 34 75 77z" />
    <glyph glyph-name="integral" unicode="&#x222b;" horiz-adv-x="432" 
d="M51 -200c-10 0 -15 5 -15 15v70c0 10 5 15 15 15h43c47 0 69 25 69 71v567c0 105 48 162 161 162h62c10 0 15 -5 15 -15v-70c0 -10 -5 -15 -15 -15h-43c-47 0 -69 -25 -69 -71v-567c0 -105 -48 -162 -161 -162h-62z" />
    <glyph glyph-name="product" unicode="&#x220f;" horiz-adv-x="532" 
d="M468 500c10 0 14 -5 14 -15v-470c0 -10 -5 -15 -15 -15h-84c-10 0 -15 5 -15 15v371h-204v-371c0 -10 -5 -15 -15 -15h-84c-10 0 -15 5 -15 15v470c0 10 5 15 15 15h403z" />
    <glyph glyph-name="summation" unicode="&#x2211;" horiz-adv-x="527" 
d="M50 685c0 10 5 15 15 15h397c10 0 15 -5 15 -16v-83c0 -11 -5 -15 -15 -15h-268l211 -192c9 -8 14 -15 14 -24v-41c0 -9 -5 -16 -14 -24l-211 -190l268 -1c9 0 15 -5 15 -15l-1 -84c0 -10 -5 -15 -14 -15h-397c-10 0 -15 6 -15 15v96c0 10 5 19 15 28l215 211l-215 211
c-10 9 -15 18 -15 28v96z" />
    <glyph glyph-name="radical" unicode="&#x221a;" horiz-adv-x="602" 
d="M51 314c-4 11 1 22 13 22h83c13 0 23 -5 27 -17l66 -175l189 540c4 11 8 16 18 16h92c10 0 16 -5 12 -16l-240 -668c-4 -10 -10 -16 -19 -16h-107c-9 0 -15 6 -19 16z" />
    <glyph glyph-name="partialdiff" unicode="&#x2202;" horiz-adv-x="604" 
d="M347 -5h-76c-144 0 -205 77 -205 205v47c0 106 37 204 189 204h58c54 0 104 -24 121 -50h8v112c0 61 -29 92 -92 92h-57c-66 0 -100 -9 -100 -66c0 -10 -5 -15 -15 -15h-82c-9 0 -14 5 -14 15v14c0 106 66 152 209 152h63c145 0 199 -80 199 -191v-314
c0 -128 -61 -205 -206 -205zM341 95c65 0 101 27 101 105v46c0 78 -36 105 -101 105h-63c-66 0 -101 -27 -101 -105v-46c0 -78 35 -105 101 -105h63z" />
    <glyph glyph-name="uni00B5" unicode="&#xb5;" horiz-adv-x="542" 
d="M467 500c10 0 15 -5 15 -15v-470c0 -10 -5 -15 -15 -15h-82c-8 0 -14 5 -14 15v38h-14c-22 -36 -65 -57 -121 -57h-18c-17 0 -32 1 -46 4v-185c0 -10 -5 -15 -15 -15h-81c-10 0 -15 5 -15 15v323c-1 9 -1 18 -1 27v320c0 10 7 15 14 15h83c10 0 15 -5 15 -15v-310
c0 -51 26 -79 74 -79h43c49 0 82 28 82 79v310c0 10 6 15 14 15h82z" />
    <glyph glyph-name="percent" unicode="%" horiz-adv-x="780" 
d="M134 411c-58 0 -94 36 -94 98v93c0 62 36 98 94 98h78c58 0 94 -36 94 -98v-93c0 -62 -36 -98 -94 -98h-78zM135 0c-10 0 -16 6 -10 16l423 669c6 10 10 15 20 15h78c10 0 16 -6 10 -16l-424 -669c-6 -10 -10 -15 -20 -15h-77zM150 492h43c17 0 28 11 28 29v69
c0 18 -11 29 -28 29h-43c-16 0 -27 -11 -27 -29v-69c0 -18 11 -29 27 -29zM568 0c-58 0 -94 36 -94 98v93c0 62 36 98 94 98h78c58 0 94 -36 94 -98v-93c0 -62 -36 -98 -94 -98h-78zM587 81h43c16 0 27 11 27 30v68c0 18 -11 29 -27 29h-43c-17 0 -28 -11 -28 -29v-68
c0 -19 11 -30 28 -30z" />
    <glyph glyph-name="perthousand" unicode="&#x2030;" horiz-adv-x="1116" 
d="M134 411c-58 0 -94 36 -94 98v93c0 62 36 98 94 98h78c58 0 94 -36 94 -98v-93c0 -62 -36 -98 -94 -98h-78zM135 0c-10 0 -16 6 -10 16l423 669c6 10 10 15 20 15h78c10 0 16 -6 10 -16l-424 -669c-6 -10 -10 -15 -20 -15h-77zM150 492h43c17 0 28 11 28 29v69
c0 18 -11 29 -28 29h-43c-16 0 -27 -11 -27 -29v-69c0 -18 11 -29 27 -29zM568 0c-58 0 -94 36 -94 98v93c0 62 36 98 94 98h78c58 0 94 -36 94 -98v-93c0 -62 -36 -98 -94 -98h-78zM904 0c-58 0 -94 36 -94 98v93c0 62 36 98 94 98h78c58 0 94 -36 94 -98v-93
c0 -62 -36 -98 -94 -98h-78zM587 81h43c16 0 27 11 27 30v68c0 18 -11 29 -27 29h-43c-17 0 -28 -11 -28 -29v-68c0 -19 11 -30 28 -30zM923 81h43c16 0 27 11 27 30v68c0 18 -11 29 -27 29h-43c-17 0 -28 -11 -28 -29v-68c0 -19 11 -30 28 -30z" />
    <glyph glyph-name="lozenge" unicode="&#x25ca;" horiz-adv-x="493" 
d="M442 394l-152 -378c-4 -10 -10 -16 -19 -16h-49c-9 0 -15 6 -19 16l-152 378c-1 3 -1 9 0 12l152 378c4 10 10 16 19 16h49c9 0 15 -6 19 -16l152 -378c2 -4 2 -8 0 -12zM337 397c2 3 2 5 0 8l-90 244l-91 -244c-1 -3 -1 -5 0 -8l90 -245z" />
    <glyph glyph-name="at" unicode="@" horiz-adv-x="786" 
d="M516 458c16 0 24 -8 24 -24v-211c0 -22 14 -34 45 -34c36 0 48 12 48 34l1 193c1 122 -82 149 -169 149h-141c-87 0 -172 -29 -172 -151v-246c0 -117 94 -149 181 -149h44c59 0 102 8 146 20v-73c-43 -20 -94 -29 -146 -29h-43c-177 0 -268 75 -268 224v262
c0 149 91 224 259 224h139c168 0 257 -73 257 -221v-211c0 -67 -52 -104 -126 -104c-62 0 -87 26 -103 56c-25 -31 -50 -56 -107 -56h-30c-83 0 -113 36 -113 107v137c0 69 30 103 113 103h161zM371 189h27c31 0 57 20 57 51v145h-84c-30 0 -44 -11 -44 -37v-122
c0 -27 14 -37 44 -37z" />
    <glyph glyph-name="ampersand" unicode="&#x26;" horiz-adv-x="728" 
d="M662 394c11 0 16 -5 16 -16v-64c0 -10 -5 -15 -16 -15h-67v-123c0 -123 -63 -181 -188 -181h-146c-129 0 -195 53 -195 181v57c0 53 21 106 83 128l30 11l-20 17c-43 38 -51 66 -51 116v53c0 82 40 147 178 147h67c137 0 179 -69 179 -151v-60c0 -10 -5 -15 -15 -15h-81
c-10 0 -15 5 -15 15v58c0 36 -22 53 -69 53h-65c-48 0 -68 -17 -68 -51v-51c0 -34 5 -48 40 -78l234 -206v159c0 11 5 16 16 16h153zM388 95c42 0 68 8 84 24l-225 194l-23 -8c-42 -14 -47 -45 -47 -87v-33c0 -65 26 -90 103 -90h108z" />
    <glyph glyph-name="paragraph" unicode="&#xb6;" horiz-adv-x="654" 
d="M574 700c10 0 14 -5 14 -15v-670c0 -10 -4 -15 -14 -15h-85c-10 0 -15 5 -15 15v172h-56v-172c0 -10 -5 -15 -15 -15h-85c-10 0 -14 5 -14 15v172h-33c-144 0 -205 76 -205 204v105c0 128 61 204 205 204h303zM280 290h24v307h-24c-66 0 -100 -27 -100 -104v-99
c0 -78 34 -104 100 -104zM418 290h56v307h-56v-307z" />
    <glyph glyph-name="section" unicode="&#xa7;" horiz-adv-x="495" 
d="M222 -2c-112 0 -176 44 -176 136c0 11 4 18 14 18h79c11 0 15 -5 17 -13c8 -33 29 -46 73 -46h37c50 0 72 19 72 54c0 43 -16 63 -95 63h-22c-112 0 -175 44 -175 145c0 53 18 83 58 102c-41 22 -57 62 -57 111c0 107 68 149 171 149h54c100 0 167 -52 167 -147
c0 -10 -4 -16 -16 -16h-71c-11 0 -20 4 -22 16c-5 34 -25 52 -69 52h-39c-43 0 -64 -17 -64 -52c0 -34 17 -65 75 -65h38c127 0 179 -42 179 -144c0 -54 -18 -92 -58 -111c41 -18 58 -46 58 -99c0 -110 -65 -153 -184 -153h-44zM228 303h40c53 0 70 20 70 56s-17 55 -70 55
h-40c-53 0 -71 -19 -71 -55s18 -56 71 -56z" />
    <glyph glyph-name="copyright" unicode="&#xa9;" horiz-adv-x="733" 
d="M295 -5c-151 0 -229 78 -229 220v270c0 142 78 220 229 220h144c150 0 229 -78 229 -220v-270c0 -142 -79 -220 -229 -220h-144zM365 96h9c89 0 159 24 192 98c4 9 1 16 -10 21l-54 25c-12 6 -18 2 -23 -6c-19 -31 -43 -41 -103 -41h-8c-66 0 -96 30 -96 86v152
c0 50 29 74 75 74h44c46 0 74 -22 74 -63v-6c0 -10 5 -15 15 -15h77c10 0 15 5 15 15v6c0 100 -61 163 -176 163h-53c-125 0 -182 -65 -182 -173v-163c0 -106 58 -173 204 -173z" />
    <glyph glyph-name="registered" unicode="&#xae;" horiz-adv-x="706" 
d="M286 -5c-142 0 -220 78 -220 211v288c0 133 78 211 220 211h135c141 0 220 -78 220 -211v-288c0 -133 -79 -211 -220 -211h-135zM175 106h80c10 0 15 5 15 15v153h128c52 0 58 -32 58 -78v-75c0 -10 5 -15 15 -15h80c10 0 15 5 15 15v86c0 59 -18 99 -74 120v6
c57 26 70 67 70 120c0 85 -46 143 -145 143h-242c-10 0 -14 -5 -14 -14v-461c0 -10 4 -15 14 -15zM270 370v125h129c40 0 56 -18 56 -61c0 -42 -16 -64 -56 -64h-129z" />
    <glyph glyph-name="trademark" unicode="&#x2122;" horiz-adv-x="779" 
d="M294 700c10 0 15 -5 15 -15v-30c0 -10 -5 -15 -15 -15h-89v-181c0 -10 -5 -15 -15 -15h-30c-10 0 -15 5 -15 15v181h-90c-10 0 -15 5 -15 15v30c0 10 5 15 15 15h239zM724 700c10 0 15 -5 15 -15v-226c0 -10 -5 -15 -15 -15h-30c-10 0 -15 5 -15 15v166l-98 -166
c-5 -8 -10 -15 -19 -15h-21c-9 0 -14 7 -19 15l-98 166v-166c0 -10 -5 -15 -15 -15h-30c-10 0 -15 5 -15 15v226c0 10 5 15 15 15h60c10 0 15 -6 20 -15l92 -165l93 165c4 7 10 15 20 15h60z" />
    <glyph glyph-name="degree" unicode="&#xb0;" horiz-adv-x="360" 
d="M144 357c-58 0 -94 36 -94 98v147c0 62 36 98 94 98h76c58 0 95 -36 95 -98v-147c0 -62 -37 -98 -95 -98h-76zM161 438h40c17 0 29 11 29 29v123c0 18 -12 29 -29 29h-40c-16 0 -28 -11 -28 -29v-123c0 -18 12 -29 28 -29z" />
    <glyph glyph-name="bar" unicode="|" horiz-adv-x="274" 
d="M80 785c0 10 5 15 15 15h84c10 0 15 -5 15 -15v-970c0 -10 -5 -15 -15 -15h-84c-10 0 -15 5 -15 15v970z" />
    <glyph glyph-name="brokenbar" unicode="&#xa6;" horiz-adv-x="274" 
d="M80 715c0 10 5 15 15 15h84c10 0 15 -5 15 -15v-323c0 -10 -5 -15 -15 -15h-84c-10 0 -15 5 -15 15v323zM80 208c0 10 5 15 15 15h84c10 0 15 -5 15 -15v-323c0 -10 -5 -15 -15 -15h-84c-10 0 -15 5 -15 15v323z" />
    <glyph glyph-name="dagger" unicode="&#x2020;" horiz-adv-x="433" 
d="M378 470c10 0 15 -5 15 -15v-84c0 -10 -5 -15 -15 -15h-104v-471c0 -10 -5 -15 -15 -15h-84c-10 0 -15 5 -15 15v471h-105c-10 0 -15 5 -15 15v84c0 10 5 15 15 15h105v245c0 10 5 15 15 15h84c10 0 15 -5 15 -15v-245h104z" />
    <glyph glyph-name="daggerdbl" unicode="&#x2021;" horiz-adv-x="433" 
d="M378 356h-104v-112h104c10 0 15 -5 15 -15v-84c0 -10 -5 -15 -15 -15h-104v-245c0 -10 -5 -15 -15 -15h-84c-10 0 -15 5 -15 15v245h-105c-10 0 -15 5 -15 15v84c0 10 5 15 15 15h105v112h-105c-10 0 -15 5 -15 15v84c0 10 5 15 15 15h105v245c0 10 5 15 15 15h84
c10 0 15 -5 15 -15v-245h104c10 0 15 -5 15 -15v-84c0 -10 -5 -15 -15 -15z" />
    <glyph glyph-name="uni2116" unicode="&#x2116;" horiz-adv-x="1114" 
d="M860 310c-111 0 -162 52 -162 156v83c0 103 51 156 162 156h40c110 0 163 -53 163 -156v-83c0 -104 -53 -156 -163 -156h-40zM80 0c-10 0 -14 5 -14 15v670c0 10 4 15 14 15h147c8 0 15 -3 18 -11l212 -543h9v539c0 10 4 15 14 15h85c10 0 15 -5 15 -15v-670
c0 -10 -5 -15 -15 -15h-147c-8 0 -15 3 -18 11l-212 543h-8v-539c0 -10 -5 -15 -15 -15h-85zM865 411h32c47 0 59 16 59 62v69c0 45 -12 61 -59 61h-32c-49 0 -59 -16 -59 -61v-69c0 -46 10 -62 59 -62zM725 103c-11 0 -17 5 -17 16v68c0 11 5 15 16 15h314
c11 0 16 -4 16 -15v-68c0 -11 -4 -16 -15 -16h-314z" />
    <glyph glyph-name="uni2120" unicode="&#x2120;" horiz-adv-x="760" 
d="M206 596c65 -6 86 -28 86 -80c0 -55 -37 -77 -100 -77h-52c-86 0 -100 30 -100 76c0 7 1 12 7 12h40c6 0 8 -3 9 -7c5 -20 11 -26 44 -26h61c29 0 34 8 34 21s-4 22 -29 25l-80 8c-65 6 -86 28 -86 80c0 55 37 77 100 77h43c86 0 99 -30 100 -76c0 -7 -1 -12 -7 -12h-40
c-6 0 -8 3 -9 7c-5 20 -11 26 -44 26h-52c-29 0 -34 -8 -34 -21s3 -22 29 -25zM705 700c10 0 15 -5 15 -15v-226c0 -10 -5 -15 -15 -15h-30c-10 0 -15 5 -15 15v166l-98 -166c-5 -8 -10 -15 -19 -15h-21c-9 0 -14 7 -19 15l-98 166v-166c0 -10 -5 -15 -15 -15h-30
c-10 0 -15 5 -15 15v226c0 10 5 15 15 15h60c10 0 15 -6 20 -15l92 -165l93 165c4 7 10 15 20 15h60z" />
    <glyph glyph-name="uni0326" unicode="&#x326;" horiz-adv-x="0" 
d="M-65 -60c10 0 15 -5 15 -15v-225c0 -23 -12 -34 -34 -34h-105c-10 0 -15 5 -15 15v63c0 10 5 15 15 15h41v166c0 10 4 15 14 15h69z" />
    <glyph glyph-name="acute" unicode="&#xb4;" horiz-adv-x="299" 
d="M108 682c6 12 11 18 21 18h106c11 0 19 -7 10 -18l-89 -115c-7 -10 -14 -18 -24 -18h-69c-11 0 -16 6 -10 18z" />
    <glyph glyph-name="breve" unicode="&#x2d8;" horiz-adv-x="425" 
d="M184 546c-91 0 -134 46 -134 139c0 10 5 15 15 15h62c10 0 14 -5 14 -15c3 -33 15 -61 58 -61h27c43 0 55 28 58 61c1 10 5 15 15 15h61c10 0 15 -5 15 -15c0 -93 -42 -139 -134 -139h-57z" />
    <glyph glyph-name="caron" unicode="&#x2c7;" horiz-adv-x="456" 
d="M184 549c-11 0 -19 4 -27 14l-103 118c-8 9 -2 19 8 19h78c13 0 20 -6 30 -19l53 -61h10l53 61c10 13 17 19 31 19h77c10 0 16 -10 8 -19l-103 -118c-8 -9 -17 -14 -28 -14h-87z" />
    <glyph glyph-name="cedilla" unicode="&#xb8;" horiz-adv-x="358" 
d="M120 -94c-22 2 -40 11 -40 35c0 19 13 30 43 59h99c-50 -30 -30 -34 -7 -36c67 -7 93 -22 93 -84c0 -54 -31 -85 -96 -85h-74c-66 0 -88 32 -88 81c0 8 2 13 10 13h65c6 0 10 -4 11 -10c3 -11 12 -18 32 -18h20c22 0 34 3 34 18c0 17 -19 19 -102 27z" />
    <glyph glyph-name="circumflex" unicode="&#x2c6;" horiz-adv-x="457" 
d="M184 700h87c11 0 20 -5 28 -14l103 -118c8 -9 2 -19 -8 -19h-77c-14 0 -21 7 -31 19l-53 61h-10l-53 -61c-10 -12 -17 -19 -30 -19h-78c-10 0 -16 10 -8 19l103 118c8 10 16 14 27 14z" />
    <glyph glyph-name="dieresis" unicode="&#xa8;" horiz-adv-x="503" 
d="M65 585c-10 0 -15 4 -15 14v86c0 10 5 15 15 15h86c10 0 14 -5 14 -15v-86c0 -10 -4 -14 -14 -14h-86zM352 585c-10 0 -14 4 -14 14v86c0 10 4 15 14 15h86c10 0 15 -5 15 -15v-86c0 -10 -5 -14 -15 -14h-86z" />
    <glyph glyph-name="dotaccent" unicode="&#x2d9;" horiz-adv-x="215" 
d="M65 585c-10 0 -15 4 -15 14v86c0 10 5 15 15 15h86c10 0 14 -5 14 -15v-86c0 -10 -4 -14 -14 -14h-86z" />
    <glyph glyph-name="grave" unicode="`" horiz-adv-x="299" 
d="M192 682l54 -115c6 -12 1 -18 -10 -18h-69c-10 0 -17 8 -24 18l-89 115c-9 11 -1 18 10 18h107c10 0 14 -6 21 -18z" />
    <glyph glyph-name="hungarumlaut" unicode="&#x2dd;" horiz-adv-x="481" 
d="M108 682c6 12 11 18 21 18h106c11 0 19 -7 10 -18l-89 -115c-7 -10 -14 -18 -24 -18h-69c-11 0 -16 6 -10 18zM289 682c6 12 11 18 21 18h107c11 0 19 -7 10 -18l-90 -115c-7 -10 -13 -18 -23 -18h-70c-11 0 -16 6 -10 18z" />
    <glyph glyph-name="macron" unicode="&#xaf;" horiz-adv-x="454" 
d="M65 599c-10 0 -15 5 -15 15v71c0 10 5 15 15 15h324c9 0 15 -5 15 -15v-71c0 -10 -6 -15 -15 -15h-324z" />
    <glyph glyph-name="ogonek" unicode="&#x2db;" horiz-adv-x="357" 
d="M293 -196c0 -6 -3 -10 -10 -10h-133c-78 0 -100 16 -100 87c0 65 17 76 74 82l38 4c24 2 34 4 34 26v27h111v-53c0 -48 -21 -53 -66 -59l-76 -9c-12 -2 -15 -4 -15 -16c0 -11 4 -15 20 -15h113c6 0 10 -5 10 -12v-52z" />
    <glyph glyph-name="ring" unicode="&#x2da;" horiz-adv-x="281" 
d="M147 716c49 0 84 -37 84 -84v-11c0 -47 -35 -83 -84 -83h-13c-49 0 -84 36 -84 83v11c0 47 35 84 84 84h13zM170 631c0 14 -10 24 -25 24h-9c-14 0 -24 -10 -24 -24v-7c0 -14 10 -25 24 -25h9c15 0 25 11 25 25v7z" />
    <glyph glyph-name="tilde" unicode="&#x2dc;" horiz-adv-x="447" 
d="M291 566c-69 0 -86 42 -138 42c-23 0 -37 -5 -60 -19c-9 -6 -15 -2 -18 4l-24 58c-4 10 1 16 9 22c34 25 64 32 96 32c69 0 86 -42 138 -42c23 0 36 6 60 20c9 5 15 1 18 -5l24 -58c4 -10 -1 -15 -9 -21c-34 -25 -64 -33 -96 -33z" />
    </font>
</defs>
</svg>
