<svg xmlns="http://www.w3.org/2000/svg" width="58" height="58"><defs><clipPath id="a"><path d="M0 0h58v58H0z"/></clipPath></defs><g clip-path="url(#a)" fill="#fff"><path d="M53.846 23.522a.993.993 0 00.993-.993v-6.536a.993.993 0 00-.993-.993h-5.362a1.989 1.989 0 00-1.89 1.379H32.622l-.031-.016a14.071 14.071 0 00-8.564-1.005l-8.021 1.565h-3.668A1.987 1.987 0 0010.355 15H4.993a.993.993 0 00-.993.993v6.381a.993.993 0 101.986 0v-5.388h4.369v18.825H5.986v-5.292a.993.993 0 00-1.986 0v6.285a.993.993 0 00.993.993h5.362a1.988 1.988 0 001.986-1.986V35.8a3.694 3.694 0 011.263.634l.464.359a3.151 3.151 0 003.134 2.806c.071 0 .142 0 .213-.008a3.154 3.154 0 003.13 2.762c.071 0 .142 0 .213-.008a3.158 3.158 0 003.127 2.763c.072 0 .145 0 .217-.008a3.155 3.155 0 003.125 2.762q.154 0 .31-.015a3.138 3.138 0 002.134-1.136l.807-.98a3.142 3.142 0 00.534-.94 3.267 3.267 0 001.543.384h.045a3.286 3.286 0 003.026-2.12l.343.333a3.286 3.286 0 005.421-1.353 3.288 3.288 0 003.755-5.3l-.69-.672 2.038-1.1v.851a1.988 1.988 0 001.986 1.986h5.362a.993.993 0 00.993-.993v-6.583a.993.993 0 00-1.986 0v5.59h-4.364V16.986h4.369v5.543a.993.993 0 00.993.993zm-34.93 12.685l-.807.98a1.173 1.173 0 11-1.81-1.491l.808-.98a1.165 1.165 0 01.792-.422q.058-.006.115-.006a1.173 1.173 0 01.9 1.918zm3.343 2.754l-.807.98a1.173 1.173 0 11-1.81-1.491l.808-.98a1.164 1.164 0 01.792-.421q.058-.006.115-.006a1.173 1.173 0 01.9 1.918zm3.341 2.753l-.808.98a1.173 1.173 0 11-1.81-1.491l.807-.98a1.173 1.173 0 011.81 1.491zm3.343 2.754l-.808.98a1.173 1.173 0 01-1.81-1.491l.808-.98a1.164 1.164 0 01.792-.422q.058-.006.115-.006a1.173 1.173 0 01.9 1.918zm14.846-4.471a1.3 1.3 0 01-1.842.026l-3.292-3.2-.011-.01-3.244-3.151a.993.993 0 10-1.384 1.424l5.154 5.009a1.302 1.302 0 01-1.815 1.868L32.2 36.954l-.032-.028-2.476-2.406a.993.993 0 10-1.384 1.424l5.154 5.009a1.302 1.302 0 11-1.815 1.868l-1.443-1.4a1 1 0 00-.1-.086l-.055-.048a3.147 3.147 0 00-2.22-.711 3.15 3.15 0 00-3.341-2.754 3.155 3.155 0 00-3.344-2.755 3.157 3.157 0 00-5.569-1.611l-.808.98q-.1.123-.189.254a5.708 5.708 0 00-2.237-.922V18.909H16.1a.987.987 0 00.19-.018l8.115-1.584a12.133 12.133 0 014.128-.093 9.536 9.536 0 00-2.8 1.924l-7.515 7.436a3.519 3.519 0 004.206 5.565l7.878-4.451h2.72l10.742 10.466a1.3 1.3 0 01.026 1.842zm2.707-7.294l-3.529 1.9-7.1-6.919h.7a.993.993 0 100-1.986h-6.526a.992.992 0 00-.488.128l-8.106 4.579a1.533 1.533 0 01-1.832-2.424l7.518-7.438a7.506 7.506 0 015.312-2.184H46.5z"/><path d="M54.548 25.697a.993.993 0 10.291.7 1 1 0 00-.291-.7zm-48.853 0a.993.993 0 00-1.695.7.993.993 0 00.993.993.993.993 0 00.7-1.695z"/></g></svg>