<svg data-name="Group 16665" xmlns="http://www.w3.org/2000/svg" width="45.056" height="36.32"><defs><clipPath id="a"><path data-name="Rectangle 5776" fill="#1f3c66" d="M0 0h45.056v36.295H0z"/></clipPath></defs><g data-name="Group 16633" clip-path="url(#a)"><path data-name="Path 19902" d="M22.351 0a1.4 1.4 0 01.591.131L43.9 9.909a1.4 1.4 0 010 2.532L22.941 22.22a1.4 1.4 0 01-1.181 0L.806 12.441a1.4 1.4 0 010-2.532L21.76.131A1.4 1.4 0 0122.351 0zM40 11.175L22.351 2.938 4.7 11.175l17.65 8.237z" fill="#1f3c66"/></g><path data-name="Path 19903" d="M11.175 26.541a1.391 1.391 0 01-.624-.148l-2.794-1.4a1.4 1.4 0 01-.772-1.246V14.43a1.4 1.4 0 012.794 0v8.454l2.022 1.011a1.4 1.4 0 01-.626 2.647z" fill="#1f3c66"/><path data-name="Path 19904" d="M22.351 32.129a1.4 1.4 0 01-.625-.147l-5.588-2.794a1.4 1.4 0 111.249-2.5l4.963 2.481 12.572-6.286V14.43a1.4 1.4 0 112.794 0v9.317a1.4 1.4 0 01-.772 1.249l-13.969 6.985a1.4 1.4 0 01-.624.148z" fill="#1f3c66"/><path data-name="Path 19905" d="M30.732 33.526a1.4 1.4 0 01-1.4-1.4V17.51l-7.756-5.173a1.4 1.4 0 011.55-2.325l8.381 5.588a1.4 1.4 0 01.622 1.162v15.367a1.4 1.4 0 01-1.397 1.397z" fill="#c3256b"/><path data-name="Path 19906" d="M33.526 36.32a1.4 1.4 0 01-1.4-1.4 1.4 1.4 0 00-2.794 0 1.4 1.4 0 01-2.794 0 4.191 4.191 0 018.381 0 1.4 1.4 0 01-1.393 1.4z" fill="#c3256b"/></svg>