<svg xmlns="http://www.w3.org/2000/svg" width="58" height="58"><defs><clipPath id="a"><path d="M0 0h58v58H0z"/></clipPath></defs><g fill="#fff" clip-path="url(#a)"><path d="M24.232 38.005a4.346 4.346 0 00-1.615-.724 5.234 5.234 0 00-.672-.091 2.181 2.181 0 01-.49-.075 1.49 1.49 0 01-.974-1.383 1.469 1.469 0 011.463-1.468h.173a1.47 1.47 0 011.468 1.468 1.075 1.075 0 002.149 0 3.61 3.61 0 00-2.5-3.422v-.832a1.075 1.075 0 10-2.149 0v.752a3.611 3.611 0 00-.359 6.911 3.929 3.929 0 001.024.192 3.2 3.2 0 01.4.05 2.171 2.171 0 01.809.363 1.715 1.715 0 01.745 1.357 1.591 1.591 0 01-1.589 1.589h-.171a1.591 1.591 0 01-1.589-1.589 1.075 1.075 0 00-2.149 0 3.742 3.742 0 002.893 3.639v1.073a1.075 1.075 0 002.149 0v-1.148a3.745 3.745 0 002.617-3.567 3.87 3.87 0 00-1.633-3.095z"/><path d="M48.943 23.291a14.892 14.892 0 000-5.085 14.918 14.918 0 00-.012-5.185C48.873 9.11 41.746 7 35.031 7c-6.73 0-13.88 2.122-13.9 6.055a14.947 14.947 0 00-.005 5.145 14.925 14.925 0 000 5.1 16.666 16.666 0 00-.219 2.364 13.03 13.03 0 1012.694 18.964c.485.02.965.034 1.431.034.232 0 .459 0 .708-.006s.488-.012.727-.028c.1 0 .206-.005.33-.011h.071l.712-.051c.185-.011.361-.028.584-.048 6.343-.6 10.524-2.818 10.747-5.681a16.87 16.87 0 00.251-2.739 16.612 16.612 0 00-.219-2.583 16.526 16.526 0 00.223-2.563 16.7 16.7 0 00-.222-2.557 14.93 14.93 0 000-5.107zm-18.079 5.794a32.764 32.764 0 004.169.263 28.881 28.881 0 008.017-1.052 1.008 1.008 0 00-.569-1.933 26.824 26.824 0 01-7.447.97c-4.361 0-8.409-.893-10.564-2.33h-.007a2.62 2.62 0 01-1.3-1.684v-.034a.958.958 0 00-.01-.1v-.064c0-.019-.005-.038-.01-.058a15.619 15.619 0 01-.193-1.793c.117.09.226.179.358.269a1.008 1.008 0 001.13-1.67c-.463-.312-1.233-.938-1.267-1.638v-.026c0-.037-.005-.072-.009-.108a.767.767 0 00-.019-.082 15.574 15.574 0 01-.2-1.841c2.55 1.941 7.422 2.964 12.094 2.964s9.55-1.024 12.1-2.968a15.427 15.427 0 01-.2 1.851v.038c0 .013 0 .043-.007.066s-.006.052-.006.08c-.012.533-.474 1.13-1.308 1.685-2.147 1.442-6.2 2.338-10.569 2.338a25.862 25.862 0 01-8.2-1.212 1.008 1.008 0 10-.661 1.9 27.908 27.908 0 008.863 1.324c4.822 0 9.194-1 11.689-2.678.15-.1.279-.2.41-.3a15.429 15.429 0 01-.192 1.79c-.006.026-.009.052-.013.078s0 .005 0 .008a1 1 0 00-.014.143v.023c-.007.529-.474 1.13-1.313 1.692a7.207 7.207 0 01-.506.308 1.008 1.008 0 00.983 1.761 9.428 9.428 0 00.686-.425c.134-.091.251-.183.37-.274a16.044 16.044 0 01-.2 1.816 1.007 1.007 0 00-.024.212.052.052 0 000 .01c-.011.523-.455 1.108-1.254 1.655l-.064.039c-2.141 1.439-6.188 2.332-10.563 2.332-.547 0-1.067-.017-1.567-.043a13.1 13.1 0 00-2.613-3.302zm4.168-20.07c7.34 0 11.853 2.346 11.881 4.038v.041c-.043 1.691-4.552 4.028-11.879 4.028-7.3 0-11.807-2.323-11.877-4.013v-.075c.058-1.689 4.562-4.019 11.875-4.019zm-13 40.648a11.019 11.019 0 1111.021-11.019 11.032 11.032 0 01-11.019 11.02zm15.901-7.148c-.158.015-.312.029-.489.04l-.693.049h-.082c-.1.005-.2 0-.31.011-.218.015-.442.02-.686.026-.208.005-.409.005-.616.005s-.412-.015-.616-.019a12.929 12.929 0 00.582-3.07h.01q.785 0 1.547-.035a1.008 1.008 0 00-.092-2.007c-.484.022-.98.03-1.475.029a12.911 12.911 0 00-.654-3.1c.224 0 .443.011.674.011 4.784 0 9.12-.983 11.623-2.632l.056-.035.034-.024c.141-.1.263-.191.387-.287a15.887 15.887 0 01-.2 1.821 1.066 1.066 0 00-.024.214v.012c-.021.721-.829 1.365-1.309 1.685-.016.011-.033.022-.048.034a15.5 15.5 0 01-5.82 1.944 1.008 1.008 0 10.318 1.99 17.24 17.24 0 006.6-2.243c.026-.016.058-.038.089-.062.146-.1.27-.2.4-.3a15.646 15.646 0 01-.206 1.894.946.946 0 00-.011.13v.028c-.051 1.502-3.407 3.364-8.989 3.891z"/></g></svg>
