<svg data-name="Group 16664" xmlns="http://www.w3.org/2000/svg" width="31.78" height="36.32"><path data-name="Path 19914" d="M17.025 36.32H14.75a3.409 3.409 0 01-3.4-3.4v-6.81a1.135 1.135 0 112.27 0v6.81a1.136 1.136 0 001.13 1.13h2.27a1.136 1.136 0 001.135-1.135V19.29a1.136 1.136 0 00-1.135-1.135h-2.27a1.136 1.136 0 00-1.13 1.135v2.27a1.135 1.135 0 01-2.27 0v-2.27a3.409 3.409 0 013.4-3.4h2.27a3.409 3.409 0 013.4 3.4v13.62a3.409 3.409 0 01-3.395 3.41z" fill="#1f3c66"/><path data-name="Rectangle 5784" d="M3.4 20.43h2.27a3.409 3.409 0 013.4 3.4v9.08a3.409 3.409 0 01-3.4 3.4H3.4a3.409 3.409 0 01-3.4-3.4v-9.08a3.409 3.409 0 013.4-3.4zm2.27 13.62a1.136 1.136 0 001.14-1.135V23.83a1.136 1.136 0 00-1.135-1.13H3.4a1.136 1.136 0 00-1.13 1.13v9.08a1.136 1.136 0 001.13 1.14z" fill="#1f3c66"/><path data-name="Rectangle 5785" d="M26.1 11.35h2.27a3.409 3.409 0 013.4 3.4v18.16a3.409 3.409 0 01-3.4 3.4H26.1a3.409 3.409 0 01-3.4-3.4V14.75a3.409 3.409 0 013.4-3.4zm2.27 22.7a1.136 1.136 0 001.14-1.135V14.75a1.136 1.136 0 00-1.135-1.13H26.1a1.136 1.136 0 00-1.13 1.13v18.16a1.136 1.136 0 001.13 1.14z" fill="#1f3c66"/><path data-name="Line 383" d="M18.012 8.286a1.135 1.135 0 01-.4-2.2l6.959-2.609a1.135 1.135 0 11.8 2.125l-6.96 2.611a1.133 1.133 0 01-.399.073z" fill="#c3256b"/><path data-name="Line 384" d="M6.81 12.485a1.135 1.135 0 01-.4-2.2l6.959-2.609a1.135 1.135 0 11.8 2.125l-6.96 2.611a1.133 1.133 0 01-.399.073z" fill="#c3256b"/><path data-name="Ellipse 385" d="M4.535 9.08a3.4 3.4 0 11-3.4 3.4 3.409 3.409 0 013.4-3.4zm0 4.54a1.135 1.135 0 10-1.13-1.14 1.136 1.136 0 001.13 1.14z" fill="#c3256b"/><path data-name="Ellipse 386" d="M15.885 4.54a3.4 3.4 0 11-3.4 3.4 3.409 3.409 0 013.4-3.4zm0 4.54a1.135 1.135 0 10-1.13-1.14 1.136 1.136 0 001.13 1.14z" fill="#c3256b"/><path data-name="Ellipse 387" d="M27.235 0a3.4 3.4 0 11-3.4 3.4 3.409 3.409 0 013.4-3.4zm0 4.54a1.135 1.135 0 10-1.13-1.14 1.136 1.136 0 001.13 1.14z" fill="#c3256b"/></svg>