<svg xmlns="http://www.w3.org/2000/svg" xmlns:xlink="http://www.w3.org/1999/xlink" width="1200" zoomAndPan="magnify" viewBox="0 0 900 899.99999" height="1200" preserveAspectRatio="xMidYMid meet" version="1.0"><defs><clipPath id="4b79a4c956"><path d="M 0 0 L 899.542969 0 L 899.542969 899.542969 L 0 899.542969 Z M 0 0 " clip-rule="nonzero"/></clipPath><clipPath id="b988c55c54"><path d="M 11 450 L 218.136719 450 L 218.136719 640.03125 L 11 640.03125 Z M 11 450 " clip-rule="nonzero"/></clipPath><clipPath id="ea1d22a916"><path d="M 11 539.074219 L 218.136719 539.074219 L 218.136719 729.105469 L 11 729.105469 Z M 11 539.074219 " clip-rule="nonzero"/></clipPath><clipPath id="4701be6de5"><path d="M 223 450 L 429.96875 450 L 429.96875 640.03125 L 223 640.03125 Z M 223 450 " clip-rule="nonzero"/></clipPath><clipPath id="b64bd51d6d"><path d="M 223 539.074219 L 429.96875 539.074219 L 429.96875 729.105469 L 223 729.105469 Z M 223 539.074219 " clip-rule="nonzero"/></clipPath><clipPath id="af4d412fd7"><path d="M 434.585938 450 L 641.804688 450 L 641.804688 640.03125 L 434.585938 640.03125 Z M 434.585938 450 " clip-rule="nonzero"/></clipPath><clipPath id="fa50139fee"><path d="M 434.585938 539.074219 L 641.804688 539.074219 L 641.804688 729.105469 L 434.585938 729.105469 Z M 434.585938 539.074219 " clip-rule="nonzero"/></clipPath><clipPath id="4b97540893"><path d="M 646.417969 450 L 853.636719 450 L 853.636719 640.03125 L 646.417969 640.03125 Z M 646.417969 450 " clip-rule="nonzero"/></clipPath><clipPath id="37f6e11bc0"><path d="M 646.417969 539.074219 L 853.636719 539.074219 L 853.636719 729.105469 L 646.417969 729.105469 Z M 646.417969 539.074219 " clip-rule="nonzero"/></clipPath></defs><g clip-path="url(#4b79a4c956)"><path fill="#1f3c66" d="M 832.582031 451.089844 C 839.625 451.089844 845.332031 445.378906 845.332031 438.335938 L 845.332031 396.472656 L 864.128906 396.472656 C 883.902344 396.472656 899.988281 380.386719 899.988281 360.613281 L 899.988281 315.605469 C 899.988281 295.832031 883.902344 279.746094 864.128906 279.746094 L 802.75 279.746094 L 462.746094 132.402344 L 462.746094 106.023438 L 577.503906 106.023438 C 584.546875 106.023438 590.257812 100.3125 590.257812 93.269531 L 590.257812 12.753906 C 590.257812 5.710938 584.546875 0 577.503906 0 L 449.992188 0 C 446.609375 0 443.367188 1.34375 440.976562 3.734375 C 438.585938 6.125 437.238281 9.371094 437.238281 12.753906 L 437.242188 132.40625 L 97.242188 279.746094 L 35.859375 279.746094 C 16.085938 279.746094 0 295.832031 0 315.605469 L 0 360.613281 C 0 380.386719 16.085938 396.472656 35.859375 396.472656 L 54.65625 396.472656 L 54.65625 438.335938 C 54.65625 445.378906 60.363281 451.089844 67.40625 451.089844 L 84.453125 451.089844 L 84.453125 728.023438 L 67.40625 728.023438 C 60.363281 728.023438 54.65625 733.734375 54.65625 740.777344 L 54.65625 782.640625 L 39.414062 782.640625 C 17.679688 782.640625 0 800.324219 0 822.054688 L 0 860.574219 C 0 882.308594 17.679688 899.988281 39.414062 899.988281 L 860.574219 899.988281 C 882.308594 899.988281 899.988281 882.308594 899.988281 860.574219 L 899.988281 822.054688 C 899.988281 800.324219 882.308594 782.640625 860.574219 782.640625 L 845.332031 782.640625 L 845.332031 740.777344 C 845.332031 733.734375 839.625 728.023438 832.582031 728.023438 L 815.535156 728.023438 L 815.535156 451.089844 Z M 819.828125 425.582031 L 716.828125 425.582031 L 716.828125 396.472656 L 819.828125 396.472656 Z M 704.074219 728.023438 C 697.03125 728.023438 691.324219 733.734375 691.324219 740.777344 L 691.324219 782.640625 L 633.109375 782.640625 L 633.109375 740.777344 C 633.109375 733.734375 627.402344 728.023438 620.359375 728.023438 L 603.3125 728.023438 L 603.3125 451.089844 L 620.359375 451.089844 C 627.402344 451.089844 633.109375 445.378906 633.109375 438.335938 L 633.109375 396.472656 L 691.324219 396.472656 L 691.324219 438.335938 C 691.324219 445.378906 697.03125 451.089844 704.074219 451.089844 L 721.121094 451.089844 L 721.121094 728.023438 Z M 195.914062 728.023438 L 178.867188 728.023438 L 178.867188 451.089844 L 195.914062 451.089844 C 202.957031 451.089844 208.667969 445.378906 208.667969 438.335938 L 208.667969 396.472656 L 266.878906 396.472656 L 266.878906 438.335938 C 266.878906 445.378906 272.585938 451.089844 279.628906 451.089844 L 296.675781 451.089844 L 296.675781 728.023438 L 279.628906 728.023438 C 272.585938 728.023438 266.878906 733.734375 266.878906 740.777344 L 266.878906 782.640625 L 208.667969 782.640625 L 208.667969 740.777344 C 208.667969 733.734375 202.957031 728.023438 195.914062 728.023438 Z M 322.183594 728.023438 L 322.183594 451.089844 L 365.582031 451.089844 L 365.582031 728.023438 Z M 292.382812 425.582031 L 292.382812 396.472656 L 395.382812 396.472656 L 395.382812 425.582031 Z M 292.382812 753.53125 L 395.382812 753.53125 L 395.382812 782.640625 L 292.382812 782.640625 Z M 408.136719 728.023438 L 391.085938 728.023438 L 391.085938 451.089844 L 408.136719 451.089844 C 415.179688 451.089844 420.890625 445.378906 420.890625 438.335938 L 420.890625 396.472656 L 479.097656 396.472656 L 479.097656 438.335938 C 479.097656 445.378906 484.808594 451.089844 491.851562 451.089844 L 508.898438 451.089844 L 508.898438 728.023438 L 491.851562 728.023438 C 484.808594 728.023438 479.097656 733.734375 479.097656 740.777344 L 479.097656 782.640625 L 420.890625 782.640625 L 420.890625 740.777344 C 420.890625 733.734375 415.179688 728.023438 408.136719 728.023438 Z M 534.40625 728.023438 L 534.40625 451.089844 L 577.804688 451.089844 L 577.804688 728.023438 Z M 504.605469 425.582031 L 504.605469 396.472656 L 607.605469 396.472656 L 607.605469 425.582031 Z M 504.605469 753.53125 L 607.605469 753.53125 L 607.605469 782.640625 L 504.605469 782.640625 Z M 462.746094 25.503906 L 564.753906 25.503906 L 564.753906 80.519531 L 462.746094 80.519531 Z M 449.996094 154.675781 L 738.601562 279.746094 L 161.386719 279.746094 Z M 25.503906 360.609375 L 25.503906 315.601562 C 25.503906 309.894531 30.148438 305.25 35.859375 305.25 L 864.132812 305.25 C 869.839844 305.25 874.484375 309.894531 874.484375 315.601562 L 874.484375 360.609375 C 874.484375 366.320312 869.839844 370.964844 864.132812 370.964844 L 35.859375 370.964844 C 30.148438 370.964844 25.503906 366.320312 25.503906 360.609375 Z M 80.160156 396.472656 L 183.160156 396.472656 L 183.160156 425.582031 L 80.160156 425.582031 Z M 109.960938 451.089844 L 153.359375 451.089844 L 153.359375 728.023438 L 109.960938 728.023438 Z M 80.160156 753.53125 L 183.160156 753.53125 L 183.160156 782.640625 L 80.160156 782.640625 Z M 874.484375 822.054688 L 874.484375 860.574219 C 874.484375 868.242188 868.242188 874.484375 860.574219 874.484375 L 39.414062 874.484375 C 31.746094 874.484375 25.503906 868.242188 25.503906 860.574219 L 25.503906 822.054688 C 25.503906 814.386719 31.746094 808.148438 39.414062 808.148438 L 860.574219 808.148438 C 868.242188 808.148438 874.484375 814.386719 874.484375 822.054688 Z M 819.828125 782.640625 L 716.828125 782.640625 L 716.828125 753.527344 L 819.828125 753.527344 Z M 790.027344 728.023438 L 746.628906 728.023438 L 746.628906 451.089844 L 790.027344 451.089844 Z M 790.027344 728.023438 " fill-opacity="1" fill-rule="nonzero"/></g><g clip-path="url(#b988c55c54)"><path fill="#d23b7d" d="M 154.515625 435.011719 L 154.515625 645.140625 L 109.339844 645.140625 L 109.339844 435.011719 Z M 92.757812 669.875 L 171.097656 669.875 C 178.796875 669.875 185.078125 676.15625 185.078125 683.855469 L 185.078125 684.421875 L 78.777344 684.421875 L 78.777344 683.855469 C 78.777344 676.15625 85.058594 669.875 92.757812 669.875 Z M 523.265625 669.875 L 601.605469 669.875 C 609.304688 669.875 615.585938 676.15625 615.585938 683.855469 L 615.585938 684.421875 L 509.289062 684.421875 L 509.289062 683.855469 C 509.289062 676.15625 515.566406 669.875 523.265625 669.875 Z M 379.761719 669.875 L 458.101562 669.875 C 465.800781 669.875 472.082031 676.15625 472.082031 683.855469 L 472.082031 684.421875 L 365.785156 684.421875 L 365.785156 683.855469 C 365.785156 676.15625 372.0625 669.875 379.761719 669.875 Z M 236.261719 669.875 L 314.601562 669.875 C 322.296875 669.875 328.578125 676.15625 328.578125 683.855469 L 328.578125 684.421875 L 222.28125 684.421875 L 222.28125 683.855469 C 222.28125 676.15625 228.5625 669.875 236.261719 669.875 Z M 347.179688 40.636719 L 429.429688 40.636719 C 439.261719 40.636719 445.015625 51.511719 439.878906 59.617188 L 426.34375 83.289062 L 440.152344 107.4375 C 444.90625 115.746094 438.777344 125.9375 429.429688 125.929688 L 359.550781 125.941406 L 359.550781 161.589844 L 683.066406 305.359375 L 683.066406 326.324219 L 11.300781 326.324219 L 11.300781 305.359375 L 334.816406 161.589844 L 334.8125 53.003906 C 334.8125 46.171875 340.351562 40.636719 347.179688 40.636719 Z M 11.300781 795.058594 L 683.0625 795.058594 L 683.0625 767.808594 C 683.0625 760.109375 676.78125 753.828125 669.082031 753.828125 L 25.277344 753.828125 C 17.582031 753.828125 11.300781 760.109375 11.300781 767.808594 Z M 60.914062 709.15625 L 633.453125 709.15625 C 641.148438 709.15625 647.429688 715.4375 647.429688 723.136719 L 647.429688 729.09375 L 46.933594 729.09375 L 46.933594 723.136719 C 46.933594 715.4375 53.210938 709.15625 60.914062 709.15625 Z M 647.429688 351.058594 L 647.429688 357.015625 C 647.429688 364.714844 641.152344 370.996094 633.453125 370.996094 L 60.914062 370.996094 C 53.214844 370.996094 46.933594 364.71875 46.933594 357.015625 L 46.933594 351.058594 Z M 615.585938 395.734375 L 615.585938 396.296875 C 615.585938 403.996094 609.304688 410.277344 601.605469 410.277344 L 523.265625 410.277344 C 515.566406 410.277344 509.285156 404 509.285156 396.296875 L 509.285156 395.734375 Z M 185.078125 395.734375 L 185.078125 396.296875 C 185.078125 403.996094 178.796875 410.277344 171.097656 410.277344 L 92.757812 410.277344 C 85.058594 410.277344 78.777344 404 78.777344 396.296875 L 78.777344 395.734375 Z M 328.578125 395.734375 L 328.578125 396.296875 C 328.578125 403.996094 322.300781 410.277344 314.601562 410.277344 L 236.261719 410.277344 C 228.5625 410.277344 222.28125 404 222.28125 396.296875 L 222.28125 395.734375 Z M 472.082031 395.734375 L 472.082031 396.296875 C 472.082031 403.996094 465.804688 410.277344 458.101562 410.277344 L 379.761719 410.277344 C 372.0625 410.277344 365.785156 404 365.785156 396.296875 L 365.785156 395.734375 Z M 585.023438 435.011719 L 585.023438 645.140625 L 539.847656 645.140625 L 539.847656 435.011719 Z M 441.523438 435.011719 L 441.523438 645.140625 L 396.34375 645.140625 L 396.34375 435.011719 Z M 298.019531 435.011719 L 298.019531 645.140625 L 252.84375 645.140625 L 252.84375 435.011719 Z M 298.019531 435.011719 " fill-opacity="1" fill-rule="evenodd"/></g><g clip-path="url(#ea1d22a916)"><path fill="#d23b7d" d="M 154.515625 524.085938 L 154.515625 734.214844 L 109.339844 734.214844 L 109.339844 524.085938 Z M 92.757812 758.949219 L 171.097656 758.949219 C 178.796875 758.949219 185.078125 765.230469 185.078125 772.929688 L 185.078125 773.496094 L 78.777344 773.496094 L 78.777344 772.929688 C 78.777344 765.230469 85.058594 758.949219 92.757812 758.949219 Z M 523.265625 758.949219 L 601.605469 758.949219 C 609.304688 758.949219 615.585938 765.230469 615.585938 772.929688 L 615.585938 773.496094 L 509.289062 773.496094 L 509.289062 772.929688 C 509.289062 765.230469 515.566406 758.949219 523.265625 758.949219 Z M 379.761719 758.949219 L 458.101562 758.949219 C 465.800781 758.949219 472.082031 765.230469 472.082031 772.929688 L 472.082031 773.496094 L 365.785156 773.496094 L 365.785156 772.929688 C 365.785156 765.230469 372.0625 758.949219 379.761719 758.949219 Z M 236.261719 758.949219 L 314.601562 758.949219 C 322.296875 758.949219 328.578125 765.230469 328.578125 772.929688 L 328.578125 773.496094 L 222.28125 773.496094 L 222.28125 772.929688 C 222.28125 765.230469 228.5625 758.949219 236.261719 758.949219 Z M 347.179688 129.710938 L 429.429688 129.710938 C 439.261719 129.710938 445.015625 140.589844 439.878906 148.691406 L 426.34375 172.363281 L 440.152344 196.511719 C 444.90625 204.820312 438.777344 215.011719 429.429688 215.003906 L 359.550781 215.015625 L 359.550781 250.664062 L 683.066406 394.433594 L 683.066406 415.398438 L 11.300781 415.398438 L 11.300781 394.433594 L 334.816406 250.664062 L 334.8125 142.078125 C 334.8125 135.246094 340.351562 129.710938 347.179688 129.710938 Z M 11.300781 884.132812 L 683.0625 884.132812 L 683.0625 856.882812 C 683.0625 849.183594 676.78125 842.902344 669.082031 842.902344 L 25.277344 842.902344 C 17.582031 842.902344 11.300781 849.183594 11.300781 856.882812 Z M 60.914062 798.230469 L 633.453125 798.230469 C 641.148438 798.230469 647.429688 804.511719 647.429688 812.210938 L 647.429688 818.167969 L 46.933594 818.167969 L 46.933594 812.210938 C 46.933594 804.511719 53.210938 798.230469 60.914062 798.230469 Z M 647.429688 440.132812 L 647.429688 446.09375 C 647.429688 453.789062 641.152344 460.070312 633.453125 460.070312 L 60.914062 460.070312 C 53.214844 460.070312 46.933594 453.792969 46.933594 446.09375 L 46.933594 440.132812 Z M 615.585938 484.808594 L 615.585938 485.375 C 615.585938 493.070312 609.304688 499.351562 601.605469 499.351562 L 523.265625 499.351562 C 515.566406 499.351562 509.285156 493.074219 509.285156 485.375 L 509.285156 484.808594 Z M 185.078125 484.808594 L 185.078125 485.375 C 185.078125 493.070312 178.796875 499.351562 171.097656 499.351562 L 92.757812 499.351562 C 85.058594 499.351562 78.777344 493.074219 78.777344 485.375 L 78.777344 484.808594 Z M 328.578125 484.808594 L 328.578125 485.375 C 328.578125 493.070312 322.300781 499.351562 314.601562 499.351562 L 236.261719 499.351562 C 228.5625 499.351562 222.28125 493.074219 222.28125 485.375 L 222.28125 484.808594 Z M 472.082031 484.808594 L 472.082031 485.375 C 472.082031 493.070312 465.804688 499.351562 458.101562 499.351562 L 379.761719 499.351562 C 372.0625 499.351562 365.785156 493.074219 365.785156 485.375 L 365.785156 484.808594 Z M 585.023438 524.085938 L 585.023438 734.214844 L 539.847656 734.214844 L 539.847656 524.085938 Z M 441.523438 524.085938 L 441.523438 734.214844 L 396.34375 734.214844 L 396.34375 524.085938 Z M 298.019531 524.085938 L 298.019531 734.214844 L 252.84375 734.214844 L 252.84375 524.085938 Z M 298.019531 524.085938 " fill-opacity="1" fill-rule="evenodd"/></g><g clip-path="url(#4701be6de5)"><path fill="#d23b7d" d="M 366.351562 435.011719 L 366.351562 645.140625 L 321.171875 645.140625 L 321.171875 435.011719 Z M 304.589844 669.875 L 382.929688 669.875 C 390.628906 669.875 396.910156 676.15625 396.910156 683.855469 L 396.910156 684.421875 L 290.609375 684.421875 L 290.609375 683.855469 C 290.609375 676.15625 296.890625 669.875 304.589844 669.875 Z M 735.101562 669.875 L 813.4375 669.875 C 821.136719 669.875 827.417969 676.15625 827.417969 683.855469 L 827.417969 684.421875 L 721.121094 684.421875 L 721.121094 683.855469 C 721.121094 676.15625 727.398438 669.875 735.101562 669.875 Z M 591.597656 669.875 L 669.933594 669.875 C 677.632812 669.875 683.914062 676.15625 683.914062 683.855469 L 683.914062 684.421875 L 577.617188 684.421875 L 577.617188 683.855469 C 577.617188 676.15625 583.898438 669.875 591.597656 669.875 Z M 448.09375 669.875 L 526.433594 669.875 C 534.132812 669.875 540.414062 676.15625 540.414062 683.855469 L 540.414062 684.421875 L 434.113281 684.421875 L 434.113281 683.855469 C 434.113281 676.15625 440.394531 669.875 448.09375 669.875 Z M 559.011719 40.636719 L 641.261719 40.636719 C 651.097656 40.636719 656.847656 51.511719 651.714844 59.617188 L 638.175781 83.289062 L 651.988281 107.4375 C 656.742188 115.746094 650.609375 125.9375 641.261719 125.929688 L 571.382812 125.941406 L 571.382812 161.589844 L 894.898438 305.359375 L 894.898438 326.324219 L 223.132812 326.324219 L 223.132812 305.359375 L 546.648438 161.589844 L 546.644531 53.003906 C 546.644531 46.171875 552.183594 40.636719 559.011719 40.636719 Z M 223.132812 795.058594 L 894.898438 795.058594 L 894.898438 767.808594 C 894.898438 760.109375 888.617188 753.828125 880.917969 753.828125 L 237.113281 753.828125 C 229.414062 753.828125 223.132812 760.109375 223.132812 767.808594 Z M 272.746094 709.15625 L 845.285156 709.15625 C 852.984375 709.15625 859.261719 715.4375 859.261719 723.136719 L 859.261719 729.09375 L 258.765625 729.09375 L 258.765625 723.136719 C 258.765625 715.4375 265.046875 709.15625 272.746094 709.15625 Z M 859.265625 351.058594 L 859.265625 357.015625 C 859.265625 364.714844 852.984375 370.996094 845.285156 370.996094 L 272.746094 370.996094 C 265.046875 370.996094 258.765625 364.71875 258.765625 357.015625 L 258.765625 351.058594 Z M 827.417969 395.734375 L 827.417969 396.296875 C 827.417969 403.996094 821.136719 410.277344 813.4375 410.277344 L 735.097656 410.277344 C 727.398438 410.277344 721.117188 404 721.117188 396.296875 L 721.117188 395.734375 Z M 396.910156 395.734375 L 396.910156 396.296875 C 396.910156 403.996094 390.628906 410.277344 382.929688 410.277344 L 304.589844 410.277344 C 296.890625 410.277344 290.609375 404 290.609375 396.296875 L 290.609375 395.734375 Z M 540.414062 395.734375 L 540.414062 396.296875 C 540.414062 403.996094 534.132812 410.277344 526.433594 410.277344 L 448.09375 410.277344 C 440.394531 410.277344 434.113281 404 434.113281 396.296875 L 434.113281 395.734375 Z M 683.914062 395.734375 L 683.914062 396.296875 C 683.914062 403.996094 677.636719 410.277344 669.933594 410.277344 L 591.597656 410.277344 C 583.898438 410.277344 577.617188 404 577.617188 396.296875 L 577.617188 395.734375 Z M 796.859375 435.011719 L 796.859375 645.140625 L 751.679688 645.140625 L 751.679688 435.011719 Z M 653.355469 435.011719 L 653.355469 645.140625 L 608.175781 645.140625 L 608.175781 435.011719 Z M 509.851562 435.011719 L 509.851562 645.140625 L 464.675781 645.140625 L 464.675781 435.011719 Z M 509.851562 435.011719 " fill-opacity="1" fill-rule="evenodd"/></g><g clip-path="url(#b64bd51d6d)"><path fill="#d23b7d" d="M 366.351562 524.085938 L 366.351562 734.214844 L 321.171875 734.214844 L 321.171875 524.085938 Z M 304.589844 758.949219 L 382.929688 758.949219 C 390.628906 758.949219 396.910156 765.230469 396.910156 772.929688 L 396.910156 773.496094 L 290.609375 773.496094 L 290.609375 772.929688 C 290.609375 765.230469 296.890625 758.949219 304.589844 758.949219 Z M 735.101562 758.949219 L 813.4375 758.949219 C 821.136719 758.949219 827.417969 765.230469 827.417969 772.929688 L 827.417969 773.496094 L 721.121094 773.496094 L 721.121094 772.929688 C 721.121094 765.230469 727.398438 758.949219 735.101562 758.949219 Z M 591.597656 758.949219 L 669.933594 758.949219 C 677.632812 758.949219 683.914062 765.230469 683.914062 772.929688 L 683.914062 773.496094 L 577.617188 773.496094 L 577.617188 772.929688 C 577.617188 765.230469 583.898438 758.949219 591.597656 758.949219 Z M 448.09375 758.949219 L 526.433594 758.949219 C 534.132812 758.949219 540.414062 765.230469 540.414062 772.929688 L 540.414062 773.496094 L 434.113281 773.496094 L 434.113281 772.929688 C 434.113281 765.230469 440.394531 758.949219 448.09375 758.949219 Z M 559.011719 129.710938 L 641.261719 129.710938 C 651.097656 129.710938 656.847656 140.589844 651.714844 148.691406 L 638.175781 172.363281 L 651.988281 196.511719 C 656.742188 204.820312 650.609375 215.011719 641.261719 215.003906 L 571.382812 215.015625 L 571.382812 250.664062 L 894.898438 394.433594 L 894.898438 415.398438 L 223.132812 415.398438 L 223.132812 394.433594 L 546.648438 250.664062 L 546.644531 142.078125 C 546.644531 135.246094 552.183594 129.710938 559.011719 129.710938 Z M 223.132812 884.132812 L 894.898438 884.132812 L 894.898438 856.882812 C 894.898438 849.183594 888.617188 842.902344 880.917969 842.902344 L 237.113281 842.902344 C 229.414062 842.902344 223.132812 849.183594 223.132812 856.882812 Z M 272.746094 798.230469 L 845.285156 798.230469 C 852.984375 798.230469 859.261719 804.511719 859.261719 812.210938 L 859.261719 818.167969 L 258.765625 818.167969 L 258.765625 812.210938 C 258.765625 804.511719 265.046875 798.230469 272.746094 798.230469 Z M 859.265625 440.132812 L 859.265625 446.09375 C 859.265625 453.789062 852.984375 460.070312 845.285156 460.070312 L 272.746094 460.070312 C 265.046875 460.070312 258.765625 453.792969 258.765625 446.09375 L 258.765625 440.132812 Z M 827.417969 484.808594 L 827.417969 485.375 C 827.417969 493.070312 821.136719 499.351562 813.4375 499.351562 L 735.097656 499.351562 C 727.398438 499.351562 721.117188 493.074219 721.117188 485.375 L 721.117188 484.808594 Z M 396.910156 484.808594 L 396.910156 485.375 C 396.910156 493.070312 390.628906 499.351562 382.929688 499.351562 L 304.589844 499.351562 C 296.890625 499.351562 290.609375 493.074219 290.609375 485.375 L 290.609375 484.808594 Z M 540.414062 484.808594 L 540.414062 485.375 C 540.414062 493.070312 534.132812 499.351562 526.433594 499.351562 L 448.09375 499.351562 C 440.394531 499.351562 434.113281 493.074219 434.113281 485.375 L 434.113281 484.808594 Z M 683.914062 484.808594 L 683.914062 485.375 C 683.914062 493.070312 677.636719 499.351562 669.933594 499.351562 L 591.597656 499.351562 C 583.898438 499.351562 577.617188 493.074219 577.617188 485.375 L 577.617188 484.808594 Z M 796.859375 524.085938 L 796.859375 734.214844 L 751.679688 734.214844 L 751.679688 524.085938 Z M 653.355469 524.085938 L 653.355469 734.214844 L 608.175781 734.214844 L 608.175781 524.085938 Z M 509.851562 524.085938 L 509.851562 734.214844 L 464.675781 734.214844 L 464.675781 524.085938 Z M 509.851562 524.085938 " fill-opacity="1" fill-rule="evenodd"/></g><g clip-path="url(#af4d412fd7)"><path fill="#d23b7d" d="M 578.183594 435.011719 L 578.183594 645.140625 L 533.003906 645.140625 L 533.003906 435.011719 Z M 516.421875 669.875 L 594.761719 669.875 C 602.460938 669.875 608.742188 676.15625 608.742188 683.855469 L 608.742188 684.421875 L 502.445312 684.421875 L 502.445312 683.855469 C 502.445312 676.15625 508.722656 669.875 516.421875 669.875 Z M 946.933594 669.875 L 1025.273438 669.875 C 1032.972656 669.875 1039.253906 676.15625 1039.253906 683.855469 L 1039.253906 684.421875 L 932.953125 684.421875 L 932.953125 683.855469 C 932.953125 676.15625 939.230469 669.875 946.933594 669.875 Z M 803.429688 669.875 L 881.769531 669.875 C 889.46875 669.875 895.746094 676.15625 895.746094 683.855469 L 895.746094 684.421875 L 789.449219 684.421875 L 789.449219 683.855469 C 789.449219 676.15625 795.730469 669.875 803.429688 669.875 Z M 659.925781 669.875 L 738.265625 669.875 C 745.964844 669.875 752.246094 676.15625 752.246094 683.855469 L 752.246094 684.421875 L 645.949219 684.421875 L 645.949219 683.855469 C 645.949219 676.15625 652.226562 669.875 659.925781 669.875 Z M 770.847656 40.636719 L 853.09375 40.636719 C 862.929688 40.636719 868.679688 51.511719 863.546875 59.617188 L 850.007812 83.289062 L 863.820312 107.4375 C 868.574219 115.746094 862.445312 125.9375 853.09375 125.929688 L 783.214844 125.941406 L 783.214844 161.589844 L 1106.730469 305.359375 L 1106.730469 326.324219 L 434.964844 326.324219 L 434.964844 305.359375 L 758.480469 161.589844 L 758.480469 53.003906 C 758.480469 46.171875 764.015625 40.636719 770.847656 40.636719 Z M 434.964844 795.058594 L 1106.730469 795.058594 L 1106.730469 767.808594 C 1106.730469 760.109375 1100.449219 753.828125 1092.75 753.828125 L 448.945312 753.828125 C 441.246094 753.828125 434.964844 760.109375 434.964844 767.808594 Z M 484.578125 709.15625 L 1057.117188 709.15625 C 1064.816406 709.15625 1071.09375 715.4375 1071.09375 723.136719 L 1071.09375 729.09375 L 470.597656 729.09375 L 470.597656 723.136719 C 470.597656 715.4375 476.878906 709.15625 484.578125 709.15625 Z M 1071.097656 351.058594 L 1071.097656 357.015625 C 1071.097656 364.714844 1064.816406 370.996094 1057.117188 370.996094 L 484.578125 370.996094 C 476.878906 370.996094 470.597656 364.71875 470.597656 357.015625 L 470.597656 351.058594 Z M 1039.25 395.734375 L 1039.25 396.296875 C 1039.25 403.996094 1032.972656 410.277344 1025.269531 410.277344 L 946.929688 410.277344 C 939.230469 410.277344 932.953125 404 932.953125 396.296875 L 932.953125 395.734375 Z M 608.742188 395.734375 L 608.742188 396.296875 C 608.742188 403.996094 602.464844 410.277344 594.761719 410.277344 L 516.421875 410.277344 C 508.722656 410.277344 502.445312 404 502.445312 396.296875 L 502.445312 395.734375 Z M 752.246094 395.734375 L 752.246094 396.296875 C 752.246094 403.996094 745.964844 410.277344 738.265625 410.277344 L 659.925781 410.277344 C 652.226562 410.277344 645.949219 404 645.949219 396.296875 L 645.949219 395.734375 Z M 895.746094 395.734375 L 895.746094 396.296875 C 895.746094 403.996094 889.46875 410.277344 881.769531 410.277344 L 803.429688 410.277344 C 795.730469 410.277344 789.449219 404 789.449219 396.296875 L 789.449219 395.734375 Z M 1008.691406 435.011719 L 1008.691406 645.140625 L 963.511719 645.140625 L 963.511719 435.011719 Z M 865.1875 435.011719 L 865.1875 645.140625 L 820.011719 645.140625 L 820.011719 435.011719 Z M 721.683594 435.011719 L 721.683594 645.140625 L 676.507812 645.140625 L 676.507812 435.011719 Z M 721.683594 435.011719 " fill-opacity="1" fill-rule="evenodd"/></g><g clip-path="url(#fa50139fee)"><path fill="#d23b7d" d="M 578.183594 524.085938 L 578.183594 734.214844 L 533.003906 734.214844 L 533.003906 524.085938 Z M 516.421875 758.949219 L 594.761719 758.949219 C 602.460938 758.949219 608.742188 765.230469 608.742188 772.929688 L 608.742188 773.496094 L 502.445312 773.496094 L 502.445312 772.929688 C 502.445312 765.230469 508.722656 758.949219 516.421875 758.949219 Z M 946.933594 758.949219 L 1025.273438 758.949219 C 1032.972656 758.949219 1039.253906 765.230469 1039.253906 772.929688 L 1039.253906 773.496094 L 932.953125 773.496094 L 932.953125 772.929688 C 932.953125 765.230469 939.230469 758.949219 946.933594 758.949219 Z M 803.429688 758.949219 L 881.769531 758.949219 C 889.46875 758.949219 895.746094 765.230469 895.746094 772.929688 L 895.746094 773.496094 L 789.449219 773.496094 L 789.449219 772.929688 C 789.449219 765.230469 795.730469 758.949219 803.429688 758.949219 Z M 659.925781 758.949219 L 738.265625 758.949219 C 745.964844 758.949219 752.246094 765.230469 752.246094 772.929688 L 752.246094 773.496094 L 645.949219 773.496094 L 645.949219 772.929688 C 645.949219 765.230469 652.226562 758.949219 659.925781 758.949219 Z M 770.847656 129.710938 L 853.09375 129.710938 C 862.929688 129.710938 868.679688 140.589844 863.546875 148.691406 L 850.007812 172.363281 L 863.820312 196.511719 C 868.574219 204.820312 862.445312 215.011719 853.09375 215.003906 L 783.214844 215.015625 L 783.214844 250.664062 L 1106.730469 394.433594 L 1106.730469 415.398438 L 434.964844 415.398438 L 434.964844 394.433594 L 758.480469 250.664062 L 758.480469 142.078125 C 758.480469 135.246094 764.015625 129.710938 770.847656 129.710938 Z M 434.964844 884.132812 L 1106.730469 884.132812 L 1106.730469 856.882812 C 1106.730469 849.183594 1100.449219 842.902344 1092.75 842.902344 L 448.945312 842.902344 C 441.246094 842.902344 434.964844 849.183594 434.964844 856.882812 Z M 484.578125 798.230469 L 1057.117188 798.230469 C 1064.816406 798.230469 1071.09375 804.511719 1071.09375 812.210938 L 1071.09375 818.167969 L 470.597656 818.167969 L 470.597656 812.210938 C 470.597656 804.511719 476.878906 798.230469 484.578125 798.230469 Z M 1071.097656 440.132812 L 1071.097656 446.09375 C 1071.097656 453.789062 1064.816406 460.070312 1057.117188 460.070312 L 484.578125 460.070312 C 476.878906 460.070312 470.597656 453.792969 470.597656 446.09375 L 470.597656 440.132812 Z M 1039.25 484.808594 L 1039.25 485.375 C 1039.25 493.070312 1032.972656 499.351562 1025.269531 499.351562 L 946.929688 499.351562 C 939.230469 499.351562 932.953125 493.074219 932.953125 485.375 L 932.953125 484.808594 Z M 608.742188 484.808594 L 608.742188 485.375 C 608.742188 493.070312 602.464844 499.351562 594.761719 499.351562 L 516.421875 499.351562 C 508.722656 499.351562 502.445312 493.074219 502.445312 485.375 L 502.445312 484.808594 Z M 752.246094 484.808594 L 752.246094 485.375 C 752.246094 493.070312 745.964844 499.351562 738.265625 499.351562 L 659.925781 499.351562 C 652.226562 499.351562 645.949219 493.074219 645.949219 485.375 L 645.949219 484.808594 Z M 895.746094 484.808594 L 895.746094 485.375 C 895.746094 493.070312 889.46875 499.351562 881.769531 499.351562 L 803.429688 499.351562 C 795.730469 499.351562 789.449219 493.074219 789.449219 485.375 L 789.449219 484.808594 Z M 1008.691406 524.085938 L 1008.691406 734.214844 L 963.511719 734.214844 L 963.511719 524.085938 Z M 865.1875 524.085938 L 865.1875 734.214844 L 820.011719 734.214844 L 820.011719 524.085938 Z M 721.683594 524.085938 L 721.683594 734.214844 L 676.507812 734.214844 L 676.507812 524.085938 Z M 721.683594 524.085938 " fill-opacity="1" fill-rule="evenodd"/></g><g clip-path="url(#4b97540893)"><path fill="#d23b7d" d="M 790.015625 435.011719 L 790.015625 645.140625 L 744.839844 645.140625 L 744.839844 435.011719 Z M 728.257812 669.875 L 806.59375 669.875 C 814.292969 669.875 820.574219 676.15625 820.574219 683.855469 L 820.574219 684.421875 L 714.277344 684.421875 L 714.277344 683.855469 C 714.277344 676.15625 720.554688 669.875 728.257812 669.875 Z M 1158.765625 669.875 L 1237.105469 669.875 C 1244.804688 669.875 1251.085938 676.15625 1251.085938 683.855469 L 1251.085938 684.421875 L 1144.785156 684.421875 L 1144.785156 683.855469 C 1144.785156 676.15625 1151.066406 669.875 1158.765625 669.875 Z M 1015.261719 669.875 L 1093.601562 669.875 C 1101.300781 669.875 1107.582031 676.15625 1107.582031 683.855469 L 1107.582031 684.421875 L 1001.28125 684.421875 L 1001.28125 683.855469 C 1001.28125 676.15625 1007.5625 669.875 1015.261719 669.875 Z M 871.757812 669.875 L 950.097656 669.875 C 957.796875 669.875 964.078125 676.15625 964.078125 683.855469 L 964.078125 684.421875 L 857.78125 684.421875 L 857.78125 683.855469 C 857.78125 676.15625 864.058594 669.875 871.757812 669.875 Z M 982.679688 40.636719 L 1064.925781 40.636719 C 1074.761719 40.636719 1080.515625 51.511719 1075.378906 59.617188 L 1061.84375 83.289062 L 1075.652344 107.4375 C 1080.40625 115.746094 1074.277344 125.9375 1064.925781 125.929688 L 995.046875 125.941406 L 995.046875 161.589844 L 1318.5625 305.359375 L 1318.5625 326.324219 L 646.796875 326.324219 L 646.796875 305.359375 L 970.3125 161.589844 L 970.3125 53.003906 C 970.3125 46.171875 975.847656 40.636719 982.679688 40.636719 Z M 646.796875 795.058594 L 1318.5625 795.058594 L 1318.5625 767.808594 C 1318.5625 760.109375 1312.28125 753.828125 1304.582031 753.828125 L 660.777344 753.828125 C 653.078125 753.828125 646.800781 760.109375 646.800781 767.808594 L 646.800781 795.058594 Z M 696.410156 709.15625 L 1268.949219 709.15625 C 1276.648438 709.15625 1282.929688 715.4375 1282.929688 723.136719 L 1282.929688 729.09375 L 682.429688 729.09375 L 682.429688 723.136719 C 682.429688 715.4375 688.710938 709.15625 696.410156 709.15625 Z M 1282.929688 351.058594 L 1282.929688 357.015625 C 1282.929688 364.714844 1276.648438 370.996094 1268.953125 370.996094 L 696.410156 370.996094 C 688.710938 370.996094 682.429688 364.71875 682.429688 357.015625 L 682.429688 351.058594 Z M 1251.082031 395.734375 L 1251.082031 396.296875 C 1251.082031 403.996094 1244.804688 410.277344 1237.101562 410.277344 L 1158.765625 410.277344 C 1151.0625 410.277344 1144.785156 404 1144.785156 396.296875 L 1144.785156 395.734375 Z M 820.574219 395.734375 L 820.574219 396.296875 C 820.574219 403.996094 814.296875 410.277344 806.59375 410.277344 L 728.257812 410.277344 C 720.554688 410.277344 714.277344 404 714.277344 396.296875 L 714.277344 395.734375 Z M 964.078125 395.734375 L 964.078125 396.296875 C 964.078125 403.996094 957.796875 410.277344 950.097656 410.277344 L 871.757812 410.277344 C 864.058594 410.277344 857.78125 404 857.78125 396.296875 L 857.78125 395.734375 Z M 1107.582031 395.734375 L 1107.582031 396.296875 C 1107.582031 403.996094 1101.300781 410.277344 1093.601562 410.277344 L 1015.261719 410.277344 C 1007.5625 410.277344 1001.28125 404 1001.28125 396.296875 L 1001.28125 395.734375 Z M 1220.523438 435.011719 L 1220.523438 645.140625 L 1175.347656 645.140625 L 1175.347656 435.011719 Z M 1077.019531 435.011719 L 1077.019531 645.140625 L 1031.84375 645.140625 L 1031.84375 435.011719 Z M 933.519531 435.011719 L 933.519531 645.140625 L 888.339844 645.140625 L 888.339844 435.011719 Z M 933.519531 435.011719 " fill-opacity="1" fill-rule="evenodd"/></g><g clip-path="url(#37f6e11bc0)"><path fill="#d23b7d" d="M 790.015625 524.085938 L 790.015625 734.214844 L 744.839844 734.214844 L 744.839844 524.085938 Z M 728.257812 758.949219 L 806.59375 758.949219 C 814.292969 758.949219 820.574219 765.230469 820.574219 772.929688 L 820.574219 773.496094 L 714.277344 773.496094 L 714.277344 772.929688 C 714.277344 765.230469 720.554688 758.949219 728.257812 758.949219 Z M 1158.765625 758.949219 L 1237.105469 758.949219 C 1244.804688 758.949219 1251.085938 765.230469 1251.085938 772.929688 L 1251.085938 773.496094 L 1144.785156 773.496094 L 1144.785156 772.929688 C 1144.785156 765.230469 1151.066406 758.949219 1158.765625 758.949219 Z M 1015.261719 758.949219 L 1093.601562 758.949219 C 1101.300781 758.949219 1107.582031 765.230469 1107.582031 772.929688 L 1107.582031 773.496094 L 1001.28125 773.496094 L 1001.28125 772.929688 C 1001.28125 765.230469 1007.5625 758.949219 1015.261719 758.949219 Z M 871.757812 758.949219 L 950.097656 758.949219 C 957.796875 758.949219 964.078125 765.230469 964.078125 772.929688 L 964.078125 773.496094 L 857.78125 773.496094 L 857.78125 772.929688 C 857.78125 765.230469 864.058594 758.949219 871.757812 758.949219 Z M 982.679688 129.710938 L 1064.925781 129.710938 C 1074.761719 129.710938 1080.515625 140.589844 1075.378906 148.691406 L 1061.84375 172.363281 L 1075.652344 196.511719 C 1080.40625 204.820312 1074.277344 215.011719 1064.925781 215.003906 L 995.046875 215.015625 L 995.046875 250.664062 L 1318.5625 394.433594 L 1318.5625 415.398438 L 646.796875 415.398438 L 646.796875 394.433594 L 970.3125 250.664062 L 970.3125 142.078125 C 970.3125 135.246094 975.847656 129.710938 982.679688 129.710938 Z M 646.796875 884.132812 L 1318.5625 884.132812 L 1318.5625 856.882812 C 1318.5625 849.183594 1312.28125 842.902344 1304.582031 842.902344 L 660.777344 842.902344 C 653.078125 842.902344 646.800781 849.183594 646.800781 856.882812 L 646.800781 884.132812 Z M 696.410156 798.230469 L 1268.949219 798.230469 C 1276.648438 798.230469 1282.929688 804.511719 1282.929688 812.210938 L 1282.929688 818.167969 L 682.429688 818.167969 L 682.429688 812.210938 C 682.429688 804.511719 688.710938 798.230469 696.410156 798.230469 Z M 1282.929688 440.132812 L 1282.929688 446.09375 C 1282.929688 453.789062 1276.648438 460.070312 1268.953125 460.070312 L 696.410156 460.070312 C 688.710938 460.070312 682.429688 453.792969 682.429688 446.09375 L 682.429688 440.132812 Z M 1251.082031 484.808594 L 1251.082031 485.375 C 1251.082031 493.070312 1244.804688 499.351562 1237.101562 499.351562 L 1158.765625 499.351562 C 1151.0625 499.351562 1144.785156 493.074219 1144.785156 485.375 L 1144.785156 484.808594 Z M 820.574219 484.808594 L 820.574219 485.375 C 820.574219 493.070312 814.296875 499.351562 806.59375 499.351562 L 728.257812 499.351562 C 720.554688 499.351562 714.277344 493.074219 714.277344 485.375 L 714.277344 484.808594 Z M 964.078125 484.808594 L 964.078125 485.375 C 964.078125 493.070312 957.796875 499.351562 950.097656 499.351562 L 871.757812 499.351562 C 864.058594 499.351562 857.78125 493.074219 857.78125 485.375 L 857.78125 484.808594 Z M 1107.582031 484.808594 L 1107.582031 485.375 C 1107.582031 493.070312 1101.300781 499.351562 1093.601562 499.351562 L 1015.261719 499.351562 C 1007.5625 499.351562 1001.28125 493.074219 1001.28125 485.375 L 1001.28125 484.808594 Z M 1220.523438 524.085938 L 1220.523438 734.214844 L 1175.347656 734.214844 L 1175.347656 524.085938 Z M 1077.019531 524.085938 L 1077.019531 734.214844 L 1031.84375 734.214844 L 1031.84375 524.085938 Z M 933.519531 524.085938 L 933.519531 734.214844 L 888.339844 734.214844 L 888.339844 524.085938 Z M 933.519531 524.085938 " fill-opacity="1" fill-rule="evenodd"/></g></svg>
