<svg xmlns="http://www.w3.org/2000/svg" xmlns:xlink="http://www.w3.org/1999/xlink" width="1200" zoomAndPan="magnify" viewBox="0 0 900 899.99999" height="1200" preserveAspectRatio="xMidYMid meet" version="1.0"><defs><clipPath id="9017b9c270"><path d="M 171 31.5 L 730 31.5 L 730 528 L 171 528 Z M 171 31.5 " clip-rule="nonzero"/></clipPath><clipPath id="80cf758d15"><path d="M 161.066406 408 L 373 408 L 373 477.75 L 161.066406 477.75 Z M 161.066406 408 " clip-rule="nonzero"/></clipPath><clipPath id="7795ea2a28"><path d="M 527 408 L 737.816406 408 L 737.816406 477.75 L 527 477.75 Z M 527 408 " clip-rule="nonzero"/></clipPath><clipPath id="f77822bdad"><path d="M 171 31.5 L 730 31.5 L 730 477.75 L 171 477.75 Z M 171 31.5 " clip-rule="nonzero"/></clipPath><clipPath id="be936dea24"><path d="M 299.660156 408 L 372 408 L 372 547.488281 L 299.660156 547.488281 Z M 299.660156 408 " clip-rule="nonzero"/></clipPath><clipPath id="1cc93e23ec"><path d="M 526 408 L 604.910156 408 L 604.910156 547.488281 L 526 547.488281 Z M 526 408 " clip-rule="nonzero"/></clipPath><clipPath id="33fade702d"><path d="M 299.660156 401.988281 L 604.910156 401.988281 L 604.910156 529 L 299.660156 529 Z M 299.660156 401.988281 " clip-rule="nonzero"/></clipPath></defs><path fill="#1f3c66" d="M 186.347656 837.964844 L 403.472656 837.964844 L 403.472656 900 L 186.347656 900 Z M 186.347656 837.964844 " fill-opacity="1" fill-rule="nonzero"/><path fill="#1f3c66" d="M 97.792969 430.078125 L 129.121094 524.0625 C 136.71875 514.914062 146.492188 508.398438 157.035156 504.367188 L 114.851562 377.8125 C 110.820312 365.5625 101.980469 355.945312 90.347656 350.519531 C 78.5625 345.089844 65.535156 344.78125 53.4375 349.589844 L 50.179688 350.828125 L 60.570312 386.808594 C 77.941406 395.960938 91.433594 411.160156 97.792969 430.078125 Z M 97.792969 430.078125 " fill-opacity="1" fill-rule="nonzero"/><path fill="#1f3c66" d="M 217.367188 775.929688 L 217.367188 806.945312 L 372.457031 806.945312 L 372.457031 683.804688 C 372.457031 668.761719 365.167969 654.648438 352.914062 645.964844 L 201.082031 537.402344 C 185.726562 526.546875 164.480469 529.492188 152.847656 544.226562 C 145.558594 553.21875 143.386719 564.851562 146.179688 575.398438 L 146.957031 577.878906 L 147.421875 579.273438 C 149.59375 584.859375 153.3125 589.976562 158.277344 594.007812 L 273.507812 686.285156 C 280.332031 691.558594 281.417969 701.332031 275.988281 708 C 270.714844 714.824219 260.945312 715.910156 254.277344 710.480469 L 138.890625 618.359375 C 127.722656 609.207031 120.125 597.265625 116.402344 584.238281 L 68.324219 440.003906 C 63.984375 426.976562 54.210938 416.585938 41.804688 411.625 C 30.484375 407.125 18.078125 407.125 6.910156 411.625 L 3.652344 412.863281 L 71.582031 643.792969 C 74.21875 653.253906 79.800781 661.316406 87.554688 667.367188 L 211.316406 763.675781 C 215.195312 766.625 217.367188 771.121094 217.367188 775.929688 Z M 217.367188 775.929688 " fill-opacity="1" fill-rule="nonzero"/><path fill="#1f3c66" d="M 893.089844 411.625 C 881.921875 407.125 869.515625 407.125 858.195312 411.625 C 845.789062 416.585938 836.015625 426.976562 831.675781 440.003906 L 783.441406 584.546875 C 779.875 597.421875 772.277344 609.363281 761.109375 618.359375 L 645.722656 710.480469 C 639.054688 715.910156 629.285156 714.824219 624.011719 708 C 618.582031 701.332031 619.667969 691.558594 626.492188 686.285156 L 741.722656 594.007812 C 746.53125 590.132812 750.253906 585.167969 752.425781 579.585938 C 752.578125 578.964844 752.734375 578.34375 753.042969 577.722656 C 753.042969 577.570312 753.664062 576.019531 753.664062 575.707031 L 753.664062 575.398438 C 756.613281 564.851562 754.441406 553.21875 747.152344 544.226562 C 735.363281 529.492188 714.273438 526.546875 698.917969 537.402344 L 547.085938 645.964844 C 534.832031 654.648438 527.542969 668.761719 527.542969 683.804688 L 527.542969 806.945312 L 682.632812 806.945312 L 682.632812 775.929688 C 682.632812 771.121094 684.804688 766.625 688.683594 763.675781 L 812.445312 667.367188 C 820.199219 661.316406 825.78125 653.253906 828.417969 643.792969 L 896.347656 412.863281 Z M 893.089844 411.625 " fill-opacity="1" fill-rule="nonzero"/><path fill="#1f3c66" d="M 770.878906 524.0625 L 802.207031 430.078125 C 808.566406 411.160156 822.058594 395.960938 839.429688 386.65625 L 849.820312 350.828125 L 846.5625 349.589844 C 834.464844 344.78125 821.4375 345.089844 809.652344 350.519531 C 798.019531 355.945312 789.179688 365.5625 785.148438 377.96875 L 742.964844 504.367188 C 753.507812 508.398438 763.28125 514.914062 770.878906 524.0625 Z M 770.878906 524.0625 " fill-opacity="1" fill-rule="nonzero"/><path fill="#1f3c66" d="M 496.527344 837.964844 L 713.652344 837.964844 L 713.652344 900 L 496.527344 900 Z M 496.527344 837.964844 " fill-opacity="1" fill-rule="nonzero"/><g clip-path="url(#9017b9c270)"><path fill="#1f3c66" d="M 729.160156 208.300781 L 729.160156 190.3125 C 729.160156 102.53125 657.976562 31.5 570.347656 31.5 L 562.441406 31.5 C 520.253906 31.5 479.933594 48.25 450.15625 78.027344 C 420.378906 48.25 379.898438 31.5 337.871094 31.5 L 329.960938 31.5 C 242.179688 31.5 171.148438 102.6875 171.148438 190.3125 L 171.148438 208.300781 C 171.148438 253.742188 190.535156 296.859375 224.5 327.101562 L 450.308594 527.785156 L 676.121094 327.101562 C 710.085938 297.011719 729.472656 253.742188 729.472656 208.300781 Z M 543.054688 279.644531 L 481.019531 279.644531 L 481.019531 341.679688 L 418.980469 341.679688 L 418.980469 279.644531 L 356.945312 279.644531 L 356.945312 217.605469 L 418.980469 217.605469 L 418.980469 155.570312 L 481.019531 155.570312 L 481.019531 217.605469 L 543.054688 217.605469 Z M 543.054688 279.644531 " fill-opacity="1" fill-rule="nonzero"/></g><g clip-path="url(#80cf758d15)"><path fill="#3bc8d2" d="M 217.367188 775.929688 L 217.367188 806.945312 L 372.457031 806.945312 L 372.457031 683.804688 C 372.457031 668.761719 365.167969 654.648438 352.914062 645.964844 L 201.082031 537.402344 C 185.726562 526.546875 164.480469 529.492188 152.847656 544.226562 C 145.558594 553.21875 143.386719 564.851562 146.179688 575.398438 L 146.957031 577.878906 L 147.421875 579.273438 C 149.59375 584.859375 153.3125 589.976562 158.277344 594.007812 L 273.507812 686.285156 C 280.332031 691.558594 281.417969 701.332031 275.988281 708 C 270.714844 714.824219 260.945312 715.910156 254.277344 710.480469 L 138.890625 618.359375 C 127.722656 609.207031 120.125 597.265625 116.402344 584.238281 L 68.324219 440.003906 C 63.984375 426.976562 54.210938 416.585938 41.804688 411.625 C 30.484375 407.125 18.078125 407.125 6.910156 411.625 L 3.652344 412.863281 L 71.582031 643.792969 C 74.21875 653.253906 79.800781 661.316406 87.554688 667.367188 L 211.316406 763.675781 C 215.195312 766.625 217.367188 771.121094 217.367188 775.929688 Z M 217.367188 775.929688 " fill-opacity="1" fill-rule="nonzero"/></g><g clip-path="url(#7795ea2a28)"><path fill="#3bc8d2" d="M 893.089844 411.625 C 881.921875 407.125 869.515625 407.125 858.195312 411.625 C 845.789062 416.585938 836.015625 426.976562 831.675781 440.003906 L 783.441406 584.546875 C 779.875 597.421875 772.277344 609.363281 761.109375 618.359375 L 645.722656 710.480469 C 639.054688 715.910156 629.285156 714.824219 624.011719 708 C 618.582031 701.332031 619.667969 691.558594 626.492188 686.285156 L 741.722656 594.007812 C 746.53125 590.132812 750.253906 585.167969 752.425781 579.585938 C 752.578125 578.964844 752.734375 578.34375 753.042969 577.722656 C 753.042969 577.570312 753.664062 576.019531 753.664062 575.707031 L 753.664062 575.398438 C 756.613281 564.851562 754.441406 553.21875 747.152344 544.226562 C 735.363281 529.492188 714.273438 526.546875 698.917969 537.402344 L 547.085938 645.964844 C 534.832031 654.648438 527.542969 668.761719 527.542969 683.804688 L 527.542969 806.945312 L 682.632812 806.945312 L 682.632812 775.929688 C 682.632812 771.121094 684.804688 766.625 688.683594 763.675781 L 812.445312 667.367188 C 820.199219 661.316406 825.78125 653.253906 828.417969 643.792969 L 896.347656 412.863281 Z M 893.089844 411.625 " fill-opacity="1" fill-rule="nonzero"/></g><g clip-path="url(#f77822bdad)"><path fill="#3bc8d2" d="M 729.160156 208.300781 L 729.160156 190.3125 C 729.160156 102.53125 657.976562 31.5 570.347656 31.5 L 562.441406 31.5 C 520.253906 31.5 479.933594 48.25 450.15625 78.027344 C 420.378906 48.25 379.898438 31.5 337.871094 31.5 L 329.960938 31.5 C 242.179688 31.5 171.148438 102.6875 171.148438 190.3125 L 171.148438 208.300781 C 171.148438 253.742188 190.535156 296.859375 224.5 327.101562 L 450.308594 527.785156 L 676.121094 327.101562 C 710.085938 297.011719 729.472656 253.742188 729.472656 208.300781 Z M 543.054688 279.644531 L 481.019531 279.644531 L 481.019531 341.679688 L 418.980469 341.679688 L 418.980469 279.644531 L 356.945312 279.644531 L 356.945312 217.605469 L 418.980469 217.605469 L 418.980469 155.570312 L 481.019531 155.570312 L 481.019531 217.605469 L 543.054688 217.605469 Z M 543.054688 279.644531 " fill-opacity="1" fill-rule="nonzero"/></g><g clip-path="url(#be936dea24)"><path fill="#3bc8d2" d="M 216.78125 776.660156 L 216.78125 807.675781 L 371.871094 807.675781 L 371.871094 684.535156 C 371.871094 669.492188 364.582031 655.378906 352.328125 646.695312 L 200.496094 538.132812 C 185.144531 527.277344 163.894531 530.222656 152.265625 544.957031 C 144.972656 553.953125 142.804688 565.582031 145.59375 576.128906 L 146.371094 578.609375 L 146.835938 580.007812 C 149.007812 585.589844 152.730469 590.707031 157.691406 594.738281 L 272.921875 687.019531 C 279.746094 692.292969 280.832031 702.0625 275.40625 708.730469 C 270.132812 715.554688 260.359375 716.640625 253.691406 711.210938 L 138.304688 619.089844 C 127.140625 609.9375 119.539062 597.996094 115.816406 584.96875 L 67.738281 440.738281 C 63.398438 427.710938 53.628906 417.316406 41.21875 412.355469 C 29.898438 407.859375 17.492188 407.859375 6.324219 412.355469 L 3.066406 413.597656 L 70.996094 644.523438 C 73.632812 653.984375 79.214844 662.050781 86.972656 668.097656 L 210.734375 764.40625 C 214.609375 767.355469 216.78125 771.851562 216.78125 776.660156 Z M 216.78125 776.660156 " fill-opacity="1" fill-rule="nonzero"/></g><g clip-path="url(#1cc93e23ec)"><path fill="#3bc8d2" d="M 892.503906 412.355469 C 881.339844 407.859375 868.929688 407.859375 857.609375 412.355469 C 845.203125 417.316406 835.433594 427.707031 831.089844 440.738281 L 782.855469 585.28125 C 779.289062 598.152344 771.691406 610.09375 760.523438 619.089844 L 645.136719 711.210938 C 638.46875 716.640625 628.699219 715.554688 623.425781 708.730469 C 617.996094 702.0625 619.082031 692.292969 625.90625 687.019531 L 741.136719 594.738281 C 745.945312 590.863281 749.667969 585.898438 751.839844 580.316406 C 751.992188 579.695312 752.148438 579.074219 752.460938 578.457031 C 752.460938 578.300781 753.078125 576.75 753.078125 576.441406 L 753.078125 576.128906 C 756.027344 565.582031 753.855469 553.953125 746.566406 544.957031 C 734.777344 530.222656 713.6875 527.277344 698.332031 538.132812 L 546.5 646.695312 C 534.25 655.378906 526.960938 669.492188 526.960938 684.535156 L 526.960938 807.675781 L 682.050781 807.675781 L 682.050781 776.660156 C 682.050781 771.851562 684.21875 767.355469 688.097656 764.40625 L 811.859375 668.097656 C 819.613281 662.046875 825.195312 653.984375 827.832031 644.523438 L 895.761719 413.597656 Z M 892.503906 412.355469 " fill-opacity="1" fill-rule="nonzero"/></g><g clip-path="url(#33fade702d)"><path fill="#3bc8d2" d="M 728.574219 209.03125 L 728.574219 191.042969 C 728.574219 103.261719 657.390625 32.230469 569.765625 32.230469 L 561.855469 32.230469 C 519.671875 32.230469 479.347656 48.980469 449.570312 78.757812 C 419.792969 48.980469 379.316406 32.230469 337.285156 32.230469 L 329.375 32.230469 C 241.59375 32.230469 170.5625 103.417969 170.5625 191.042969 L 170.5625 209.03125 C 170.5625 254.472656 189.949219 297.589844 223.914062 327.832031 L 449.726562 528.515625 L 675.535156 327.832031 C 709.5 297.742188 728.886719 254.472656 728.886719 209.03125 Z M 542.46875 280.375 L 480.433594 280.375 L 480.433594 342.410156 L 418.398438 342.410156 L 418.398438 280.375 L 356.359375 280.375 L 356.359375 218.339844 L 418.398438 218.339844 L 418.398438 156.300781 L 480.433594 156.300781 L 480.433594 218.339844 L 542.46875 218.339844 Z M 542.46875 280.375 " fill-opacity="1" fill-rule="nonzero"/></g></svg>