<svg data-name="Group 16662" xmlns="http://www.w3.org/2000/svg" width="36.32" height="36.32"><path data-name="Rectangle 5779" d="M1.135 15.89h4.54a1.135 1.135 0 011.135 1.135v18.16a1.135 1.135 0 01-1.135 1.135h-4.54A1.135 1.135 0 010 35.185v-18.16a1.135 1.135 0 011.135-1.135zm3.4 2.27H2.27v15.89h2.27z" fill="#1f3c66"/><path data-name="Path 19909" d="M23.835 26.105h-9.08a1.135 1.135 0 110-2.27H22.7V22.7a1.136 1.136 0 00-1.135-1.135h-.878a5.715 5.715 0 01-3.178-.962 7.759 7.759 0 00-4.319-1.308 7.84 7.84 0 00-4.672 1.557l-2.162 1.621a1.135 1.135 0 01-1.362-1.816l2.161-1.621a10.124 10.124 0 016.034-2.011 10.022 10.022 0 015.578 1.689 3.452 3.452 0 001.919.581h.878a3.409 3.409 0 013.4 3.4v2.27a1.135 1.135 0 01-1.129 1.14z" fill="#1f3c66"/><path data-name="Path 19910" d="M23.835 34.05h-13.62a1.135 1.135 0 010-2.27h13.62a1.14 1.14 0 00.908-.454l8.814-11.752-.859-.573a1.138 1.138 0 00-1.431.142l-6.63 6.625a1.135 1.135 0 01-1.605-1.6l6.629-6.629a3.415 3.415 0 014.3-.426l1.858 1.239a1.135 1.135 0 01.278 1.625l-9.538 12.711a3.421 3.421 0 01-2.724 1.362z" fill="#1f3c66"/><path data-name="Path 19911" d="M21.565 0h4.54a1.135 1.135 0 011.135 1.135v3.4h3.4a1.135 1.135 0 011.14 1.14v4.54a1.135 1.135 0 01-1.135 1.135h-3.4v3.4a1.135 1.135 0 01-1.135 1.135h-4.54a1.135 1.135 0 01-1.135-1.135v-3.4h-3.4a1.135 1.135 0 01-1.145-1.135v-4.54a1.135 1.135 0 011.135-1.135h3.4v-3.4A1.135 1.135 0 0121.565 0zm3.4 2.27H22.7v3.4a1.135 1.135 0 01-1.135 1.14h-3.4v2.27h3.4a1.135 1.135 0 011.135 1.135v3.4h2.27v-3.4a1.135 1.135 0 011.135-1.135h3.4V6.81h-3.4a1.135 1.135 0 01-1.135-1.135z" fill="#c3256b"/></svg>