<svg xmlns="http://www.w3.org/2000/svg" xmlns:xlink="http://www.w3.org/1999/xlink" width="1200" zoomAndPan="magnify" viewBox="0 0 900 899.99999" height="1200" preserveAspectRatio="xMidYMid meet" version="1.0"><defs><clipPath id="41508fc5c9"><path d="M 713 560 L 900 560 L 900 793.5 L 713 793.5 Z M 713 560 " clip-rule="nonzero"/></clipPath></defs><path fill="#3bc8d2" d="M 305.292969 223.726562 C 304.863281 223.726562 304.863281 223.726562 304.433594 223.726562 C 304.003906 223.726562 304.003906 223.726562 303.570312 223.726562 C 133.871094 223.726562 80.460938 320.640625 78.308594 427.886719 C 78.308594 431.335938 80.890625 433.917969 84.335938 433.917969 L 523.667969 433.917969 C 527.113281 433.917969 529.699219 431.335938 529.699219 427.886719 C 527.976562 320.207031 474.996094 223.726562 305.292969 223.726562 Z M 305.292969 223.726562 " fill-opacity="1" fill-rule="nonzero"/><path fill="#1f3c66" d="M 698.203125 570.234375 L 663.75 558.28125 L 603.984375 536.484375 C 547.734375 510.46875 497.8125 510.46875 442.265625 536.484375 C 426.09375 543.515625 409.21875 551.25 400.78125 554.765625 C 374.0625 542.8125 351.5625 537.1875 334.6875 537.1875 C 322.03125 537.1875 313.59375 540 308.671875 544.21875 L 255.234375 528.046875 C 225 516.796875 200.390625 511.171875 182.109375 511.171875 C 142.734375 511.171875 141.328125 537.1875 141.328125 537.890625 C 141.328125 542.8125 143.4375 547.03125 146.953125 549.84375 C 165.9375 563.90625 248.90625 606.796875 258.046875 611.71875 C 382.5 679.21875 400.78125 680.625 406.40625 680.625 C 421.171875 684.140625 452.8125 685.546875 500.625 685.546875 C 516.09375 685.546875 527.34375 685.546875 527.34375 685.546875 L 528.046875 685.546875 L 614.53125 677.8125 L 655.3125 734.765625 C 658.125 738.28125 662.34375 740.390625 666.5625 740.390625 C 667.265625 740.390625 668.671875 740.390625 669.375 740.390625 C 675 738.984375 679.21875 734.765625 679.921875 729.140625 L 708.046875 585.703125 C 708.75 579.375 704.53125 572.34375 698.203125 570.234375 Z M 658.125 691.875 L 632.109375 655.3125 C 629.296875 651.796875 625.078125 649.6875 620.859375 649.6875 C 620.15625 649.6875 620.15625 649.6875 619.453125 649.6875 L 525.234375 657.421875 C 523.125 657.421875 513.28125 657.421875 499.21875 657.421875 C 452.8125 657.421875 420.46875 656.015625 409.921875 652.5 C 408.515625 651.796875 407.109375 651.796875 405.703125 651.796875 C 400.78125 651.09375 375.46875 643.359375 270 585.703125 C 251.015625 575.859375 208.125 553.359375 182.109375 537.890625 C 192.65625 537.890625 211.640625 540.703125 245.390625 553.359375 L 246.09375 553.359375 L 307.96875 571.640625 C 308.671875 571.640625 310.078125 571.640625 310.78125 572.34375 C 309.375 578.671875 313.59375 588.515625 317.8125 592.03125 C 335.390625 607.5 360 616.640625 386.71875 628.59375 C 386.71875 628.59375 405.703125 634.921875 440.15625 632.109375 C 440.15625 632.109375 502.03125 631.40625 508.359375 632.109375 C 508.359375 632.109375 452.8125 624.375 428.203125 625.078125 C 428.203125 625.078125 393.75 623.671875 386.71875 618.75 C 386.71875 618.75 330.46875 590.625 326.25 585.703125 C 322.734375 581.484375 313.59375 569.53125 330.46875 564.609375 C 331.171875 564.609375 332.578125 564.609375 333.984375 564.609375 C 343.828125 564.609375 362.109375 567.421875 394.453125 582.1875 C 397.96875 583.59375 402.1875 583.59375 405.703125 582.1875 C 406.40625 581.484375 431.015625 571.640625 454.21875 561.09375 C 502.03125 538.59375 544.21875 538.59375 592.734375 561.796875 C 593.4375 561.796875 593.4375 561.796875 594.140625 562.5 L 654.609375 584.296875 L 677.8125 592.03125 Z M 658.125 691.875 " fill-opacity="1" fill-rule="nonzero"/><path fill="#1f3c66" d="M 604.6875 447.890625 L 590.625 447.890625 C 587.109375 315.703125 492.1875 205.3125 367.03125 179.296875 L 367.734375 177.890625 C 371.25 170.15625 372.65625 161.71875 372.65625 153.28125 C 372.65625 118.125 344.53125 90 309.375 90 C 274.21875 90 246.09375 118.125 246.09375 153.28125 C 246.09375 162.421875 248.203125 170.859375 251.71875 179.296875 L 251.71875 180 C 126.5625 205.3125 31.640625 315 28.125 447.890625 L 14.0625 447.890625 C 6.328125 447.890625 0 454.21875 0 461.953125 C 0 469.6875 6.328125 476.015625 14.0625 476.015625 L 604.6875 476.015625 C 612.421875 476.015625 618.75 469.6875 618.75 461.953125 C 618.75 454.21875 612.421875 447.890625 604.6875 447.890625 Z M 562.5 447.890625 L 138.515625 447.890625 C 137.8125 422.578125 138.515625 397.265625 142.03125 372.65625 C 145.546875 347.34375 151.875 321.328125 162.421875 298.125 C 172.96875 274.21875 187.734375 252.421875 207.421875 234.84375 C 217.265625 226.40625 227.8125 217.96875 239.0625 211.640625 C 261.5625 205.3125 285.46875 201.796875 309.375 201.796875 C 446.484375 201.09375 558.28125 310.78125 562.5 447.890625 Z M 309.375 103.359375 C 336.796875 103.359375 358.59375 125.15625 358.59375 152.578125 C 358.59375 156.09375 358.59375 159.609375 357.890625 162.421875 C 347.34375 154.6875 326.953125 149.0625 309.375 149.0625 C 291.796875 149.0625 272.109375 154.6875 261.5625 163.125 C 260.859375 159.609375 260.15625 156.09375 260.15625 151.875 C 260.15625 125.15625 281.953125 103.359375 309.375 103.359375 Z M 309.375 163.828125 C 323.4375 163.828125 342.421875 168.75 352.265625 176.484375 C 338.203125 174.375 324.140625 172.96875 309.375 172.96875 C 295.3125 172.96875 281.953125 173.671875 267.890625 175.78125 C 278.4375 168.046875 295.3125 163.828125 309.375 163.828125 Z M 217.96875 217.96875 C 212.34375 221.484375 207.421875 225 202.5 228.515625 C 180.703125 245.390625 163.125 267.1875 149.765625 291.09375 C 136.40625 315 127.265625 341.71875 120.9375 368.4375 C 115.3125 394.453125 111.796875 421.171875 110.390625 447.890625 L 56.25 447.890625 C 59.0625 343.125 125.859375 253.828125 217.96875 217.96875 Z M 217.96875 217.96875 " fill-opacity="1" fill-rule="nonzero"/><g clip-path="url(#41508fc5c9)"><path fill="#1f3c66" d="M 888.046875 578.671875 L 757.96875 560.390625 C 750.234375 558.984375 743.203125 564.609375 741.796875 572.34375 L 713.671875 756.5625 C 712.96875 760.078125 714.375 764.296875 716.484375 767.109375 C 718.59375 769.921875 722.109375 772.03125 725.625 772.734375 L 883.828125 793.125 C 884.53125 793.125 885.234375 793.125 885.9375 793.125 C 889.453125 793.125 892.96875 791.71875 895.078125 789.609375 C 897.890625 786.796875 900 783.28125 900 779.0625 L 900 592.734375 C 900 585.703125 895.078125 579.375 888.046875 578.671875 Z M 767.8125 589.921875 L 799.453125 594.140625 L 781.171875 750.234375 L 743.90625 745.3125 Z M 871.875 762.1875 L 795.234375 752.34375 L 813.515625 596.25 L 871.875 604.6875 Z M 871.875 762.1875 " fill-opacity="1" fill-rule="nonzero"/></g></svg>