<svg xmlns="http://www.w3.org/2000/svg" xmlns:xlink="http://www.w3.org/1999/xlink" width="1200" zoomAndPan="magnify" viewBox="0 0 900 899.99999" height="1200" preserveAspectRatio="xMidYMid meet" version="1.0"><defs><clipPath id="86bc517c13"><path d="M 713 560 L 900 560 L 900 793.445312 L 713 793.445312 Z M 713 560 " clip-rule="nonzero"/></clipPath></defs><path fill="#d23b7d" d="M 305.300781 223.730469 C 304.871094 223.730469 304.871094 223.730469 304.4375 223.730469 C 304.007812 223.730469 304.007812 223.730469 303.578125 223.730469 C 133.871094 223.730469 80.464844 320.640625 78.308594 427.890625 C 78.308594 431.335938 80.894531 433.921875 84.339844 433.921875 L 523.675781 433.921875 C 527.121094 433.921875 529.707031 431.335938 529.707031 427.890625 C 527.984375 320.210938 475.003906 223.730469 305.300781 223.730469 Z M 305.300781 223.730469 " fill-opacity="1" fill-rule="nonzero"/><path fill="#1f3c66" d="M 698.195312 570.226562 L 663.742188 558.273438 L 603.976562 536.476562 C 547.726562 510.460938 497.808594 510.460938 442.261719 536.476562 C 426.089844 543.507812 409.214844 551.242188 400.777344 554.757812 C 374.058594 542.804688 351.558594 537.179688 334.683594 537.179688 C 322.027344 537.179688 313.589844 539.992188 308.667969 544.210938 L 255.234375 528.039062 C 225 516.789062 200.390625 511.164062 182.109375 511.164062 C 142.734375 511.164062 141.328125 537.179688 141.328125 537.882812 C 141.328125 542.804688 143.4375 547.023438 146.953125 549.835938 C 165.9375 563.898438 248.90625 606.789062 258.046875 611.710938 C 382.496094 679.210938 400.777344 680.617188 406.402344 680.617188 C 421.167969 684.132812 452.808594 685.539062 500.621094 685.539062 C 516.089844 685.539062 527.339844 685.539062 527.339844 685.539062 L 528.042969 685.539062 L 614.523438 677.804688 L 655.304688 734.757812 C 658.117188 738.273438 662.335938 740.382812 666.554688 740.382812 C 667.257812 740.382812 668.664062 740.382812 669.367188 740.382812 C 674.992188 738.976562 679.210938 734.757812 679.914062 729.132812 L 708.039062 585.695312 C 708.742188 579.367188 704.523438 572.335938 698.195312 570.226562 Z M 658.117188 691.867188 L 632.101562 655.304688 C 629.289062 651.789062 625.070312 649.679688 620.851562 649.679688 C 620.148438 649.679688 620.148438 649.679688 619.445312 649.679688 L 525.230469 657.414062 C 523.121094 657.414062 513.277344 657.414062 499.214844 657.414062 C 452.808594 657.414062 420.464844 656.007812 409.917969 652.492188 C 408.511719 651.789062 407.105469 651.789062 405.699219 651.789062 C 400.777344 651.085938 375.464844 643.351562 270 585.695312 C 251.015625 575.851562 208.125 553.351562 182.109375 537.882812 C 192.65625 537.882812 211.640625 540.695312 245.390625 553.351562 L 246.09375 553.351562 L 307.964844 571.632812 C 308.667969 571.632812 310.074219 571.632812 310.777344 572.335938 C 309.371094 578.664062 313.589844 588.507812 317.808594 592.023438 C 335.386719 607.492188 359.996094 616.632812 386.714844 628.585938 C 386.714844 628.585938 405.699219 634.914062 440.152344 632.101562 C 440.152344 632.101562 502.027344 631.398438 508.355469 632.101562 C 508.355469 632.101562 452.808594 624.367188 428.199219 625.070312 C 428.199219 625.070312 393.746094 623.664062 386.714844 618.742188 C 386.714844 618.742188 330.464844 590.617188 326.246094 585.695312 C 322.730469 581.476562 313.589844 569.523438 330.464844 564.601562 C 331.167969 564.601562 332.574219 564.601562 333.980469 564.601562 C 343.824219 564.601562 362.105469 567.414062 394.449219 582.179688 C 397.964844 583.585938 402.183594 583.585938 405.699219 582.179688 C 406.402344 581.476562 431.011719 571.632812 454.214844 561.085938 C 502.027344 538.585938 544.210938 538.585938 592.726562 561.789062 C 593.429688 561.789062 593.429688 561.789062 594.132812 562.492188 L 654.601562 584.289062 L 677.804688 592.023438 Z M 658.117188 691.867188 " fill-opacity="1" fill-rule="nonzero"/><path fill="#1f3c66" d="M 604.679688 447.886719 L 590.617188 447.886719 C 587.101562 315.699219 492.183594 205.3125 367.027344 179.296875 L 367.730469 177.890625 C 371.246094 170.15625 372.652344 161.71875 372.652344 153.28125 C 372.652344 118.125 344.527344 90 309.371094 90 C 274.21875 90 246.09375 118.125 246.09375 153.28125 C 246.09375 162.421875 248.203125 170.859375 251.71875 179.296875 L 251.71875 180 C 126.5625 205.3125 31.640625 314.996094 28.125 447.886719 L 14.0625 447.886719 C 6.332031 447.886719 0.00390625 454.214844 0.00390625 461.949219 C 0.00390625 469.683594 6.332031 476.011719 14.0625 476.011719 L 604.679688 476.011719 C 612.414062 476.011719 618.742188 469.683594 618.742188 461.949219 C 618.742188 454.214844 612.414062 447.886719 604.679688 447.886719 Z M 562.492188 447.886719 L 138.515625 447.886719 C 137.8125 422.574219 138.515625 397.261719 142.03125 372.652344 C 145.546875 347.339844 151.875 321.324219 162.421875 298.121094 C 172.96875 274.214844 187.734375 252.417969 207.421875 234.839844 C 217.265625 226.402344 227.8125 217.96875 239.0625 211.640625 C 261.5625 205.3125 285.464844 201.796875 309.371094 201.796875 C 446.480469 201.09375 558.273438 310.777344 562.492188 447.886719 Z M 309.371094 103.359375 C 336.792969 103.359375 358.589844 125.15625 358.589844 152.578125 C 358.589844 156.09375 358.589844 159.609375 357.886719 162.421875 C 347.339844 154.6875 326.949219 149.0625 309.371094 149.0625 C 291.792969 149.0625 272.109375 154.6875 261.5625 163.125 C 260.859375 159.609375 260.15625 156.09375 260.15625 151.875 C 260.15625 125.15625 281.949219 103.359375 309.371094 103.359375 Z M 309.371094 163.828125 C 323.433594 163.828125 342.417969 168.75 352.261719 176.484375 C 338.199219 174.375 324.136719 172.96875 309.371094 172.96875 C 295.308594 172.96875 281.949219 173.671875 267.890625 175.78125 C 278.433594 168.046875 295.308594 163.828125 309.371094 163.828125 Z M 217.96875 217.96875 C 212.34375 221.484375 207.421875 224.996094 202.5 228.511719 C 180.703125 245.386719 163.125 267.183594 149.765625 291.089844 C 136.40625 314.996094 127.265625 341.714844 120.9375 368.433594 C 115.3125 394.449219 111.796875 421.167969 110.390625 447.886719 L 56.25 447.886719 C 59.0625 343.121094 125.859375 253.824219 217.96875 217.96875 Z M 217.96875 217.96875 " fill-opacity="1" fill-rule="nonzero"/><g clip-path="url(#86bc517c13)"><path fill="#1f3c66" d="M 888.035156 578.664062 L 757.960938 560.382812 C 750.226562 558.976562 743.195312 564.601562 741.789062 572.335938 L 713.664062 756.550781 C 712.960938 760.066406 714.367188 764.285156 716.476562 767.097656 C 718.585938 769.910156 722.101562 772.019531 725.617188 772.722656 L 883.816406 793.113281 C 884.519531 793.113281 885.222656 793.113281 885.925781 793.113281 C 889.441406 793.113281 892.957031 791.707031 895.066406 789.597656 C 897.878906 786.785156 899.988281 783.269531 899.988281 779.050781 L 899.988281 592.726562 C 899.988281 585.695312 895.066406 579.367188 888.035156 578.664062 Z M 767.804688 589.914062 L 799.445312 594.132812 L 781.164062 750.222656 L 743.898438 745.304688 Z M 871.863281 762.175781 L 795.226562 752.332031 L 813.503906 596.242188 L 871.863281 604.679688 Z M 871.863281 762.175781 " fill-opacity="1" fill-rule="nonzero"/></g></svg>