<svg xmlns="http://www.w3.org/2000/svg" width="58" height="58"><defs><clipPath id="a"><path d="M0 0h58v58H0z"/></clipPath></defs><g clip-path="url(#a)"><path d="M27.234 3.002a1.176 1.176 0 00-1.047.937l-.588 2.9a11.3 11.3 0 00-1.323.551l-2.482-1.632a1.176 1.176 0 00-1.47.165c-.889.892-1.862 1.786-2.793 2.72a1.176 1.176 0 00-.147 1.488l1.672 2.481a11.606 11.606 0 00-.551 1.341l-2.959.643a1.176 1.176 0 00-.937 1.158v3.841a1.176 1.176 0 00.937 1.139l2.959.643a11.615 11.615 0 00.551 1.342l-1.672 2.5a1.176 1.176 0 00.147 1.47c.932.934 1.9 1.828 2.793 2.72a1.176 1.176 0 001.47.165l2.5-1.617a11.352 11.352 0 001.323.551l.57 2.885a1.176 1.176 0 001.158.956h3.9a1.176 1.176 0 001.158-.956l.57-2.885a11.352 11.352 0 001.323-.551l2.5 1.617a1.176 1.176 0 001.47-.165c.889-.892 1.862-1.786 2.793-2.72a1.176 1.176 0 00.147-1.47l-1.672-2.5a11.638 11.638 0 00.551-1.342l2.959-.643a1.176 1.176 0 00.937-1.139v-3.841a1.176 1.176 0 00-.937-1.158l-2.959-.643a11.628 11.628 0 00-.551-1.341l1.672-2.481a1.176 1.176 0 00-.147-1.488c-.932-.934-1.9-1.828-2.793-2.72a1.176 1.176 0 00-1.47-.165l-2.487 1.635a11.307 11.307 0 00-1.323-.551l-.588-2.9a1.176 1.176 0 00-1.158-.94h-4.01zm1.084 2.352h1.948l.515 2.536a1.176 1.176 0 00.864.9 8.933 8.933 0 012.205.937 1.176 1.176 0 001.231-.037l2.205-1.433c.475.463.951.908 1.415 1.36l-1.47 2.205a1.176 1.176 0 00-.055 1.231 9.53 9.53 0 01.937 2.242 1.176 1.176 0 00.882.845l2.628.551v1.948l-2.628.57a1.176 1.176 0 00-.882.845 9.4 9.4 0 01-.937 2.224 1.176 1.176 0 00.055 1.25l1.452 2.187c-.464.452-.922.915-1.4 1.378l-2.205-1.452a1.176 1.176 0 00-1.231-.018 8.884 8.884 0 01-2.205.919 1.176 1.176 0 00-.864.9l-.515 2.554h-1.945l-.515-2.554a1.176 1.176 0 00-.864-.9 8.884 8.884 0 01-2.205-.919 1.176 1.176 0 00-1.231.018l-2.205 1.452c-.475-.463-.932-.926-1.4-1.378l1.452-2.187a1.176 1.176 0 00.055-1.25 9.394 9.394 0 01-.937-2.224 1.176 1.176 0 00-.882-.845l-2.628-.57v-1.947l2.628-.551a1.176 1.176 0 00.882-.845 9.527 9.527 0 01.937-2.242 1.176 1.176 0 00-.055-1.231l-1.47-2.205c.464-.452.94-.9 1.415-1.36L23.5 9.691a1.176 1.176 0 001.231.037 8.933 8.933 0 012.205-.937 1.176 1.176 0 00.864-.9zm.974 7.59a4.723 4.723 0 104.723 4.723 4.739 4.739 0 00-4.723-4.724zm0 2.352a2.371 2.371 0 11-2.371 2.371 2.365 2.365 0 012.371-2.372zM51.16 26.689a3.3 3.3 0 00-2.351 1.029l-.018-.018-.018.037c-.026.026-1.613 1.6-3.345 3.326s-3.57 3.556-4.116 4.153a1.177 1.177 0 101.746 1.58c.372-.407 2.282-2.321 4.024-4.061s3.363-3.363 3.363-3.363l.037-.018a.905.905 0 01.68-.312 1.2 1.2 0 011.066 1.323 1.5 1.5 0 01-.276.882v.018c-.051.062-7.086 8.5-11.633 13.819a7.154 7.154 0 01-5.422 2.918H20.949a5.857 5.857 0 00-4.3 1.47l-3.326 3.253a1.178 1.178 0 101.654 1.677l3.326-3.253a3.3 3.3 0 012.646-.79h13.948a9.55 9.55 0 007.2-3.749c4.584-5.36 11.688-13.893 11.688-13.893l.037-.055a3.85 3.85 0 00.753-2.3 3.561 3.561 0 00-3.415-3.673zm-31.02 8.766c-2.5 0-5.068.351-7.13 2.04l-8.582 7.02a1.181 1.181 0 001.507 1.819l8.564-7.02c1.43-1.172 3.362-1.512 5.641-1.512h17.311a2.447 2.447 0 01-.2 1.985 2.3 2.3 0 01-1.672 1.323q-.055-.012-.11-.018H24.238a1.176 1.176 0 100 2.352h11.229v-.018a4.291 4.291 0 003.859-2.536 4.549 4.549 0 00-.129-4.962 1.176 1.176 0 00-.937-.478z" fill="#fff"/></g></svg>