<svg data-name="Group 16663" xmlns="http://www.w3.org/2000/svg" width="37.377" height="37.377"><path data-name="Path 19907" d="M36.209 32.7H13.685a3.5 3.5 0 01-3.464-2.972L6.159 3.327A1.162 1.162 0 005 2.336H1.168a1.168 1.168 0 110-2.336H5a3.5 3.5 0 013.468 2.972l4.062 26.406a1.162 1.162 0 001.155.991h22.524a1.168 1.168 0 110 2.336z" fill="#1f3c66"/><path data-name="Path 19908" d="M11.016 28.372a1.168 1.168 0 01-.326-2.29l23.512-6.856a1.174 1.174 0 00.841-1.121V9.34a1.169 1.169 0 00-1.168-1.168H12.848a1.168 1.168 0 110-2.336h21.024a3.508 3.508 0 013.5 3.5v8.76a3.523 3.523 0 01-2.523 3.364l-23.508 6.865a1.169 1.169 0 01-.325.047z" fill="#1f3c66"/><path data-name="Ellipse 383" d="M16.348 30.369a3.5 3.5 0 11-3.5 3.5 3.508 3.508 0 013.5-3.5zm0 4.672a1.168 1.168 0 10-1.164-1.172 1.169 1.169 0 001.164 1.172z" fill="#1f3c66"/><path data-name="Ellipse 384" d="M30.365 30.369a3.5 3.5 0 11-3.5 3.5 3.508 3.508 0 013.5-3.5zm0 4.672a1.168 1.168 0 10-1.164-1.172 1.169 1.169 0 001.164 1.172z" fill="#1f3c66"/><path data-name="Line 376" d="M15.184 21.024a1.168 1.168 0 01-1.168-1.168v-7.008a1.168 1.168 0 012.336 0v7.008a1.168 1.168 0 01-1.168 1.168z" fill="#c3256b"/><path data-name="Line 377" d="M22.193 19.856a1.168 1.168 0 01-1.168-1.168v-5.84a1.168 1.168 0 012.336 0v5.84a1.168 1.168 0 01-1.168 1.168z" fill="#c3256b"/><path data-name="Line 378" d="M29.201 17.52a1.168 1.168 0 01-1.168-1.168v-3.504a1.168 1.168 0 012.336 0v3.5a1.168 1.168 0 01-1.168 1.172z" fill="#c3256b"/></svg>