<svg xmlns="http://www.w3.org/2000/svg" xmlns:xlink="http://www.w3.org/1999/xlink" width="1200" zoomAndPan="magnify" viewBox="0 0 900 899.99999" height="1200" preserveAspectRatio="xMidYMid meet" version="1.0"><defs><clipPath id="b2249ff68f"><path d="M 255.730469 200.628906 L 727 200.628906 L 727 485.628906 L 255.730469 485.628906 Z M 255.730469 200.628906 " clip-rule="nonzero"/></clipPath><clipPath id="3a934f03bf"><path d="M 726.328125 517.558594 C 726.328125 522.941406 722.046875 527.222656 716.664062 527.222656 L 290.660156 527.222656 C 269.394531 527.222656 251.304688 511.894531 247.851562 491.042969 L 190.542969 152.035156 C 188.886719 142.09375 180.464844 134.914062 170.382812 134.914062 L 121.363281 134.914062 C 115.976562 134.914062 111.695312 130.632812 111.695312 125.246094 C 111.695312 119.859375 115.976562 115.582031 121.363281 115.582031 L 170.382812 115.582031 C 189.855469 115.582031 206.425781 129.527344 209.738281 148.722656 L 266.90625 487.730469 C 268.839844 499.328125 278.921875 507.890625 290.660156 507.890625 L 716.664062 507.890625 C 721.910156 507.890625 726.328125 512.171875 726.328125 517.558594 Z M 726.328125 517.558594 " clip-rule="nonzero"/></clipPath><linearGradient x1="104.305683" gradientTransform="matrix(1.38089, 0, 0, 1.38089, 111.695347, 115.580099)" y1="149.037003" x2="445.099993" gradientUnits="userSpaceOnUse" y2="149.037003" id="3a002fdb28"><stop stop-opacity="1" stop-color="rgb(14.753723%, 36.366272%, 49.935913%)" offset="0"/><stop stop-opacity="1" stop-color="rgb(14.785767%, 36.529541%, 50.062561%)" offset="0.0078125"/><stop stop-opacity="1" stop-color="rgb(14.851379%, 36.857605%, 50.317383%)" offset="0.015625"/><stop stop-opacity="1" stop-color="rgb(14.916992%, 37.187195%, 50.570679%)" offset="0.0234375"/><stop stop-opacity="1" stop-color="rgb(14.981079%, 37.515259%, 50.823975%)" offset="0.03125"/><stop stop-opacity="1" stop-color="rgb(15.046692%, 37.843323%, 51.077271%)" offset="0.0390625"/><stop stop-opacity="1" stop-color="rgb(15.112305%, 38.171387%, 51.330566%)" offset="0.046875"/><stop stop-opacity="1" stop-color="rgb(15.176392%, 38.499451%, 51.585388%)" offset="0.0546875"/><stop stop-opacity="1" stop-color="rgb(15.242004%, 38.829041%, 51.838684%)" offset="0.0625"/><stop stop-opacity="1" stop-color="rgb(15.307617%, 39.157104%, 52.09198%)" offset="0.0703125"/><stop stop-opacity="1" stop-color="rgb(15.37323%, 39.485168%, 52.345276%)" offset="0.078125"/><stop stop-opacity="1" stop-color="rgb(15.437317%, 39.813232%, 52.600098%)" offset="0.0859375"/><stop stop-opacity="1" stop-color="rgb(15.50293%, 40.142822%, 52.853394%)" offset="0.09375"/><stop stop-opacity="1" stop-color="rgb(15.568542%, 40.470886%, 53.106689%)" offset="0.101562"/><stop stop-opacity="1" stop-color="rgb(15.634155%, 40.79895%, 53.359985%)" offset="0.109375"/><stop stop-opacity="1" stop-color="rgb(15.698242%, 41.127014%, 53.614807%)" offset="0.117187"/><stop stop-opacity="1" stop-color="rgb(15.763855%, 41.456604%, 53.868103%)" offset="0.125"/><stop stop-opacity="1" stop-color="rgb(15.829468%, 41.784668%, 54.121399%)" offset="0.132812"/><stop stop-opacity="1" stop-color="rgb(15.895081%, 42.112732%, 54.374695%)" offset="0.140625"/><stop stop-opacity="1" stop-color="rgb(15.959167%, 42.440796%, 54.629517%)" offset="0.148438"/><stop stop-opacity="1" stop-color="rgb(16.02478%, 42.770386%, 54.882812%)" offset="0.15625"/><stop stop-opacity="1" stop-color="rgb(16.090393%, 43.09845%, 55.136108%)" offset="0.164063"/><stop stop-opacity="1" stop-color="rgb(16.15448%, 43.426514%, 55.389404%)" offset="0.171875"/><stop stop-opacity="1" stop-color="rgb(16.220093%, 43.754578%, 55.6427%)" offset="0.179687"/><stop stop-opacity="1" stop-color="rgb(16.285706%, 44.084167%, 55.897522%)" offset="0.1875"/><stop stop-opacity="1" stop-color="rgb(16.351318%, 44.412231%, 56.150818%)" offset="0.195312"/><stop stop-opacity="1" stop-color="rgb(16.415405%, 44.740295%, 56.404114%)" offset="0.203125"/><stop stop-opacity="1" stop-color="rgb(16.481018%, 45.068359%, 56.65741%)" offset="0.210937"/><stop stop-opacity="1" stop-color="rgb(16.546631%, 45.397949%, 56.912231%)" offset="0.21875"/><stop stop-opacity="1" stop-color="rgb(16.612244%, 45.726013%, 57.165527%)" offset="0.226562"/><stop stop-opacity="1" stop-color="rgb(16.676331%, 46.054077%, 57.418823%)" offset="0.234375"/><stop stop-opacity="1" stop-color="rgb(16.741943%, 46.382141%, 57.672119%)" offset="0.242188"/><stop stop-opacity="1" stop-color="rgb(16.807556%, 46.710205%, 57.926941%)" offset="0.25"/><stop stop-opacity="1" stop-color="rgb(16.873169%, 47.039795%, 58.180237%)" offset="0.257812"/><stop stop-opacity="1" stop-color="rgb(16.937256%, 47.367859%, 58.433533%)" offset="0.265625"/><stop stop-opacity="1" stop-color="rgb(17.002869%, 47.695923%, 58.686829%)" offset="0.273437"/><stop stop-opacity="1" stop-color="rgb(17.068481%, 48.023987%, 58.940125%)" offset="0.28125"/><stop stop-opacity="1" stop-color="rgb(17.134094%, 48.353577%, 59.194946%)" offset="0.289062"/><stop stop-opacity="1" stop-color="rgb(17.198181%, 48.681641%, 59.448242%)" offset="0.296875"/><stop stop-opacity="1" stop-color="rgb(17.263794%, 49.009705%, 59.701538%)" offset="0.304687"/><stop stop-opacity="1" stop-color="rgb(17.329407%, 49.337769%, 59.954834%)" offset="0.3125"/><stop stop-opacity="1" stop-color="rgb(17.393494%, 49.667358%, 60.209656%)" offset="0.320312"/><stop stop-opacity="1" stop-color="rgb(17.459106%, 49.995422%, 60.462952%)" offset="0.328125"/><stop stop-opacity="1" stop-color="rgb(17.524719%, 50.323486%, 60.716248%)" offset="0.335937"/><stop stop-opacity="1" stop-color="rgb(17.590332%, 50.65155%, 60.969543%)" offset="0.34375"/><stop stop-opacity="1" stop-color="rgb(17.654419%, 50.98114%, 61.224365%)" offset="0.351562"/><stop stop-opacity="1" stop-color="rgb(17.720032%, 51.309204%, 61.477661%)" offset="0.359375"/><stop stop-opacity="1" stop-color="rgb(17.785645%, 51.637268%, 61.730957%)" offset="0.367187"/><stop stop-opacity="1" stop-color="rgb(17.851257%, 51.965332%, 61.984253%)" offset="0.375"/><stop stop-opacity="1" stop-color="rgb(17.915344%, 52.294922%, 62.237549%)" offset="0.382812"/><stop stop-opacity="1" stop-color="rgb(17.980957%, 52.622986%, 62.492371%)" offset="0.390625"/><stop stop-opacity="1" stop-color="rgb(18.04657%, 52.95105%, 62.745667%)" offset="0.398438"/><stop stop-opacity="1" stop-color="rgb(18.112183%, 53.279114%, 62.998962%)" offset="0.40625"/><stop stop-opacity="1" stop-color="rgb(18.17627%, 53.608704%, 63.252258%)" offset="0.414062"/><stop stop-opacity="1" stop-color="rgb(18.241882%, 53.936768%, 63.50708%)" offset="0.421875"/><stop stop-opacity="1" stop-color="rgb(18.307495%, 54.264832%, 63.760376%)" offset="0.429688"/><stop stop-opacity="1" stop-color="rgb(18.371582%, 54.592896%, 64.013672%)" offset="0.4375"/><stop stop-opacity="1" stop-color="rgb(18.437195%, 54.920959%, 64.266968%)" offset="0.445312"/><stop stop-opacity="1" stop-color="rgb(18.502808%, 55.250549%, 64.52179%)" offset="0.453125"/><stop stop-opacity="1" stop-color="rgb(18.56842%, 55.578613%, 64.775085%)" offset="0.460938"/><stop stop-opacity="1" stop-color="rgb(18.632507%, 55.906677%, 65.028381%)" offset="0.46875"/><stop stop-opacity="1" stop-color="rgb(18.69812%, 56.234741%, 65.281677%)" offset="0.476562"/><stop stop-opacity="1" stop-color="rgb(18.763733%, 56.564331%, 65.536499%)" offset="0.484375"/><stop stop-opacity="1" stop-color="rgb(18.829346%, 56.892395%, 65.789795%)" offset="0.492187"/><stop stop-opacity="1" stop-color="rgb(18.893433%, 57.220459%, 66.043091%)" offset="0.5"/><stop stop-opacity="1" stop-color="rgb(18.959045%, 57.548523%, 66.296387%)" offset="0.507812"/><stop stop-opacity="1" stop-color="rgb(19.024658%, 57.878113%, 66.549683%)" offset="0.515625"/><stop stop-opacity="1" stop-color="rgb(19.090271%, 58.206177%, 66.804504%)" offset="0.523437"/><stop stop-opacity="1" stop-color="rgb(19.154358%, 58.534241%, 67.0578%)" offset="0.53125"/><stop stop-opacity="1" stop-color="rgb(19.219971%, 58.862305%, 67.311096%)" offset="0.539062"/><stop stop-opacity="1" stop-color="rgb(19.285583%, 59.191895%, 67.564392%)" offset="0.546875"/><stop stop-opacity="1" stop-color="rgb(19.34967%, 59.519958%, 67.819214%)" offset="0.554687"/><stop stop-opacity="1" stop-color="rgb(19.415283%, 59.848022%, 68.07251%)" offset="0.5625"/><stop stop-opacity="1" stop-color="rgb(19.480896%, 60.176086%, 68.325806%)" offset="0.570312"/><stop stop-opacity="1" stop-color="rgb(19.546509%, 60.505676%, 68.579102%)" offset="0.578125"/><stop stop-opacity="1" stop-color="rgb(19.610596%, 60.83374%, 68.833923%)" offset="0.585938"/><stop stop-opacity="1" stop-color="rgb(19.676208%, 61.161804%, 69.087219%)" offset="0.59375"/><stop stop-opacity="1" stop-color="rgb(19.741821%, 61.489868%, 69.340515%)" offset="0.601562"/><stop stop-opacity="1" stop-color="rgb(19.807434%, 61.819458%, 69.593811%)" offset="0.609375"/><stop stop-opacity="1" stop-color="rgb(19.871521%, 62.147522%, 69.847107%)" offset="0.617188"/><stop stop-opacity="1" stop-color="rgb(19.937134%, 62.475586%, 70.101929%)" offset="0.625"/><stop stop-opacity="1" stop-color="rgb(20.002747%, 62.80365%, 70.355225%)" offset="0.632812"/><stop stop-opacity="1" stop-color="rgb(20.068359%, 63.131714%, 70.608521%)" offset="0.640625"/><stop stop-opacity="1" stop-color="rgb(20.132446%, 63.461304%, 70.861816%)" offset="0.648438"/><stop stop-opacity="1" stop-color="rgb(20.198059%, 63.789368%, 71.116638%)" offset="0.65625"/><stop stop-opacity="1" stop-color="rgb(20.263672%, 64.117432%, 71.369934%)" offset="0.664062"/><stop stop-opacity="1" stop-color="rgb(20.327759%, 64.445496%, 71.62323%)" offset="0.671875"/><stop stop-opacity="1" stop-color="rgb(20.393372%, 64.775085%, 71.876526%)" offset="0.679687"/><stop stop-opacity="1" stop-color="rgb(20.458984%, 65.103149%, 72.131348%)" offset="0.6875"/><stop stop-opacity="1" stop-color="rgb(20.524597%, 65.431213%, 72.384644%)" offset="0.695313"/><stop stop-opacity="1" stop-color="rgb(20.588684%, 65.759277%, 72.637939%)" offset="0.703125"/><stop stop-opacity="1" stop-color="rgb(20.654297%, 66.088867%, 72.891235%)" offset="0.710937"/><stop stop-opacity="1" stop-color="rgb(20.71991%, 66.416931%, 73.144531%)" offset="0.71875"/><stop stop-opacity="1" stop-color="rgb(20.785522%, 66.744995%, 73.399353%)" offset="0.726562"/><stop stop-opacity="1" stop-color="rgb(20.849609%, 67.073059%, 73.652649%)" offset="0.734375"/><stop stop-opacity="1" stop-color="rgb(20.915222%, 67.402649%, 73.905945%)" offset="0.742188"/><stop stop-opacity="1" stop-color="rgb(20.980835%, 67.730713%, 74.159241%)" offset="0.75"/><stop stop-opacity="1" stop-color="rgb(21.046448%, 68.058777%, 74.414062%)" offset="0.757812"/><stop stop-opacity="1" stop-color="rgb(21.110535%, 68.386841%, 74.667358%)" offset="0.765625"/><stop stop-opacity="1" stop-color="rgb(21.176147%, 68.716431%, 74.920654%)" offset="0.773438"/><stop stop-opacity="1" stop-color="rgb(21.24176%, 69.044495%, 75.17395%)" offset="0.78125"/><stop stop-opacity="1" stop-color="rgb(21.307373%, 69.372559%, 75.428772%)" offset="0.789062"/><stop stop-opacity="1" stop-color="rgb(21.37146%, 69.700623%, 75.682068%)" offset="0.796875"/><stop stop-opacity="1" stop-color="rgb(21.437073%, 70.030212%, 75.935364%)" offset="0.804688"/><stop stop-opacity="1" stop-color="rgb(21.502686%, 70.358276%, 76.18866%)" offset="0.8125"/><stop stop-opacity="1" stop-color="rgb(21.566772%, 70.68634%, 76.443481%)" offset="0.820312"/><stop stop-opacity="1" stop-color="rgb(21.632385%, 71.014404%, 76.696777%)" offset="0.828125"/><stop stop-opacity="1" stop-color="rgb(21.697998%, 71.342468%, 76.950073%)" offset="0.835938"/><stop stop-opacity="1" stop-color="rgb(21.763611%, 71.672058%, 77.203369%)" offset="0.84375"/><stop stop-opacity="1" stop-color="rgb(21.827698%, 72.000122%, 77.456665%)" offset="0.851562"/><stop stop-opacity="1" stop-color="rgb(21.893311%, 72.328186%, 77.711487%)" offset="0.859375"/><stop stop-opacity="1" stop-color="rgb(21.958923%, 72.65625%, 77.964783%)" offset="0.867187"/><stop stop-opacity="1" stop-color="rgb(22.024536%, 72.98584%, 78.218079%)" offset="0.875"/><stop stop-opacity="1" stop-color="rgb(22.088623%, 73.313904%, 78.471375%)" offset="0.882812"/><stop stop-opacity="1" stop-color="rgb(22.154236%, 73.641968%, 78.726196%)" offset="0.890625"/><stop stop-opacity="1" stop-color="rgb(22.219849%, 73.970032%, 78.979492%)" offset="0.898437"/><stop stop-opacity="1" stop-color="rgb(22.285461%, 74.299622%, 79.232788%)" offset="0.90625"/><stop stop-opacity="1" stop-color="rgb(22.349548%, 74.627686%, 79.486084%)" offset="0.914062"/><stop stop-opacity="1" stop-color="rgb(22.415161%, 74.95575%, 79.740906%)" offset="0.921875"/><stop stop-opacity="1" stop-color="rgb(22.480774%, 75.283813%, 79.994202%)" offset="0.929688"/><stop stop-opacity="1" stop-color="rgb(22.544861%, 75.613403%, 80.247498%)" offset="0.9375"/><stop stop-opacity="1" stop-color="rgb(22.610474%, 75.941467%, 80.500793%)" offset="0.945312"/><stop stop-opacity="1" stop-color="rgb(22.676086%, 76.269531%, 80.754089%)" offset="0.953125"/><stop stop-opacity="1" stop-color="rgb(22.741699%, 76.597595%, 81.008911%)" offset="0.960938"/><stop stop-opacity="1" stop-color="rgb(22.805786%, 76.927185%, 81.262207%)" offset="0.96875"/><stop stop-opacity="1" stop-color="rgb(22.871399%, 77.255249%, 81.515503%)" offset="0.976562"/><stop stop-opacity="1" stop-color="rgb(22.937012%, 77.583313%, 81.768799%)" offset="0.984375"/><stop stop-opacity="1" stop-color="rgb(23.002625%, 77.911377%, 82.023621%)" offset="0.992188"/><stop stop-opacity="1" stop-color="rgb(23.066711%, 78.237915%, 82.273865%)" offset="1"/></linearGradient><clipPath id="34cf4b57e9"><path d="M 257 203 L 758 203 L 758 481 L 257 481 Z M 257 203 " clip-rule="nonzero"/></clipPath><clipPath id="553a5eb8da"><path d="M 287.484375 203.128906 L 728.125 203.128906 C 746.492188 203.128906 760.574219 219.5625 757.539062 237.789062 L 721.910156 455.277344 C 719.5625 469.640625 707.136719 480.273438 692.496094 480.273438 L 323.109375 480.273438 C 308.472656 480.273438 296.042969 469.640625 293.695312 455.277344 L 258.070312 237.789062 C 255.03125 219.699219 269.117188 203.128906 287.484375 203.128906 Z M 287.484375 203.128906 " clip-rule="nonzero"/></clipPath><linearGradient x1="104.305683" gradientTransform="matrix(1.38089, 0, 0, 1.38089, 111.695347, 115.580099)" y1="163.75" x2="469.734068" gradientUnits="userSpaceOnUse" y2="163.75" id="6c5f6ebd9e"><stop stop-opacity="1" stop-color="rgb(23.098755%, 78.399658%, 82.398987%)" offset="0"/><stop stop-opacity="1" stop-color="rgb(23.075867%, 78.286743%, 82.312012%)" offset="0.0078125"/><stop stop-opacity="1" stop-color="rgb(23.01178%, 77.957153%, 82.05719%)" offset="0.0117187"/><stop stop-opacity="1" stop-color="rgb(22.969055%, 77.742004%, 81.890869%)" offset="0.015625"/><stop stop-opacity="1" stop-color="rgb(22.924805%, 77.52533%, 81.723022%)" offset="0.0195312"/><stop stop-opacity="1" stop-color="rgb(22.88208%, 77.308655%, 81.556702%)" offset="0.0234375"/><stop stop-opacity="1" stop-color="rgb(22.839355%, 77.09198%, 81.390381%)" offset="0.0273438"/><stop stop-opacity="1" stop-color="rgb(22.796631%, 76.876831%, 81.22406%)" offset="0.03125"/><stop stop-opacity="1" stop-color="rgb(22.753906%, 76.660156%, 81.056213%)" offset="0.0351562"/><stop stop-opacity="1" stop-color="rgb(22.711182%, 76.443481%, 80.889893%)" offset="0.0390625"/><stop stop-opacity="1" stop-color="rgb(22.668457%, 76.226807%, 80.722046%)" offset="0.0429687"/><stop stop-opacity="1" stop-color="rgb(22.625732%, 76.011658%, 80.555725%)" offset="0.046875"/><stop stop-opacity="1" stop-color="rgb(22.581482%, 75.794983%, 80.387878%)" offset="0.0507812"/><stop stop-opacity="1" stop-color="rgb(22.538757%, 75.578308%, 80.221558%)" offset="0.0546875"/><stop stop-opacity="1" stop-color="rgb(22.496033%, 75.361633%, 80.053711%)" offset="0.0585937"/><stop stop-opacity="1" stop-color="rgb(22.453308%, 75.146484%, 79.88739%)" offset="0.0625"/><stop stop-opacity="1" stop-color="rgb(22.410583%, 74.92981%, 79.719543%)" offset="0.0664062"/><stop stop-opacity="1" stop-color="rgb(22.367859%, 74.713135%, 79.553223%)" offset="0.0703125"/><stop stop-opacity="1" stop-color="rgb(22.323608%, 74.49646%, 79.385376%)" offset="0.0742187"/><stop stop-opacity="1" stop-color="rgb(22.280884%, 74.281311%, 79.219055%)" offset="0.078125"/><stop stop-opacity="1" stop-color="rgb(22.238159%, 74.064636%, 79.051208%)" offset="0.0820312"/><stop stop-opacity="1" stop-color="rgb(22.195435%, 73.847961%, 78.884888%)" offset="0.0859375"/><stop stop-opacity="1" stop-color="rgb(22.15271%, 73.631287%, 78.717041%)" offset="0.0898437"/><stop stop-opacity="1" stop-color="rgb(22.109985%, 73.416138%, 78.55072%)" offset="0.09375"/><stop stop-opacity="1" stop-color="rgb(22.067261%, 73.199463%, 78.382874%)" offset="0.0976562"/><stop stop-opacity="1" stop-color="rgb(22.024536%, 72.982788%, 78.216553%)" offset="0.101562"/><stop stop-opacity="1" stop-color="rgb(21.980286%, 72.766113%, 78.048706%)" offset="0.105469"/><stop stop-opacity="1" stop-color="rgb(21.937561%, 72.550964%, 77.882385%)" offset="0.109375"/><stop stop-opacity="1" stop-color="rgb(21.894836%, 72.33429%, 77.714539%)" offset="0.113281"/><stop stop-opacity="1" stop-color="rgb(21.852112%, 72.117615%, 77.548218%)" offset="0.117187"/><stop stop-opacity="1" stop-color="rgb(21.809387%, 71.90094%, 77.380371%)" offset="0.121094"/><stop stop-opacity="1" stop-color="rgb(21.766663%, 71.685791%, 77.21405%)" offset="0.125"/><stop stop-opacity="1" stop-color="rgb(21.722412%, 71.469116%, 77.046204%)" offset="0.128906"/><stop stop-opacity="1" stop-color="rgb(21.679688%, 71.252441%, 76.879883%)" offset="0.132812"/><stop stop-opacity="1" stop-color="rgb(21.636963%, 71.035767%, 76.712036%)" offset="0.136719"/><stop stop-opacity="1" stop-color="rgb(21.594238%, 70.820618%, 76.545715%)" offset="0.140625"/><stop stop-opacity="1" stop-color="rgb(21.551514%, 70.603943%, 76.377869%)" offset="0.144531"/><stop stop-opacity="1" stop-color="rgb(21.508789%, 70.387268%, 76.211548%)" offset="0.148437"/><stop stop-opacity="1" stop-color="rgb(21.466064%, 70.170593%, 76.043701%)" offset="0.152344"/><stop stop-opacity="1" stop-color="rgb(21.42334%, 69.955444%, 75.87738%)" offset="0.15625"/><stop stop-opacity="1" stop-color="rgb(21.379089%, 69.73877%, 75.709534%)" offset="0.160156"/><stop stop-opacity="1" stop-color="rgb(21.336365%, 69.522095%, 75.543213%)" offset="0.164062"/><stop stop-opacity="1" stop-color="rgb(21.29364%, 69.30542%, 75.375366%)" offset="0.167969"/><stop stop-opacity="1" stop-color="rgb(21.250916%, 69.090271%, 75.209045%)" offset="0.171875"/><stop stop-opacity="1" stop-color="rgb(21.208191%, 68.873596%, 75.042725%)" offset="0.175781"/><stop stop-opacity="1" stop-color="rgb(21.165466%, 68.656921%, 74.876404%)" offset="0.179687"/><stop stop-opacity="1" stop-color="rgb(21.121216%, 68.440247%, 74.708557%)" offset="0.183594"/><stop stop-opacity="1" stop-color="rgb(21.078491%, 68.225098%, 74.542236%)" offset="0.1875"/><stop stop-opacity="1" stop-color="rgb(21.035767%, 68.008423%, 74.37439%)" offset="0.191406"/><stop stop-opacity="1" stop-color="rgb(20.993042%, 67.791748%, 74.208069%)" offset="0.195312"/><stop stop-opacity="1" stop-color="rgb(20.950317%, 67.575073%, 74.040222%)" offset="0.199219"/><stop stop-opacity="1" stop-color="rgb(20.907593%, 67.359924%, 73.873901%)" offset="0.203125"/><stop stop-opacity="1" stop-color="rgb(20.864868%, 67.14325%, 73.706055%)" offset="0.207031"/><stop stop-opacity="1" stop-color="rgb(20.822144%, 66.926575%, 73.539734%)" offset="0.210937"/><stop stop-opacity="1" stop-color="rgb(20.777893%, 66.7099%, 73.371887%)" offset="0.214844"/><stop stop-opacity="1" stop-color="rgb(20.735168%, 66.494751%, 73.205566%)" offset="0.21875"/><stop stop-opacity="1" stop-color="rgb(20.692444%, 66.278076%, 73.03772%)" offset="0.222656"/><stop stop-opacity="1" stop-color="rgb(20.649719%, 66.061401%, 72.871399%)" offset="0.226562"/><stop stop-opacity="1" stop-color="rgb(20.606995%, 65.844727%, 72.703552%)" offset="0.230469"/><stop stop-opacity="1" stop-color="rgb(20.56427%, 65.629578%, 72.537231%)" offset="0.234375"/><stop stop-opacity="1" stop-color="rgb(20.52002%, 65.412903%, 72.369385%)" offset="0.238281"/><stop stop-opacity="1" stop-color="rgb(20.477295%, 65.196228%, 72.203064%)" offset="0.242187"/><stop stop-opacity="1" stop-color="rgb(20.43457%, 64.979553%, 72.035217%)" offset="0.246094"/><stop stop-opacity="1" stop-color="rgb(20.391846%, 64.764404%, 71.868896%)" offset="0.25"/><stop stop-opacity="1" stop-color="rgb(20.349121%, 64.547729%, 71.70105%)" offset="0.253906"/><stop stop-opacity="1" stop-color="rgb(20.306396%, 64.331055%, 71.534729%)" offset="0.257812"/><stop stop-opacity="1" stop-color="rgb(20.263672%, 64.11438%, 71.366882%)" offset="0.261719"/><stop stop-opacity="1" stop-color="rgb(20.220947%, 63.899231%, 71.200562%)" offset="0.265625"/><stop stop-opacity="1" stop-color="rgb(20.176697%, 63.682556%, 71.032715%)" offset="0.269531"/><stop stop-opacity="1" stop-color="rgb(20.133972%, 63.465881%, 70.866394%)" offset="0.273437"/><stop stop-opacity="1" stop-color="rgb(20.091248%, 63.249207%, 70.698547%)" offset="0.277344"/><stop stop-opacity="1" stop-color="rgb(20.048523%, 63.034058%, 70.532227%)" offset="0.28125"/><stop stop-opacity="1" stop-color="rgb(20.005798%, 62.817383%, 70.36438%)" offset="0.285156"/><stop stop-opacity="1" stop-color="rgb(19.963074%, 62.600708%, 70.198059%)" offset="0.289062"/><stop stop-opacity="1" stop-color="rgb(19.918823%, 62.384033%, 70.030212%)" offset="0.292969"/><stop stop-opacity="1" stop-color="rgb(19.876099%, 62.168884%, 69.863892%)" offset="0.296875"/><stop stop-opacity="1" stop-color="rgb(19.833374%, 61.952209%, 69.696045%)" offset="0.300781"/><stop stop-opacity="1" stop-color="rgb(19.790649%, 61.735535%, 69.529724%)" offset="0.304687"/><stop stop-opacity="1" stop-color="rgb(19.747925%, 61.51886%, 69.361877%)" offset="0.308594"/><stop stop-opacity="1" stop-color="rgb(19.7052%, 61.303711%, 69.195557%)" offset="0.3125"/><stop stop-opacity="1" stop-color="rgb(19.662476%, 61.087036%, 69.02771%)" offset="0.316406"/><stop stop-opacity="1" stop-color="rgb(19.619751%, 60.870361%, 68.861389%)" offset="0.320312"/><stop stop-opacity="1" stop-color="rgb(19.5755%, 60.653687%, 68.693542%)" offset="0.324219"/><stop stop-opacity="1" stop-color="rgb(19.532776%, 60.438538%, 68.527222%)" offset="0.328125"/><stop stop-opacity="1" stop-color="rgb(19.490051%, 60.221863%, 68.360901%)" offset="0.332031"/><stop stop-opacity="1" stop-color="rgb(19.447327%, 60.005188%, 68.19458%)" offset="0.335937"/><stop stop-opacity="1" stop-color="rgb(19.404602%, 59.788513%, 68.026733%)" offset="0.339844"/><stop stop-opacity="1" stop-color="rgb(19.361877%, 59.573364%, 67.860413%)" offset="0.34375"/><stop stop-opacity="1" stop-color="rgb(19.317627%, 59.356689%, 67.692566%)" offset="0.347656"/><stop stop-opacity="1" stop-color="rgb(19.274902%, 59.140015%, 67.526245%)" offset="0.351562"/><stop stop-opacity="1" stop-color="rgb(19.232178%, 58.92334%, 67.358398%)" offset="0.355469"/><stop stop-opacity="1" stop-color="rgb(19.189453%, 58.708191%, 67.192078%)" offset="0.359375"/><stop stop-opacity="1" stop-color="rgb(19.146729%, 58.491516%, 67.024231%)" offset="0.363281"/><stop stop-opacity="1" stop-color="rgb(19.104004%, 58.274841%, 66.85791%)" offset="0.367187"/><stop stop-opacity="1" stop-color="rgb(19.061279%, 58.058167%, 66.690063%)" offset="0.371094"/><stop stop-opacity="1" stop-color="rgb(19.018555%, 57.843018%, 66.523743%)" offset="0.375"/><stop stop-opacity="1" stop-color="rgb(18.974304%, 57.626343%, 66.355896%)" offset="0.378906"/><stop stop-opacity="1" stop-color="rgb(18.93158%, 57.411194%, 66.189575%)" offset="0.382812"/><stop stop-opacity="1" stop-color="rgb(18.888855%, 57.194519%, 66.021729%)" offset="0.386719"/><stop stop-opacity="1" stop-color="rgb(18.84613%, 56.977844%, 65.855408%)" offset="0.390625"/><stop stop-opacity="1" stop-color="rgb(18.803406%, 56.761169%, 65.687561%)" offset="0.394531"/><stop stop-opacity="1" stop-color="rgb(18.760681%, 56.546021%, 65.52124%)" offset="0.398437"/><stop stop-opacity="1" stop-color="rgb(18.716431%, 56.329346%, 65.353394%)" offset="0.402344"/><stop stop-opacity="1" stop-color="rgb(18.673706%, 56.112671%, 65.187073%)" offset="0.40625"/><stop stop-opacity="1" stop-color="rgb(18.630981%, 55.895996%, 65.019226%)" offset="0.410156"/><stop stop-opacity="1" stop-color="rgb(18.588257%, 55.680847%, 64.852905%)" offset="0.414062"/><stop stop-opacity="1" stop-color="rgb(18.545532%, 55.464172%, 64.685059%)" offset="0.417969"/><stop stop-opacity="1" stop-color="rgb(18.502808%, 55.247498%, 64.518738%)" offset="0.421875"/><stop stop-opacity="1" stop-color="rgb(18.460083%, 55.030823%, 64.350891%)" offset="0.425781"/><stop stop-opacity="1" stop-color="rgb(18.417358%, 54.815674%, 64.18457%)" offset="0.429687"/><stop stop-opacity="1" stop-color="rgb(18.373108%, 54.598999%, 64.016724%)" offset="0.433594"/><stop stop-opacity="1" stop-color="rgb(18.330383%, 54.382324%, 63.850403%)" offset="0.4375"/><stop stop-opacity="1" stop-color="rgb(18.287659%, 54.165649%, 63.682556%)" offset="0.441406"/><stop stop-opacity="1" stop-color="rgb(18.244934%, 53.9505%, 63.516235%)" offset="0.445312"/><stop stop-opacity="1" stop-color="rgb(18.202209%, 53.733826%, 63.348389%)" offset="0.449219"/><stop stop-opacity="1" stop-color="rgb(18.159485%, 53.517151%, 63.182068%)" offset="0.453125"/><stop stop-opacity="1" stop-color="rgb(18.115234%, 53.300476%, 63.014221%)" offset="0.457031"/><stop stop-opacity="1" stop-color="rgb(18.07251%, 53.085327%, 62.8479%)" offset="0.460937"/><stop stop-opacity="1" stop-color="rgb(18.029785%, 52.868652%, 62.680054%)" offset="0.464844"/><stop stop-opacity="1" stop-color="rgb(17.987061%, 52.651978%, 62.513733%)" offset="0.46875"/><stop stop-opacity="1" stop-color="rgb(17.944336%, 52.435303%, 62.345886%)" offset="0.472656"/><stop stop-opacity="1" stop-color="rgb(17.901611%, 52.220154%, 62.179565%)" offset="0.476562"/><stop stop-opacity="1" stop-color="rgb(17.858887%, 52.003479%, 62.011719%)" offset="0.480469"/><stop stop-opacity="1" stop-color="rgb(17.816162%, 51.786804%, 61.845398%)" offset="0.484375"/><stop stop-opacity="1" stop-color="rgb(17.771912%, 51.570129%, 61.679077%)" offset="0.488281"/><stop stop-opacity="1" stop-color="rgb(17.729187%, 51.35498%, 61.512756%)" offset="0.492187"/><stop stop-opacity="1" stop-color="rgb(17.686462%, 51.138306%, 61.34491%)" offset="0.496094"/><stop stop-opacity="1" stop-color="rgb(17.643738%, 50.921631%, 61.178589%)" offset="0.5"/><stop stop-opacity="1" stop-color="rgb(17.601013%, 50.704956%, 61.010742%)" offset="0.503906"/><stop stop-opacity="1" stop-color="rgb(17.558289%, 50.489807%, 60.844421%)" offset="0.507812"/><stop stop-opacity="1" stop-color="rgb(17.514038%, 50.273132%, 60.676575%)" offset="0.511719"/><stop stop-opacity="1" stop-color="rgb(17.471313%, 50.056458%, 60.510254%)" offset="0.515625"/><stop stop-opacity="1" stop-color="rgb(17.428589%, 49.839783%, 60.342407%)" offset="0.519531"/><stop stop-opacity="1" stop-color="rgb(17.385864%, 49.624634%, 60.176086%)" offset="0.523437"/><stop stop-opacity="1" stop-color="rgb(17.34314%, 49.407959%, 60.00824%)" offset="0.527344"/><stop stop-opacity="1" stop-color="rgb(17.300415%, 49.191284%, 59.841919%)" offset="0.53125"/><stop stop-opacity="1" stop-color="rgb(17.25769%, 48.974609%, 59.674072%)" offset="0.535156"/><stop stop-opacity="1" stop-color="rgb(17.214966%, 48.75946%, 59.507751%)" offset="0.539062"/><stop stop-opacity="1" stop-color="rgb(17.170715%, 48.542786%, 59.339905%)" offset="0.542969"/><stop stop-opacity="1" stop-color="rgb(17.127991%, 48.326111%, 59.173584%)" offset="0.546875"/><stop stop-opacity="1" stop-color="rgb(17.085266%, 48.109436%, 59.005737%)" offset="0.550781"/><stop stop-opacity="1" stop-color="rgb(17.042542%, 47.894287%, 58.839417%)" offset="0.554688"/><stop stop-opacity="1" stop-color="rgb(16.999817%, 47.677612%, 58.67157%)" offset="0.558594"/><stop stop-opacity="1" stop-color="rgb(16.957092%, 47.460938%, 58.505249%)" offset="0.5625"/><stop stop-opacity="1" stop-color="rgb(16.912842%, 47.244263%, 58.337402%)" offset="0.566406"/><stop stop-opacity="1" stop-color="rgb(16.870117%, 47.029114%, 58.171082%)" offset="0.570312"/><stop stop-opacity="1" stop-color="rgb(16.827393%, 46.812439%, 58.003235%)" offset="0.574219"/><stop stop-opacity="1" stop-color="rgb(16.784668%, 46.595764%, 57.836914%)" offset="0.578125"/><stop stop-opacity="1" stop-color="rgb(16.741943%, 46.379089%, 57.669067%)" offset="0.582031"/><stop stop-opacity="1" stop-color="rgb(16.699219%, 46.16394%, 57.502747%)" offset="0.585937"/><stop stop-opacity="1" stop-color="rgb(16.656494%, 45.947266%, 57.3349%)" offset="0.589844"/><stop stop-opacity="1" stop-color="rgb(16.61377%, 45.730591%, 57.168579%)" offset="0.59375"/><stop stop-opacity="1" stop-color="rgb(16.569519%, 45.513916%, 57.000732%)" offset="0.597656"/><stop stop-opacity="1" stop-color="rgb(16.526794%, 45.298767%, 56.834412%)" offset="0.601562"/><stop stop-opacity="1" stop-color="rgb(16.48407%, 45.082092%, 56.666565%)" offset="0.605469"/><stop stop-opacity="1" stop-color="rgb(16.441345%, 44.865417%, 56.500244%)" offset="0.609375"/><stop stop-opacity="1" stop-color="rgb(16.398621%, 44.648743%, 56.332397%)" offset="0.613281"/><stop stop-opacity="1" stop-color="rgb(16.355896%, 44.433594%, 56.166077%)" offset="0.617187"/><stop stop-opacity="1" stop-color="rgb(16.311646%, 44.216919%, 55.99823%)" offset="0.621094"/><stop stop-opacity="1" stop-color="rgb(16.268921%, 44.000244%, 55.831909%)" offset="0.625"/><stop stop-opacity="1" stop-color="rgb(16.226196%, 43.783569%, 55.664062%)" offset="0.628906"/><stop stop-opacity="1" stop-color="rgb(16.183472%, 43.56842%, 55.497742%)" offset="0.632812"/><stop stop-opacity="1" stop-color="rgb(16.140747%, 43.351746%, 55.329895%)" offset="0.636719"/><stop stop-opacity="1" stop-color="rgb(16.098022%, 43.135071%, 55.163574%)" offset="0.640625"/><stop stop-opacity="1" stop-color="rgb(16.055298%, 42.918396%, 54.997253%)" offset="0.644531"/><stop stop-opacity="1" stop-color="rgb(16.012573%, 42.703247%, 54.830933%)" offset="0.648438"/><stop stop-opacity="1" stop-color="rgb(15.968323%, 42.486572%, 54.663086%)" offset="0.652344"/><stop stop-opacity="1" stop-color="rgb(15.925598%, 42.269897%, 54.496765%)" offset="0.65625"/><stop stop-opacity="1" stop-color="rgb(15.882874%, 42.053223%, 54.328918%)" offset="0.660156"/><stop stop-opacity="1" stop-color="rgb(15.840149%, 41.838074%, 54.162598%)" offset="0.664062"/><stop stop-opacity="1" stop-color="rgb(15.797424%, 41.621399%, 53.994751%)" offset="0.667969"/><stop stop-opacity="1" stop-color="rgb(15.7547%, 41.404724%, 53.82843%)" offset="0.671875"/><stop stop-opacity="1" stop-color="rgb(15.710449%, 41.188049%, 53.660583%)" offset="0.675781"/><stop stop-opacity="1" stop-color="rgb(15.667725%, 40.9729%, 53.494263%)" offset="0.679687"/><stop stop-opacity="1" stop-color="rgb(15.625%, 40.756226%, 53.326416%)" offset="0.683594"/><stop stop-opacity="1" stop-color="rgb(15.582275%, 40.539551%, 53.160095%)" offset="0.6875"/><stop stop-opacity="1" stop-color="rgb(15.539551%, 40.322876%, 52.992249%)" offset="0.691406"/><stop stop-opacity="1" stop-color="rgb(15.496826%, 40.107727%, 52.825928%)" offset="0.695312"/><stop stop-opacity="1" stop-color="rgb(15.454102%, 39.891052%, 52.658081%)" offset="0.699219"/><stop stop-opacity="1" stop-color="rgb(15.411377%, 39.674377%, 52.49176%)" offset="0.703125"/><stop stop-opacity="1" stop-color="rgb(15.367126%, 39.457703%, 52.323914%)" offset="0.707031"/><stop stop-opacity="1" stop-color="rgb(15.324402%, 39.242554%, 52.157593%)" offset="0.710937"/><stop stop-opacity="1" stop-color="rgb(15.281677%, 39.025879%, 51.989746%)" offset="0.714844"/><stop stop-opacity="1" stop-color="rgb(15.238953%, 38.809204%, 51.823425%)" offset="0.71875"/><stop stop-opacity="1" stop-color="rgb(15.196228%, 38.592529%, 51.655579%)" offset="0.722656"/><stop stop-opacity="1" stop-color="rgb(15.153503%, 38.37738%, 51.489258%)" offset="0.726562"/><stop stop-opacity="1" stop-color="rgb(15.109253%, 38.160706%, 51.321411%)" offset="0.730469"/><stop stop-opacity="1" stop-color="rgb(15.066528%, 37.944031%, 51.15509%)" offset="0.734375"/><stop stop-opacity="1" stop-color="rgb(15.023804%, 37.727356%, 50.987244%)" offset="0.738281"/><stop stop-opacity="1" stop-color="rgb(14.981079%, 37.512207%, 50.820923%)" offset="0.742188"/><stop stop-opacity="1" stop-color="rgb(14.938354%, 37.295532%, 50.653076%)" offset="0.746094"/><stop stop-opacity="1" stop-color="rgb(14.89563%, 37.078857%, 50.486755%)" offset="0.75"/><stop stop-opacity="1" stop-color="rgb(14.852905%, 36.862183%, 50.318909%)" offset="0.753906"/><stop stop-opacity="1" stop-color="rgb(14.810181%, 36.647034%, 50.152588%)" offset="0.757812"/><stop stop-opacity="1" stop-color="rgb(14.76593%, 36.430359%, 49.984741%)" offset="0.761719"/><stop stop-opacity="1" stop-color="rgb(14.723206%, 36.213684%, 49.81842%)" offset="0.765625"/><stop stop-opacity="1" stop-color="rgb(14.680481%, 35.997009%, 49.650574%)" offset="0.769531"/><stop stop-opacity="1" stop-color="rgb(14.637756%, 35.78186%, 49.484253%)" offset="0.773437"/><stop stop-opacity="1" stop-color="rgb(14.595032%, 35.565186%, 49.316406%)" offset="0.777344"/><stop stop-opacity="1" stop-color="rgb(14.552307%, 35.348511%, 49.150085%)" offset="0.78125"/><stop stop-opacity="1" stop-color="rgb(14.508057%, 35.131836%, 48.982239%)" offset="0.785156"/><stop stop-opacity="1" stop-color="rgb(14.465332%, 34.916687%, 48.815918%)" offset="0.789062"/><stop stop-opacity="1" stop-color="rgb(14.422607%, 34.700012%, 48.649597%)" offset="0.792969"/><stop stop-opacity="1" stop-color="rgb(14.379883%, 34.483337%, 48.483276%)" offset="0.796875"/><stop stop-opacity="1" stop-color="rgb(14.337158%, 34.266663%, 48.31543%)" offset="0.800781"/><stop stop-opacity="1" stop-color="rgb(14.294434%, 34.051514%, 48.149109%)" offset="0.804687"/><stop stop-opacity="1" stop-color="rgb(14.251709%, 33.834839%, 47.981262%)" offset="0.808594"/><stop stop-opacity="1" stop-color="rgb(14.208984%, 33.618164%, 47.814941%)" offset="0.8125"/><stop stop-opacity="1" stop-color="rgb(14.164734%, 33.401489%, 47.647095%)" offset="0.816406"/><stop stop-opacity="1" stop-color="rgb(14.122009%, 33.18634%, 47.480774%)" offset="0.820312"/><stop stop-opacity="1" stop-color="rgb(14.079285%, 32.969666%, 47.312927%)" offset="0.824219"/><stop stop-opacity="1" stop-color="rgb(14.03656%, 32.752991%, 47.146606%)" offset="0.828125"/><stop stop-opacity="1" stop-color="rgb(13.993835%, 32.536316%, 46.97876%)" offset="0.832031"/><stop stop-opacity="1" stop-color="rgb(13.951111%, 32.321167%, 46.812439%)" offset="0.835938"/><stop stop-opacity="1" stop-color="rgb(13.90686%, 32.104492%, 46.644592%)" offset="0.839844"/><stop stop-opacity="1" stop-color="rgb(13.864136%, 31.887817%, 46.478271%)" offset="0.84375"/><stop stop-opacity="1" stop-color="rgb(13.821411%, 31.671143%, 46.310425%)" offset="0.847656"/><stop stop-opacity="1" stop-color="rgb(13.778687%, 31.455994%, 46.144104%)" offset="0.851562"/><stop stop-opacity="1" stop-color="rgb(13.735962%, 31.239319%, 45.976257%)" offset="0.855469"/><stop stop-opacity="1" stop-color="rgb(13.693237%, 31.022644%, 45.809937%)" offset="0.859375"/><stop stop-opacity="1" stop-color="rgb(13.650513%, 30.805969%, 45.64209%)" offset="0.863281"/><stop stop-opacity="1" stop-color="rgb(13.607788%, 30.59082%, 45.475769%)" offset="0.867187"/><stop stop-opacity="1" stop-color="rgb(13.563538%, 30.374146%, 45.307922%)" offset="0.871094"/><stop stop-opacity="1" stop-color="rgb(13.520813%, 30.157471%, 45.141602%)" offset="0.875"/><stop stop-opacity="1" stop-color="rgb(13.478088%, 29.940796%, 44.973755%)" offset="0.878906"/><stop stop-opacity="1" stop-color="rgb(13.435364%, 29.725647%, 44.807434%)" offset="0.882812"/><stop stop-opacity="1" stop-color="rgb(13.392639%, 29.508972%, 44.639587%)" offset="0.886719"/><stop stop-opacity="1" stop-color="rgb(13.349915%, 29.292297%, 44.473267%)" offset="0.890625"/><stop stop-opacity="1" stop-color="rgb(13.305664%, 29.075623%, 44.30542%)" offset="0.894531"/><stop stop-opacity="1" stop-color="rgb(13.262939%, 28.860474%, 44.139099%)" offset="0.898437"/><stop stop-opacity="1" stop-color="rgb(13.220215%, 28.643799%, 43.971252%)" offset="0.902344"/><stop stop-opacity="1" stop-color="rgb(13.17749%, 28.427124%, 43.804932%)" offset="0.90625"/><stop stop-opacity="1" stop-color="rgb(13.134766%, 28.210449%, 43.637085%)" offset="0.910156"/><stop stop-opacity="1" stop-color="rgb(13.092041%, 27.9953%, 43.470764%)" offset="0.914062"/><stop stop-opacity="1" stop-color="rgb(13.049316%, 27.778625%, 43.302917%)" offset="0.917969"/><stop stop-opacity="1" stop-color="rgb(13.006592%, 27.561951%, 43.136597%)" offset="0.921875"/><stop stop-opacity="1" stop-color="rgb(12.962341%, 27.345276%, 42.96875%)" offset="0.925781"/><stop stop-opacity="1" stop-color="rgb(12.919617%, 27.130127%, 42.802429%)" offset="0.929688"/><stop stop-opacity="1" stop-color="rgb(12.876892%, 26.913452%, 42.634583%)" offset="0.933594"/><stop stop-opacity="1" stop-color="rgb(12.834167%, 26.696777%, 42.468262%)" offset="0.9375"/><stop stop-opacity="1" stop-color="rgb(12.791443%, 26.480103%, 42.300415%)" offset="0.941406"/><stop stop-opacity="1" stop-color="rgb(12.748718%, 26.264954%, 42.134094%)" offset="0.945312"/><stop stop-opacity="1" stop-color="rgb(12.704468%, 26.048279%, 41.967773%)" offset="0.949219"/><stop stop-opacity="1" stop-color="rgb(12.661743%, 25.831604%, 41.801453%)" offset="0.953125"/><stop stop-opacity="1" stop-color="rgb(12.619019%, 25.614929%, 41.633606%)" offset="0.957031"/><stop stop-opacity="1" stop-color="rgb(12.576294%, 25.39978%, 41.467285%)" offset="0.960937"/><stop stop-opacity="1" stop-color="rgb(12.533569%, 25.183105%, 41.299438%)" offset="0.964844"/><stop stop-opacity="1" stop-color="rgb(12.490845%, 24.966431%, 41.133118%)" offset="0.96875"/><stop stop-opacity="1" stop-color="rgb(12.44812%, 24.749756%, 40.965271%)" offset="0.972656"/><stop stop-opacity="1" stop-color="rgb(12.405396%, 24.534607%, 40.79895%)" offset="0.976562"/><stop stop-opacity="1" stop-color="rgb(12.361145%, 24.317932%, 40.631104%)" offset="0.980469"/><stop stop-opacity="1" stop-color="rgb(12.31842%, 24.101257%, 40.464783%)" offset="0.984375"/><stop stop-opacity="1" stop-color="rgb(12.275696%, 23.884583%, 40.296936%)" offset="0.988281"/><stop stop-opacity="1" stop-color="rgb(12.232971%, 23.669434%, 40.130615%)" offset="0.992188"/><stop stop-opacity="1" stop-color="rgb(12.216187%, 23.583984%, 40.065002%)" offset="1"/></linearGradient><clipPath id="c2e93d9ef7"><path d="M 237 380 L 293 380 L 293 496 L 237 496 Z M 237 380 " clip-rule="nonzero"/></clipPath><clipPath id="c58f728943"><path d="M 237.222656 387.332031 L 269.839844 380.507812 L 292.433594 488.515625 L 259.8125 495.339844 Z M 237.222656 387.332031 " clip-rule="nonzero"/></clipPath><clipPath id="75cb285bea"><path d="M 237.222656 387.332031 L 269.839844 380.507812 L 292.433594 488.515625 L 259.8125 495.339844 Z M 237.222656 387.332031 " clip-rule="nonzero"/></clipPath></defs><path fill="#1f3c66" d="M 240 570 L 700.558594 570 C 702.378906 570.007812 704.199219 569.972656 706.019531 569.902344 C 707.835938 569.832031 709.652344 569.722656 711.46875 569.578125 C 713.28125 569.429688 715.089844 569.246094 716.898438 569.019531 C 718.703125 568.796875 720.503906 568.535156 722.300781 568.234375 C 724.09375 567.9375 725.882812 567.597656 727.664062 567.222656 C 729.445312 566.847656 731.214844 566.433594 732.980469 565.984375 C 734.742188 565.535156 736.496094 565.046875 738.238281 564.523438 C 739.980469 564 741.714844 563.441406 743.433594 562.84375 C 745.152344 562.246094 746.859375 561.613281 748.550781 560.941406 C 750.242188 560.273438 751.921875 559.570312 753.582031 558.828125 C 755.246094 558.089844 756.890625 557.3125 758.523438 556.503906 C 760.152344 555.695312 761.765625 554.851562 763.359375 553.972656 C 764.953125 553.097656 766.527344 552.183594 768.085938 551.242188 C 769.640625 550.296875 771.175781 549.320312 772.691406 548.3125 C 774.203125 547.300781 775.699219 546.261719 777.167969 545.191406 C 778.640625 544.117188 780.085938 543.015625 781.511719 541.882812 C 782.933594 540.75 784.335938 539.585938 785.710938 538.394531 C 787.085938 537.203125 788.433594 535.980469 789.757812 534.730469 C 791.082031 533.484375 792.378906 532.207031 793.648438 530.902344 C 794.917969 529.597656 796.160156 528.269531 797.371094 526.910156 C 798.585938 525.554688 799.769531 524.171875 800.925781 522.765625 C 802.082031 521.359375 803.207031 519.929688 804.300781 518.476562 C 805.394531 517.023438 806.457031 515.546875 807.492188 514.046875 C 808.523438 512.546875 809.523438 511.027344 810.492188 509.488281 C 811.460938 507.945312 812.394531 506.386719 813.296875 504.804688 C 814.199219 503.226562 815.066406 501.625 815.902344 500.007812 C 816.738281 498.390625 817.539062 496.757812 818.304688 495.105469 C 819.070312 493.457031 819.800781 491.789062 820.496094 490.105469 C 821.191406 488.425781 821.851562 486.730469 822.472656 485.019531 C 823.097656 483.308594 823.6875 481.585938 824.238281 479.851562 C 824.789062 478.117188 825.300781 476.371094 825.78125 474.617188 C 826.257812 472.859375 826.695312 471.09375 827.101562 469.320312 L 899.25 156.75 C 899.503906 155.652344 899.695312 154.546875 899.824219 153.429688 C 899.953125 152.3125 900.015625 151.191406 900.019531 150.0625 C 900.023438 148.9375 899.960938 147.816406 899.835938 146.699219 C 899.714844 145.582031 899.527344 144.472656 899.277344 143.375 C 899.03125 142.277344 898.722656 141.199219 898.351562 140.136719 C 897.980469 139.074219 897.550781 138.035156 897.066406 137.019531 C 896.578125 136.003906 896.035156 135.023438 895.4375 134.066406 C 894.839844 133.113281 894.191406 132.199219 893.492188 131.316406 C 892.792969 130.4375 892.042969 129.597656 891.25 128.804688 C 890.453125 128.007812 889.617188 127.257812 888.738281 126.554688 C 887.859375 125.851562 886.941406 125.203125 885.988281 124.605469 C 885.035156 124.003906 884.054688 123.460938 883.039062 122.972656 C 882.027344 122.484375 880.988281 122.054688 879.925781 121.683594 C 878.863281 121.3125 877.785156 121 876.6875 120.75 C 875.589844 120.5 874.484375 120.3125 873.363281 120.1875 C 872.246094 120.0625 871.125 120 870 120 L 171.988281 120 L 149.21875 23.128906 C 148.835938 21.496094 148.316406 19.902344 147.664062 18.355469 C 147.015625 16.808594 146.238281 15.328125 145.335938 13.910156 C 144.4375 12.492188 143.421875 11.160156 142.300781 9.910156 C 141.175781 8.664062 139.953125 7.519531 138.636719 6.476562 C 137.320312 5.433594 135.925781 4.511719 134.453125 3.703125 C 132.980469 2.894531 131.453125 2.214844 129.867188 1.664062 C 128.28125 1.113281 126.660156 0.695312 125.003906 0.417969 C 123.347656 0.136719 121.679688 0 120 0 L 30 0 C 29.015625 0 28.039062 0.046875 27.058594 0.144531 C 26.082031 0.242188 25.109375 0.386719 24.148438 0.578125 C 23.183594 0.769531 22.230469 1.007812 21.292969 1.292969 C 20.351562 1.578125 19.425781 1.90625 18.519531 2.285156 C 17.613281 2.660156 16.726562 3.078125 15.859375 3.542969 C 14.992188 4.003906 14.148438 4.511719 13.332031 5.054688 C 12.515625 5.601562 11.726562 6.1875 10.96875 6.808594 C 10.207031 7.433594 9.480469 8.09375 8.785156 8.785156 C 8.09375 9.480469 7.433594 10.207031 6.808594 10.96875 C 6.1875 11.726562 5.601562 12.515625 5.054688 13.332031 C 4.511719 14.148438 4.003906 14.992188 3.542969 15.859375 C 3.078125 16.726562 2.660156 17.613281 2.285156 18.519531 C 1.90625 19.425781 1.578125 20.351562 1.292969 21.292969 C 1.007812 22.230469 0.769531 23.183594 0.578125 24.148438 C 0.382812 25.109375 0.242188 26.082031 0.144531 27.058594 C 0.046875 28.039062 0 29.015625 0 30 C 0 30.984375 0.046875 31.960938 0.144531 32.941406 C 0.242188 33.917969 0.382812 34.890625 0.578125 35.851562 C 0.769531 36.816406 1.007812 37.769531 1.292969 38.707031 C 1.578125 39.648438 1.90625 40.574219 2.285156 41.480469 C 2.660156 42.386719 3.078125 43.277344 3.542969 44.140625 C 4.003906 45.007812 4.511719 45.851562 5.054688 46.667969 C 5.601562 47.484375 6.1875 48.273438 6.808594 49.03125 C 7.433594 49.792969 8.09375 50.519531 8.785156 51.214844 C 9.480469 51.90625 10.207031 52.566406 10.96875 53.191406 C 11.726562 53.8125 12.515625 54.398438 13.332031 54.945312 C 14.148438 55.488281 14.992188 55.996094 15.859375 56.457031 C 16.726562 56.921875 17.613281 57.339844 18.519531 57.714844 C 19.425781 58.09375 20.351562 58.421875 21.292969 58.707031 C 22.230469 58.992188 23.183594 59.230469 24.148438 59.421875 C 25.109375 59.617188 26.082031 59.757812 27.058594 59.855469 C 28.039062 59.953125 29.015625 60 30 60 L 96.238281 60 L 204 517.679688 C 201.664062 518.710938 199.378906 519.839844 197.140625 521.066406 C 194.902344 522.292969 192.71875 523.613281 190.589844 525.023438 C 188.464844 526.4375 186.402344 527.9375 184.402344 529.523438 C 182.402344 531.113281 180.476562 532.78125 178.617188 534.535156 C 176.761719 536.285156 174.984375 538.113281 173.28125 540.015625 C 171.578125 541.917969 169.960938 543.890625 168.429688 545.933594 C 166.894531 547.972656 165.449219 550.074219 164.097656 552.238281 C 162.742188 554.402344 161.480469 556.621094 160.316406 558.890625 C 159.148438 561.160156 158.082031 563.476562 157.113281 565.839844 C 156.144531 568.199219 155.277344 570.597656 154.511719 573.035156 C 153.746094 575.46875 153.085938 577.933594 152.53125 580.425781 C 151.976562 582.917969 151.527344 585.429688 151.1875 587.957031 C 150.84375 590.488281 150.613281 593.027344 150.484375 595.578125 C 150.359375 598.125 150.34375 600.675781 150.433594 603.226562 C 150.527344 605.78125 150.726562 608.320312 151.035156 610.855469 C 151.34375 613.390625 151.757812 615.90625 152.277344 618.40625 C 152.800781 620.90625 153.429688 623.375 154.160156 625.820312 C 154.894531 628.265625 155.726562 630.675781 156.664062 633.050781 C 157.601562 635.425781 158.640625 637.757812 159.777344 640.042969 C 160.910156 642.328125 162.140625 644.5625 163.46875 646.746094 C 164.792969 648.925781 166.210938 651.046875 167.714844 653.109375 C 169.222656 655.167969 170.8125 657.164062 172.488281 659.085938 C 174.164062 661.011719 175.921875 662.863281 177.753906 664.640625 C 179.585938 666.417969 181.492188 668.113281 183.46875 669.726562 C 185.449219 671.339844 187.492188 672.867188 189.597656 674.308594 C 191.707031 675.746094 193.871094 677.097656 196.09375 678.351562 C 198.316406 679.609375 200.585938 680.769531 202.910156 681.832031 C 205.230469 682.894531 207.589844 683.855469 209.996094 684.71875 C 212.398438 685.578125 214.832031 686.335938 217.300781 686.992188 C 219.765625 687.644531 222.257812 688.195312 224.773438 688.636719 C 227.285156 689.082031 229.8125 689.414062 232.355469 689.644531 C 234.898438 689.871094 237.445312 689.988281 240 690 L 810 690 C 810.984375 690 811.960938 689.953125 812.941406 689.855469 C 813.917969 689.757812 814.890625 689.613281 815.851562 689.421875 C 816.816406 689.230469 817.769531 688.992188 818.707031 688.707031 C 819.648438 688.421875 820.574219 688.09375 821.480469 687.714844 C 822.386719 687.339844 823.273438 686.921875 824.140625 686.457031 C 825.007812 685.996094 825.851562 685.488281 826.667969 684.945312 C 827.484375 684.398438 828.273438 683.8125 829.03125 683.191406 C 829.792969 682.566406 830.519531 681.90625 831.214844 681.214844 C 831.90625 680.519531 832.566406 679.792969 833.191406 679.03125 C 833.8125 678.273438 834.398438 677.484375 834.945312 676.667969 C 835.488281 675.851562 835.996094 675.007812 836.457031 674.140625 C 836.921875 673.273438 837.339844 672.386719 837.714844 671.480469 C 838.09375 670.574219 838.421875 669.648438 838.707031 668.707031 C 838.992188 667.769531 839.230469 666.816406 839.421875 665.851562 C 839.613281 664.890625 839.757812 663.917969 839.855469 662.941406 C 839.953125 661.960938 840 660.984375 840 660 C 840 659.015625 839.953125 658.039062 839.855469 657.058594 C 839.757812 656.082031 839.613281 655.109375 839.421875 654.148438 C 839.230469 653.183594 838.992188 652.230469 838.707031 651.292969 C 838.421875 650.351562 838.09375 649.425781 837.714844 648.519531 C 837.339844 647.613281 836.921875 646.722656 836.457031 645.859375 C 835.996094 644.992188 835.488281 644.148438 834.945312 643.332031 C 834.398438 642.515625 833.8125 641.726562 833.191406 640.96875 C 832.566406 640.207031 831.90625 639.480469 831.214844 638.785156 C 830.519531 638.09375 829.792969 637.433594 829.03125 636.808594 C 828.273438 636.1875 827.484375 635.601562 826.667969 635.054688 C 825.851562 634.511719 825.007812 634.003906 824.140625 633.542969 C 823.273438 633.078125 822.386719 632.660156 821.480469 632.285156 C 820.574219 631.90625 819.648438 631.578125 818.707031 631.292969 C 817.769531 631.007812 816.816406 630.769531 815.851562 630.578125 C 814.890625 630.382812 813.917969 630.242188 812.941406 630.144531 C 811.960938 630.046875 810.984375 630 810 630 L 240 630 C 239.015625 630 238.039062 629.953125 237.058594 629.855469 C 236.082031 629.757812 235.109375 629.617188 234.148438 629.421875 C 233.183594 629.230469 232.230469 628.992188 231.292969 628.707031 C 230.351562 628.421875 229.425781 628.09375 228.519531 627.714844 C 227.613281 627.339844 226.722656 626.921875 225.859375 626.457031 C 224.992188 625.996094 224.148438 625.488281 223.332031 624.945312 C 222.515625 624.398438 221.726562 623.8125 220.96875 623.191406 C 220.207031 622.566406 219.480469 621.90625 218.785156 621.214844 C 218.09375 620.519531 217.433594 619.792969 216.808594 619.03125 C 216.1875 618.273438 215.601562 617.484375 215.054688 616.667969 C 214.511719 615.851562 214.003906 615.007812 213.542969 614.140625 C 213.078125 613.273438 212.660156 612.386719 212.285156 611.480469 C 211.90625 610.574219 211.578125 609.648438 211.292969 608.707031 C 211.007812 607.769531 210.769531 606.816406 210.578125 605.851562 C 210.386719 604.890625 210.242188 603.917969 210.144531 602.941406 C 210.046875 601.960938 210 600.984375 210 600 C 210 599.015625 210.046875 598.039062 210.144531 597.058594 C 210.242188 596.082031 210.382812 595.109375 210.578125 594.148438 C 210.769531 593.183594 211.007812 592.230469 211.292969 591.292969 C 211.578125 590.351562 211.90625 589.425781 212.285156 588.519531 C 212.660156 587.613281 213.078125 586.722656 213.542969 585.859375 C 214.003906 584.992188 214.511719 584.148438 215.054688 583.332031 C 215.601562 582.515625 216.1875 581.726562 216.808594 580.96875 C 217.433594 580.207031 218.09375 579.480469 218.785156 578.785156 C 219.480469 578.09375 220.207031 577.433594 220.96875 576.808594 C 221.726562 576.1875 222.515625 575.601562 223.332031 575.054688 C 224.148438 574.511719 224.992188 574.003906 225.859375 573.542969 C 226.722656 573.078125 227.613281 572.660156 228.519531 572.285156 C 229.425781 571.90625 230.351562 571.578125 231.292969 571.292969 C 232.230469 571.007812 233.183594 570.769531 234.148438 570.578125 C 235.109375 570.386719 236.082031 570.242188 237.058594 570.144531 C 238.039062 570.046875 239.015625 570 240 570 Z M 832.289062 180 L 768.628906 455.820312 C 768.199219 457.730469 767.6875 459.621094 767.09375 461.488281 C 766.5 463.355469 765.832031 465.195312 765.085938 467.007812 C 764.335938 468.820312 763.515625 470.597656 762.617188 472.335938 C 761.71875 474.078125 760.75 475.78125 759.707031 477.441406 C 758.664062 479.097656 757.554688 480.710938 756.378906 482.277344 C 755.199219 483.84375 753.957031 485.355469 752.652344 486.816406 C 751.347656 488.277344 749.980469 489.683594 748.554688 491.027344 C 747.132812 492.371094 745.652344 493.65625 744.121094 494.875 C 742.585938 496.097656 741.003906 497.25 739.375 498.335938 C 737.742188 499.421875 736.070312 500.4375 734.351562 501.382812 C 732.636719 502.328125 730.882812 503.199219 729.09375 503.996094 C 727.300781 504.792969 725.480469 505.511719 723.628906 506.15625 C 721.777344 506.796875 719.902344 507.363281 718.003906 507.84375 C 716.105469 508.328125 714.191406 508.734375 712.257812 509.054688 C 710.324219 509.378906 708.382812 509.617188 706.429688 509.773438 C 704.476562 509.933594 702.519531 510.007812 700.558594 510 L 263.761719 510 L 186 180 Z M 832.289062 180 " fill-opacity="1" fill-rule="nonzero"/><path fill="#1f3c66" d="M 300 720 C 298.527344 720 297.054688 720.035156 295.582031 720.109375 C 294.113281 720.179688 292.644531 720.289062 291.179688 720.433594 C 289.710938 720.578125 288.25 720.757812 286.792969 720.972656 C 285.335938 721.191406 283.886719 721.441406 282.441406 721.730469 C 280.996094 722.015625 279.558594 722.339844 278.132812 722.695312 C 276.703125 723.054688 275.285156 723.449219 273.875 723.875 C 272.464844 724.304688 271.066406 724.765625 269.679688 725.261719 C 268.292969 725.757812 266.917969 726.285156 265.558594 726.851562 C 264.199219 727.414062 262.851562 728.011719 261.519531 728.640625 C 260.1875 729.269531 258.875 729.933594 257.574219 730.628906 C 256.273438 731.320312 254.992188 732.046875 253.730469 732.804688 C 252.46875 733.5625 251.222656 734.347656 250 735.167969 C 248.773438 735.984375 247.570312 736.832031 246.386719 737.710938 C 245.203125 738.589844 244.042969 739.496094 242.90625 740.429688 C 241.765625 741.363281 240.652344 742.324219 239.558594 743.3125 C 238.46875 744.304688 237.402344 745.320312 236.359375 746.359375 C 235.320312 747.402344 234.304688 748.46875 233.3125 749.558594 C 232.324219 750.652344 231.363281 751.765625 230.429688 752.90625 C 229.496094 754.042969 228.589844 755.203125 227.710938 756.386719 C 226.832031 757.570312 225.984375 758.773438 225.167969 760 C 224.347656 761.222656 223.5625 762.46875 222.804688 763.730469 C 222.046875 764.992188 221.320312 766.273438 220.628906 767.574219 C 219.933594 768.875 219.269531 770.1875 218.640625 771.519531 C 218.011719 772.851562 217.414062 774.199219 216.851562 775.558594 C 216.289062 776.917969 215.757812 778.292969 215.261719 779.679688 C 214.765625 781.066406 214.304688 782.464844 213.875 783.875 C 213.449219 785.285156 213.054688 786.703125 212.695312 788.132812 C 212.339844 789.558594 212.015625 790.996094 211.730469 792.441406 C 211.441406 793.886719 211.191406 795.335938 210.972656 796.792969 C 210.757812 798.25 210.578125 799.710938 210.433594 801.179688 C 210.289062 802.644531 210.179688 804.113281 210.109375 805.582031 C 210.035156 807.054688 210 808.527344 210 810 C 210 811.472656 210.035156 812.945312 210.109375 814.417969 C 210.179688 815.886719 210.289062 817.355469 210.433594 818.820312 C 210.578125 820.289062 210.757812 821.75 210.972656 823.207031 C 211.191406 824.664062 211.441406 826.113281 211.730469 827.558594 C 212.015625 829.003906 212.339844 830.4375 212.695312 831.867188 C 213.054688 833.296875 213.449219 834.714844 213.875 836.125 C 214.304688 837.535156 214.765625 838.933594 215.261719 840.320312 C 215.757812 841.707031 216.289062 843.082031 216.851562 844.441406 C 217.414062 845.800781 218.011719 847.148438 218.640625 848.480469 C 219.269531 849.8125 219.933594 851.125 220.628906 852.425781 C 221.320312 853.726562 222.046875 855.003906 222.804688 856.269531 C 223.5625 857.53125 224.347656 858.777344 225.167969 860 C 225.984375 861.226562 226.832031 862.429688 227.710938 863.613281 C 228.589844 864.796875 229.496094 865.957031 230.429688 867.09375 C 231.363281 868.234375 232.324219 869.347656 233.3125 870.441406 C 234.304688 871.53125 235.320312 872.597656 236.359375 873.640625 C 237.402344 874.679688 238.46875 875.695312 239.558594 876.6875 C 240.652344 877.675781 241.765625 878.636719 242.90625 879.570312 C 244.042969 880.503906 245.203125 881.410156 246.386719 882.289062 C 247.570312 883.164062 248.773438 884.015625 250 884.832031 C 251.222656 885.652344 252.46875 886.4375 253.730469 887.195312 C 254.992188 887.953125 256.273438 888.679688 257.574219 889.371094 C 258.875 890.066406 260.1875 890.730469 261.519531 891.359375 C 262.851562 891.988281 264.199219 892.585938 265.558594 893.148438 C 266.917969 893.710938 268.292969 894.242188 269.679688 894.738281 C 271.066406 895.234375 272.464844 895.695312 273.875 896.125 C 275.285156 896.550781 276.703125 896.945312 278.132812 897.300781 C 279.558594 897.660156 280.996094 897.984375 282.441406 898.269531 C 283.886719 898.558594 285.335938 898.808594 286.792969 899.027344 C 288.25 899.242188 289.710938 899.421875 291.179688 899.566406 C 292.644531 899.710938 294.113281 899.820312 295.582031 899.890625 C 297.054688 899.964844 298.527344 900 300 900 C 301.472656 900 302.945312 899.964844 304.417969 899.890625 C 305.886719 899.820312 307.355469 899.710938 308.820312 899.566406 C 310.289062 899.421875 311.75 899.242188 313.207031 899.027344 C 314.664062 898.808594 316.113281 898.558594 317.558594 898.269531 C 319.003906 897.984375 320.4375 897.660156 321.867188 897.300781 C 323.296875 896.945312 324.714844 896.550781 326.125 896.125 C 327.535156 895.695312 328.933594 895.234375 330.320312 894.738281 C 331.707031 894.242188 333.082031 893.710938 334.441406 893.148438 C 335.800781 892.585938 337.148438 891.988281 338.480469 891.359375 C 339.8125 890.730469 341.125 890.066406 342.425781 889.371094 C 343.726562 888.679688 345.003906 887.953125 346.269531 887.195312 C 347.53125 886.4375 348.777344 885.652344 350 884.832031 C 351.226562 884.015625 352.429688 883.164062 353.613281 882.289062 C 354.796875 881.410156 355.957031 880.503906 357.09375 879.570312 C 358.234375 878.636719 359.347656 877.675781 360.441406 876.6875 C 361.53125 875.695312 362.597656 874.679688 363.640625 873.640625 C 364.679688 872.597656 365.695312 871.53125 366.683594 870.441406 C 367.675781 869.347656 368.636719 868.234375 369.570312 867.09375 C 370.503906 865.957031 371.410156 864.796875 372.289062 863.613281 C 373.164062 862.429688 374.015625 861.226562 374.832031 860 C 375.652344 858.777344 376.4375 857.53125 377.195312 856.269531 C 377.953125 855.003906 378.679688 853.722656 379.371094 852.425781 C 380.066406 851.125 380.730469 849.8125 381.359375 848.480469 C 381.988281 847.148438 382.585938 845.800781 383.148438 844.441406 C 383.710938 843.082031 384.242188 841.707031 384.738281 840.320312 C 385.234375 838.933594 385.695312 837.535156 386.125 836.125 C 386.550781 834.714844 386.945312 833.296875 387.300781 831.867188 C 387.660156 830.4375 387.984375 829.003906 388.269531 827.558594 C 388.558594 826.113281 388.808594 824.664062 389.027344 823.207031 C 389.242188 821.75 389.421875 820.289062 389.566406 818.820312 C 389.710938 817.355469 389.820312 815.886719 389.890625 814.417969 C 389.964844 812.945312 390 811.472656 390 810 C 390 808.527344 389.964844 807.054688 389.890625 805.582031 C 389.820312 804.113281 389.710938 802.644531 389.566406 801.179688 C 389.421875 799.710938 389.242188 798.25 389.027344 796.792969 C 388.808594 795.335938 388.558594 793.886719 388.269531 792.441406 C 387.984375 790.996094 387.660156 789.558594 387.304688 788.132812 C 386.945312 786.703125 386.550781 785.285156 386.125 783.875 C 385.695312 782.464844 385.234375 781.066406 384.738281 779.679688 C 384.242188 778.292969 383.710938 776.917969 383.148438 775.558594 C 382.585938 774.199219 381.988281 772.851562 381.359375 771.519531 C 380.730469 770.1875 380.066406 768.875 379.371094 767.574219 C 378.679688 766.273438 377.953125 764.992188 377.195312 763.730469 C 376.4375 762.46875 375.652344 761.222656 374.832031 760 C 374.015625 758.773438 373.167969 757.570312 372.289062 756.386719 C 371.410156 755.203125 370.503906 754.042969 369.570312 752.90625 C 368.636719 751.765625 367.675781 750.652344 366.6875 749.558594 C 365.695312 748.46875 364.679688 747.402344 363.640625 746.359375 C 362.597656 745.320312 361.53125 744.304688 360.441406 743.3125 C 359.347656 742.324219 358.234375 741.363281 357.09375 740.429688 C 355.957031 739.496094 354.796875 738.589844 353.613281 737.710938 C 352.429688 736.832031 351.226562 735.984375 350 735.167969 C 348.777344 734.347656 347.53125 733.5625 346.269531 732.804688 C 345.003906 732.046875 343.726562 731.320312 342.425781 730.628906 C 341.125 729.933594 339.8125 729.269531 338.480469 728.640625 C 337.148438 728.011719 335.800781 727.414062 334.441406 726.851562 C 333.082031 726.289062 331.707031 725.757812 330.320312 725.261719 C 328.933594 724.765625 327.535156 724.304688 326.125 723.875 C 324.714844 723.449219 323.296875 723.054688 321.867188 722.695312 C 320.4375 722.339844 319.003906 722.015625 317.558594 721.730469 C 316.113281 721.441406 314.664062 721.191406 313.207031 720.972656 C 311.75 720.757812 310.289062 720.578125 308.820312 720.433594 C 307.355469 720.289062 305.886719 720.179688 304.417969 720.109375 C 302.945312 720.035156 301.472656 720 300 720 Z M 300 840 C 299.015625 840 298.039062 839.953125 297.058594 839.855469 C 296.082031 839.757812 295.109375 839.613281 294.148438 839.421875 C 293.183594 839.230469 292.230469 838.992188 291.292969 838.707031 C 290.351562 838.421875 289.425781 838.09375 288.519531 837.714844 C 287.613281 837.339844 286.722656 836.921875 285.859375 836.457031 C 284.992188 835.996094 284.148438 835.488281 283.332031 834.945312 C 282.515625 834.398438 281.726562 833.8125 280.96875 833.191406 C 280.207031 832.566406 279.480469 831.90625 278.785156 831.214844 C 278.09375 830.519531 277.433594 829.792969 276.808594 829.03125 C 276.1875 828.273438 275.601562 827.484375 275.054688 826.667969 C 274.511719 825.851562 274.003906 825.007812 273.542969 824.140625 C 273.078125 823.273438 272.660156 822.386719 272.285156 821.480469 C 271.90625 820.574219 271.578125 819.648438 271.292969 818.707031 C 271.007812 817.769531 270.769531 816.816406 270.578125 815.851562 C 270.382812 814.890625 270.242188 813.917969 270.144531 812.941406 C 270.046875 811.960938 270 810.984375 270 810 C 270 809.015625 270.046875 808.039062 270.144531 807.058594 C 270.242188 806.082031 270.382812 805.109375 270.578125 804.148438 C 270.769531 803.183594 271.007812 802.230469 271.292969 801.292969 C 271.578125 800.351562 271.90625 799.425781 272.285156 798.519531 C 272.660156 797.613281 273.078125 796.722656 273.542969 795.859375 C 274.003906 794.992188 274.511719 794.148438 275.054688 793.332031 C 275.601562 792.515625 276.1875 791.726562 276.808594 790.96875 C 277.433594 790.207031 278.09375 789.480469 278.785156 788.785156 C 279.480469 788.09375 280.207031 787.433594 280.96875 786.808594 C 281.726562 786.1875 282.515625 785.601562 283.332031 785.054688 C 284.148438 784.511719 284.992188 784.003906 285.859375 783.542969 C 286.722656 783.078125 287.613281 782.660156 288.519531 782.285156 C 289.425781 781.90625 290.351562 781.578125 291.292969 781.292969 C 292.230469 781.007812 293.183594 780.769531 294.148438 780.578125 C 295.109375 780.386719 296.082031 780.242188 297.058594 780.144531 C 298.039062 780.046875 299.015625 780 300 780 C 300.984375 780 301.960938 780.046875 302.941406 780.144531 C 303.917969 780.242188 304.890625 780.382812 305.851562 780.578125 C 306.816406 780.769531 307.769531 781.007812 308.707031 781.292969 C 309.648438 781.578125 310.574219 781.90625 311.480469 782.285156 C 312.386719 782.660156 313.273438 783.078125 314.140625 783.542969 C 315.007812 784.003906 315.851562 784.511719 316.667969 785.054688 C 317.484375 785.601562 318.273438 786.1875 319.03125 786.808594 C 319.792969 787.433594 320.519531 788.09375 321.214844 788.785156 C 321.90625 789.480469 322.566406 790.207031 323.191406 790.96875 C 323.8125 791.726562 324.398438 792.515625 324.945312 793.332031 C 325.488281 794.148438 325.996094 794.992188 326.457031 795.859375 C 326.921875 796.722656 327.339844 797.613281 327.714844 798.519531 C 328.09375 799.425781 328.421875 800.351562 328.707031 801.292969 C 328.992188 802.230469 329.230469 803.183594 329.421875 804.148438 C 329.617188 805.109375 329.757812 806.082031 329.855469 807.058594 C 329.953125 808.039062 330 809.015625 330 810 C 330 810.984375 329.953125 811.960938 329.855469 812.941406 C 329.757812 813.917969 329.613281 814.890625 329.421875 815.851562 C 329.230469 816.816406 328.992188 817.769531 328.707031 818.707031 C 328.421875 819.648438 328.09375 820.574219 327.714844 821.480469 C 327.339844 822.386719 326.921875 823.273438 326.457031 824.140625 C 325.996094 825.007812 325.488281 825.851562 324.945312 826.667969 C 324.398438 827.484375 323.8125 828.273438 323.191406 829.03125 C 322.566406 829.792969 321.90625 830.519531 321.214844 831.214844 C 320.519531 831.90625 319.792969 832.566406 319.03125 833.191406 C 318.273438 833.8125 317.484375 834.398438 316.667969 834.945312 C 315.851562 835.488281 315.007812 835.996094 314.140625 836.457031 C 313.273438 836.921875 312.386719 837.339844 311.480469 837.714844 C 310.574219 838.09375 309.648438 838.421875 308.707031 838.707031 C 307.769531 838.992188 306.816406 839.230469 305.851562 839.421875 C 304.890625 839.613281 303.917969 839.757812 302.941406 839.855469 C 301.960938 839.953125 300.984375 840 300 840 Z M 300 840 " fill-opacity="1" fill-rule="nonzero"/><path fill="#1f3c66" d="M 660 720 C 658.527344 720 657.054688 720.035156 655.582031 720.109375 C 654.113281 720.179688 652.644531 720.289062 651.179688 720.433594 C 649.710938 720.578125 648.25 720.757812 646.792969 720.972656 C 645.335938 721.191406 643.886719 721.441406 642.441406 721.730469 C 640.996094 722.015625 639.558594 722.339844 638.132812 722.695312 C 636.703125 723.054688 635.285156 723.449219 633.875 723.875 C 632.464844 724.304688 631.066406 724.765625 629.679688 725.261719 C 628.292969 725.757812 626.917969 726.285156 625.558594 726.851562 C 624.199219 727.414062 622.851562 728.011719 621.519531 728.640625 C 620.1875 729.269531 618.875 729.933594 617.574219 730.628906 C 616.273438 731.320312 614.992188 732.046875 613.730469 732.804688 C 612.46875 733.5625 611.222656 734.347656 610 735.167969 C 608.773438 735.984375 607.570312 736.832031 606.386719 737.710938 C 605.203125 738.589844 604.042969 739.496094 602.90625 740.429688 C 601.765625 741.363281 600.652344 742.324219 599.558594 743.3125 C 598.46875 744.304688 597.402344 745.320312 596.359375 746.359375 C 595.320312 747.402344 594.304688 748.46875 593.3125 749.558594 C 592.324219 750.652344 591.363281 751.765625 590.429688 752.90625 C 589.496094 754.042969 588.589844 755.203125 587.710938 756.386719 C 586.832031 757.570312 585.984375 758.773438 585.167969 760 C 584.347656 761.222656 583.5625 762.46875 582.804688 763.730469 C 582.046875 764.992188 581.320312 766.273438 580.628906 767.574219 C 579.933594 768.875 579.269531 770.1875 578.640625 771.519531 C 578.011719 772.851562 577.414062 774.199219 576.851562 775.558594 C 576.285156 776.917969 575.757812 778.292969 575.261719 779.679688 C 574.765625 781.066406 574.304688 782.464844 573.875 783.875 C 573.449219 785.285156 573.054688 786.703125 572.695312 788.132812 C 572.339844 789.558594 572.015625 790.996094 571.730469 792.441406 C 571.441406 793.886719 571.191406 795.335938 570.972656 796.792969 C 570.757812 798.25 570.578125 799.710938 570.433594 801.179688 C 570.289062 802.644531 570.179688 804.113281 570.109375 805.582031 C 570.035156 807.054688 570 808.527344 570 810 C 570 811.472656 570.035156 812.945312 570.109375 814.417969 C 570.179688 815.886719 570.289062 817.355469 570.433594 818.820312 C 570.578125 820.289062 570.757812 821.75 570.972656 823.207031 C 571.191406 824.664062 571.441406 826.113281 571.730469 827.558594 C 572.015625 829.003906 572.339844 830.4375 572.695312 831.867188 C 573.054688 833.296875 573.449219 834.714844 573.875 836.125 C 574.304688 837.535156 574.765625 838.933594 575.261719 840.320312 C 575.757812 841.707031 576.285156 843.082031 576.851562 844.441406 C 577.414062 845.800781 578.011719 847.148438 578.640625 848.480469 C 579.269531 849.8125 579.933594 851.125 580.628906 852.425781 C 581.320312 853.726562 582.046875 855.003906 582.804688 856.269531 C 583.5625 857.53125 584.347656 858.777344 585.167969 860 C 585.984375 861.226562 586.832031 862.429688 587.710938 863.613281 C 588.589844 864.796875 589.496094 865.957031 590.429688 867.09375 C 591.363281 868.234375 592.324219 869.347656 593.3125 870.441406 C 594.304688 871.53125 595.320312 872.597656 596.359375 873.640625 C 597.402344 874.679688 598.46875 875.695312 599.558594 876.6875 C 600.652344 877.675781 601.765625 878.636719 602.90625 879.570312 C 604.042969 880.503906 605.203125 881.410156 606.386719 882.289062 C 607.570312 883.164062 608.773438 884.015625 610 884.832031 C 611.222656 885.652344 612.46875 886.4375 613.730469 887.195312 C 614.992188 887.953125 616.273438 888.679688 617.574219 889.371094 C 618.875 890.066406 620.1875 890.730469 621.519531 891.359375 C 622.851562 891.988281 624.199219 892.585938 625.558594 893.148438 C 626.917969 893.710938 628.292969 894.242188 629.679688 894.738281 C 631.066406 895.234375 632.464844 895.695312 633.875 896.125 C 635.285156 896.550781 636.703125 896.945312 638.132812 897.300781 C 639.558594 897.660156 640.996094 897.984375 642.441406 898.269531 C 643.886719 898.558594 645.335938 898.808594 646.792969 899.027344 C 648.25 899.242188 649.710938 899.421875 651.179688 899.566406 C 652.644531 899.710938 654.113281 899.820312 655.582031 899.890625 C 657.054688 899.964844 658.527344 900 660 900 C 661.472656 900 662.945312 899.964844 664.417969 899.890625 C 665.886719 899.820312 667.355469 899.710938 668.820312 899.566406 C 670.289062 899.421875 671.75 899.242188 673.207031 899.027344 C 674.664062 898.808594 676.113281 898.558594 677.558594 898.269531 C 679.003906 897.984375 680.4375 897.660156 681.867188 897.300781 C 683.296875 896.945312 684.714844 896.550781 686.125 896.125 C 687.535156 895.695312 688.933594 895.234375 690.320312 894.738281 C 691.707031 894.242188 693.082031 893.710938 694.441406 893.148438 C 695.800781 892.585938 697.148438 891.988281 698.480469 891.359375 C 699.8125 890.730469 701.125 890.066406 702.425781 889.371094 C 703.722656 888.679688 705.003906 887.953125 706.269531 887.195312 C 707.53125 886.4375 708.777344 885.652344 710 884.832031 C 711.226562 884.015625 712.429688 883.164062 713.613281 882.289062 C 714.796875 881.410156 715.957031 880.503906 717.09375 879.570312 C 718.234375 878.636719 719.347656 877.675781 720.441406 876.6875 C 721.53125 875.695312 722.597656 874.679688 723.640625 873.640625 C 724.679688 872.597656 725.695312 871.53125 726.683594 870.441406 C 727.675781 869.347656 728.636719 868.234375 729.570312 867.09375 C 730.503906 865.957031 731.410156 864.796875 732.289062 863.613281 C 733.164062 862.429688 734.015625 861.226562 734.832031 860 C 735.652344 858.777344 736.4375 857.53125 737.195312 856.269531 C 737.953125 855.003906 738.679688 853.722656 739.371094 852.425781 C 740.066406 851.125 740.730469 849.8125 741.359375 848.480469 C 741.988281 847.148438 742.585938 845.800781 743.148438 844.441406 C 743.710938 843.082031 744.242188 841.707031 744.738281 840.320312 C 745.234375 838.933594 745.695312 837.535156 746.125 836.125 C 746.550781 834.714844 746.945312 833.296875 747.300781 831.867188 C 747.660156 830.4375 747.984375 829.003906 748.269531 827.558594 C 748.558594 826.113281 748.808594 824.664062 749.027344 823.207031 C 749.242188 821.75 749.421875 820.289062 749.566406 818.820312 C 749.710938 817.355469 749.820312 815.886719 749.890625 814.417969 C 749.964844 812.945312 750 811.472656 750 810 C 750 808.527344 749.964844 807.054688 749.890625 805.582031 C 749.820312 804.113281 749.710938 802.644531 749.566406 801.179688 C 749.421875 799.710938 749.242188 798.25 749.027344 796.792969 C 748.808594 795.335938 748.558594 793.886719 748.269531 792.441406 C 747.984375 790.996094 747.660156 789.558594 747.300781 788.132812 C 746.945312 786.703125 746.550781 785.285156 746.125 783.875 C 745.695312 782.464844 745.234375 781.066406 744.738281 779.679688 C 744.242188 778.292969 743.710938 776.917969 743.148438 775.558594 C 742.585938 774.199219 741.988281 772.851562 741.359375 771.519531 C 740.730469 770.1875 740.066406 768.875 739.371094 767.574219 C 738.679688 766.273438 737.953125 764.992188 737.195312 763.730469 C 736.4375 762.46875 735.652344 761.222656 734.832031 760 C 734.015625 758.773438 733.164062 757.570312 732.289062 756.386719 C 731.410156 755.203125 730.503906 754.042969 729.570312 752.90625 C 728.636719 751.765625 727.675781 750.652344 726.683594 749.558594 C 725.695312 748.46875 724.679688 747.402344 723.640625 746.359375 C 722.597656 745.320312 721.53125 744.304688 720.441406 743.3125 C 719.347656 742.324219 718.234375 741.363281 717.09375 740.429688 C 715.957031 739.496094 714.796875 738.589844 713.613281 737.710938 C 712.429688 736.832031 711.226562 735.984375 710 735.167969 C 708.777344 734.347656 707.53125 733.5625 706.269531 732.804688 C 705.003906 732.046875 703.722656 731.320312 702.425781 730.628906 C 701.125 729.933594 699.8125 729.269531 698.480469 728.640625 C 697.148438 728.011719 695.800781 727.414062 694.441406 726.851562 C 693.082031 726.285156 691.707031 725.757812 690.320312 725.261719 C 688.933594 724.765625 687.535156 724.304688 686.125 723.875 C 684.714844 723.449219 683.296875 723.054688 681.867188 722.695312 C 680.4375 722.339844 679.003906 722.015625 677.558594 721.730469 C 676.113281 721.441406 674.664062 721.191406 673.207031 720.972656 C 671.75 720.757812 670.289062 720.578125 668.820312 720.433594 C 667.355469 720.289062 665.886719 720.179688 664.417969 720.109375 C 662.945312 720.035156 661.472656 720 660 720 Z M 660 840 C 659.015625 840 658.039062 839.953125 657.058594 839.855469 C 656.082031 839.757812 655.109375 839.613281 654.148438 839.421875 C 653.183594 839.230469 652.230469 838.992188 651.292969 838.707031 C 650.351562 838.421875 649.425781 838.09375 648.519531 837.714844 C 647.613281 837.339844 646.722656 836.921875 645.859375 836.457031 C 644.992188 835.996094 644.148438 835.488281 643.332031 834.945312 C 642.515625 834.398438 641.726562 833.8125 640.96875 833.191406 C 640.207031 832.566406 639.480469 831.90625 638.785156 831.214844 C 638.09375 830.519531 637.433594 829.792969 636.808594 829.03125 C 636.1875 828.273438 635.601562 827.484375 635.054688 826.667969 C 634.511719 825.851562 634.003906 825.007812 633.542969 824.140625 C 633.078125 823.273438 632.660156 822.386719 632.285156 821.480469 C 631.90625 820.574219 631.578125 819.648438 631.292969 818.707031 C 631.007812 817.769531 630.769531 816.816406 630.578125 815.851562 C 630.382812 814.890625 630.242188 813.917969 630.144531 812.941406 C 630.046875 811.960938 630 810.984375 630 810 C 630 809.015625 630.046875 808.039062 630.144531 807.058594 C 630.242188 806.082031 630.382812 805.109375 630.578125 804.148438 C 630.769531 803.183594 631.007812 802.230469 631.292969 801.292969 C 631.578125 800.351562 631.90625 799.425781 632.285156 798.519531 C 632.660156 797.613281 633.078125 796.722656 633.542969 795.859375 C 634.003906 794.992188 634.511719 794.148438 635.054688 793.332031 C 635.601562 792.515625 636.1875 791.726562 636.808594 790.96875 C 637.433594 790.207031 638.09375 789.480469 638.785156 788.785156 C 639.480469 788.09375 640.207031 787.433594 640.96875 786.808594 C 641.726562 786.1875 642.515625 785.601562 643.332031 785.054688 C 644.148438 784.511719 644.992188 784.003906 645.859375 783.542969 C 646.722656 783.078125 647.613281 782.660156 648.519531 782.285156 C 649.425781 781.90625 650.351562 781.578125 651.292969 781.292969 C 652.230469 781.007812 653.183594 780.769531 654.148438 780.578125 C 655.109375 780.386719 656.082031 780.242188 657.058594 780.144531 C 658.039062 780.046875 659.015625 780 660 780 C 660.984375 780 661.960938 780.046875 662.941406 780.144531 C 663.917969 780.242188 664.890625 780.382812 665.851562 780.578125 C 666.816406 780.769531 667.769531 781.007812 668.707031 781.292969 C 669.648438 781.578125 670.574219 781.90625 671.480469 782.285156 C 672.386719 782.660156 673.273438 783.078125 674.140625 783.542969 C 675.007812 784.003906 675.851562 784.511719 676.667969 785.054688 C 677.484375 785.601562 678.273438 786.1875 679.03125 786.808594 C 679.792969 787.433594 680.519531 788.09375 681.214844 788.785156 C 681.90625 789.480469 682.566406 790.207031 683.191406 790.96875 C 683.8125 791.726562 684.398438 792.515625 684.945312 793.332031 C 685.488281 794.148438 685.996094 794.992188 686.457031 795.859375 C 686.921875 796.722656 687.339844 797.613281 687.714844 798.519531 C 688.09375 799.425781 688.421875 800.351562 688.707031 801.292969 C 688.992188 802.230469 689.230469 803.183594 689.421875 804.148438 C 689.613281 805.109375 689.757812 806.082031 689.855469 807.058594 C 689.953125 808.039062 690 809.015625 690 810 C 690 810.984375 689.953125 811.960938 689.855469 812.941406 C 689.757812 813.917969 689.613281 814.890625 689.421875 815.851562 C 689.230469 816.816406 688.992188 817.769531 688.707031 818.707031 C 688.421875 819.648438 688.09375 820.574219 687.714844 821.480469 C 687.339844 822.386719 686.921875 823.273438 686.457031 824.140625 C 685.996094 825.007812 685.488281 825.851562 684.945312 826.667969 C 684.398438 827.484375 683.8125 828.273438 683.191406 829.03125 C 682.566406 829.792969 681.90625 830.519531 681.214844 831.214844 C 680.519531 831.90625 679.792969 832.566406 679.03125 833.191406 C 678.273438 833.8125 677.484375 834.398438 676.667969 834.945312 C 675.851562 835.488281 675.007812 835.996094 674.140625 836.457031 C 673.273438 836.921875 672.386719 837.339844 671.480469 837.714844 C 670.574219 838.09375 669.648438 838.421875 668.707031 838.707031 C 667.769531 838.992188 666.816406 839.230469 665.851562 839.421875 C 664.890625 839.613281 663.917969 839.757812 662.941406 839.855469 C 661.960938 839.953125 660.984375 840 660 840 Z M 660 840 " fill-opacity="1" fill-rule="nonzero"/><g clip-path="url(#b2249ff68f)"><g clip-path="url(#3a934f03bf)"><path fill="url(#3a002fdb28)" d="M 255.730469 200.628906 L 255.730469 485.628906 L 726.328125 485.628906 L 726.328125 200.628906 Z M 255.730469 200.628906 " fill-rule="nonzero"/></g></g><g clip-path="url(#34cf4b57e9)"><g clip-path="url(#553a5eb8da)"><path fill="url(#6c5f6ebd9e)" d="M 255.730469 203.128906 L 255.730469 480.273438 L 760.347656 480.273438 L 760.347656 203.128906 Z M 255.730469 203.128906 " fill-rule="nonzero"/></g></g><g clip-path="url(#c2e93d9ef7)"><g clip-path="url(#c58f728943)"><g clip-path="url(#75cb285bea)"><path fill="#ffffff" d="M 237.222656 387.332031 L 269.839844 380.507812 L 292.433594 488.515625 L 259.8125 495.339844 Z M 237.222656 387.332031 " fill-opacity="1" fill-rule="nonzero"/></g></g></g></svg>