<svg xmlns="http://www.w3.org/2000/svg" width="24.938" height="55.516"><path d="M20.485 43.301a8.715 8.715 0 00-16.667 2.36 5 5 0 001.171 9.855h13.713a6.241 6.241 0 001.783-12.215z" fill="#89b7f6"/><path d="M13.405 51.202l-.726-.731-.73.731a2.83 2.83 0 110-4l.73.731.726-.734a2.83 2.83 0 112 4.831 2.8 2.8 0 01-2-.828zm1.242-2.755l-.754.754.754.759a1.082 1.082 0 00.758.312 1.059 1.059 0 00.754-.312 1.072 1.072 0 000-1.513 1.045 1.045 0 00-.754-.317 1.06 1.06 0 00-.758.317zm-5.455 0a1.062 1.062 0 000 1.513 1.067 1.067 0 001.508 0l.758-.759-.758-.754a1.056 1.056 0 00-1.508 0z" fill="#c3256b"/><path d="M20.523 43.256a8.745 8.745 0 00-16.689 2.361 5 5 0 001.175 9.856h2.5a1.25 1.25 0 000-2.5h-2.5a2.5 2.5 0 010-5 1.249 1.249 0 001.249-1.249 6.246 6.246 0 0112.151-2.007 1.249 1.249 0 00.974.837 3.737 3.737 0 01-.637 7.42 1.25 1.25 0 100 2.5 6.246 6.246 0 001.777-12.218z" fill="#003e93"/><g fill="#c3256b"><path d="M13.405 13.202l-.726-.731-.73.731a2.83 2.83 0 110-4l.73.731.726-.734a2.83 2.83 0 112 4.831 2.8 2.8 0 01-2-.828zm1.242-2.755l-.754.754.754.759a1.082 1.082 0 00.758.312 1.059 1.059 0 00.754-.312 1.072 1.072 0 000-1.513 1.045 1.045 0 00-.754-.317 1.06 1.06 0 00-.758.317zm-5.455 0a1.062 1.062 0 000 1.513 1.067 1.067 0 001.508 0l.758-.759-.758-.754a1.056 1.056 0 00-1.508 0z"/><path d="M20.523 5.256A8.745 8.745 0 003.834 7.617a5 5 0 001.175 9.856h2.5a1.25 1.25 0 000-2.5h-2.5a2.5 2.5 0 010-5 1.249 1.249 0 001.249-1.249 6.246 6.246 0 0112.151-2.007 1.249 1.249 0 00.974.837 3.737 3.737 0 01-.637 7.42 1.25 1.25 0 100 2.5 6.246 6.246 0 001.777-12.218z"/></g></svg>