<svg xmlns="http://www.w3.org/2000/svg" width="23.961" height="61.931"><g fill="#89b7f6"><path d="M11.269 61.932H3.292a3.263 3.263 0 01-1.008-6.367 5.437 5.437 0 0110.277-1.388 3.985 3.985 0 01-1.293 7.755z"/><path d="M4.38 49.964a1.087 1.087 0 001.087-1.088v-4.349a1.089 1.089 0 011.088-1.087h3.018a3.247 3.247 0 011.413-.928 5.394 5.394 0 01.391-1.248H6.555a3.267 3.267 0 00-3.263 3.263v4.351a1.087 1.087 0 001.088 1.086zm15.228 1.09a1.088 1.088 0 00-1.088 1.088v3.263a1.089 1.089 0 01-1.088 1.088h-2.469a3.943 3.943 0 01.212 2.176h2.257a3.267 3.267 0 003.26-3.264v-3.263a1.088 1.088 0 00-1.084-1.088z"/></g><path d="M19.971 48.879h-7.977a3.263 3.263 0 01-1.008-6.368 5.437 5.437 0 0110.278-1.387 3.985 3.985 0 01-1.293 7.755z" fill="#ffbdda"/><path d="M4.38 49.964a1.087 1.087 0 001.087-1.088v-4.349a1.089 1.089 0 011.088-1.087h3.018a3.247 3.247 0 011.413-.928 5.394 5.394 0 01.391-1.248H6.555a3.267 3.267 0 00-3.263 3.263v4.351a1.087 1.087 0 001.088 1.086zm15.228 1.09a1.088 1.088 0 00-1.088 1.088v3.263a1.089 1.089 0 01-1.088 1.088h-2.469a3.943 3.943 0 01.212 2.176h2.257a3.267 3.267 0 003.26-3.264v-3.263a1.088 1.088 0 00-1.084-1.088z"/><path d="M21.243 41.093a5.443 5.443 0 00-9.885.142H6.525A3.266 3.266 0 003.259 44.5v4.354a1.089 1.089 0 102.177 0V44.5a1.089 1.089 0 011.089-1.088h3.026a3.252 3.252 0 002.417 5.443h7.98a3.984 3.984 0 001.3-7.762zm-1.3 5.585h-7.98a1.089 1.089 0 110-2.177 1.089 1.089 0 001.089-1.089 3.266 3.266 0 016.362-1.089 1.089 1.089 0 00.849.729 1.8 1.8 0 011.5 1.807 1.818 1.818 0 01-1.815 1.818zm-.359 4.354a1.089 1.089 0 00-1.089 1.089v3.266a1.089 1.089 0 01-1.084 1.084h-2.46a3.984 3.984 0 00-2.417-2.319A5.443 5.443 0 002.247 55.55a3.266 3.266 0 001.012 6.368h7.98a3.984 3.984 0 003.919-3.266h2.253a3.266 3.266 0 003.266-3.266v-3.265a1.089 1.089 0 00-1.088-1.089zm-8.35 8.709H3.259a1.089 1.089 0 010-2.177 1.089 1.089 0 001.089-1.093 3.266 3.266 0 016.358-1.089 1.089 1.089 0 00.849.729 1.8 1.8 0 011.5 1.807 1.818 1.818 0 01-1.818 1.818z" fill="#003e93"/><path d="M21.242 3.093a5.443 5.443 0 00-9.885.142H6.524A3.266 3.266 0 003.258 6.5v4.354a1.089 1.089 0 102.177 0V6.5a1.089 1.089 0 011.089-1.088H9.55a3.252 3.252 0 002.417 5.443h7.98a3.984 3.984 0 001.3-7.762zm-1.3 5.585h-7.98a1.089 1.089 0 110-2.177 1.089 1.089 0 001.089-1.089 3.266 3.266 0 016.362-1.089 1.089 1.089 0 00.849.729 1.8 1.8 0 011.5 1.807 1.818 1.818 0 01-1.815 1.818zm-.359 4.354a1.089 1.089 0 00-1.089 1.089v3.266a1.089 1.089 0 01-1.084 1.084h-2.46a3.984 3.984 0 00-2.417-2.319A5.443 5.443 0 002.246 17.55a3.266 3.266 0 001.012 6.368h7.98a3.984 3.984 0 003.919-3.266h2.253a3.266 3.266 0 003.266-3.266v-3.265a1.089 1.089 0 00-1.088-1.089zm-8.35 8.709H3.258a1.089 1.089 0 010-2.177 1.089 1.089 0 001.089-1.093 3.266 3.266 0 016.358-1.089 1.089 1.089 0 00.849.729 1.8 1.8 0 011.5 1.807 1.818 1.818 0 01-1.818 1.818z" fill="#c3256b"/></svg>