<svg xmlns="http://www.w3.org/2000/svg" width="24.936" height="60.669"><path d="M5.667 42.534a2.267 2.267 0 012.267-2.267 1.134 1.134 0 000-2.267A4.534 4.534 0 003.4 42.534v3.4A2.267 2.267 0 011.133 48.2a1.133 1.133 0 100 2.267A2.267 2.267 0 013.4 52.735v3.4a4.534 4.534 0 004.534 4.534 1.133 1.133 0 000-2.267 2.267 2.267 0 01-2.267-2.267v-3.4a4.534 4.534 0 00-1.564-3.4 4.534 4.534 0 001.564-3.4zM23.8 48.2a2.267 2.267 0 01-2.267-2.267v-3.4A4.534 4.534 0 0017 38a1.133 1.133 0 100 2.267 2.267 2.267 0 012.267 2.267v3.4a4.534 4.534 0 001.564 3.4 4.534 4.534 0 00-1.564 3.4v3.4A2.267 2.267 0 0117 58.4a1.133 1.133 0 000 2.267 4.534 4.534 0 004.534-4.534v-3.4a2.267 2.267 0 012.266-2.265 1.133 1.133 0 000-2.267z" fill="#003e93"/><path d="M5.667 4.534a2.267 2.267 0 012.267-2.267 1.134 1.134 0 000-2.267A4.534 4.534 0 003.4 4.534v3.4A2.267 2.267 0 011.133 10.2a1.133 1.133 0 000 2.267A2.267 2.267 0 013.4 14.735v3.4a4.534 4.534 0 004.534 4.534 1.133 1.133 0 000-2.267 2.267 2.267 0 01-2.267-2.267v-3.4a4.534 4.534 0 00-1.564-3.4 4.534 4.534 0 001.564-3.4zM23.8 10.2a2.267 2.267 0 01-2.267-2.267v-3.4A4.534 4.534 0 0017 0a1.133 1.133 0 100 2.267 2.267 2.267 0 012.267 2.267v3.4a4.534 4.534 0 001.564 3.4 4.534 4.534 0 00-1.564 3.4v3.4A2.267 2.267 0 0117 20.4a1.133 1.133 0 000 2.267 4.534 4.534 0 004.534-4.534v-3.4a2.267 2.267 0 012.266-2.265 1.133 1.133 0 000-2.267z" fill="#c3256b"/></svg>