<svg xmlns="http://www.w3.org/2000/svg" width="24.938" height="57.971"><path d="M20.486 43.3a8.716 8.716 0 00-16.669 2.36 5 5 0 001.171 9.855h13.713A6.241 6.241 0 0020.486 43.3z" fill="#89b7f6"/><path d="M20.523 43.256a8.745 8.745 0 00-16.689 2.361 5 5 0 001.175 9.856h2.5a1.25 1.25 0 000-2.5h-2.5a2.5 2.5 0 010-5 1.249 1.249 0 001.249-1.249 6.246 6.246 0 0112.151-2.007 1.249 1.249 0 00.974.837 3.737 3.737 0 01-.637 7.42 1.25 1.25 0 100 2.5 6.246 6.246 0 001.777-12.218zm-6.87 12.991a.7.7 0 00-.112-.212l-.15-.2a1.437 1.437 0 00-.412-.262 1.249 1.249 0 00-1.362.262l-.15.2a.7.7 0 00-.112.212.8.8 0 00-.075.225 1.874 1.874 0 000 .25 1.537 1.537 0 000 .237.75.75 0 00.075.237.7.7 0 00.112.212l.15.2a1.312 1.312 0 00.887.362 1.249 1.249 0 00.475-.1 1.437 1.437 0 00.412-.262l.15-.2a.7.7 0 00.112-.212.75.75 0 00.075-.237 1.537 1.537 0 00.025-.237 1.873 1.873 0 000-.25.8.8 0 00-.1-.225zm-1.149-9.519a3.748 3.748 0 00-3.248 1.874 1.248 1.248 0 102.161 1.249 1.251 1.251 0 111.087 1.874 1.25 1.25 0 000 2.5 3.75 3.75 0 100-7.5z" fill="#003e93"/><path d="M13.653 56.247a.7.7 0 00-.112-.212l-.15-.2a1.437 1.437 0 00-.412-.262 1.249 1.249 0 00-1.362.262l-.15.2a.7.7 0 00-.112.212.8.8 0 00-.075.225 1.874 1.874 0 000 .25 1.537 1.537 0 000 .237.75.75 0 00.075.237.7.7 0 00.112.212l.15.2a1.312 1.312 0 00.887.362 1.249 1.249 0 00.475-.1 1.437 1.437 0 00.412-.262l.15-.2a.7.7 0 00.112-.212.75.75 0 00.075-.237 1.537 1.537 0 00.025-.237 1.873 1.873 0 000-.25.8.8 0 00-.1-.225zm-1.149-9.519a3.748 3.748 0 00-3.248 1.874 1.248 1.248 0 102.161 1.249 1.251 1.251 0 111.087 1.874 1.25 1.25 0 000 2.5 3.75 3.75 0 100-7.5z" fill="#e64e91"/><path d="M20.523 5.256A8.745 8.745 0 003.834 7.617a5 5 0 001.175 9.856h2.5a1.25 1.25 0 000-2.5h-2.5a2.5 2.5 0 010-5 1.249 1.249 0 001.249-1.249 6.246 6.246 0 0112.151-2.007 1.249 1.249 0 00.974.837 3.737 3.737 0 01-.637 7.42 1.25 1.25 0 100 2.5 6.246 6.246 0 001.777-12.218zm-6.87 12.991a.7.7 0 00-.112-.212l-.15-.2a1.437 1.437 0 00-.412-.262 1.249 1.249 0 00-1.362.262l-.15.2a.7.7 0 00-.112.212.8.8 0 00-.075.225 1.874 1.874 0 000 .25 1.537 1.537 0 000 .237.75.75 0 00.075.237.7.7 0 00.112.212l.15.2a1.312 1.312 0 00.887.362 1.249 1.249 0 00.475-.1 1.437 1.437 0 00.412-.262l.15-.2a.7.7 0 00.112-.212.75.75 0 00.075-.237 1.537 1.537 0 00.025-.237 1.873 1.873 0 000-.25.8.8 0 00-.1-.225zm-1.149-9.519a3.748 3.748 0 00-3.248 1.874 1.248 1.248 0 102.161 1.249 1.251 1.251 0 111.087 1.874 1.25 1.25 0 000 2.5 3.75 3.75 0 100-7.5z" fill="#c63d80"/></svg>