<svg xmlns="http://www.w3.org/2000/svg" width="22.838" height="60.838"><path d="M8.964 46.979h-6A2.767 2.767 0 01.24 44.173a2.806 2.806 0 011.729-2.611 4.324 4.324 0 018.164-1.089 3.4 3.4 0 011.887 4.342 3.273 3.273 0 01-3.056 2.164z" fill="#ffa7ce"/><path d="M17.107 42.638h-5.763c.264.719.29.545-.012 1.314-.5 1.285-.773 2.134-2.188 2.133H2.888a2.931 2.931 0 01-.569-.056v8.78a1.122 1.122 0 001.138 1.106h15.925a1.122 1.122 0 001.137-1.106v-8.852a3.367 3.367 0 00-3.412-3.319z" fill="#89b7f6"/><path d="M1.142 54.596H21.7a1.151 1.151 0 011.142 1.159v1.319a3.452 3.452 0 01-3.426 3.478H3.426A3.452 3.452 0 010 57.074v-1.319a1.151 1.151 0 011.142-1.159z" fill="#ffbdda"/><path d="M2.855 47.137h6.28a3.426 3.426 0 001.222-6.623 4.567 4.567 0 00-8.541 1.142 2.855 2.855 0 001.039 5.481zm0-3.426A1.142 1.142 0 004 42.569a2.284 2.284 0 014.442-.731 1.142 1.142 0 00.891.754 1.138 1.138 0 01-.194 2.261H2.855a.571.571 0 110-1.142zM21.7 53.988h-1.147v-7.993a3.426 3.426 0 00-3.426-3.426h-1.141a1.142 1.142 0 100 2.284h1.142a1.142 1.142 0 011.142 1.142v7.993H4.567v-3.426a1.142 1.142 0 10-2.284 0v3.426H1.142A1.142 1.142 0 000 55.13v2.284a3.426 3.426 0 003.426 3.426h15.986a3.426 3.426 0 003.426-3.426V55.13a1.142 1.142 0 00-1.138-1.142zm-1.142 3.426a1.142 1.142 0 01-1.142 1.142H3.426a1.142 1.142 0 01-1.142-1.142v-1.142h18.27z" fill="#003e93"/><path d="M2.855 9.117h6.28a3.426 3.426 0 001.222-6.623 4.567 4.567 0 00-8.541 1.142 2.855 2.855 0 001.039 5.481zm0-3.426A1.142 1.142 0 004 4.549a2.284 2.284 0 014.442-.731 1.142 1.142 0 00.891.754 1.138 1.138 0 01-.194 2.261H2.855a.571.571 0 110-1.142zM21.7 15.968h-1.147V7.975a3.426 3.426 0 00-3.426-3.426h-1.141a1.142 1.142 0 100 2.284h1.142a1.142 1.142 0 011.142 1.142v7.993H4.567v-3.426a1.142 1.142 0 10-2.284 0v3.426H1.142A1.142 1.142 0 000 17.11v2.284a3.426 3.426 0 003.426 3.426h15.986a3.426 3.426 0 003.426-3.426V17.11a1.142 1.142 0 00-1.138-1.142zm-1.142 3.426a1.142 1.142 0 01-1.142 1.142H3.426a1.142 1.142 0 01-1.142-1.142v-1.142h18.27z" fill="#c3256b"/></svg>