<svg xmlns="http://www.w3.org/2000/svg" xmlns:xlink="http://www.w3.org/1999/xlink" width="1920" zoomAndPan="magnify" viewBox="0 0 1440 809.999993" height="1080" preserveAspectRatio="xMidYMid meet" version="1.0"><path fill="#02c1c2" d="M 744.433594 183.828125 C 800.933594 177.480469 888.496094 185.65625 955.179688 194.753906 C 962.363281 195.734375 967.699219 201.902344 967.648438 209.152344 C 966.902344 322.785156 961.699219 425.953125 950.964844 520.066406 C 950.160156 527.109375 944.347656 532.523438 937.265625 532.835938 C 859.097656 536.269531 786.480469 537.246094 730.375 530.914062 C 723.105469 530.09375 717.621094 523.929688 717.601562 516.613281 C 717.265625 401.308594 720.621094 292.304688 731.714844 196.488281 C 732.484375 189.820312 737.765625 184.578125 744.433594 183.828125 Z M 744.433594 183.828125 " fill-opacity="1" fill-rule="nonzero"/><path fill="#2a245e" d="M 759.3125 196.746094 C 828.242188 191.039062 891.527344 192.445312 944.222656 207.179688 C 949.566406 208.671875 953.253906 213.554688 953.226562 219.105469 C 952.816406 301.894531 946.273438 399.394531 938.164062 500.664062 C 937.667969 506.855469 932.648438 511.714844 926.445312 512.003906 C 868.027344 514.738281 806.457031 514.847656 742.019531 512.027344 C 735.289062 511.734375 730.035156 506.089844 730.21875 499.355469 C 733.207031 391.472656 738.511719 291.894531 748.09375 207.625 C 748.757812 201.789062 753.460938 197.230469 759.3125 196.746094 Z M 759.3125 196.746094 " fill-opacity="1" fill-rule="nonzero"/><path fill="#35cdce" d="M 821.90625 301.382812 C 821.90625 301.382812 769.972656 301.382812 769.972656 301.382812 C 767.714844 301.382812 765.886719 299.554688 765.886719 297.296875 C 765.886719 297.296875 765.886719 243.632812 765.886719 243.632812 C 765.886719 241.375 767.714844 239.546875 769.972656 239.546875 C 769.972656 239.546875 821.90625 239.546875 821.90625 239.546875 C 824.160156 239.546875 825.992188 241.375 825.992188 243.632812 C 825.992188 243.632812 825.992188 297.296875 825.992188 297.296875 C 825.992188 299.554688 824.160156 301.382812 821.90625 301.382812 Z M 821.90625 301.382812 " fill-opacity="1" fill-rule="nonzero"/><path fill="#35cdce" d="M 821.90625 391.644531 C 821.90625 391.644531 765.765625 391.644531 765.765625 391.644531 C 763.507812 391.644531 761.679688 389.816406 761.679688 387.558594 C 761.679688 387.558594 761.679688 329.5625 761.679688 329.5625 C 761.679688 327.308594 763.507812 325.480469 765.765625 325.480469 C 765.765625 325.480469 821.90625 325.480469 821.90625 325.480469 C 824.160156 325.480469 825.992188 327.308594 825.992188 329.5625 C 825.992188 329.5625 825.992188 387.558594 825.992188 387.558594 C 825.992188 389.816406 824.160156 391.644531 821.90625 391.644531 Z M 821.90625 391.644531 " fill-opacity="1" fill-rule="nonzero"/><path fill="#35cdce" d="M 821.90625 476.007812 C 821.90625 476.007812 765.765625 476.007812 765.765625 476.007812 C 763.507812 476.007812 761.679688 474.179688 761.679688 471.921875 C 761.679688 471.921875 761.679688 418.257812 761.679688 418.257812 C 761.679688 416 763.507812 414.171875 765.765625 414.171875 C 765.765625 414.171875 821.90625 414.171875 821.90625 414.171875 C 824.160156 414.171875 825.992188 416 825.992188 418.257812 C 825.992188 418.257812 825.992188 471.921875 825.992188 471.921875 C 825.992188 474.179688 824.160156 476.007812 821.90625 476.007812 Z M 821.90625 476.007812 " fill-opacity="1" fill-rule="nonzero"/><path fill="#35cdce" d="M 927.84375 262.921875 C 927.84375 262.921875 854.542969 262.921875 854.542969 262.921875 C 852.808594 262.921875 851.402344 261.515625 851.402344 259.78125 C 851.402344 259.78125 851.402344 252.703125 851.402344 252.703125 C 851.402344 250.972656 852.808594 249.566406 854.542969 249.566406 C 854.542969 249.566406 927.84375 249.566406 927.84375 249.566406 C 929.578125 249.566406 930.984375 250.972656 930.984375 252.703125 C 930.984375 252.703125 930.984375 259.78125 930.984375 259.78125 C 930.984375 261.515625 929.578125 262.921875 927.84375 262.921875 Z M 927.84375 262.921875 " fill-opacity="1" fill-rule="nonzero"/><path fill="#35cdce" d="M 911.148438 288.335938 C 911.148438 288.335938 854.542969 288.335938 854.542969 288.335938 C 852.808594 288.335938 851.402344 286.929688 851.402344 285.195312 C 851.402344 285.195312 851.402344 278.121094 851.402344 278.121094 C 851.402344 276.386719 852.808594 274.980469 854.542969 274.980469 C 854.542969 274.980469 911.148438 274.980469 911.148438 274.980469 C 912.882812 274.980469 914.289062 276.386719 914.289062 278.121094 C 914.289062 278.121094 914.289062 285.195312 914.289062 285.195312 C 914.289062 286.929688 912.882812 288.335938 911.148438 288.335938 Z M 911.148438 288.335938 " fill-opacity="1" fill-rule="nonzero"/><path fill="#35cdce" d="M 922.929688 353.449219 C 922.929688 353.449219 849.628906 353.449219 849.628906 353.449219 C 847.890625 353.449219 846.488281 352.042969 846.488281 350.308594 C 846.488281 350.308594 846.488281 343.234375 846.488281 343.234375 C 846.488281 341.5 847.890625 340.09375 849.628906 340.09375 C 849.628906 340.09375 922.929688 340.09375 922.929688 340.09375 C 924.664062 340.09375 926.070312 341.5 926.070312 343.234375 C 926.070312 343.234375 926.070312 350.308594 926.070312 350.308594 C 926.070312 352.042969 924.664062 353.449219 922.929688 353.449219 Z M 922.929688 353.449219 " fill-opacity="1" fill-rule="nonzero"/><path fill="#35cdce" d="M 906.234375 378.863281 C 906.234375 378.863281 849.628906 378.863281 849.628906 378.863281 C 847.894531 378.863281 846.488281 377.457031 846.488281 375.722656 C 846.488281 375.722656 846.488281 368.648438 846.488281 368.648438 C 846.488281 366.914062 847.894531 365.507812 849.628906 365.507812 C 849.628906 365.507812 906.234375 365.507812 906.234375 365.507812 C 907.96875 365.507812 909.375 366.914062 909.375 368.648438 C 909.375 368.648438 909.375 375.722656 909.375 375.722656 C 909.375 377.457031 907.96875 378.863281 906.234375 378.863281 Z M 906.234375 378.863281 " fill-opacity="1" fill-rule="nonzero"/><path fill="#35cdce" d="M 914.582031 439.0625 C 914.582031 439.0625 841.277344 439.0625 841.277344 439.0625 C 839.542969 439.0625 838.140625 437.65625 838.140625 435.921875 C 838.140625 435.921875 838.140625 428.84375 838.140625 428.84375 C 838.140625 427.109375 839.542969 425.703125 841.277344 425.703125 C 841.277344 425.703125 914.582031 425.703125 914.582031 425.703125 C 916.316406 425.703125 917.722656 427.109375 917.722656 428.84375 C 917.722656 428.84375 917.722656 435.921875 917.722656 435.921875 C 917.722656 437.65625 916.316406 439.0625 914.582031 439.0625 Z M 914.582031 439.0625 " fill-opacity="1" fill-rule="nonzero"/><path fill="#35cdce" d="M 897.886719 464.472656 C 897.886719 464.472656 841.277344 464.472656 841.277344 464.472656 C 839.542969 464.472656 838.140625 463.066406 838.140625 461.335938 C 838.140625 461.335938 838.140625 454.257812 838.140625 454.257812 C 838.140625 452.523438 839.542969 451.117188 841.277344 451.117188 C 841.277344 451.117188 897.886719 451.117188 897.886719 451.117188 C 899.621094 451.117188 901.023438 452.523438 901.023438 454.257812 C 901.023438 454.257812 901.023438 461.335938 901.023438 461.335938 C 901.023438 463.066406 899.621094 464.472656 897.886719 464.472656 Z M 897.886719 464.472656 " fill-opacity="1" fill-rule="nonzero"/><path fill="#f0c808" d="M 804.097656 175.683594 C 804.097656 175.683594 804.097656 193.367188 804.097656 193.367188 C 804.097656 197.789062 807.640625 201.394531 812.0625 201.472656 C 812.0625 201.472656 901.589844 203.042969 901.589844 203.042969 C 906.121094 203.121094 909.835938 199.46875 909.835938 194.9375 C 909.835938 194.9375 909.835938 175.730469 909.835938 175.730469 C 909.835938 171.53125 906.628906 168.027344 902.445312 167.65625 C 902.445312 167.65625 888.238281 166.398438 888.238281 166.398438 C 883.925781 166.015625 880.671875 162.308594 880.855469 157.980469 C 880.855469 157.980469 880.910156 156.726562 880.910156 156.726562 C 881.105469 152.121094 877.421875 148.277344 872.808594 148.277344 C 872.808594 148.277344 842.808594 148.277344 842.808594 148.277344 C 838.554688 148.277344 835.027344 151.5625 834.722656 155.800781 C 834.722656 155.800781 834.519531 158.628906 834.519531 158.628906 C 834.234375 162.578125 831.140625 165.742188 827.199219 166.117188 C 827.199219 166.117188 811.4375 167.613281 811.4375 167.613281 C 807.277344 168.011719 804.097656 171.503906 804.097656 175.683594 Z M 804.097656 175.683594 " fill-opacity="1" fill-rule="nonzero"/><path fill="#02c1c2" d="M 669.5 534.828125 C 656.015625 567.3125 630.96875 586.671875 590.027344 590.53125 C 590.027344 590.53125 590.023438 590.523438 590.023438 590.523438 C 587.496094 590.769531 584.910156 590.949219 582.257812 591.0625 C 575.414062 590.859375 568.980469 590.238281 562.945312 589.222656 C 488.390625 576.761719 473.664062 504.964844 473.714844 418.523438 C 473.714844 418.523438 486.277344 417.886719 486.277344 417.886719 C 486.277344 417.886719 552.324219 414.539062 552.324219 414.539062 C 552.324219 414.539062 618.535156 411.183594 618.535156 411.183594 C 618.535156 411.183594 618.558594 411.183594 618.558594 411.183594 C 618.558594 411.183594 680.273438 408.054688 680.273438 408.054688 C 684.710938 460.863281 682.375 503.824219 669.5 534.828125 Z M 669.5 534.828125 " fill-opacity="1" fill-rule="nonzero"/><path fill="#35cdce" d="M 669.5 534.828125 C 654.847656 554.238281 633.054688 565.902344 602.28125 568.800781 C 602.28125 568.800781 602.273438 568.800781 602.273438 568.800781 C 599.742188 569.039062 597.15625 569.21875 594.511719 569.339844 C 587.664062 569.128906 581.234375 568.503906 575.191406 567.492188 C 506.792969 556.0625 488.75 494.691406 486.277344 417.886719 C 486.277344 417.886719 552.324219 414.539062 552.324219 414.539062 C 552.324219 414.539062 618.535156 411.183594 618.535156 411.183594 C 618.535156 411.183594 618.558594 411.183594 618.558594 411.183594 C 618.558594 411.183594 680.273438 408.054688 680.273438 408.054688 C 684.710938 460.863281 682.375 503.824219 669.5 534.828125 Z M 669.5 534.828125 " fill-opacity="1" fill-rule="nonzero"/><path fill="#2a245e" d="M 642.847656 444.535156 C 642.847656 444.535156 662.015625 442.804688 662.015625 442.804688 C 664.4375 442.589844 666.53125 444.371094 666.351562 446.496094 C 666.351562 446.496094 663.230469 483.324219 663.230469 483.324219 C 663.105469 484.804688 661.894531 486.03125 660.238281 486.316406 C 653.859375 487.410156 647.355469 487.410156 640.753906 486.546875 C 638.734375 486.28125 637.242188 484.71875 637.351562 482.941406 C 637.351562 482.941406 639.472656 447.644531 639.472656 447.644531 C 639.574219 446.011719 640.996094 444.703125 642.847656 444.535156 Z M 642.847656 444.535156 " fill-opacity="1" fill-rule="nonzero"/><path fill="#f0c808" d="M 643.289062 450.546875 C 643.289062 450.546875 643.300781 455.265625 643.300781 455.265625 C 643.300781 456.027344 644.054688 456.636719 644.921875 456.578125 C 644.921875 456.578125 659.953125 455.539062 659.953125 455.539062 C 660.664062 455.488281 661.21875 455 661.269531 454.378906 C 661.269531 454.378906 661.71875 449.070312 661.71875 449.070312 C 661.789062 448.25 660.972656 447.570312 660.042969 447.667969 C 660.042969 447.667969 644.554688 449.292969 644.554688 449.292969 C 643.828125 449.367188 643.289062 449.902344 643.289062 450.546875 Z M 643.289062 450.546875 " fill-opacity="1" fill-rule="nonzero"/><path fill="#f0c808" d="M 643.09375 462.125 C 643.09375 462.125 642.703125 466.738281 642.703125 466.738281 C 642.640625 467.464844 643.289062 468.109375 644.128906 468.148438 C 644.128906 468.148438 658.710938 468.832031 658.710938 468.832031 C 659.464844 468.867188 660.117188 468.394531 660.214844 467.738281 C 660.214844 467.738281 661.230469 460.992188 661.230469 460.992188 C 661.359375 460.152344 660.539062 459.421875 659.578125 459.511719 C 659.578125 459.511719 644.371094 460.96875 644.371094 460.96875 C 643.679688 461.035156 643.144531 461.519531 643.09375 462.125 Z M 643.09375 462.125 " fill-opacity="1" fill-rule="nonzero"/><path fill="#f0c808" d="M 642.019531 474.8125 C 642.019531 474.8125 641.570312 480.152344 641.570312 480.152344 C 641.503906 480.890625 642.171875 481.539062 643.019531 481.5625 C 643.019531 481.5625 658.171875 482.015625 658.171875 482.015625 C 658.949219 482.039062 659.601562 481.53125 659.660156 480.851562 C 659.660156 480.851562 660.148438 475.058594 660.148438 475.058594 C 660.214844 474.300781 659.515625 473.644531 658.644531 473.644531 C 658.644531 473.644531 643.457031 473.648438 643.457031 473.648438 C 642.695312 473.648438 642.078125 474.152344 642.019531 474.8125 Z M 642.019531 474.8125 " fill-opacity="1" fill-rule="nonzero"/><path fill="#2a245e" d="M 477.609375 424.128906 C 508.285156 439.769531 651.628906 432.066406 677.863281 413.496094 C 681.96875 410.589844 680.777344 404.777344 675.785156 403.015625 C 643.105469 391.503906 508.28125 395.226562 477.15625 412.625 C 472.367188 415.300781 472.597656 421.574219 477.609375 424.128906 Z M 477.609375 424.128906 " fill-opacity="1" fill-rule="nonzero"/><path fill="#02c1c2" d="M 669.234375 345.953125 C 659.773438 353.566406 650.234375 359.976562 640.621094 365.207031 C 589.6875 392.914062 536.660156 387.484375 481.730469 352.085938 C 484.664062 301.917969 498.234375 259.101562 549.03125 241.984375 C 553.824219 240.371094 558.957031 238.980469 564.4375 237.839844 C 579.234375 234.753906 594.554688 234.75 609.199219 238.488281 C 654.847656 250.128906 670.652344 289.917969 669.234375 345.953125 Z M 669.234375 345.953125 " fill-opacity="1" fill-rule="nonzero"/><path fill="#35cdce" d="M 669.234375 345.953125 C 659.773438 353.566406 650.234375 359.976562 640.621094 365.207031 C 595.902344 381.761719 549.625 373.625 501.90625 342.871094 C 504.410156 300.121094 514.632812 262.710938 549.03125 241.984375 C 553.824219 240.371094 558.957031 238.980469 564.4375 237.839844 C 579.234375 234.753906 594.554688 234.75 609.199219 238.488281 C 654.847656 250.128906 670.652344 289.917969 669.234375 345.953125 Z M 669.234375 345.953125 " fill-opacity="1" fill-rule="nonzero"/><path fill="#02c1c2" d="M 601.878906 237.007812 C 601.878906 237.007812 586.421875 239.296875 586.421875 239.296875 C 586.421875 239.296875 548.636719 244.902344 548.636719 244.902344 C 549.210938 235.675781 548.484375 225.867188 574.242188 222.675781 C 575.144531 222.511719 576.027344 222.375 576.894531 222.257812 C 591.863281 220.164062 600.960938 224.324219 601.878906 237.007812 Z M 601.878906 237.007812 " fill-opacity="1" fill-rule="nonzero"/><path fill="#35cdce" d="M 584.992188 239.585938 C 587.464844 229.386719 584.574219 224.332031 576.894531 222.257812 C 591.863281 220.164062 600.960938 224.324219 601.878906 237.007812 C 601.878906 237.007812 584.992188 239.585938 584.992188 239.585938 Z M 584.992188 239.585938 " fill-opacity="1" fill-rule="nonzero"/><path fill="#2a245e" d="M 567.320312 169.402344 C 569.5625 191.839844 568.957031 210.398438 564.980469 224.367188 C 564.980469 224.367188 586.167969 221.832031 586.167969 221.832031 C 576.0625 208.492188 572.914062 188.976562 571.882812 167.578125 C 571.882812 167.578125 567.320312 169.402344 567.320312 169.402344 Z M 567.320312 169.402344 " fill-opacity="1" fill-rule="nonzero"/><path fill="#f0c808" d="M 586.34375 166.703125 C 585.949219 175.929688 578.148438 183.089844 568.921875 182.699219 C 559.695312 182.304688 552.535156 174.503906 552.925781 165.277344 C 553.320312 156.050781 561.121094 148.890625 570.347656 149.28125 C 579.574219 149.675781 586.734375 157.472656 586.34375 166.703125 Z M 586.34375 166.703125 " fill-opacity="1" fill-rule="nonzero"/><path fill="#2a245e" d="M 659.183594 280.449219 C 609.824219 247.0625 574.011719 255.527344 545.152344 285.445312 C 515.523438 319.957031 527.507812 352.277344 562.484375 353.664062 C 571.257812 354.011719 580 352.265625 588.066406 348.789062 C 608.863281 339.835938 620.980469 332.695312 639.3125 338.824219 C 640.0625 339.078125 640.796875 339.382812 641.523438 339.695312 C 653.308594 344.773438 662.945312 344.171875 669.320312 334.925781 C 668.707031 314.394531 666.046875 295.617188 659.183594 280.449219 Z M 659.183594 280.449219 " fill-opacity="1" fill-rule="nonzero"/><path fill="#2a245e" d="M 685.757812 445.53125 C 689.828125 465.898438 677.257812 485.582031 657.675781 489.496094 C 638.097656 493.410156 618.925781 480.074219 614.851562 459.707031 C 610.78125 439.339844 623.351562 419.65625 642.929688 415.742188 C 662.511719 411.824219 681.683594 425.164062 685.757812 445.53125 Z M 685.757812 445.53125 " fill-opacity="1" fill-rule="nonzero"/><path fill="#02c1c2" d="M 651.652344 494.285156 C 629.769531 507.953125 605.824219 516.230469 583.910156 518.265625 C 550.261719 521.386719 521.402344 509.78125 512.132812 480.328125 C 510.550781 475.308594 509.859375 470.070312 510.144531 464.90625 C 510.414062 459.789062 511.644531 454.746094 513.914062 450.050781 C 525.757812 425.53125 561.726562 413.867188 624.652344 416.566406 C 627.914062 422.3125 630.882812 427.949219 633.554688 433.492188 C 644.089844 455.316406 650.070312 475.5625 651.652344 494.285156 Z M 651.652344 494.285156 " fill-opacity="1" fill-rule="nonzero"/><path fill="#35cdce" d="M 633.554688 433.492188 C 574.535156 433.097656 533.421875 443.582031 510.144531 464.90625 C 510.414062 459.789062 511.644531 454.746094 513.914062 450.050781 C 525.757812 425.53125 561.726562 413.867188 624.652344 416.566406 C 627.914062 422.3125 630.882812 427.949219 633.554688 433.492188 Z M 633.554688 433.492188 " fill-opacity="1" fill-rule="nonzero"/><path fill="#02c1c2" d="M 580.203125 630.839844 C 579.585938 631.320312 578.863281 631.628906 578.121094 631.726562 C 569.898438 632.789062 562.101562 632.792969 554.71875 631.75 C 538.035156 629.390625 523.496094 621.664062 511.027344 608.730469 C 510.425781 608.105469 510.035156 607.269531 509.917969 606.367188 C 509.28125 601.417969 510.179688 597.074219 512.519531 593.300781 C 513.828125 591.183594 516.464844 590.527344 518.355469 591.820312 C 532.964844 601.800781 548.765625 608.414062 565.898438 611.28125 C 571.96875 612.304688 578.210938 612.847656 584.625 612.914062 C 587.289062 612.941406 589.085938 615.628906 588.269531 618.367188 C 586.730469 623.578125 584.125 627.8125 580.203125 630.839844 Z M 580.203125 630.839844 " fill-opacity="1" fill-rule="nonzero"/><path fill="#35cdce" d="M 580.203125 630.84375 C 579.585938 631.320312 578.863281 631.628906 578.121094 631.726562 C 569.898438 632.789062 562.101562 632.792969 554.71875 631.75 C 563.6875 628.402344 568.054688 622.007812 565.898438 611.285156 C 571.96875 612.304688 578.210938 612.851562 584.625 612.914062 C 587.289062 612.941406 589.085938 615.628906 588.269531 618.367188 C 586.730469 623.578125 584.125 627.8125 580.203125 630.84375 Z M 580.203125 630.84375 " fill-opacity="1" fill-rule="nonzero"/><path fill="#02c1c2" d="M 562.597656 656.507812 C 562.089844 657.320312 561.503906 658.101562 560.847656 658.84375 C 558.984375 660.964844 556.351562 662.144531 553.707031 662.097656 C 550.027344 662.039062 546.363281 661.769531 542.71875 661.308594 C 532.761719 660.046875 522.945312 657.308594 513.246094 653.152344 C 509.882812 651.710938 507.457031 648.621094 506.765625 644.816406 C 506.402344 642.855469 506.351562 641.089844 506.65625 639.550781 C 507.351562 635.980469 510.996094 633.816406 514.097656 635.070312 C 526.503906 640.085938 538.671875 644.085938 550.5 646.597656 C 553.476562 647.234375 556.429688 647.769531 559.355469 648.207031 C 563.011719 648.742188 564.703125 653.101562 562.597656 656.507812 Z M 562.597656 656.507812 " fill-opacity="1" fill-rule="nonzero"/><path fill="#35cdce" d="M 562.597656 656.507812 C 562.089844 657.320312 561.507812 658.101562 560.847656 658.84375 C 558.988281 660.964844 556.351562 662.144531 553.707031 662.097656 C 550.027344 662.039062 546.363281 661.769531 542.71875 661.308594 C 547.136719 657.882812 549.957031 653.167969 550.5 646.597656 C 553.476562 647.234375 556.429688 647.769531 559.355469 648.207031 C 563.011719 648.742188 564.703125 653.101562 562.597656 656.507812 Z M 562.597656 656.507812 " fill-opacity="1" fill-rule="nonzero"/><path fill="#f0c808" d="M 584.980469 310.03125 C 584.980469 315.574219 582.578125 320.066406 579.617188 320.066406 C 576.65625 320.066406 574.253906 315.574219 574.253906 310.03125 C 574.253906 304.492188 576.65625 300 579.617188 300 C 582.578125 300 584.980469 304.492188 584.980469 310.03125 Z M 584.980469 310.03125 " fill-opacity="1" fill-rule="nonzero"/><path fill="#f0c808" d="M 653.355469 302.621094 C 653.953125 307.523438 652.3125 311.757812 649.691406 312.078125 C 647.074219 312.398438 644.464844 308.679688 643.867188 303.777344 C 643.269531 298.875 644.90625 294.640625 647.527344 294.320312 C 650.148438 294 652.757812 297.71875 653.355469 302.621094 Z M 653.355469 302.621094 " fill-opacity="1" fill-rule="nonzero"/><path stroke-linecap="round" transform="matrix(0.6, 0, 0, 0.6, 619.652975, 318.381009)" fill="none" stroke-linejoin="round" d="M -20.001053 -6.80689 C -8.764073 10.21134 14.55624 6.129309 19.998949 -10.211838 " stroke="#f0c808" stroke-width="7" stroke-opacity="1" stroke-miterlimit="4"/><path fill="#02c1c2" d="M 756.335938 389.367188 C 744.109375 430.953125 719.078125 456.460938 687.578125 473.859375 C 685.246094 475.148438 682.460938 475.328125 679.980469 474.363281 C 660.601562 466.835938 645.828125 454.171875 638.042969 433.710938 C 635.980469 428.3125 634.410156 422.359375 633.375 415.820312 C 633.078125 413.988281 633.367188 412.09375 634.207031 410.433594 C 650.265625 378.679688 672.640625 352.957031 704.484375 336.324219 C 706.582031 335.226562 709.046875 335.003906 711.304688 335.714844 C 715.972656 337.1875 720.332031 339.175781 724.40625 341.660156 C 738.207031 350.085938 748.648438 364.261719 756.105469 383.570312 C 756.816406 385.417969 756.894531 387.460938 756.335938 389.367188 Z M 756.335938 389.367188 " fill-opacity="1" fill-rule="nonzero"/><path fill="#35cdce" d="M 724.40625 341.660156 C 688.722656 367.433594 660.054688 398.203125 638.042969 433.710938 C 635.980469 428.3125 634.410156 422.359375 633.375 415.820312 C 633.078125 413.988281 633.367188 412.09375 634.207031 410.433594 C 650.265625 378.679688 672.640625 352.957031 704.484375 336.324219 C 706.582031 335.226562 709.046875 335.003906 711.304688 335.714844 C 715.972656 337.1875 720.332031 339.175781 724.40625 341.660156 Z M 724.40625 341.660156 " fill-opacity="1" fill-rule="nonzero"/><path fill="#2a245e" d="M 765.484375 302.058594 C 767.570312 298.363281 767.851562 293.925781 766.824219 288.941406 C 766.730469 288.496094 766.601562 288.050781 766.441406 287.621094 C 759.539062 269.25 741.730469 266.984375 725.652344 280.667969 C 724.980469 281.234375 724.402344 281.910156 723.929688 282.652344 C 706.324219 310.1875 711.214844 334.652344 738.796875 335.441406 C 739.070312 335.449219 739.351562 335.445312 739.628906 335.433594 C 751.191406 334.84375 760.0625 331.363281 766.097656 324.851562 C 769.292969 321.40625 769.449219 316.128906 766.476562 312.488281 C 764.0625 309.535156 763.605469 305.378906 765.484375 302.058594 Z M 765.484375 302.058594 " fill-opacity="1" fill-rule="nonzero"/><path fill="#f0c808" d="M 703.558594 277.316406 C 703.558594 277.316406 711.890625 267.804688 711.890625 267.804688 C 711.890625 267.804688 789.566406 330.988281 789.566406 330.988281 C 789.566406 330.988281 799.621094 347.140625 799.621094 347.140625 C 799.621094 347.140625 778.371094 342.949219 778.371094 342.949219 C 778.371094 342.949219 703.558594 277.316406 703.558594 277.316406 Z M 703.558594 277.316406 " fill-opacity="1" fill-rule="nonzero"/><path fill="#2a245e" d="M 740.78125 313.40625 C 747.867188 309.054688 754.664062 305.308594 760.253906 304.09375 C 763.453125 303.398438 766.851562 303.824219 769.589844 305.621094 C 772.019531 307.210938 773.785156 309.628906 774.972656 312.757812 C 776.789062 317.546875 775.390625 322.945312 771.597656 326.386719 C 764.9375 332.429688 756.261719 334.917969 746.335938 335.195312 C 744.464844 335.246094 742.597656 334.878906 740.902344 334.082031 C 737.226562 332.355469 734.445312 329.59375 734.886719 323.113281 C 735.15625 319.117188 737.375 315.503906 740.78125 313.40625 Z M 740.78125 313.40625 " fill-opacity="1" fill-rule="nonzero"/></svg>