<svg xmlns="http://www.w3.org/2000/svg" width="58" height="58"><defs><clipPath id="a"><path d="M0 0h58v58H0z"/></clipPath></defs><g clip-path="url(#a)" fill="#fff"><path d="M50.33 42.474a5.33 5.33 0 00-10.546-1.022h-.051a4.518 4.518 0 000 9.036h10.539a4.007 4.007 0 00.059-8.013zm-.059 7.2H39.733a3.704 3.704 0 110-7.409c.109 0 .224.006.352.018a.406.406 0 00.441-.35 4.517 4.517 0 018.989.61c0 .09-.007.182-.014.28v.042a.407.407 0 00.446.433 3.21 3.21 0 01.324-.016 3.194 3.194 0 010 6.388z" stroke="#fff" stroke-width=".6"/><path d="M45.997 40.126a3.429 3.429 0 00-3.385 2.955.407.407 0 10.806.11 2.613 2.613 0 012.579-2.252.407.407 0 000-.813z" stroke="#fff" stroke-width=".6"/><path d="M23.329 11.583a17.313 17.313 0 1017.314 17.313 17.333 17.333 0 00-17.314-17.313zm0 32.913a15.6 15.6 0 1115.6-15.6 15.617 15.617 0 01-15.6 15.6z"/><path d="M26.529 24.382h-3.2a.857.857 0 00-.857.857v7.309a.857.857 0 001.714 0v-1.886h2.343a3.143 3.143 0 000-6.286zm0 4.571h-2.343v-2.857h2.343a1.429 1.429 0 110 2.857zm-7.883-4.015a.858.858 0 00-.8-.556h-.914a.857.857 0 00-.8.556l-2.743 7.314a.857.857 0 001.605.6l.476-1.272h3.841l.477 1.272a.857.857 0 101.605-.6zm-2.537 4.929l1.277-3.406 1.277 3.406zm15.448-5.485a.857.857 0 00-.857.857v7.309a.857.857 0 001.714 0v-7.314a.857.857 0 00-.857-.852zM29.46 9.674c.595.189 1.188.41 1.763.654a.857.857 0 00.671-1.577c-.624-.265-1.268-.5-1.913-.71a.857.857 0 00-.521 1.633zM5.609 38.542a.857.857 0 10-1.5.821 21.761 21.761 0 001.17 1.906.857.857 0 001.413-.97 20.277 20.277 0 01-1.083-1.757zm15.965 10.45a20.192 20.192 0 01-12.276-5.6.857.857 0 10-1.192 1.231 21.912 21.912 0 0013.321 6.081h.074a.857.857 0 00.073-1.711zm14.089-38.177a.857.857 0 00-.967 1.415 20.2 20.2 0 018.111 11.4.857.857 0 101.655-.446 21.91 21.91 0 00-8.799-12.369z"/></g></svg>