<svg xmlns="http://www.w3.org/2000/svg" width="58" height="58"><defs><clipPath id="a"><path d="M0 0h58v58H0z"/></clipPath></defs><g fill="#fff" clip-path="url(#a)"><path d="M28.036 6.455a21.53 21.53 0 1021.531 21.53 21.555 21.555 0 00-21.531-21.53zm0 40.929a19.4 19.4 0 1119.4-19.4 19.421 19.421 0 01-19.4 19.4z"/><path d="M32.016 22.372h-3.979a1.066 1.066 0 00-1.066 1.066v9.1a1.066 1.066 0 002.131 0v-2.35h2.914a3.908 3.908 0 000-7.816zm0 5.685h-2.914v-3.553h2.914a1.776 1.776 0 110 3.553zm-9.803-4.994a1.066 1.066 0 00-1-.691h-1.137a1.065 1.065 0 00-1 .691l-3.411 9.1a1.068 1.068 0 002 .748l.592-1.582h4.777l.593 1.582a1.068 1.068 0 002-.748zm-3.155 6.13l1.589-4.236 1.588 4.236zm19.211-6.821a1.066 1.066 0 00-1.066 1.066v9.1a1.066 1.066 0 002.131 0v-9.1a1.065 1.065 0 00-1.065-1.066zm-2.607-18.29c.739.236 1.477.509 2.192.814a1.066 1.066 0 00.835-1.962 27.385 27.385 0 00-2.379-.883 1.066 1.066 0 10-.647 2.031zM6.001 39.981a1.066 1.066 0 00-1.871 1.021 27.079 27.079 0 001.455 2.37 1.066 1.066 0 001.758-1.207 25.214 25.214 0 01-1.342-2.184zm19.853 12.997a25.112 25.112 0 01-15.266-6.969 1.066 1.066 0 10-1.482 1.531 27.25 27.25 0 0016.565 7.562h.092a1.066 1.066 0 00.091-2.128zM43.375 5.501a1.066 1.066 0 00-1.2 1.76 25.12 25.12 0 0110.087 14.18 1.066 1.066 0 102.058-.555A27.247 27.247 0 0043.375 5.501z"/></g></svg>