<svg xmlns="http://www.w3.org/2000/svg" width="58" height="58"><defs><clipPath id="a"><path d="M0 0h58v58H0z"/></clipPath></defs><g fill="#fff" clip-path="url(#a)"><path d="M34.237 28.251h-4.533a1.219 1.219 0 00-1.214 1.223v10.443a1.214 1.214 0 102.428 0v-2.692h3.319a4.486 4.486 0 000-8.972zm0 6.525h-3.324v-4.078h3.319a2.039 2.039 0 010 4.078zm-11.166-5.731a1.215 1.215 0 00-1.137-.794h-1.3a1.214 1.214 0 00-1.136.794l-3.886 10.44a1.226 1.226 0 00.711 1.575 1.212 1.212 0 001.563-.716l.675-1.816h5.441l.676 1.816a1.216 1.216 0 001.137.794 1.2 1.2 0 00.426-.078 1.226 1.226 0 00.711-1.575zm-3.594 7.036l1.81-4.862 1.809 4.862zm21.883-7.83a1.219 1.219 0 00-1.214 1.223v10.443a1.214 1.214 0 102.428 0v-10.44a1.218 1.218 0 00-1.214-1.226zm-30.106-9.418h3.449v1.951h-3.449zm6.614 0h3.448v1.951h-3.448zm6.612 0h3.449v1.951H24.48zm6.613 0h3.448v1.951h-3.448z"/><path d="M48.067 6H10.752A4.757 4.757 0 006 10.752v37.315a4.757 4.757 0 004.752 4.752h37.315a4.757 4.757 0 004.751-4.752V10.752A4.757 4.757 0 0048.067 6zm2.8 42.067a2.8 2.8 0 01-2.8 2.8H10.752a2.8 2.8 0 01-2.8-2.8V16.291h42.916zM7.951 14.34v-3.588a2.8 2.8 0 012.8-2.8h37.316a2.8 2.8 0 012.8 2.8v3.588H7.951z"/><path d="M11.254 10.17h1.951v1.951h-1.951zm4.056 0h1.951v1.951H15.31zm4.055 0h1.951v1.951h-1.951zm4.877 0h23.323v1.951H24.242z"/></g></svg>