<svg xmlns="http://www.w3.org/2000/svg" width="45.663" height="50.637"><path d="M22.831 0a7.029 7.029 0 00-3.675 1.108 3.883 3.883 0 00-1.952-.545 3.942 3.942 0 00-3.007 6.488c-.3.59-.578 1.2-.844 1.846a24.287 24.287 0 00-3.974-.229c-3.771.124-6.945 1.342-8.475 3.991-1.881 3.257-.685 7.509 2.215 11.64.238.339.494.681.756 1.02-.263.34-.517.68-.756 1.02-2.9 4.13-4.1 8.382-2.215 11.64a6.364 6.364 0 00.686.95 3.862 3.862 0 00-.141 1.02 3.945 3.945 0 007.349 1.987 23.306 23.306 0 004.536-.193c.165.4.333.781.51 1.16 2.129 4.577 5.224 7.736 8.985 7.736s6.856-3.16 8.985-7.736c.177-.38.345-.759.51-1.16a24.411 24.411 0 003.727.229 3.938 3.938 0 007.6-1.459 3.856 3.856 0 00-.141-.985 6.643 6.643 0 001.248-1.547c1.881-3.257.685-7.509-2.215-11.64-.239-.34-.493-.679-.756-1.02.262-.339.518-.681.756-1.02 2.9-4.131 4.1-8.382 2.215-11.64-1.647-2.852-5.175-4.035-9.354-3.991a25.577 25.577 0 00-3.077.229c-.163-.4-.335-.785-.51-1.16C29.688 3.162 26.593.003 22.832.003zm0 2.251c2.454 0 5 2.255 6.945 6.435.092.2.175.409.264.615a41.246 41.246 0 00-7.209 2.251 41.055 41.055 0 00-7.191-2.251c.151-.35.3-.692.457-1.02a3.855 3.855 0 001.108.158 3.956 3.956 0 003.938-3.938 3.839 3.839 0 00-.4-1.706 4.58 4.58 0 012.088-.544zm-5.626.563a1.688 1.688 0 11-1.688 1.688 1.671 1.671 0 011.688-1.689zM9.451 10.92a21.06 21.06 0 013.095.158 41.245 41.245 0 00-1.653 7.367 41.468 41.468 0 00-5.538 5.117 15.87 15.87 0 01-.4-.563c-2.649-3.772-3.337-7.089-2.11-9.213 1-1.723 3.276-2.757 6.611-2.866zm25.987 0c3.744-.039 6.312 1.009 7.385 2.866 1.227 2.125.539 5.441-2.11 9.213-.13.185-.266.376-.4.563a41.475 41.475 0 00-5.538-5.116 41.4 41.4 0 00-1.653-7.367 22.245 22.245 0 012.316-.16zm-20.624.51a37.61 37.61 0 015.1 1.442c-1.087.531-2.182 1.095-3.27 1.723s-2.143 1.292-3.147 1.969a37.282 37.282 0 011.316-5.135zm16.053.018a37.278 37.278 0 011.3 5.117c-1-.677-2.058-1.341-3.147-1.969s-2.181-1.208-3.27-1.741a37.262 37.262 0 015.116-1.409zm-8.018 2.549a49.385 49.385 0 015.046 2.549 49.8 49.8 0 014.73 3.112 49.72 49.72 0 01.334 5.662 49.906 49.906 0 01-.334 5.661 49.716 49.716 0 01-4.73 3.095 49.088 49.088 0 01-5.064 2.549 50.139 50.139 0 01-9.793-5.644 49.282 49.282 0 01-.018-11.305 49.788 49.788 0 014.747-3.13 49.087 49.087 0 015.082-2.55zm-12.27 7.612c-.084 1.214-.123 2.446-.123 3.71s.04 2.487.123 3.692a37.312 37.312 0 01-3.78-3.692 37.249 37.249 0 013.78-3.71zm24.51.018a37.3 37.3 0 013.78 3.692 37.3 37.3 0 01-3.78 3.692q.125-1.808.123-3.692t-.126-3.693zM5.34 27.078a41.419 41.419 0 005.556 5.117 41.4 41.4 0 001.653 7.349 20.945 20.945 0 01-3.235.158 3.958 3.958 0 00-3.921-3.692 3.916 3.916 0 00-2.5.914c-.015-.024-.039-.046-.053-.07-1.227-2.125-.539-5.458 2.11-9.231.127-.181.251-.363.387-.545zm34.989 0c.136.182.259.364.387.545 2.649 3.772 3.337 7.106 2.11 9.231a4.222 4.222 0 01-.527.7 3.912 3.912 0 00-6.435 2.18 21.615 21.615 0 01-2.743-.176 41.414 41.414 0 001.653-7.367 41.41 41.41 0 005.556-5.116zm-26.831 7c1 .676 2.058 1.323 3.147 1.952s2.182 1.208 3.27 1.741a37.579 37.579 0 01-5.116 1.424 37.339 37.339 0 01-1.304-5.12zm18.673 0a37.358 37.358 0 01-1.3 5.134 37.466 37.466 0 01-5.134-1.424c1.1-.535 2.191-1.125 3.288-1.758s2.143-1.275 3.147-1.952zM5.389 38.259a1.688 1.688 0 11-1.688 1.688 1.671 1.671 0 011.688-1.688zm34.321.563a1.688 1.688 0 11-1.688 1.688 1.671 1.671 0 011.688-1.688zm-16.862.264a41.2 41.2 0 007.191 2.268c-.089.2-.172.4-.264.6-1.944 4.18-4.491 6.435-6.945 6.435s-5-2.255-6.945-6.435c-.092-.2-.175-.393-.264-.6a41.043 41.043 0 007.228-2.268z" data-name="Path 11617" fill="#fff"/></svg>