<svg xmlns="http://www.w3.org/2000/svg" width="58" height="58"><defs><clipPath id="a"><path d="M0 0h58v58H0z"/></clipPath></defs><g clip-path="url(#a)"><path d="M46.942 25.959A14.632 14.632 0 0032.216 12.5a15.63 15.63 0 00-12.158 5.824c-.066-.032-.135-.055-.2-.085a8.767 8.767 0 00-.527-.224c-.1-.037-.2-.071-.3-.1a8.597 8.597 0 00-.539-.159c-.1-.026-.2-.052-.3-.074-.2-.042-.4-.075-.6-.1-.088-.012-.175-.029-.264-.038a8.321 8.321 0 00-.88-.05 7.678 7.678 0 00-7.846 7.48c0 .106.007.209.014.313h0a11.423 11.423 0 00-6.116 9.78 10.959 10.959 0 0011.2 10.676h21.366c.091 0 .181-.005.271-.012l.054-.007.117.007c.089.007.178.012.27.012h8.546a10.014 10.014 0 002.619-19.785zm-2.619 18.123h-8.546c-.052 0-.1 0-.152-.008l-.236-.009-.172.009c-.05 0-.1.008-.151.008H13.7a9.252 9.252 0 01-9.455-9.014 9.848 9.848 0 015.608-8.521l.494-.225v-.525c0-.106.007-.213.013-.321l.008-.133-.011-.175a2.732 2.732 0 01-.01-.2 5.973 5.973 0 016.1-5.818 6.4 6.4 0 01.8.056c.068.008.136.019.2.03a6.219 6.219 0 01.688.147l.092.022a6.138 6.138 0 01.728.267c.062.027.122.056.183.084a6.175 6.175 0 01.612.329 5.754 5.754 0 012.8 4.883.873.873 0 001.744 0 7.328 7.328 0 00-2.79-5.71 14.052 14.052 0 0110.712-5.091 12.918 12.918 0 0112.945 11.542 17.466 17.466 0 00-3.56.1.838.838 0 00-.731.947.86.86 0 00.86.706.876.876 0 00.132-.01 16.793 16.793 0 014.084 0 8.367 8.367 0 01-1.623 16.632z" fill="#fff" stroke="#fff"/></g></svg>