<svg xmlns="http://www.w3.org/2000/svg" width="58" height="58"><defs><clipPath id="a"><path d="M0 0h58v58H0z"/></clipPath></defs><g clip-path="url(#a)" fill="#fff" stroke="#fff" stroke-miterlimit="10" stroke-width=".2"><path d="M25.065 6.53a18.518 18.518 0 1018.516 18.518A18.518 18.518 0 0025.065 6.53zm0 1.764a16.737 16.737 0 0113.682 7.116l-2.2 2.2a3.475 3.475 0 00-1.777-.5 3.527 3.527 0 00-3.528 3.527 3.485 3.485 0 00.5 1.78l-5.774 5.774a3.421 3.421 0 00-3.561 0l-4.011-4.01a3.478 3.478 0 00.5-1.781 3.52 3.52 0 00-6.929-.882H8.691A16.779 16.779 0 0125.065 8.294zm11.463 12.345a1.764 1.764 0 11-1.763-1.763 1.763 1.763 0 011.763 1.763zM25.947 31.221a1.764 1.764 0 11-1.764-1.764 1.764 1.764 0 011.764 1.764zm-8.818-8.818a1.764 1.764 0 11-1.764-1.764 1.764 1.764 0 011.764 1.764zm16.076 17.295a16.751 16.751 0 01-24.8-16.413h3.558a3.527 3.527 0 003.4 2.645 3.478 3.478 0 001.78-.5l4.011 4.011a3.474 3.474 0 00-.5 1.781 3.527 3.527 0 007.054 0 3.479 3.479 0 00-.5-1.781l5.773-5.775a3.473 3.473 0 001.78.5 3.527 3.527 0 003.527-3.527 3.481 3.481 0 00-.5-1.781l1.922-1.921a16.739 16.739 0 01-6.505 22.761z"/><path d="M47.11 11.821a3.528 3.528 0 003.4-2.646h5.416V7.412h-5.41a3.52 3.52 0 00-6.929.882 3.478 3.478 0 00.5 1.781l-1.549 1.549a22.045 22.045 0 10-5.5 31.926l2.661 2.661 1.247 1.247 7.1 7.1a4.623 4.623 0 006.537-6.538l-7.1-7.1-1.247-1.247-2.661-2.661a21.973 21.973 0 000-23.929l1.764-1.763a3.476 3.476 0 001.771.501zm0-5.291a1.764 1.764 0 11-1.764 1.764A1.764 1.764 0 0147.11 6.53zm6.217 42.736a2.86 2.86 0 01-4 4.09l-.046-.046-7.1-7.1 4.044-4.044zm-8.345-8.345l-4.044 4.044-2.441-2.441c.124-.1.241-.2.364-.3l.4-.326c.194-.162.384-.326.571-.495.1-.088.188-.176.283-.265q.541-.508 1.05-1.05c.089-.094.177-.186.265-.282a20.649 20.649 0 00.82-.971c.106-.137.2-.238.3-.362zm-3.42-4.1a20.45 20.45 0 01-.867 1.134c-.088.107-.183.21-.274.315q-.4.471-.836.914-.187.194-.381.382-.441.431-.914.836c-.1.088-.208.184-.315.273-.366.3-.746.589-1.134.867a20.313 20.313 0 114.72-4.72z"/></g></svg>