<svg xmlns="http://www.w3.org/2000/svg" width="43.352" height="43.353"><defs><style>.cls-1{fill:#fff}</style></defs><g id="noun_expand_836284" transform="translate(-2.4 -2.6)"><path id="Path_11612" d="M44.512 45.952H3.64a1.235 1.235 0 01-1.24-1.24V3.84A1.235 1.235 0 013.64 2.6h40.872a1.235 1.235 0 011.24 1.24v40.872a1.235 1.235 0 01-1.24 1.24zM4.88 43.518h38.438V5.08H4.88z" class="cls-1" data-name="Path 11612"/><path id="Path_11613" d="M28.392 44.5l-6.521-.184L45.8 20.387l.321 6.751a1.084 1.084 0 00.321.735 1 1 0 00.873.321 1.168 1.168 0 001.1-1.194l-.459-9.323a1.185 1.185 0 00-1.1-1.1l-9.141-.277a1.149 1.149 0 10-.092 2.3l6.521.184-23.926 23.922-.318-6.751a1.084 1.084 0 00-.321-.735 1 1 0 00-.879-.32 1.168 1.168 0 00-1.1 1.194l.459 9.323a1.078 1.078 0 001.1 1.056l9.139.276a1.168 1.168 0 001.194-1.1 1.127 1.127 0 00-1.1-1.149z" class="cls-1" data-name="Path 11613" transform="translate(-8.22 -7.408)"/></g></svg>