<svg xmlns="http://www.w3.org/2000/svg" width="45.511" height="48.841"><defs><style>.cls-1{fill:#fff}</style></defs><g id="noun_hand_money_1304389" data-name="noun_hand money_1304389" transform="translate(-6 -6)"><path id="Path_11614" d="M37.985 69.216h-.35v-2.681l-2.869-2.869h-5.55L24.6 59.048l-2.414-.788-6.194.966H6v11.1h9.53L23.3 78.1h14.008L50.4 72.169v-3.752l-3.885-2.775zm10.2 1.487l-11.332 5.173H24.221l-7.77-7.77H8.22v-6.66h7.842l5.938-.91 1.4.461 4.89 4.89h5.55l1.571 1.571v1.759h-7.86l-3-3-1.571 1.571 3.652 3.652H38.4l7.77-3.291 2.015 1.421z" class="cls-1" data-name="Path 11614" transform="translate(0 -23.255)"/><path id="Path_11615" d="M53.3 10.44V6H20v18.87h4.44v4.44h33.3V10.44zM22.22 8.22h28.86v14.43H22.22zm33.3 18.87H26.66v-2.22H53.3V12.66h2.22z" class="cls-1" data-name="Path 11615" transform="translate(-6.23)"/><path id="Rectangle_1154" d="M0 0h2.22v9.99H0z" class="cls-1" data-name="Rectangle 1154" transform="translate(18.21 10.44)"/><path id="Rectangle_1155" d="M0 0h2.22v9.99H0z" class="cls-1" data-name="Rectangle 1155" transform="translate(40.411 10.44)"/><path id="Path_11616" d="M45.55 13a5.55 5.55 0 105.55 5.55A5.55 5.55 0 0045.55 13zm0 8.88a3.33 3.33 0 113.33-3.33 3.33 3.33 0 01-3.33 3.33z" class="cls-1" data-name="Path 11616" transform="translate(-15.13 -3.115)"/></g></svg>