<svg xmlns="http://www.w3.org/2000/svg" width="73.704" height="73.704"><defs><style>.cls-1{fill:#fff}</style></defs><g id="idea" transform="translate(0 -.001)"><g id="Group_6534" data-name="Group 6534" transform="translate(13.166 .001)"><g id="Group_6533" data-name="Group 6533"><path id="Path_11238" d="M131.862 6.884A23.538 23.538 0 00115.163 0h-.172a23.7 23.7 0 00-16.914 40.13 19.5 19.5 0 015.417 13.6v9.89a4.325 4.325 0 003.3 4.2v1.318a4.576 4.576 0 004.571 4.571h7.558a4.576 4.576 0 004.571-4.571v-1.314a4.325 4.325 0 003.336-4.2v-9.891a20.011 20.011 0 015.57-13.758 23.7 23.7 0 00-.533-33.091zm-11.246 62.251a1.693 1.693 0 01-1.691 1.691h-7.558a1.693 1.693 0 01-1.691-1.691v-1.2h10.94zm3.336-5.515a1.441 1.441 0 01-1.439 1.439h-14.7a1.441 1.441 0 01-1.439-1.439v-8.188h17.579zM112.9 52.553V34.345h4.485v18.208H112.9zM130.3 38a22.935 22.935 0 00-6.321 14.556h-3.718V34.345h1.294a4.178 4.178 0 004.173-4.173v-.223a4.173 4.173 0 10-8.346 0v1.517H112.9v-1.517a4.178 4.178 0 00-4.173-4.173h-.284a4.178 4.178 0 00-4.173 4.173v.223a4.178 4.178 0 004.173 4.173h1.577v18.208h-3.679a22.313 22.313 0 00-6.191-14.418 20.684 20.684 0 01-5.805-15.013 20.986 20.986 0 0120.666-20.241A20.823 20.823 0 01130.3 38zm-10.039-6.532v-1.519a1.294 1.294 0 112.588 0v.223a1.3 1.3 0 01-1.294 1.294zm-10.243-1.517v1.517h-1.577a1.3 1.3 0 01-1.294-1.294v-.223a1.3 1.3 0 011.294-1.294h.284a1.3 1.3 0 011.296 1.292z" class="cls-1" data-name="Path 11238" transform="translate(-91.459 -.001)"/></g></g><g id="Group_6536" data-name="Group 6536" transform="translate(35.268 7.018)"><g id="Group_6535" data-name="Group 6535"><path id="Path_11239" d="M262.028 59.2a16.689 16.689 0 00-15.6-10.453 1.44 1.44 0 00.01 2.879h.111a13.737 13.737 0 0112.811 8.65 1.439 1.439 0 102.67-1.076z" class="cls-1" data-name="Path 11239" transform="translate(-244.997 -48.749)"/></g></g><g id="Group_6538" data-name="Group 6538" transform="translate(50.624 22.263)"><g id="Group_6537" data-name="Group 6537"><path id="Path_11240" d="M354.127 155.073a1.439 1.439 0 10.422 1.018 1.45 1.45 0 00-.422-1.018z" class="cls-1" data-name="Path 11240" transform="translate(-351.67 -154.651)"/></g></g><g id="Group_6540" data-name="Group 6540" transform="translate(61.717 6.749)"><g id="Group_6539" data-name="Group 6539"><path id="Path_11241" d="M433.867 47.3a1.44 1.44 0 00-2.036 0l-2.682 2.682a1.44 1.44 0 002.036 2.036l2.682-2.682a1.44 1.44 0 000-2.036z" class="cls-1" data-name="Path 11241" transform="translate(-428.727 -46.88)"/></g></g><g id="Group_6542" data-name="Group 6542" transform="translate(61.717 35.096)"><g id="Group_6541" data-name="Group 6541"><path id="Path_11242" d="M433.867 246.9l-2.682-2.682a1.44 1.44 0 10-2.036 2.036l2.682 2.682a1.44 1.44 0 002.036-2.036z" class="cls-1" data-name="Path 11242" transform="translate(-428.727 -243.798)"/></g></g><g id="Group_6544" data-name="Group 6544" transform="translate(67.032 22.264)"><g id="Group_6543" data-name="Group 6543"><path id="Path_11243" d="M470.884 154.655h-3.793a1.44 1.44 0 100 2.879h3.793a1.44 1.44 0 100-2.879z" class="cls-1" data-name="Path 11243" transform="translate(-465.651 -154.655)"/></g></g><g id="Group_6546" data-name="Group 6546" transform="translate(6.426 6.75)"><g id="Group_6545" data-name="Group 6545"><path id="Path_11244" d="M49.781 49.985L47.1 47.3a1.44 1.44 0 00-2.036 2.036l2.682 2.682a1.44 1.44 0 002.036-2.036z" class="cls-1" data-name="Path 11244" transform="translate(-44.641 -46.881)"/></g></g><g id="Group_6548" data-name="Group 6548" transform="translate(6.426 35.096)"><g id="Group_6547" data-name="Group 6547"><path id="Path_11245" d="M49.781 244.218a1.439 1.439 0 00-2.036 0l-2.682 2.682a1.44 1.44 0 102.036 2.036l2.682-2.682a1.44 1.44 0 000-2.036z" class="cls-1" data-name="Path 11245" transform="translate(-44.641 -243.797)"/></g></g><g id="Group_6550" data-name="Group 6550" transform="translate(0 22.264)"><g id="Group_6549" data-name="Group 6549"><path id="Path_11246" d="M5.233 154.655H1.44a1.44 1.44 0 000 2.879h3.793a1.44 1.44 0 000-2.879z" class="cls-1" data-name="Path 11246" transform="translate(0 -154.655)"/></g></g></g></svg>