<svg xmlns="http://www.w3.org/2000/svg" width="58" height="58"><defs><clipPath id="a"><path d="M0 0h58v58H0z"/></clipPath></defs><g clip-path="url(#a)"><path d="M27.292 2.002a1.23 1.23 0 00-1.1.98l-.615 3.036a11.813 11.813 0 00-1.383.576l-2.585-1.711a1.23 1.23 0 00-1.537.173c-.93.932-1.946 1.867-2.92 2.844a1.23 1.23 0 00-.154 1.556l1.748 2.594a12.134 12.134 0 00-.576 1.4l-3.093.673a1.23 1.23 0 00-.98 1.21v4.016a1.23 1.23 0 00.98 1.191l3.093.672a12.144 12.144 0 00.576 1.4l-1.748 2.613a1.23 1.23 0 00.154 1.537c.974.976 1.991 1.911 2.92 2.844a1.23 1.23 0 001.537.173l2.613-1.691a11.869 11.869 0 001.383.576l.6 3.017a1.23 1.23 0 001.21 1h4.073a1.23 1.23 0 001.21-1l.6-3.017a11.868 11.868 0 001.383-.576l2.613 1.691a1.23 1.23 0 001.537-.173c.93-.932 1.946-1.867 2.92-2.844a1.23 1.23 0 00.154-1.537l-1.748-2.613a12.168 12.168 0 00.576-1.4l3.093-.672a1.23 1.23 0 00.98-1.191v-4.016a1.23 1.23 0 00-.98-1.21l-3.093-.673a12.158 12.158 0 00-.576-1.4l1.748-2.594a1.23 1.23 0 00-.154-1.556c-.974-.977-1.991-1.911-2.92-2.844a1.23 1.23 0 00-1.537-.173L34.7 6.593a11.821 11.821 0 00-1.383-.576l-.615-3.036a1.23 1.23 0 00-1.222-.979h-4.188zm1.134 2.459h2.037l.538 2.651a1.23 1.23 0 00.9.942 9.34 9.34 0 012.306.98 1.23 1.23 0 001.287-.038l2.306-1.5c.5.484.994.949 1.479 1.422l-1.537 2.306a1.23 1.23 0 00-.058 1.287 9.963 9.963 0 01.98 2.344 1.23 1.23 0 00.922.884l2.748.576v2.037l-2.748.6a1.23 1.23 0 00-.922.884 9.824 9.824 0 01-.98 2.325 1.23 1.23 0 00.058 1.307l1.518 2.286c-.486.473-.964.957-1.46 1.441l-2.304-1.523a1.23 1.23 0 00-1.287-.019 9.288 9.288 0 01-2.306.961 1.23 1.23 0 00-.9.941l-.538 2.671h-2.04l-.538-2.671a1.23 1.23 0 00-.9-.941 9.288 9.288 0 01-2.306-.961 1.23 1.23 0 00-1.287.019l-2.306 1.518c-.5-.484-.975-.968-1.46-1.441l1.518-2.286a1.23 1.23 0 00.058-1.307 9.821 9.821 0 01-.98-2.325 1.23 1.23 0 00-.922-.884l-2.748-.6v-2.032l2.748-.576a1.23 1.23 0 00.922-.884 9.961 9.961 0 01.98-2.344 1.23 1.23 0 00-.058-1.287l-1.537-2.306c.485-.473.983-.938 1.479-1.422l2.306 1.5a1.23 1.23 0 001.287.038 9.339 9.339 0 012.306-.98 1.23 1.23 0 00.9-.942zm1.018 7.935a4.938 4.938 0 104.938 4.938 4.955 4.955 0 00-4.938-4.938zm0 2.459a2.479 2.479 0 11-2.479 2.479 2.472 2.472 0 012.479-2.479zm22.865 11.913a3.452 3.452 0 00-2.459 1.076l-.019-.019-.019.038c-.028.028-1.686 1.669-3.5 3.478s-3.733 3.718-4.3 4.342a1.231 1.231 0 101.825 1.652c.389-.426 2.386-2.427 4.208-4.246s3.516-3.516 3.516-3.516l.038-.019a.947.947 0 01.711-.327 1.256 1.256 0 011.114 1.383 1.568 1.568 0 01-.288.922v.019c-.054.064-7.409 8.89-12.162 14.449a7.48 7.48 0 01-5.668 3.055H20.721a6.124 6.124 0 00-4.5 1.537l-3.478 3.4a1.23 1.23 0 101.729 1.749l3.477-3.4a3.452 3.452 0 012.767-.826h14.588a9.984 9.984 0 007.532-3.92c4.793-5.6 12.22-14.526 12.22-14.526q.02-.028.038-.058a4.025 4.025 0 00.788-2.4 3.724 3.724 0 00-3.573-3.843zm-32.434 9.165c-2.609 0-5.3.367-7.455 2.133l-8.972 7.336a1.235 1.235 0 001.576 1.9l8.954-7.34c1.5-1.225 3.516-1.576 5.9-1.576h18.1a2.558 2.558 0 01-.211 2.075 2.4 2.4 0 01-1.748 1.383q-.057-.012-.115-.019H24.16a1.23 1.23 0 100 2.459H35.9v-.019a4.487 4.487 0 004.035-2.651 4.756 4.756 0 00-.134-5.188 1.23 1.23 0 00-.98-.5z" fill="#fff"/></g></svg>