<svg xmlns="http://www.w3.org/2000/svg" width="58" height="58"><defs><clipPath id="a"><path d="M0 0h58v58H0z"/></clipPath></defs><g clip-path="url(#a)"><path d="M55.232 21.785a.951.951 0 00-.3-.574L40.117 7.264a.951.951 0 00-1.6.773l.555 7.429-10.44-.02a.951.951 0 100 1.9l11.45.02a.951.951 0 00.951-1.01l-.436-6.042 12.361 11.628-11.629 12.3.1-5.25a.951.951 0 00-.971-.971l-22.385.257-.555-7.547a.951.951 0 00-1.644-.594L2.26 34.564a.951.951 0 00.039 1.347l14.818 13.946a.951.951 0 001.585-.733l-.2-7.131 10.856-.337a.951.951 0 00-.039-1.9l-11.827.357a.951.951 0 00-.911.971l.178 5.844-12.48-11.747 11.49-12.163.456 6.32a.951.951 0 00.971.871l22.306-.258-.139 6.736a.951.951 0 001.644.673l13.966-14.8a.951.951 0 00.258-.772z" fill="#fff" stroke="#fff" stroke-width=".4"/></g></svg>