<svg xmlns="http://www.w3.org/2000/svg" width="58" height="58"><defs><clipPath id="a"><path d="M0 0h58v58H0z"/></clipPath></defs><g fill="#fff" clip-path="url(#a)"><path d="M8.809 24.129a1.311 1.311 0 00-.275-2.5 1.279 1.279 0 00-.223-.019 1.311 1.311 0 10.5 2.523zm0 0"/><path d="M50.506 9.533A58.393 58.393 0 0130 1.213a1.311 1.311 0 00-1.432 0 57.716 57.716 0 01-20.509 8.32A1.31 1.31 0 007 10.82s0 6.454.013 6.882a1.311 1.311 0 001.31 1.283h.028a1.311 1.311 0 001.283-1.338c-.009-.409-.013-5.758-.013-5.758a60.263 60.263 0 0019.662-8.02 61.121 61.121 0 0019.661 8.021v4.474c0 19.646-9.671 32.2-19.668 36.978-8.2-3.928-15.823-13.174-18.506-25.592a1.311 1.311 0 00-2.563.554c2.964 13.713 11.64 23.75 20.54 27.68a1.312 1.312 0 001.064 0c11.337-5.06 21.754-18.862 21.754-39.619v-5.546a1.31 1.31 0 00-1.06-1.287zm0 0"/><path d="M29.659 15.089a5.477 5.477 0 00-5.47 5.47v1.094h-1.094a1.094 1.094 0 00-1.094 1.094v13.129a1.094 1.094 0 001.094 1.094h13.129a1.094 1.094 0 001.094-1.094V22.748a1.094 1.094 0 00-1.094-1.094H35.13v-1.095a5.477 5.477 0 00-5.471-5.47zm-3.282 5.47a3.282 3.282 0 016.565 0v1.094h-6.565zm8.753 14.223H24.188v-10.94h10.941zm0 0"/></g></svg>