<svg xmlns="http://www.w3.org/2000/svg" width="58" height="58"><defs><clipPath id="a"><path d="M0 0h58v58H0z"/></clipPath></defs><g clip-path="url(#a)" fill="#fff"><path d="M41.84 7.119a17.506 17.506 0 00-12.419-5.12h-.128a17.627 17.627 0 00-12.579 29.846 14.5 14.5 0 014.028 10.116v7.353a3.217 3.217 0 002.456 3.121v.98a3.4 3.4 0 003.4 3.4h5.621a3.4 3.4 0 003.4-3.4v-.975a3.216 3.216 0 002.481-3.127v-7.352a14.883 14.883 0 014.133-10.232 17.627 17.627 0 00-.4-24.61zm-8.364 46.3a1.259 1.259 0 01-1.258 1.258h-5.621a1.259 1.259 0 01-1.258-1.258v-.89h8.137zm2.481-4.1a1.071 1.071 0 01-1.07 1.07H23.954a1.071 1.071 0 01-1.07-1.07v-6.094h13.074zm-8.219-8.23V27.542h3.335v13.542h-3.335zm12.943-10.83a17.057 17.057 0 00-4.7 10.825h-2.765V27.542h.962a3.107 3.107 0 003.1-3.1v-.166a3.103 3.103 0 10-6.207 0v1.123h-3.335v-1.126a3.107 3.107 0 00-3.1-3.1h-.211a3.107 3.107 0 00-3.1 3.1v.166a3.107 3.107 0 003.1 3.1h1.173v13.545h-2.736a16.594 16.594 0 00-4.6-10.723 15.383 15.383 0 01-4.323-11.162A15.608 15.608 0 0129.308 4.142a15.486 15.486 0 0111.373 26.117zm-7.466-4.86v-1.126a.962.962 0 111.925 0v.166a.963.963 0 01-.962.962zm-7.618-1.128v1.128h-1.173a.963.963 0 01-.962-.962v-.166a.963.963 0 01.962-.962h.211a.964.964 0 01.962.964z"/><path d="M40.895 14.993a12.412 12.412 0 00-11.6-7.774 1.071 1.071 0 00.007 2.141h.082a10.217 10.217 0 019.527 6.433 1.071 1.071 0 101.986-.8zm.585 3.878a1.07 1.07 0 10.314.757 1.079 1.079 0 00-.314-.757zM51.723 7.333a1.071 1.071 0 00-1.514 0l-1.995 1.995a1.071 1.071 0 101.514 1.514l1.995-1.995a1.071 1.071 0 000-1.514zm-.001 23.076l-1.995-1.995a1.071 1.071 0 10-1.514 1.514l1.995 1.995a1.071 1.071 0 101.514-1.514zm4.023-11.852h-2.821a1.071 1.071 0 100 2.141h2.821a1.071 1.071 0 100-2.141zm-45.144-9.23L8.606 7.332a1.071 1.071 0 10-1.514 1.514l1.995 1.992a1.071 1.071 0 101.514-1.514zm0 19.087a1.07 1.07 0 00-1.514 0l-1.994 1.99a1.071 1.071 0 101.514 1.514l1.995-1.995a1.071 1.071 0 00-.001-1.509zm-4.709-9.857H3.071a1.071 1.071 0 100 2.141h2.821a1.071 1.071 0 100-2.141z"/></g></svg>