<svg xmlns="http://www.w3.org/2000/svg" width="68.675" height="46.928"><defs><style>.cls-1{fill:#fff}</style></defs><g id="surface1" transform="rotate(-90 23.589 23.589)"><path id="Path_11224" d="M68.465 468.75a5.73 5.73 0 00-5.723 5.723 5.667 5.667 0 001.171 3.434 5.723 5.723 0 109.1 0 5.667 5.667 0 001.171-3.434 5.73 5.73 0 00-5.719-5.723zm0 2.289a3.42 3.42 0 012.266 5.994.02.02 0 00-.021.011 3.489 3.489 0 01-1.43.753c-.033.009-.064.023-.1.03a3.32 3.32 0 01-1.438 0c-.033-.007-.064-.022-.1-.03a3.5 3.5 0 01-1.43-.753c0-.005-.014-.007-.021-.011a3.42 3.42 0 012.266-5.994zm0 13.735a3.434 3.434 0 01-3.434-3.434 3.335 3.335 0 01.6-1.914c.078.045.161.077.241.114a5.651 5.651 0 00.813.343c.128.041.252.086.38.115.186.047.374.081.565.114.115.017.229.025.343.034.165.015.324.051.493.051s.327-.035.492-.051c.114-.009.228-.017.343-.034a4.758 4.758 0 00.566-.114c.128-.032.253-.076.38-.115a5.627 5.627 0 00.813-.343c.08-.041.162-.074.241-.114a3.337 3.337 0 01.6 1.914 3.434 3.434 0 01-3.436 3.434zm0 0" class="cls-1" data-name="Path 11224" transform="translate(-57.914 -434.412)"/><path id="Path_11225" d="M284.476 73.946h5.494a2.976 2.976 0 002.976-2.976v-5.494a2.976 2.976 0 00-2.976-2.976h-5.494a2.976 2.976 0 00-2.976 2.976v5.494a2.976 2.976 0 002.976 2.976zm-.687-8.47a.687.687 0 01.687-.687h1.6v2.289h2.289v-2.289h1.6a.687.687 0 01.687.687v5.494a.687.687 0 01-.687.687h-1.6v-2.289h-2.289v2.289h-1.6a.687.687 0 01-.687-.687zm0 0" class="cls-1" data-name="Path 11225" transform="translate(-260.647 -57.922)"/><path id="Path_11226" d="M203.375 78.125h2.289V82.7h-2.289zm0 0" class="cls-1" data-name="Path 11226" transform="translate(-188.245 -72.402)"/><path id="Path_11227" d="M109.625 78.125h2.289V82.7h-2.289zm0 0" class="cls-1" data-name="Path 11227" transform="translate(-101.363 -72.402)"/><path id="Path_11228" d="M109.625 359.375h2.289v4.578h-2.289zm0 0" class="cls-1" data-name="Path 11228" transform="translate(-101.363 -333.05)"/><path id="Path_11229" d="M203.375 171.875h2.289v4.578h-2.289zm0 0" class="cls-1" data-name="Path 11229" transform="translate(-188.245 -159.285)"/><path id="Path_11230" d="M203.375 265.625h2.289v4.575h-2.289zm0 0" class="cls-1" data-name="Path 11230" transform="translate(-188.245 -246.167)"/><path id="Path_11231" d="M203.375 359.375h2.289v4.578h-2.289zm0 0" class="cls-1" data-name="Path 11231" transform="translate(-188.245 -333.05)"/><path id="Path_11232" d="M47.178 67.53V41.255a12.591 12.591 0 00-3.115-8.291l-7.187-8.213V5.723A5.73 5.73 0 0031.154 0H5.973A5.73 5.73 0 00.25 5.723v45.783a5.73 5.73 0 005.723 5.723h23.169a14.831 14.831 0 00.867 3.618v6.683a1.144 1.144 0 001.145 1.145h14.88a1.144 1.144 0 001.144-1.145zM42.34 34.473a10.3 10.3 0 012.549 6.783v18.262H31.972a12.574 12.574 0 01.673-9.579l.678-1.355a1.144 1.144 0 00-.215-1.321l-9.729-9.729a2.9 2.9 0 010-4.1 2.975 2.975 0 014.1 0L39.5 45.448l1.62-1.618-4.243-4.243V28.228zM2.539 51.506V5.723a3.434 3.434 0 013.434-3.434h25.181a3.434 3.434 0 013.434 3.434V37.3L29.1 31.811a5.191 5.191 0 00-7.341 7.341l9.146 9.148-.308.617a14.867 14.867 0 00-1.556 6.025H5.973a3.434 3.434 0 01-3.434-3.436zm42.35 14.88H32.3v-4.578h12.59zm0 0" class="cls-1" data-name="Path 11232"/></g></svg>