<svg xmlns="http://www.w3.org/2000/svg" width="48.359" height="50.462"><defs><style>.cls-1{fill:#fff}</style></defs><g id="worker" transform="translate(-10.667)"><g id="Group_6774" data-name="Group 6774" transform="translate(10.667)"><g id="Group_6773" data-name="Group 6773"><path id="Path_11486" d="M40.1 0h-8.41a2.1 2.1 0 00-2.1 2.1v4.189a19.8 19.8 0 00-2.631 1.081L24 4.415a2.152 2.152 0 00-2.974 0l-5.948 5.948a2.1 2.1 0 000 2.973l2.956 2.958a19.807 19.807 0 00-1.083 2.628H12.77a2.1 2.1 0 00-2.1 2.1v8.41a2.1 2.1 0 002.1 2.1h4.186a19.8 19.8 0 001.081 2.631l-2.954 2.954a2.1 2.1 0 000 2.974l5.948 5.948a2.153 2.153 0 002.973 0l2.958-2.956a19.808 19.808 0 002.628 1.083v4.186a2.1 2.1 0 002.1 2.1h1.051v-2.1h-1.052V43.4a1.051 1.051 0 00-.76-1.01 17.837 17.837 0 01-3.662-1.508 1.051 1.051 0 00-1.251.177l-3.5 3.5-5.946-5.947 3.5-3.5a1.051 1.051 0 00.177-1.251 17.837 17.837 0 01-1.506-3.661 1.051 1.051 0 00-1.01-.76H12.77v-8.41h4.961a1.051 1.051 0 001.01-.76 17.812 17.812 0 011.507-3.67 1.051 1.051 0 00-.177-1.252l-3.5-3.5L22.517 5.9l3.5 3.5a1.051 1.051 0 001.251.177 17.837 17.837 0 013.662-1.508 1.051 1.051 0 00.76-1.01V2.1h8.41v5.259h2.1V2.1A2.1 2.1 0 0040.1 0z" class="cls-1" data-name="Path 11486" transform="translate(-10.667)"/></g></g><g id="Group_6776" data-name="Group 6776" transform="translate(34.847)"><g id="Group_6775" data-name="Group 6775"><path id="Path_11487" d="M278.077 0c-5.824 0-10.513 5.752-10.513 10.513v6.308c0 4.1 2.392 9.356 6.308 11.214v.676c-2.628 1-11.9 4.589-14.25 6.158A7.824 7.824 0 00256 41v9.462h2.1V41a5.722 5.722 0 012.684-4.378c2-1.335 10.364-4.641 14.508-6.2a1.051 1.051 0 00.68-.984v-2.1a1.051 1.051 0 00-.7-.991c-3.305-1.17-5.608-5.957-5.608-9.522v-6.312c0-3.785 3.88-8.41 8.41-8.41h2.1V0z" class="cls-1" data-name="Path 11487" transform="translate(-256)"/></g></g><g id="Group_6778" data-name="Group 6778" transform="translate(43.257 41)"><g id="Group_6777" data-name="Group 6777"><path id="Rectangle_1127" d="M0 0h2.103v9.462H0z" class="cls-1" data-name="Rectangle 1127"/></g></g><g id="Group_6780" data-name="Group 6780" transform="translate(26.435 15.769)"><g id="Group_6779" data-name="Group 6779"><path id="Path_11488" d="M182.321 160.258a9.462 9.462 0 10-4.416 18.4l.486-2.045a7.359 7.359 0 118.2-3.662l1.848 1a9.462 9.462 0 00-6.118-13.7z" class="cls-1" data-name="Path 11488" transform="translate(-170.649 -159.994)"/></g></g><g id="Group_6782" data-name="Group 6782" transform="translate(34.847 5.256)"><g id="Group_6781" data-name="Group 6781"><path id="Rectangle_1128" d="M0 0h2.103v2.103H0z" class="cls-1" data-name="Rectangle 1128"/></g></g><g id="Group_6784" data-name="Group 6784" transform="translate(21.18 37.847)"><g id="Group_6783" data-name="Group 6783"><path id="Rectangle_1129" d="M0 0h2.103v2.103H0z" class="cls-1" data-name="Rectangle 1129"/></g></g><g id="Group_6786" data-name="Group 6786" transform="translate(21.18 10.513)"><g id="Group_6785" data-name="Group 6785"><path id="Rectangle_1130" d="M0 0h2.103v2.103H0z" class="cls-1" data-name="Rectangle 1130"/></g></g><g id="Group_6788" data-name="Group 6788" transform="translate(15.923 24.18)"><g id="Group_6787" data-name="Group 6787"><path id="Rectangle_1131" d="M0 0h2.103v2.103H0z" class="cls-1" data-name="Rectangle 1131"/></g></g><g id="Group_6790" data-name="Group 6790" transform="translate(31.693 21.026)"><g id="Group_6789" data-name="Group 6789"><path id="Path_11489" d="M228.205 213.333a4.205 4.205 0 104.205 4.205 4.205 4.205 0 00-4.205-4.205zm0 6.308a2.1 2.1 0 112.1-2.1 2.1 2.1 0 01-2.1 2.1z" class="cls-1" data-name="Path 11489" transform="translate(-224 -213.333)"/></g></g><g id="Group_6792" data-name="Group 6792" transform="translate(53.027 28.693)"><g id="Group_6791" data-name="Group 6791"><path id="Path_11490" d="M445.407 293.971h-.616l-2.846-2.846-1.487 1.487 3.154 3.154a1.051 1.051 0 00.743.308v7.359h2.1v-8.41a1.051 1.051 0 00-1.048-1.052z" class="cls-1" data-name="Path 11490" transform="translate(-440.458 -291.125)"/></g></g><g id="Group_6794" data-name="Group 6794" transform="translate(56.924 43.103)"><g id="Group_6793" data-name="Group 6793"><path id="Rectangle_1132" d="M0 0h2.103v2.103H0z" class="cls-1" data-name="Rectangle 1132"/></g></g><g id="Group_6796" data-name="Group 6796" transform="translate(56.924 47.308)"><g id="Group_6795" data-name="Group 6795"><path id="Rectangle_1133" d="M0 0h2.103v2.103H0z" class="cls-1" data-name="Rectangle 1133"/></g></g></g></svg>