<svg xmlns="http://www.w3.org/2000/svg" width="24.378" height="28.115"><path d="M9.189 28.116a3.082 3.082 0 01-2.857-1.913 3.049 3.049 0 011.7-3.979l12.111-4.855a3.089 3.089 0 014.01 1.689 3.049 3.049 0 01-1.7 3.979l-12.111 4.855a3.1 3.1 0 01-1.153.223m0-17.146a3.082 3.082 0 01-2.857-1.912 3.049 3.049 0 011.7-3.98L20.143.223a3.089 3.089 0 014.01 1.689 3.049 3.049 0 01-1.7 3.98l-12.111 4.854a3.094 3.094 0 01-1.153.223m-3.063 5.355a3.063 3.063 0 11-3.063-3.039 3.051 3.051 0 013.063 3.039" fill="#c3256b"/></svg>