<svg xmlns="http://www.w3.org/2000/svg" width="61.051" height="61.048"><defs><style>.cls-1{fill:#fff}</style></defs><g id="cloud-computing"><path id="Path_11325" d="M247.192 174.644a1.192 1.192 0 001.192-1.192v-3.342a1.192 1.192 0 10-2.385 0v3.342a1.192 1.192 0 001.193 1.192zm0 0" class="cls-1" data-name="Path 11325" transform="translate(-216.667 -148.776)"/><path id="Path_11326" d="M44.641 43.323h4.907a11.5 11.5 0 00.343-22.988 19.48 19.48 0 00-13.234-13.76 1.192 1.192 0 10-.69 2.283 17.1 17.1 0 0111.5 11.662 11.464 11.464 0 00-5.722 2.859 1.192 1.192 0 101.617 1.752 9.092 9.092 0 015.656-2.4l.175-.008c.118 0 .235-.008.354-.008a9.112 9.112 0 110 18.224h-4.906v-4.656a1.192 1.192 0 00-2.385 0v4.655H31.718v-4.655a1.192 1.192 0 00-2.385 0v4.655H18.8v-4.655a1.192 1.192 0 00-2.385 0v4.655H8.582a6.191 6.191 0 01-2.327-11.93 1.192 1.192 0 00.715-1.367 6.189 6.189 0 016.044-7.554 6.406 6.406 0 01.66.036 1.193 1.193 0 001.245-.775 17.218 17.218 0 0111.12-10.49 1.192 1.192 0 10-.69-2.283A19.622 19.622 0 0013 17.7a8.572 8.572 0 00-8.521 9.507 8.576 8.576 0 004.1 16.112h7.829v8.158l-4.148 4.181a4.539 4.539 0 101.686 1.686l4.5-4.536a1.193 1.193 0 00.346-.84v-8.645h10.541v15.542a4.054 4.054 0 102.385 0V43.323h10.538v8.649a1.193 1.193 0 00.346.84l4.5 4.534a4.53 4.53 0 101.687-1.686l-4.146-4.179zM10.017 61.741a2.146 2.146 0 112.146-2.146 2.149 2.149 0 01-2.146 2.146zm20.509 2.668A1.669 1.669 0 1132.2 62.74a1.671 1.671 0 01-1.674 1.669zm22.027-6.332a2.146 2.146 0 11-1.518-.629 2.131 2.131 0 011.517.629zm0 0" class="cls-1" data-name="Path 11326" transform="translate(0 -5.746)"/><path id="Path_11327" d="M251.192 2.388a1.192 1.192 0 001.193-1.188v-.01a1.192 1.192 0 10-1.192 1.2zm0 0" class="cls-1" data-name="Path 11327" transform="translate(-220.19)"/></g></svg>