<svg xmlns="http://www.w3.org/2000/svg" width="58" height="58"><defs><clipPath id="a"><path d="M0 0h58v58H0z"/></clipPath></defs><g clip-path="url(#a)"><path d="M41.31 25.617l8.113-11.8a.764.764 0 00-.63-1.2H25.852V9.559a.764.764 0 00-.765-.765H9.029V7.265a.765.765 0 00-1.529 0v44.351a.765.765 0 001.529 0V32.5h8.431a3.784 3.784 0 00-.785 2.294 3.828 3.828 0 003.825 3.822h28.293a.764.764 0 00.63-1.2zM9.029 10.323h15.294V30.97H9.029zM20.5 37.087a2.294 2.294 0 110-4.587h4.588a.764.764 0 00.765-.765V14.147h21.486l-7.588 11.037a.766.766 0 000 .866l7.588 11.037z" fill="#fff" stroke="#fff" stroke-width=".5"/></g></svg>