<svg xmlns="http://www.w3.org/2000/svg" width="58" height="58"><defs><clipPath id="a"><path d="M0 0h58v58H0z"/></clipPath></defs><g clip-path="url(#a)" fill="#fff"><path d="M34.433 4h-8.409a2.1 2.1 0 00-2.1 2.1v4.188a19.8 19.8 0 00-2.631 1.081l-2.96-2.954a2.152 2.152 0 00-2.974 0l-5.948 5.948a2.1 2.1 0 000 2.973l2.956 2.958a19.8 19.8 0 00-1.083 2.628H7.102a2.1 2.1 0 00-2.1 2.1v8.409a2.1 2.1 0 002.1 2.1h4.186a19.8 19.8 0 001.081 2.631l-2.954 2.954a2.1 2.1 0 000 2.973l5.948 5.948a2.153 2.153 0 002.973 0l2.958-2.956a19.807 19.807 0 002.628 1.083v4.186a2.1 2.1 0 002.1 2.1h1.051v-2.1H26.02v-4.956a1.051 1.051 0 00-.76-1.01 17.835 17.835 0 01-3.661-1.507 1.051 1.051 0 00-1.251.177l-3.5 3.5-5.947-5.947 3.5-3.5a1.051 1.051 0 00.177-1.251 17.835 17.835 0 01-1.507-3.661 1.051 1.051 0 00-1.01-.76H7.102v-8.411h4.961a1.051 1.051 0 001.01-.76 17.811 17.811 0 011.508-3.664 1.051 1.051 0 00-.177-1.252l-3.5-3.5L16.849 9.9l3.5 3.5a1.051 1.051 0 001.251.177 17.835 17.835 0 013.661-1.507 1.051 1.051 0 00.76-1.01V6.1h8.412v5.258h2.1V6.1a2.1 2.1 0 00-2.1-2.1z"/><path d="M51.252 4C45.428 4 40.74 9.751 40.74 14.512v6.307c0 4.1 2.391 9.356 6.307 11.213v.676c-2.628 1-11.894 4.588-14.249 6.158A7.823 7.823 0 0029.177 45v9.461h2.1V45a5.721 5.721 0 012.684-4.377c2-1.335 10.363-4.641 14.506-6.2a1.051 1.051 0 00.68-.984v-2.1a1.051 1.051 0 00-.7-.991c-3.3-1.17-5.607-5.956-5.607-9.521v-6.315c0-3.784 3.88-8.409 8.41-8.409h2.1V4z"/><path d="M37.587 44.996h2.102v9.461h-2.102zm-5.15-24.965a9.461 9.461 0 00-4.416 18.4l.486-2.045a7.358 7.358 0 118.2-3.661l1.848 1a9.461 9.461 0 00-6.117-13.694zm-3.26-10.775h2.102v2.102h-2.102zM15.512 41.843h2.102v2.102h-2.102zm0-27.331h2.102v2.102h-2.102zm-5.256 13.665h2.102v2.102h-2.102z"/><path d="M30.224 25.024a4.2 4.2 0 104.2 4.2 4.2 4.2 0 00-4.2-4.2zm0 6.307a2.1 2.1 0 112.1-2.1 2.1 2.1 0 01-2.1 2.1zm22.08 4.205h-.616l-2.846-2.846-1.486 1.486 3.154 3.154a1.051 1.051 0 00.743.308v7.358h2.1v-8.41a1.051 1.051 0 00-1.049-1.05zm-1.052 11.563h2.102v2.102h-2.102zm0 4.205h2.102v2.102h-2.102z"/></g></svg>