<svg xmlns="http://www.w3.org/2000/svg" width="58" height="58"><defs><clipPath id="a"><path d="M0 0h58v58H0z"/></clipPath></defs><g fill="#fff" clip-path="url(#a)"><path d="M13.4 41.953a3.9 3.9 0 00-1.883.48A22.036 22.036 0 0133.278 7.3a.934.934 0 00.37-1.83A24.07 24.07 0 0028.892 5a23.892 23.892 0 00-18.751 38.7 3.921 3.921 0 103.259-1.747zm1.452 5.371a2.053 2.053 0 11.6-1.452 2.039 2.039 0 01-.596 1.452zm32.79-33.24a3.912 3.912 0 10-1.38 1.266 22.035 22.035 0 01-21.715 35.139.933.933 0 10-.366 1.83 24.087 24.087 0 004.711.464 23.892 23.892 0 0018.75-38.7zm-4.714-.721a2.054 2.054 0 111.452.6 2.04 2.04 0 01-1.452-.6zm0 0"/><path d="M25.04 44.944a.933.933 0 00.933.933h5.836a.933.933 0 00.933-.933v-1.809a14.615 14.615 0 003.5-1.452l1.277 1.277a.933.933 0 001.32 0l4.125-4.128a.934.934 0 000-1.32l-1.276-1.276a14.615 14.615 0 001.452-3.5h1.8a.933.933 0 00.933-.933v-5.838a.933.933 0 00-.933-.933h-1.8a14.617 14.617 0 00-1.451-3.5l1.269-1.269a.933.933 0 000-1.32l-4.128-4.125a.933.933 0 00-1.32 0l-1.267 1.268a14.615 14.615 0 00-3.5-1.452v-1.795a.933.933 0 00-.934-.933h-5.836a.933.933 0 00-.933.933v1.793a14.6 14.6 0 00-3.5 1.451l-1.27-1.267a.934.934 0 00-1.32 0l-4.13 4.125a.933.933 0 000 1.32l1.269 1.269a14.612 14.612 0 00-1.452 3.5h-1.8a.933.933 0 00-.933.933v5.836a.933.933 0 00.933.934h1.8a14.614 14.614 0 001.452 3.5l-1.269 1.28a.933.933 0 000 1.32l4.125 4.128a.934.934 0 00.66.274.933.933 0 00.66-.273l1.277-1.277a14.628 14.628 0 003.5 1.452zm-3.137-5.224a.934.934 0 00-1.167.124L19.6 40.98l-2.805-2.808 1.135-1.136a.933.933 0 00.124-1.166 12.775 12.775 0 01-1.767-4.264.934.934 0 00-.913-.737h-1.6V26.9h1.6a.933.933 0 00.913-.737 12.775 12.775 0 011.768-4.266.933.933 0 00-.124-1.166l-1.128-1.128 2.807-2.807 1.127 1.127a.934.934 0 001.167.124 12.77 12.77 0 014.266-1.768.934.934 0 00.737-.913v-1.593h3.969v1.593a.933.933 0 00.737.912 12.78 12.78 0 014.266 1.768.933.933 0 001.166-.124l1.127-1.127L40.98 19.6l-1.128 1.128a.933.933 0 00-.124 1.167 12.783 12.783 0 011.768 4.266.933.933 0 00.912.737h1.6v3.969h-1.6a.934.934 0 00-.912.737 12.773 12.773 0 01-1.768 4.266.933.933 0 00.124 1.167l1.135 1.135-2.805 2.808-1.136-1.136a.933.933 0 00-1.167-.124 12.783 12.783 0 01-4.266 1.768.933.933 0 00-.737.913v1.61h-3.969v-1.61a.934.934 0 00-.737-.913 12.776 12.776 0 01-4.266-1.768zm0 0"/><path d="M36.603 28.892a7.712 7.712 0 10-7.712 7.712 7.72 7.72 0 007.712-7.712zm-13.557 0a5.845 5.845 0 115.845 5.845 5.852 5.852 0 01-5.844-5.845zM37.485 8.529a.934.934 0 10-.66-.273.94.94 0 00.66.273zM20.339 49.271a.934.934 0 10.66.273.941.941 0 00-.66-.273zm0 0"/></g></svg>