<svg xmlns="http://www.w3.org/2000/svg" width="58" height="58"><defs><clipPath id="a"><path d="M0 0h58v58H0z"/></clipPath></defs><g clip-path="url(#a)" fill="#fff"><path d="M38.664 44.276h-7.739v-6.879a4.3 4.3 0 00-4.3-4.3h-5.159v-4.721l11.677-8.341a.852.852 0 00.189-1.212l-2.58-3.44a.86.86 0 00-1.178-.189l-8.814 6.1a6.019 6.019 0 10-9.519 1.488h-.954a.86.86 0 00-.636.284l-5.553 6.17a4.3 4.3 0 00.17 5.917l4.549 4.575a.865.865 0 001.316-.112l1.015-1.436v15.556a.86.86 0 00.86.86h5.159a.86.86 0 00.86-.86v-13.76h6.019v4.3h-2.58a.86.86 0 00-.86.86v8.6a.86.86 0 00.86.86h17.2a.86.86 0 00.86-.86v-8.6a.86.86 0 00-.862-.86zm-27.517-25.8a4.3 4.3 0 114.3 4.3 4.3 4.3 0 01-4.3-4.297zm6.346 6.019l-1.187 2.373-1.187-2.373zm-6.346 9.21l-1.376-1.47 1.376-1.376zm6.019 4.549a.86.86 0 00-.86.86v13.758h-3.44V28.797a.865.865 0 00-1.47-.611l-3.44 3.44a.86.86 0 000 1.2l2.812 2.932-1.453 2.029-3.852-3.834a2.58 2.58 0 01-.095-3.569l5.306-5.89h2.524l2.348 4.686a.86.86 0 001.531 0l2.485-4.962 10.319-7.146 1.551 2.081-11.325 8.092a.86.86 0 00-.361.7v6.008a.86.86 0 00.86.86h6.019a2.58 2.58 0 012.58 2.58v6.879h-3.44v-5.159a.86.86 0 00-.86-.86zm20.638 14.618H22.326v-6.879h15.478zM53.282 9.879a6.019 6.019 0 01-6.015-6.019.86.86 0 00-1.72 0 6.019 6.019 0 01-6.019 6.019.86.86 0 000 1.72 6.019 6.019 0 016.019 6.019.86.86 0 001.72 0 6.019 6.019 0 016.015-6.018.86.86 0 100-1.72zm-6.879 4.2a7.807 7.807 0 00-3.336-3.34A7.808 7.808 0 0046.403 7.4a7.808 7.808 0 003.336 3.336 7.808 7.808 0 00-3.336 3.34z"/><path d="M29.556 26.381l2.343-1.718 1.018 1.387-2.344 1.718zm4.305-3.149l8.597-6.308 1.017 1.386-8.596 6.309zm.023-7.192l5.159-3.44.954 1.432-5.159 3.44z"/></g></svg>