<svg xmlns="http://www.w3.org/2000/svg" width="189.969" height="37.868"><path d="M189.933 8.757a.656.656 0 00-.328-.538 4.675 4.675 0 00-2.332-.388 6.976 6.976 0 00-6.54 3.855V8.757a.466.466 0 00-.477-.448h-4.3a.44.44 0 00-.448.448v19.846a.466.466 0 00.477.448h4.544a.46.46 0 00.448-.448v-8.936c0-3.975 2.78-5.948 6.336-5.948a7.075 7.075 0 012.092.3.436.436 0 00.568-.448V8.729zm-28.931-.956c6.366 0 11.119 4.394 11.119 10.879 0 6.456-4.753 10.879-11.089 10.879s-11.059-4.393-11.059-10.879c-.025-6.486 4.697-10.88 11.033-10.88zm0 16.379a5.289 5.289 0 005.5-5.5 5.313 5.313 0 00-5.5-5.529 5.306 5.306 0 00-5.469 5.529 5.316 5.316 0 005.473 5.499zM135.841 7.8c6.366 0 11.089 4.394 11.089 10.879 0 6.456-4.752 10.879-11.059 10.879-6.365 0-11.118-4.393-11.118-10.879S129.475 7.8 135.842 7.8zm0 16.379a5.289 5.289 0 005.5-5.5 5.305 5.305 0 00-5.469-5.529 5.306 5.306 0 00-5.469 5.529 5.209 5.209 0 005.438 5.5zM120.927.029a.44.44 0 01.448.448v28.125a.44.44 0 01-.448.448h-4.544a.459.459 0 01-.448-.448v-2.451a8.054 8.054 0 01-6.844 3.437c-5.111 0-9.385-3.885-9.385-10.909s4.274-10.909 9.3-10.909a8.181 8.181 0 016.934 3.527V.478a.491.491 0 01.479-.478zm-10.222 24.24a5.25 5.25 0 005.41-5.559 5.234 5.234 0 00-5.41-5.559 5.266 5.266 0 00-5.409 5.559 5.249 5.249 0 005.409 5.559zm-13.988-1.465c0 4.723-3.407 6.755-8.907 6.755-3.766 0-7.053-1.046-8.906-3.138a.454.454 0 010-.6l2.6-3.437a.436.436 0 01.688-.03 8.365 8.365 0 006.157 2.3c1.524 0 2.779-.419 2.779-1.584 0-1.136-1.136-1.375-4.6-2.122-3.049-.628-6.845-2.033-6.845-6.546 0-4.214 3.318-6.605 8.7-6.605a10.954 10.954 0 017.89 2.78.462.462 0 01.03.628l-2.481 3.258a.471.471 0 01-.657.089 8 8 0 00-5.232-1.761c-1.674 0-2.63.538-2.63 1.435 0 1.046 1.136 1.285 4.782 2.062 3.616.777 6.635 2.152 6.635 6.515zm-20.922 0c0 4.723-3.407 6.755-8.907 6.755-3.8 0-7.053-1.046-8.936-3.138a.542.542 0 010-.6l2.63-3.408a.435.435 0 01.687-.03 8.368 8.368 0 006.157 2.3c1.524 0 2.78-.418 2.78-1.584 0-1.136-1.136-1.375-4.6-2.122-3.049-.628-6.844-2.032-6.844-6.546 0-4.214 3.287-6.6 8.7-6.6a10.953 10.953 0 017.89 2.78.46.46 0 01.03.627l-2.481 3.228a.476.476 0 01-.658.089 8 8 0 00-5.23-1.764c-1.674 0-2.63.538-2.63 1.435 0 1.046 1.136 1.285 4.782 2.062 3.583.778 6.601 2.15 6.631 6.516zM45.101 7.86c6.008 0 9.026 2.66 9.026 8.429v12.374a.466.466 0 01-.478.448h-4.543a.44.44 0 01-.448-.448v-2.361a7.164 7.164 0 01-6.337 3.228c-4.095 0-6.964-2.63-6.964-6.456 0-3.766 2.81-6.157 6.605-6.515l5.649-.508c.747-.089 1.046-.329 1.046-.836v-.329c0-1.2-1.136-2.062-3.587-2.062-1.973 0-4.035.568-4.931 2.242a.417.417 0 01-.628.119l-3.288-2.391a.425.425 0 01-.119-.568c1.434-2.9 4.692-4.334 9-4.334zm3.557 12.822v-.837l-5.081.628c-1.674.239-2.54 1.105-2.54 2.272 0 1.345 1.046 2.211 2.929 2.211a4.366 4.366 0 004.692-4.274zM31.651.478v28.125a.466.466 0 01-.448.478h-4.57a.492.492 0 01-.478-.478V.478a.46.46 0 01.448-.448h4.57a.467.467 0 01.478.448zm-10.461 7.8a.492.492 0 01.478.478v18.919c0 5.35-2.541 10.192-11.208 10.192a12.715 12.715 0 01-8.817-2.959c-.149-.119-.18-.389.09-.837l2.032-3.467a.407.407 0 01.658-.09 8.355 8.355 0 005.828 2.242c4.6 0 6.037-2.361 6.037-5.35v-1.315a7.737 7.737 0 01-6.605 3.168c-5.5 0-9.684-3.766-9.684-10.67 0-6.934 4.394-10.79 9.534-10.79a7.76 7.76 0 016.725 3.408V8.786a.491.491 0 01.475-.478zm-10.191 15.96a5.188 5.188 0 005.35-5.559 5.172 5.172 0 00-5.35-5.559 5.25 5.25 0 00-5.41 5.559 5.266 5.266 0 005.41 5.559" fill="#17a538"/></svg>