<svg xmlns="http://www.w3.org/2000/svg" width="143.147" height="143.146"><g data-name="Group 19299"><path data-name="Rectangle 3" d="M0-.001h11.011V11.01H0zm22.023 0h11.011V11.01H22.023zm22.022 0h11.011V11.01H44.045zm22.023 0h11.011V11.01H66.068zm22.022 0h11.011V11.01H88.09zm22.023 0h11.011V11.01h-11.011zm22.022 0h11.011V11.01h-11.011zM0 22.022h11.011v11.011H0zm22.023 0h11.011v11.011H22.023zm22.022 0h11.011v11.011H44.045zm22.023 0h11.011v11.011H66.068zm22.022 0h11.011v11.011H88.09zm22.023 0h11.011v11.011h-11.011zm22.022 0h11.011v11.011h-11.011zM0 44.044h11.011v11.011H0zm22.023 0h11.011v11.011H22.023zm22.022 0h11.011v11.011H44.045zm22.023 0h11.011v11.011H66.068zm22.022 0h11.011v11.011H88.09zm22.023 0h11.011v11.011h-11.011zm22.022 0h11.011v11.011h-11.011zM0 66.067h11.011v11.011H0zm22.023 0h11.011v11.011H22.023zm22.022 0h11.011v11.011H44.045zm22.023 0h11.011v11.011H66.068zm22.022 0h11.011v11.011H88.09zm22.023 0h11.011v11.011h-11.011zm22.022 0h11.011v11.011h-11.011zM0 88.09h11.011v11.011H0zm22.023 0h11.011v11.011H22.023zm22.022 0h11.011v11.011H44.045zm22.023 0h11.011v11.011H66.068zm22.022 0h11.011v11.011H88.09zm22.023 0h11.011v11.011h-11.011zm22.022 0h11.011v11.011h-11.011zM0 110.112h11.011v11.011H0zm22.023 0h11.011v11.011H22.023zm22.022 0h11.011v11.011H44.045zm22.023 0h11.011v11.011H66.068zm22.022 0h11.011v11.011H88.09zm22.023 0h11.011v11.011h-11.011zm22.022 0h11.011v11.011h-11.011zM0 132.135h11.011v11.011H0zm22.023 0h11.011v11.011H22.023zm22.022 0h11.011v11.011H44.045zm22.023 0h11.011v11.011H66.068zm22.022 0h11.011v11.011H88.09zm22.023 0h11.011v11.011h-11.011zm22.022 0h11.011v11.011h-11.011z" opacity=".2" fill="#fff"/></g></svg>