<svg xmlns="http://www.w3.org/2000/svg" width="833" height="645" viewBox="0 0 833 645"><defs><linearGradient id="Gradient-0" x1=".5" y1="0" x2=".5" y2="1"><stop offset="0" stop-color="#4248ae"/><stop offset="1" stop-color="#1e2043"/></linearGradient><linearGradient id="Gradient-1" x1=".5" y1="0" x2=".5" y2="1"><stop offset="0" stop-color="#6166c9"/><stop offset="1" stop-color="#252753"/></linearGradient><linearGradient id="Gradient-2" x1=".5" y1="0" x2=".5" y2="1"><stop offset="0" stop-color="#fff" stop-opacity="0"/><stop offset="1" stop-color="#6085ff" stop-opacity=".24"/></linearGradient><linearGradient id="Gradient-3" x1=".5" y1="0" x2=".4" y2="1"><stop offset="0" stop-color="#c73c7f"/><stop offset="1" stop-color="#254d9f"/></linearGradient><linearGradient id="Gradient-4" x1=".5" y1="0" x2=".4" y2="1"><stop offset="0" stop-color="#b5256b"/><stop offset="1" stop-color="#1c3d81"/></linearGradient><linearGradient id="Gradient-5" x1=".5" y1="0" x2=".5" y2="1"><stop offset=".2" stop-color="#fff" stop-opacity="0"/><stop offset=".3" stop-color="#fffdfe" stop-opacity=".03"/><stop offset=".4" stop-color="#fff8fb" stop-opacity=".12"/><stop offset=".5" stop-color="#fff0f6" stop-opacity=".27"/><stop offset=".7" stop-color="#ffe5f0" stop-opacity=".47"/><stop offset=".8" stop-color="#ffd7e9" stop-opacity=".73"/><stop offset="1" stop-color="#ffc9e1"/></linearGradient><linearGradient id="Gradient-6" x1=".5" y1="0" x2=".4" y2="1"><stop offset="0" stop-color="#ae2868"/><stop offset="1" stop-color="#001f5d"/></linearGradient><linearGradient id="Gradient-7" x1="4" y1="1" x2="4" y2="0"><stop offset="0" stop-color="#c0bff6"/><stop offset=".3" stop-color="#c4c3f6"/><stop offset=".6" stop-color="#d2d2f9"/><stop offset="1" stop-color="#e9e9fd"/></linearGradient></defs><path id="Path_11024" data-name="Path 11024" stroke="#fff" d="M984.6 641c-0.6 0-1.2 0-1.8-0.1c-0.6-0.1-1.2-0.2-1.8-0.3c-0.6-0.2-1.1-0.4-1.7-0.6c-0.5-0.2-1.1-0.5-1.6-0.8l-294.7-170.1c-2.1-1.2-3.8-3-5-5.1c-1.2-2-1.8-4.4-1.8-6.8c0-2.4 .6-4.8 1.8-6.8c1.2-2.1 2.9-3.9 5-5.1l494.7-285.5c1-0.6 2.1-1.1 3.3-1.4c1.1-0.3 2.3-0.5 3.5-0.5c1.2 0 2.4 .2 3.5 .5c1.2 .3 2.3 .8 3.3 1.4l294.7 170.1c2.1 1.2 3.9 2.9 5.1 5c1.2 2.1 1.8 4.5 1.8 6.9c0 2.4-0.6 4.7-1.8 6.8c-1.2 2.1-3 3.8-5.1 5l-51.2 29.6c-5.6 3.3-10.3 7.9-13.5 13.5c-3.3 5.7-5 12-5 18.5c0 6.5 1.7 12.9 5 18.5c3.2 5.6 7.9 10.3 13.5 13.5l33.1 19.1c2.1 1.2 3.8 3 5 5c1.2 2.1 1.8 4.5 1.8 6.9c0 2.4-0.6 4.8-1.8 6.8c-1.2 2.1-2.9 3.8-5 5l-240.2 138.7c-1 .6-2.1 1.1-3.3 1.4c-1.2 .3-2.3 .4-3.5 .4c-1.2 0-2.4-0.1-3.6-0.4c-1.1-0.3-2.3-0.8-3.3-1.4l-83.7-48.3c-2.8-1.7-5.8-2.9-8.9-3.7c-3.2-0.9-6.4-1.3-9.6-1.3c-3.2 0-6.4 .4-9.6 1.3c-3.1 .8-6.1 2-8.9 3.7l-101.9 58.8c-0.5 .3-1 .6-1.6 .8c-0.5 .2-1.1 .4-1.7 .6c-0.6 .1-1.2 .2-1.7 .3c-0.6 .1-1.2 .1-1.8 .1Z" fill="none" stroke-linecap="round" stroke-linejoin="round" stroke-width="1.5" stroke-dasharray="0 7" transform="translate(-667.7,-1.5)"/><g data-name="Group 6325" transform="translate(416.3,39.6)"><g data-name="Group 6323"><g data-name="Group 6322"><path data-name="Path 11025" d="M971.5 167.6l-79-45.6v148.7l79 45.6Z" fill="url(#Gradient-0)" transform="translate(-892.5,-72.9)"/><path data-name="Path 11026" d="M892.5 145l85-49.1l79 45.7l-85 49Z" fill="#686cd8" transform="translate(-892.5,-95.9)"/><path data-name="Path 11027" d="M896.9 142.6l76.4-44.1l71.1 41l-76.4 44.1Z" fill="#36439e" transform="translate(-888.7,-93.7)"/><path data-name="Path 11028" d="M899.7 142.8l65.8 38l71.1-41.1l-65.8-38Z" fill="#26317a" transform="translate(-886.2,-90.8)"/><path data-name="Path 11029" d="M1019.4 120.1v148.8l-85 49v-148.7Z" fill="url(#Gradient-1)" transform="translate(-855.4,-74.5)"/></g><path data-name="Path 11030" d="M910.5 168.7l8 4.6v-9.2l-8-4.6Zm0 17.1l8 4.6v-9.2l-8-4.6Zm13.5 24.9l8 4.6v-9.2l-8-4.6Zm-13.5-7.8l8 4.6v-9.2l-8-4.6Zm0-51.4l8 4.6v-9.2l-8-4.6Zm13.5 76.3l8 4.6v-9.2l-8-4.6Zm-13.5-7.8l8 4.6v-9.2l-8-4.6Zm-13.4-24.9l7.9 4.6v-9.2l-7.9-4.6Zm0 17.1l7.9 4.6v-9.2l-7.9-4.6Zm0-68.4l7.9 4.6v-9.2l-7.9-4.6Zm53.9 21.9v9.2l7.9 4.6v-9.2Zm-53.9 12.3l7.9 4.6v-9.2l-7.9-4.6Zm0-17.1l7.9 4.6v-9.2l-7.9-4.6Zm53.9 82.4l7.9 4.6v-9.2l-7.9-4.6Zm0-17.1l7.9 4.6v-9.2l-7.9-4.6Zm-13.5-59.1l8 4.6v-9.2l-8-4.6Zm0 17.1l8 4.6v-9.2l-8-4.6Zm-13.5 9.4l8 4.6v-9.2l-8-4.6Zm27-1.6l7.9 4.6v-9.2l-7.9-4.6Zm0 17.1l7.9 4.6v-9.2l-7.9-4.6Zm-27-49.8l8 4.6v-9.2l-8-4.6Zm0 17.1l8 4.6v-9.2l-8-4.6Zm13.5 42l8 4.6v-9.2l-8-4.6Zm0-17.1l8 4.6v-9.2l-8-4.6Zm0 34.3l8 4.6v-9.2l-8-4.6Z" fill="#e8e8e8" transform="translate(-888.5,-61.8)"/><path data-name="Path 11031" d="M954.8 187.5l7.9-4.6v-9.2l-7.9 4.6Zm0 17.1l7.9-4.6v-9.2l-7.9 4.6Zm0 17.2l7.9-4.6v-9.2l-7.9 4.6Zm0 17.1l7.9-4.6v-9.2l-7.9 4.6Zm0-68.5l7.9-4.6v-9.2l-7.9 4.6Zm13.4 60.7l8-4.6v-9.2l-8 4.6Zm0 17.1l8-4.6v-9.2l-8 4.6Zm0-34.2l8-4.6v-9.2l-8 4.6Zm-26.9 15.5l8-4.6v-9.2l-8 4.6Zm13.5 26.5l7.9-4.6v-9.2l-7.9 4.6Zm-13.5 7.8l8-4.6v-9.2l-8 4.6Zm0-17.2l8-4.6v-9.2l-8 4.6Zm0-68.4l8-4.6v-9.2l-8 4.6Zm0 34.2l8-4.6v-9.2l-8 4.6Zm0-17.1l8-4.6v-9.2l-8 4.6Zm53.9-57.4v9.2l8-4.6v-9.2Zm0 77.6l8-4.6v-9.2l-8 4.6Zm0 17.1l8-4.6v-9.2l-8 4.6Zm-13.5-77.8l8-4.6v-9.2l-8 4.6Zm13.5 43.6l8-4.6v-9.2l-8 4.6Zm-13.5-26.4l8-4.6v-9.2l-8 4.6Zm13.5-7.8l8-4.6v-9.2l-8 4.6Zm0 17.1l8-4.6v-9.2l-8 4.6Zm-13.5 7.8l8-4.6v-9.2l-8 4.6Zm0 51.3l8-4.6v-9.2l-8 4.6Zm-13.5-77.8l8-4.6v-9.2l-8 4.6Zm0 34.2l8-4.6v-9.2l-8 4.6Zm0-17.1l8-4.6v-9.2l-8 4.6Zm13.5 26.5l8-4.6v-9.2l-8 4.6Zm0 17.1l8-4.6v-9.2l-8 4.6Z" fill="#e8e8e8" transform="translate(-849.3,-62.9)"/></g></g><g data-name="Group 6340" transform="translate(101.9,43)"><g data-name="Group 6337" transform="translate(0,121.9)"><g data-name="Group 6333"><path data-name="Path 11036" d="M892.9 185.3c0 .3 0 .7 0 1c0 .3-0.1 .7-0.1 1c-0.1 .3-0.1 .6-0.1 .9c-0.1 .4-0.2 .7-0.2 1.1c-0.1 .3-0.2 .6-0.2 .9c-0.1 .3-0.2 .7-0.3 1c-0.1 .3-0.2 .6-0.3 1c-0.1 .3-0.2 .6-0.4 1c-0.1 .3-0.2 .6-0.3 .9c-0.2 .3-0.3 .7-0.5 1c-0.1 .3-0.3 .6-0.4 .9c-0.2 .3-0.4 .7-0.6 1c-0.1 .3-0.3 .6-0.5 .9c-0.2 .3-0.4 .7-0.6 1c-0.2 .3-0.4 .6-0.6 .9c-0.2 .3-0.4 .6-0.7 1c-0.2 .2-0.4 .5-0.6 .8c-0.3 .4-0.6 .7-0.9 1c-0.2 .3-0.4 .6-0.7 .8c-0.2 .4-0.6 .7-0.9 1c-0.2 .3-0.5 .5-0.7 .8c-0.4 .3-0.7 .6-1.1 .9c-0.2 .3-0.5 .6-0.8 .8c-0.4 .4-0.8 .7-1.2 1c-0.2 .2-0.5 .5-0.8 .7c-0.4 .3-0.9 .7-1.3 1c-0.3 .2-0.6 .4-0.9 .6c-0.5 .4-1.1 .8-1.6 1.2c-0.3 .1-0.5 .3-0.7 .4c-0.8 .5-1.7 1.1-2.5 1.6l-0.8 162.5c13.8-8 20.6-18.4 20.6-28.9l.8-162.6c0 .3 0 .6-0.1 .9Z" fill="url(#Gradient-1)" transform="translate(-596.6,-143)"/><path data-name="Path 11037" d="M791 288.9l-0.7 162.6l153.4-89.2l.7-162.5Z" fill="url(#Gradient-1)" transform="translate(-668.6,-129.4)"/><path data-name="Path 11038" d="M747.4 260.9c-0.9-0.5-1.7-1.1-2.5-1.6c-0.3-0.2-0.6-0.3-0.8-0.5c-0.6-0.4-1.1-0.7-1.6-1.1c-0.3-0.2-0.6-0.4-0.9-0.6c-0.4-0.4-0.9-0.7-1.3-1c-0.3-0.3-0.6-0.5-0.9-0.8c-0.4-0.3-0.8-0.6-1.1-0.9c-0.3-0.3-0.6-0.5-0.9-0.8c-0.3-0.3-0.7-0.6-1-1c-0.3-0.2-0.5-0.5-0.8-0.7c-0.3-0.4-0.6-0.7-0.9-1c-0.3-0.3-0.5-0.6-0.8-0.9c-0.2-0.3-0.5-0.6-0.8-1c-0.2-0.2-0.4-0.5-0.6-0.8c-0.3-0.3-0.6-0.7-0.8-1c-0.2-0.3-0.4-0.6-0.6-0.9c-0.2-0.3-0.4-0.7-0.6-1c-0.2-0.3-0.3-0.6-0.5-0.9c-0.2-0.3-0.4-0.7-0.6-1c-0.1-0.3-0.3-0.6-0.4-0.9c-0.2-0.4-0.3-0.7-0.5-1c-0.1-0.4-0.2-0.7-0.3-1c-0.2-0.3-0.3-0.7-0.4-1c-0.1-0.3-0.2-0.6-0.3-0.9c-0.1-0.4-0.2-0.7-0.3-1.1c-0.1-0.3-0.1-0.6-0.2-0.9c-0.1-0.4-0.1-0.7-0.2-1c-0.1-0.4-0.1-0.7-0.1-1c-0.1-0.3-0.1-0.7-0.1-1c-0.1-0.3-0.1-0.7-0.1-1c0-0.3 0-0.7 0-1c0 0 0-0.1 0-0.1l-0.8 162.5c0 10.7 7 21.3 21 29.4c27.8 16.1 73.1 16.1 100.7 0l.7-162.5c-27.6 16-72.9 16-100.7 0Z" fill="url(#Gradient-1)" transform="translate(-725.7,-101.3)"/><path data-name="Path 11039" d="M726.2 293.7c0 .4 0 .7 0 1c0 .3 .1 .7 .1 1c.1 .3 .1 .7 .2 1c0 .3 .1 .7 .2 1c0 .3 .1 .6 .2 1c0 .3 .2 .6 .3 1c.1 .3 .1 .6 .2 .9c.2 .4 .3 .7 .4 1c.1 .4 .2 .7 .4 1c.1 .3 .3 .7 .4 1c.2 .3 .3 .6 .5 .9c.2 .3 .3 .7 .5 1c.2 .3 .4 .6 .5 .9c.2 .4 .5 .7 .7 1c.2 .3 .4 .6 .6 .9c.2 .3 .5 .7 .7 1c.2 .3 .4 .6 .7 .9c.2 .3 .5 .6 .8 1c.2 .2 .5 .5 .7 .8c.3 .3 .7 .6 1 1c.2 .2 .5 .5 .7 .8c.4 .3 .7 .6 1.1 .9c.3 .3 .5 .6 .8 .8c.4 .3 .8 .6 1.2 1c.3 .2 .5 .5 .8 .7c.5 .3 .9 .7 1.4 1c.3 .2 .6 .4 .9 .6c.5 .4 1 .7 1.5 1.1c.3 .2 .5 .4 .8 .5c.8 .6 1.7 1.1 2.6 1.6c27.7 16 73 16 100.6 0l153.5-89.2c.9-0.5 1.7-1 2.5-1.5c.2-0.2 .5-0.4 .7-0.5c.5-0.4 1.1-0.7 1.6-1.1c.3-0.2 .6-0.4 .9-0.7c.4-0.3 .9-0.6 1.3-1c.3-0.2 .6-0.4 .9-0.7c.3-0.3 .7-0.6 1.1-0.9c.3-0.3 .6-0.6 .9-0.8c.3-0.3 .6-0.6 1-1c.2-0.2 .5-0.5 .7-0.8c.3-0.3 .7-0.6 1-0.9c.2-0.3 .4-0.6 .7-0.9c.2-0.3 .5-0.6 .8-0.9c.2-0.3 .4-0.6 .6-0.9c.3-0.3 .5-0.6 .8-1c.2-0.3 .3-0.6 .5-0.9c.2-0.3 .5-0.6 .7-0.9c.1-0.3 .3-0.6 .5-0.9c.1-0.4 .3-0.7 .5-1c.2-0.3 .3-0.7 .4-1c.2-0.3 .4-0.6 .5-1c.1-0.3 .2-0.6 .3-0.9c.2-0.3 .3-0.7 .4-1c.1-0.3 .2-0.6 .3-0.9c.1-0.4 .2-0.7 .3-1.1c.1-0.3 .1-0.6 .2-0.9c0-0.3 .1-0.7 .2-1c0-0.3 .1-0.6 .1-1c0-0.3 .1-0.6 .1-1c0-0.3 0-0.6 .1-0.9c.4-11-6.6-22-20.9-30.3c-27.8-16.1-73.1-16.1-100.7 0l-153.5 89.2c-13.7 7.9-20.6 18.5-20.6 29c0 .3 0 .7 .1 1Z" fill="#686cd8" transform="translate(-725.4,-162.4)"/><path data-name="Path 11040" d="M794.9 326c-18.1 0-35.1-4-47.7-11.3c-0.8-0.5-1.5-0.9-2.3-1.4l-1-0.7c-0.4-0.2-0.8-0.5-1.1-0.8l-1.2-0.8c-0.3-0.2-0.6-0.4-0.8-0.6c-0.2-0.2-1.2-1-1.2-1c-0.2-0.2-0.4-0.4-0.7-0.6l-1-0.9c-0.2-0.2-0.4-0.4-0.6-0.6l-0.9-1c-0.2-0.2-0.4-0.3-0.6-0.5c-0.1-0.2-0.6-0.8-0.6-0.8l-0.3-0.3c-0.1-0.1-0.3-0.3-0.4-0.5c-0.1-0.1-0.8-1.1-0.8-1.1c-0.2-0.1-0.3-0.3-0.4-0.5c-0.1-0.1-0.7-1-0.7-1c-0.1-0.2-0.2-0.4-0.4-0.6c0-0.1-0.1-0.2-0.2-0.4l-0.4-0.6c0-0.2-0.1-0.4-0.2-0.5c-0.1-0.2-0.4-0.8-0.4-0.8l-0.1-0.3c-0.1-0.2-0.2-0.3-0.3-0.5c0-0.1-0.4-1.1-0.4-1.1c0-0.1-0.1-0.3-0.1-0.5c-0.1-0.1-0.4-1-0.4-1c0-0.2-0.1-0.4-0.1-0.5c0-0.2-0.2-1.1-0.2-1.1c-0.1-0.2-0.1-0.3-0.1-0.5c-0.1-0.1-0.2-1-0.2-1c0-0.2 0-0.4 0-0.5c0-0.2-0.1-0.8-0.1-0.8v-0.3c0-0.1 0-0.3 0-0.5c0-8.9 6.3-17.6 17.9-24.3l153.5-89.2c12.5-7.3 29.4-11.3 47.5-11.3c18.1 0 35.1 4 47.7 11.3c12.1 7 18.5 16 18.2 25.4c0 0-0.1 .6-0.1 .7c0 .2 0 .3 0 .5l-0.1 .6c0 .2 0 .3-0.1 .4c0 .2 0 .4-0.1 .5c0 0-0.1 .9-0.2 1.1c0 .1-0.2 .8-0.2 .8l-0.1 .3c0 .2-0.1 .3-0.1 .4c-0.1 .2-0.1 .4-0.2 .5c0 0-0.3 1-0.4 1.1c0 .1-0.7 1.5-0.7 1.5c-0.1 .2-0.5 .8-0.5 .8c0 0-0.3 .7-0.4 .8c-0.1 .2-0.2 .3-0.3 .5c0 0-0.6 .9-0.7 1.1c-0.1 .1-0.2 .3-0.4 .5c0 0-0.6 .9-0.7 1c-0.2 .2-0.3 .4-0.5 .5c0 0-0.7 .9-0.8 1.1c-0.2 .1-0.8 .8-0.8 .8c0 0-0.6 .6-0.7 .7c-0.2 .2-0.4 .3-0.6 .5c0 0-0.9 .9-1 1c-0.3 .2-0.5 .4-0.7 .6c0 0-1 .8-1.1 .9c-0.3 .2-0.6 .5-0.9 .7l-1.1 .8c-0.4 .3-0.8 .6-1.3 .9l-0.8 .5c-0.7 .5-1.5 1-2.3 1.4l-153.5 89.2c-12.5 7.3-29.4 11.3-47.5 11.3Z" fill="#36439e" transform="translate(-722.8,-159.9)"/><path data-name="Path 11041" d="M730.3 291.9l.1 .3c0 0 .3 .6 .4 .8c0 .1 .1 .3 .2 .5l.4 .6c.1 .2 .2 .3 .2 .4c.1 .2 .3 .4 .4 .6c0 0 .6 .9 .7 1c.1 .2 .2 .3 .3 .5c0 0 .7 .9 .8 1.1c.2 .2 .4 .3 .5 .5l.3 .3c0 0 .5 .6 .6 .7c.2 .2 .3 .4 .5 .6l1 1c.2 .2 .4 .4 .6 .6l1 .9c.2 .2 .5 .4 .7 .6c0 0 1 .8 1.2 .9c.2 .3 .5 .5 .8 .7l1.1 .8c.4 .3 .8 .5 1.2 .8l1 .7c.7 .5 1.5 .9 2.3 1.4c12.6 7.3 29.6 11.3 47.7 11.3c18.1 0 35-4 47.5-11.3l153.5-89.2c.8-0.4 1.5-0.9 2.3-1.4l.8-0.5c.5-0.3 .9-0.6 1.3-0.9l1.1-0.8c.3-0.2 .6-0.5 .9-0.7c.1-0.1 1-0.9 1-0.9c.3-0.2 .5-0.4 .8-0.6c.1-0.1 1-1 1-1c.2-0.2 .4-0.3 .6-0.5c.1-0.1 .6-0.7 .6-0.7c0 0 .7-0.7 .8-0.8c.2-0.2 .9-1.1 .9-1.1c.2-0.1 .3-0.3 .5-0.5c.1-0.1 .7-1 .7-1c.2-0.2 .3-0.4 .4-0.5c.1-0.2 .7-1.1 .7-1.1c.1-0.2 .2-0.3 .3-0.5c.1-0.1 .4-0.8 .4-0.8c0 0 .4-0.6 .5-0.8c0 0 .6-1.4 .7-1.5c0-0.1 .2-0.5 .3-0.8c-2.4-6.5-8.2-12.6-16.9-17.6c-12.6-7.3-29.6-11.3-47.7-11.3c-18.2 0-35 4-47.5 11.3l-153.5 89.2c-8.5 4.9-14.2 10.9-16.6 17.3c.1 .3 .3 .8 .3 .9c.1 .2 .2 .3 .3 .5Z" fill="#26317a" transform="translate(-722.2,-153.4)"/><g data-name="Group 6326" transform="translate(.1,58.9)"><path data-name="Path 11042" d="M1021.6 247.4h-0.2v.8c0 .1 0 .3-0.1 .4l-0.1 1.1c0 .1-0.1 .3-0.1 .5l-0.2 1c-0.1 .2-0.1 .4-0.2 .5l-0.2 .7c0 .1 0 .2-0.1 .4c0 .2-0.1 .3-0.1 .5l-0.3 .7c0 .1-0.1 .2-0.1 .3c-0.1 .2-0.2 .4-0.3 .5l-0.3 .7c0 .2-0.1 .3-0.2 .4c0 .2-0.1 .3-0.2 .5l-0.4 .7c-0.1 .1-0.1 .2-0.2 .4c-0.1 .2-0.2 .3-0.4 .5l-0.4 .7c-0.1 .1-0.2 .3-0.2 .4c-0.2 .2-0.3 .3-0.4 .5l-0.5 .7c-0.1 .1-0.2 .2-0.3 .4c-0.2 .1-0.3 .3-0.5 .5l-0.5 .7c-0.1 .1-0.2 .2-0.4 .3c-0.1 .2-0.3 .4-0.5 .6l-0.6 .6c-0.1 .1-0.2 .3-0.4 .4c-0.1 .2-0.3 .4-0.5 .5l-0.7 .7c-0.2 .1-0.3 .2-0.4 .4c-0.2 .2-0.5 .4-0.7 .6l-0.7 .6c-0.2 .1-0.3 .2-0.5 .3c-0.2 .2-0.5 .4-0.8 .7l-1.2 .8c-0.4 .3-0.9 .6-1.5 1l-0.6 .5c-0.8 .5-1.6 .9-2.4 1.4l-159.3 92.6c-26.6 15.4-71.5 15.4-98.2 0c-0.9-0.5-1.7-1-2.4-1.4l-1.1-0.8c-0.4-0.2-0.8-0.5-1.1-0.7l-1.2-0.9c-0.3-0.2-0.6-0.4-0.9-0.6l-1.1-1c-0.3-0.2-0.5-0.4-0.7-0.6c-0.2-0.1-0.3-0.2-0.4-0.3l-0.6-0.6c-0.3-0.2-0.5-0.5-0.7-0.7l-1-1c-0.2-0.2-0.4-0.4-0.5-0.5c-0.2-0.2-0.3-0.3-0.4-0.4l-0.6-0.7c-0.1-0.2-0.3-0.4-0.4-0.5c-0.1-0.2-0.2-0.3-0.3-0.4l-0.5-0.7c-0.1-0.2-0.3-0.4-0.4-0.5c-0.1-0.2-0.2-0.3-0.3-0.4l-0.4-0.7c-0.1-0.2-0.2-0.4-0.3-0.5c-0.1-0.2-0.2-0.3-0.3-0.4l-0.3-0.7c-0.1-0.2-0.2-0.4-0.3-0.5c-0.1-0.2-0.2-0.3-0.2-0.4l-0.3-0.7c-0.1-0.2-0.2-0.3-0.3-0.5l-0.4-1.1c-0.1-0.2-0.1-0.3-0.2-0.5c0-0.1 0-0.2-0.1-0.4l-0.2-0.7c0-0.1-0.1-0.3-0.1-0.5c-0.1-0.1-0.1-0.2-0.1-0.3l-0.2-0.7c0-0.2 0-0.4 0-0.5c-0.1-0.1-0.1-0.3-0.1-0.4l-0.1-0.7c0-0.1 0-0.3 0-0.5l-0.1-1.1c0-0.1 0-0.2 0-0.4h-1.2l-0.1 25.6l.1 .1c.2 .3 .5 .5 .7 .7c.3 .3 .7 .7 1 1l.5 .4c.2 .2 .5 .4 .7 .7c.3 .3 .7 .5 1 .8l.6 .5c.3 .2 .5 .4 .8 .6c.4 .4 .8 .7 1.2 1l.6 .4c.2 .2 .5 .4 .7 .5c.5 .4 1 .7 1.5 1l.6 .4c.2 .2 .4 .3 .6 .5c1 .6 1.9 1.1 2.9 1.7c15.3 8.9 35.4 13.3 55.5 13.3c20.1 0 40.2-4.4 55.4-13.3l159.4-92.6c1-0.6 1.9-1.2 2.8-1.8c.2-0.1 .4-0.2 .6-0.3l.4-0.3c.6-0.4 1.1-0.8 1.7-1.2c.3-0.2 .5-0.3 .7-0.5l.6-0.4c.4-0.3 .8-0.7 1.2-1c.3-0.2 .5-0.4 .8-0.6l.5-0.4c.4-0.3 .7-0.6 1.1-0.9c.2-0.3 .5-0.5 .7-0.7l.6-0.5c0-0.1 .1-0.1 .2-0.2Z" fill="#9297e9" transform="translate(-725.8,-146.1)"/><path data-name="Path 11043" d="M726 311.3c.1 .1 .2 .2 .4 .4c.3 .3 .6 .6 1 .9l.5 .5c.2 .2 .4 .4 .7 .6c.3 .3 .7 .6 1 .9l.6 .5c.2 .2 .5 .4 .8 .6c.4 .3 .8 .6 1.2 .9l.6 .5c.2 .1 .5 .3 .7 .5c.5 .4 1 .7 1.6 1l.4 .4c.3 .1 .5 .3 .7 .4c.9 .6 1.9 1.2 2.9 1.8c15.3 8.8 35.4 13.3 55.5 13.3c20.1 0 40.2-4.5 55.4-13.3l159.4-92.7c1-0.5 1.9-1.1 2.8-1.7c.2-0.1 .4-0.2 .6-0.4l.4-0.2c.6-0.4 1.1-0.8 1.7-1.2c.3-0.2 .5-0.4 .7-0.5l.6-0.5c.4-0.3 .8-0.6 1.2-0.9c.3-0.2 .5-0.4 .8-0.6l.5-0.5c.4-0.3 .7-0.6 1.1-0.9c.2-0.2 .5-0.4 .7-0.6l.6-0.6c.2-0.2 .4-0.4 .6-0.6l.1-25.6h-0.6v.7c0 .2-0.1 .3-0.1 .5l-0.1 1c0 .2-0.1 .4-0.1 .5l-0.2 1.1c-0.1 .2-0.1 .3-0.2 .5l-0.2 .7c0 .1 0 .2-0.1 .4c0 .1-0.1 .3-0.2 .5l-0.2 .6c-0.1 .2-0.1 .3-0.2 .4c0 .2-0.1 .3-0.2 .5l-0.3 .7c-0.1 .1-0.1 .3-0.2 .4c-0.1 .2-0.2 .3-0.3 .5l-0.3 .7c-0.1 .1-0.2 .2-0.3 .4c-0.1 .1-0.2 .3-0.3 .5l-0.4 .7c-0.1 .1-0.2 .2-0.3 .3c-0.1 .2-0.2 .4-0.3 .5l-0.6 .7c-0.1 .2-0.1 .3-0.2 .4c-0.2 .2-0.3 .4-0.5 .6l-0.6 .6c-0.1 .2-0.2 .3-0.3 .4c-0.1 .2-0.3 .4-0.5 .6l-0.6 .6c-0.1 .1-0.2 .2-0.4 .4c-0.2 .1-0.3 .3-0.5 .5l-0.7 .6c-0.2 .2-0.3 .3-0.4 .4c-0.3 .2-0.5 .4-0.8 .6l-1.1 1c-0.2 .2-0.5 .4-0.8 .6l-1.2 .9c-0.4 .3-0.9 .6-1.3 .9l-0.8 .5c-0.8 .5-1.6 1-2.4 1.5l-159.4 92.6c-26.5 15.4-71.4 15.4-98.2 0c-0.8-0.5-1.6-1-2.3-1.5l-1-0.7c-0.5-0.2-0.9-0.5-1.2-0.8l-1.2-0.8c-0.3-0.2-0.6-0.5-0.9-0.7c-0.1-0.1-0.3-0.2-0.4-0.3l-0.7-0.6c-0.3-0.2-0.5-0.4-0.7-0.6l-1.1-1c-0.2-0.2-0.4-0.4-0.6-0.6l-1-1c-0.2-0.2-0.4-0.4-0.6-0.6c-0.1-0.1-0.2-0.2-0.3-0.4l-0.6-0.6c-0.1-0.2-0.3-0.4-0.4-0.6c-0.1-0.1-0.2-0.2-0.3-0.4l-0.5-0.6c-0.2-0.2-0.3-0.4-0.4-0.6c-0.1-0.1-0.2-0.2-0.3-0.4l-0.4-0.7c-0.1-0.1-0.3-0.3-0.4-0.5c0-0.1-0.1-0.2-0.2-0.4l-0.4-0.6c-0.1-0.2-0.2-0.4-0.2-0.6c-0.1-0.1-0.2-0.2-0.2-0.3l-0.4-0.7c0-0.2-0.1-0.4-0.2-0.5c0-0.2-0.1-0.3-0.1-0.4l-0.3-0.8c-0.1-0.1-0.1-0.3-0.2-0.4c0-0.1-0.1-0.3-0.1-0.4l-0.2-0.7c0-0.2-0.1-0.3-0.1-0.5c-0.1-0.1-0.1-0.2-0.1-0.4l-0.2-0.7c0-0.1 0-0.3-0.1-0.4c0-0.2 0-0.3 0-0.4l-0.1-0.7c0-0.2 0-0.3-0.1-0.5v-1.1c0-0.1 0-0.3 0-0.4h-0.8Z" fill="#9297e9" transform="translate(-725.6,-193.7)"/><path data-name="Path 11044" d="M1021.3 230.2c0 .2 0 .4 0 .5l-0.2 1.1c0 .1 0 .3-0.1 .4l-0.2 1.1c0 .2-0.1 .4-0.1 .5l-0.2 .7c-0.1 .1-0.1 .2-0.1 .4c-0.1 .1-0.2 .3-0.2 .5l-0.3 .6c0 .2-0.1 .3-0.1 .4c-0.1 .2-0.2 .3-0.2 .5l-0.4 .7c0 .1-0.1 .3-0.1 .4c-0.1 .2-0.2 .3-0.3 .5l-0.4 .7c-0.1 .1-0.1 .2-0.2 .4c-0.1 .2-0.2 .3-0.3 .5l-0.5 .7c-0.1 .1-0.1 .2-0.2 .4c-0.1 .1-0.3 .3-0.4 .5l-0.5 .7c-0.1 .1-0.2 .2-0.3 .3c-0.1 .2-0.3 .4-0.4 .6l-0.6 .7c-0.1 .1-0.2 .2-0.3 .3c-0.2 .2-0.4 .4-0.6 .6l-0.6 .6c-0.1 .1-0.2 .3-0.3 .4c-0.2 .2-0.4 .4-0.6 .5l-0.7 .7c-0.1 .1-0.3 .2-0.4 .4c-0.2 .2-0.5 .3-0.7 .5l-1.1 1c-0.3 .2-0.6 .4-0.9 .6l-1.1 .9c-0.5 .3-0.9 .6-1.4 .9l-0.8 .6c-0.8 .4-1.5 .9-2.4 1.4l-159.3 92.6c-26.5 15.4-71.5 15.4-98.2 0c-0.8-0.5-1.6-1-2.4-1.5l-1-0.6c-0.4-0.3-0.8-0.6-1.2-0.8l-1.2-0.9c-0.3-0.2-0.6-0.4-0.8-0.7c-0.2-0.1-0.3-0.2-0.5-0.3l-0.7-0.6c-0.2-0.2-0.5-0.4-0.7-0.6l-1-1c-0.3-0.2-0.5-0.4-0.7-0.6l-1-1c-0.2-0.2-0.3-0.4-0.5-0.6c-0.1-0.1-0.2-0.2-0.3-0.3l-0.6-0.7c-0.2-0.2-0.3-0.4-0.5-0.6c-0.1-0.1-0.2-0.2-0.3-0.3l-0.5-0.7c-0.1-0.2-0.3-0.4-0.4-0.6c-0.1-0.1-0.1-0.2-0.2-0.3l-0.5-0.7c-0.1-0.2-0.2-0.4-0.3-0.5c-0.1-0.2-0.2-0.3-0.2-0.4l-0.4-0.7c-0.1-0.2-0.2-0.4-0.3-0.5c-0.1-0.2-0.1-0.3-0.2-0.4l-0.3-0.7c-0.1-0.2-0.2-0.4-0.2-0.5c-0.1-0.2-0.1-0.3-0.2-0.4l-0.3-0.7c0-0.2-0.1-0.3-0.1-0.5c-0.1-0.1-0.1-0.3-0.2-0.4l-0.2-0.7c0-0.2-0.1-0.3-0.1-0.5c0-0.1 0-0.2-0.1-0.3l-0.1-0.8c-0.1-0.1-0.1-0.3-0.1-0.4c0-0.1-0.1-0.3-0.1-0.4l-0.1-0.7c0-0.2 0-0.3 0-0.5l-0.1-1.1c0-0.1 0-0.3 0-0.4h-1l-0.1 25.7c.2 .2 .4 .5 .6 .7c.3 .3 .7 .6 1 .9l.5 .5c.2 .2 .5 .4 .7 .7c.4 .2 .7 .5 1.1 .8l.5 .5c.3 .2 .5 .4 .8 .6c.4 .3 .8 .6 1.2 .9l.6 .5c.3 .2 .5 .3 .7 .5c.6 .4 1.1 .7 1.6 1.1l.5 .3c.2 .2 .4 .3 .7 .4c.9 .6 1.8 1.2 2.8 1.8c15.4 8.8 35.5 13.3 55.6 13.3c20 0 40.1-4.5 55.4-13.3l159.3-92.6c1-0.6 2-1.2 2.9-1.8c.2-0.1 .4-0.2 .5-0.4l.5-0.2c.5-0.4 1.1-0.8 1.7-1.2c.2-0.2 .4-0.3 .7-0.5l.5-0.4c.4-0.3 .9-0.7 1.3-1c.2-0.2 .5-0.4 .7-0.6l.6-0.5c.3-0.2 .7-0.5 1-0.8c.3-0.3 .5-0.5 .7-0.7l.6-0.5c.1-0.1 .2-0.2 .3-0.4l.2-25.9h-0.4Z" fill="#9297e9" transform="translate(-725.7,-162)"/><path data-name="Path 11045" d="M1021.2 212.3c0 .2 0 .3 0 .5l-0.1 1.1c-0.1 .1-0.1 .3-0.1 .4l-0.3 1.1c0 .2-0.1 .4-0.1 .5l-0.2 .7c0 .1-0.1 .2-0.1 .4c-0.1 .1-0.1 .3-0.2 .5l-0.2 .6c-0.1 .2-0.1 .3-0.2 .4c0 .2-0.1 .3-0.2 .5l-0.3 .7c-0.1 .1-0.1 .3-0.2 .4c-0.1 .2-0.2 .3-0.3 .5l-0.4 .7c0 .1-0.1 .2-0.2 .4c-0.1 .1-0.2 .3-0.3 .5l-0.5 .7c0 .1-0.1 .2-0.2 .3c-0.1 .2-0.2 .4-0.4 .6l-0.5 .6c-0.1 .2-0.2 .3-0.3 .4c-0.1 .2-0.3 .4-0.4 .6l-0.6 .6c-0.1 .2-0.2 .3-0.3 .4c-0.2 .2-0.4 .4-0.5 .6l-0.6 .6c-0.1 .1-0.3 .2-0.4 .4c-0.2 .1-0.4 .3-0.6 .5l-0.7 .7c-0.1 .1-0.2 .2-0.4 .3c-0.2 .2-0.4 .4-0.7 .6l-1.1 1c-0.3 .2-0.6 .4-0.9 .6l-1.1 .9c-0.4 .3-0.9 .6-1.3 .9l-0.9 .5c-0.7 .5-1.5 1-2.3 1.5l-159.4 92.6c-26.5 15.4-71.5 15.4-98.2 0c-0.8-0.5-1.6-1-2.4-1.5l-1-0.7c-0.4-0.2-0.8-0.5-1.2-0.8l-1.1-0.8c-0.3-0.2-0.6-0.5-0.9-0.7l-1.2-0.9c-0.2-0.2-0.4-0.4-0.7-0.6c-0.1-0.1-0.2-0.3-0.4-0.4l-0.6-0.6c-0.2-0.2-0.5-0.4-0.7-0.6l-0.9-1c-0.2-0.2-0.4-0.4-0.6-0.6c-0.1-0.1-0.2-0.2-0.3-0.4l-0.6-0.6c-0.1-0.2-0.3-0.4-0.5-0.6c-0.1-0.1-0.1-0.2-0.2-0.4l-0.5-0.6c-0.2-0.2-0.3-0.4-0.4-0.6c-0.1-0.1-0.2-0.2-0.3-0.4l-0.5-0.7c-0.1-0.1-0.2-0.3-0.3-0.5c-0.1-0.1-0.1-0.2-0.2-0.4l-0.4-0.7c-0.1-0.1-0.2-0.3-0.3-0.5c0-0.1-0.1-0.2-0.1-0.3l-0.4-0.7c-0.1-0.2-0.1-0.4-0.2-0.6c-0.1-0.1-0.1-0.2-0.2-0.3l-0.2-0.8c-0.1-0.1-0.2-0.3-0.2-0.4c0-0.1-0.1-0.3-0.1-0.4l-0.2-0.7c-0.1-0.2-0.1-0.3-0.2-0.5c0-0.1 0-0.2 0-0.4l-0.2-0.7c0-0.1-0.1-0.3-0.1-0.4c0-0.2 0-0.3 0-0.4l-0.1-0.7c0-0.2-0.1-0.3-0.1-0.5v-1.1c0-0.1 0-0.3 0-0.4h-0.9l-0.2 25.8c.2 .2 .4 .4 .6 .6c.3 .3 .6 .6 .9 .9l.5 .5c.3 .2 .5 .4 .8 .6c.3 .3 .7 .6 1 .9l.6 .5c.2 .2 .5 .4 .7 .6c.4 .3 .9 .6 1.3 .9l.6 .5c.2 .1 .4 .3 .7 .5c.5 .3 1 .7 1.5 1l.5 .4c.3 .1 .5 .3 .7 .4c.9 .6 1.9 1.2 2.9 1.8c15.3 8.8 35.4 13.3 55.5 13.3c20.1 0 40.2-4.5 55.4-13.3l159.4-92.6c.9-0.6 1.9-1.2 2.8-1.8c.2-0.1 .4-0.2 .6-0.4l.4-0.3c.6-0.3 1.1-0.7 1.7-1.1c.2-0.2 .5-0.4 .7-0.5l.6-0.5c.4-0.3 .8-0.6 1.2-0.9c.3-0.2 .5-0.4 .7-0.6l.6-0.5c.3-0.3 .7-0.6 1.1-0.9c.2-0.2 .4-0.4 .7-0.6l.5-0.6c.2-0.1 .4-0.3 .5-0.4l.1-25.8h-0.4Z" fill="#9297e9" transform="translate(-725.6,-177.8)"/></g><g data-name="Group 6331" transform="translate(51.2,59.4)"><g data-name="Group 6327" transform="translate(37.2,21.5)"><path data-name="Path 11046" d="M847 205.3v32.2l-74.4 43l.1-32.2Z" fill="url(#Gradient-1)" transform="translate(-772.6,-205.3)"/></g><g data-name="Group 6330"><g data-name="Group 6328"><path data-name="Path 11047" d="M864.5 215.4l-74.4 43l-37.2-21.5l74.4-43Z" fill="#212a64" transform="translate(-752.9,-193.9)"/></g><g data-name="Group 6329" transform="translate(0,42.9)"><path data-name="Path 11048" d="M790.1 238.2v32.2l-37.2-21.5v-32.2Z" fill="#323f94" transform="translate(-752.9,-216.7)"/></g></g></g><g data-name="Group 6332" transform="translate(150.7,203.5)"><path data-name="Path 11049" d="M825.6 310.6c-11 6.4-20 21.9-19.9 34.6l.1 26.6l104.9-60.6l-0.1-26.6c0-12.7-9-17.8-20.1-11.5Z" fill="#5861d6" transform="translate(-805.7,-270.4)"/></g></g></g><g data-name="Group 6339" transform="translate(51.2,0)"><path data-name="Path 11052" d="M827.3 97.8l-74.4 42.9v181.3l37.2 21.5l74.4-43v-181.3Z" opacity=".7" fill="url(#Gradient-2)" transform="translate(-752.9,-97.8)"/><g data-name="Group 6338" transform="translate(35.7,1.8)"><path id="Line_326" data-name="Line 326" stroke-dasharray="0 7" stroke="#fff" stroke-linecap="round" stroke-linejoin="round" stroke-width="1.5" fill="none" d="M0 0v202.1" transform="translate(20,0)"/><path id="Line_327" data-name="Line 327" stroke-dasharray="0 7" stroke="#fff" stroke-linecap="round" stroke-linejoin="round" stroke-width="1.5" fill="none" d="M0 0v138.8" transform="translate(0,72.7)"/><path id="Line_328" data-name="Line 328" stroke-dasharray="0 7" stroke="#fff" stroke-linecap="round" stroke-linejoin="round" stroke-width="1.5" fill="none" d="M0 0v106.9" transform="translate(36.7,88.5)"/></g></g></g><g data-name="Group 6348" transform="translate(611.2,16.9)"><g data-name="Group 6345" transform="translate(0,145.9)"><g data-name="Group 6341"><path data-name="Path 11053" d="M1071.3 229.8l-75.4-43.6v142l75.4 43.5Z" fill="url(#Gradient-3)" transform="translate(-995.9,-139.4)"/><path data-name="Path 11054" d="M995.9 208.2l81.1-46.8l75.4 43.5l-81.1 46.8Z" fill="#dc4fa2" transform="translate(-995.9,-161.4)"/><path data-name="Path 11055" d="M1000.1 205.9l72.9-42.1l67.9 39.2l-73 42.1Z" fill="#b12f7c" transform="translate(-992.2,-159.2)"/><path data-name="Path 11056" d="M1002.7 206.1l62.9 36.2l67.9-39.2l-62.8-36.2Z" fill="#921e63" transform="translate(-989.8,-156.5)"/><path data-name="Path 11057" d="M1117 184.5v142l-81.1 46.8v-142Z" fill="url(#Gradient-4)" transform="translate(-960.5,-140.9)"/></g><g data-name="Group 6343" transform="translate(75.4,60.2)"><path data-name="Path 11062" d="M1035.9 256.8l81.1-46.8v-6.9l-81.1 46.9Z" fill="#ffc9e1" transform="translate(-1035.9,-184.6)"/><path data-name="Path 11063" d="M1117 213l-81.1 46.8v6.9l81.1-46.8Z" fill="#ffc9e1" transform="translate(-1035.9,-175.9)"/><path data-name="Path 11064" d="M1117 222.8l-81.1 46.9v6.8l81.1-46.8Z" fill="#ffc9e1" transform="translate(-1035.9,-167.2)"/><path data-name="Path 11065" d="M1117 239.5v-6.8l-81.1 46.8v6.9Z" fill="#ffc9e1" transform="translate(-1035.9,-158.5)"/><path data-name="Path 11066" d="M1035.9 240.1v6.9l81.1-46.8v-6.9Z" fill="#ffc9e1" transform="translate(-1035.9,-193.3)"/></g><g data-name="Group 6344" transform="translate(0,63.5)"><path data-name="Path 11067" d="M1071.3 265.2v-6.9l-75.4-43.6v6.9Z" fill="#ffc9e1" transform="translate(-995.9,-177.6)"/><path data-name="Path 11068" d="M1071.3 248.4l-75.4-43.5v6.9l75.4 43.5Z" fill="#ffc9e1" transform="translate(-995.9,-186.3)"/><path data-name="Path 11069" d="M995.9 201.9l75.4 43.6v-6.9l-75.4-43.6Z" fill="#ffc9e1" transform="translate(-995.9,-195)"/><path data-name="Path 11070" d="M1071.3 284.8v-6.8l-75.4-43.6v6.9Z" fill="#ffc9e1" transform="translate(-995.9,-160.2)"/><path data-name="Path 11071" d="M1071.3 275v-6.9l-75.4-43.5v6.8Z" fill="#ffc9e1" transform="translate(-995.9,-168.9)"/></g></g><g data-name="Group 6347" transform="translate(12.9,-8)"><path data-name="Path 11072" d="M1070.7 92l-68 39.3v149l62.9 36.3l67.9-39.2v-149.1Z" opacity=".39" fill="url(#Gradient-5)" transform="translate(-1002.7,-76.8)"/><g data-name="Group 6346" transform="translate(44.5,0)"><path id="Line_329" data-name="Line 329" stroke-dasharray="0 7" stroke="#fff" stroke-linecap="round" stroke-linejoin="round" stroke-width="1.5" fill="none" d="M0 0v202.1" transform="translate(24.7,0)"/><path id="Line_330" data-name="Line 330" stroke-dasharray="0 7" stroke="#fff" stroke-linecap="round" stroke-linejoin="round" stroke-width="1.5" fill="none" d="M0 0v138.8" transform="translate(0,55.4)"/><path id="Line_331" data-name="Line 331" stroke-dasharray="0 7" stroke="#fff" stroke-linecap="round" stroke-linejoin="round" stroke-width="1.5" fill="none" d="M0 0v138.8" transform="translate(45,65.3)"/></g></g></g><g data-name="Group 6358" transform="translate(369.4,44.8)"><g data-name="Group 6355" transform="translate(0,186.6)"><g data-name="Group 6349"><path data-name="Path 11073" d="M916.9 320.5l99.7-57.5l92.8 53.5l-99.8 57.6Z" fill="url(#Gradient-6)" transform="translate(-824.1,-140)"/><path data-name="Path 11074" d="M867.7 255.3l99.7-57.6l92.8 53.6l-99.8 57.6Z" fill="#dc4fa2" transform="translate(-867.7,-197.7)"/><path data-name="Path 11075" d="M872.8 252.5l89.7-51.8l83.5 48.2l-89.8 51.8Z" fill="#b12f7c" transform="translate(-863.1,-195.1)"/><path data-name="Path 11076" d="M876.1 252.7l77.2 44.6l83.5-48.2l-77.2-44.6Z" fill="#921e63" transform="translate(-860.2,-191.7)"/><path data-name="Path 11077" d="M966.1 349v90.4l99.7-57.6v-90.4Z" fill="url(#Gradient-4)" transform="translate(-780.5,-114.8)"/><path data-name="Path 11078" d="M1016.6 226.1v69.5l-99.7 57.5v-69.4Z" fill="url(#Gradient-3)" transform="translate(-824.1,-172.6)"/><path data-name="Path 11079" d="M960.4 281.8l-92.7-53.5v69.4l92.7 53.6Zm-92.7 15.9v89l185.5 108.6v-90.5Z" fill="url(#Gradient-3)" transform="translate(-867.7,-170.7)"/></g><g data-name="Group 6350" transform="translate(115.4,98)"><path data-name="Path 11080" d="M970.3 284.7l-24.1 13.9v-35l24.1-13.9Z" fill="#ffc9e1" transform="translate(-913.6,-249.7)"/><path data-name="Path 11081" d="M953 294.6l-24.1 13.9v-34.9l24.1-13.9Z" fill="#ffc9e1" transform="translate(-928.9,-240.9)"/></g><path data-name="Path 11087" d="M916.6 382.4l-37.1-21.5v-72.4c0-13.7 8.3-20 18.5-14.1c10.3 5.9 18.6 21.8 18.6 35.5Z" fill="#ffc9e1" transform="translate(-857.2,-131.8)"/><g data-name="Group 6352" transform="translate(81.1,200.8)"><path data-name="Path 11088" d="M919.2 332.1l-8.5-4.9v-23l8.5 4.9Z" fill="#ffc9e1" transform="translate(-910.7,-304.2)"/><path data-name="Path 11089" d="M932.9 340l-8.5-4.9v-23l8.5 4.9Z" fill="#ffc9e1" transform="translate(-898.5,-297.2)"/><path data-name="Path 11090" d="M946.5 347.9l-8.4-4.9v-22.9l8.4 4.9Z" fill="#ffc9e1" transform="translate(-886.4,-290.2)"/><path data-name="Path 11091" d="M960.2 355.8l-8.4-4.9v-22.9l8.4 4.9Z" fill="#ffc9e1" transform="translate(-874.3,-283.2)"/></g><g data-name="Group 6353" transform="translate(92.8,102.9)"><path data-name="Path 11092" d="M1062.5 305.9l-92.7-53.6v20.1l92.7 53.6Z" fill="#8e357d" opacity=".4" transform="translate(-870,-252.3)"/><path data-name="Path 11093" d="M1065.8 280.7v20.1l-99.7 57.6v-20.1Z" fill="#dc4fa2" opacity=".4" transform="translate(-873.3,-227.2)"/><path data-name="Path 11094" d="M1009.6 336.4l-92.7-53.6v20.1l92.7 53.6Z" fill="#8e357d" opacity=".4" transform="translate(-916.9,-225.3)"/></g></g></g><g data-name="Group 6362" transform="translate(580.7,448.2)"><g data-name="Group 6359" transform="translate(83.2,0)"><path data-name="Path 11098" d="M1049.5 338.2h-0.3h-0.5h-0.2c-0.2 0-0.3 0-0.5 0h-0.5h-0.1c-0.2 0-0.4 0-0.5 0l-0.6-0.1h-0.2c0 0-0.1 0-0.1 0l-0.1 17.2c0 0 0 0 0 0c0 0 0 0 0 0c0 0 .1 .1 .1 .1c0 0 0 0 0 0c0 0 0 0 0 0c0 0 0 0 0 0c0 0 0 0 0 0c0 0 0 0 0 0c0 0 0 0 0 0c0 .1 0 .1 0 .1c0 0 .1 0 .1 0c0 0 0 0 0 0c0 .1 0 .1 .1 .1c.2 .1 .4 .1 .7 .2c.2 0 .5 .1 .7 .1c.3 0 .5 0 .8 0c.2 0 .5 0 .7 0c0-0.1 .1-0.1 .1-0.1c.1 0 .1 0 .1 0c.1 0 .1 0 .2 0c0 0 0 0 .1 0c0 0 0-0.1 .1-0.1c0 0 0 0 .1 0c0 0 0 0 0 0c0 0 .1 0 .1 0c0 0 0-0.1 .1-0.1c0 0 0 0 0 0c0 0 .1 0 .1 0c0 0 0 0 0 0c.1-0.1 .1-0.1 .1-0.1c0 0 0 0 0 0c0 0 .1 0 .1-0.1c0 0 0 0 0 0c0 0 0 0 0 0c0 0 0 0 0 0c0 0 0-0.1 0-0.1c0 0 0 0 0 0l.1-17.2c-0.2 0-0.3 0-0.4 .1Z" fill="#2a3b7f" transform="translate(-1029.7,-269.7)"/><path data-name="Path 11099" d="M1069.6 332.6c0-0.1 0-0.2 0-0.3c0-0.1 0-0.1 0-0.1v-0.2c0-0.1-0.1-0.3-0.1-0.4c0-0.4 0-0.8 0-1.2l-0.2-2.4v-0.1c0-0.5-0.1-1.2-0.2-1.8v-0.2v-0.1c-0.2-1.2-0.3-2.5-0.5-3.5c-0.1-0.7-0.2-1.3-0.3-1.9c0-0.4-0.1-0.7-0.2-1.1v-0.3l-0.1-0.6c-0.2-0.7-0.3-1.3-0.4-1.9c0-0.2 0-0.3-0.1-0.4v-0.2v-0.1v-0.2c-0.1-0.2-0.1-0.4-0.2-0.6v-0.2c-0.2-0.7-0.3-1.4-0.4-2c-0.1-0.2-0.1-0.3-0.1-0.5l-0.7-3l-0.1-0.2c0-0.1 0-0.2-0.1-0.3v-0.2l-0.1-0.2c0-0.1 0-0.2 0-0.2c-0.2-0.7-0.4-1.5-0.6-2.1v-0.3v-0.1l-0.1-0.1v-0.1l-0.1-0.3l-0.7-2.4v-0.1v-0.1c-0.4-1.1-0.7-2.3-1.1-3.5h-0.1v-0.2c-0.4-1.1-0.7-2-1.1-2.9v-0.1c0 0 0-0.1 0-0.1c-0.5-1.1-0.8-2-1.2-2.8v-0.1c0-0.1-0.1-0.1-0.1-0.2c-0.3-0.8-0.8-1.7-1.1-2.4c-0.1-0.2-0.2-0.4-0.3-0.6c-0.1-0.1-0.1-0.1-0.1-0.2l-0.3-0.5l-0.1-0.3c-0.1-0.1-0.2-0.3-0.3-0.4l-0.2-0.4c0 0-0.1-0.1-0.1-0.2c-0.1 0-0.1-0.1-0.2-0.2c-0.5-0.8-0.8-1.3-1.1-1.7c-0.1-0.1-0.2-0.3-0.3-0.4c-0.1-0.1-0.2-0.2-0.3-0.4l-0.1-0.1c-0.1-0.2-0.2-0.3-0.3-0.4c-0.1-0.1-0.2-0.2-0.3-0.3c-0.2-0.1-0.4-0.3-0.6-0.5c-0.1-0.1-0.2-0.2-0.4-0.3c-0.1-0.1-0.2-0.2-0.3-0.3c-0.3-0.2-0.5-0.3-0.7-0.5c-0.1 0-0.1 0-0.2-0.1c0 0 .1 .1 .1 .1c-0.1-0.1-0.2-0.1-0.3-0.2c0 0-0.1 0-0.1 0c-0.1-0.1-0.1-0.1-0.1-0.1c-0.1 0-0.1 0-0.2 0c0-0.1-0.1-0.1-0.2-0.1c0 0-0.1-0.1-0.1-0.1c-0.2 0-0.3 0-0.4 0c0-0.1 0-0.1-0.1-0.1c0 0 0 0-0.1 0c0 0-0.1 0-0.1 0c0 0-0.1 0-0.1 0h-0.1c-0.1-0.1-0.1-0.1-0.1-0.1c-0.1 0-0.1 0-0.2 0c0 0-0.1 0-0.1 0c-0.1 0-0.1 0-0.1 0c-0.1 0-0.1 0-0.2 0c0 0 0 0-0.1 0c0 .1-0.1 .1-0.1 .1c0 0-0.1 0-0.1 0c-0.1 0-0.2 0-0.2 0c-0.1 0-0.1 0-0.2 .1c-0.1 0-0.2 0-0.3 0c0 .1-0.1 .1-0.2 .1c-0.1 0-0.1 .1-0.2 .1h-0.1c0 .1-0.1 .1-0.1 .1c0 0-0.1 0-0.1 0c-0.1 .1-0.2 .1-0.3 .1l-0.2 .2l-0.2 .1l-0.3 .2c-0.2 .1-0.3 .3-0.4 .4c-0.2 0-0.3 .1-0.4 .2l-0.1 .1c-0.1 .1-0.2 .3-0.4 .4c0 .1-0.1 .2-0.2 .2v.1l-0.2 .1v.1c0 0-0.1 0-0.1 .1c0 0-0.1 .1-0.1 .1l-0.1 .1l-0.1 .1l-0.4 .6h-0.1l-0.1 .2c-0.1 0-0.1 .1-0.1 .2c-0.5 .6-1 1.4-1.4 2l-1.1 2.1c.2-0.4 .4-0.7 .6-1.2c-0.3 .5-0.5 1-0.7 1.4l-0.1 .1c-0.4 .8-0.8 1.8-1.2 2.6l-1.2 2.9c-0.3 .9-0.8 2.2-1.1 3.1l-1 3.2v.1h-0.1v.1c-0.3 1-0.6 2.3-0.9 3.2l-0.9 3.3c.1-0.3 .2-0.6 .3-0.9c-0.1 .1-0.1 .3-0.1 .4c-0.1 .2-0.2 .4-0.2 .6v.1v.1c-0.3 1-0.6 2.3-0.8 3.2l-0.7 3.4v.1l-0.1 .1c-0.1 .6-0.2 1.1-0.3 1.6v.3l-0.2 .9v.2l-0.1 .3l-0.5 2.9v.1c-0.1 .6-0.1 1.1-0.2 1.7c-0.1 .3-0.1 .6-0.2 .9c0 .2 0 .3 0 .5c0 .1 0 .2 0 .3c-0.1 .2-0.1 .5-0.1 .7c0-0.2 0-0.4 0-0.6l-0.2 1.9c0 .1 0 .2 0 .3l-0.1 .7c0 .2 0 .4 0 .6c0 .3 0 .5-0.1 .8v.2c0 .1 0 .2 0 .3c0 .6 0 1.3 0 1.9c0 .5 0 1.2 0 1.8l.2 1.5v.1c0 0 0 .1 0 .1c0 .5 .1 1 .2 1.5v.1h.1l.3 1.4c.1 .2 .1 .4 .2 .7c.1 .3 .2 .6 .3 .8l.6 1.2c.2 .4 .4 .9 .7 1.3v.1l.1 .1l.5 .8h.1v.1c.1 .1 .2 .2 .2 .2l.1 .2l.1 .1c.1 .1 .2 .3 .4 .4c0 .1 .1 .1 .1 .2h.1l.1 .1c0 0 0 .1 .1 .1l.3 .3l.4 .4v.1h.1c.1 .1 .3 .3 .5 .4c.2 .1 .3 .2 .4 .3c.1 .1 .2 .2 .4 .3c.1 .1 .2 .1 .3 .2l.6 .4l.2 .1c.4 .2 .8 .4 1.2 .6h.1l.3 .2l.5 .2h.1c.2 .1 .4 .2 .6 .2l.2 .1l.2 .1l.7 .2l.2 .1c.2 0 .4 .1 .6 .1c.1 .1 .2 .1 .3 .1c.2 0 .4 .1 .6 .1c.2 .1 .4 .1 .6 .1l.1 .1h.5l.3 .1h.5l.5 .1h.1c.1 0 .3 0 .5 .1h.1h.6c.1 0 .4 0 .5 0h.1h.5c.2 0 .3 0 .5 0h.3h.4h.3c.2 0 .3 0 .5 0h.4l.1-0.1c.1 0 .2 0 .3 0h.1h.3l.3-0.1c.1 0 .3 0 .4 0c.1 0 .2 0 .3-0.1c.1 0 .3 0 .5 0c0-0.1 .1-0.1 .2-0.1l.3-0.1h.1h.2h.1c0 0 .1-0.1 .2-0.1c.1 0 .3 0 .4-0.1h.1h.2v-0.1h.2c.3-0.1 .5-0.1 .7-0.2h.1h.1c.6-0.2 1.1-0.5 1.7-0.7c.2-0.1 .5-0.2 .7-0.3c.1-0.1 .1-0.1 .2-0.1c.1-0.1 .2-0.1 .3-0.2c.1 0 .2-0.1 .3-0.2h.1c.1 0 .1-0.1 .1-0.1c.3-0.1 .5-0.3 .7-0.4l.1-0.1c.4-0.2 .7-0.5 1-0.7c.1-0.1 .2-0.2 .3-0.2l.6-0.5c0 0 0-0.1 .1-0.1v-0.1c.3-0.3 .7-0.7 1.1-1v-0.1l.7-0.9v-0.1c.3-0.3 .6-0.8 .8-1.2l.6-1.1c0 0 0 0 0-0.1c.2-0.4 .4-0.9 .5-1.3l.1-0.1l.3-1.1c0 0 0 .1 0 .2c0-0.2 0-0.3 .1-0.5c0 0 0-0.1 0-0.2c.1-0.1 .1-0.3 .1-0.4c0-0.1 .1-0.2 .1-0.3v-0.2v-0.1c.1-0.1 .1-0.2 .1-0.3v-0.1v-0.1l.1-0.2c0-0.1 0-0.1 0-0.2c0 0 0 .1 0 .1l.1-0.7c0 .2-0.1 .3-0.1 .4c0-0.1 0-0.2 .1-0.3c0 0 0-0.1 0-0.2c0-0.1 0-0.2 0-0.3c0 0 0 0 0 0v-0.2c.1-0.5 .1-0.9 .1-1.4c0-0.1 0-0.2 0-0.3c0 .1 0 .2 0 .3v.2v-0.2v-0.1l.1-1Zm-22.9-48.3c0 0 .1-0.1 .1-0.1Z" fill="url(#Gradient-7)" transform="translate(-1032.6,-281.9)"/></g><g data-name="Group 6360" transform="translate(43.5,23)"><path data-name="Path 11100" d="M1016.9 357.1c-0.1 0-0.2 0-0.3 0h-0.4h-0.3h-0.5h-0.5h-0.1c-0.1 0-0.3 0-0.5 0h-0.6l-0.1-0.1c-0.1 0-0.1 0-0.2 0v17.2c0 0 0 0 0 0c0 0 0 0 0 .1c0 0 0 0 0 0c0 0 0 0 0 0c0 0 0 0 0 0c0 0 0 0 0 0c0 0 0 0 0 0c0 0 0 0 0 0c0 .1 0 .1 0 .1c0 0 .1 0 .1 0c0 0 0 0 0 0c0 0 0 0 .1 .1c0 0 0 0 0 0c.2 .1 .5 .1 .7 .2c.3 .1 .5 .1 .7 .1c.3 0 .5 0 .8 0c.2 0 .5 0 .7 0c.1 0 .1 0 .2-0.1c0 0 0 0 .1 0c0 0 .1 0 .1 0c0 0 .1 0 .1 0c0 0 .1 0 .1 0c0-0.1 .1-0.1 .1-0.1c0 0 0 0 .1 0c0 0 0 0 0 0c.1 0 .1 0 .1 0l.1-0.1c0 0 0 0 0 0c0 0 .1 0 .1 0c0 0 0-0.1 0-0.1c0 0 .1 0 .1 0c0 0 0 0 0 0c0 0 0 0 0 0c0 0 0 0 0 0c0 0 0 0 0 0c0 0 0-0.1 0-0.1c0 0 0 0 0 0c0 0 0 0 .1 0c0 0 0 0 0-0.1c0 0 0 0 0 0v-17.2c-0.1 0-0.3 .1-0.4 .1c-0.2 0-0.3 0-0.5 0Z" fill="#2a3b7f" transform="translate(-997.2,-288.6)"/><path data-name="Path 11101" d="M1037 351.5c0-0.1 0-0.2 0-0.3c0 0 0-0.1 0-0.1v-0.1c0-0.2 0-0.4 0-0.5c0-0.4-0.1-0.8-0.1-1.2l-0.1-2.4v-0.1c-0.1-0.5-0.2-1.1-0.3-1.8c0-0.1 0-0.1 0-0.2v-0.1c-0.1-1.2-0.3-2.5-0.4-3.5c-0.1-0.7-0.2-1.3-0.3-1.9c-0.1-0.3-0.2-0.7-0.2-1.1l-0.1-0.3c0-0.2 0-0.4-0.1-0.6c-0.1-0.7-0.2-1.3-0.3-1.9c-0.1-0.1-0.1-0.3-0.1-0.4l-0.1-0.2v-0.1v-0.2c0-0.2-0.1-0.4-0.1-0.6l-0.1-0.2c-0.1-0.7-0.3-1.4-0.4-2c0-0.2-0.1-0.3-0.1-0.5l-0.7-3l-0.1-0.2c0-0.1 0-0.2 0-0.3l-0.1-0.2v-0.2l-0.1-0.2c-0.2-0.7-0.4-1.4-0.5-2.1l-0.1-0.3v-0.1l-0.1-0.1v-0.1l-0.1-0.3l-0.7-2.4v-0.1v-0.1c-0.3-1.1-0.7-2.3-1.1-3.5l-0.1-0.2c-0.4-1.1-0.7-2-1-2.9l-0.1-0.1c0 0 0-0.1 0-0.1c-0.4-1.1-0.8-2-1.1-2.8l-0.1-0.1v-0.2h-0.1c-0.3-0.8-0.7-1.7-1.1-2.4c-0.1-0.2-0.2-0.4-0.3-0.6c0 0 0-0.1-0.1-0.2c-0.1-0.1-0.2-0.3-0.2-0.5h-0.1c0-0.1-0.1-0.2-0.1-0.3c-0.1-0.1-0.2-0.3-0.3-0.4l-0.2-0.4l-0.1-0.1l-0.1-0.3c-0.5-0.8-0.9-1.3-1.1-1.7c-0.1-0.1-0.3-0.3-0.4-0.4c-0.1-0.1-0.2-0.2-0.3-0.3c0-0.1 0-0.1-0.1-0.2c-0.1-0.1-0.2-0.3-0.3-0.4c-0.1-0.1-0.2-0.2-0.3-0.2c-0.2-0.2-0.3-0.4-0.5-0.6c-0.2-0.1-0.3-0.2-0.4-0.3c-0.1-0.1-0.2-0.2-0.4-0.3c-0.2-0.2-0.5-0.3-0.7-0.5c0 0-0.1 0-0.2-0.1c.1 .1 .1 .1 .1 .1c0-0.1-0.1-0.1-0.2-0.2c-0.1 0-0.1 0-0.2 0c0 0-0.1-0.1-0.1-0.1c0 0-0.1 0-0.1 0c-0.1-0.1-0.2-0.1-0.2-0.1c-0.1 0-0.1 0-0.2-0.1c-0.1 0-0.2 0-0.3 0c-0.2-0.1-0.3-0.1-0.5-0.1h-0.1c0 0-0.1 0-0.1-0.1c0 0-0.1 0-0.1 0c-0.1 0-0.1 0-0.2 0c0 0-0.1 0-0.1 0c0 0-0.1 0-0.1 0c-0.1 .1-0.1 .1-0.1 .1c-0.1 0-0.1 0-0.2 0c0 0 0 0-0.1 0c0 0-0.1 0-0.2 0c0 0-0.1 0-0.2 .1c-0.1 0-0.2 0-0.3 0c0 .1-0.1 .1-0.1 .1c-0.1 0-0.2 .1-0.3 .1c0 0 0 0 0 0h-0.1l-0.1 .1h-0.1c-0.1 .1-0.1 .1-0.2 .2l-0.2 .1h-0.1l-0.2 .1c-0.1 .1-0.2 .1-0.2 .2h-0.1c-0.1 .2-0.3 .3-0.4 .4c-0.1 .1-0.2 .2-0.3 .2l-0.2 .2c-0.1 .1-0.2 .2-0.3 .3c-0.1 .1-0.2 .2-0.2 .2l-0.1 .1l-0.1 .1l-0.1 .1l-0.1 .1c0 0-0.1 .1-0.1 .1v.1l-0.1 .1l-0.5 .6l-0.2 .2c0 .1-0.1 .1-0.1 .2c-0.4 .6-1 1.4-1.4 2l-1.1 2.1c.2-0.3 .4-0.7 .6-1.1c-0.2 .4-0.5 .9-0.7 1.3v.1c-0.4 .8-0.9 1.8-1.3 2.6l-1.1 2.9c-0.4 .9-0.8 2.2-1.2 3.1l-1 3.2v.1l-0.1 .1c-0.3 1-0.6 2.3-0.9 3.2l-0.9 3.3c.1-0.3 .2-0.6 .3-0.9l-0.1 .4c-0.1 .2-0.1 .4-0.2 .6v.1v.1c-0.3 1-0.6 2.3-0.8 3.3l-0.7 3.3v.1l-0.1 .1c-0.1 .6-0.2 1.1-0.2 1.6l-0.1 .3l-0.2 .9v.2l-0.1 .3l-0.5 2.9v.1c0 .6-0.1 1.1-0.2 1.7c-0.1 .3-0.1 .6-0.1 .9c-0.1 .2-0.1 .3-0.1 .5c0 .1 0 .2 0 .3c-0.1 .2-0.1 .5-0.1 .8c0-0.2 0-0.4 .1-0.6l-0.3 1.8c0 .1 0 .2 0 .3v.7c-0.1 .2-0.1 .4-0.1 .6c0 .3 0 .5 0 .8l-0.1 .2c0 .1 0 .2 0 .3c0 .6 0 1.3 0 1.9c0 .5 0 1.2 0 1.8l.2 1.5v.1c0 0 0 .1 0 .1c0 .5 .2 1.1 .2 1.5v.1h.1l.3 1.4c.1 .2 .1 .5 .2 .7c.1 .3 .2 .6 .3 .8l.6 1.2c.2 .4 .4 .9 .7 1.3v.1l.1 .1l.5 .8h.1v.1c.1 .1 .2 .2 .2 .3c.1 0 .1 0 .1 .1l.1 .1c.1 .1 .3 .3 .4 .4c0 .1 .1 .1 .2 .2l.1 .1c0 0 0 .1 .1 .1l.3 .3l.4 .4l.1 .1c.2 .1 .4 .3 .6 .4c.1 .1 .2 .2 .3 .3c.1 .1 .3 .2 .4 .3h.1c.1 .1 .1 .2 .2 .2l.6 .4l.2 .1c.4 .2 .9 .4 1.2 .6l.1 .1l.3 .1l.5 .2h.1c.2 .1 .4 .2 .6 .2l.3 .1l.1 .1l.7 .2l.3 .1c.1 0 .3 .1 .5 .1l.4 .1c.1 0 .3 .1 .5 .1c.2 .1 .4 .1 .6 .1l.1 .1h.5l.4 .1l.4 .1h.5h.1c.2 0 .3 0 .5 .1h.1h.6c.2 0 .4 0 .5 0h.1h.5h.5h.3h.4c.1 0 .2 0 .3 0c.2 0 .3 0 .5 0h.4h.1c.1-0.1 .2-0.1 .4-0.1h.3l.3-0.1c.2 0 .3 0 .4 0c.1 0 .2 0 .3-0.1c.2 0 .3 0 .5 0c.1-0.1 .1-0.1 .2-0.1h.3l.1-0.1h.3c.1 0 .1 0 .2-0.1c.2 0 .3 0 .4-0.1h.1c.1 0 .2 0 .2 0l.3-0.1c.2-0.1 .4-0.1 .6-0.2h.1h.1c.6-0.2 1.2-0.5 1.7-0.7c.2-0.1 .5-0.2 .7-0.3c.1-0.1 .2-0.1 .2-0.1c.1-0.1 .2-0.1 .3-0.2c.1 0 .2-0.1 .3-0.1c.1-0.1 .1-0.1 .1-0.1c.1 0 .1-0.1 .2-0.1c.2-0.1 .4-0.2 .6-0.4c.1 0 .1 0 .1-0.1c.4-0.2 .7-0.5 1.1-0.7c.1-0.1 .1-0.1 .2-0.2l.6-0.5c0 0 .1-0.1 .1-0.1c.4-0.4 .8-0.8 1.1-1.1v-0.1l.7-0.9h.1v-0.1c.2-0.3 .5-0.8 .7-1.2l.6-1.1c0 0 0 0 0-0.1c.2-0.4 .4-0.9 .6-1.3v-0.1l.3-1.1c0 0 0 .1 0 .2c0-0.2 .1-0.3 .1-0.5c0 0 0-0.1 .1-0.2c0-0.1 0-0.3 0-0.4c.1-0.1 .1-0.2 .1-0.3v-0.2h.1v-0.1c0-0.1 0-0.2 0-0.3v-0.1l.1-0.1v-0.2c0-0.1 0-0.1 0-0.2c0 0 0 .1 0 .1l.1-0.7c0 .2 0 .3-0.1 .4c.1-0.1 .1-0.2 .1-0.3c0 0 0-0.1 0-0.2c0-0.1 0-0.2 0-0.3c0 0 .1 0 .1 0v-0.2c0-0.4 0-0.9 .1-1.4c0-0.1 0-0.2 0-0.3c0 .1 0 .2-0.1 .4v.2l.1-0.3v-0.1v-1Zm-22.9-48.3c.1 0 .1 0 .2-0.1Z" fill="url(#Gradient-7)" transform="translate(-1000.1,-300.8)"/></g><g data-name="Group 6361" transform="translate(0,47)"><path data-name="Path 11102" d="M981.2 376.8h-0.3h-0.4h-0.3c-0.2 0-0.3 0-0.5 0h-0.5h-0.1c-0.2 0-0.4 0-0.5 0h-0.6l-0.1-0.1c-0.1 0-0.2 0-0.2 0l-0.1 17.2c0 0 0 0 0 0c0 0 0 0 0 .1c.1 0 .1 0 .1 0c0 0 0 0 0 0c0 0 0 0 0 0c0 0 0 0 0 0c0 0 0 0 0 0c0 0 0 0 0 0c0 0 0 .1 0 .1c0 0 0 0 0 0c.1 0 .1 0 .1 0c0 0 0 0 0 .1c0 0 0 0 .1 0c.2 .1 .4 .1 .7 .2c.2 .1 .5 .1 .7 .1c.3 0 .5 0 .8 0c.2 0 .5 0 .7 0c.2-0.1 .3-0.1 .5-0.1h.1c0-0.1 0-0.1 .1-0.1c0 0 0 0 0 0c.1 0 .1 0 .1 0c0 0 0 0 .1 0c0-0.1 0-0.1 0-0.1c0 0 .1 0 .1 0c0 0 0 0 0 0c.1 0 .1-0.1 .1-0.1c0 0 0 0 0 0c0 0 0 0 0 0c0 0 .1 0 .1 0c0 0 0 0 0 0c0 0 0 0 0 0c0 0 0-0.1 0-0.1c0 0 0 0 0 0c0 0 0 0 0 0c0 0 0 0 0-0.1c0 0 0 0 0 0l.1-17.2c-0.2 0-0.3 .1-0.4 .1c-0.2 0-0.4 0-0.5 0Z" fill="#2a3b7f" transform="translate(-961.4,-308.3)"/><path data-name="Path 11103" d="M1001.3 371.2c0-0.1 0-0.2 0-0.3c0-0.1 0-0.1 0-0.1v-0.1c0-0.2 0-0.4-0.1-0.5c0-0.4 0-0.8 0-1.2l-0.2-2.4v-0.1c0-0.5-0.1-1.1-0.2-1.8v-0.2v-0.1c-0.2-1.2-0.3-2.5-0.5-3.5c-0.1-0.7-0.2-1.3-0.3-1.9c0-0.3-0.1-0.7-0.2-1.1c0-0.1 0-0.2 0-0.3c0-0.2-0.1-0.4-0.1-0.6c-0.1-0.7-0.3-1.3-0.4-1.9c0-0.1 0-0.3 0-0.4l-0.1-0.2v-0.1v-0.2c-0.1-0.2-0.1-0.4-0.2-0.6v-0.2c-0.1-0.7-0.3-1.4-0.4-2l-0.1-0.5l-0.7-3l-0.1-0.2c0-0.1 0-0.2-0.1-0.3v-0.2l-0.1-0.2c0-0.1 0-0.2 0-0.2c-0.2-0.7-0.4-1.4-0.5-2.1l-0.1-0.3l-0.1-0.1v-0.1v-0.1l-0.1-0.3l-0.7-2.4v-0.1l-0.1-0.1c-0.3-1.1-0.7-2.3-1.1-3.5v-0.2c-0.4-1.1-0.7-2-1.1-2.9v-0.1c0 0 0-0.1 0-0.1c-0.5-1.1-0.9-2-1.2-2.8v-0.1c0-0.1-0.1-0.1-0.1-0.2c-0.4-0.8-0.8-1.7-1.1-2.4c-0.1-0.2-0.2-0.4-0.3-0.6c-0.1 0-0.1-0.1-0.1-0.2c-0.1-0.1-0.2-0.3-0.3-0.5l-0.2-0.3c0-0.1-0.1-0.3-0.2-0.4c-0.1-0.1-0.2-0.3-0.2-0.4l-0.1-0.1c-0.1-0.1-0.1-0.2-0.2-0.3c-0.5-0.8-0.9-1.3-1.1-1.7c-0.1-0.1-0.2-0.3-0.3-0.4l-0.3-0.3c-0.1-0.1-0.1-0.1-0.1-0.2h-0.1c-0.1-0.1-0.2-0.3-0.3-0.4c-0.1-0.1-0.1-0.2-0.2-0.3c-0.2-0.1-0.4-0.3-0.6-0.5c-0.1-0.1-0.2-0.2-0.4-0.3c-0.1-0.1-0.2-0.2-0.3-0.3c-0.3-0.2-0.5-0.3-0.7-0.5c-0.1 0-0.2 0-0.2-0.1c0 .1 .1 .1 .1 .1c-0.1-0.1-0.2-0.1-0.3-0.2c0 0-0.1 0-0.1 0c-0.1 0-0.1-0.1-0.2-0.1c0 0 0 0-0.1 0c-0.1-0.1-0.1-0.1-0.2-0.1c0 0-0.1 0-0.2-0.1h.1h-0.1c-0.1 0-0.2 0-0.3 0c0 0-0.1-0.1-0.1-0.1c0 0-0.1 0-0.1 0c0 0-0.1 0-0.1 0c-0.1 0-0.1 0-0.1 0h-0.1c-0.1 0-0.1 0-0.2-0.1c0 0-0.1 0-0.1 0c0 0-0.1 0-0.1 0c-0.1 0-0.1 0-0.2 0c0 0 0 0-0.1 0c0 .1-0.1 .1-0.1 .1c0 0-0.1 0-0.1 0c-0.1 0-0.1 0-0.1 0c-0.1 0-0.2 0-0.2 0c-0.1 0-0.2 0-0.2 .1h-0.1c0 0-0.1 0-0.2 0c-0.1 .1-0.1 .1-0.2 .1c-0.1 0-0.2 .1-0.3 .1c-0.1 .1-0.1 .1-0.1 .1c-0.1 0-0.1 0-0.1 0c-0.1 .1-0.2 .1-0.3 .2l-0.2 .1l-0.3 .1c-0.1 .1-0.1 .2-0.2 .2l-0.1 .1c-0.1 .1-0.2 .2-0.4 .3c-0.1 .1-0.2 .2-0.3 .3c0 0-0.1 0-0.1 .1c-0.1 .1-0.2 .2-0.4 .3l-0.2 .2v.1l-0.2 .1v.1l-0.1 .1c-0.1 0-0.1 .1-0.2 .1v.1l-0.1 .1l-0.5 .6l-0.1 .2c-0.1 .1-0.1 .1-0.2 .2c-0.4 .6-0.9 1.4-1.3 2l-1.1 2.1c.1-0.3 .3-0.7 .6-1.1c-0.3 .4-0.5 .9-0.7 1.3l-0.1 .1c-0.4 .8-0.9 1.8-1.2 2.6l-1.2 2.9c-0.3 .9-0.8 2.2-1.1 3.1l-1.1 3.2h.1l-0.1 .1v.1c-0.3 1-0.7 2.3-0.9 3.3l-0.9 3.2c.1-0.3 .2-0.6 .2-0.9c0 .1 0 .3-0.1 .4c0 .2-0.1 .5-0.1 .6l-0.1 .1v.1c-0.2 1-0.5 2.3-0.7 3.3l-0.8 3.3v.1v.2c-0.1 .5-0.2 1-0.3 1.5c0 .1 0 .2-0.1 .3l-0.1 .9c0 .1-0.1 .1-0.1 .2c0 .1 0 .2 0 .3l-0.5 2.9v.1c-0.1 .6-0.2 1.2-0.3 1.7c0 .3 0 .6-0.1 .9c0 .2 0 .3 0 .5c0 .1-0.1 .2-0.1 .3c0 .2 0 .5-0.1 .8c.1-0.2 .1-0.4 .1-0.6l-0.2 1.8c0 .1 0 .2 0 .3l-0.1 .7c0 .2 0 .4 0 .6c0 .3-0.1 .6-0.1 .8v.3c0 0 0 .1 0 .2c0 .6-0.1 1.3-0.1 1.9c0 .6 .1 1.3 .1 1.8l.1 1.5v.1c0 .1 0 .1 0 .1c.1 .5 .2 1.1 .3 1.5v.1l.4 1.4c0 .2 .1 .5 .2 .7c.1 .3 .2 .6 .3 .8l.5 1.3c.2 .3 .5 .8 .7 1.2l.1 .1v.1l.6 .8v.1h.1c.1 .1 .1 .2 .2 .3l.1 .1l.1 .1c.1 .1 .2 .3 .3 .4l.2 .2l.1 .1l.1 .1l.1 .1l.2 .2l.5 .4v.1c.2 .1 .4 .3 .6 .5l.4 .2c.1 .1 .2 .2 .3 .3h.1c.1 .1 .2 .2 .3 .2l.6 .4l.2 .1c.3 .2 .8 .4 1.2 .6l.1 .1l.3 .1l.5 .2l.1 .1c.2 0 .3 .1 .5 .2l.3 .1h.2l.7 .2c.1 .1 .1 .1 .2 .1c.2 0 .4 .1 .6 .1l.3 .1c.2 .1 .4 .1 .5 .1c.2 .1 .5 .1 .7 .2h.1l.4 .1h.4l.5 .1h.5h.1l.4 .1h.2h.5c.2 0 .4 0 .6 0h.1l.5 .1c.1 0 .3 0 .5 0h.2l.5-0.1h.3c.1 0 .3 0 .4 0h.5c.2 0 .3-0.1 .4-0.1h.1c.1 0 .2 0 .2 0h.4c.1-0.1 .2-0.1 .3-0.1c.1 0 .2 0 .3 0c.2-0.1 .4-0.1 .5-0.1c.1 0 .2-0.1 .3-0.1c.1 0 .2 0 .3 0c.1-0.1 .2-0.1 .3-0.1c.1 0 .2 0 .3-0.1c.1 0 .2 0 .4-0.1c0 0 0 0 .1 0h.2l.2-0.1c.2-0.1 .5-0.1 .7-0.2h.1c.6-0.2 1.2-0.4 1.8-0.7c.2-0.1 .4-0.2 .7-0.3c0 0 .1-0.1 .2-0.1c.1-0.1 .2-0.1 .3-0.2c.1 0 .2-0.1 .3-0.1l.1-0.1l.1-0.1c.2-0.1 .5-0.2 .7-0.4h.1c.3-0.3 .7-0.5 1-0.8c.1-0.1 .2-0.1 .3-0.2l.5-0.5c.1 0 .1-0.1 .2-0.1c.3-0.4 .7-0.8 1-1.1l.1-0.1l.7-0.9c.3-0.4 .5-0.9 .8-1.2v-0.1l.5-1.1h.1v-0.1c.2-0.4 .4-0.9 .5-1.3v-0.1l.4-1.1c0 .1-0.1 .1-0.1 .2c.1-0.2 .1-0.3 .1-0.4c.1-0.1 .1-0.2 .1-0.3c0-0.1 .1-0.3 .1-0.4c0-0.1 0-0.2 .1-0.3v-0.1v-0.1v-0.1c0-0.1 0-0.2 .1-0.3v-0.1v-0.1v-0.2c0 0 0-0.1 .1-0.2c0 .1-0.1 .1-0.1 .2l.1-0.7c0 .1 0 .2 0 .3c0-0.1 0-0.1 0-0.2c0-0.1 0-0.2 .1-0.2c0-0.1 0-0.2 0-0.3c0-0.1 0-0.1 0-0.1v-0.2c0-0.4 .1-0.9 .1-1.4v-0.2c0 .1 0 .2 0 .3v.2v-0.3v-0.1v-1Zm-22.9-48.3c0 0 .1 0 .1-0.1Z" fill="url(#Gradient-7)" transform="translate(-964.3,-320.5)"/></g></g><g data-name="Group 6374" transform="translate(186.7,141.7)"><g data-name="Group 6373" transform="translate(29.8,0)"><g data-name="Group 6370" transform="translate(0,185.7)"><g data-name="Group 6368"><path data-name="Path 11105" d="M962.8 323.8l-60.3 34.8l-116-67l60.3-34.8Z" fill="#dc4fa2" transform="translate(-786.5,-241.3)"/><path data-name="Path 11106" d="M791.7 289l50.5-29.2l106.2 61.3l-50.5 29.2Z" fill="#b12f7c" transform="translate(-781.9,-238.7)"/><path data-name="Path 11107" d="M796.8 289.3l96.6 55.7l40.8-23.5l-96.6-55.7Z" fill="#b4598e" transform="translate(-777.4,-233.4)"/><path data-name="Path 11108" d="M848.1 327.1v154.9l60.3-34.8v-154.9Z" fill="url(#Gradient-4)" transform="translate(-732,-209.9)"/><path data-name="Path 11109" d="M786.5 275.3l116 66.9v154.9l-116-66.9Z" fill="url(#Gradient-3)" transform="translate(-786.5,-225)"/><g data-name="Group 6363" transform="translate(18.1,188.4)"><path data-name="Path 11110" d="M798.7 377.3l29.8 17.1v-27.1l-29.8-17.2Z" fill="#ffc9e1" transform="translate(-798.7,-350.1)"/><path data-name="Path 11111" d="M820.1 389.6l29.8 17.1v-27.1l-29.8-17.2Z" fill="#ffc9e1" transform="translate(-779.8,-339.2)"/></g><g data-name="Group 6365" transform="translate(25.9,0)"><path data-name="Path 11112" d="M821.1 285.9l-5.2-13.3l-5.2-13.4l-5.2 7.4l-5.2 7.3v22.3l20.8 12.1v-22.3Z" fill="#dc4fa2" transform="translate(-800.3,-239.2)"/><g data-name="Group 6364" transform="translate(10.5,0)"><path data-name="Path 11113" d="M811.3 282.8v22.3l34.4-20v-22.3Z" fill="#a22d72" transform="translate(-800.9,-236.1)"/><path data-name="Path 11114" d="M840.2 248.6l-34.4 20l5.2 13.4l5.2 13.4l34.4-20l-5.2-13.4Z" fill="#f67db3" transform="translate(-805.8,-248.6)"/></g></g><g data-name="Group 6367" transform="translate(15.1,79.8)"><path data-name="Path 11127" d="M820.8 306.3v14.6l13.4 7.8v-14.6Z" fill="#ffc9e1" transform="translate(-775.1,-280.5)"/><path data-name="Path 11128" d="M834.9 314.3v14.7l13.5 7.7v-14.6Z" fill="#ffc9e1" transform="translate(-766.4,-275.6)"/><path data-name="Path 11129" d="M820.8 320.8v14.6l13.4 7.7v-14.6Z" fill="#ffc9e1" transform="translate(-775.1,-271.7)"/><path data-name="Path 11130" d="M834.9 328.8v14.6l13.5 7.7v-14.6Z" fill="#ffc9e1" transform="translate(-766.4,-266.8)"/><path data-name="Path 11131" d="M848.4 365.6v-14.6l-13.5-7.8v14.7Z" fill="#ffc9e1" transform="translate(-766.4,-257.9)"/><path data-name="Path 11132" d="M834.2 357.6v-14.6l-13.4-7.8v14.6Z" fill="#ffc9e1" transform="translate(-775.1,-262.8)"/><path data-name="Path 11133" d="M820 349.6v-14.7l-13.4-7.7v14.6Z" fill="#ffc9e1" transform="translate(-783.7,-267.7)"/><path data-name="Path 11134" d="M805.8 341.6v-14.7l-13.4-7.7v14.6Z" fill="#ffc9e1" transform="translate(-792.4,-272.6)"/><path data-name="Path 11135" d="M792.4 290.3v14.6l13.4 7.8v-14.7Z" fill="#ffc9e1" transform="translate(-792.4,-290.3)"/><path data-name="Path 11136" d="M792.4 304.7v14.7l13.4 7.7v-14.6Z" fill="#ffc9e1" transform="translate(-792.4,-281.5)"/><path data-name="Path 11137" d="M806.6 298.3v14.6l13.4 7.8v-14.7Z" fill="#ffc9e1" transform="translate(-783.7,-285.4)"/><path data-name="Path 11138" d="M806.6 312.8v14.6l13.4 7.7v-14.6Z" fill="#ffc9e1" transform="translate(-783.7,-276.6)"/></g></g><g data-name="Group 6369" transform="translate(75.8,56.1)"><path data-name="Path 11139" d="M871.4 298.7l-8.9 5.2l-35.8-20.4l8.9-5.2Z" fill="#f67db3" transform="translate(-826.7,-278.3)"/><path data-name="Path 11140" d="M845.7 294.3v11.1l8.9-5.2v-11Z" fill="#a22d72" transform="translate(-809.9,-268.8)"/><path data-name="Path 11141" d="M826.7 281.1l35.8 20.3v11.1l-35.8-20.4Z" fill="#dc4fa2" transform="translate(-826.7,-275.9)"/></g></g><g data-name="Group 6372" transform="translate(75.8,0)"><path data-name="Path 11142" d="M835.6 150.1l-8.9 5.2v241.7l35.8 20.4l9-5.2v-241.7Z" opacity=".44" fill="url(#Gradient-5)" transform="translate(-826.7,-150.1)"/><g data-name="Group 6371" transform="translate(14.6,41.2)"><path id="Line_335" data-name="Line 335" stroke-dasharray="0 7" stroke="#fff" stroke-linecap="round" stroke-linejoin="round" stroke-width="1.5" fill="none" d="M0 0v202.1" transform="translate(13.4,0)"/><path id="Line_336" data-name="Line 336" stroke-dasharray="0 7" stroke="#fff" stroke-linecap="round" stroke-linejoin="round" stroke-width="1.5" fill="none" d="M0 0v106.9" transform="translate(0,89.3)"/></g></g></g></g><g transform="translate(718.4,27.1) translate(-65.8,-69.6)"><ellipse id="particle3" data-name="Ellipse 2002" rx="1" ry="1" fill="#fff" opacity="0" transform="translate(0,211.3) translate(0,0) translate(4.2,4.2)"/><path id="particle1" data-name="Path 11449" d="M-329.2 205.4c0 .3 0 .5-0.1 .8c-0.1 .2-0.3 .4-0.5 .6c-0.2 .2-0.4 .3-0.6 .4c-0.3 .1-0.5 .2-0.8 .2c-0.3 0-0.5-0.1-0.8-0.2c-0.2-0.1-0.4-0.2-0.6-0.4c-0.2-0.2-0.3-0.4-0.4-0.6c-0.1-0.3-0.2-0.5-0.2-0.8c0-0.3 .1-0.5 .2-0.8c.1-0.2 .2-0.4 .4-0.6c.2-0.2 .4-0.4 .6-0.5c.3-0.1 .5-0.1 .8-0.1c.3 0 .5 0 .8 .1c.2 .1 .4 .3 .6 .5c.2 .2 .4 .4 .5 .6c.1 .3 .1 .5 .1 .8Z" fill="#fff" opacity="0" transform="translate(411,26.6) translate(0,0) translate(0,0)"/><path id="particle2" data-name="Path 11450" d="M-330.2 204.9c0 .2 0 .4-0.1 .6c-0.1 .1-0.2 .3-0.3 .5c-0.2 .1-0.3 .2-0.5 .3c-0.2 .1-0.4 .1-0.6 .1c-0.2 0-0.4 0-0.6-0.1c-0.2-0.1-0.3-0.2-0.5-0.3c-0.1-0.2-0.2-0.4-0.3-0.5c-0.1-0.2-0.1-0.4-0.1-0.6c0-0.2 0-0.4 .1-0.6c.1-0.2 .2-0.3 .3-0.5c.2-0.1 .3-0.2 .5-0.3c.2-0.1 .4-0.1 .6-0.1c.2 0 .4 0 .6 .1c.2 .1 .3 .2 .5 .3c.1 .2 .2 .3 .3 .5c.1 .2 .1 .4 .1 .6Z" fill="#fff" opacity="0" transform="translate(378.9,49.7) translate(0,0) translate(0,0)"/></g><g transform="translate(228.4,127.1) scale(.8,.8) translate(-65.8,-69.6)"><ellipse id="particle3-2" data-name="Ellipse 2002" rx="1" ry="1" fill="#fff" opacity="0" transform="translate(0,211.3) translate(0,0) translate(4.2,4.2)"/><path id="particle1-2" data-name="Path 11449" d="M-329.2 205.4c0 .3 0 .5-0.1 .8c-0.1 .2-0.3 .4-0.5 .6c-0.2 .2-0.4 .3-0.6 .4c-0.3 .1-0.5 .2-0.8 .2c-0.3 0-0.5-0.1-0.8-0.2c-0.2-0.1-0.4-0.2-0.6-0.4c-0.2-0.2-0.3-0.4-0.4-0.6c-0.1-0.3-0.2-0.5-0.2-0.8c0-0.3 .1-0.5 .2-0.8c.1-0.2 .2-0.4 .4-0.6c.2-0.2 .4-0.4 .6-0.5c.3-0.1 .5-0.1 .8-0.1c.3 0 .5 0 .8 .1c.2 .1 .4 .3 .6 .5c.2 .2 .4 .4 .5 .6c.1 .3 .1 .5 .1 .8Z" fill="#fff" opacity="0" transform="translate(411,26.6) translate(0,0) translate(0,0)"/><path id="particle2-2" data-name="Path 11450" d="M-330.2 204.9c0 .2 0 .4-0.1 .6c-0.1 .1-0.2 .3-0.3 .5c-0.2 .1-0.3 .2-0.5 .3c-0.2 .1-0.4 .1-0.6 .1c-0.2 0-0.4 0-0.6-0.1c-0.2-0.1-0.3-0.2-0.5-0.3c-0.1-0.2-0.2-0.4-0.3-0.5c-0.1-0.2-0.1-0.4-0.1-0.6c0-0.2 0-0.4 .1-0.6c.1-0.2 .2-0.3 .3-0.5c.2-0.1 .3-0.2 .5-0.3c.2-0.1 .4-0.1 .6-0.1c.2 0 .4 0 .6 .1c.2 .1 .3 .2 .5 .3c.1 .2 .2 .3 .3 .5c.1 .2 .1 .4 .1 .6Z" fill="#fff" opacity="0" transform="translate(378.9,49.7) translate(0,0) translate(0,0)"/></g><script><![CDATA[/*
 KeyshapeJS v1.0.0 (c) 2018 Pixofield Ltd | pixofield.com/keyshapejs/mit-license */
window.KeyshapeJS=function(){function A(a){return"undefined"!==typeof a}function v(a,b){return a&&0==a.indexOf(b)}function H(a){if(!isFinite(a))throw Error("Non-finite value");}function Q(a){if(14>=a)return 16;var b=R[a];b||(b=A(ba[a])?0|(a.toLowerCase().indexOf("color")==a.length-5?48:0):1);return b}function J(a){return 0<=a?Math.pow(a,1/3):-Math.pow(-a,1/3)}function ca(a,b,c,d){if(0==a)return 0==b?b=-d/c:(a=Math.sqrt(c*c-4*b*d),d=(-c+a)/(2*b),0<=d&&1>=d?b=d:(d=(-c-a)/(2*b),b=0<=d&&1>=d?d:0)),b;
var e=c/a-b*b/(a*a)/3;c=b*b*b/(a*a*a)/13.5-b*c/(a*a)/3+d/a;var n=c*c/4+e*e*e/27;b=-b/(3*a);if(0>=n){if(0==e&&0==c)return-J(d/a);a=Math.sqrt(c*c/4-n);d=Math.acos(-c/2/a);c=Math.cos(d/3);d=Math.sqrt(3)*Math.sin(d/3);a=J(a);e=2*a*c+b;if(0<=e&&1>=e)return e;e=-a*(c+d)+b;if(0<=e&&1>=e)return e;e=a*(d-c)+b;if(0<=e&&1>=e)return e}else{a=J(-c/2+Math.sqrt(n));c=J(-c/2-Math.sqrt(n));d=a+c+b;if(0<=d&&1>=d)return d;d=-(a+c)/2+b;if(0<=d&&1>=d)return d}return 0}function da(a,b){if(48==a&&"number"===typeof b)return"#"+
("000000"+b.toString(16)).substr(-6);if(64==a)return b=b.map(function(a){return a+"px"}),b.join(",");if(96==a){a="";for(var c=b.length,d=0;d<c;d+=2)a+=b[d],a+=b[d+1].join(",");return a}if(80==a){if(0==b[0])return"none";a="";c=b.length;for(d=0;d<c;)a+=S[b[d]],1==b[d]?a+="("+b[d+1]+") ":5==b[d]?(a+="("+b[d+1]+"px "+b[d+2]+"px "+b[d+3]+"px rgba("+(b[d+4]>>>24)+","+(b[d+4]>>16&255)+","+(b[d+4]>>8&255)+","+(b[d+4]&255)/255+")) ",d+=3):a=2==b[d]?a+("("+b[d+1]+"px) "):7==b[d]?a+("("+b[d+1]+"deg) "):a+("("+
(0>b[d+1]?0:b[d+1])+") "),d+=2;return a}return 32==a?b+"px":b}function w(a){return 0>=a?0:255<=a?255:a}function ea(a,b,c,d){if(16==a||32==a)return(c-b)*d+b;if(0==a)return.5>d?b:c;if(48==a){if("number"===typeof b&&"number"===typeof c){var e=1-d;return w(e*(b>>16)+d*(c>>16))<<16|w(e*(b>>8&255)+d*(c>>8&255))<<8|w(e*(b&255)+d*(c&255))}return.5>d?b:c}if(64==a){0==b.length&&(b=[0]);0==c.length&&(c=[0]);var n=b.length;b.length!=c.length&&(n=b.length*c.length);var k=[];for(a=0;a<n;++a){var f=b[a%b.length];
var h=(c[a%c.length]-f)*d+f;0>h&&(h=0);k.push(h)}return k}if(96==a){if(b.length!=c.length)return.5>d?b:c;n=b.length;k=[];for(a=0;a<n;a+=2){if(b[a]!==c[a])return.5>d?b:c;k[a]=b[a];k[a+1]=[];for(f=0;f<b[a+1].length;++f)k[a+1].push((c[a+1][f]-b[a+1][f])*d+b[a+1][f])}return k}if(80==a){n=b.length;if(n!=c.length)return.5>d?b:c;k=[];for(a=0;a<n;){if(b[a]!=c[a]||1==b[a])return.5>d?b:c;k[a]=b[a];k[a+1]=(c[a+1]-b[a+1])*d+b[a+1];if(5==b[a]){k[a+2]=(c[a+2]-b[a+2])*d+b[a+2];k[a+3]=(c[a+3]-b[a+3])*d+b[a+3];e=
1-d;var g=b[a+4],q=c[a+4];h=e*(g>>>24)+d*(q>>>24);var m=e*(g>>16&255)+d*(q>>16&255);f=e*(g>>8&255)+d*(q>>8&255);k[a+4]=(w(m)<<16|w(f)<<8|w(e*(g&255)+d*(q&255)))+16777216*(w(h)|0);a+=3}a+=2}return k}return 0}function T(a,b){a:{var c=a+b[2];var d=b[4].length;for(var e=0;e<d;++e)if(c<b[4][e]){c=e;break a}c=d-1}d=b[2];e=b[4][c-1]-d;a=(a-e)/(b[4][c]-d-e);if(b[6]&&b[6].length>c-1)if(d=b[6][c-1],1==d[0])if(0>=a)a=0;else if(1<=a)a=1;else{e=d[1];var n=d[3];a=ca(3*e-3*n+1,-6*e+3*n,3*e,-a);a=3*a*(1-a)*(1-a)*
d[2]+3*a*a*(1-a)*d[4]+a*a*a}else 2==d[0]?(d=d[1],a=Math.ceil(a*d)/d):3==d[0]&&(d=d[1],a=Math.floor(a*d)/d);return ea(b[1]&240,b[5][c-1],b[5][c],a)}function K(){x||(u=(new Date).getTime()+U)}function N(a){if(a||!C){for(var b=!1,c=0;c<t.length;++c)t[c].I(a)&&(b=!0);if(a)for(;0<F.length;)if(a=F.shift(),c=a[0],1==a[1])c.onfinish&&(c.onfinish(),b=!0),c.H();else if(2==a[1]&&c.onloop)c.onloop();return b}}function V(){K();N(!0)&&!x?(C=!0,L(V)):C=!1}function M(){C||(C=!0,L(V))}function W(a,b){var c=[];a.split(b).forEach(function(a){c.push(parseFloat(a))});
return c}function y(a){-1==a.indexOf(",")&&(a=a.replace(" ",","));return W(a,",")}function X(a){a._ks||(a._ks={});if(!a._ks.transform){for(var b=a._ks.transform=[],c=0;14>=c;++c)b[c]=0;b[10]=1;b[11]=1;if(a=a.getAttribute("transform")){a=a.trim().split(") ");for(c=a.length-2;0<=c;--c)if(v(a[c],"translate(")){for(var d=0;d<c;d++)a.shift();break}c=a.shift();v(c,"translate(")&&(c=y(c.substring(10)),b[1]=c[0],b[2]=A(c[1])?c[1]:0,c=a.shift());v(c,"rotate(")&&(c=y(c.substring(7)),b[6]=c[0],c=a.shift());
v(c,"skewX(")&&(c=y(c.substring(6)),b[7]=c[0],c=a.shift());v(c,"skewY(")&&(c=y(c.substring(6)),b[8]=c[0],c=a.shift());v(c,"scale(")&&(c=y(c.substring(6)),b[10]=c[0],b[11]=A(c[1])?c[1]:0,c=a.shift());v(c,"translate(")&&(c=y(c.substring(10)),b[13]=c[0],b[14]=A(c[1])?c[1]:0)}}}function Y(a){this.D=a;this.B=[];this.w=[];this.s=0;this.o=this.a=this.c=null;this.h=this.f=this.g=0;this.b=1;this.i=this.C=this.m=!1}function I(a,b,c){b=a[b];void 0===b&&(b=a[c]);return b}function fa(a){return Array.isArray(a)?
a:v(a,"cubic-bezier(")?(a=a.substring(13,a.length-1).split(","),[1,parseFloat(a[0]),parseFloat(a[1]),parseFloat(a[2]),parseFloat(a[3])]):v(a,"steps(")?(a=a.substring(6,a.length-1).split(","),[a[1]&&"start"==a[1].trim()?2:3,parseFloat(a[0])]):[0]}function ha(a){a=a.trim();return v(a,"#")?(parseInt(a.substring(1),16)<<8)+255:v(a,"rgba(")?(a=a.substring(5,a.length-1),a=a.split(","),(parseInt(a[0],10)<<24)+(parseInt(a[1],10)<<16)+(parseInt(a[2],10)<<8)+255*parseFloat(a[3])<<0):a}function Z(a){!1===a.i&&
(t.push(a),a.i=!0,!1!==a.D.autoplay&&a.play());return this}function O(a){if(!0===a.i){a._cancel();var b=t.indexOf(a);-1<b&&t.splice(b,1);b=F.indexOf(a);-1<b&&F.splice(b,1);a.i=!1}return this}var P=Error("Not in timeline list"),aa="mpath posX posY    rotate skewX skewY  scaleX scaleY  anchorX anchorY".split(" "),ia=" translate translate    rotate skewX skewY  scale scale  translate translate".split(" "),S="none url blur brightness contrast drop-shadow grayscale hue-rotate invert opacity saturate sepia".split(" "),
L=window.requestAnimationFrame||window.webkitRequestAnimationFrame||window.mozRequestAnimationFrame||window.oRequestAnimationFrame||window.msRequestAnimationFrame||null;L||(L=function(a){window.setTimeout(a,16)});var R={d:97,fill:48,fillOpacity:16,filter:80,height:33,opacity:16,offsetDistance:33,stroke:48,strokeDasharray:64,strokeDashoffset:32,strokeOpacity:16,strokeWidth:32,transform:1,width:33},ba=window.getComputedStyle(document.documentElement),C=!1,u=(new Date).getTime(),x,U=0,t=[],F=[];Y.prototype=
{v:function(a){var b=0;if(null!==this.c){var c=this.j();0<this.b&&null!==c&&c>=this.f?this.h?(this.c=u-this.g/this.b,this.h--,b=2):(b=1,a?this.a=c:this.a=this.o?Math.max(this.o,this.f):this.f):0>this.b&&null!==c&&c<=this.g?this.h&&Infinity!=this.f?(this.c=u-this.f/this.b,this.h--,b=2):(this.h=0,b=1,a?this.a=c:this.a=this.o?Math.min(this.o,this.g):this.g):null!==c&&0!=this.b&&(a&&null!==this.a&&(this.c=u-this.a/this.b),this.a=null)}this.o=this.j();return b},I:function(a){a&&(this.m&&(this.m=!1,null===
this.c&&(0!=this.b&&null!==this.a?(this.c=u-this.a/this.b,this.a=null):this.c=u)),null===this.a&&null!==this.c&&(a=this.v(!1),0!=a&&F.push([this,a])));a=this.j();if(null===a)return!1;for(var b=this.B,c=this.w,d=0;d<b.length;++d){for(var e=b[d],n=!1,k=0;k<c[d].length;++k){var f=c[d][k],h=f[0];if(null!==h){var g=f[2];var q=f[4].length,m=f[4][q-1]-g;g=0==m?f[5][q-1]:a<=g?f[5][0]:a>=g+f[3]?0==f[3]%m?f[5][q-1]:T(f[3]%m,f):T((a-g)%m,f);0==h?(e._ks.mpath=f[8],e._ks.transform[h]=g,n=!0):14>=h?(e._ks.transform[h]=
g,n=!0):(g=da(f[1]&240,g),f[1]&1?e.setAttribute(h,g):e.style[h]=g)}}if(n){X(e);n=e._ks.transform;k="";if(f=e._ks.mpath)g=n[0],0>g&&(g=0),100<g&&(g=100),g=g*f[2]/100,h=f[1].getPointAtLength(g),k="translate("+h.x+","+h.y+") ",f[0]&&(.5>g?(g=h,h=f[1].getPointAtLength(.5)):g=f[1].getPointAtLength(g-.5),k+="rotate("+180*Math.atan2(h.y-g.y,h.x-g.x)/Math.PI+") ");for(f=1;f<n.length;++f)h=n[f],h!=(10==f||11==f?1:0)&&(k+=" "+ia[f]+"(",k=2>=f?k+(1==f?h+",0":"0,"+h):13<=f?k+(13==f?h+",0":"0,"+h):10<=f?k+(10==
f?h+",1":"1,"+h):k+h,k+=")");e.setAttribute("transform",k)}}return"running"==this.l()},H:function(){!1!==this.D.autoremove&&"finished"==this.l()&&O(this)},A:function(){if(!this.C){this.C=!0;for(var a=this.B,b=this.w,c=0;c<a.length;++c)for(var d=a[c],e=0;e<b[c].length;++e)14>=b[c][e][0]&&X(d)}},play:function(a){A(a)&&null!==a&&(H(a),0>this.b&&a<this.g&&(a=this.g),0<this.b&&a>this.f&&(a=this.f),this.u(a,!0));if(!this.i)throw P;a=this.j();if(0<this.b&&(null===a||a>=this.f))this.a=this.g;else if(0>this.b&&
(null===a||a<=this.g)){if(Infinity==this.f)throw Error("Cannot seek to Infinity");this.a=this.f}else 0==this.b&&null===a&&(this.a=this.g);if(null===this.a)return this;this.c=null;this.m=!0;this.A();M();return this},pause:function(a){if(!this.i)throw P;A(a)&&H(a);if("paused"!=this.l()){K();var b=this.j();if(null===b)if(0<=this.b)this.a=this.g;else{if(Infinity==this.f)throw Error("Cannot seek to Infinity");this.a=this.f}null!==this.c&&null===this.a&&(this.a=b);this.c=null;this.m=!1;this.v(!1);this.A();
M()}A(a)&&this.u(a,!0);return this},range:function(a,b){if(0==arguments.length)return{"in":this.g,out:this.f};var c=+a,d=this.s;A(b)&&(d=+b);H(c);if(0>c||0>d||c>=d||isNaN(d))throw Error("Invalid range");var e=this.l();this.g=c;this.f=d;"finished"==e&&"running"==this.l()&&this.play();return this},loop:function(a){if(!A(a))return{count:this.h};this.h=!0===a?Infinity:Math.floor(a);if(0>this.h||isNaN(this.h))this.h=0;return this},j:function(){return null!==this.a?this.a:null===this.c?null:(u-this.c)*
this.b},u:function(a,b){b&&K();null!==a&&(this.A(),null!==this.a||null===this.c||0==this.b?(this.a=a,N(!1)):this.c=u-a/this.b,this.i||(this.c=null),this.o=null,this.v(!0),M())},F:function(){return this.j()},time:function(a){if(A(a)){if(!this.i)throw P;H(a);this.u(a,!0);return this}return this.F()},l:function(){var a=this.j();return this.m?"running":null===a?"idle":null===this.c?"paused":0<this.b&&a>=this.f||0>this.b&&a<=this.g?"finished":"running"},state:function(){return this.l()},duration:function(){return this.s},
G:function(a){H(a);K();var b=this.j();this.b=a;null!==b&&this.u(b,!1)},rate:function(a){return A(a)?(this.G(a),this):this.b},_cancel:function(){if(!this.i||"idle"==this.l())return this;this.c=this.a=null;this.m=!1;return this}};return{version:"1.0.0",animate:function(){var a={};if(1==arguments.length%2){a=arguments[arguments.length-1];var b={};for(c in a)b[c]=a[c];a=b}var c=new Y(a);a=arguments;for(var d=b=0;d<a.length-1;d+=2){var e=a[d];var n=e instanceof Element?e:document.getElementById(e.substring(1));
if(!n)throw Error("Invalid target: "+e);e=n;n=a[d+1];e._ks||(e._ks={});for(var k=[],f=0;f<n.length;++f){var h=n[f],g=I(h,"p","property");if("string"!=typeof g||-1!=g.indexOf("-")||""===g||!(0<R[g]||0<=aa.indexOf(g)))throw Error("Invalid property: "+g);var q=aa.indexOf(g);""!==g&&0<=q&&(g=q);q=Q(g);var m=I(h,"t","times");if(!m||2>m.length)throw Error("Not enough times");m=m.slice();if(!isFinite(m[0])||0>m[0])throw Error("Invalid time: "+m[0]);for(var B=1;B<m.length;++B)if(!isFinite(m[B])||0>m[B]||
m[B]<m[B-1])throw Error("Invalid time: "+m[B]);B=m[0];var u=m[m.length-1]-B,x=h.iterations||0;1>x&&(x=1);u*=x;b<u+B&&(b=u+B);var t=I(h,"v","values");if(!t||t.length!=m.length)throw Error("Values do not match times");t=t.slice();for(var D=g,l=t,w=Q(D)&240,p=0;p<l.length;++p)if(96==w){for(var y=l[p].substring(6,l[p].length-2).match(/[A-DF-Za-df-z][-+0-9eE., ]*/ig),C=[],r=0;r<y.length;++r){C.push(y[r][0]);for(var z=1<y[r].trim().length?y[r].substring(1).split(","):[],G=0;G<z.length;++G)z[G]=parseFloat(z[G]);
C.push(z)}l[p]=C}else if(48==w)v(l[p],"#")?l[p]=parseInt(l[p].substring(1),16):v(l[p],"url(")||"none"==l[p]||(console.warn("unsupported color: "+l[p]),l[p]=0);else if(80==w){y=l;C=p;r=l[p];if("none"==r)r=[0];else{z=[];for(var E=r.indexOf("(");0<E;)if(G=S.indexOf(r.substring(0,E)),0<=G){z.push(G);var F=r.indexOf(") ");0>F&&(F=r.length-1);E=r.substring(E+1,F).split(" ");5==G?(z.push(parseFloat(E[0])),z.push(parseFloat(E[1])),z.push(parseFloat(E[2])),z.push(ha(E[3]))):1==G?z.push(E[0]):z.push(parseFloat(E[0]));
r=r.substring(F+1).trim();E=r.indexOf("(")}else break;r=z}y[C]=r}else 64==w?"none"!=l[p]?/^[0-9 .]*$/.test(l[p])?l[p]=W(l[p]," "):(console.warn("unsupported value: "+l[p]),l[p]=[0]):l[p]=[0]:32==w?(H(l[p]),l[p]=parseFloat(l[p])):0===D&&(l[p]=parseFloat(l[p]));D=I(h,"e","easing");l=m.length;for(D||(D=[]);D.length<l;)D.push([1,0,0,.58,1]);for(l=0;l<D.length;++l)D[l]=fa(D[l]);q=[g,q,B,u,m,t,D,x];m=I(h,"mp","motionPath");A(m)&&0===g&&(q[8]=[],q[8][0]=h.motionRotate,h=document.createElementNS("http://www.w3.org/2000/svg",
"path"),m||(m="M0,0"),h.setAttribute("d",m),q[8][1]=h,q[8][2]=h.getTotalLength());k.push(q)}0<k.length&&(c.B.push(e),c.w.push(k))}c.s=b;c.g=0;c.f=c.s;Z(c);return c},add:Z,remove:O,removeAll:function(){for(var a=t.length-1;0<=a;--a)O(t[a]);return this},timelines:function(){return t.slice()},globalPlay:function(){x&&(U=x-(new Date).getTime(),x=void 0,M());return this},globalPause:function(){x||(x=u,N(!1));return this},globalState:function(){return x?"paused":"running"}}}();
]]></script><script><![CDATA[if(KeyshapeJS.version.indexOf('1.')!=0)throw Error('Expected KeyshapeJS v1.*.*');window.ks=document.ks=KeyshapeJS;(function(ks){
ks.animate("#Path_11024",[{p:'strokeDashoffset',t:[0,5000],v:[0,100],e:[[0],[0]]}],
"#Line_326",[{p:'strokeDashoffset',t:[0,5000],v:[0,100],e:[[0],[0]]}],
"#Line_327",[{p:'strokeDashoffset',t:[0,5000],v:[0,100],e:[[0],[0]]}],
"#Line_328",[{p:'strokeDashoffset',t:[0,5000],v:[0,100],e:[[0],[0]]}],
"#Line_329",[{p:'strokeDashoffset',t:[0,5000],v:[0,100],e:[[0],[0]]}],
"#Line_330",[{p:'strokeDashoffset',t:[0,5000],v:[0,100],e:[[0],[0]]}],
"#Line_331",[{p:'strokeDashoffset',t:[0,5000],v:[0,100],e:[[0],[0]]}],
"#Line_335",[{p:'strokeDashoffset',t:[0,5000],v:[0,100],e:[[0],[0]]}],
"#Line_336",[{p:'strokeDashoffset',t:[0,5000],v:[0,100],e:[[0],[0]]}],
"#particle3",[{p:'mpath',t:[0,1000,2200,3900],v:['0%','44.6%','89.7%','100%'],e:[[0],[0],[0],[0]],mp:"M0,211.3L-20,126.3L3,41.3L0,21.3"},{p:'opacity',t:[0,600,1700,2700],v:[0,1,1,0],e:[[0],[0],[0],[0]]}],
"#particle1",[{p:'mpath',t:[400,1800,3600],v:['0%','51.6%','100%'],e:[[0],[0],[0]],mp:"M411,26.6L431,-93.4L401,-203.4"},{p:'opacity',t:[400,600,3000,3300],v:[0,1,1,0],e:[[1,0,0,1,1],[0],[0],[0]]}],
"#particle2",[{p:'mpath',t:[700,1800,3600],v:['0%','80.1%','100%'],e:[[0],[0],[0]],mp:"M378.9,49.7L458.8,-40.3L458.8,-70.3"},{p:'opacity',t:[700,1000,1600,1800],v:[0,1,1,0],e:[[0],[0],[0],[0]]}],
"#particle3-2",[{p:'mpath',t:[0,1000,2200,3900],v:['0%','44.6%','89.7%','100%'],e:[[0],[0],[0],[0]],mp:"M0,211.3L-20,126.3L3,41.3L0,21.3"},{p:'opacity',t:[0,600,1700,2700],v:[0,1,1,0],e:[[0],[0],[0],[0]]}],
"#particle1-2",[{p:'mpath',t:[400,1800,3600],v:['0%','51.6%','100%'],e:[[0],[0],[0]],mp:"M411,26.6L431,-93.4L401,-203.4"},{p:'opacity',t:[400,600,3000,3300],v:[0,1,1,0],e:[[1,0,0,1,1],[0],[0],[0]]}],
"#particle2-2",[{p:'mpath',t:[700,1800,3600],v:['0%','80.1%','100%'],e:[[0],[0],[0]],mp:"M378.9,49.7L458.8,-40.3L458.8,-70.3"},{p:'opacity',t:[700,1000,1600,1800],v:[0,1,1,0],e:[[0],[0],[0],[0]]}],
{autoremove:false}).range(0,5000).loop(true);
if(document.location.search.substr(1).split('&').indexOf('global=paused')>=0)ks.globalPause()})(KeyshapeJS);
]]></script></svg>