<?xml version="1.0" standalone="no"?>
<!DOCTYPE svg PUBLIC "-//W3C//DTD SVG 20010904//EN"
 "http://www.w3.org/TR/2001/REC-SVG-20010904/DTD/svg10.dtd">
<svg version="1.0" xmlns="http://www.w3.org/2000/svg"
 width="1310.000000pt" height="463.000000pt" viewBox="0 0 1310.000000 463.000000"
 preserveAspectRatio="xMidYMid meet">

<g transform="translate(0.000000,463.000000) scale(0.100000,-0.100000)"
fill="#000000" stroke="none">
<path d="M0 2315 l0 -2315 6550 0 6550 0 0 2315 0 2315 -6550 0 -6550 0 0
-2315z m6606 1295 c460 -236 447 -226 452 -356 4 -77 5 -81 30 -91 l27 -11
-25 1 -25 2 1 -165 c1 -166 7 -223 28 -249 8 -11 8 -13 -1 -7 -8 4 -13 1 -13
-9 0 -9 5 -13 10 -10 6 3 10 -5 10 -19 0 -27 45 -80 60 -71 10 6 35 -34 26
-43 -3 -3 -6 0 -6 6 0 6 -9 9 -20 7 -11 -2 -18 0 -15 4 3 5 -2 11 -10 15 -18
7 -26 -5 -20 -33 2 -12 0 -19 -5 -16 -5 3 -12 0 -15 -6 -4 -5 -13 -8 -21 -5
-8 3 -14 0 -15 -7 0 -8 -2 -9 -5 -1 -3 8 -16 2 -35 -16 -17 -15 -50 -37 -75
-49 -53 -27 -78 -21 -188 43 -39 24 -98 57 -131 76 -33 18 -82 45 -108 60
l-49 27 -49 -18 c-27 -11 -49 -16 -49 -11 0 4 -4 1 -8 -6 -5 -7 -19 -14 -31
-17 -19 -3 -21 -2 -11 10 7 8 16 13 20 10 10 -6 21 21 13 29 -4 3 -18 -4 -32
-16 l-26 -23 19 23 c14 17 16 22 5 22 -12 0 -12 2 1 9 8 6 18 7 22 5 4 -3 8
-1 8 5 0 5 -10 13 -22 17 -13 4 -26 12 -30 18 -6 8 -8 7 -8 -1 0 -7 -7 -10
-16 -6 -8 3 -13 12 -10 19 3 7 0 16 -6 20 -6 4 -8 3 -4 -4 3 -6 2 -13 -3 -16
-11 -7 -9 13 3 32 4 7 4 12 -1 11 -20 -3 -27 2 -13 11 13 8 13 10 -2 10 -9 0
-20 5 -24 12 -5 7 -3 8 7 3 8 -5 5 2 -6 14 -21 25 -21 21 -16 291 1 63 2 198
2 299 -1 152 2 189 15 209 14 21 124 82 148 82 5 0 114 -54 242 -120z m1214
-935 c-7 -8 -17 -15 -23 -15 -6 0 -2 7 9 15 25 19 30 19 14 0z m-1520 -55 c0
-5 -2 -10 -4 -10 -3 0 -8 5 -11 10 -3 6 -1 10 4 10 6 0 11 -4 11 -10z m-52
-32 c-18 -11 -35 -25 -36 -30 -2 -5 -13 1 -23 13 -23 26 -23 26 -4 26 8 0 12
-4 9 -8 -2 -4 0 -10 6 -14 5 -3 10 -1 10 5 0 6 5 8 12 4 7 -5 9 -2 6 7 -4 10
3 15 24 16 l30 1 -34 -20z m-58 -42 c0 -4 -7 -3 -15 4 -13 11 -14 10 -9 -4 6
-15 -5 -21 -29 -17 -4 1 -10 -6 -13 -14 -3 -8 -10 -12 -15 -9 -5 3 -9 0 -9 -6
0 -6 -4 -8 -10 -5 -5 3 -10 1 -10 -6 0 -7 -3 -10 -6 -6 -4 3 -13 -1 -21 -9 -9
-8 -22 -13 -30 -10 -8 3 -12 2 -9 -3 3 -4 -10 -17 -29 -27 -19 -10 -35 -22
-35 -26 0 -5 -9 -3 -19 4 -11 7 -17 16 -14 22 4 5 -1 7 -11 3 -9 -4 -15 -3
-11 2 3 5 -1 12 -7 15 -7 3 -2 3 12 -1 23 -5 24 -5 10 12 -14 17 -14 17 7 5
12 -8 20 -17 17 -21 -2 -4 0 -10 5 -13 10 -7 9 13 -2 31 -4 6 -2 15 4 19 8 4
9 3 5 -4 -4 -7 -2 -13 3 -13 21 -3 26 -4 41 -14 13 -7 13 -6 2 7 -10 12 -9 18
3 28 12 10 18 10 33 -1 13 -10 12 -8 -3 10 -11 14 -14 21 -7 17 17 -10 54 3
46 16 -4 6 -2 8 4 4 6 -3 14 -1 17 4 5 7 12 5 21 -7 9 -12 13 -13 12 -4 -2 8
7 20 19 26 13 7 20 15 15 20 -4 4 3 1 16 -6 12 -8 22 -18 22 -23z m1460 30 c0
-6 -130 -86 -139 -86 -4 0 -18 -11 -31 -25 -12 -13 -27 -22 -31 -19 -5 3 -9 0
-9 -6 0 -6 -4 -9 -8 -6 -5 3 -25 -6 -46 -20 -20 -14 -41 -24 -47 -22 -11 4 59
50 156 103 39 21 81 45 95 55 21 14 38 23 58 29 1 1 2 -1 2 -3z m-923 -57 c79
-39 84 -64 20 -93 -23 -10 -44 -20 -47 -20 -23 -5 -70 -30 -70 -37 0 -16 -18
-9 -23 9 -4 13 -5 12 -6 -5 -1 -16 -20 -32 -78 -64 -43 -23 -81 -47 -85 -53
-5 -7 -8 -4 -8 7 0 9 -3 17 -7 17 -5 1 -23 13 -41 29 -30 26 -31 29 -15 42 15
12 16 12 8 -1 -8 -14 15 2 53 38 7 6 20 12 28 12 8 0 14 4 14 8 0 14 32 7 78
-16 52 -27 57 -10 10 31 -18 16 -28 26 -22 23 7 -3 14 1 18 9 3 8 12 15 21 15
8 0 14 4 13 10 -3 10 52 67 67 69 5 1 38 -13 72 -30z m-752 -28 c3 -5 2 -12
-3 -15 -5 -3 -9 1 -9 9 0 17 3 19 12 6z m939 -80 c27 -16 51 -36 52 -45 2 -14
-83 -76 -104 -76 -5 0 -18 -9 -30 -20 -20 -19 -22 -19 -31 -2 -6 9 -11 14 -11
11 0 -8 -70 57 -70 65 0 3 7 6 15 6 8 0 15 4 15 10 0 5 8 6 18 3 15 -6 15 -5
3 10 -11 14 -11 18 3 23 9 3 13 10 10 15 -7 12 19 7 29 -6 5 -6 7 -3 4 7 -13
38 31 38 97 -1z m-1059 -3 c-7 14 11 17 20 3 3 -6 14 -8 24 -6 10 2 18 -3 18
-11 0 -9 -6 -13 -14 -10 -8 3 -19 1 -26 -4 -101 -82 -147 -100 -178 -67 -10
11 -19 17 -19 13 0 -5 -7 -3 -15 4 -15 13 -11 35 6 25 5 -4 9 1 9 10 0 12 5
15 16 11 9 -3 23 2 32 12 10 10 13 12 8 5 -5 -7 -5 -13 -1 -13 4 0 1 -8 -6
-17 -13 -16 -12 -17 3 -4 10 7 24 11 33 7 8 -3 14 0 12 7 -1 7 5 12 14 11 9
-1 16 5 16 12 0 7 -4 11 -9 8 -4 -3 -8 -3 -8 1 0 3 10 9 22 14 16 6 27 4 36
-8 7 -9 11 -10 7 -3z m-80 -18 c-3 -5 -11 -10 -16 -10 -6 0 -7 5 -4 10 3 6 11
10 16 10 6 0 7 -4 4 -10z m1545 -14 c0 -2 -7 -7 -16 -10 -8 -3 -12 -2 -9 4 6
10 25 14 25 6z m257 -18 c-3 -8 -6 -5 -6 6 -1 11 2 17 5 13 3 -3 4 -12 1 -19z
m-2122 -42 c16 -13 17 -15 4 -16 -9 0 -27 8 -40 18 -13 10 -32 21 -41 25 -10
3 -18 11 -18 17 0 11 60 -17 95 -44z m2435 47 c0 -5 -23 -21 -50 -36 -61 -34
-67 -19 -7 17 44 27 57 31 57 19z m-660 -38 c0 -2 -10 -9 -22 -15 -22 -11 -22
-10 -4 4 21 17 26 19 26 11z m-487 -43 c27 -12 47 -27 45 -34 -2 -6 -40 -30
-85 -54 -45 -23 -78 -46 -75 -49 4 -4 3 -5 -3 -4 -14 4 -74 -31 -106 -61 -18
-17 -40 -27 -69 -29 -24 -1 -40 1 -36 7 3 5 -6 14 -20 21 -14 6 -22 16 -19 21
4 6 -1 7 -11 3 -11 -4 -15 -3 -10 5 3 6 -4 21 -16 33 -21 19 -19 19 24 -4 26
-14 45 -21 42 -14 -2 7 8 26 22 42 14 17 23 23 19 15 -6 -13 -5 -13 7 0 21 24
44 23 99 -5 28 -15 54 -24 57 -21 3 4 -11 21 -31 40 -20 19 -37 38 -37 43 0
16 22 32 37 26 8 -3 25 5 38 17 13 12 28 19 34 16 5 -4 13 -1 17 5 5 8 3 9 -6
4 -8 -5 -11 -4 -6 3 4 6 14 8 24 4 9 -5 39 -18 65 -30z m-373 -1 l55 -29 -34
-18 c-18 -11 -46 -29 -61 -41 -15 -13 -36 -24 -46 -26 -11 -1 -25 -6 -32 -10
-7 -5 -14 -2 -18 7 -3 9 -11 16 -18 16 -11 1 -56 34 -56 43 0 10 61 -1 78 -14
15 -12 15 -12 -1 7 -10 12 -17 27 -15 34 3 11 73 58 88 59 3 0 30 -13 60 -28z
m721 14 c20 -13 52 -14 67 -2 7 5 15 7 19 4 3 -4 -2 -9 -11 -13 -13 -5 -14 -9
-5 -20 14 -17 21 -11 -71 -64 -41 -24 -78 -48 -81 -53 -9 -12 -22 10 -14 23 3
6 -1 7 -10 4 -10 -4 -13 -13 -10 -25 5 -14 -9 -26 -69 -59 -42 -23 -78 -46
-82 -51 -3 -5 -10 -7 -15 -3 -5 3 -7 10 -4 15 4 5 2 9 -4 9 -5 0 -11 -10 -13
-22 -2 -15 -27 -36 -87 -70 -46 -26 -86 -48 -87 -48 -2 0 -4 6 -4 13 0 7 -21
28 -46 46 -25 18 -43 35 -40 38 3 3 1 13 -6 20 -6 8 5 5 25 -7 33 -19 43 -21
35 -5 -5 8 37 34 55 35 10 0 20 6 23 14 6 14 47 13 69 -2 15 -11 55 -8 55 3 0
6 -3 10 -7 10 -19 1 -34 18 -28 32 4 13 3 14 -9 4 -11 -9 -16 -9 -22 1 -4 7
-4 10 1 6 4 -4 20 1 34 11 14 10 37 24 51 31 22 11 24 11 15 -1 -5 -8 -2 -6 7
4 22 23 47 28 73 14 26 -14 56 -17 75 -6 8 5 12 9 8 10 -58 12 -74 44 -35 69
12 7 17 7 12 1 -3 -6 -1 -11 4 -11 6 0 11 7 11 15 0 8 3 14 8 13 15 -3 62 15
57 22 -6 10 37 6 56 -5z m-557 -61 c3 -8 2 -12 -4 -9 -6 3 -10 10 -10 16 0 14
7 11 14 -7z m-1025 -100 c58 -36 113 -69 121 -74 8 -5 110 -66 225 -136 116
-69 228 -138 250 -152 22 -15 56 -35 75 -45 19 -11 42 -25 51 -33 8 -8 19 -14
23 -14 4 0 37 -20 74 -43 37 -24 101 -63 142 -88 41 -24 77 -46 80 -49 3 -3
21 -15 41 -27 l37 -21 73 42 c41 23 105 61 142 85 38 23 66 38 63 33 -3 -5
-38 -29 -77 -53 -39 -24 -79 -49 -88 -54 -9 -6 -37 -23 -63 -39 l-48 -28 -32
20 c-18 11 -49 29 -68 40 -19 10 -73 43 -120 72 -46 28 -103 62 -125 75 -22
12 -89 53 -150 90 -203 125 -290 178 -335 203 -25 14 -75 45 -112 69 -37 23
-70 43 -72 43 -8 0 -200 121 -216 136 -30 29 6 12 109 -52z m2351 61 c0 -2
-10 -9 -22 -15 -22 -11 -22 -10 -4 4 21 17 26 19 26 11z m-55 -35 c-3 -5 -16
-15 -28 -21 -19 -9 -19 -8 3 10 28 23 34 26 25 11z m453 -77 c36 -22 29 -58
-18 -88 -50 -32 -90 -47 -90 -36 0 5 23 23 50 41 33 21 50 39 48 49 -3 13 -74
60 -112 74 -5 2 -6 9 -2 15 7 12 37 -2 124 -55z m-540 22 c-20 -14 -40 -25
-45 -25 -11 0 60 49 72 50 5 0 -7 -11 -27 -25z m-2584 -6 c-10 -11 -40 -32
-66 -47 -26 -15 -48 -33 -48 -39 0 -7 20 -25 44 -40 24 -16 54 -41 67 -58 12
-16 16 -24 9 -17 -8 6 -21 12 -29 12 -24 1 -124 77 -127 97 -2 10 5 26 14 36
23 26 103 66 151 76 2 1 -4 -8 -15 -20z m2526 -29 c0 -5 -5 -10 -11 -10 -5 0
-7 5 -4 10 3 6 8 10 11 10 2 0 4 -4 4 -10z m-49 -29 c-13 -10 -71 -47 -129
-82 -134 -81 -140 -84 -127 -71 11 12 267 172 275 172 3 0 -6 -9 -19 -19z
m-3041 -161 c-20 -13 -33 -13 -25 0 3 6 14 10 23 10 15 0 15 -2 2 -10z m2751
-18 c-38 -27 -107 -66 -96 -55 12 13 108 73 115 72 3 0 -6 -8 -19 -17z m-2081
-22 c0 -5 -2 -10 -4 -10 -3 0 -8 5 -11 10 -3 6 -1 10 4 10 6 0 11 -4 11 -10z
m-567 -15 c-3 -13 -30 -18 -51 -10 -14 5 -14 7 -2 16 19 11 56 8 53 -6z m1917
5 c0 -5 -4 -10 -10 -10 -5 0 -10 5 -10 10 0 6 5 10 10 10 6 0 10 -4 10 -10z
m33 -61 c-4 -4 -9 6 -10 24 -1 30 -1 31 8 8 5 -14 6 -28 2 -32z m50 26 c4 3 5
2 2 -2 -8 -11 -36 -13 -29 -2 3 5 0 9 -6 9 -6 0 -8 5 -4 12 5 8 11 6 19 -5 7
-9 15 -15 18 -12z m532 -5 c-3 -5 -12 -10 -18 -10 -7 0 -6 4 3 10 19 12 23 12
15 0z m-1809 -47 c-6 -6 -46 20 -46 30 0 4 11 0 25 -9 14 -9 24 -19 21 -21z
m1764 23 c-21 -20 -232 -147 -236 -143 -4 3 233 153 246 156 2 1 -2 -5 -10
-13z m-2690 -106 c0 -15 -42 -22 -53 -11 -9 9 -8 14 2 20 15 10 51 3 51 -9z
m1050 10 c0 -5 -2 -10 -4 -10 -3 0 -8 5 -11 10 -3 6 -1 10 4 10 6 0 11 -4 11
-10z m1051 -24 c52 -29 65 -33 83 -23 12 7 23 15 26 18 9 11 72 41 77 36 7 -8
-113 -77 -133 -77 -11 0 -44 18 -74 40 -67 49 -60 51 21 6z m-945 -42 c46 -31
84 -58 84 -61 0 -5 -6 -2 -102 60 -72 45 -87 57 -72 57 3 0 43 -25 90 -56z
m168 -105 c20 -12 36 -23 36 -25 0 -5 -44 18 -70 35 -27 19 -2 11 34 -10z
m1030 -24 c-4 -8 -10 -15 -15 -15 -5 0 -9 7 -9 15 0 8 7 15 15 15 9 0 12 -6 9
-15z m-910 -54 c-6 -6 -74 32 -74 42 0 4 18 -3 39 -15 22 -12 38 -25 35 -27z
m856 36 c0 -10 -39 -47 -49 -47 -16 0 -14 10 6 32 14 15 43 25 43 15z m550
-31 c0 -2 -16 -13 -35 -25 -19 -11 -35 -17 -35 -12 0 4 15 15 33 24 37 18 37
18 37 13z m-1235 -105 c72 -44 137 -86 145 -91 55 -38 136 -85 205 -119 44
-22 94 -49 110 -60 41 -28 94 -27 139 4 21 14 35 21 32 16 -4 -5 -2 -12 4 -16
18 -11 11 -20 -35 -44 -36 -19 -53 -22 -86 -17 -44 7 -111 42 -151 79 -33 30
-152 107 -166 107 -7 0 -12 5 -12 10 0 6 -5 10 -10 10 -6 0 -23 8 -38 19 -15
10 -65 43 -112 73 -172 111 -185 120 -170 115 8 -2 74 -41 145 -86z m1141 44
c-8 -8 -18 -15 -22 -15 -3 0 -1 7 6 15 7 8 17 15 22 15 5 0 3 -7 -6 -15z m-46
-28 c-8 -8 -76 -51 -150 -97 -74 -46 -143 -90 -153 -99 -9 -8 -20 -11 -23 -8
-3 3 16 19 42 36 27 16 103 64 169 105 120 76 142 88 115 63z m-725 -473 c89
-53 137 -68 206 -60 73 7 79 8 79 15 0 3 15 12 33 19 17 7 39 17 48 22 9 5 20
6 23 3 3 -4 -15 -22 -41 -41 -148 -107 -242 -97 -406 43 -81 69 -58 69 58 -1z
m-428 -215 l28 -11 -25 -13 c-32 -17 -68 -2 -49 21 14 17 11 17 46 3z m1453
-108 c0 -12 -21 -19 -37 -13 -22 8 -14 22 12 22 14 0 25 -4 25 -9z m-56 -216
c-11 -8 -28 -15 -39 -15 -15 0 -12 5 15 24 36 24 57 16 24 -9z m-134 -78 c0
-16 -57 -50 -64 -38 -3 5 9 18 26 29 41 25 38 24 38 9z m-670 -61 c0 -3 -23
-19 -102 -70 -16 -10 -28 -16 -28 -13 0 5 121 87 127 87 2 0 3 -2 3 -4z m610
-66 c0 -14 -33 -21 -44 -10 -8 8 -7 13 3 19 15 10 41 4 41 -9z"/>
<path d="M6331 3531 c-8 -5 -11 -30 -10 -74 1 -37 3 -67 5 -67 13 0 34 37 34
61 0 34 8 36 60 9 22 -11 40 -16 40 -10 0 28 -106 95 -129 81z"/>
<path d="M6466 3309 c-26 -30 -28 -45 -28 -152 1 -115 111 -267 194 -267 28 0
58 28 58 53 0 21 -19 32 -33 18 -16 -16 -63 -14 -97 4 -31 16 -73 68 -63 79 3
3 2 6 -4 6 -16 0 -10 150 8 185 25 52 72 47 138 -17 l43 -42 -15 37 c-9 20
-14 37 -11 37 14 0 -56 55 -91 71 -55 25 -69 24 -99 -12z"/>
<path d="M6680 3334 c0 -10 30 -32 83 -59 44 -24 47 -28 48 -68 0 -31 2 -37 8
-22 5 11 6 26 3 34 -3 9 -1 12 6 7 8 -4 8 3 1 26 -5 18 -9 34 -9 35 0 2 -3 2
-7 1 -5 -1 -31 10 -60 25 -52 27 -73 33 -73 21z"/>
<path d="M6351 3054 c0 -11 3 -14 6 -6 3 7 2 16 -1 19 -3 4 -6 -2 -5 -13z"/>
<path d="M6324 2995 l1 -60 55 -32 c51 -31 100 -43 100 -25 0 5 -11 15 -25 22
-14 7 -25 17 -25 22 0 5 -4 6 -10 3 -5 -3 -10 -1 -10 6 0 7 -3 9 -6 6 -13 -12
-44 36 -44 66 0 26 -13 31 -16 6 -4 -24 -7 -21 -14 11 -7 29 -8 24 -6 -25z"/>
<path d="M6813 2808 c4 -10 2 -18 -3 -18 -6 0 -10 -14 -10 -31 0 -28 -2 -31
-25 -25 -83 20 -78 21 -66 -2 6 -12 32 -34 58 -48 41 -25 47 -26 58 -11 14 20
9 127 -7 142 -8 7 -9 5 -5 -7z"/>
<path d="M7080 2569 c0 -5 5 -7 10 -4 6 3 10 8 10 11 0 2 -4 4 -10 4 -5 0 -10
-5 -10 -11z"/>
<path d="M6080 2519 c0 -5 5 -7 10 -4 6 3 10 8 10 11 0 2 -4 4 -10 4 -5 0 -10
-5 -10 -11z"/>
</g>
</svg>
