<svg xmlns="http://www.w3.org/2000/svg" width="1476" height="647"><defs><clipPath id="a"><path data-name="Rectangle 250" transform="translate(3326.802 1472.043)" fill="#fff" stroke="#707070" d="M0 0h1476v647H0z"/></clipPath></defs><g data-name="Mask Group 43" transform="translate(-3326.802 -1472.043)" clip-path="url(#a)"><g data-name="Group 438"><g data-name="Group 437" fill="#00e1ff" opacity=".11"><path data-name="Path 1742" d="M4470.789 2454.959l-113.272-96.081-.911 2.269 112.4 95.339.912 63.128-63.646 53.545a12.414 12.414 0 00-14.448.7 8.187 8.187 0 00.05 12.965 12.366 12.366 0 0015.387 0 8.127 8.127 0 00.811-12.141l61.891-52.067 1.363 94.226 1.806-.055-2.331-161.091z"/><path data-name="Path 1743" d="M4544.082 2320.81l.91-2.27 410.894 348.485-.91 2.268z"/><path data-name="Path 1744" d="M4471.155 2332.239h36.2a8.714 8.714 0 003.083 5.169 12.363 12.363 0 0015.387 0 8.188 8.188 0 00-.049-12.965 12.365 12.365 0 00-15.388 0 8.644 8.644 0 00-3.043 5.169h-35.721l-39.081-31.572-.877 2.3 39.284 31.737z"/><path data-name="Path 1745" d="M4623.394 2284.302h38.6a8.876 8.876 0 002.9 4.376 12.364 12.364 0 0015.387 0 8.187 8.187 0 00-.051-12.965 12.366 12.366 0 00-15.387 0 8.5 8.5 0 00-3.134 5.962h-37.857l-67.232-53.138-.863 2.31 67.435 53.3z"/><path data-name="Path 1746" d="M4820.328 2208.184l26.83-23.044a12.414 12.414 0 0014.363-.75 8.187 8.187 0 00-.05-12.965 12.364 12.364 0 00-15.386 0 8.134 8.134 0 00-.741 12.222l-50.52 43.39h-112.045l-60.33-50.268-.9 2.279 58.636 48.857v1.76h2.112l173.385 144.468.209.174h112.25v-2.626h-111.768l-106.476-88.72h75.7l58.526 49.235a8.139 8.139 0 00.887 12.162 12.362 12.362 0 0015.386 0 8.185 8.185 0 00-.05-12.964 12.425 12.425 0 00-14.421-.718l-59.633-50.165-.21-.176h-79.337l-60.812-50.67h109.387l23.215-19.939 77.937 64.23.207.171h78.309v-2.627h-77.839z"/><path data-name="Path 1747" d="M4934.28 1995.293c-5.873 0-10.634 4.118-10.634 9.2a8.418 8.418 0 002.282 5.683l-165.3 140.515v-86.375l119.279-97.566a12.435 12.435 0 0013.716-1.151 8.188 8.188 0 00-.051-12.965 12.364 12.364 0 00-15.387 0 8.16 8.16 0 00-.236 12.7l-118.668 97.067-.461.377v89.446l-11.821 10.049h-55.689l-59.54-45.832-.844 2.322 59.937 46.137h56.622l180.216-153.19a11.655 11.655 0 006.579 1.982c5.871 0 10.632-4.12 10.632-9.2s-4.761-9.199-10.632-9.199z"/><path data-name="Path 1748" d="M4745.584 1989.945l-41.279 35.179v-67.785l161.517-136.084a12.428 12.428 0 0013.408-1.308 8.187 8.187 0 00-.051-12.965 12.363 12.363 0 00-15.386 0 8.182 8.182 0 00.015 12.932l-160.86 135.53-.449.38v70.49h.408l-65.316 55.663.913 2.268 107.57-91.673h58.848l154.021-134.321-.928-2.253-153.593 133.947z"/><path data-name="Path 1749" d="M4712.29 1889.002l-114.134 95.767.9 2.276 328.644-275.756v-61.056l39.351-36.678-.974-2.212-40.184 37.453v60.981l-211.8 177.715v-99.7l21.45-17.947h68.866l44.194-35.215a12.408 12.408 0 0014.665-.55 8.188 8.188 0 00-.05-12.965 12.369 12.369 0 00-15.388 0 8.116 8.116 0 00-1 11.93l-42.887 34.172h-65.263l121.229-101.435a12.416 12.416 0 0014.236-.829 8.187 8.187 0 00-.05-12.965 12.364 12.364 0 00-15.387 0 8.139 8.139 0 00-.651 12.313l-145.772 121.969z"/><path data-name="Path 1750" d="M4569.415 1912.3h56.071a8.713 8.713 0 003.083 5.169c4.263 3.58 8.914 3.58 13.149 0a8.188 8.188 0 00-.05-12.965c-4.264-3.58-8.913-3.58-13.149 0a8.626 8.626 0 00-3.043 5.169h-56.535l-82.6 67.78.888 2.289z"/><path data-name="Path 1751" d="M4700.253 1734.426l.44-.383v-143.795l44.6-37.453h87.3l102.075-84.9a12.417 12.417 0 0014.263-.812 8.187 8.187 0 00-.05-12.965 12.366 12.366 0 00-15.387 0 8.139 8.139 0 00-.677 12.29l-100.7 83.762h-83.692l217.966-183.042a12.425 12.425 0 0013.97-.993 8.187 8.187 0 00-.051-12.965 12.363 12.363 0 00-15.387 0 8.147 8.147 0 00-.43 12.518l-265.151 222.667-.451.378v143.823l-145.798 126.826.927 2.254z"/><path data-name="Path 1752" d="M4641.894 1653.931a9.11 9.11 0 002.527 3.335c4.263 3.58 8.6 3.58 12.834 0a8.187 8.187 0 00-.049-12.965c-4.264-3.58-8.6-3.58-12.835 0a8.354 8.354 0 00-3.13 7h-38.851l-67.774 55.387V1578.45l90.443-73.882h100.671l249.791-213.808-.916-2.264-249.367 213.443h-96.961l52.892-43.207v-119.3a11.594 11.594 0 005.875-2.55 8.188 8.188 0 00-.049-12.965 12.365 12.365 0 00-15.388 0 8.186 8.186 0 00.05 12.964 12 12 0 007.706 2.685v117.626l-146.551 119.717v130.158h1.339l-126.723 103.563.884 2.291 194.551-158.995z"/><path data-name="Path 1753" d="M4146.785 2010.744l-1.783 1.517-79.863-68.969a12.427 12.427 0 01-14.314-.789c-4.264-3.576-4.154-10.984.081-14.56a12.352 12.352 0 0115.387 0c4 3.348 4.131 10.263.664 13.865z"/><path data-name="Path 1754" d="M4265.195 1928.895l-1.807 1.543-57.893-47.35h-44.924a8.6 8.6 0 01-3.042 5.17c-4.235 3.585-8.254 3.585-12.513 0a8.18 8.18 0 01-.053-12.958c4.236-3.585 8.254-3.585 12.512 0a8.633 8.633 0 013.083 5.17h45.409l.209.161z"/><path data-name="Path 1755" d="M4330.799 2333.518l-76.532 68v-.109h-1.806v1.714l-125.226 111.27-.432.385v97.353h1.805v-95.879l123.853-110.047v91.61l-69.561 59.63a12.413 12.413 0 00-14.371.744 8.186 8.186 0 00.05 12.965 12.365 12.365 0 0015.385 0 8.134 8.134 0 00.75-12.215l69.553-59.623v-94.723l77.474-68.837z"/><path data-name="Path 1756" d="M4255.842 2349.983l-.9-2.28-200.172 166.838h-72.9a8.72 8.72 0 00-3.083-5.17 12.364 12.364 0 00-15.387 0 8.186 8.186 0 00.05 12.965 12.364 12.364 0 0015.387 0 8.637 8.637 0 003.043-5.168h73.366z"/><path data-name="Path 1757" d="M4199.566 2294.04l-152.564 129.838a12.415 12.415 0 00-14.4.726 8.187 8.187 0 00.049 12.965 12.362 12.362 0 0015.386 0 8.131 8.131 0 00.773-12.186l151.667-129.076z"/><path data-name="Path 1758" d="M4167.929 2281.694l-107.006 90.882h-64.686l-53.223 48.721a12.419 12.419 0 00-14.1.912 8.187 8.187 0 00.05 12.965 12.364 12.364 0 0015.387 0 8.143 8.143 0 00.5-12.454l51.909-47.518h61.071l-115.225 97.862h-120.783l-105.345 92.392a12.374 12.374 0 00-15.068.241 8.186 8.186 0 00.051 12.965 12.363 12.363 0 0015.386 0 8.11 8.11 0 001.291-11.594l104.188-91.376h117.187l-56.161 47.7-.447.381v117.709h1.806v-116.2l284.129-241.315z"/><path data-name="Path 1759" d="M3596.421 2420.305h233.767l176.655-145.225-.889-2.287-176.242 144.884h-233.783l-279.127 238.329.914 2.266 240.7-205.522v97.17l-63.4 52.561a12.364 12.364 0 00-15.3.063 8.186 8.186 0 00.05 12.964 12.364 12.364 0 0015.387 0 8.1 8.1 0 001.481-11.341l63.136-52.343.456-.379v-100.236z"/><path data-name="Path 1760" d="M3877.899 2303.591l110.491-100.312-.958-2.229-110.051 99.914H3644.69l-35.622 29.913h-118.73l-127.367 106.35a12.365 12.365 0 00-15.274.085 8.186 8.186 0 00.05 12.964 12.363 12.363 0 0015.387 0 8.1 8.1 0 001.458-11.372l126.229-105.4h115.121l-107.83 90.55a12.366 12.366 0 00-15.25.1 8.187 8.187 0 00.05 12.965 12.364 12.364 0 0015.386 0 8.106 8.106 0 001.44-11.4l145.437-122.132z"/><path data-name="Path 1761" d="M4172.255 1966.466l-1.784 1.517-94.638-80.92v-86.623l-296.884-250.631a12.416 12.416 0 01-14.408-.729c-4.259-3.577-4.229-11.287.007-14.872a12.373 12.373 0 0115.386 0c3.962 3.331 4.2 10.482.82 14.084l194.159 163.915v-118.735l-53.513-44.689a12.43 12.43 0 01-14.454-.7c-4.265-3.577-4.236-11.5 0-15.081a12.374 12.374 0 0115.387 0c3.945 3.323 4.2 10.657.861 14.25l53.524 44.706v121.776l100.921 85.2v86.623z"/><path data-name="Path 1762" d="M4062.652 2063.121l-1.795 1.534-73.134-61.011h-127.981l-.21-.178-122.435-104.76v-65.343a11.877 11.877 0 01-6.763-2.653c-4.265-3.576-4.235-11.541 0-15.125a12.375 12.375 0 0115.387 0c4.259 3.584 4.235 11.549 0 15.125a11.809 11.809 0 01-6.817 2.653v63.842l121.334 103.811h127.969l.209.177z"/><path data-name="Path 1763" d="M4293.087 1886.036l-1.788 1.526-191.444-161.873v-146.923a11.8 11.8 0 01-6.764-2.653c-4.266-3.576-4.235-11.2 0-14.773a12.35 12.35 0 0115.386 0c4.264 3.577 4.235 11.2 0 14.773a11.752 11.752 0 01-6.818 2.653v145.414z"/><path data-name="Path 1764" d="M4854.475 2597.512a12.425 12.425 0 00-14.479-.68l-236.7-196.365-.208-.172h-76.384l-53.139-44.538-.9 2.276 117.04 98.093v104.092l97.021 80.89.9-2.279-96.112-80.138v-104.083l-61.67-51.687h72.77l71.558 59.365v82.292l62.865 53.679a8.141 8.141 0 00.836 12.22 12.365 12.365 0 0015.387 0 8.187 8.187 0 00-.05-12.965 12.429 12.429 0 00-14.36-.755l-62.872-53.684v-79.289l162.231 134.586a8.135 8.135 0 00.935 12.107 12.365 12.365 0 0015.387 0 8.187 8.187 0 00-.056-12.965z"/><path data-name="Path 1765" d="M4981.744 2543.446a12.447 12.447 0 00-13.133-1.448l-156.043-132.4-.21-.179h-87.564l-143.633-121.554-.908 2.271 108.16 91.534v29.825l134.024 111.378a8.174 8.174 0 00.176 12.847 12.365 12.365 0 0015.386 0 8.186 8.186 0 00-.05-12.965 12.452 12.452 0 00-13.523-1.254l-134.209-111.527v-26.772l33.876 28.67.211.178h87.563l154.687 131.247c-.063.052-.134.1-.2.15a8.187 8.187 0 00.051 12.965 12.362 12.362 0 0015.386 0 8.185 8.185 0 00-.047-12.966z"/><path data-name="Path 1766" d="M4577.276 1777.217a8.187 8.187 0 00-.05-12.965 10.373 10.373 0 00-13.929-.007 8.132 8.132 0 00-.76 12.2l-144.68 123.526.915 2.267 145.575-124.294a10.252 10.252 0 0012.929-.727z"/><path data-name="Path 1767" d="M4448.706 1403.018a12.43 12.43 0 01-14.134.891l-143.96 123.21v251.648l47.93 39.553-1.806 1.534-47.931-39.554v-254.69l.449-.381 143.461-122.779a8.135 8.135 0 01.553-12.4 12.372 12.372 0 0115.387 0 8.187 8.187 0 01.051 12.968z"/></g></g></g></svg>