<svg xmlns="http://www.w3.org/2000/svg" width="303.482" height="226.694"><defs><filter id="a" x="0" y="0" width="303.482" height="226.694" filterUnits="userSpaceOnUse"><feOffset dy="14"/><feGaussianBlur stdDeviation="19" result="c"/><feFlood flood-opacity=".302"/><feComposite operator="in" in2="c"/><feComposite in="SourceGraphic"/></filter><filter id="c" x="0" y="0" width="303.482" height="226.694" filterUnits="userSpaceOnUse"><feOffset dx="5" dy="5"/><feGaussianBlur stdDeviation="12" result="e"/><feFlood flood-color="#ffcfeb" flood-opacity=".788" result="f"/><feComposite operator="out" in="SourceGraphic" in2="e"/><feComposite operator="in" in="f"/><feComposite operator="in" in2="SourceGraphic"/></filter><linearGradient id="b" x1=".14" y1="1.752" x2=".688" y2=".121" gradientUnits="objectBoundingBox"><stop offset="0" stop-color="#003e93"/><stop offset=".145" stop-color="#033d92"/><stop offset=".288" stop-color="#0f3b8f"/><stop offset=".431" stop-color="#23398b"/><stop offset=".574" stop-color="#3f3585"/><stop offset=".717" stop-color="#63317e"/><stop offset=".859" stop-color="#8f2b75"/><stop offset="1" stop-color="#c3256b"/></linearGradient></defs><g data-type="innerShadowGroup"><g filter="url(#a)"><path d="M260.75 164.415a34.4 34.4 0 01-34.124 34.667c-9.415.064-112.389.9-124.7 1a30.4 30.4 0 1112.159-58.144 56.034 56.034 0 0155.576-54.548h.455a56.1 56.1 0 0154.519 42.932c.484 0 .963-.029 1.448-.029a34.381 34.381 0 0134.667 34.122z" transform="translate(-14.27 -44.39)" fill="url(#b)"/></g><g filter="url(#c)"><path d="M246.48 120.025a34.4 34.4 0 01-34.124 34.667c-9.415.064-112.389.9-124.7 1a30.4 30.4 0 1112.159-58.144A56.034 56.034 0 01155.391 43h.455a56.1 56.1 0 0154.519 42.932c.484 0 .963-.029 1.448-.029a34.381 34.381 0 0134.667 34.122z" fill="#fff"/></g></g></svg>