<svg xmlns="http://www.w3.org/2000/svg" width="143.147" height="143.147"><path d="M0 0h11.011v11.011H0zm22.023 0h11.011v11.011H22.023zm22.022 0h11.011v11.011H44.045zm22.023 0h11.011v11.011H66.068zM88.09 0h11.011v11.011H88.09zm22.023 0h11.011v11.011h-11.011zm22.022 0h11.011v11.011h-11.011zM0 22.023h11.011v11.011H0zm22.023 0h11.011v11.011H22.023zm22.022 0h11.011v11.011H44.045zm22.023 0h11.011v11.011H66.068zm22.022 0h11.011v11.011H88.09zm22.023 0h11.011v11.011h-11.011zm22.022 0h11.011v11.011h-11.011zM0 44.045h11.011v11.011H0zm22.023 0h11.011v11.011H22.023zm22.022 0h11.011v11.011H44.045zm22.023 0h11.011v11.011H66.068zm22.022 0h11.011v11.011H88.09zm22.023 0h11.011v11.011h-11.011zm22.022 0h11.011v11.011h-11.011zM0 66.068h11.011v11.011H0zm22.023 0h11.011v11.011H22.023zm22.022 0h11.011v11.011H44.045zm22.023 0h11.011v11.011H66.068zm22.022 0h11.011v11.011H88.09zm22.023 0h11.011v11.011h-11.011zm22.022 0h11.011v11.011h-11.011zM0 88.091h11.011v11.011H0zm22.023 0h11.011v11.011H22.023zm22.022 0h11.011v11.011H44.045zm22.023 0h11.011v11.011H66.068zm22.022 0h11.011v11.011H88.09zm22.023 0h11.011v11.011h-11.011zm22.022 0h11.011v11.011h-11.011zM0 110.113h11.011v11.011H0zm22.023 0h11.011v11.011H22.023zm22.022 0h11.011v11.011H44.045zm22.023 0h11.011v11.011H66.068zm22.022 0h11.011v11.011H88.09zm22.023 0h11.011v11.011h-11.011zm22.022 0h11.011v11.011h-11.011zM0 132.136h11.011v11.011H0zm22.023 0h11.011v11.011H22.023zm22.022 0h11.011v11.011H44.045zm22.023 0h11.011v11.011H66.068zm22.022 0h11.011v11.011H88.09zm22.023 0h11.011v11.011h-11.011zm22.022 0h11.011v11.011h-11.011z" fill="#1f3c66" opacity=".31"/></svg>