<svg xmlns="http://www.w3.org/2000/svg" width="125" height="125"><defs><linearGradient id="a" x1="14.175" x2="0" y2="13.313" gradientUnits="objectBoundingBox"><stop offset="0" stop-color="#fff"/><stop offset="1" stop-color="#fff"/></linearGradient></defs><path d="M0 0h9.615v9.615H0zm19.231 0h9.615v9.615h-9.615zm19.23 0h9.615v9.615h-9.615zm19.231 0h9.615v9.615h-9.615zm19.231 0h9.615v9.615h-9.615zm19.231 0h9.615v9.615h-9.615zm19.231 0H125v9.615h-9.615zM0 19.231h9.615v9.615H0zm19.231 0h9.615v9.615h-9.615zm19.23 0h9.615v9.615h-9.615zm19.231 0h9.615v9.615h-9.615zm19.231 0h9.615v9.615h-9.615zm19.231 0h9.615v9.615h-9.615zm19.231 0H125v9.615h-9.615zM0 38.462h9.615v9.615H0zm19.231 0h9.615v9.615h-9.615zm19.23 0h9.615v9.615h-9.615zm19.231 0h9.615v9.615h-9.615zm19.231 0h9.615v9.615h-9.615zm19.231 0h9.615v9.615h-9.615zm19.231 0H125v9.615h-9.615zM0 57.693h9.615v9.615H0zm19.231 0h9.615v9.615h-9.615zm19.23 0h9.615v9.615h-9.615zm19.231 0h9.615v9.615h-9.615zm19.231 0h9.615v9.615h-9.615zm19.231 0h9.615v9.615h-9.615zm19.231 0H125v9.615h-9.615zM0 76.924h9.615v9.615H0zm19.231 0h9.615v9.615h-9.615zm19.23 0h9.615v9.615h-9.615zm19.231 0h9.615v9.615h-9.615zm19.231 0h9.615v9.615h-9.615zm19.231 0h9.615v9.615h-9.615zm19.231 0H125v9.615h-9.615zM0 96.154h9.615v9.615H0zm19.231 0h9.615v9.615h-9.615zm19.23 0h9.615v9.615h-9.615zm19.231 0h9.615v9.615h-9.615zm19.231 0h9.615v9.615h-9.615zm19.231 0h9.615v9.615h-9.615zm19.231 0H125v9.615h-9.615zM0 115.385h9.615V125H0zm19.231 0h9.615V125h-9.615zm19.23 0h9.615V125h-9.615zm19.231 0h9.615V125h-9.615zm19.231 0h9.615V125h-9.615zm19.231 0h9.615V125h-9.615zm19.231 0H125V125h-9.615z" fill="url(#a)" opacity=".07"/></svg>