<svg xmlns="http://www.w3.org/2000/svg" width="193.42" height="63.595"><path d="M80.529 15.8h12.23l-6.4-10.537-11.854 19h-5.453L83.54 1.497a3.4 3.4 0 015.645 0l14.676 22.766h-5.456l-2.634-4.139h-12.42L80.529 15.8m56.634 4.327V.376h-4.7v21.638a1.711 1.711 0 00.753 1.505 2.8 2.8 0 001.693.753h21.069l2.822-4.327h-21.637m-76.39-3.387a8.091 8.091 0 100-16.181h-20.32V24.46h4.7V4.516h15.24a3.951 3.951 0 010 7.9H47.414L61.149 24.46h6.773l-9.219-7.714h2.07m-48.731 7.526h14.111A12.126 12.126 0 0038.195 12.23 12 12 0 0026.153.188H12.23A12.126 12.126 0 00.188 12.23a11.847 11.847 0 0011.854 12.042m13.735-4.139H12.418a7.749 7.749 0 01-7.714-7.714A7.63 7.63 0 0112.418 4.7h13.359a7.63 7.63 0 017.711 7.718 7.749 7.749 0 01-7.714 7.714m87.679 4.139h14.3l2.634-4.139h-16.555a7.749 7.749 0 01-7.714-7.714 7.63 7.63 0 017.714-7.714h13.547l2.822-4.327h-16.557a12.126 12.126 0 00-12.042 12.042 11.687 11.687 0 0011.854 11.854m56.446-4.139a7.9 7.9 0 01-7.526-5.645h19.756l2.634-4.327h-22.39a7.9 7.9 0 017.526-5.645h13.546L186.082.19h-16.557a12.042 12.042 0 100 24.083h14.3l2.634-4.139h-16.558m18.815-17.31a2.07 2.07 0 112.07 2.07 2.088 2.088 0 01-2.07-2.07m2.07 2.822a2.634 2.634 0 10-2.634-2.634 2.691 2.691 0 002.634 2.634m-.188-4.327h.753a.823.823 0 01.564.753v.188c0 .188 0 .376-.376.564h-.188l.753 1.317h-.753l-.563-1.131h-.376v1.129h-.564v-3.01h.753m.188 1.505a.691.691 0 00.564-.188v-.188a.657.657 0 00-.188-.376h-.753v.941h.376" fill="#d80011"/><path d="M15.8 45.344c-.188-.753-.564-4.139-5.268-4.139-5.833 0-6.773 6.021-6.773 9.972 0 4.516 1.317 9.408 6.773 9.408a5.235 5.235 0 003.951-1.505 3.469 3.469 0 001.129-2.446h3.575c-.564 4.7-4.892 6.773-9.031 6.773-8.467 0-10.16-7.526-10.16-12.042 0-5.08 1.882-12.606 10.537-12.606 3.387 0 8.279 1.317 8.655 6.773H15.8zm8.283-6.585h3.2v24.083h-3.2zm16.369 6.962c6.773 0 8.279 5.268 8.279 8.843 0 4.892-2.822 9.031-8.467 9.031-5.456 0-8.279-3.763-8.279-8.655.001-4.327 1.882-9.219 8.468-9.219zm-.187 15.428c2.446 0 5.08-1.693 5.08-6.773 0-4.139-1.882-6.4-4.892-6.4-2.07 0-5.268 1.317-5.268 6.585-.001 3.389 1.505 6.588 5.08 6.588zm15.992-15.052v10.725c0 1.693.376 3.763 3.575 3.763a4.727 4.727 0 003.951-1.882 5.043 5.043 0 00.753-3.2v-9.406h3.2v13.547a21.755 21.755 0 00.188 3.2h-3.2V60.02c-.564 1.129-1.693 3.01-5.268 3.01-4.139 0-6.021-2.446-6.021-5.645V46.097zm28.976-7.338h3.01v21.449a14.306 14.306 0 00.188 2.634h-3.2v-2.634a3.825 3.825 0 01-1.505 1.693 7.6 7.6 0 01-4.139 1.317c-2.258 0-7.15-1.129-7.15-8.467 0-6.4 3.575-9.219 7.526-9.219a5.692 5.692 0 015.268 2.822zM84.1 49.672a4.371 4.371 0 00-3.575-1.693c-4.516 0-4.516 5.645-4.516 6.773 0 3.01.753 6.4 4.516 6.4 4.892 0 4.892-5.456 4.892-6.773-.184-2.638-.749-3.955-1.317-4.707z" fill="#141215"/></svg>