<svg xmlns="http://www.w3.org/2000/svg" width="204.449" height="58.9"><path d="M35.18 55.754c9.77-1.726 17.839-3.154 17.932-3.174l.169-.036-9.225-10.97c-5.073-6.034-9.224-10.995-9.224-11.023 0-.055 9.525-26.283 9.583-26.376.018-.031 6.5 11.159 15.712 27.126a84411.634 84411.634 0 0115.8 27.389l.12.21H46.733l-29.318-.008 17.763-3.138zm112.415-2.653c-4.462-.286-7.057-2.827-7.745-7.583-.183-1.265-.184-1.3-.2-9.511l-.018-7.949h3.95l.016 7.689c.014 6.93.023 7.742.089 8.23a7.291 7.291 0 001.715 4.264 4.921 4.921 0 002.765 1.449 10.517 10.517 0 002.652 0 5.862 5.862 0 003.006-1.632 7.945 7.945 0 002.026-3.883l.116-.522.013-7.754.013-7.754h4.032v24.378h-3.991v-1.934a14.646 14.646 0 00-.045-1.919 1.588 1.588 0 00-.228.348 8.111 8.111 0 01-3.089 3.092 8.67 8.67 0 01-5.076.99zm45.291-.02a10.462 10.462 0 01-4.589-1.5c-2.857-1.767-4.548-4.681-5.043-8.69a21 21 0 01-.049-4.43 14.392 14.392 0 012.828-7.066 14.447 14.447 0 011.708-1.708 10.642 10.642 0 014.36-2.081 14.168 14.168 0 013.535-.206 9.3 9.3 0 016.267 3.219 12.3 12.3 0 012.53 7.651c.017.5.021 1.379.009 1.952l-.027 1.045-8.643.011-8.643.011v.386a9.558 9.558 0 00.779 3.649 8.025 8.025 0 001.758 2.571 7.727 7.727 0 004.382 1.853 17.09 17.09 0 002.863-.11 12.135 12.135 0 005.4-2.227c.179-.134.351-.26.381-.279a7.294 7.294 0 01.054 1.8v1.835l-.408.253a14.305 14.305 0 01-5.792 2.008 33.256 33.256 0 01-3.661.054zm7.521-15.474a7.854 7.854 0 00-2-5.277 5.5 5.5 0 00-3.052-1.48 9.017 9.017 0 00-2.369.067 6.192 6.192 0 00-3.233 1.718 8.809 8.809 0 00-2.139 3.424 10.988 10.988 0 00-.414 1.683l-.028.206h13.236zM83.165 52.469c.01-.03 2.945-7.74 6.522-17.134l6.5-17.08h4.179l.173.445c.53 1.359 13.02 33.787 13.02 33.8s-1 .02-2.223.02h-2.221l-1.8-4.793-1.8-4.79h-14.5l-.063.163c-.035.089-.8 2.246-1.709 4.793l-1.646 4.63h-2.223a12.013 12.013 0 01-2.209-.053zm21.029-13.19c0-.008-1.211-3.292-2.692-7.3-2.77-7.5-2.925-7.946-3.144-9.15-.1-.564-.155-.58-.215-.065a11.96 11.96 0 01-.378 1.648c-.072.227-1.32 3.65-2.772 7.608s-2.641 7.213-2.641 7.233 2.665.037 5.921.037 5.921-.006 5.921-.014zm10.714 12.62v-.624l7.222-9.928 7.222-9.928-6.538-.022-6.538-.022-.011-1.659-.011-1.659h18.914v1.121l-7.222 9.982c-3.972 5.49-7.223 9.991-7.223 10s3.211.021 7.136.021h7.136v3.34h-20.086zm52.994.6c-.016-.016-.029-5.521-.029-12.233v-12.2h3.947v2.516c0 1.384.017 2.516.037 2.516a2.239 2.239 0 00.213-.5 8.7 8.7 0 012.2-3.4 5.715 5.715 0 013.118-1.55 6.461 6.461 0 011.3-.047 5.764 5.764 0 011.811.253l.163.053v4.1l-.466-.233a4.981 4.981 0 00-2.614-.525 4.732 4.732 0 00-1.562.306 4.941 4.941 0 00-2.487 2.031 11.8 11.8 0 00-1.651 4.747c-.032.29-.051 2.654-.059 7.315l-.011 6.886h-1.944c-1.069 0-1.957-.013-1.973-.029zm-167.9-.086c0-.015 4.346-7.56 9.658-16.766l9.655-16.74L30.571 9.46A3996.756 3996.756 0 0141.864 0a1.98 1.98 0 01-.181.455L29.461 26.67l-12 25.745-8.729.011c-4.8.006-8.729 0-8.729-.017z" fill="#0089d6"/></svg>