<svg xmlns="http://www.w3.org/2000/svg" width="299.812" height="46.464"><path d="M93.536 37.655a15.062 15.062 0 01-10.887-4.463 14.951 14.951 0 010-21.5 15.02 15.02 0 0110.887-4.55 14.548 14.548 0 0110.431 4.207l-2.936 2.98a10.553 10.553 0 00-7.5-2.963 10.422 10.422 0 00-7.755 3.3 11.114 11.114 0 000 15.558 11.059 11.059 0 0015.429.18 8.746 8.746 0 002.258-5.125h-9.885V21.05h14a13.7 13.7 0 01.165 2.575 13.218 13.218 0 01-3.616 9.729 14.012 14.012 0 01-10.595 4.3zm32.539-2.8a10.093 10.093 0 01-13.959 0 9.4 9.4 0 01-2.859-7 9.416 9.416 0 012.859-7.006 10.1 10.1 0 0113.959 0 9.392 9.392 0 012.851 7.006 9.4 9.4 0 01-2.867 7zm-10.878-2.756a5.345 5.345 0 007.8 0 6.334 6.334 0 000-8.524 5.426 5.426 0 00-7.829 0 6.311 6.311 0 00.016 8.524zm32.345 2.756a10.106 10.106 0 01-13.969 0 9.413 9.413 0 01-2.85-7 9.393 9.393 0 012.85-7.006 10.093 10.093 0 0113.969 0 9.407 9.407 0 012.85 7.006 9.428 9.428 0 01-2.85 7zm-10.888-2.756a5.356 5.356 0 007.806 0 6.334 6.334 0 000-8.524 5.43 5.43 0 00-7.833 0 6.32 6.32 0 00.01 8.524zm24.994 14.358a8.591 8.591 0 01-5.486-1.743 10.143 10.143 0 01-3.2-4.063l3.761-1.563a6.272 6.272 0 001.864 2.455 4.66 4.66 0 003.081 1.041 4.943 4.943 0 003.838-1.487 6.008 6.008 0 001.375-4.282v-1.419h-.155a6.277 6.277 0 01-5.153 2.226 8.929 8.929 0 01-6.593-2.87 9.921 9.921 0 010-13.865 8.965 8.965 0 016.593-2.886 7.144 7.144 0 013.032.68 6.112 6.112 0 012.133 1.56h.157V18.68h4.085v17.561a10.258 10.258 0 01-2.617 7.669 9.245 9.245 0 01-6.715 2.55zm.3-12.657a4.827 4.827 0 003.727-1.648 6.1 6.1 0 001.495-4.224 6.257 6.257 0 00-1.495-4.3 4.774 4.774 0 00-3.727-1.648 5.112 5.112 0 00-3.863 1.648 6.009 6.009 0 00-1.648 4.266 5.929 5.929 0 001.648 4.225 5.122 5.122 0 003.863 1.683zm16.3 3.262h-4.309V8.248h4.309v28.814zm11.8.593a9.357 9.357 0 01-6.937-2.816 9.592 9.592 0 01-2.79-6.989 9.681 9.681 0 012.688-7.057 8.866 8.866 0 016.599-2.752 8.367 8.367 0 013.3.644 7.616 7.616 0 012.522 1.648 10.583 10.583 0 012.621 3.924l.446 1.125-13.188 5.418a4.944 4.944 0 004.747 2.969 5.648 5.648 0 004.834-2.721l3.3 2.224a11.044 11.044 0 01-3.167 3 8.974 8.974 0 01-4.964 1.383zm-5.5-10.105l8.766-3.64a2.984 2.984 0 00-1.364-1.5 4.434 4.434 0 00-2.259-.574 5.071 5.071 0 00-3.545 1.562 5.236 5.236 0 00-1.6 4.155zm36.481 10.105a13.59 13.59 0 01-13.814-13.9 13.58 13.58 0 0113.814-13.893 12.3 12.3 0 019.778 4.355l-2.378 2.3a8.979 8.979 0 00-7.384-3.376 10.079 10.079 0 00-7.34 2.936 10.279 10.279 0 00-2.979 7.678 10.3 10.3 0 002.979 7.683 10.077 10.077 0 007.34 2.936 10.478 10.478 0 008.242-3.855l2.372 2.37a12.843 12.843 0 01-4.561 3.477 14 14 0 01-6.068 1.288zm13.598-.593h3.409V10.438h-3.409zm8.982-16.021a9.651 9.651 0 110 13.841 10.4 10.4 0 010-13.841zm2.541 11.7a5.755 5.755 0 008.354 0 7.343 7.343 0 000-9.564 5.755 5.755 0 00-8.354 0 7.329 7.329 0 00.018 9.548l-.018.016zm32.465 4.323h-3.3v-2.525h-.1a6.339 6.339 0 01-2.406 2.277 6.781 6.781 0 01-3.383.909 6.452 6.452 0 01-5.176-2.077 8.257 8.257 0 01-1.761-5.573V18.864h3.409v10.583q0 5.088 4.5 5.092a4.218 4.218 0 003.469-1.648 6.257 6.257 0 001.33-3.941V18.864h3.417v18.2zm11.581.591a8 8 0 01-6.1-2.79 9.9 9.9 0 01-2.559-6.9 9.92 9.92 0 012.559-6.912 8.023 8.023 0 016.1-2.783 7.708 7.708 0 013.727.895 6.244 6.244 0 012.474 2.223h.144l-.144-2.524v-8.426h3.415v26.624h-3.3v-2.523h-.153a6.245 6.245 0 01-2.474 2.224 7.663 7.663 0 01-3.692.892zm.566-3.116a5.458 5.458 0 004.1-1.778 6.68 6.68 0 001.648-4.8 6.688 6.688 0 00-1.648-4.8 5.573 5.573 0 00-8.243 0 6.562 6.562 0 00-1.648 4.78 6.569 6.569 0 001.648 4.784 5.423 5.423 0 004.138 1.811z" fill="#5f6368"/><path d="M34.289 11.978l1.726.029 4.689-4.689.227-1.987A21.063 21.063 0 006.592 15.565a2.538 2.538 0 011.606-.089l9.37-1.541s.482-.8.726-.758a11.672 11.672 0 0115.994-1.208z" fill="#ea4335"/><path d="M47.29 15.584a21.109 21.109 0 00-6.361-10.252l-6.64 6.64a11.685 11.685 0 014.371 9.109v1.172a5.855 5.855 0 010 11.709H26.947l-1.172 1.177v7.026l1.172 1.166H38.66a15.214 15.214 0 008.63-27.746z" fill="#4285f4"/><path d="M15.225 43.34h11.7v-9.38h-11.7a5.8 5.8 0 01-2.41-.524l-1.689.518-4.689 4.691-.411 1.583a15.154 15.154 0 009.2 3.106z" fill="#34a853"/><path d="M15.226 12.889A15.217 15.217 0 006.033 40.24l6.789-6.789a5.854 5.854 0 117.741-7.74l6.789-6.792a15.2 15.2 0 00-12.126-6.03z" fill="#fbbc05"/></svg>