<svg xmlns="http://www.w3.org/2000/svg" width="115.194" height="68.886"><defs><style>.b{fill:#f90;fill-rule:evenodd}</style></defs><path d="M32.463 25.018a11.592 11.592 0 00.421 3.41 20.508 20.508 0 001.226 2.758 1.667 1.667 0 01.268.881 1.517 1.517 0 01-.728 1.149l-2.414 1.609a1.837 1.837 0 01-1 .345 1.763 1.763 0 01-1.149-.536 11.853 11.853 0 01-1.379-1.8 29.86 29.86 0 01-1.188-2.26 14.153 14.153 0 01-11.257 5.286 10.5 10.5 0 01-7.665-2.76 9.842 9.842 0 01-2.835-7.354 9.863 9.863 0 013.486-7.892c2.337-1.992 5.44-2.988 9.387-2.988a30.334 30.334 0 014.061.307c1.418.192 2.873.5 4.406.843v-2.8c0-2.912-.613-4.942-1.8-6.13-1.227-1.186-3.296-1.761-6.246-1.761a17.432 17.432 0 00-4.138.5 30.528 30.528 0 00-4.138 1.3 10.993 10.993 0 01-1.341.5 2.35 2.35 0 01-.613.115c-.536 0-.8-.383-.8-1.188V4.674a2.424 2.424 0 01.268-1.341 2.869 2.869 0 011.073-.8A22.057 22.057 0 0113.192.8a23.228 23.228 0 015.977-.728c4.559 0 7.892 1.034 10.038 3.1 2.107 2.069 3.18 5.21 3.18 9.425v12.421zm-15.555 5.823a12.417 12.417 0 003.946-.69 8.537 8.537 0 003.64-2.452 6.081 6.081 0 001.3-2.452 13.754 13.754 0 00.383-3.333v-1.608a32 32 0 00-3.525-.651 28.869 28.869 0 00-3.6-.23c-2.567 0-4.444.5-5.709 1.532a5.34 5.34 0 00-1.88 4.406 5.348 5.348 0 001.418 4.061 5.313 5.313 0 004.027 1.417zm30.765 4.138a2.139 2.139 0 01-1.456-.383 3.123 3.123 0 01-.8-1.494l-9-29.616a6.711 6.711 0 01-.354-1.532.84.84 0 01.919-.958h3.755a2.124 2.124 0 011.494.383 3.135 3.135 0 01.766 1.494l6.436 25.363 5.979-25.363a2.687 2.687 0 01.728-1.494A2.635 2.635 0 0157.672 1h3.065a2.306 2.306 0 011.533.383 2.582 2.582 0 01.728 1.494l6.053 25.669 6.628-25.673a3.285 3.285 0 01.766-1.494A2.5 2.5 0 0177.94 1h3.563a.852.852 0 01.958.958 3.821 3.821 0 01-.077.613 5.451 5.451 0 01-.268.958L72.882 33.14a2.938 2.938 0 01-.8 1.494 2.451 2.451 0 01-1.456.383h-3.299a2.306 2.306 0 01-1.533-.383 2.716 2.716 0 01-.731-1.534L59.128 8.39l-5.9 24.673a2.99 2.99 0 01-.728 1.532 2.375 2.375 0 01-1.532.383zm49.231 1.034a25.353 25.353 0 01-5.9-.69 17.429 17.429 0 01-4.406-1.532 2.761 2.761 0 01-1.188-1.073 2.7 2.7 0 01-.23-1.073v-1.953c0-.8.307-1.188.881-1.188a2.169 2.169 0 01.69.115c.23.077.575.23.958.383a20.839 20.839 0 004.214 1.341 23.008 23.008 0 004.559.46 10.337 10.337 0 005.594-1.264 4.126 4.126 0 001.993-3.639 3.731 3.731 0 00-1.034-2.682 9.613 9.613 0 00-3.87-1.992L93.61 19.5a11.686 11.686 0 01-6.13-3.908 9.128 9.128 0 01-1.917-5.554 8.527 8.527 0 011.034-4.253 9.851 9.851 0 012.758-3.142A12.16 12.16 0 0193.339.651 16.7 16.7 0 0198.166 0a19.233 19.233 0 012.567.153 42.25 42.25 0 012.49.421c.766.192 1.494.383 2.184.613a8.362 8.362 0 011.609.69 3.313 3.313 0 011.149.958 2.065 2.065 0 01.348 1.265v1.8c0 .8-.307 1.226-.881 1.226a3.985 3.985 0 01-1.456-.46 17.527 17.527 0 00-7.356-1.494 9.889 9.889 0 00-5.1 1.073 3.7 3.7 0 00-1.8 3.41 3.618 3.618 0 001.149 2.72 11.444 11.444 0 004.214 2.107l5.44 1.724a11.653 11.653 0 015.94 3.678 8.669 8.669 0 011.762 5.364 9.849 9.849 0 01-1 4.444 10.3 10.3 0 01-2.8 3.371 12.35 12.35 0 01-4.253 2.145 18.218 18.218 0 01-5.468.806z" fill="#252f3e"/><path class="b" d="M104.145 54.633c-12.604 9.31-30.913 14.249-46.664 14.249A84.421 84.421 0 01.51 47.162c-1.188-1.073-.115-2.529 1.3-1.686A114.894 114.894 0 0058.822 60.61a113.763 113.763 0 0043.485-8.888c2.107-.958 3.907 1.379 1.838 2.911z"/><path class="b" d="M109.394 48.653c-1.609-2.069-10.651-1-14.75-.5-1.226.153-1.418-.92-.307-1.724 7.2-5.057 19.041-3.6 20.42-1.916 1.379 1.724-.383 13.563-7.126 19.233-1.034.881-2.031.421-1.571-.728 1.534-3.787 4.944-12.331 3.334-14.365z"/></svg>