<svg xmlns="http://www.w3.org/2000/svg" width="125" height="125"><defs><linearGradient id="a" x1="14.175" x2="0" y2="13.313" gradientUnits="objectBoundingBox"><stop offset="0" stop-color="#1f3c66"/><stop offset="1" stop-color="#fff"/></linearGradient></defs><g data-name="Group 14852"><path data-name="Rectangle 3" d="M1028 1465.809h9.615v9.615H1028zm19.231 0h9.615v9.615h-9.615zm19.23 0h9.615v9.615h-9.615zm19.231 0h9.615v9.615h-9.615zm19.231 0h9.615v9.615h-9.615zm19.231 0h9.615v9.615h-9.615zm19.231 0H1153v9.615h-9.615zM1028 1485.04h9.615v9.615H1028zm19.231 0h9.615v9.615h-9.615zm19.23 0h9.615v9.615h-9.615zm19.231 0h9.615v9.615h-9.615zm19.231 0h9.615v9.615h-9.615zm19.231 0h9.615v9.615h-9.615zm19.231 0H1153v9.615h-9.615zM1028 1504.271h9.615v9.615H1028zm19.231 0h9.615v9.615h-9.615zm19.23 0h9.615v9.615h-9.615zm19.231 0h9.615v9.615h-9.615zm19.231 0h9.615v9.615h-9.615zm19.231 0h9.615v9.615h-9.615zm19.231 0H1153v9.615h-9.615zM1028 1523.502h9.615v9.615H1028zm19.231 0h9.615v9.615h-9.615zm19.23 0h9.615v9.615h-9.615zm19.231 0h9.615v9.615h-9.615zm19.231 0h9.615v9.615h-9.615zm19.231 0h9.615v9.615h-9.615zm19.231 0H1153v9.615h-9.615zM1028 1542.733h9.615v9.615H1028zm19.231 0h9.615v9.615h-9.615zm19.23 0h9.615v9.615h-9.615zm19.231 0h9.615v9.615h-9.615zm19.231 0h9.615v9.615h-9.615zm19.231 0h9.615v9.615h-9.615zm19.231 0H1153v9.615h-9.615zM1028 1561.963h9.615v9.615H1028zm19.231 0h9.615v9.615h-9.615zm19.23 0h9.615v9.615h-9.615zm19.231 0h9.615v9.615h-9.615zm19.231 0h9.615v9.615h-9.615zm19.231 0h9.615v9.615h-9.615zm19.231 0H1153v9.615h-9.615zM1028 1581.194h9.615v9.615H1028zm19.231 0h9.615v9.615h-9.615zm19.23 0h9.615v9.615h-9.615zm19.231 0h9.615v9.615h-9.615zm19.231 0h9.615v9.615h-9.615zm19.231 0h9.615v9.615h-9.615zm19.231 0H1153v9.615h-9.615z" transform="translate(-1028 -1465.809)" opacity=".15" fill="url(#a)"/></g></svg>